<?xml version="1.0" standalone="no"?>
<!DOCTYPE svg PUBLIC "-//W3C//DTD SVG 20010904//EN"
 "http://www.w3.org/TR/2001/REC-SVG-20010904/DTD/svg10.dtd">
<svg version="1.0" xmlns="http://www.w3.org/2000/svg"
 width="1221.000000pt" height="687.000000pt" viewBox="0 0 1221.000000 687.000000"
 preserveAspectRatio="xMidYMid meet">
<metadata>
Created by potrace 1.16, written by Peter Selinger 2001-2019
</metadata>
<g transform="translate(0.000000,687.000000) scale(0.100000,-0.100000)"
fill="#000000" stroke="none">
<path d="M0 3435 l0 -3435 6105 0 6105 0 0 115 0 115 -1857 3 -1858 2 1858 3
1857 2 0 30 0 30 -1751 0 c-1155 0 -1757 3 -1769 10 -16 9 -17 14 -8 41 19 54
78 56 98 3 l10 -24 325 0 c210 0 325 -4 325 -10 0 -7 433 -10 1280 -10 l1280
0 0 135 0 135 -575 0 -575 0 -10 26 c-6 14 -10 71 -10 128 0 99 1 103 28 129
15 15 35 27 43 27 7 0 25 12 38 25 12 14 26 23 30 21 9 -6 93 14 107 26 13 9
-6 -55 -19 -68 -4 -4 -7 -29 -7 -56 l0 -48 483 0 482 0 -3 -240 -3 -240 101 0
100 0 0 2590 0 2590 -125 0 c-69 0 -124 -3 -123 -7 3 -16 -15 -43 -25 -36 -5
3 -7 2 -4 -3 3 -6 2 -15 -2 -22 -14 -23 -59 10 -76 56 -9 23 -23 42 -31 42
-13 0 -16 4 -18 33 -1 6 -10 22 -21 34 -11 12 -25 28 -31 35 -6 7 -21 20 -33
28 -11 8 -21 25 -21 37 l0 23 255 0 255 0 0 110 0 110 -340 0 -339 0 -12 -22
c-8 -14 -14 -18 -17 -10 -2 6 -9 12 -16 12 -26 0 -35 22 -19 46 l15 24 364 0
c359 0 364 0 364 20 0 20 -4 20 -392 17 -216 -2 -405 -7 -420 -11 -22 -7 -31
-3 -51 18 -13 14 -27 26 -31 26 -9 0 -59 45 -108 96 -53 57 -74 67 -85 39 -4
-12 -22 1 -72 53 -36 37 -83 81 -103 96 -21 15 -38 34 -38 42 0 9 -8 14 -17
13 -40 -3 -54 3 -90 39 -20 20 -40 37 -44 37 -4 0 -19 13 -33 28 -20 21 -30
26 -39 18 -9 -7 -16 -5 -25 9 -14 24 -69 53 -82 45 -6 -4 -13 0 -16 8 -3 9
-13 13 -25 10 -10 -3 -19 -1 -19 3 0 5 -105 10 -232 12 -128 1 -279 7 -335 12
-56 6 -105 10 -110 9 -4 -1 -15 1 -23 4 -20 8 -92 16 -167 19 -35 2 -63 6 -63
9 0 3 -23 9 -52 12 -28 4 -55 11 -58 18 -4 6 -42 16 -85 22 -61 8 -79 14 -83
29 -2 10 -10 18 -17 18 -7 0 -26 7 -41 15 -16 8 -36 15 -45 15 -9 0 -22 6 -28
14 -7 8 -26 18 -42 21 -16 4 -38 16 -48 27 -17 17 -36 20 -155 25 -116 5 -136
4 -136 -9 0 -15 39 -38 75 -45 11 -2 27 -12 35 -22 8 -11 39 -31 68 -46 30
-14 52 -29 49 -31 -3 -3 -30 8 -61 25 -30 17 -60 31 -67 31 -6 0 -17 7 -23 15
-6 8 -31 25 -56 38 -25 14 -44 30 -43 36 2 8 -1158 11 -4387 11 l-4390 0 0
-3435z m8945 3415 c3 -6 25 -19 49 -29 23 -11 53 -31 67 -45 26 -26 127 -76
154 -76 8 0 20 -9 27 -20 7 -11 20 -20 28 -20 18 0 87 -24 96 -33 4 -4 20 -7
35 -7 15 0 34 -6 41 -13 7 -7 24 -13 38 -14 14 -1 45 -6 70 -11 54 -12 107
-20 178 -27 30 -3 58 -8 63 -11 6 -3 36 -8 67 -10 180 -13 309 -19 405 -19 59
0 107 -2 107 -5 0 -5 34 -9 98 -11 17 -1 32 -5 32 -9 0 -4 11 -6 24 -5 13 2
33 -5 43 -14 10 -10 24 -16 31 -13 6 2 12 -1 12 -8 0 -6 5 -8 10 -5 6 3 10 2
10 -2 0 -5 20 -19 45 -33 25 -14 45 -30 45 -37 0 -7 -17 -2 -45 14 -25 13 -45
29 -45 35 0 6 -6 5 -15 -2 -10 -8 -15 -9 -15 -1 0 6 -11 13 -25 17 -14 3 -25
11 -25 17 0 6 -3 8 -6 4 -3 -3 -23 1 -45 8 -22 8 -42 14 -44 14 -3 0 -33 2
-68 5 -34 3 -134 8 -222 12 -88 3 -173 8 -190 9 -16 2 -64 6 -105 10 -41 3
-102 11 -135 17 -33 5 -73 11 -90 13 -77 9 -197 35 -223 49 -17 9 -48 18 -71
22 -23 4 -41 10 -41 13 0 4 -23 14 -50 21 -28 8 -58 22 -67 32 -9 10 -21 18
-26 18 -22 0 -146 66 -147 78 0 6 -7 12 -15 12 -9 0 -18 7 -21 15 -4 8 -14 15
-24 15 -10 0 -28 9 -41 20 l-24 19 22 1 c12 0 25 -5 28 -10z m-240 -50 c3 -5
1 -10 -4 -10 -6 0 -11 5 -11 10 0 6 2 10 4 10 3 0 8 -4 11 -10z m115 -19 c0
-4 12 -13 26 -20 15 -6 24 -14 21 -17 -8 -8 -65 27 -71 42 -3 8 1 11 10 7 7
-3 14 -8 14 -12z m91 -58 c13 -17 13 -17 -6 -3 -11 8 -22 16 -24 17 -2 2 0 3
6 3 6 0 17 -8 24 -17z m98 -45 c36 -18 72 -38 79 -45 7 -7 18 -13 24 -13 6 0
9 -3 6 -6 -5 -4 -167 76 -187 93 -15 12 21 -2 78 -29z m68 19 c4 -8 51 -33
103 -57 92 -42 155 -79 75 -45 -22 10 -50 20 -62 22 -12 3 -28 11 -34 19 -6 8
-17 14 -24 14 -18 0 -71 28 -85 45 -10 12 -9 15 3 15 9 0 20 -6 24 -13z m-126
-74 c13 -17 13 -17 -6 -3 -11 8 -22 16 -24 17 -2 2 0 3 6 3 6 0 17 -8 24 -17z
m90 -39 c17 -20 -2 -17 -31 6 -24 18 -24 19 -3 14 12 -4 28 -12 34 -20z m139
6 c0 -5 -4 -10 -9 -10 -6 0 -13 5 -16 10 -3 6 1 10 9 10 9 0 16 -4 16 -10z
m236 -47 c-6 -7 -116 29 -116 38 0 4 27 -2 60 -13 33 -12 58 -23 56 -25z
m-281 27 c3 -6 -1 -7 -9 -4 -18 7 -21 14 -7 14 6 0 13 -4 16 -10z m115 -10 c0
-5 -4 -10 -10 -10 -5 0 -10 5 -10 10 0 6 5 10 10 10 6 0 10 -4 10 -10z m-120
-26 c0 -2 -9 0 -20 6 -11 6 -20 13 -20 16 0 2 9 0 20 -6 11 -6 20 -13 20 -16z
m128 -14 c18 -7 31 -14 29 -17 -5 -5 -109 35 -121 47 -8 8 4 4 92 -30z m47 20
c7 -12 -2 -12 -30 0 -19 8 -19 9 2 9 12 1 25 -3 28 -9z m212 -14 c34 -7 64
-11 67 -9 2 2 7 -1 11 -7 5 -9 -4 -10 -36 -6 -59 8 -119 23 -126 30 -9 9 16 7
84 -8z m-343 -5 c4 -5 -3 -7 -14 -4 -23 6 -26 13 -6 13 8 0 17 -4 20 -9z m205
-7 c10 -9 -35 -3 -49 6 -11 8 -7 9 15 4 17 -4 32 -8 34 -10z m-162 -10 c-3 -3
-12 -4 -19 -1 -8 3 -5 6 6 6 11 1 17 -2 13 -5z m251 -11 c18 -3 35 -9 38 -14
7 -11 -53 0 -91 17 -24 12 -25 13 -5 8 14 -3 40 -8 58 -11z m-134 -2 c4 -5 -3
-7 -14 -4 -23 6 -26 13 -6 13 8 0 17 -4 20 -9z m374 -10 c3 -8 0 -11 -6 -7 -6
4 -28 9 -49 12 -55 7 -55 16 1 12 31 -2 51 -8 54 -17z m-434 0 c4 -5 -3 -7
-14 -4 -23 6 -26 13 -6 13 8 0 17 -4 20 -9z m571 -7 c44 -4 83 -7 87 -6 4 1
31 -3 60 -8 29 -5 116 -12 193 -16 215 -10 218 -11 248 -23 16 -6 34 -11 40
-11 22 1 127 -35 127 -43 0 -7 -47 1 -65 12 -5 3 -12 6 -15 6 -3 1 -29 7 -58
14 -29 7 -59 10 -68 7 -8 -3 -12 -2 -9 4 3 6 1 10 -4 10 -6 0 -11 -6 -11 -14
0 -8 -6 -17 -12 -19 -8 -3 -7 -6 4 -6 9 -1 19 -5 22 -10 3 -4 -13 -5 -37 0
-23 4 -60 9 -82 9 -34 1 -37 3 -17 10 29 12 28 17 -5 18 -16 0 -44 1 -63 2
-19 1 -38 6 -42 13 -4 6 -64 16 -145 23 -76 6 -163 15 -193 19 -30 4 -60 8
-67 8 -7 0 -10 4 -7 8 2 4 12 6 22 4 9 -1 53 -6 97 -11z m-400 -15 c13 -6 6
-7 -20 -3 -22 4 -47 11 -55 16 -18 11 44 0 75 -13z m110 11 c13 -6 15 -9 5 -9
-8 0 -22 4 -30 9 -18 12 -2 12 25 0z m809 -10 c5 -6 -16 -8 -50 -6 -32 2 -85
4 -117 5 -32 1 -56 5 -53 9 7 11 208 3 220 -8z m-997 -16 c-5 -5 -57 13 -57
20 0 3 14 0 31 -6 16 -6 28 -12 26 -14z m408 -9 c72 -10 102 -18 65 -17 -40 1
-154 16 -202 28 l-63 14 55 -6 c30 -4 96 -12 145 -19z m-200 -5 l20 -9 -20 0
c-11 0 -29 4 -40 9 l-20 9 20 0 c11 0 29 -4 40 -9z m-95 -10 c20 -6 21 -8 5
-8 -11 0 -29 3 -40 8 -25 11 1 11 35 0z m495 -5 c50 -4 97 -11 105 -16 10 -6
-2 -7 -33 -3 -56 7 -99 11 -144 13 -18 1 -33 6 -33 12 0 5 3 8 8 5 4 -2 48 -7
97 -11z m-325 1 c0 -11 -19 -15 -25 -6 -3 5 1 10 9 10 9 0 16 -2 16 -4z m43
-13 c-7 -2 -19 -2 -25 0 -7 3 -2 5 12 5 14 0 19 -2 13 -5z m95 -10 c-10 -2
-28 -2 -40 0 -13 2 -5 4 17 4 22 1 32 -1 23 -4z m412 -1 c0 -4 -17 -6 -37 -4
-65 6 -70 10 -15 11 28 0 52 -3 52 -7z m-550 -12 c18 -12 2 -12 -25 0 -13 6
-15 9 -5 9 8 0 22 -4 30 -9z m218 3 c-10 -2 -26 -2 -35 0 -10 3 -2 5 17 5 19
0 27 -2 18 -5z m-143 -12 c3 -6 -6 -8 -22 -5 -37 7 -42 14 -10 14 14 0 28 -4
32 -9z m243 2 c-16 -2 -40 -2 -55 0 -16 2 -3 4 27 4 30 0 43 -2 28 -4z m56 -5
c-3 -4 -9 -8 -15 -8 -5 0 -9 4 -9 8 0 5 7 9 15 9 8 0 12 -4 9 -9z m-257 -4
c-3 -3 -12 -4 -19 -1 -8 3 -5 6 6 6 11 1 17 -2 13 -5z m83 -10 c0 -2 -9 -4
-20 -4 -11 0 -20 4 -20 9 0 5 9 7 20 4 11 -3 20 -7 20 -9z m280 6 c12 -8 11
-10 -7 -10 -13 0 -23 5 -23 10 0 13 11 13 30 0z m335 0 c78 -20 115 -33 115
-42 0 -4 8 -8 18 -8 11 0 27 -10 38 -22 10 -13 12 -18 4 -12 -8 7 -26 15 -40
19 -14 4 -32 13 -40 20 -8 8 -49 22 -90 33 -41 11 -68 21 -60 21 8 1 33 -4 55
-9z m-257 -7 c-10 -2 -28 -2 -40 0 -13 2 -5 4 17 4 22 1 32 -1 23 -4z m165
-14 c42 -6 80 -16 83 -21 4 -6 -1 -8 -12 -4 -36 11 -165 31 -181 28 -6 -2 -14
1 -17 6 -6 10 14 9 127 -9z m294 -5 c21 -20 15 -26 -9 -10 -12 9 -33 16 -46
16 -13 0 -20 4 -17 10 7 12 55 2 72 -16z m-692 6 c3 -5 2 -10 -4 -10 -5 0 -13
5 -16 10 -3 6 -2 10 4 10 5 0 13 -4 16 -10z m119 -8 c2 -4 -13 -6 -35 -4 -21
2 -39 6 -39 8 0 7 69 4 74 -4z m84 -9 c-10 -2 -26 -2 -35 0 -10 3 -2 5 17 5
19 0 27 -2 18 -5z m656 -14 c14 -11 26 -25 26 -30 0 -13 -58 21 -64 38 -8 19
8 16 38 -8z m-529 0 c15 -6 9 -7 -19 -4 -22 3 -42 8 -45 10 -8 9 43 4 64 -6z
m115 -15 c16 -3 32 -9 35 -14 5 -8 -21 -3 -95 19 l-35 10 33 -4 c17 -3 45 -8
62 -11z m480 -34 c0 -5 15 -16 33 -23 17 -8 38 -21 46 -30 7 -10 21 -17 31
-17 10 0 37 -22 59 -49 l42 -50 -61 37 c-34 20 -72 48 -85 63 -13 16 -35 31
-49 35 -31 7 -57 44 -31 44 8 0 15 -4 15 -10z m763 -5197 c-13 -2 -33 -2 -45
0 -13 2 -3 4 22 4 25 0 35 -2 23 -4z m-5846 -660 c28 5 53 -27 34 -46 -8 -8
-11 -7 -11 4 0 8 -20 21 -47 31 -27 9 -57 24 -68 33 -12 10 -3 8 24 -5 24 -12
55 -20 68 -17z m10 -215 c-2 -24 -4 -7 -4 37 0 44 2 63 4 43 2 -21 2 -57 0
-80z m2613 62 c0 -5 -2 -10 -4 -10 -3 0 -8 5 -11 10 -3 6 -1 10 4 10 6 0 11
-4 11 -10z m40 -20 c0 -5 -7 -10 -15 -10 -8 0 -15 5 -15 10 0 6 7 10 15 10 8
0 15 -4 15 -10z m-223 -66 c-3 -3 -12 -4 -19 -1 -8 3 -5 6 6 6 11 1 17 -2 13
-5z"/>
<path d="M10280 6396 c0 -2 14 -6 30 -8 17 -3 30 -1 30 4 0 4 -13 8 -30 8 -16
0 -30 -2 -30 -4z"/>
</g>
</svg>
