<?xml version="1.0" standalone="no"?>
<!DOCTYPE svg PUBLIC "-//W3C//DTD SVG 20010904//EN"
 "http://www.w3.org/TR/2001/REC-SVG-20010904/DTD/svg10.dtd">
<svg version="1.0" xmlns="http://www.w3.org/2000/svg"
 width="1280.000000pt" height="720.000000pt" viewBox="0 0 1280.000000 720.000000"
 preserveAspectRatio="xMidYMid meet">
<metadata>
Created by potrace 1.16, written by Peter Selinger 2001-2019
</metadata>
<g transform="translate(0.000000,720.000000) scale(0.100000,-0.100000)"
fill="#000000" stroke="none">
<path d="M0 3600 l0 -3600 2270 0 c2032 0 2270 2 2270 15 0 9 8 19 17 22 10 4
35 24 55 44 23 24 50 40 72 45 20 3 36 11 36 16 0 6 18 8 40 6 22 -2 41 1 43
7 2 5 19 -16 37 -48 32 -58 33 -58 51 -38 12 13 19 37 20 68 2 58 42 148 83
184 18 17 26 31 21 39 -6 10 -1 12 18 8 17 -3 28 0 32 10 8 21 -3 28 -23 15
-24 -14 -242 -18 -242 -4 0 6 -6 11 -14 11 -28 0 -126 50 -126 65 0 22 -38 18
-45 -4 -3 -11 -13 -18 -22 -17 -9 2 -30 -4 -46 -12 -30 -15 -95 -11 -106 6 -3
5 -30 11 -59 14 -55 5 -74 14 -56 26 6 4 17 24 25 45 7 20 17 37 22 37 4 0 12
12 18 28 12 33 89 74 157 82 46 5 47 5 45 40 -1 19 -9 40 -18 46 -9 7 -16 16
-15 21 1 4 -12 29 -27 55 -28 47 -29 48 -80 48 l-53 0 0 -108 c0 -60 -2 -111
-4 -113 -2 -2 -41 -3 -85 -1 l-81 4 0 344 0 344 85 0 86 0 -6 38 c-4 20 -11
52 -15 70 -8 30 -6 34 18 45 15 6 29 14 32 17 7 7 105 40 119 40 6 0 42 15 81
34 39 19 74 36 78 38 8 4 4 24 -11 58 -12 24 -15 25 -137 28 l-125 3 -24 -70
-24 -71 -83 0 -84 0 27 73 c15 39 73 194 129 342 l102 270 88 0 87 0 106 -279
c58 -154 111 -281 118 -283 6 -2 34 6 62 19 l51 23 0 263 0 263 83 -3 82 -3 3
-234 c2 -216 4 -233 20 -228 9 3 89 26 177 51 88 26 194 57 235 70 41 13 116
36 165 50 50 15 99 31 110 35 11 5 169 57 350 117 182 59 355 119 385 132 58
25 89 50 83 68 -5 14 40 34 75 34 60 0 100 13 112 34 17 33 50 50 94 51 33 0
39 4 43 23 3 20 0 22 -19 16 -33 -10 -66 -16 -128 -20 -101 -7 -120 -5 -120
12 0 8 -4 14 -10 14 -5 0 -10 -6 -10 -14 0 -16 -27 -29 -41 -20 -5 3 -9 12 -9
21 0 9 -18 33 -40 54 l-40 38 19 32 c18 29 19 30 26 10 3 -12 10 -21 15 -21 5
0 16 -23 25 -50 9 -27 21 -50 26 -50 13 0 11 7 -7 36 -9 13 -14 27 -11 31 4 3
0 15 -8 27 -19 26 -20 60 -2 53 7 -3 19 3 25 13 10 16 6 22 -25 41 l-36 22 44
23 c25 13 62 23 87 24 28 0 45 5 48 15 3 8 14 17 24 20 11 3 21 14 24 23 4 11
17 17 38 18 21 1 39 10 52 27 12 15 34 27 51 29 22 2 29 8 27 20 -3 22 12 30
83 43 40 7 60 16 60 25 0 23 -32 23 -54 1 -23 -23 -51 -28 -51 -8 -1 8 -4 7
-13 -3 -16 -19 -36 -23 -52 -10 -8 7 -17 5 -29 -9 -10 -11 -28 -22 -42 -25
-13 -4 -24 -11 -24 -16 0 -6 -11 -3 -24 5 -16 11 -26 13 -31 6 -10 -18 -25
-12 -25 8 0 27 -17 35 -23 12 -3 -14 -11 -18 -25 -15 -12 4 -22 0 -25 -10 -9
-23 -30 -20 -24 3 4 16 -3 20 -43 28 -27 6 -54 6 -62 2 -7 -4 -42 -4 -76 0
-73 9 -98 28 -106 82 -3 20 -10 47 -15 61 -5 14 -10 49 -12 79 -1 30 -6 59
-11 66 -6 7 -6 18 -2 25 8 13 9 16 13 48 1 18 55 50 83 50 11 0 22 -8 25 -20
3 -11 9 -20 14 -20 16 0 10 20 -11 37 -28 24 -25 39 10 60 17 9 30 25 30 33 0
14 -9 16 -50 12 -46 -3 -52 -1 -86 32 -21 20 -42 36 -48 36 -15 1 -66 47 -66
60 0 5 -4 10 -10 10 -5 0 -12 17 -16 38 -4 20 -13 45 -22 55 -18 20 -24 77
-10 94 20 26 9 93 -27 169 -20 41 -41 102 -46 136 -5 33 -16 73 -24 89 -8 15
-15 35 -15 43 0 9 -6 30 -14 48 -42 98 -67 169 -77 218 -6 30 -15 60 -20 65
-4 6 -7 33 -5 60 2 40 -3 61 -26 103 -16 30 -30 70 -32 91 -2 20 -9 47 -15 60
-7 13 -14 40 -16 62 -1 21 -12 54 -24 74 -11 20 -21 42 -21 49 0 7 -9 21 -20
31 -12 10 -18 25 -15 33 11 28 -6 62 -31 62 -15 0 -24 6 -24 15 0 16 -8 27
-47 70 -17 18 -25 44 -33 112 -6 48 -15 102 -21 120 -6 17 -7 48 -3 67 5 29
11 36 30 36 26 0 32 15 10 23 -8 3 -17 21 -21 39 -13 66 -29 98 -47 98 -14 0
-18 8 -18 40 0 22 -4 40 -10 40 -5 0 -10 19 -10 42 0 23 -3 38 -7 35 -11 -12
-53 35 -53 60 0 19 -5 23 -29 23 -39 0 -53 36 -42 110 5 30 9 45 10 33 1 -19
7 -23 31 -23 19 0 30 5 30 14 0 8 6 17 13 19 10 4 10 6 0 6 -15 1 -18 41 -3
41 6 0 10 9 10 20 0 11 -5 20 -10 20 -6 0 -8 11 -5 25 17 82 12 76 55 69 27
-4 40 -3 40 5 0 6 5 11 10 11 6 0 10 -7 10 -15 0 -8 7 -15 16 -15 14 0 16 8
11 43 -3 23 -3 34 0 24 4 -16 11 -18 56 -12 29 4 61 16 73 26 11 11 24 16 28
12 4 -4 11 -1 16 7 8 13 14 12 42 -5 28 -17 51 -20 151 -20 101 0 117 -2 117
-16 0 -33 24 -40 125 -34 107 5 119 9 112 36 -4 15 0 19 19 19 27 0 32 -15 8
-28 -15 -8 -14 -10 2 -16 9 -4 20 -2 24 4 9 15 54 3 75 -20 9 -10 23 -16 30
-14 7 3 22 -3 34 -12 15 -13 18 -21 9 -31 -8 -10 -4 -13 21 -13 23 0 41 -10
66 -35 19 -19 35 -41 35 -49 0 -7 6 -16 14 -19 9 -4 12 -14 9 -26 -3 -13 7
-36 31 -67 20 -26 36 -50 36 -54 0 -5 16 -32 36 -61 19 -29 38 -66 41 -81 3
-15 9 -28 14 -28 5 0 9 -9 9 -19 0 -11 4 -22 9 -25 5 -3 19 -32 31 -63 13 -32
30 -66 38 -75 25 -29 82 -151 82 -174 0 -13 4 -26 10 -29 5 -3 10 -14 10 -23
0 -25 79 -173 124 -235 42 -58 96 -86 117 -61 9 10 9 18 0 28 -6 7 -13 44 -16
81 -3 37 -8 71 -10 75 -3 4 1 33 7 64 12 56 13 57 42 52 35 -7 53 -21 71 -56
20 -39 9 -70 -25 -70 -31 0 -55 -39 -44 -74 13 -40 46 -48 61 -13 12 25 5 36
112 -198 112 -246 143 -351 162 -550 11 -107 10 -127 -5 -180 -14 -49 -28 -70
-70 -110 -80 -77 -87 -93 -76 -208 5 -52 23 -158 39 -234 72 -331 86 -545 60
-892 -5 -73 -14 -154 -20 -179 -14 -62 -8 -72 34 -62 39 8 127 40 142 50 11 8
207 72 410 135 365 113 1218 391 1307 426 28 11 70 29 93 39 205 93 223 87
285 -108 22 -69 40 -130 40 -137 0 -6 8 -38 19 -71 10 -32 25 -86 34 -119 9
-33 37 -130 61 -215 24 -85 65 -231 91 -325 26 -93 55 -197 65 -230 10 -33 33
-112 50 -175 17 -63 35 -126 40 -140 5 -14 30 -101 55 -195 26 -93 55 -199 66
-235 26 -89 116 -410 139 -495 51 -192 167 -611 217 -777 l14 -48 984 0 985 0
0 3600 0 3600 -4339 0 -4339 0 -5 -30 c-4 -19 -13 -30 -23 -30 -13 0 -15 6
-11 30 l6 30 -405 0 -406 0 5 -22 c15 -68 42 -162 67 -233 15 -44 35 -111 44
-150 9 -38 20 -72 25 -75 5 -3 14 -24 21 -47 8 -24 17 -40 23 -36 6 4 8 0 4
-10 -3 -9 -2 -19 4 -23 5 -3 7 -14 4 -25 -7 -23 33 -159 47 -159 6 0 7 -7 4
-15 -3 -9 0 -18 7 -21 6 -2 13 -23 14 -45 2 -22 9 -50 18 -62 8 -12 15 -34 15
-49 0 -15 5 -30 11 -34 13 -8 7 -35 -27 -108 -19 -42 -29 -54 -35 -45 -5 8 -6
26 -3 42 4 17 1 27 -6 27 -7 0 -10 7 -6 15 3 9 -3 20 -14 27 -11 7 -20 19 -20
26 0 8 -13 44 -30 81 -16 37 -32 87 -36 112 -4 24 -10 46 -14 49 -3 3 -18 30
-33 59 -21 42 -27 70 -27 118 0 60 -1 63 -24 63 -19 0 -26 7 -31 33 -4 17 -15
50 -25 72 -10 22 -23 60 -30 85 -7 25 -23 74 -36 110 -13 36 -24 75 -24 86 0
12 -7 27 -15 34 -8 7 -15 19 -15 28 0 8 -8 33 -17 54 l-17 38 -1553 0 -1553 0
0 -3600z m3680 2323 c0 -5 -5 -15 -10 -23 -7 -12 -9 -10 -7 8 1 19 17 33 17
15z m-44 -120 c-11 -11 -17 4 -9 23 7 18 8 18 11 1 2 -10 1 -21 -2 -24z m2044
-776 c0 -8 11 -19 24 -25 15 -7 27 -23 31 -44 4 -18 16 -43 27 -54 19 -21 19
-21 -1 -27 -15 -4 -19 -12 -17 -41 1 -20 -2 -36 -5 -36 -4 0 -10 -12 -14 -27
l-7 -28 -20 25 c-12 14 -15 26 -9 28 7 2 5 9 -4 19 -8 8 -18 32 -21 54 -6 37
-24 55 -24 24 0 -26 -17 -16 -23 13 -3 15 -15 38 -27 51 -27 32 -21 47 19 43
26 -3 34 1 38 17 6 23 33 29 33 8z m94 -312 l-7 -29 -9 24 c-11 29 -2 58 13
43 6 -6 7 -22 3 -38z m-309 -455 c3 -5 -1 -10 -10 -10 -9 0 -13 5 -10 10 3 6
8 10 10 10 2 0 7 -4 10 -10z m-446 -472 c9 -15 13 -29 10 -32 -8 -8 -49 5 -49
16 0 5 -6 16 -14 24 -11 11 -17 11 -22 2 -4 -6 -2 -14 4 -16 17 -5 15 -39 -2
-45 -30 -12 -45 27 -25 64 16 31 79 23 98 -13z m1821 -958 c0 -14 -79 -50 -86
-38 -8 12 -5 14 36 32 42 18 50 19 50 6z m-250 -316 c0 -18 -14 -18 -30 1 -16
19 -3 40 16 24 8 -6 14 -18 14 -25z m50 -9 c0 -8 -4 -15 -9 -15 -5 0 -11 7
-15 15 -3 9 0 15 9 15 8 0 15 -7 15 -15z m-5233 -247 c80 -29 162 -112 192
-193 20 -51 22 -74 19 -160 -5 -116 -27 -172 -98 -242 -132 -132 -364 -134
-499 -3 -69 68 -94 129 -99 245 -3 84 0 109 17 156 35 92 116 172 210 205 59
21 191 17 258 -8z m2298 -2 c64 -29 112 -77 141 -141 39 -82 37 -85 -58 -85
l-83 0 -15 32 c-24 52 -63 73 -130 73 -44 0 -66 -5 -87 -21 -115 -85 -105
-326 17 -389 67 -35 172 -7 200 52 l15 33 83 0 c72 0 82 -2 82 -18 0 -32 -50
-120 -88 -153 -62 -55 -116 -73 -217 -73 -79 -1 -98 3 -147 27 -65 32 -131 99
-161 165 -19 40 -22 65 -22 167 0 112 2 124 28 175 65 126 155 179 307 179 69
1 95 -4 135 -23z m-1475 -56 l0 -70 -170 0 -171 0 3 -72 c3 -66 5 -73 23 -70
11 1 84 0 163 -4 l142 -6 0 -69 0 -69 -165 0 -165 0 0 -130 0 -130 -80 0 -80
0 0 345 0 345 250 0 250 0 0 -70z m610 0 l0 -70 -168 0 -168 0 1 -72 c0 -85
-23 -76 188 -77 l137 -1 0 -70 0 -70 -165 0 -165 0 0 -130 0 -130 -80 0 -80 0
0 345 0 345 250 0 250 0 0 -70z m280 -275 l0 -345 -80 0 -80 0 0 345 0 345 80
0 80 0 0 -345z m1010 0 l0 -345 -80 0 -80 0 0 345 0 345 80 0 80 0 0 -345z
m-819 -575 c74 -21 149 -95 165 -162 l6 -28 -77 0 c-72 0 -78 2 -107 30 -29
30 -52 36 -118 31 -51 -3 -80 -26 -80 -61 0 -41 29 -57 144 -80 118 -24 153
-38 194 -79 58 -58 66 -160 20 -244 -71 -127 -319 -155 -455 -51 -32 24 -75
88 -88 132 -6 22 -5 22 74 22 74 0 82 -2 97 -24 50 -77 234 -67 234 12 0 52
-21 64 -146 87 -161 29 -226 77 -240 176 -13 95 38 182 131 225 39 19 67 24
130 24 44 0 96 -5 116 -10z m-1801 -70 l0 -69 -102 -3 -103 -3 -3 -272 -2
-273 -85 0 -85 0 0 275 0 275 -110 0 -110 0 0 70 0 70 300 0 300 0 0 -70z
m620 0 l0 -70 -175 0 -175 0 0 -65 0 -65 170 0 170 0 0 -70 0 -70 -170 0 -170
0 0 -70 0 -70 175 0 175 0 0 -70 0 -70 -255 0 -255 0 0 345 0 345 255 0 255 0
0 -70z m532 -40 c22 -58 77 -204 123 -325 46 -121 86 -228 90 -238 7 -16 1
-18 -80 -15 l-88 3 -25 68 -25 67 -127 0 -127 0 -24 -70 -24 -70 -82 0 -82 0
13 38 c15 40 229 606 241 635 6 15 19 17 92 15 l85 -3 40 -105z m1448 40 l0
-70 -175 0 -175 0 0 -65 0 -65 170 0 170 0 0 -70 0 -70 -170 0 -170 0 0 -70 0
-70 174 0 c198 0 186 6 186 -92 l0 -48 -260 0 -260 0 0 345 0 345 255 0 255 0
0 -70z m95 -800 c-3 -5 3 -15 15 -22 20 -13 27 -67 14 -113 -6 -22 -62 -61
-99 -71 -13 -3 -27 -15 -30 -25 -4 -10 -9 -19 -13 -20 -37 -4 -58 -13 -77 -32
-54 -56 -253 -156 -302 -153 -18 2 -33 0 -33 -4 0 -4 -16 -11 -36 -14 -43 -9
-71 8 -53 31 7 7 9 16 6 19 -8 8 13 64 24 64 4 0 6 6 3 14 -3 8 3 19 15 26 12
6 21 17 21 25 0 8 8 19 18 24 9 5 28 28 42 50 14 23 28 41 33 41 4 0 18 9 30
21 28 26 60 39 98 39 17 0 63 15 102 34 40 18 95 39 122 45 28 7 52 16 53 22
2 5 15 9 28 9 14 0 22 -4 19 -10z"/>
<path d="M1194 2121 c-86 -39 -130 -146 -105 -256 43 -194 290 -212 356 -26
51 145 -39 301 -175 301 -19 0 -54 -9 -76 -19z"/>
<path d="M2526 1150 c-3 -8 -21 -59 -40 -112 l-34 -98 78 0 79 0 -33 98 c-47
140 -43 130 -50 112z"/>
<path d="M5600 6280 c0 -29 4 -40 15 -40 11 0 15 11 15 40 0 29 -4 40 -15 40
-11 0 -15 -11 -15 -40z"/>
<path d="M6970 5290 c-71 -9 -187 -69 -212 -110 -10 -17 -26 -30 -37 -30 -11
0 -22 -4 -25 -9 -11 -18 -109 -62 -204 -93 -53 -17 -104 -37 -112 -43 -8 -7
-21 -10 -28 -8 -8 3 -27 -9 -44 -26 -17 -17 -34 -31 -38 -31 -4 0 -10 -10 -13
-22 -5 -17 -9 -19 -21 -9 -24 20 -48 81 -42 107 6 21 3 24 -22 24 -25 0 -30 5
-41 39 -9 32 -19 42 -51 55 -22 9 -43 16 -45 16 -9 0 -5 -22 12 -57 16 -34 16
-36 -2 -49 -18 -13 -18 -17 -3 -82 22 -90 63 -176 90 -190 34 -17 110 -36 134
-33 26 3 36 -21 28 -65 -4 -22 -2 -34 5 -35 20 -3 26 -4 36 -11 6 -3 28 -9 50
-13 22 -4 46 -12 53 -18 8 -6 17 -5 27 3 20 17 32 5 15 -15 -7 -8 -9 -15 -4
-15 5 0 2 -5 -6 -10 -13 -9 -13 -11 0 -20 8 -5 27 -10 43 -10 15 0 27 -4 27
-9 0 -5 10 -13 23 -17 12 -4 25 -11 28 -16 7 -12 49 -11 134 1 92 14 100 17
85 35 -9 12 -7 17 12 27 13 7 32 22 43 33 11 12 28 20 38 18 10 -2 17 3 17 13
0 23 -22 28 -56 10 -16 -8 -45 -14 -64 -14 -23 1 -27 3 -12 6 12 2 22 9 22 14
0 5 6 9 13 9 7 0 23 9 35 20 23 22 82 28 82 8 0 -6 3 -9 6 -5 3 3 3 14 0 24
-5 15 -13 18 -37 15 -30 -4 -30 -4 -24 34 11 63 26 104 38 104 31 0 58 -14 53
-26 -6 -16 29 -20 39 -4 8 13 35 13 35 -1 0 -5 -5 -7 -12 -3 -8 5 -9 2 -4 -11
4 -11 1 -22 -6 -27 -10 -7 -9 -9 2 -5 8 2 20 14 26 26 6 12 24 35 39 51 17 18
23 30 16 35 -6 3 -9 10 -6 15 3 4 -2 13 -10 20 -14 12 -60 10 -194 -6 -55 -6
-77 5 -66 33 5 14 -28 36 -38 26 -12 -11 -77 8 -77 22 0 8 7 15 15 15 8 0 20
9 27 20 7 11 18 20 25 20 7 0 13 5 13 10 0 11 15 30 68 85 23 25 42 35 65 36
38 2 47 3 67 11 8 4 35 9 59 11 24 3 51 13 60 22 15 15 14 18 -12 41 -15 13
-37 24 -48 24 -10 0 -19 5 -19 10 0 6 -3 9 -7 9 -5 -1 -33 -5 -63 -9z"/>
<path d="M6715 3614 c-34 -37 -31 -50 11 -57 45 -8 74 10 74 44 0 46 -48 53
-85 13z"/>
<path d="M6560 3270 c0 -5 5 -10 10 -10 6 0 10 5 10 10 0 6 -4 10 -10 10 -5 0
-10 -4 -10 -10z"/>
<path d="M7261 3026 c-21 -12 -22 -14 -5 -20 10 -4 23 -1 32 7 19 20 2 28 -27
13z"/>
<path d="M7120 3020 c0 -5 5 -10 11 -10 5 0 7 5 4 10 -3 6 -8 10 -11 10 -2 0
-4 -4 -4 -10z"/>
<path d="M6801 2724 c0 -11 3 -14 6 -6 3 7 2 16 -1 19 -3 4 -6 -2 -5 -13z"/>
<path d="M6800 2664 c0 -8 5 -12 10 -9 6 4 8 11 5 16 -9 14 -15 11 -15 -7z"/>
<path d="M4556 2070 c-3 -8 -21 -59 -39 -112 l-34 -98 78 0 78 0 -33 98 c-47
140 -43 130 -50 112z"/>
<path d="M4398 1145 c-4 -132 -6 -120 27 -117 17 2 32 6 34 7 2 2 -4 38 -14
79 -9 42 -14 80 -10 86 3 5 -3 10 -14 10 -19 0 -21 -7 -23 -65z"/>
<path d="M4693 923 l-23 -15 51 -73 c53 -78 74 -87 96 -44 7 13 18 24 25 24 8
0 13 14 13 39 0 34 -5 43 -30 57 -42 25 -105 30 -132 12z"/>
<path d="M5300 410 c-8 -5 -10 -10 -5 -10 6 0 3 -6 -6 -13 -9 -7 -19 -31 -22
-54 -7 -40 -5 -43 18 -49 34 -8 59 2 51 22 -4 11 0 14 15 12 16 -2 25 6 36 35
9 22 12 42 7 46 -15 14 -78 21 -94 11z"/>
</g>
</svg>
