<?xml version="1.0" standalone="no"?>
<!DOCTYPE svg PUBLIC "-//W3C//DTD SVG 20010904//EN"
 "http://www.w3.org/TR/2001/REC-SVG-20010904/DTD/svg10.dtd">
<svg version="1.0" xmlns="http://www.w3.org/2000/svg"
 width="1280.000000pt" height="720.000000pt" viewBox="0 0 1280.000000 720.000000"
 preserveAspectRatio="xMidYMid meet">
<metadata>
Created by potrace 1.16, written by Peter Selinger 2001-2019
</metadata>
<g transform="translate(0.000000,720.000000) scale(0.100000,-0.100000)"
fill="#000000" stroke="none">
<path d="M0 7046 l0 -154 48 -4 c36 -3 54 1 76 16 67 47 76 58 76 98 0 31 3
38 20 38 16 0 20 7 20 38 0 33 5 41 40 62 22 14 40 33 40 43 0 16 -2 16 -24 2
-14 -9 -50 -19 -80 -22 -52 -5 -56 -4 -56 16 0 20 -5 21 -80 21 l-80 0 0 -154z"/>
<path d="M6490 7191 c0 -5 -6 -16 -13 -23 -7 -7 -25 -33 -40 -58 -15 -25 -47
-70 -71 -100 -117 -144 -255 -382 -242 -416 3 -8 2 -14 -3 -14 -11 0 -80 -142
-84 -172 -1 -18 3 -23 21 -22 15 0 22 -5 22 -18 0 -10 -5 -18 -11 -18 -5 0 -9
-8 -8 -17 3 -26 -12 -92 -23 -99 -5 -3 -6 -13 -3 -22 2 -10 -18 -61 -45 -115
-31 -61 -54 -121 -61 -162 -11 -67 -32 -101 -52 -88 -6 4 -1 -7 11 -24 14 -20
23 -49 24 -78 2 -39 4 -43 11 -23 21 54 43 92 56 96 11 4 12 -1 7 -19 -11 -39
-28 -142 -27 -169 1 -28 -45 -205 -61 -234 -5 -10 -11 -28 -14 -40 -4 -25 -26
-234 -26 -256 0 -26 -29 -119 -38 -125 -5 -3 -7 -12 -3 -20 3 -10 -1 -15 -12
-15 -13 0 -16 -6 -11 -24 3 -13 -1 -45 -9 -72 -17 -57 -19 -154 -5 -204 6 -19
13 -53 15 -75 2 -22 9 -41 14 -43 6 -2 16 -22 22 -45 18 -68 78 -187 92 -182
11 5 37 -37 37 -60 0 -17 44 -55 63 -55 9 0 17 7 17 15 0 8 4 23 9 33 5 9 15
59 22 110 8 57 17 92 25 92 6 0 19 10 27 23 l16 22 0 -24 c1 -13 -6 -63 -15
-110 -14 -71 -15 -96 -5 -143 7 -31 19 -62 27 -68 11 -10 17 -6 29 23 22 53
32 52 31 -4 -1 -41 -4 -49 -18 -46 -19 5 -30 -24 -17 -44 8 -11 11 -11 20 4 5
9 16 17 24 17 12 0 14 -12 10 -61 -4 -47 -3 -60 7 -56 8 3 13 -4 13 -19 0 -14
-7 -27 -16 -29 -22 -7 -29 -49 -16 -86 14 -35 -14 -105 -38 -95 -9 3 -15 -1
-15 -10 0 -8 7 -17 15 -20 19 -8 65 22 65 41 0 8 4 15 9 15 5 0 5 -16 0 -37
-5 -21 -9 -41 -9 -45 0 -5 -7 -8 -15 -8 -9 0 -15 -9 -15 -23 0 -13 -3 -27 -7
-31 -8 -8 -9 -12 -11 -58 -1 -18 -8 -28 -18 -28 -12 0 -15 6 -10 26 5 19 0 34
-22 62 -34 43 -46 78 -63 182 -7 41 -14 67 -17 58 -2 -10 -10 -18 -19 -18 -11
0 -13 5 -7 18 5 9 9 38 9 64 0 37 -5 53 -24 70 l-23 23 6 -27 c3 -15 1 -30 -5
-33 -6 -4 -8 -18 -5 -30 3 -13 1 -27 -5 -30 -6 -4 -8 -13 -5 -21 3 -8 1 -24
-4 -36 l-9 -23 -2 25 c-1 14 -1 37 0 53 1 15 -2 27 -7 27 -6 0 -13 12 -17 28
-7 25 -9 24 -20 -23 -7 -27 -13 -45 -14 -40 -2 15 -30 -37 -31 -56 0 -9 -7
-20 -16 -23 -20 -8 -15 -51 6 -51 8 0 18 -4 22 -10 10 -13 10 -68 1 -62 -5 3
-9 -15 -11 -40 -3 -56 -18 -87 -39 -79 -26 10 -35 -4 -18 -30 14 -21 14 -24 0
-24 -20 0 -55 58 -55 93 0 17 -5 27 -14 27 -10 0 -18 -19 -25 -57 -6 -32 -15
-73 -20 -90 -5 -18 -8 -41 -6 -50 1 -10 0 -12 -2 -5 -6 16 -23 16 -23 -1 0 -6
4 -28 10 -47 6 -22 6 -38 0 -44 -6 -6 -10 -20 -10 -32 0 -12 -6 -24 -12 -26
-9 -3 -8 -9 5 -22 18 -19 20 -28 17 -90 -1 -22 4 -42 11 -46 9 -6 8 -12 -5
-25 -10 -11 -14 -25 -10 -37 4 -15 -3 -11 -25 13 l-30 34 -1 -28 c0 -16 5 -38
11 -50 9 -16 9 -22 0 -25 -14 -5 -15 -32 -1 -32 6 0 10 -7 10 -17 0 -15 -1
-15 -18 0 -10 10 -22 17 -25 17 -8 0 17 -72 40 -113 8 -15 12 -35 9 -43 -3 -7
-1 -14 5 -14 5 0 13 -8 16 -17 14 -35 125 -152 147 -154 6 -1 31 -3 55 -5 46
-4 77 -22 54 -31 -13 -5 12 -34 44 -52 23 -12 113 -15 169 -6 37 6 48 3 87
-24 40 -27 45 -35 42 -61 -5 -34 20 -100 36 -100 7 0 9 -10 5 -25 -5 -18 -3
-23 8 -19 18 7 10 -41 -10 -57 -23 -19 -17 -40 10 -33 29 7 41 -9 26 -36 -7
-13 -7 -20 0 -20 5 0 10 -7 10 -15 0 -9 9 -15 21 -15 19 0 21 -4 14 -37 l-7
-38 21 19 c25 22 27 15 6 -17 -12 -19 -13 -28 -2 -50 15 -33 19 -33 43 -2 34
46 61 24 28 -23 -8 -12 -13 -28 -11 -35 3 -7 6 -5 6 5 1 9 6 20 13 24 8 5 9
-5 5 -35 -4 -31 -1 -48 11 -62 10 -12 18 -15 23 -8 3 6 9 -1 11 -15 4 -22 2
-26 -13 -21 -12 4 -21 -1 -28 -14 -14 -26 -14 -52 0 -28 6 9 15 14 21 11 6 -4
13 -2 17 5 4 6 8 -6 8 -27 1 -20 -2 -41 -5 -47 -8 -12 -8 -18 -10 -67 -2 -32
-6 -38 -23 -38 -19 0 -21 4 -15 30 7 38 -11 40 -20 3 -3 -16 -8 -36 -11 -47
-4 -14 -2 -16 8 -11 9 6 8 2 -2 -11 -9 -10 -19 -27 -22 -37 -4 -10 -11 -16
-15 -13 -5 3 -20 -3 -34 -12 -24 -16 -25 -19 -12 -37 18 -25 18 -36 -1 -29 -8
4 -25 0 -38 -8 -14 -10 -31 -12 -49 -7 -16 4 -28 3 -28 -1 0 -5 10 -10 21 -12
12 -2 25 -13 30 -25 l8 -22 -31 19 c-24 14 -36 16 -50 9 -15 -8 -23 -5 -40 16
-16 20 -23 23 -34 14 -9 -7 -14 -8 -14 -1 0 5 -15 19 -32 31 l-33 20 -6 -27
c-4 -15 -7 -44 -8 -64 l-1 -38 -290 0 -290 0 0 74 c0 72 0 74 -27 79 -46 9
-85 -28 -52 -49 6 -3 9 -15 6 -25 -3 -10 0 -20 5 -21 6 -2 4 -11 -5 -20 -9 -8
-13 -19 -9 -22 3 -4 -8 -19 -25 -34 -50 -44 -59 -69 -36 -101 21 -27 83 -43
83 -21 0 6 5 8 10 5 8 -5 7 -11 0 -20 -20 -24 -2 -51 48 -73 61 -27 110 -75
133 -129 9 -22 25 -45 34 -51 16 -8 16 -10 1 -15 -11 -5 -16 -20 -16 -54 -1
-26 -7 -64 -14 -84 -10 -27 -10 -38 0 -46 6 -7 15 -9 18 -6 3 4 6 2 6 -4 0 -6
9 -9 21 -6 12 3 18 11 15 19 -3 8 1 14 9 14 8 0 15 -3 15 -7 0 -5 11 -13 25
-20 20 -9 25 -8 25 2 0 8 -7 21 -16 29 -8 9 -10 16 -4 16 6 0 13 -7 16 -15 4
-8 12 -15 20 -15 8 0 14 -8 14 -17 0 -15 2 -16 10 -3 8 12 10 12 16 -3 3 -9 1
-24 -6 -32 -14 -17 -10 -19 48 -29 29 -5 32 -3 32 19 0 15 -6 25 -14 25 -18 0
-30 30 -17 43 7 7 17 4 32 -9 20 -18 22 -18 34 -1 19 26 38 22 31 -8 -5 -18
-2 -25 9 -25 23 0 55 37 55 64 0 13 9 34 19 47 l20 24 -2 -29 c-2 -23 2 -29
20 -31 13 -1 25 -4 28 -7 6 -6 -9 -44 -27 -70 -7 -9 -9 -21 -4 -25 4 -4 13 0
21 10 11 15 14 15 24 3 10 -11 9 -16 -5 -24 -13 -7 -14 -11 -4 -17 8 -5 19 -1
29 11 10 12 26 18 43 16 23 -3 28 1 33 25 4 15 8 33 10 40 2 7 22 11 48 10 45
-2 56 -17 14 -17 -36 0 -50 -15 -43 -43 3 -14 2 -29 -4 -32 -15 -9 -12 -25 5
-25 9 0 21 -12 27 -26 8 -17 18 -24 30 -21 16 5 18 1 12 -29 -6 -31 -4 -34 19
-34 13 0 30 -7 37 -15 7 -8 19 -15 26 -15 17 0 18 -12 2 -28 -16 -16 -4 -25
32 -24 63 2 24 -39 -40 -42 -17 -1 -25 -6 -24 -18 2 -22 -34 -24 -42 -3 -4 8
-14 15 -23 15 -10 0 -26 7 -37 15 -10 8 -25 15 -31 15 -22 0 -14 -16 12 -28
14 -6 25 -18 25 -26 0 -7 10 -14 23 -14 22 0 79 -32 126 -73 13 -11 30 -18 37
-15 7 3 18 -1 24 -9 15 -19 -4 -55 -29 -55 -11 0 -45 -13 -78 -30 -55 -28 -59
-28 -71 -11 -10 15 -20 17 -55 10 -66 -13 -70 -12 -63 16 8 30 7 30 -44 8 -23
-10 -38 -23 -36 -30 3 -7 -1 -10 -8 -7 -8 3 -17 1 -20 -4 -3 -6 1 -12 9 -16
20 -7 19 -36 -1 -36 -12 0 -15 -7 -12 -25 4 -16 0 -25 -11 -28 -9 -2 7 -4 35
-4 56 1 85 -10 63 -24 -7 -4 -10 -11 -6 -15 3 -4 13 -1 21 5 8 7 31 11 50 10
19 -2 38 0 42 4 10 10 34 9 34 -2 0 -5 -9 -11 -20 -14 -11 -3 -20 -12 -20 -21
0 -14 40 -16 390 -16 338 0 390 2 390 15 0 19 14 19 30 0 11 -13 342 -15 2866
-15 l2854 0 0 3600 0 3600 -3155 0 c-1935 0 -3155 -4 -3155 -9z m-305 -520
c-3 -6 -11 -11 -17 -11 -6 0 -6 6 2 15 14 17 26 13 15 -4z m5 -100 c0 -5 -7
-14 -15 -21 -12 -10 -15 -10 -15 2 0 8 3 18 7 21 9 10 23 9 23 -2z m1884 -38
c10 4 16 1 16 -8 0 -19 10 -19 24 1 16 21 66 26 73 7 3 -8 14 -13 24 -10 14 4
19 0 20 -16 0 -19 2 -18 11 6 11 29 35 36 44 12 5 -11 10 -13 19 -5 17 14 25
-7 18 -44 -5 -25 -4 -27 21 -20 29 7 31 2 15 -28 -6 -11 -8 -22 -5 -25 3 -3
10 5 15 18 l9 24 11 -29 c7 -16 19 -36 29 -43 9 -8 13 -16 7 -19 -25 -11 -39
-23 -33 -30 4 -3 20 3 37 15 27 19 31 20 45 5 9 -8 16 -11 16 -5 0 5 -7 16
-15 25 -9 9 -11 17 -5 21 5 3 10 1 10 -4 0 -6 3 -10 8 -10 4 1 9 0 12 -1 3 -1
17 -3 32 -4 24 -2 39 11 42 36 1 3 4 10 9 14 6 7 12 -51 8 -83 -1 -7 5 -13 13
-13 9 0 13 7 9 23 -4 19 -2 18 15 -6 12 -18 22 -25 26 -18 4 6 14 11 23 11 9
0 13 -3 10 -7 -4 -3 -2 -12 4 -19 6 -8 9 -21 5 -29 -3 -9 0 -18 8 -21 14 -5
10 -50 -5 -60 -5 -3 -9 -15 -8 -27 l0 -22 16 23 c17 24 42 29 60 11 16 -16 53
-1 53 22 0 12 7 19 20 19 13 0 20 -7 20 -20 0 -11 5 -20 10 -20 6 0 10 5 10
12 0 6 6 3 14 -7 9 -12 19 -16 31 -11 14 5 16 9 7 18 -15 15 -15 28 -2 28 6 0
10 -5 10 -11 0 -7 8 -18 17 -24 17 -12 17 -14 1 -32 -12 -13 -14 -23 -8 -33 5
-8 10 -10 10 -4 0 7 10 12 23 12 12 0 33 0 47 1 14 0 45 0 71 -2 45 -4 45 -4
41 26 -3 21 -1 28 7 23 6 -4 11 -14 11 -22 0 -8 7 -17 15 -20 8 -4 15 -12 15
-20 0 -24 38 -37 72 -25 41 14 48 14 48 -3 0 -8 10 -18 21 -21 25 -8 79 -58
79 -73 0 -21 -29 -20 -44 1 -13 18 -15 19 -9 3 8 -25 39 -56 56 -56 7 0 22 -7
33 -15 12 -9 13 -13 4 -10 -22 8 -19 -40 4 -67 12 -13 16 -29 12 -47 -5 -21
-4 -23 4 -8 6 9 20 17 30 17 11 0 20 7 20 14 0 10 14 3 37 -19 20 -19 41 -32
45 -29 4 3 8 0 8 -6 0 -6 -7 -13 -15 -16 -8 -4 -15 -11 -15 -16 0 -6 7 -8 15
-4 11 4 15 -1 15 -17 0 -12 14 -35 31 -52 17 -16 28 -36 26 -45 -5 -21 22 -47
33 -31 5 9 14 6 34 -12 14 -13 26 -27 26 -31 0 -11 -35 -7 -48 6 -9 9 -12 8
-12 -5 0 -9 11 -19 25 -23 21 -5 23 -9 14 -20 -17 -20 -5 -28 14 -9 9 8 20 15
26 15 14 0 14 -17 1 -25 -5 -3 -7 -12 -3 -20 3 -9 -1 -15 -8 -15 -11 0 -11 -3
1 -10 11 -8 8 -9 -12 -4 -34 7 -39 -13 -7 -25 20 -7 19 -9 -15 -29 -21 -12
-41 -22 -47 -22 -13 0 -11 -12 6 -34 20 -27 19 -36 -5 -36 -11 0 -20 -5 -20
-11 0 -6 9 -8 20 -4 16 5 20 2 20 -14 0 -25 -25 -28 -34 -5 -9 24 -41 13 -41
-16 0 -16 -7 -26 -18 -28 -15 -3 -18 0 -12 17 4 12 2 21 -4 21 -19 0 -12 28 9
33 11 3 20 11 20 17 0 7 -8 10 -19 7 -22 -5 -40 12 -59 57 -12 27 -14 27 -30
12 -14 -12 -21 -13 -30 -4 -9 9 -12 9 -12 -2 0 -13 -2 -13 -10 0 -14 22 -23 5
-10 -19 11 -22 35 -28 45 -11 3 6 18 -4 32 -21 21 -25 24 -34 15 -52 -18 -39
-25 -62 -23 -77 1 -8 -5 -4 -13 10 -9 14 -15 20 -16 14 0 -7 -7 -15 -16 -18
-18 -7 -13 3 29 56 16 20 26 41 22 47 -8 14 -26 4 -24 -12 1 -7 1 -19 0 -27
-1 -12 -4 -11 -12 4 -9 15 -13 16 -21 5 -8 -11 -9 -10 -5 3 7 20 -22 59 -29
41 -9 -22 -22 -14 -26 17 -3 18 0 31 9 34 21 9 15 20 -22 38 -36 18 -49 6 -23
-20 10 -10 10 -15 -1 -21 -8 -5 -20 -7 -28 -4 -7 3 -13 0 -13 -6 0 -6 -10 -10
-21 -8 -12 1 -24 -4 -26 -11 -4 -10 4 -13 27 -10 20 2 35 -2 37 -9 3 -7 -1
-13 -9 -13 -22 0 -41 -17 -33 -30 6 -9 10 -9 16 1 6 10 11 11 17 3 4 -6 15
-13 25 -17 17 -7 17 -8 0 -31 -17 -23 -18 -23 -21 -4 -2 10 -9 17 -15 14 -7
-3 -20 -9 -29 -12 -22 -8 -24 -24 -3 -24 8 0 15 -7 15 -16 0 -9 7 -14 18 -13
9 2 38 -7 64 -19 37 -17 45 -26 41 -42 -6 -24 -10 -24 -43 -5 -15 9 -19 15
-10 15 11 0 10 4 -5 16 -19 14 -20 13 -28 -18 -5 -18 -11 -48 -14 -65 -6 -38
-12 -40 -41 -13 -12 12 -22 16 -22 10 0 -6 -7 -18 -15 -26 -12 -12 -19 -13
-37 -3 -13 7 -24 12 -25 11 -2 -1 -9 -2 -15 -2 -10 0 -10 2 0 8 9 6 0 13 -28
22 -22 7 -40 17 -40 22 0 5 -4 7 -9 4 -4 -3 -34 8 -66 24 -52 27 -59 28 -78
15 -31 -21 -46 -19 -57 10 -9 23 -14 25 -44 19 -23 -4 -45 -1 -66 9 -26 14
-34 14 -58 1 -31 -16 -49 -18 -54 -6 -1 5 -16 12 -31 16 -20 5 -27 3 -22 -4 5
-8 -4 -9 -28 -5 -29 6 -36 4 -40 -12 -3 -11 -5 -7 -6 12 l-2 30 -20 -27 c-14
-19 -30 -28 -50 -28 -20 0 -35 -9 -51 -31 -13 -17 -23 -36 -23 -42 0 -5 -6
-12 -12 -14 -24 -8 -21 115 3 133 12 10 12 13 2 17 -9 4 -7 6 4 6 27 1 30 17
13 76 -14 48 -18 53 -31 41 -8 -8 -14 -22 -14 -30 0 -9 -4 -16 -10 -16 -5 0
-10 -9 -10 -20 0 -11 -4 -20 -9 -20 -5 0 -9 -17 -9 -38 0 -20 -8 -51 -16 -67
-9 -17 -16 -38 -16 -48 0 -10 -5 -28 -11 -39 -13 -24 -20 -108 -10 -108 4 0 6
-12 6 -27 -1 -31 13 -56 26 -47 5 3 12 -2 15 -11 4 -10 13 -13 26 -9 17 5 19
2 17 -23 -2 -15 -10 -36 -18 -45 -13 -16 -12 -18 5 -18 19 -1 19 -1 0 -15 -11
-8 -28 -15 -38 -15 -11 0 -18 -7 -18 -17 0 -16 2 -16 11 -3 8 12 9 10 5 -10
-3 -14 -6 -34 -6 -45 0 -15 -2 -17 -9 -6 -15 23 -20 -4 -6 -32 8 -15 10 -27 4
-27 -14 0 -11 -27 4 -34 6 -3 3 -4 -9 -1 -35 9 -49 -18 -34 -67 14 -52 15 -67
5 -93 -8 -18 -7 -19 8 -6 10 8 21 11 25 7 4 -4 -1 -12 -11 -17 -24 -14 -21
-32 4 -24 18 6 20 4 14 -15 -5 -15 -3 -20 3 -16 6 3 13 2 16 -3 3 -5 -8 -14
-24 -20 -28 -9 -42 -31 -20 -31 6 0 15 -10 20 -22 6 -16 9 -18 9 -7 1 9 8 22
16 29 12 10 16 9 21 -5 4 -10 1 -21 -6 -25 -11 -7 -10 -15 5 -44 18 -34 35
-39 35 -10 0 8 9 14 20 14 27 0 25 -10 -7 -36 -25 -20 -26 -22 -10 -38 9 -10
17 -13 17 -7 0 6 5 11 11 11 8 0 10 -12 6 -34 -6 -36 6 -56 35 -56 20 0 25
-30 6 -31 -10 0 -10 -2 0 -6 6 -2 12 -17 12 -33 0 -19 10 -36 31 -54 39 -34
49 -33 49 4 0 20 5 30 15 30 17 0 20 -16 5 -25 -15 -10 -12 -35 5 -35 20 0 19
-24 -2 -41 -13 -11 -17 -11 -20 -1 -3 6 -15 12 -28 12 -17 0 -31 12 -48 41
-23 37 -26 39 -32 20 -3 -12 -15 -21 -26 -21 -16 0 -18 5 -14 28 l5 27 -10
-25 c-8 -18 -8 -31 0 -49 9 -19 8 -22 -5 -18 -20 8 -15 -26 9 -52 16 -18 16
-20 0 -29 -13 -7 -15 -17 -11 -40 8 -37 -14 -35 -31 3 -9 20 -8 25 8 30 11 4
20 13 20 21 0 18 -2 18 -44 -7 -39 -23 -42 -29 -24 -47 10 -10 10 -15 -2 -22
-8 -5 -11 -12 -7 -17 5 -4 12 -1 16 6 10 16 31 6 31 -14 0 -20 28 -26 39 -7 5
9 13 13 18 8 4 -5 2 -11 -5 -13 -6 -3 -9 -9 -6 -14 3 -6 11 -5 20 2 18 15 64
-6 64 -28 0 -8 -4 -11 -10 -8 -5 3 -10 -1 -10 -9 0 -9 6 -16 13 -17 10 0 10
-2 0 -6 -7 -2 -13 -9 -13 -14 0 -6 5 -7 10 -4 6 3 10 -1 10 -9 0 -21 -6 -20
-29 3 -14 14 -16 22 -8 30 8 8 8 14 0 22 -8 8 -13 6 -17 -8 -5 -15 -13 -18
-36 -15 -17 2 -33 8 -36 13 -3 5 -18 9 -34 9 -16 0 -32 5 -35 10 -3 6 -19 10
-35 10 -15 0 -30 5 -32 12 -5 15 -67 -30 -67 -49 -1 -7 -11 -13 -24 -13 -24 0
-27 -5 -30 -60 -3 -39 -11 -38 -54 5 -33 33 -63 40 -63 15 0 -5 -4 -10 -10
-10 -5 0 -10 6 -10 14 0 8 -9 17 -20 21 -23 7 -65 -26 -58 -47 7 -19 -19 -40
-41 -33 -10 3 -49 36 -87 73 -142 139 -258 152 -239 26 3 -24 4 -44 1 -44 -18
0 -36 15 -36 31 0 23 -9 24 -38 3 -27 -19 -28 -34 -2 -34 48 0 6 -32 -52 -39
-8 -1 -6 -7 5 -15 21 -16 6 -32 -20 -22 -10 4 -13 14 -9 30 3 14 2 27 -3 31
-13 8 -34 -33 -27 -52 4 -9 1 -13 -6 -11 -18 6 -19 65 -2 79 8 6 14 29 14 52
0 22 7 48 15 57 14 15 14 18 0 30 -8 7 -15 17 -15 22 0 17 -30 40 -48 35 -15
-3 -15 -5 3 -12 35 -15 46 -38 28 -57 -20 -22 -45 -24 -37 -3 4 8 3 15 -1 15
-11 0 -35 -28 -35 -42 0 -7 -9 -19 -21 -26 -27 -17 -25 -99 4 -94 9 2 17 -2
17 -8 0 -5 -3 -10 -7 -10 -5 0 -18 -3 -31 -6 -21 -6 -22 -4 -17 19 4 14 2 28
-4 31 -6 4 -11 -1 -11 -11 0 -11 -5 -24 -12 -31 -9 -9 -9 -12 0 -12 7 0 12 -9
12 -20 0 -14 -7 -20 -24 -20 -13 0 -29 -7 -36 -15 -7 -8 -22 -15 -34 -16 -14
0 -16 -2 -6 -6 8 -3 23 -14 33 -24 19 -18 19 -18 -7 -25 -15 -3 -40 -4 -56 0
-22 4 -30 2 -30 -8 0 -8 6 -17 13 -20 6 -3 3 -4 -8 -3 -14 1 -21 -5 -23 -20
-2 -13 1 -23 7 -23 6 0 11 5 11 12 0 6 3 8 6 5 11 -11 -53 -70 -66 -62 -9 6
-9 10 1 17 12 8 11 9 0 6 -8 -3 -31 1 -50 8 -30 10 -36 17 -34 38 1 14 -2 26
-8 26 -5 0 -18 8 -29 17 -15 13 -17 20 -8 31 9 11 6 12 -18 7 -24 -5 -26 -4
-11 5 21 14 23 32 2 24 -12 -5 -15 0 -13 23 2 33 -9 56 -23 47 -6 -3 -21 6
-34 20 -23 25 -23 26 -4 26 14 0 19 5 17 18 -2 11 -12 17 -28 16 -14 -1 -28 3
-31 8 -4 6 -15 6 -29 -2 -13 -7 -38 -10 -56 -7 -19 3 -36 1 -39 -4 -4 -5 -12
-9 -18 -9 -7 0 -3 7 7 15 21 16 16 32 -6 19 -20 -13 -58 -16 -58 -4 0 5 4 10
9 10 5 0 11 10 15 23 4 16 8 19 14 9 6 -8 9 -2 9 17 0 43 -22 45 -43 5 -23
-41 -36 -44 -28 -5 5 23 2 29 -15 34 -20 5 -27 27 -22 65 1 8 -7 16 -19 19
-14 4 -18 9 -11 17 13 16 9 75 -7 104 -7 12 -10 27 -7 33 4 5 1 16 -5 24 -10
12 -10 18 0 30 10 12 9 16 -4 21 -13 5 -15 14 -11 35 4 19 3 29 -5 29 -7 0 -8
6 0 19 7 14 7 22 0 26 -6 4 -8 16 -5 26 11 34 7 111 -5 119 -8 5 -9 13 -4 21
5 8 12 68 16 134 12 181 22 237 88 465 10 36 26 92 35 125 9 33 20 74 25 90 8
27 11 50 24 160 2 17 7 46 11 66 4 20 8 92 11 160 4 148 19 250 44 304 10 22
23 59 29 83 7 23 16 42 21 42 5 0 7 7 4 15 -4 10 0 15 15 15 16 0 21 6 21 26
0 14 4 23 10 19 5 -3 19 4 31 16 16 16 18 23 8 29 -10 7 -10 11 1 25 9 11 16
13 24 5 15 -15 23 -12 29 10 3 12 14 20 26 20 23 0 27 10 10 27 -8 8 -2 14 20
24 22 10 27 16 19 26 -8 10 -6 13 9 13 11 0 26 11 33 25 7 14 17 25 22 25 4 0
8 7 8 15 0 9 8 14 22 12 16 -1 23 3 23 17 0 11 14 27 33 38 33 18 34 18 60 0
19 -13 35 -16 52 -11 14 4 18 8 10 8 -25 2 10 21 40 21 19 0 22 2 10 10 -8 5
-12 10 -10 12 30 19 53 28 61 23 5 -4 23 -3 41 0 22 5 27 9 17 16 -11 7 -10 9
4 9 10 0 17 8 17 21 0 13 6 20 18 18 9 -1 19 0 22 1 3 1 20 3 38 5 22 2 32 -2
32 -11 0 -8 7 -14 15 -14 8 0 15 6 15 14 0 18 50 30 90 21 29 -6 44 8 18 18
-7 2 -10 8 -6 12 4 4 19 -5 33 -19 30 -30 50 -33 65 -8 10 15 11 15 5 -3 -18
-51 -18 -54 4 -48 12 3 21 13 21 24 0 11 5 19 10 19 6 0 10 -12 10 -28 0 -21
7 -30 30 -40 17 -8 30 -20 30 -28 0 -8 7 -14 15 -14 8 0 15 6 15 14 0 8 -7 16
-15 20 -19 7 -20 36 -1 36 7 0 17 -10 21 -22 6 -19 8 -20 12 -6 2 9 13 20 23
23 10 3 20 15 23 25 3 11 14 20 25 20 25 0 46 25 38 45 -3 9 0 15 8 15 7 0 19
7 26 15 19 23 27 18 46 -30 9 -25 21 -45 25 -45 14 0 10 27 -6 40 -8 7 -15 24
-15 38 0 24 1 25 14 7 8 -11 19 -16 30 -12z m-237 -25 c-3 -8 -6 -5 -6 6 -1
11 2 17 5 13 3 -3 4 -12 1 -19z m-67 -7 c0 8 8 -1 17 -19 12 -25 13 -36 4 -45
-16 -16 -37 9 -45 53 -5 32 -5 34 9 16 11 -14 15 -16 15 -5z m-1600 -11 c-6
-11 -13 -20 -16 -20 -2 0 0 9 6 20 6 11 13 20 16 20 2 0 0 -9 -6 -20z m1670
-40 c0 -5 -2 -10 -4 -10 -3 0 -8 5 -11 10 -3 6 -1 10 4 10 6 0 11 -4 11 -10z
m896 -141 c3 -6 1 -16 -5 -22 -8 -8 -11 -7 -11 5 0 9 -6 19 -12 21 -8 3 -7 6
4 6 9 1 20 -4 24 -10z m54 -49 c12 -8 9 -10 -12 -10 -15 0 -30 5 -33 10 -8 13
25 13 45 0z m45 -10 c3 -5 -1 -10 -10 -10 -9 0 -13 5 -10 10 3 6 8 10 10 10 2
0 7 -4 10 -10z m-35 -20 c0 -5 -2 -10 -4 -10 -3 0 -8 5 -11 10 -3 6 -1 10 4
10 6 0 11 -4 11 -10z m-50 -10 c0 -5 -7 -10 -15 -10 -8 0 -15 5 -15 10 0 6 7
10 15 10 8 0 15 -4 15 -10z m350 -80 c0 -5 -4 -10 -10 -10 -5 0 -10 5 -10 10
0 6 5 10 10 10 6 0 10 -4 10 -10z m120 -20 c0 -5 -4 -10 -10 -10 -5 0 -10 5
-10 10 0 6 5 10 10 10 6 0 10 -4 10 -10z m260 -250 c0 -5 -7 -10 -16 -10 -8 0
-12 5 -9 10 3 6 10 10 16 10 5 0 9 -4 9 -10z m25 -20 c3 -5 -1 -10 -10 -10 -9
0 -13 5 -10 10 3 6 8 10 10 10 2 0 7 -4 10 -10z m260 -250 c3 -6 -1 -7 -9 -4
-18 7 -21 14 -7 14 6 0 13 -4 16 -10z m55 -130 c0 -5 -4 -10 -10 -10 -5 0 -10
5 -10 10 0 6 5 10 10 10 6 0 10 -4 10 -10z m-411 -177 c14 -11 14 -12 -5 -13
-23 0 -39 34 -26 54 4 7 8 3 10 -9 3 -11 12 -25 21 -32z m38 -45 c-3 -8 -6 -5
-6 6 -1 11 2 17 5 13 3 -3 4 -12 1 -19z m127 -40 c-1 -13 -3 -25 -3 -27 -1 -2
-8 2 -17 10 -14 12 -14 14 2 26 10 7 18 13 19 13 1 0 1 -10 -1 -22z m161 2 c3
-5 0 -10 -8 -10 -16 0 -37 -41 -37 -71 0 -12 -4 -17 -11 -14 -6 4 -8 14 -5 22
4 9 -5 26 -21 41 -19 17 -24 27 -15 30 7 2 22 -4 33 -14 17 -16 22 -16 29 -4
6 8 10 18 10 23 0 10 18 9 25 -3z m-332 -17 c-7 -2 -19 -2 -25 0 -7 3 -2 5 12
5 14 0 19 -2 13 -5z m217 3 c0 -11 -19 -15 -25 -6 -3 5 1 10 9 10 9 0 16 -2
16 -4z m250 -6 c0 -5 -4 -10 -10 -10 -5 0 -10 5 -10 10 0 6 5 10 10 10 6 0 10
-4 10 -10z m-108 -90 c-4 -25 -7 -28 -23 -19 -22 11 -25 29 -6 30 9 0 9 2 -1
6 -10 4 -9 8 5 18 22 16 31 4 25 -35z m-82 -10 c0 -5 -2 -10 -4 -10 -3 0 -8 5
-11 10 -3 6 -1 10 4 10 6 0 11 -4 11 -10z m-270 -20 c0 -5 -6 -10 -14 -10 -23
0 -31 -22 -13 -35 19 -13 23 -35 7 -35 -16 0 -32 41 -26 66 6 24 46 36 46 14z
m371 -19 c-7 -12 -17 -18 -26 -15 -21 8 -19 18 8 30 28 13 31 10 18 -15z m129
-32 c0 -6 -4 -7 -10 -4 -5 3 -10 11 -10 16 0 6 5 7 10 4 6 -3 10 -11 10 -16z
m-590 -35 c0 -7 -8 -10 -20 -7 -11 3 -20 14 -20 24 0 17 3 18 20 7 11 -7 20
-18 20 -24z m565 -14 c3 -5 1 -10 -4 -10 -6 0 -11 5 -11 10 0 6 2 10 4 10 3 0
8 -4 11 -10z m-445 -16 c0 -8 -4 -12 -10 -9 -5 3 -10 10 -10 16 0 5 5 9 10 9
6 0 10 -7 10 -16z m307 -14 c1 -16 -2 -20 -18 -15 -14 5 -19 2 -19 -11 0 -13
-3 -14 -15 -4 -17 14 -11 28 19 40 30 13 32 12 33 -10z m63 -30 c0 -11 -4 -20
-10 -20 -5 0 -10 9 -10 20 0 11 5 20 10 20 6 0 10 -9 10 -20z m95 -10 c3 -5 1
-10 -4 -10 -6 0 -11 5 -11 10 0 6 2 10 4 10 3 0 8 -4 11 -10z m-148 -23 c-6
-20 -27 -19 -27 2 0 14 5 19 15 14 9 -3 14 -10 12 -16z m63 -7 c0 -5 -7 -10
-15 -10 -8 0 -15 5 -15 10 0 6 7 10 15 10 8 0 15 -4 15 -10z m-132 -48 c4 -24
17 -29 26 -9 5 10 7 10 12 0 8 -18 24 -16 24 3 0 21 37 9 73 -24 22 -21 30
-24 37 -13 4 8 6 20 3 27 -6 17 16 29 30 15 9 -9 8 -14 -3 -21 -12 -7 -10 -11
8 -17 22 -8 21 -10 -18 -30 -22 -12 -40 -17 -40 -11 0 7 -5 6 -15 -2 -13 -11
-15 -8 -15 19 0 19 -4 30 -10 26 -5 -3 -10 -24 -10 -45 0 -21 5 -42 10 -45 6
-3 10 1 10 9 0 9 7 16 16 16 12 0 14 -4 7 -12 -20 -25 -22 -60 -5 -77 15 -15
15 -15 9 3 -8 21 10 86 24 86 12 0 12 -2 -7 -40 -14 -27 -14 -34 -3 -41 11 -6
11 -11 1 -21 -19 -19 -15 -37 8 -31 26 7 28 -25 3 -34 -10 -4 -24 -13 -32 -20
-11 -12 -17 -11 -33 4 -20 18 -20 18 1 21 25 4 29 43 6 62 -8 7 -15 18 -15 25
0 8 -12 12 -32 11 -27 -1 -34 3 -36 21 -2 13 -15 32 -29 43 -18 14 -25 29 -25
55 0 19 -4 38 -9 41 -5 3 -9 12 -9 20 0 24 35 12 38 -14z m232 -108 c0 -18
-26 -18 -33 0 -3 8 -3 16 0 19 9 10 33 -5 33 -19z m-25 -64 c3 -5 -1 -10 -9
-10 -9 0 -16 5 -16 10 0 6 4 10 9 10 6 0 13 -4 16 -10z m-3645 -60 c0 -5 -5
-10 -11 -10 -5 0 -7 5 -4 10 3 6 8 10 11 10 2 0 4 -4 4 -10z m2910 -40 c0 -5
-4 -10 -10 -10 -5 0 -10 5 -10 10 0 6 5 10 10 10 6 0 10 -4 10 -10z m-152 -12
c-7 -19 -38 -22 -38 -4 0 10 9 16 21 16 12 0 19 -5 17 -12z m-2844 -32 c-3
-14 -11 -26 -16 -26 -5 0 -7 6 -4 13 3 6 9 20 12 30 10 27 16 13 8 -17z m2446
-5 c0 -10 -7 -22 -16 -25 -8 -3 -13 -2 -11 2 2 4 7 15 10 25 8 23 17 22 17 -2z
m1297 2 c3 -7 -7 -15 -21 -19 -19 -4 -26 -13 -26 -30 0 -15 6 -24 15 -24 16 0
20 -36 6 -59 -6 -9 -11 -10 -15 -2 -9 14 -46 15 -46 1 0 -5 -5 -10 -11 -10 -8
0 -8 5 1 15 10 12 9 20 -4 40 -13 19 -13 25 -3 25 7 0 18 -5 25 -12 9 -9 12
-8 12 8 0 26 -20 53 -27 36 -6 -15 -23 -6 -23 14 0 8 10 14 25 14 14 0 25 5
25 11 0 14 62 7 67 -8z m-140 -45 c-3 -8 -6 -5 -6 6 -1 11 2 17 5 13 3 -3 4
-12 1 -19z m193 -18 c0 -5 -4 -10 -10 -10 -5 0 -10 5 -10 10 0 6 5 10 10 10 6
0 10 -4 10 -10z m-1600 -44 c0 -2 -9 -6 -20 -9 -11 -3 -20 -1 -20 4 0 5 9 9
20 9 11 0 20 -2 20 -4z m880 -21 c0 -8 -9 -15 -20 -15 -22 0 -27 15 -7 23 21
9 27 7 27 -8z m710 -1 c0 -2 -7 -4 -15 -4 -8 0 -15 4 -15 10 0 5 7 7 15 4 8
-4 15 -8 15 -10z m-3744 -29 c-17 -48 -24 -52 -36 -21 -14 39 -13 45 10 39 11
-3 20 0 20 6 0 6 4 11 9 11 5 0 3 -16 -3 -35z m3554 5 c0 -5 -4 -10 -10 -10
-5 0 -10 5 -10 10 0 6 5 10 10 10 6 0 10 -4 10 -10z m7 -52 c-3 -8 -6 -5 -6 6
-1 11 2 17 5 13 3 -3 4 -12 1 -19z m128 12 c4 -6 -5 -20 -19 -31 -15 -11 -24
-25 -21 -30 4 -5 1 -9 -4 -9 -18 0 -12 52 7 66 21 16 29 17 37 4z m60 -29 c-3
-6 -11 -11 -17 -11 -6 0 -6 6 2 15 14 17 26 13 15 -4z m-215 -11 c0 -5 -7 -7
-15 -4 -8 4 -15 8 -15 10 0 2 7 4 15 4 8 0 15 -4 15 -10z m-300 -11 c0 -7 9
-9 23 -5 31 7 64 -28 46 -50 -6 -8 -20 -14 -30 -14 -11 0 -19 -4 -19 -10 0 -5
-4 -10 -10 -10 -5 0 -10 9 -10 20 0 14 7 20 21 20 31 0 18 23 -19 34 -33 9
-44 26 -17 26 8 0 15 -5 15 -11z m380 2 c0 -6 -4 -13 -10 -16 -5 -3 -10 1 -10
9 0 9 5 16 10 16 6 0 10 -4 10 -9z m-170 -17 c0 -8 -4 -12 -10 -9 -5 3 -10 10
-10 16 0 5 5 9 10 9 6 0 10 -7 10 -16z m30 -24 c0 -29 -4 -40 -15 -40 -9 0
-15 -6 -14 -12 2 -20 -12 -58 -22 -58 -5 0 -9 7 -9 16 0 10 -5 14 -15 10 -9
-3 -18 1 -22 10 -8 21 38 59 49 41 5 -8 10 -4 14 11 4 12 10 22 15 22 5 0 9 9
9 20 0 11 2 20 5 20 3 0 5 -18 5 -40z m236 5 c-3 -8 -16 -15 -29 -15 -13 0
-28 -5 -35 -12 -13 -13 -27 -5 -17 11 3 6 19 11 35 11 16 0 32 5 35 10 3 6 0
10 -7 10 -9 0 -9 3 2 10 17 11 25 -2 16 -25z m55 15 c5 0 9 -4 9 -10 0 -15
-20 -12 -38 7 -16 16 -16 16 1 10 10 -4 23 -7 28 -7z m-261 -15 c0 -8 -4 -15
-10 -15 -5 0 -10 7 -10 15 0 8 5 15 10 15 6 0 10 -7 10 -15z m-460 -5 c0 -5
-4 -10 -10 -10 -5 0 -10 5 -10 10 0 6 5 10 10 10 6 0 10 -4 10 -10z m507 -12
c-3 -8 -6 -5 -6 6 -1 11 2 17 5 13 3 -3 4 -12 1 -19z m-569 -9 c-2 -6 -8 -10
-13 -10 -5 0 -11 4 -13 10 -2 6 4 11 13 11 9 0 15 -5 13 -11z m366 -15 c9 -22
0 -30 -18 -15 -10 8 -16 9 -21 1 -3 -5 -14 -10 -23 -10 -14 1 -13 4 7 20 28
24 47 25 55 4z m-944 -15 c0 -5 -7 -9 -15 -9 -9 0 -12 6 -9 15 6 15 24 11 24
-6z m620 11 c0 -5 -4 -10 -10 -10 -5 0 -10 5 -10 10 0 6 5 10 10 10 6 0 10 -4
10 -10z m60 1 c0 -11 -26 -22 -34 -14 -12 12 -5 23 14 23 11 0 20 -4 20 -9z
m90 -4 c0 -19 -43 -37 -61 -26 -11 7 -9 9 9 9 13 0 22 6 22 15 0 8 7 15 15 15
8 0 15 -6 15 -13z m594 -2 c4 -10 -1 -15 -14 -15 -18 0 -19 -3 -8 -20 10 -16
10 -22 -2 -34 -24 -23 -57 -29 -64 -11 -3 9 0 15 9 15 20 0 30 40 14 52 -11 8
-10 9 3 5 9 -3 19 1 22 9 7 18 32 18 40 -1z m43 -7 c-3 -8 -6 -5 -6 6 -1 11 2
17 5 13 3 -3 4 -12 1 -19z m-820 -4 c-3 -3 -12 -4 -19 -1 -8 3 -5 6 6 6 11 1
17 -2 13 -5z m-2956 -47 c-8 -8 -11 -3 -11 19 1 25 2 27 11 11 8 -14 8 -22 0
-30z m2412 36 c-7 -2 -19 -2 -25 0 -7 3 -2 5 12 5 14 0 19 -2 13 -5z m763 -28
c9 -14 22 -25 29 -25 8 0 11 -8 8 -20 -5 -19 -6 -19 -27 5 -12 14 -27 25 -33
25 -15 0 -26 17 -18 30 10 16 24 11 41 -15z m91 1 c4 -3 -13 -5 -35 -3 -23 1
-42 7 -42 13 0 12 64 3 77 -10z m-417 4 c0 -5 -2 -10 -4 -10 -3 0 -8 5 -11 10
-3 6 -1 10 4 10 6 0 11 -4 11 -10z m657 4 c-3 -3 -12 -4 -19 -1 -8 3 -5 6 6 6
11 1 17 -2 13 -5z m-718 -20 c17 -8 28 -20 25 -26 -4 -7 -9 -6 -14 2 -4 6 -11
12 -16 12 -17 1 -34 10 -34 19 0 12 2 12 39 -7z m226 -15 c9 28 50 29 42 1 -3
-11 -1 -23 5 -26 16 -10 58 6 58 23 0 15 1 15 18 0 10 -10 24 -17 30 -17 7 0
12 -7 12 -15 0 -8 5 -15 10 -15 25 0 1 -41 -30 -52 -11 -3 -10 -7 8 -17 36
-19 27 -34 -15 -26 -40 7 -56 22 -48 43 2 6 0 12 -5 12 -6 0 -10 -7 -10 -15 0
-8 -9 -15 -20 -15 -11 0 -20 -4 -20 -10 0 -5 7 -10 15 -10 16 0 20 -27 7 -46
-10 -15 -92 -27 -92 -14 0 5 9 10 21 10 11 0 18 4 15 8 -3 5 9 7 27 5 l32 -3
-30 12 c-16 6 -35 18 -42 27 -12 16 -14 14 -17 -11 0 -7 -10 -14 -20 -16 -13
-3 -17 0 -13 11 14 36 -67 64 -93 32 -9 -11 -23 -14 -45 -9 -24 4 -34 2 -39
-11 -3 -9 -10 -13 -16 -10 -15 9 -12 25 5 25 8 0 15 7 15 15 0 8 5 15 10 15 6
0 10 5 10 10 0 6 -6 9 -12 8 -8 -2 -14 10 -16 30 -2 18 1 32 7 32 6 0 11 -6
11 -14 0 -17 50 -9 57 10 3 8 11 14 19 14 8 0 14 4 14 10 0 6 10 5 25 -2 23
-10 23 -12 7 -24 -16 -12 -16 -13 0 -19 20 -8 41 2 33 16 -4 5 1 9 11 9 13 0
14 3 5 13 -19 23 1 28 25 6 l22 -21 7 21z m799 -4 c3 -8 1 -15 -4 -15 -6 0
-10 -4 -10 -10 0 -5 7 -10 15 -10 17 0 20 -25 5 -35 -5 -3 -10 -17 -10 -30 0
-13 -4 -27 -10 -30 -5 -3 -10 -15 -10 -26 0 -10 -5 -19 -11 -19 -7 0 -9 8 -4
23 4 12 8 31 9 43 1 11 6 25 10 32 4 6 -1 23 -10 37 -13 20 -14 28 -4 40 16
19 26 19 34 0z m-1566 -13 c2 -7 -2 -10 -12 -6 -9 3 -16 11 -16 16 0 13 23 5
28 -10z m497 8 c3 -5 1 -10 -4 -10 -6 0 -11 5 -11 10 0 6 2 10 4 10 3 0 8 -4
11 -10z m768 -17 c-7 -2 -19 -2 -25 0 -7 3 -2 5 12 5 14 0 19 -2 13 -5z m170
-23 c-29 -31 -53 -39 -53 -17 0 14 47 46 68 47 8 0 2 -13 -15 -30z m-1173 -5
c0 -8 -4 -15 -10 -15 -5 0 -10 7 -10 15 0 8 5 15 10 15 6 0 10 -7 10 -15z
m937 -7 c-3 -8 -6 -5 -6 6 -1 11 2 17 5 13 3 -3 4 -12 1 -19z m333 -3 c0 -8
-4 -15 -10 -15 -5 0 -10 7 -10 15 0 8 5 15 10 15 6 0 10 -7 10 -15z m-514 -20
c-8 -8 -18 -15 -22 -15 -3 0 -1 7 6 15 7 8 17 15 22 15 5 0 3 -7 -6 -15z
m-866 -5 c0 -5 -7 -10 -16 -10 -8 0 -12 5 -9 10 3 6 10 10 16 10 5 0 9 -4 9
-10z m-90 -15 c-7 -8 -17 -12 -23 -8 -6 4 -3 9 9 14 27 11 28 11 14 -6z m240
-17 c0 -5 -9 -8 -20 -8 -11 0 -20 7 -20 16 0 8 5 12 10 9 6 -3 10 0 10 7 0 9
3 9 10 -2 5 -8 10 -18 10 -22z m813 12 c-3 -11 -7 -20 -8 -20 -1 0 -5 9 -8 20
-3 12 0 20 8 20 8 0 11 -8 8 -20z m-878 -1 c4 -6 5 -12 2 -15 -7 -7 -37 7 -37
17 0 13 27 11 35 -2z m1281 -14 c-3 -9 -11 -13 -16 -10 -8 5 -7 11 1 21 14 18
24 11 15 -11z m-521 5 c3 -5 -3 -10 -15 -10 -12 0 -18 5 -15 10 3 6 10 10 15
10 5 0 12 -4 15 -10z m380 0 c3 -5 -1 -10 -9 -10 -9 0 -16 5 -16 10 0 6 4 10
9 10 6 0 13 -4 16 -10z m-345 -20 c0 -5 -4 -10 -10 -10 -5 0 -10 5 -10 10 0 6
5 10 10 10 6 0 10 -4 10 -10z m-780 -20 c0 -5 -2 -10 -4 -10 -3 0 -8 5 -11 10
-3 6 -1 10 4 10 6 0 11 -4 11 -10z m828 -21 c-21 -14 -26 -10 -21 11 4 16 8
18 20 9 11 -10 11 -14 1 -20z m297 21 c-3 -5 -13 -10 -21 -10 -8 0 -14 5 -14
10 0 6 9 10 21 10 11 0 17 -4 14 -10z m-1047 -19 c3 -8 -1 -12 -9 -9 -7 2 -15
10 -17 17 -3 8 1 12 9 9 7 -2 15 -10 17 -17z m66 3 c12 -31 5 -40 -38 -53 -26
-7 -46 -20 -48 -29 -3 -13 -5 -11 -10 6 -5 20 -1 23 38 33 50 13 61 24 44 44
-7 9 -8 15 -2 15 5 0 13 -7 16 -16z m236 6 c0 -5 10 -10 23 -11 12 0 16 -3 9
-6 -19 -7 -64 6 -57 17 8 13 25 13 25 0z m381 -20 c-17 -15 -22 -26 -17 -45 4
-14 11 -25 16 -25 6 0 10 -7 10 -15 0 -17 -2 -18 -24 -9 -10 4 -16 18 -16 35
0 16 -4 29 -10 29 -5 0 -10 -15 -10 -32 0 -25 -3 -29 -10 -18 -6 10 -8 -3 -4
-40 l5 -55 -17 35 c-21 45 -56 64 -78 42 -12 -13 -18 -13 -30 -2 -14 11 -16 9
-16 -9 0 -11 -4 -21 -10 -21 -5 0 -10 11 -10 24 0 14 -6 26 -12 29 -7 2 -2 2
10 0 16 -3 21 0 17 8 -4 6 -4 14 1 18 5 3 17 18 27 34 26 40 44 35 39 -10 l-3
-38 24 28 c17 20 34 29 58 30 21 2 33 7 32 15 -2 7 8 12 25 12 l27 -1 -24 -19z
m109 16 c0 -3 -4 -8 -10 -11 -5 -3 -10 -1 -10 4 0 6 5 11 10 11 6 0 10 -2 10
-4z m-855 -16 c3 -6 -1 -13 -9 -16 -9 -3 -16 -16 -17 -28 0 -11 -3 -15 -6 -8
-7 17 5 62 17 62 5 0 12 -5 15 -10z m265 -16 c0 -14 -3 -14 -15 -4 -8 7 -15
14 -15 16 0 2 7 4 15 4 8 0 15 -7 15 -16z m501 -37 c-13 -13 -15 1 -4 30 7 17
8 17 11 -1 2 -10 -1 -23 -7 -29z m-866 14 c3 -5 1 -12 -5 -16 -5 -3 -10 1 -10
9 0 18 6 21 15 7z m975 -1 c0 -5 -7 -10 -16 -10 -8 0 -12 5 -9 10 3 6 10 10
16 10 5 0 9 -4 9 -10z m-427 -15 c4 -8 2 -17 -3 -20 -6 -4 -10 3 -10 14 0 25
6 27 13 6z m42 5 c3 -5 -1 -10 -9 -10 -9 0 -16 5 -16 10 0 6 4 10 9 10 6 0 13
-4 16 -10z m-105 -22 c0 -19 -2 -20 -10 -8 -13 19 -13 30 0 30 6 0 10 -10 10
-22z m414 14 c6 -10 -28 -64 -36 -56 -4 3 -2 19 4 35 10 29 22 37 32 21z
m-607 -8 c-3 -3 -12 -4 -19 -1 -8 3 -5 6 6 6 11 1 17 -2 13 -5z m-310 -26 c-3
-8 -6 -5 -6 6 -1 11 2 17 5 13 3 -3 4 -12 1 -19z m110 16 c-3 -3 -12 -4 -19
-1 -8 3 -5 6 6 6 11 1 17 -2 13 -5z m-133 -19 c3 -9 0 -15 -9 -15 -8 0 -15 7
-15 15 0 8 4 15 9 15 5 0 11 -7 15 -15z m147 -6 c14 -7 18 -16 14 -30 -6 -19
-5 -20 15 -9 16 9 20 9 15 1 -4 -7 -2 -18 5 -26 6 -8 7 -16 2 -19 -6 -3 -15 1
-22 9 -7 8 -27 16 -44 16 -17 1 -23 3 -13 6 9 2 17 9 17 14 0 9 -11 12 -45 10
-14 0 -16 1 -5 6 8 3 19 12 23 19 10 17 13 17 38 3z m99 -9 c0 -5 -7 -10 -15
-10 -8 0 -15 5 -15 10 0 6 7 10 15 10 8 0 15 -4 15 -10z m380 0 c0 -5 -4 -10
-10 -10 -5 0 -10 5 -10 10 0 6 5 10 10 10 6 0 10 -4 10 -10z m-301 -53 c-25
-27 -35 -15 -19 24 12 29 15 30 26 14 11 -14 10 -21 -7 -38z m518 21 c-3 -8
-6 -5 -6 6 -1 11 2 17 5 13 3 -3 4 -12 1 -19z m147 7 c3 -8 1 -15 -4 -15 -6 0
-10 7 -10 15 0 8 2 15 4 15 2 0 6 -7 10 -15z m-419 -5 c3 -5 1 -10 -4 -10 -6
0 -11 5 -11 10 0 6 2 10 4 10 3 0 8 -4 11 -10z m-495 -20 c0 -5 -4 -10 -10
-10 -5 0 -10 5 -10 10 0 6 5 10 10 10 6 0 10 -4 10 -10z m196 -27 c-5 -12 -10
-13 -18 -5 -8 8 -8 15 3 28 15 18 25 4 15 -23z m114 1 c0 -4 -8 -13 -17 -20
-17 -13 -17 -15 1 -29 15 -11 17 -18 9 -26 -8 -8 -6 -16 7 -29 10 -10 19 -23
22 -30 2 -7 15 -14 29 -15 21 -2 24 -7 24 -38 0 -27 6 -41 23 -52 20 -15 22
-15 23 2 0 10 3 13 5 6 3 -7 1 -20 -5 -30 -8 -16 -6 -19 12 -20 12 -1 32 5 44
13 21 13 23 13 23 -6 0 -13 7 -20 20 -20 26 0 26 -17 -1 -25 -15 -5 -17 -10
-9 -20 8 -9 5 -14 -12 -18 -13 -4 -27 -2 -32 3 -6 6 -18 10 -28 10 -11 0 -15
5 -12 15 4 8 1 15 -5 15 -6 0 -11 -5 -11 -11 0 -8 -5 -7 -16 2 -14 12 -16 10
-12 -16 2 -16 -2 -30 -9 -32 -7 -3 -13 2 -13 11 0 9 -4 16 -9 16 -5 0 -16 3
-25 6 -11 4 -16 0 -16 -14 0 -13 -10 -24 -31 -31 -27 -9 -30 -8 -27 7 2 9 -5
22 -16 27 -29 15 -44 44 -28 54 10 6 11 13 1 34 -9 21 -9 30 1 42 16 20 -4 20
-24 0 -8 -8 -19 -15 -25 -15 -6 0 -11 7 -11 15 0 18 -16 20 -23 3 -3 -7 -6 -4
-6 8 -1 11 -6 25 -13 32 -6 6 -9 15 -5 18 8 9 74 -23 80 -39 4 -8 6 -9 6 0 1
15 -27 43 -44 43 -9 0 -13 10 -11 28 1 15 8 26 15 24 7 -1 10 2 6 8 -3 5 -3
15 1 21 4 8 13 4 25 -12 15 -20 19 -21 19 -6 0 9 7 17 15 17 8 0 15 -5 15 -11
0 -5 5 -7 10 -4 6 3 10 20 10 37 0 18 7 36 18 44 19 15 32 18 32 8z m-280 -14
c0 -5 -2 -10 -4 -10 -3 0 -8 5 -11 10 -3 6 -1 10 4 10 6 0 11 -4 11 -10z
m-2710 -21 c0 -6 -4 -7 -10 -4 -5 3 -10 11 -10 16 0 6 5 7 10 4 6 -3 10 -11
10 -16z m2847 -5 c14 -14 14 -16 -3 -20 -20 -5 -47 -51 -38 -65 6 -10 1 -11
-19 -3 -8 3 -13 13 -10 23 3 11 -5 24 -22 35 -26 17 -26 36 1 36 8 0 14 -7 14
-16 0 -9 5 -14 11 -12 6 2 10 7 9 12 -2 9 19 26 33 26 5 0 15 -7 24 -16z m850
0 c-3 -3 -12 -4 -19 -1 -8 3 -5 6 6 6 11 1 17 -2 13 -5z m-3726 -47 c-8 -8
-11 -7 -11 4 0 20 13 34 18 19 3 -7 -1 -17 -7 -23z m1356 -13 c-3 -3 -12 -4
-19 -1 -8 3 -5 6 6 6 11 1 17 -2 13 -5z m-80 -56 c-3 -7 -5 -2 -5 12 0 14 2
19 5 13 2 -7 2 -19 0 -25z m1989 0 c4 -5 -4 -8 -19 -8 -14 0 -28 4 -31 8 -6
10 40 10 50 0z m74 8 c0 -11 -19 -15 -25 -6 -3 5 1 10 9 10 9 0 16 -2 16 -4z
m-180 -15 c0 -6 -4 -13 -10 -16 -5 -3 -10 1 -10 9 0 9 5 16 10 16 6 0 10 -4
10 -9z m108 -51 c-15 -23 -28 -26 -28 -6 0 8 8 17 18 19 9 3 18 5 20 6 1 0 -3
-8 -10 -19z m100 13 c-10 -2 -26 -2 -35 0 -10 3 -2 5 17 5 19 0 27 -2 18 -5z
m-2040 -39 c-3 -14 -5 -12 -10 9 -3 19 -2 25 4 19 6 -6 8 -18 6 -28z m1857 6
c-5 -8 -11 -8 -17 -2 -6 6 -7 16 -3 22 5 8 11 8 17 2 6 -6 7 -16 3 -22z
m-1641 -4 c-8 -21 -44 -21 -44 0 0 11 6 15 20 11 11 -3 20 0 20 6 0 6 2 8 5 5
3 -3 3 -13 -1 -22z m-1301 -7 c3 -11 1 -34 -5 -50 -8 -25 -7 -32 6 -42 27 -19
10 -47 -28 -47 -31 0 -32 2 -33 41 -1 35 2 40 18 36 25 -7 24 10 -1 18 -11 3
-20 12 -20 20 0 8 7 11 20 8 15 -4 20 0 20 16 0 27 16 27 23 0z m1356 -8 c-15
-5 -22 6 -14 19 6 9 10 9 16 -1 5 -8 4 -15 -2 -18z m-119 -1 c0 -5 -4 -10 -10
-10 -5 0 -10 5 -10 10 0 6 5 10 10 10 6 0 10 -4 10 -10z m170 -9 c0 -19 -23
-35 -34 -24 -7 8 12 43 24 43 6 0 10 -9 10 -19z m1226 4 c-3 -8 2 -19 11 -24
14 -8 15 -12 4 -25 -10 -12 -17 -14 -27 -5 -8 6 -20 9 -27 6 -8 -3 -20 -1 -28
4 -10 6 -5 10 19 15 35 7 39 13 20 32 -9 9 -7 12 11 12 16 0 21 -4 17 -15z
m-1566 -25 c0 -5 -7 -7 -15 -4 -8 4 -12 10 -9 15 6 11 24 2 24 -11z m-1400
-31 c0 -5 -7 -6 -15 -3 -8 4 -15 13 -15 21 0 13 3 13 15 3 8 -7 15 -16 15 -21z
m2897 -25 c-3 -3 -12 -4 -19 -1 -8 3 -5 6 6 6 11 1 17 -2 13 -5z m68 -5 c12
-19 -5 -23 -22 -6 -16 16 -16 17 -1 17 9 0 20 -5 23 -11z m259 -15 c3 -8 2
-12 -4 -9 -6 3 -10 10 -10 16 0 14 7 11 14 -7z m-178 -19 c4 -8 3 -26 0 -40
-5 -21 -12 -25 -40 -25 -19 0 -36 -6 -39 -12 -2 -7 -8 -10 -12 -5 -5 4 0 13
10 21 11 8 16 20 12 30 -8 20 -27 21 -27 0 0 -9 -5 -12 -12 -8 -8 5 -4 13 11
26 32 26 41 23 42 -14 1 -24 3 -27 6 -10 2 12 9 22 15 22 6 0 8 -9 5 -20 -3
-12 -1 -18 5 -14 5 4 8 19 6 35 -5 30 8 40 18 14z m107 -53 c-8 -20 -8 -20
-32 -1 -16 13 -19 20 -10 23 50 16 55 13 42 -22z m-2863 22 c0 -8 -32 -33 -43
-34 -4 0 -3 9 3 20 10 18 40 29 40 14z m2867 -80 c-3 -3 -12 -4 -19 -1 -8 3
-5 6 6 6 11 1 17 -2 13 -5z m-2811 -69 c-7 -20 -20 -19 -37 2 -11 13 -11 15
-1 9 10 -6 13 -3 12 10 -4 35 0 39 16 16 9 -13 13 -29 10 -37z m694 46 c0 -3
-12 -12 -27 -18 -21 -10 -28 -10 -34 -1 -5 7 -4 15 1 18 12 8 60 9 60 1z
m-620 -32 c-7 -11 -14 -18 -17 -15 -3 3 0 12 7 21 18 21 23 19 10 -6z m2760
11 c0 -5 -4 -10 -10 -10 -5 0 -10 5 -10 10 0 6 5 10 10 10 6 0 10 -4 10 -10z
m-2870 -168 c-1 -16 -19 -34 -29 -28 -7 5 -7 12 1 26 11 17 28 18 28 2z m-356
-38 c25 -10 19 -31 -11 -37 -26 -5 -73 10 -73 23 0 19 49 27 84 14z m431 -24
c3 -5 1 -10 -4 -10 -6 0 -11 5 -11 10 0 6 2 10 4 10 3 0 8 -4 11 -10z m-55
-66 c0 -8 -4 -12 -10 -9 -5 3 -10 10 -10 16 0 5 5 9 10 9 6 0 10 -7 10 -16z
m160 -23 c0 -6 -4 -13 -10 -16 -5 -3 -10 1 -10 9 0 9 5 16 10 16 6 0 10 -4 10
-9z m-195 -21 c-3 -5 -11 -10 -16 -10 -6 0 -7 5 -4 10 3 6 11 10 16 10 6 0 7
-4 4 -10z m45 -44 c0 -3 -4 -8 -10 -11 -5 -3 -10 -1 -10 4 0 6 5 11 10 11 6 0
10 -2 10 -4z m1531 -22 c25 -11 27 -14 9 -10 -14 3 -31 6 -37 6 -7 0 -13 5
-13 10 0 13 2 13 41 -6z m119 -9 c0 -8 -4 -15 -9 -15 -13 0 -22 16 -14 24 11
11 23 6 23 -9z m30 -31 c0 -8 -4 -12 -10 -9 -5 3 -10 10 -10 16 0 5 5 9 10 9
6 0 10 -7 10 -16z m-1606 -18 c-3 -9 -10 -16 -15 -16 -6 0 -5 9 1 21 13 24 24
20 14 -5z m-111 -126 c-3 -11 -9 -20 -14 -20 -11 0 -11 3 -3 24 9 23 23 20 17
-4z m4012 -490 c3 -5 2 -10 -4 -10 -5 0 -13 5 -16 10 -3 6 -2 10 4 10 5 0 13
-4 16 -10z m420 -150 c21 -16 43 -30 49 -30 6 0 3 -5 -7 -11 -13 -8 -24 -7
-42 5 -13 9 -33 16 -44 16 -21 0 -31 17 -23 38 7 19 26 14 67 -18z m-3967 -55
c-6 -14 -13 -23 -16 -21 -7 7 9 46 18 46 5 0 4 -11 -2 -25z m4597 -45 c39 -6
120 -14 180 -20 138 -11 215 -28 215 -45 0 -16 -51 -15 -71 2 -8 6 -34 11 -59
11 -56 0 -141 9 -147 16 -3 3 -15 1 -28 -4 -12 -5 -52 -11 -88 -14 -36 -3 -75
-10 -88 -14 -15 -6 -32 -4 -52 6 -23 12 -31 12 -37 2 -5 -8 -13 -9 -21 -4 -8
5 -25 9 -39 9 -14 0 -32 5 -40 10 -8 5 -22 8 -32 7 -9 -2 -19 2 -23 8 -3 5
-21 10 -40 10 -44 0 -91 20 -73 32 16 10 347 1 443 -12z m-4635 -186 c0 -33
-17 -64 -35 -64 -19 0 -19 14 0 30 8 7 15 23 15 36 0 13 5 24 10 24 6 0 10
-12 10 -26z m57 -96 c-3 -7 -5 -2 -5 12 0 14 2 19 5 13 2 -7 2 -19 0 -25z m47
-13 c-4 -8 -8 -15 -10 -15 -2 0 -4 7 -4 15 0 8 4 15 10 15 5 0 7 -7 4 -15z
m136 -167 c0 -7 -4 -19 -9 -27 -8 -12 -12 -12 -25 -2 -15 12 -15 15 1 27 23
17 33 17 33 2z m13 -94 c-4 -10 -9 -12 -15 -6 -12 12 -1 35 12 27 5 -3 6 -13
3 -21z m54 -16 c-3 -8 -6 -5 -6 6 -1 11 2 17 5 13 3 -3 4 -12 1 -19z m-1307
-88 c-12 -7 -8 -11 17 -16 18 -4 30 -10 28 -14 -3 -5 1 -15 9 -22 11 -11 11
-20 2 -41 -11 -27 -11 -27 -24 -7 -10 17 -10 20 3 20 8 0 15 4 15 8 0 5 -13 7
-29 4 -37 -5 -66 30 -48 59 7 11 19 19 27 19 13 0 13 -1 0 -10z m218 -159 c26
-22 28 -37 6 -45 -12 -4 -14 -1 -9 14 9 28 -21 27 -35 -1 -17 -31 -25 -14 -10
21 14 35 17 36 48 11z m-168 -31 c0 -5 -2 -10 -4 -10 -3 0 -8 5 -11 10 -3 6
-1 10 4 10 6 0 11 -4 11 -10z m221 -37 c-10 -17 -10 -16 -11 3 0 23 13 41 18
25 2 -6 -1 -18 -7 -28z m-57 -18 c-4 -8 -10 -12 -15 -9 -11 6 -2 24 11 24 5 0
7 -7 4 -15z m107 -9 c-7 -8 -8 -22 -3 -36 l9 -23 16 24 c16 21 17 22 17 4 0
-46 -21 -95 -40 -95 -21 0 -27 15 -10 25 6 3 10 13 10 21 0 8 -4 14 -10 14 -5
0 -10 -7 -10 -15 0 -8 -7 -15 -15 -15 -8 0 -15 6 -15 13 0 16 -38 40 -50 32
-6 -4 -10 -17 -10 -30 0 -13 -4 -27 -10 -30 -6 -4 -4 -16 6 -31 11 -16 13 -24
4 -24 -6 0 -14 9 -17 20 -3 11 -12 20 -19 20 -22 0 -17 16 16 52 17 18 30 38
30 45 0 16 5 16 29 1 22 -13 51 3 51 28 0 8 7 14 16 14 13 0 14 -3 5 -14z
m-155 -46 c0 -11 -6 -20 -13 -20 -11 0 -11 5 -3 20 6 11 12 20 13 20 2 0 3 -9
3 -20z m231 -56 c3 -13 -25 -49 -33 -41 -10 10 6 59 18 55 7 -3 13 -8 15 -14z
m-130 -18 c-6 -17 -41 -13 -45 5 -2 13 3 15 23 11 14 -2 24 -10 22 -16z m33
-32 c0 -8 -5 -12 -10 -9 -6 4 -8 11 -5 16 9 14 15 11 15 -7z m-240 -15 c0 -4
-4 -11 -10 -14 -5 -3 -10 -1 -10 5 0 6 -5 8 -12 4 -6 -4 -8 -3 -5 3 7 11 37
13 37 2z m506 -10 c12 -12 20 -27 17 -35 -8 -20 -20 -17 -26 7 -5 17 -9 19
-25 10 -16 -9 -21 -7 -25 9 -9 36 24 42 59 9z m512 -240 c-2 -6 -8 -10 -13
-10 -5 0 -11 4 -13 10 -2 6 4 11 13 11 9 0 15 -5 13 -11z m-108 -239 c0 -5 -7
-10 -15 -10 -8 0 -15 5 -15 10 0 6 7 10 15 10 8 0 15 -4 15 -10z m8 -78 c6 -9
12 -21 12 -28 0 -22 -21 -27 -35 -8 -11 15 -16 17 -26 7 -7 -7 -21 -13 -31
-13 -21 0 -40 -32 -32 -54 4 -12 0 -16 -16 -16 -17 0 -21 5 -17 19 3 13 -2 21
-16 25 -17 4 -18 7 -7 20 7 9 20 16 30 16 9 0 30 13 46 29 31 32 67 33 92 3z
m110 -44 c15 -2 15 -11 0 -26 -9 -9 -9 -12 0 -12 7 0 12 -5 12 -11 0 -5 -4 -7
-10 -4 -5 3 -30 -6 -56 -20 -26 -14 -49 -23 -52 -20 -3 3 -14 -2 -24 -12 -36
-32 -17 5 27 53 25 27 45 53 45 57 0 5 10 6 23 2 12 -3 28 -7 35 -7z m-185
-40 c3 -10 7 -10 20 1 19 15 22 5 7 -19 -7 -11 -14 -12 -27 -4 -20 12 -29 34
-15 34 6 0 12 -6 15 -12z m332 -38 c8 -13 -12 -40 -30 -40 -8 0 -10 9 -7 25 4
25 26 34 37 15z m-78 -6 c-3 -3 -12 -4 -19 -1 -8 3 -5 6 6 6 11 1 17 -2 13 -5z
m3 -54 c-20 -13 -43 -13 -35 0 3 6 16 10 28 10 18 0 19 -2 7 -10z"/>
<path d="M8143 6506 c5 -16 27 -19 27 -3 0 7 -7 14 -15 14 -9 0 -14 -5 -12
-11z"/>
<path d="M7997 6503 c-4 -3 -7 -11 -7 -17 0 -6 5 -5 12 2 6 6 9 14 7 17 -3 3
-9 2 -12 -2z"/>
<path d="M8075 6479 c-9 -14 -2 -20 14 -10 8 6 9 11 3 15 -6 3 -14 1 -17 -5z"/>
<path d="M7600 6430 c0 -13 5 -20 13 -17 6 2 12 10 12 17 0 7 -6 15 -12 18 -8
2 -13 -5 -13 -18z"/>
<path d="M7907 6410 c-3 -11 -1 -20 4 -20 5 0 9 9 9 20 0 11 -2 20 -4 20 -2 0
-6 -9 -9 -20z"/>
<path d="M8055 6420 c3 -5 8 -10 11 -10 2 0 4 5 4 10 0 6 -5 10 -11 10 -5 0
-7 -4 -4 -10z"/>
<path d="M7550 6410 c0 -5 5 -10 10 -10 6 0 10 5 10 10 0 6 -4 10 -10 10 -5 0
-10 -4 -10 -10z"/>
<path d="M7625 6390 c-9 -15 4 -30 26 -30 12 0 19 7 19 20 0 21 -33 29 -45 10z"/>
<path d="M7730 6365 c0 -8 5 -15 10 -15 6 0 10 7 10 15 0 8 -4 15 -10 15 -5 0
-10 -7 -10 -15z"/>
<path d="M7880 6370 c0 -5 5 -10 10 -10 6 0 10 5 10 10 0 6 -4 10 -10 10 -5 0
-10 -4 -10 -10z"/>
<path d="M8310 6356 c0 -9 9 -16 20 -16 13 0 22 -9 26 -26 4 -15 10 -22 16
-16 13 13 1 36 -32 56 -26 15 -30 15 -30 2z"/>
<path d="M7707 6333 c-7 -11 10 -40 18 -31 4 4 3 14 -3 24 -5 9 -12 12 -15 7z"/>
<path d="M8570 6280 c-8 -5 -10 -10 -5 -10 6 0 17 5 25 10 8 5 11 10 5 10 -5
0 -17 -5 -25 -10z"/>
<path d="M8342 6263 c2 -12 14 -19 36 -21 20 -2 32 -9 32 -18 0 -8 5 -14 10
-14 6 0 10 -7 8 -16 -6 -33 18 -24 32 11 12 30 16 33 21 18 11 -26 11 -45 0
-39 -12 8 -20 -29 -10 -45 7 -11 9 -11 9 -1 0 7 11 17 25 22 14 5 25 14 25 20
0 5 9 10 20 10 11 0 20 6 20 14 0 22 -18 29 -28 10 -8 -14 -12 -12 -39 10 -27
22 -32 24 -49 11 -23 -16 -43 -3 -45 29 -1 17 -2 17 -6 4 -5 -22 -43 -24 -43
-3 0 8 -5 15 -11 15 -6 0 -9 -8 -7 -17z"/>
<path d="M8384 6175 c-10 -8 -14 -15 -8 -15 6 0 17 7 24 15 16 19 9 19 -16 0z"/>
<path d="M8625 6158 c9 -29 23 -44 32 -35 8 9 -17 57 -29 57 -5 0 -6 -10 -3
-22z"/>
<path d="M8650 6170 c0 -5 5 -10 11 -10 5 0 7 5 4 10 -3 6 -8 10 -11 10 -2 0
-4 -4 -4 -10z"/>
<path d="M8601 6094 c0 -11 3 -14 6 -6 3 7 2 16 -1 19 -3 4 -6 -2 -5 -13z"/>
<path d="M8950 6084 c0 -8 6 -11 17 -7 11 4 14 3 9 -5 -5 -8 0 -12 13 -12 13
0 18 6 17 18 -3 20 -56 26 -56 6z"/>
<path d="M8895 6070 c3 -5 13 -10 21 -10 8 0 14 5 14 10 0 6 -9 10 -21 10 -11
0 -17 -4 -14 -10z"/>
<path d="M9072 6072 c-9 -6 2 -14 35 -24 26 -9 51 -14 56 -11 11 6 9 43 -3 43
-5 0 -10 -5 -10 -11 0 -11 -15 -9 -50 5 -8 3 -21 2 -28 -2z"/>
<path d="M9190 6045 c-15 -18 -14 -20 23 -29 31 -7 35 4 8 28 -16 15 -19 15
-31 1z"/>
<path d="M7511 6034 c0 -11 3 -14 6 -6 3 7 2 16 -1 19 -3 4 -6 -2 -5 -13z"/>
<path d="M7938 6033 c12 -2 32 -2 45 0 12 2 2 4 -23 4 -25 0 -35 -2 -22 -4z"/>
<path d="M8028 6033 c7 -3 16 -2 19 1 4 3 -2 6 -13 5 -11 0 -14 -3 -6 -6z"/>
<path d="M8135 6030 c-4 -6 13 -10 44 -10 28 0 51 5 51 10 0 6 -20 10 -44 10
-25 0 -48 -4 -51 -10z"/>
<path d="M8250 6030 c0 -5 5 -10 10 -10 6 0 10 5 10 10 0 6 -4 10 -10 10 -5 0
-10 -4 -10 -10z"/>
<path d="M8320 6024 c0 -8 5 -12 10 -9 6 4 8 11 5 16 -9 14 -15 11 -15 -7z"/>
<path d="M7524 6009 c-10 -13 -13 -19 -5 -14 10 6 11 2 6 -16 -7 -23 -7 -23
16 -7 25 16 32 49 13 55 -6 2 -19 -6 -30 -18z"/>
<path d="M8353 6010 c1 -13 6 -19 15 -15 8 3 20 1 27 -5 7 -6 20 -7 30 -4 16
6 15 9 -6 25 -33 26 -68 25 -66 -1z"/>
<path d="M8465 5981 c-3 -6 -3 -15 0 -21 9 -14 -8 -13 -23 2 -9 9 -15 9 -24 0
-8 -8 -3 -15 20 -29 18 -10 32 -24 32 -30 0 -7 5 -13 10 -13 6 0 10 7 10 15 0
8 8 15 18 15 30 0 92 21 92 30 0 6 -10 10 -23 10 -13 0 -27 4 -32 9 -16 15
-73 23 -80 12z m40 -41 c-3 -5 -10 -10 -16 -10 -5 0 -9 5 -9 10 0 6 7 10 16
10 8 0 12 -4 9 -10z"/>
<path d="M7750 5945 c0 -8 5 -15 11 -15 5 0 7 -4 4 -10 -3 -5 0 -10 8 -10 20
0 26 9 20 31 -6 22 -43 26 -43 4z"/>
<path d="M7830 5941 c-10 -19 -8 -21 15 -21 19 0 26 5 23 17 -5 25 -25 27 -38
4z"/>
<path d="M7890 5950 c0 -5 7 -10 15 -10 8 0 15 5 15 10 0 6 -7 10 -15 10 -8 0
-15 -4 -15 -10z"/>
<path d="M8376 5949 c-4 -9 -6 -20 -5 -25 5 -21 -22 -65 -38 -63 -52 5 -102
-19 -88 -41 6 -9 10 -9 16 1 6 10 9 6 9 -13 0 -30 19 -39 21 -10 0 10 3 12 6
4 2 -6 9 -10 14 -6 5 3 9 -1 9 -8 0 -10 3 -9 9 1 8 12 14 13 33 3 52 -27 88
-55 88 -69 0 -5 9 -16 20 -26 11 -9 20 -12 20 -7 0 6 8 10 17 10 14 0 14 3 5
12 -10 10 -15 10 -22 -2 -8 -13 -10 -13 -10 1 0 27 11 28 48 7 20 -11 51 -21
69 -21 33 -1 44 -11 21 -20 -7 -3 4 -3 25 0 24 4 37 2 37 -6 0 -6 8 -11 19
-11 10 0 24 -7 31 -15 7 -9 20 -13 28 -10 17 6 44 -13 36 -26 -3 -5 -2 -9 3
-8 22 4 35 -2 30 -15 -4 -10 -1 -13 7 -10 7 3 30 -4 51 -16 21 -12 45 -18 56
-15 10 4 19 2 19 -3 0 -6 17 -12 38 -15 20 -3 48 -8 62 -11 14 -4 0 5 -30 20
-56 27 -69 33 -130 55 -19 7 -42 18 -50 24 -24 20 -84 49 -94 47 -5 -2 -16 4
-25 12 -9 8 -36 19 -60 25 -24 5 -48 14 -54 20 -6 6 -20 11 -30 11 -10 0 -21
9 -24 19 -3 11 -11 17 -18 15 -8 -3 -18 4 -24 15 -15 27 -14 41 4 41 8 0 15 5
15 10 0 6 -6 10 -12 10 -19 -1 -48 -25 -48 -40 0 -9 -6 -7 -20 5 -27 24 -25
35 5 35 14 0 25 5 25 11 0 6 -7 9 -15 6 -8 -4 -17 -2 -20 3 -9 15 -25 12 -25
-5 0 -19 -14 -19 -30 0 -10 13 -10 19 5 35 10 11 25 20 34 21 10 0 7 4 -7 10
-13 5 -28 7 -32 4 -5 -3 -10 5 -13 17 -3 19 -5 20 -11 7z m21 -115 c-3 -3 -12
-4 -19 -1 -8 3 -5 6 6 6 11 1 17 -2 13 -5z"/>
<path d="M8632 5943 c-11 -11 -11 -17 -1 -29 9 -12 9 -18 0 -27 -9 -9 -19 -8
-42 5 -24 14 -34 15 -49 5 -34 -21 -25 -36 11 -17 19 11 24 4 20 -27 -1 -7 3
-13 9 -13 5 0 10 5 10 10 0 6 4 10 8 10 5 0 8 -10 8 -22 -1 -16 4 -23 17 -22
9 1 17 -2 17 -6 0 -4 20 -14 45 -21 25 -7 45 -16 45 -20 0 -3 11 -11 25 -17
21 -10 27 -9 32 3 3 9 2 19 -2 23 -4 4 -10 1 -12 -5 -3 -7 -9 -13 -14 -13 -12
0 -12 47 1 55 6 3 10 13 10 21 0 8 -4 14 -10 14 -5 0 -10 -8 -10 -17 0 -14 -3
-13 -23 5 -23 22 -57 30 -57 13 0 -5 11 -12 25 -15 24 -6 36 -36 14 -36 -27 0
-75 32 -76 50 -1 11 2 20 6 20 5 0 11 9 14 20 4 14 14 20 35 20 17 0 33 -5 35
-10 3 -6 4 -5 3 2 -1 6 -17 17 -35 23 -17 6 -35 15 -39 22 -5 7 -11 7 -20 -4z"/>
<path d="M7500 5929 c0 -6 6 -9 14 -6 8 3 16 1 19 -6 2 -6 6 -4 10 6 5 13 1
17 -18 17 -14 0 -25 -5 -25 -11z"/>
<path d="M7665 5919 c-4 -5 -18 -14 -31 -19 -22 -9 -34 -30 -16 -30 18 0 61
26 71 42 9 14 8 18 -3 18 -8 0 -18 -5 -21 -11z"/>
<path d="M7565 5910 c3 -5 8 -10 11 -10 2 0 4 5 4 10 0 6 -5 10 -11 10 -5 0
-7 -4 -4 -10z"/>
<path d="M7590 5890 c0 -20 -5 -30 -15 -30 -8 0 -15 -4 -15 -9 0 -6 9 -9 19
-8 15 1 20 10 23 39 2 21 0 38 -4 38 -5 0 -8 -13 -8 -30z"/>
<path d="M9410 5895 c0 -8 5 -15 10 -15 6 0 10 7 10 15 0 8 -4 15 -10 15 -5 0
-10 -7 -10 -15z"/>
<path d="M8767 5893 c-19 -5 -19 -24 1 -31 7 -2 12 4 12 13 0 11 5 15 15 11 8
-3 15 -1 15 4 0 10 -12 11 -43 3z"/>
<path d="M8796 5848 c-8 -32 -8 -38 5 -38 6 0 9 6 6 14 -3 8 -1 17 6 19 9 3 9
8 1 16 -9 9 -13 7 -18 -11z"/>
<path d="M7590 5814 c0 -8 5 -12 10 -9 6 4 8 11 5 16 -9 14 -15 11 -15 -7z"/>
<path d="M8560 5820 c0 -5 5 -10 10 -10 6 0 10 5 10 10 0 6 -4 10 -10 10 -5 0
-10 -4 -10 -10z"/>
<path d="M7524 5785 c3 -9 6 -19 6 -21 0 -9 39 -3 45 7 9 13 7 15 -29 23 -24
6 -27 4 -22 -9z"/>
<path d="M7946 5781 c5 -5 29 -12 54 -15 42 -6 44 -6 26 9 -21 16 -97 22 -80
6z"/>
<path d="M8580 5780 c0 -5 4 -10 9 -10 6 0 13 5 16 10 3 6 -1 10 -9 10 -9 0
-16 -4 -16 -10z"/>
<path d="M9018 5783 c7 -3 16 -2 19 1 4 3 -2 6 -13 5 -11 0 -14 -3 -6 -6z"/>
<path d="M8245 5770 c-3 -5 -1 -10 4 -10 6 0 11 5 11 10 0 6 -2 10 -4 10 -3 0
-8 -4 -11 -10z"/>
<path d="M9517 5773 c-4 -3 -7 -11 -7 -17 0 -6 5 -5 12 2 6 6 9 14 7 17 -3 3
-9 2 -12 -2z"/>
<path d="M8075 5760 c3 -5 8 -10 11 -10 2 0 4 5 4 10 0 6 -5 10 -11 10 -5 0
-7 -4 -4 -10z"/>
<path d="M7480 5753 c1 -15 30 -47 45 -49 8 -1 22 -9 31 -18 20 -20 41 -22 25
-2 -19 23 5 29 41 12 24 -13 33 -13 39 -4 5 7 25 11 53 9 30 -1 46 2 46 9 0 7
8 9 20 5 11 -3 20 -2 20 2 0 5 -33 9 -72 8 -50 0 -84 5 -107 18 -20 10 -39 13
-45 8 -22 -16 -56 -20 -56 -5 0 8 -9 14 -20 14 -11 0 -20 -3 -20 -7z"/>
<path d="M7950 5753 c0 -13 29 -38 35 -31 3 3 -4 13 -15 23 -11 10 -20 13 -20
8z"/>
<path d="M7435 5730 c3 -5 10 -10 16 -10 5 0 9 5 9 10 0 6 -7 10 -16 10 -8 0
-12 -4 -9 -10z"/>
<path d="M7870 5729 c0 -5 5 -7 10 -4 6 3 10 8 10 11 0 2 -4 4 -10 4 -5 0 -10
-5 -10 -11z"/>
<path d="M8330 5730 c0 -5 7 -10 16 -10 8 0 12 5 9 10 -3 6 -10 10 -16 10 -5
0 -9 -4 -9 -10z"/>
<path d="M9485 5721 c-6 -11 9 -23 19 -14 9 9 7 23 -3 23 -6 0 -12 -4 -16 -9z"/>
<path d="M8027 5703 c-15 -14 -6 -23 22 -23 37 0 49 16 18 24 -28 7 -32 7 -40
-1z"/>
<path d="M8100 5683 c0 -16 38 -31 72 -28 19 2 48 -3 64 -10 16 -7 37 -16 47
-19 11 -3 21 -14 23 -24 4 -12 17 -18 52 -20 26 -2 51 -7 57 -13 5 -5 15 -9
23 -9 8 0 21 -8 28 -17 12 -17 13 -17 20 1 5 12 3 21 -4 24 -7 2 -12 11 -12
20 0 12 -3 13 -12 4 -8 -8 -17 -6 -36 8 -14 11 -34 20 -45 20 -11 0 -38 8 -61
19 -77 35 -216 64 -216 44z"/>
<path d="M8515 5680 c-3 -5 1 -10 9 -10 9 0 16 5 16 10 0 6 -4 10 -9 10 -6 0
-13 -4 -16 -10z"/>
<path d="M8480 5640 c0 -13 20 -13 40 0 12 8 9 10 -12 10 -16 0 -28 -4 -28
-10z"/>
<path d="M8625 5640 c3 -5 8 -10 11 -10 2 0 4 5 4 10 0 6 -5 10 -11 10 -5 0
-7 -4 -4 -10z"/>
<path d="M8220 5620 c0 -6 -17 -8 -40 -5 -22 3 -40 1 -40 -3 0 -11 128 -24
143 -15 5 3 -5 12 -23 19 -39 17 -40 17 -40 4z"/>
<path d="M8574 5615 c8 -8 21 -15 28 -15 8 1 6 6 -6 15 -26 20 -42 19 -22 0z"/>
<path d="M7651 5584 c0 -11 3 -14 6 -6 3 7 2 16 -1 19 -3 4 -6 -2 -5 -13z"/>
<path d="M8740 5590 c0 -5 5 -10 10 -10 6 0 10 5 10 10 0 6 -4 10 -10 10 -5 0
-10 -4 -10 -10z"/>
<path d="M8170 5580 c0 -5 7 -10 15 -10 8 0 15 5 15 10 0 6 -7 10 -15 10 -8 0
-15 -4 -15 -10z"/>
<path d="M8784 5565 c-4 -11 -15 -25 -23 -32 -14 -11 -13 -12 7 -13 13 0 22 6
22 16 0 8 5 12 10 9 12 -8 13 5 0 25 -7 12 -10 11 -16 -5z"/>
<path d="M8350 5554 c0 -8 5 -12 10 -9 6 4 8 11 5 16 -9 14 -15 11 -15 -7z"/>
<path d="M8835 5533 c-17 -25 -17 -26 4 -20 14 3 21 0 21 -9 0 -8 8 -14 18
-14 18 0 50 17 42 22 -3 2 -19 13 -37 25 l-31 22 -17 -26z"/>
<path d="M8392 5534 c-7 -8 -8 -14 -3 -14 10 0 25 19 20 25 -2 1 -10 -3 -17
-11z"/>
<path d="M8170 5530 c0 -5 7 -10 16 -10 8 0 12 5 9 10 -3 6 -10 10 -16 10 -5
0 -9 -4 -9 -10z"/>
<path d="M8640 5530 c0 -5 5 -10 10 -10 6 0 10 5 10 10 0 6 -4 10 -10 10 -5 0
-10 -4 -10 -10z"/>
<path d="M7686 5523 c5 -5 12 -12 16 -18 4 -6 8 -2 8 8 0 9 -7 17 -17 17 -9 0
-12 -3 -7 -7z"/>
<path d="M8418 5516 c-10 -7 -18 -19 -18 -27 1 -10 4 -9 11 4 13 22 21 22 48
-2 13 -11 29 -17 37 -14 7 3 27 0 44 -5 21 -8 30 -8 30 0 0 7 5 6 15 -2 12
-10 15 -10 15 1 0 11 -34 32 -92 57 -5 2 -8 -6 -8 -17 0 -27 -16 -27 -32 -1
-15 23 -26 25 -50 6z"/>
<path d="M8080 5510 c0 -5 4 -10 9 -10 6 0 13 5 16 10 3 6 -1 10 -9 10 -9 0
-16 -4 -16 -10z"/>
<path d="M8950 5505 c0 -8 2 -15 4 -15 2 0 6 7 10 15 3 8 1 15 -4 15 -6 0 -10
-7 -10 -15z"/>
<path d="M8742 5491 c-17 -10 1 -25 41 -35 22 -5 28 -4 24 6 -2 7 -10 12 -17
10 -7 -1 -17 4 -24 12 -7 10 -16 12 -24 7z"/>
<path d="M7900 5479 c0 -5 5 -7 10 -4 6 3 10 8 10 11 0 2 -4 4 -10 4 -5 0 -10
-5 -10 -11z"/>
<path d="M9122 5469 c25 -44 58 -66 58 -39 0 6 -7 10 -16 10 -11 0 -15 6 -11
20 3 11 1 20 -3 20 -5 0 -16 3 -25 6 -15 6 -16 4 -3 -17z"/>
<path d="M7300 5474 c0 -3 4 -14 10 -24 9 -17 5 -18 -47 -18 -34 0 -59 -4 -61
-11 -2 -6 -17 -11 -33 -11 -18 0 -29 -5 -29 -14 0 -9 -12 -13 -37 -12 -21 1
-44 -5 -51 -12 -8 -6 -18 -10 -23 -7 -17 11 -50 -15 -44 -36 5 -14 0 -21 -21
-29 l-27 -11 22 -22 c11 -13 21 -28 21 -33 0 -5 12 -15 28 -21 15 -7 43 -21
62 -32 67 -38 115 -54 155 -52 l39 2 -29 -27 c-20 -18 -25 -29 -17 -32 10 -3
10 -7 1 -18 -6 -8 -15 -12 -19 -9 -4 3 -13 -2 -20 -10 -7 -8 -21 -15 -32 -15
-30 0 -155 -88 -179 -126 -12 -19 -19 -38 -15 -41 3 -4 6 -1 6 5 0 7 6 12 14
12 16 0 33 15 56 50 27 41 53 60 81 60 15 0 31 -4 34 -10 3 -5 2 -10 -4 -10
-5 0 -45 -34 -88 -75 -43 -41 -86 -75 -95 -75 -9 0 -20 -5 -24 -12 -5 -7 -2
-9 9 -5 9 3 17 2 19 -4 2 -5 21 0 43 11 47 24 55 25 55 5 0 -8 7 -15 15 -15 8
0 17 -11 21 -25 3 -14 12 -25 20 -25 8 0 20 -15 28 -34 14 -34 50 -62 74 -58
6 2 12 -4 12 -13 0 -11 -6 -14 -25 -9 -19 5 -25 2 -25 -10 0 -12 -6 -15 -24
-10 -15 3 -29 -1 -40 -11 -24 -24 -20 -36 12 -30 l27 5 -27 -11 c-30 -12 -34
-25 -15 -50 8 -11 18 -14 32 -8 32 12 40 10 19 -6 -18 -14 -18 -14 11 -17 17
-1 42 -1 56 0 16 1 29 -4 33 -14 3 -8 11 -12 17 -8 7 4 10 1 7 -7 -3 -8 -11
-14 -19 -15 -8 0 -22 -2 -31 -2 -10 -1 -18 -9 -18 -18 0 -12 4 -14 13 -7 18
15 58 -9 47 -27 -7 -12 -12 -12 -22 -2 -6 6 -20 12 -30 12 -10 0 -23 10 -28
23 l-9 22 0 -22 c-1 -12 4 -25 9 -28 6 -3 10 -13 10 -21 0 -10 -7 -13 -25 -8
-20 5 -25 3 -25 -14 0 -18 -3 -19 -25 -9 -30 14 -32 27 -5 34 11 3 20 12 20
19 0 8 -9 14 -20 14 -11 0 -20 5 -20 11 0 5 -5 7 -11 3 -8 -5 -8 -8 0 -14 18
-11 -62 -62 -84 -54 -13 6 -16 4 -10 -5 4 -7 3 -16 -2 -20 -6 -3 -17 -19 -26
-36 l-16 -30 -1 33 c0 17 -4 32 -8 32 -5 0 -7 -13 -4 -30 3 -24 1 -30 -14 -30
-24 1 -54 23 -54 41 0 10 -2 11 -12 0 -7 -6 -13 -26 -13 -44 0 -35 -10 -38
-70 -23 -30 7 -30 7 -7 -9 23 -17 29 -41 12 -47 -11 -4 -1 -48 11 -48 5 0 9 7
9 15 0 9 9 15 24 15 13 0 26 6 29 13 2 6 8 8 13 4 8 -7 -4 -19 -31 -31 -6 -3
-3 -9 5 -15 12 -9 11 -11 -9 -9 -13 2 -26 -3 -28 -9 -3 -7 2 -13 10 -13 8 0
18 -7 21 -16 4 -11 2 -15 -8 -11 -10 4 -13 1 -9 -9 3 -7 11 -14 19 -14 8 0 14
-4 14 -8 0 -5 -15 -7 -32 -5 l-33 4 25 -20 c14 -12 32 -27 40 -33 17 -15 44
-12 79 10 14 9 23 12 18 7 -4 -5 2 -19 14 -31 21 -22 21 -24 5 -49 -17 -26
-17 -27 3 -32 24 -6 26 -15 10 -45 -10 -19 -9 -20 14 -14 20 5 27 2 32 -15 9
-26 52 -23 47 4 -2 10 3 17 13 17 8 0 15 5 15 10 0 7 6 7 20 0 11 -6 20 -16
19 -23 0 -9 -2 -9 -6 1 -10 26 -33 12 -33 -20 0 -25 3 -29 10 -18 11 17 8 -15
-5 -63 -10 -37 7 -56 30 -33 9 9 23 16 31 16 8 0 14 6 14 13 0 9 3 8 9 -2 5
-7 14 -10 20 -7 16 10 14 26 -4 26 -17 0 -19 9 -6 29 5 7 11 9 14 4 4 -6 20
-10 37 -11 42 -1 34 22 -8 26 -29 3 -46 20 -22 23 20 3 25 4 37 12 6 4 13 2
15 -5 3 -8 7 -6 11 5 5 14 1 17 -23 17 -17 0 -30 5 -30 10 0 6 9 10 20 10 11
0 20 5 20 10 0 15 40 52 41 38 0 -7 4 -3 9 10 5 12 15 22 21 22 7 0 9 10 7 25
-3 14 1 33 8 42 12 17 13 17 19 0 4 -9 2 -24 -5 -32 -6 -8 -9 -23 -5 -35 5
-16 2 -20 -16 -20 -18 0 -19 -2 -9 -15 11 -14 14 -13 25 1 8 11 21 15 39 12
17 -4 25 -1 23 6 -2 6 -14 11 -26 10 -32 -1 -26 9 21 31 29 14 42 27 43 43 1
13 -2 25 -7 28 -11 7 -10 24 2 24 6 0 19 -9 30 -20 14 -14 20 -16 20 -7 0 8
-9 22 -20 32 -15 14 -18 21 -9 29 8 8 13 7 16 -1 9 -24 23 -13 23 16 0 16 7
34 15 41 8 7 15 21 15 31 0 10 4 20 10 24 5 3 7 12 4 20 -4 8 1 18 10 21 9 3
16 17 16 30 0 13 5 23 11 21 6 -1 14 4 16 11 8 20 -15 13 -32 -10 -12 -18 -19
-21 -33 -12 -19 13 -25 54 -8 54 7 0 18 -6 24 -12 10 -10 15 -10 21 1 5 8 7
20 4 28 -5 12 37 18 105 16 6 -1 12 8 12 18 0 11 7 19 18 20 22 1 64 8 80 14
6 2 12 16 12 30 0 14 5 25 10 25 16 0 70 52 70 67 0 7 9 13 19 13 14 0 18 5
14 20 -4 16 0 20 17 20 19 0 21 -4 16 -25 -5 -18 -2 -27 9 -31 9 -4 15 -14 14
-23 -3 -33 1 -51 12 -51 8 0 9 11 5 31 -5 28 -4 30 10 18 13 -10 17 -10 24 2
8 11 12 11 22 1 10 -10 10 -15 -2 -22 -8 -5 -11 -12 -7 -17 5 -4 12 -1 17 7 7
11 11 11 24 1 8 -7 20 -10 26 -6 17 10 11 25 -10 25 -22 0 -28 26 -7 33 9 3 9
7 -2 20 -11 14 -11 18 3 23 24 9 20 23 -9 30 -35 9 -31 24 5 24 32 0 40 14 14
24 -12 4 -15 15 -12 37 4 27 2 30 -16 25 -12 -3 -27 -6 -34 -6 -10 0 -10 -5
-1 -21 6 -12 7 -19 2 -16 -5 3 -21 0 -36 -8 -33 -17 -35 -10 -4 16 13 11 18
22 12 26 -5 5 -11 25 -13 46 -2 32 0 37 18 37 12 0 18 5 15 10 -4 6 -10 8 -15
5 -7 -4 -21 24 -24 50 -1 6 -5 16 -9 23 -5 8 3 28 22 54 31 42 37 75 21 113
-5 13 -3 26 7 37 13 14 13 21 -3 54 -10 20 -26 39 -36 42 -20 5 -25 23 -5 20
7 -2 13 10 15 30 2 18 -1 32 -7 32 -6 0 -12 -10 -12 -22 -1 -18 -2 -19 -6 -5
-4 14 -8 16 -19 6 -11 -9 -14 -7 -14 13 0 13 6 30 12 36 10 10 1 12 -44 10
-32 -1 -60 0 -63 3 -10 11 14 59 30 59 8 0 15 5 15 10 0 6 -8 10 -18 10 -10 0
-23 5 -30 12 -8 8 -14 5 -22 -17 l-11 -28 -22 21 c-22 21 -67 23 -109 7 -14
-6 -18 -2 -18 16 0 34 -12 50 -30 39 -13 -8 -12 -10 3 -10 9 0 17 -4 17 -9 0
-5 -19 -8 -42 -6 -24 2 -53 4 -65 4 -13 1 -23 7 -23 16 0 22 -18 18 -25 -6 -4
-12 -12 -18 -21 -15 -7 3 -16 1 -19 -4 -4 -6 -16 -3 -31 6 -13 9 -34 14 -45
11 -15 -4 -30 3 -51 24 -26 26 -58 39 -58 23z m650 -204 c0 -5 -2 -10 -4 -10
-3 0 -8 5 -11 10 -3 6 -1 10 4 10 6 0 11 -4 11 -10z m-600 -400 c0 -5 -7 -10
-16 -10 -8 0 -12 5 -9 10 3 6 10 10 16 10 5 0 9 -4 9 -10z m-132 -42 c7 -7 12
-23 12 -36 0 -20 -4 -22 -22 -16 -27 8 -60 43 -52 55 8 13 48 11 62 -3z m2
-142 c0 -3 -4 -8 -10 -11 -5 -3 -10 -1 -10 4 0 6 5 11 10 11 6 0 10 -2 10 -4z
m100 -36 c0 -5 -5 -10 -11 -10 -5 0 -7 5 -4 10 3 6 8 10 11 10 2 0 4 -4 4 -10z
m70 -4 c0 -2 -7 -7 -16 -10 -8 -3 -12 -2 -9 4 6 10 25 14 25 6z m605 -16 c-3
-5 -10 -10 -16 -10 -5 0 -9 5 -9 10 0 6 7 10 16 10 8 0 12 -4 9 -10z m95 -85
c0 -5 -5 -3 -10 5 -5 8 -10 20 -10 25 0 6 5 3 10 -5 5 -8 10 -19 10 -25z
m-845 15 c-3 -5 -11 -10 -16 -10 -6 0 -7 5 -4 10 3 6 11 10 16 10 6 0 7 -4 4
-10z m44 -236 c2 -2 -10 -4 -27 -4 -18 0 -32 5 -32 10 0 9 47 4 59 -6z m204
-26 c-3 -13 -10 -29 -16 -36 -5 -7 -7 -16 -3 -19 4 -4 12 -1 17 7 8 12 9 9 7
-10 -2 -20 -8 -25 -28 -24 -14 1 -33 4 -42 9 -14 5 -18 2 -18 -14 0 -12 -4
-21 -9 -21 -5 0 -8 12 -7 28 2 18 14 35 37 50 19 13 38 30 42 38 12 22 26 16
20 -8z m-128 -18 c3 -5 2 -10 -4 -10 -5 0 -13 5 -16 10 -3 6 -2 10 4 10 5 0
13 -4 16 -10z m178 -53 c-7 -11 -17 6 -28 43 -6 24 -5 23 14 -4 11 -17 17 -34
14 -39z m-494 24 c-3 -6 -10 -7 -18 -2 -7 5 -10 14 -6 21 9 14 29 -2 24 -19z
m276 -26 c-21 -17 -37 -15 -43 3 -2 8 8 12 30 12 31 -1 32 -1 13 -15z m-320
-5 c3 -5 1 -10 -4 -10 -6 0 -11 5 -11 10 0 6 2 10 4 10 3 0 8 -4 11 -10z m65
-20 c13 -8 13 -10 -2 -10 -9 0 -20 5 -23 10 -8 13 5 13 25 0z m295 -9 c-4 -14
2 -22 25 -32 37 -17 39 -29 3 -27 -32 2 -55 16 -48 28 3 5 1 11 -5 15 -15 10
-12 23 8 28 9 3 18 5 20 6 2 0 1 -8 -3 -18z m-185 -1 c0 -5 -5 -10 -11 -10 -5
0 -7 5 -4 10 3 6 8 10 11 10 2 0 4 -4 4 -10z m80 -15 c0 -8 -4 -15 -10 -15 -5
0 -10 7 -10 15 0 8 5 15 10 15 6 0 10 -7 10 -15z m210 -10 c0 -3 -9 -5 -20 -5
-11 0 -20 7 -20 15 0 13 4 14 20 5 11 -6 20 -13 20 -15z m80 5 c0 -5 -5 -10
-11 -10 -5 0 -7 5 -4 10 3 6 8 10 11 10 2 0 4 -4 4 -10z m-475 -10 c-3 -5 -11
-10 -16 -10 -6 0 -7 5 -4 10 3 6 11 10 16 10 6 0 7 -4 4 -10z m126 -33 c-8 -8
-11 -6 -11 9 0 14 -2 16 -9 6 -5 -8 -17 -12 -27 -10 -15 2 -11 7 16 20 31 15
35 16 38 2 2 -9 -1 -21 -7 -27z m119 29 c0 -18 -27 -39 -40 -31 -14 9 -13 32
3 38 23 10 37 7 37 -7z m-283 -18 c-3 -8 -6 -5 -6 6 -1 11 2 17 5 13 3 -3 4
-12 1 -19z m221 -16 c2 -7 -3 -12 -12 -12 -9 0 -16 7 -16 16 0 17 22 14 28 -4z
m-312 -6 c18 -14 18 -16 2 -32 -20 -20 -38 -11 -38 22 0 28 8 30 36 10z m394
-5 c0 -5 -7 -16 -15 -24 -11 -12 -12 -17 -2 -20 7 -4 6 -6 -4 -6 -22 -1 -33
28 -18 45 13 16 39 19 39 5z m-458 -23 c-7 -7 -12 -8 -12 -2 0 14 12 26 19 19
2 -3 -1 -11 -7 -17z m308 -4 c0 -8 -10 -14 -24 -14 -19 0 -23 4 -19 19 6 22
43 17 43 -5z m207 20 c-3 -3 -12 -4 -19 -1 -8 3 -5 6 6 6 11 1 17 -2 13 -5z
m-147 -25 c0 -5 -11 -9 -25 -9 -33 0 -33 15 0 16 14 1 25 -2 25 -7z m-143 -21
c-3 -8 -6 -5 -6 6 -1 11 2 17 5 13 3 -3 4 -12 1 -19z m-67 2 c0 -5 -2 -10 -4
-10 -3 0 -8 5 -11 10 -3 6 -1 10 4 10 6 0 11 -4 11 -10z m-100 -25 c0 -8 -7
-15 -15 -15 -26 0 -18 20 13 29 1 1 2 -6 2 -14z m35 5 c3 -5 1 -10 -4 -10 -6
0 -11 5 -11 10 0 6 2 10 4 10 3 0 8 -4 11 -10z m455 -5 c0 -8 -4 -15 -10 -15
-5 0 -10 7 -10 15 0 8 5 15 10 15 6 0 10 -7 10 -15z m-125 -5 c-3 -5 -12 -7
-20 -3 -21 7 -19 13 6 13 11 0 18 -4 14 -10z m50 0 c-3 -5 -10 -10 -16 -10 -5
0 -9 5 -9 10 0 6 7 10 16 10 8 0 12 -4 9 -10z m-85 -20 c0 -5 8 -10 18 -10 13
0 14 -2 4 -9 -8 -5 -24 -4 -37 3 -16 7 -20 13 -12 18 17 11 27 10 27 -2z m-83
-60 c-2 -29 -17 -24 -17 6 0 14 4 23 9 19 6 -3 9 -14 8 -25z m127 9 c-3 -5
-10 -7 -15 -3 -5 3 -7 10 -3 15 3 5 10 7 15 3 5 -3 7 -10 3 -15z m-205 -38 c7
-5 9 -11 5 -14 -5 -3 -15 1 -22 9 -14 16 -5 18 17 5z m-18 -54 c-1 -4 -3 -6
-4 -4 -2 1 -11 -4 -19 -11 -17 -13 -52 -6 -42 9 3 5 9 7 13 5 4 -3 13 -1 21 4
16 10 32 9 31 -3z m86 -49 c-3 -8 -6 -5 -6 6 -1 11 2 17 5 13 3 -3 4 -12 1
-19z m20 -40 c-3 -8 -6 -5 -6 6 -1 11 2 17 5 13 3 -3 4 -12 1 -19z"/>
<path d="M8610 5460 c0 -5 5 -10 10 -10 6 0 10 5 10 10 0 6 -4 10 -10 10 -5 0
-10 -4 -10 -10z"/>
<path d="M9170 5460 c0 -5 5 -10 10 -10 6 0 10 5 10 10 0 6 -4 10 -10 10 -5 0
-10 -4 -10 -10z"/>
<path d="M7375 5450 c3 -5 8 -10 11 -10 2 0 4 5 4 10 0 6 -5 10 -11 10 -5 0
-7 -4 -4 -10z"/>
<path d="M8480 5441 c0 -11 -4 -23 -10 -26 -12 -8 -13 -25 -1 -25 13 0 32 58
20 65 -5 4 -9 -3 -9 -14z"/>
<path d="M8658 5443 c6 -2 18 -2 25 0 6 3 1 5 -13 5 -14 0 -19 -2 -12 -5z"/>
<path d="M7858 5433 c7 -3 16 -2 19 1 4 3 -2 6 -13 5 -11 0 -14 -3 -6 -6z"/>
<path d="M8551 5424 c0 -11 3 -14 6 -6 3 7 2 16 -1 19 -3 4 -6 -2 -5 -13z"/>
<path d="M9290 5425 c0 -8 2 -15 4 -15 2 0 6 7 10 15 3 8 1 15 -4 15 -6 0 -10
-7 -10 -15z"/>
<path d="M9180 5401 c0 -5 7 -11 15 -15 9 -3 15 0 15 9 0 8 -7 15 -15 15 -8 0
-15 -4 -15 -9z"/>
<path d="M9345 5400 c-3 -5 -1 -10 4 -10 6 0 11 5 11 10 0 6 -2 10 -4 10 -3 0
-8 -4 -11 -10z"/>
<path d="M8496 5381 c-4 -7 -5 -15 -2 -18 9 -9 19 4 14 18 -4 11 -6 11 -12 0z"/>
<path d="M9120 5376 c0 -10 9 -16 21 -16 24 0 21 23 -4 28 -10 2 -17 -3 -17
-12z"/>
<path d="M8440 5355 c-7 -9 -9 -22 -4 -32 6 -15 8 -13 12 10 2 20 8 27 18 23
9 -3 12 -1 9 4 -9 14 -21 12 -35 -5z"/>
<path d="M9270 5359 c0 -5 5 -7 10 -4 6 3 10 8 10 11 0 2 -4 4 -10 4 -5 0 -10
-5 -10 -11z"/>
<path d="M8176 5345 c4 -8 8 -15 10 -15 2 0 4 7 4 15 0 8 -4 15 -10 15 -5 0
-7 -7 -4 -15z"/>
<path d="M9115 5340 c-3 -5 -1 -10 4 -10 6 0 11 5 11 10 0 6 -2 10 -4 10 -3 0
-8 -4 -11 -10z"/>
<path d="M9180 5311 c0 -6 5 -13 10 -16 6 -3 10 1 10 9 0 9 -4 16 -10 16 -5 0
-10 -4 -10 -9z"/>
<path d="M9010 5295 c7 -8 27 -15 44 -15 18 0 37 -5 44 -12 9 -9 12 -9 12 0 0
6 -12 14 -27 18 -16 3 -38 10 -51 15 -32 13 -36 11 -22 -6z"/>
<path d="M9140 5250 c0 -5 7 -10 16 -10 8 0 12 5 9 10 -3 6 -10 10 -16 10 -5
0 -9 -4 -9 -10z"/>
<path d="M9240 5230 c0 -6 7 -13 15 -17 24 -9 27 1 5 15 -13 8 -20 8 -20 2z"/>
<path d="M8144 5193 c-3 -10 -10 -28 -15 -40 -14 -36 7 -27 25 11 19 40 20 46
6 46 -6 0 -13 -8 -16 -17z"/>
<path d="M9299 5135 c-1 -3 -2 -9 -3 -14 -2 -18 -13 -21 -25 -7 -7 8 -19 12
-27 9 -12 -5 -11 -10 7 -29 17 -18 25 -21 31 -12 6 10 8 10 8 1 0 -7 7 -13 15
-13 10 0 15 11 15 35 0 19 -4 35 -10 35 -5 0 -11 -2 -11 -5z"/>
<path d="M8116 5104 c-4 -10 -1 -14 6 -12 15 5 23 28 10 28 -5 0 -13 -7 -16
-16z"/>
<path d="M7170 5090 c0 -6 7 -10 15 -10 8 0 15 2 15 4 0 2 -7 6 -15 10 -8 3
-15 1 -15 -4z"/>
<path d="M8106 5051 c-3 -5 3 -11 13 -14 14 -3 18 -1 14 9 -6 16 -19 18 -27 5z"/>
<path d="M8036 4913 c-12 -12 -6 -33 9 -33 8 0 15 6 15 14 0 17 -14 28 -24 19z"/>
<path d="M6770 4750 c0 -5 5 -10 10 -10 6 0 10 5 10 10 0 6 -4 10 -10 10 -5 0
-10 -4 -10 -10z"/>
<path d="M8060 4750 c0 -12 8 -12 35 0 18 8 17 9 -7 9 -16 1 -28 -3 -28 -9z"/>
<path d="M6800 4730 c0 -5 5 -10 11 -10 5 0 7 5 4 10 -3 6 -8 10 -11 10 -2 0
-4 -4 -4 -10z"/>
<path d="M6762 4639 c3 -19 0 -42 -6 -52 -9 -14 -8 -20 4 -27 8 -5 20 -9 25
-9 6 0 4 3 -2 6 -7 2 -13 9 -13 15 0 6 7 8 15 4 10 -4 15 1 15 14 0 11 -4 20
-9 20 -6 0 -9 12 -8 26 1 15 -4 29 -12 32 -10 3 -12 -3 -9 -29z"/>
<path d="M6800 4648 c0 -4 4 -18 10 -33 8 -22 13 -24 31 -15 24 13 20 36 -6
32 -10 -2 -22 2 -26 10 -5 7 -9 10 -9 6z"/>
<path d="M8160 4634 c0 -3 5 -14 10 -25 7 -13 7 -25 0 -38 -6 -12 -6 -22 -1
-25 5 -3 7 -15 4 -26 -3 -12 0 -20 7 -20 9 0 11 10 7 30 -5 22 -3 30 8 30 8 0
15 -6 16 -12 0 -7 5 -3 11 10 13 27 4 40 -17 22 -13 -10 -15 -9 -15 8 0 27
-10 52 -21 52 -5 0 -9 -3 -9 -6z"/>
<path d="M8247 4599 c6 -6 9 -18 6 -26 -4 -11 0 -14 13 -11 27 5 23 29 -6 40
-19 7 -22 6 -13 -3z"/>
<path d="M6855 4576 c-17 -12 -14 -36 4 -36 8 0 23 41 17 47 -1 2 -11 -3 -21
-11z"/>
<path d="M7040 4560 c0 -5 5 -10 10 -10 6 0 10 5 10 10 0 6 -4 10 -10 10 -5 0
-10 -4 -10 -10z"/>
<path d="M6815 4519 c-4 -12 -2 -26 4 -32 8 -8 11 -2 11 21 0 37 -6 41 -15 11z"/>
<path d="M6747 4523 c-12 -11 -8 -21 12 -26 14 -3 18 -11 14 -26 -3 -13 -1
-21 7 -21 6 0 10 6 7 13 -2 6 0 20 5 29 6 14 5 16 -7 12 -10 -4 -15 0 -15 10
0 16 -12 21 -23 9z"/>
<path d="M7060 4510 c0 -5 7 -10 16 -10 8 0 12 5 9 10 -3 6 -10 10 -16 10 -5
0 -9 -4 -9 -10z"/>
<path d="M8105 4460 c-3 -5 -1 -10 4 -10 6 0 11 5 11 10 0 6 -2 10 -4 10 -3 0
-8 -4 -11 -10z"/>
<path d="M8175 4460 c-3 -5 -1 -10 4 -10 6 0 11 5 11 10 0 6 -2 10 -4 10 -3 0
-8 -4 -11 -10z"/>
<path d="M6880 4445 c0 -8 -4 -15 -10 -15 -5 0 -10 -6 -10 -14 0 -7 -7 -19
-15 -26 -21 -17 -19 -23 10 -37 27 -12 33 -5 13 16 -11 10 -10 14 4 22 9 5 15
16 12 23 -3 8 -1 17 5 21 14 8 14 25 1 25 -5 0 -10 -7 -10 -15z"/>
<path d="M6980 4450 c0 -5 5 -10 10 -10 6 0 10 5 10 10 0 6 -4 10 -10 10 -5 0
-10 -4 -10 -10z"/>
<path d="M6778 4394 c9 -7 19 -9 22 -6 3 4 9 10 13 13 4 3 -6 6 -23 6 -26 0
-27 -2 -12 -13z"/>
<path d="M7030 4400 c8 -5 20 -10 25 -10 6 0 3 5 -5 10 -8 5 -19 10 -25 10 -5
0 -3 -5 5 -10z"/>
<path d="M6772 4363 c-27 -5 -24 -28 4 -28 27 0 34 -14 22 -44 l-9 -26 26 25
c18 17 22 26 13 30 -7 3 -13 14 -13 24 0 21 -9 25 -43 19z"/>
<path d="M6897 4350 c3 -11 7 -20 9 -20 2 0 4 9 4 20 0 11 -4 20 -9 20 -5 0
-7 -9 -4 -20z"/>
<path d="M7640 4340 c0 -5 5 -10 11 -10 5 0 7 5 4 10 -3 6 -8 10 -11 10 -2 0
-4 -4 -4 -10z"/>
<path d="M8317 4167 c-3 -8 3 -14 16 -15 12 0 17 2 12 6 -6 4 -13 11 -16 15
-4 4 -9 2 -12 -6z"/>
<path d="M6755 4110 c-3 -5 -1 -10 4 -10 6 0 11 5 11 10 0 6 -2 10 -4 10 -3 0
-8 -4 -11 -10z"/>
<path d="M8140 4110 c0 -5 5 -10 10 -10 6 0 10 5 10 10 0 6 -4 10 -10 10 -5 0
-10 -4 -10 -10z"/>
<path d="M8325 4094 c-9 -9 -14 -23 -11 -31 3 -8 6 -17 6 -19 0 -2 11 -4 25
-4 14 0 28 -7 31 -15 4 -8 15 -15 25 -15 25 0 24 16 -1 23 -14 3 -20 14 -20
31 0 26 -13 35 -25 16 -3 -5 -10 -10 -16 -10 -5 0 -9 5 -9 10 0 6 7 10 15 10
8 0 15 5 15 10 0 15 -17 12 -35 -6z"/>
<path d="M8205 4079 c5 -14 1 -25 -10 -33 -17 -12 -17 -13 -1 -19 11 -4 19 -1
23 11 11 29 29 42 41 30 6 -6 16 -7 22 -3 8 5 1 12 -20 21 -47 20 -63 18 -55
-7z"/>
<path d="M8117 4073 c-14 -13 -6 -23 17 -21 19 2 22 5 14 15 -12 14 -21 16
-31 6z"/>
<path d="M6770 4050 c0 -5 5 -10 10 -10 6 0 10 5 10 10 0 6 -4 10 -10 10 -5 0
-10 -4 -10 -10z"/>
<path d="M8085 4020 c3 -5 8 -10 11 -10 2 0 4 5 4 10 0 6 -5 10 -11 10 -5 0
-7 -4 -4 -10z"/>
<path d="M8196 3995 c4 -8 10 -12 15 -9 14 8 10 24 -6 24 -9 0 -12 -6 -9 -15z"/>
<path d="M6780 3993 c-1 -5 -3 -25 -6 -45 -4 -29 -2 -38 8 -38 11 0 13 9 10
32 -5 30 -3 32 12 19 22 -19 31 -8 14 18 -12 20 -38 29 -38 14z"/>
<path d="M8170 3991 c0 -6 4 -13 10 -16 6 -3 7 1 4 9 -7 18 -14 21 -14 7z"/>
<path d="M8320 3970 c0 -5 5 -10 10 -10 6 0 10 5 10 10 0 6 -4 10 -10 10 -5 0
-10 -4 -10 -10z"/>
<path d="M6930 3961 c0 -8 -6 -11 -16 -7 -10 4 -14 1 -12 -6 6 -16 20 -19 38
-8 12 7 12 12 2 22 -9 9 -12 9 -12 -1z"/>
<path d="M8227 3918 c9 -21 20 -38 25 -38 11 0 10 8 -2 23 -6 7 -17 21 -26 32
-10 15 -10 10 3 -17z"/>
<path d="M8186 3932 c-3 -6 -1 -14 5 -17 14 -9 20 -2 10 14 -6 8 -11 9 -15 3z"/>
<path d="M8117 3923 c-4 -3 -7 -11 -7 -17 0 -6 5 -5 12 2 6 6 9 14 7 17 -3 3
-9 2 -12 -2z"/>
<path d="M7650 3894 c-14 -36 -12 -64 4 -64 7 0 16 9 19 20 3 13 11 18 20 14
9 -3 16 3 20 17 8 30 1 39 -29 39 -17 0 -27 -8 -34 -26z"/>
<path d="M8018 3913 c7 -3 16 -2 19 1 4 3 -2 6 -13 5 -11 0 -14 -3 -6 -6z"/>
<path d="M8063 3893 c-18 -7 -16 -23 2 -23 8 0 15 7 15 15 0 8 -1 15 -2 14 -2
0 -9 -3 -15 -6z"/>
<path d="M8190 3860 c0 -11 5 -20 10 -20 6 0 10 9 10 20 0 11 -4 20 -10 20 -5
0 -10 -9 -10 -20z"/>
<path d="M8161 3854 c0 -11 3 -14 6 -6 3 7 2 16 -1 19 -3 4 -6 -2 -5 -13z"/>
<path d="M7375 3840 c-3 -5 -2 -10 4 -10 5 0 13 5 16 10 3 6 2 10 -4 10 -5 0
-13 -4 -16 -10z"/>
<path d="M8000 3830 c0 -5 7 -10 15 -10 8 0 15 5 15 10 0 6 -7 10 -15 10 -8 0
-15 -4 -15 -10z"/>
<path d="M8035 3800 c-3 -6 1 -13 10 -16 19 -8 30 0 20 15 -8 14 -22 14 -30 1z"/>
<path d="M8080 3800 c0 -5 5 -10 10 -10 6 0 10 5 10 10 0 6 -4 10 -10 10 -5 0
-10 -4 -10 -10z"/>
<path d="M7340 3781 c0 -5 7 -11 14 -14 10 -4 13 -1 9 9 -6 15 -23 19 -23 5z"/>
<path d="M8290 3780 c0 -5 5 -10 10 -10 6 0 10 5 10 10 0 6 -4 10 -10 10 -5 0
-10 -4 -10 -10z"/>
<path d="M7025 3770 c-3 -5 -1 -10 4 -10 6 0 11 5 11 10 0 6 -2 10 -4 10 -3 0
-8 -4 -11 -10z"/>
<path d="M8195 3770 c-3 -5 3 -10 15 -10 12 0 18 5 15 10 -3 6 -10 10 -15 10
-5 0 -12 -4 -15 -10z"/>
<path d="M7460 3759 c0 -5 5 -7 10 -4 6 3 10 8 10 11 0 2 -4 4 -10 4 -5 0 -10
-5 -10 -11z"/>
<path d="M7068 3753 c6 -2 18 -2 25 0 6 3 1 5 -13 5 -14 0 -19 -2 -12 -5z"/>
<path d="M7400 3744 c0 -9 7 -14 17 -12 25 5 28 28 4 28 -12 0 -21 -6 -21 -16z"/>
<path d="M7264 3719 c-3 -6 -1 -16 5 -22 8 -8 11 -5 11 11 0 24 -5 28 -16 11z"/>
<path d="M6685 3700 c-8 -13 4 -32 16 -25 12 8 12 35 0 35 -6 0 -13 -4 -16
-10z"/>
<path d="M7461 3694 c0 -11 3 -14 6 -6 3 7 2 16 -1 19 -3 4 -6 -2 -5 -13z"/>
<path d="M7183 3689 c-7 -7 -13 -10 -13 -6 0 4 -10 2 -22 -5 -13 -7 -27 -12
-32 -13 -16 0 -15 -53 1 -59 9 -4 18 -4 21 -1 3 3 0 5 -6 5 -23 0 -12 19 20
34 31 16 47 10 48 -18 0 -12 30 14 30 26 0 6 -6 8 -14 5 -10 -4 -16 2 -18 19
-2 20 -5 23 -15 13z"/>
<path d="M7393 3643 c-28 -19 -29 -28 -4 -55 l20 -20 -1 30 c-1 17 5 38 12 47
16 19 2 19 -27 -2z"/>
<path d="M7450 3650 c0 -5 5 -10 11 -10 5 0 7 5 4 10 -3 6 -8 10 -11 10 -2 0
-4 -4 -4 -10z"/>
<path d="M8380 3650 c-13 -8 -12 -10 3 -10 9 0 17 5 17 10 0 12 -1 12 -20 0z"/>
<path d="M8151 3634 c0 -11 3 -14 6 -6 3 7 2 16 -1 19 -3 4 -6 -2 -5 -13z"/>
<path d="M7165 3610 c-3 -5 -1 -10 4 -10 6 0 11 5 11 10 0 6 -2 10 -4 10 -3 0
-8 -4 -11 -10z"/>
<path d="M7910 3599 c0 -11 4 -18 10 -14 5 3 7 12 3 20 -7 21 -13 19 -13 -6z"/>
<path d="M7120 3566 c0 -19 -21 -26 -42 -14 -28 14 -21 -2 17 -38 33 -33 65
-44 65 -24 0 5 -9 14 -21 20 -16 9 -19 17 -14 41 4 16 4 29 1 29 -3 0 -6 -6
-6 -14z"/>
<path d="M7154 3546 c-10 -8 -16 -18 -12 -21 4 -4 15 0 24 9 21 22 13 30 -12
12z"/>
<path d="M7080 3471 c0 -10 30 -24 37 -17 3 3 2 9 -2 15 -8 13 -35 15 -35 2z"/>
<path d="M9762 4780 c0 -14 2 -19 5 -12 2 6 2 18 0 25 -3 6 -5 1 -5 -13z"/>
<path d="M9396 4043 c-11 -11 -6 -23 9 -23 8 0 15 4 15 9 0 13 -16 22 -24 14z"/>
<path d="M9056 3996 c3 -9 11 -16 16 -16 13 0 5 23 -10 28 -7 2 -10 -2 -6 -12z"/>
<path d="M9250 3980 c0 -5 5 -10 11 -10 5 0 7 5 4 10 -3 6 -8 10 -11 10 -2 0
-4 -4 -4 -10z"/>
<path d="M9426 3871 c-4 -7 -5 -15 -2 -18 9 -9 19 4 14 18 -4 11 -6 11 -12 0z"/>
<path d="M8918 3611 c-14 -5 -15 -8 -3 -25 13 -17 15 -17 21 -3 9 24 1 35 -18
28z"/>
<path d="M8933 3544 c-4 -10 0 -20 10 -26 10 -5 17 -16 17 -24 0 -8 5 -12 10
-9 16 10 12 35 -6 35 -10 0 -14 6 -11 15 4 8 2 17 -4 20 -5 4 -12 -1 -16 -11z"/>
<path d="M9050 3430 c0 -5 5 -10 10 -10 6 0 10 5 10 10 0 6 -4 10 -10 10 -5 0
-10 -4 -10 -10z"/>
<path d="M9160 3410 c0 -5 6 -10 14 -10 8 0 18 5 21 10 3 6 -3 10 -14 10 -12
0 -21 -4 -21 -10z"/>
<path d="M0 6800 c0 -64 3 -80 15 -80 11 0 15 11 15 39 0 22 4 41 10 43 15 5
-8 78 -25 78 -12 0 -15 -17 -15 -80z"/>
<path d="M220 6735 c-10 -13 -9 -15 8 -15 16 0 24 -10 32 -40 12 -44 25 -51
34 -20 3 11 8 28 11 39 4 14 -3 23 -29 35 -41 20 -41 20 -56 1z"/>
<path d="M440 6320 l0 -430 23 1 c12 0 42 4 67 7 l45 7 5 223 5 223 43 -128
c24 -70 57 -166 74 -213 l31 -85 73 9 74 9 0 404 0 403 -69 0 -68 0 1 -235 c1
-129 -2 -228 -7 -219 -4 8 -30 76 -57 152 -26 75 -61 173 -78 217 l-29 80 -67
3 -66 3 0 -431z"/>
<path d="M1010 6354 l0 -397 103 7 c56 3 141 9 190 13 l87 6 0 69 0 69 -60 -6
c-33 -3 -87 -7 -120 -10 l-60 -6 0 101 0 100 90 0 90 0 0 71 0 71 -87 -3 -88
-3 0 88 0 88 118 1 117 1 0 68 0 68 -190 0 -190 0 0 -396z"/>
<path d="M1480 6685 c0 -36 4 -66 10 -66 6 -1 15 -3 20 -4 6 -1 33 -3 60 -4
l50 -1 0 -304 c0 -169 4 -307 9 -310 5 -3 36 -3 70 0 l61 7 0 307 0 307 70 -3
70 -3 0 70 0 69 -210 0 -210 0 0 -65z"/>
<path d="M1985 6403 c3 -192 5 -360 5 -375 0 -28 1 -28 65 -28 l65 0 0 155 0
155 95 0 96 0 -3 66 -3 67 -92 -2 -93 -2 0 85 0 86 73 1 c39 1 80 0 91 -1 10
-1 34 1 52 5 l34 6 0 64 0 65 -194 0 -195 0 4 -347z"/>
<path d="M2450 6375 c0 -292 3 -376 13 -379 6 -3 90 -7 185 -11 l172 -6 0 64
0 64 -46 7 c-26 3 -78 6 -115 6 l-69 0 0 315 0 315 -70 0 -70 0 0 -375z"/>
<path d="M2930 6361 l0 -388 46 -7 c26 -3 57 -6 70 -6 l24 0 0 395 0 395 -70
0 -70 0 0 -389z"/>
<path d="M3193 6733 c3 -10 33 -88 67 -173 34 -85 66 -169 72 -185 9 -27 4
-45 -42 -150 -108 -249 -114 -266 -99 -276 8 -5 30 -9 49 -9 19 0 44 -3 55 -6
18 -4 27 9 69 110 27 64 50 116 51 116 1 0 23 -56 49 -124 53 -138 38 -125
160 -142 40 -5 48 -4 44 7 -14 33 -88 223 -127 321 -22 59 -41 114 -41 122 0
16 157 375 172 394 9 10 -5 12 -72 10 l-82 -3 -45 -102 c-25 -57 -49 -101 -53
-98 -4 2 -25 50 -46 105 l-39 100 -74 0 c-65 0 -73 -2 -68 -17z"/>
<path d="M80 6685 c0 -34 -1 -35 -40 -35 l-40 0 0 -125 c0 -104 3 -125 15
-125 20 0 45 63 45 115 0 25 5 45 12 47 8 3 5 13 -10 33 -29 37 -28 45 8 45
28 0 30 2 30 40 0 22 -4 40 -10 40 -5 0 -10 -16 -10 -35z"/>
<path d="M196 6531 c-18 -7 -18 -8 -2 -14 29 -11 46 -8 46 8 0 16 -14 18 -44
6z"/>
<path d="M6017 6353 c-4 -3 -7 -17 -7 -30 0 -13 -7 -40 -15 -61 -13 -32 -13
-34 0 -17 8 11 19 26 26 33 6 7 8 19 5 27 -3 8 -1 17 4 20 6 4 10 13 10 21 0
15 -12 19 -23 7z"/>
<path d="M80 6330 c0 -5 -18 -10 -40 -10 -33 0 -40 -3 -40 -20 0 -17 7 -20 39
-20 33 0 40 -4 44 -22 3 -15 5 -10 6 14 0 20 4 43 7 52 3 9 1 16 -5 16 -6 0
-11 -4 -11 -10z"/>
<path d="M5967 6213 c-4 -3 -7 -13 -7 -22 1 -13 3 -13 11 2 11 19 8 33 -4 20z"/>
<path d="M5940 6146 c0 -8 -3 -23 -6 -33 -3 -10 2 -7 10 7 18 30 20 40 6 40
-5 0 -10 -6 -10 -14z"/>
<path d="M5863 5781 c-12 -33 -6 -118 10 -128 6 -4 8 2 4 17 -3 13 -2 30 3 39
12 24 16 94 5 98 -6 2 -16 -10 -22 -26z"/>
<path d="M5893 5647 c-31 -45 -29 -56 3 -18 14 17 24 35 22 41 -1 5 -13 -5
-25 -23z"/>
<path d="M5867 5574 c-4 -4 -7 -17 -7 -28 1 -19 1 -20 11 -3 11 19 8 43 -4 31z"/>
<path d="M30 4490 c0 -5 5 -10 11 -10 5 0 7 5 4 10 -3 6 -8 10 -11 10 -2 0 -4
-4 -4 -10z"/>
<path d="M17 4452 c-23 -25 -21 -72 4 -101 17 -21 23 -23 40 -13 10 7 28 12
39 12 27 0 27 36 0 50 -11 6 -20 17 -20 24 0 12 -31 46 -42 46 -3 0 -12 -8
-21 -18z"/>
<path d="M5945 4090 c-3 -5 -1 -18 4 -27 6 -10 11 -13 11 -6 0 6 3 18 6 27 7
17 -11 22 -21 6z"/>
<path d="M6102 4038 c0 -42 23 -79 43 -72 21 8 19 27 -5 42 -11 7 -20 21 -20
31 0 11 -4 22 -9 26 -5 3 -9 -9 -9 -27z"/>
<path d="M6150 3815 c0 -8 4 -15 10 -15 5 0 7 7 4 15 -4 8 -8 15 -10 15 -2 0
-4 -7 -4 -15z"/>
<path d="M450 1260 l0 -900 40 0 40 0 0 900 0 900 -40 0 -40 0 0 -900z"/>
<path d="M6100 1923 c0 -13 -5 -23 -11 -23 -6 0 -9 -10 -7 -22 2 -13 10 -23
18 -23 17 0 24 50 10 74 -8 13 -9 12 -10 -6z"/>
<path d="M6450 1905 c1 -26 2 -28 11 -12 8 14 8 22 0 30 -8 8 -11 3 -11 -18z"/>
<path d="M5708 1849 c-12 -7 -18 -22 -18 -49 0 -22 3 -40 8 -40 7 1 72 85 72
95 0 9 -44 5 -62 -6z"/>
<path d="M6050 1829 c0 -5 5 -7 10 -4 6 3 10 8 10 11 0 2 -4 4 -10 4 -5 0 -10
-5 -10 -11z"/>
<path d="M6082 1800 c0 -14 2 -19 5 -12 2 6 2 18 0 25 -3 6 -5 1 -5 -13z"/>
<path d="M6420 1810 c0 -5 5 -10 10 -10 6 0 10 5 10 10 0 6 -4 10 -10 10 -5 0
-10 -4 -10 -10z"/>
<path d="M5977 1783 c-4 -3 -7 -16 -7 -27 -1 -26 -34 -64 -81 -94 -43 -26 -49
-27 -49 -7 0 9 -6 12 -15 9 -8 -4 -22 -1 -30 6 -8 7 -22 9 -31 6 -9 -4 -27 0
-39 8 -13 8 -25 12 -29 9 -3 -4 -6 -39 -6 -78 l0 -72 32 -7 c42 -8 348 5 348
15 0 4 -4 11 -10 14 -5 3 -10 11 -10 16 0 6 5 7 12 3 11 -7 9 10 -7 49 -5 12
-2 17 9 17 17 0 22 15 7 24 -5 3 -5 22 -1 42 10 42 4 64 -17 64 -10 0 -12 -6
-8 -20 5 -14 2 -20 -9 -20 -9 0 -16 5 -16 11 0 10 -24 39 -33 39 -2 0 -7 -3
-10 -7z"/>
<path d="M5480 1590 c0 -5 5 -10 10 -10 6 0 10 5 10 10 0 6 -4 10 -10 10 -5 0
-10 -4 -10 -10z"/>
<path d="M6410 1586 c0 -9 5 -16 10 -16 6 0 10 4 10 9 0 6 -4 13 -10 16 -5 3
-10 -1 -10 -9z"/>
<path d="M6160 1485 c0 -8 2 -15 4 -15 2 0 6 7 10 15 3 8 1 15 -4 15 -6 0 -10
-7 -10 -15z"/>
<path d="M6330 1490 c0 -5 5 -10 10 -10 6 0 10 5 10 10 0 6 -4 10 -10 10 -5 0
-10 -4 -10 -10z"/>
<path d="M0 1380 c0 -11 4 -20 9 -20 5 0 7 9 4 20 -3 11 -7 20 -9 20 -2 0 -4
-9 -4 -20z"/>
<path d="M206 1365 c-11 -8 -16 -18 -11 -22 4 -5 10 -2 12 5 3 6 11 12 19 12
8 0 14 5 14 10 0 14 -11 12 -34 -5z"/>
<path d="M5280 1252 c0 -10 -39 -33 -64 -37 -128 -21 -169 -32 -146 -38 42
-11 190 -8 190 4 0 11 32 9 108 -7 l33 -6 -25 27 c-14 15 -26 32 -26 36 0 5
-9 9 -19 9 -11 0 -23 5 -26 10 -7 12 -25 13 -25 2z"/>
<path d="M68 1229 c-26 -14 -22 -29 7 -29 25 0 33 -14 15 -25 -5 -3 -10 -16
-10 -29 0 -23 -33 -46 -65 -46 -11 0 -15 -12 -15 -45 0 -50 3 -51 51 -30 23 9
28 14 15 15 -19 0 -19 1 2 20 14 13 35 20 61 20 29 0 48 7 67 25 l26 24 -23
10 c-13 5 -32 12 -41 15 -10 3 -18 13 -18 22 0 13 -43 65 -53 64 -1 0 -10 -5
-19 -11z"/>
<path d="M4942 1146 c-12 -6 -25 -18 -27 -27 -3 -10 -12 -20 -20 -23 -14 -5
-22 -36 -10 -36 3 0 19 10 36 22 26 19 31 20 39 8 5 -8 10 -10 10 -5 0 6 5 3
10 -5 7 -11 10 -2 10 33 0 50 -6 54 -48 33z"/>
<path d="M4910 1035 c0 -8 5 -15 10 -15 6 0 10 7 10 15 0 8 -4 15 -10 15 -5 0
-10 -7 -10 -15z"/>
<path d="M4951 994 c0 -11 3 -14 6 -6 3 7 2 16 -1 19 -3 4 -6 -2 -5 -13z"/>
<path d="M5295 997 c17 -13 18 -19 8 -36 -17 -28 5 -41 26 -15 20 24 48 20 57
-8 4 -14 9 -17 17 -9 22 22 37 12 38 -26 2 -32 3 -34 6 -9 5 34 -13 83 -36 95
-9 5 -43 12 -76 16 -55 7 -58 6 -40 -8z"/>
<path d="M4612 985 c-7 -8 -9 -15 -5 -15 4 0 2 -4 -6 -9 -7 -5 -10 -14 -6 -20
5 -9 11 -9 23 1 12 10 16 10 19 1 5 -15 33 -17 33 -3 0 6 7 10 15 10 9 0 15 9
15 25 0 22 -4 25 -37 25 -21 -1 -44 -7 -51 -15z"/>
<path d="M4488 973 c7 -3 16 -2 19 1 4 3 -2 6 -13 5 -11 0 -14 -3 -6 -6z"/>
<path d="M4545 970 c3 -5 8 -10 11 -10 2 0 4 5 4 10 0 6 -5 10 -11 10 -5 0 -7
-4 -4 -10z"/>
<path d="M4480 947 c0 -21 23 -48 37 -43 8 3 21 -1 29 -9 9 -8 27 -15 42 -16
l27 -1 -25 -8 c-20 -6 -15 -8 25 -9 36 0 46 2 35 9 -12 8 -12 10 5 11 14 0 10
4 -13 13 -18 6 -30 15 -25 20 4 5 3 6 -4 2 -6 -3 -21 4 -32 16 -12 12 -21 18
-21 12 0 -13 -64 -14 -72 0 -4 6 -8 7 -8 3z"/>
<path d="M4960 934 c0 -8 5 -12 10 -9 6 3 10 10 10 16 0 5 -4 9 -10 9 -5 0
-10 -7 -10 -16z"/>
<path d="M4692 918 c-18 -18 -15 -40 6 -36 9 2 18 13 20 26 4 24 -7 29 -26 10z"/>
<path d="M5200 920 c0 -5 4 -10 9 -10 6 0 13 5 16 10 3 6 -1 10 -9 10 -9 0
-16 -4 -16 -10z"/>
<path d="M4791 894 c0 -11 3 -14 6 -6 3 7 2 16 -1 19 -3 4 -6 -2 -5 -13z"/>
<path d="M4127 873 c-20 -14 -37 -30 -37 -35 0 -13 40 11 47 28 3 8 11 14 19
14 8 0 14 5 14 10 0 14 0 14 -43 -17z"/>
<path d="M4755 870 c-3 -5 1 -10 10 -10 9 0 13 5 10 10 -3 6 -8 10 -10 10 -2
0 -7 -4 -10 -10z"/>
<path d="M136 825 c-15 -14 -34 -25 -42 -25 -8 0 -14 -10 -14 -26 0 -22 -2
-25 -15 -14 -8 7 -15 17 -15 23 0 10 -30 36 -42 37 -5 0 -8 -112 -8 -250 l0
-250 28 0 c20 0 33 7 42 25 7 14 20 25 28 25 8 0 29 7 48 16 30 14 34 21 34
55 0 34 5 42 33 59 17 11 40 20 49 20 9 0 20 9 23 20 3 11 12 20 18 20 7 0 18
9 25 20 7 12 17 18 22 15 6 -3 10 -2 10 4 0 5 3 16 6 25 4 10 1 16 -9 16 -10
0 -17 11 -19 33 -3 35 -21 40 -26 7 -3 -20 -4 -20 -35 2 -21 15 -32 18 -35 10
-2 -8 -9 -9 -23 -2 -25 14 -24 30 1 30 11 0 20 5 20 10 0 14 54 12 68 -2 9 -9
12 -7 12 10 0 12 -6 22 -13 22 -8 0 -22 9 -32 20 -10 11 -26 20 -35 20 -10 0
-23 7 -30 16 -28 32 -46 35 -74 9z m-12 -120 c46 -19 46 -32 -1 -41 -21 -4
-41 -12 -45 -18 -5 -7 -15 -4 -30 11 -21 22 -21 23 -3 43 22 24 31 25 79 5z
m36 -295 c0 -5 -5 -10 -11 -10 -5 0 -7 5 -4 10 3 6 8 10 11 10 2 0 4 -4 4 -10z"/>
<path d="M4055 832 c-21 -5 -91 -70 -83 -77 3 -3 22 6 42 20 20 14 41 25 45
25 8 0 25 31 19 35 -2 1 -12 -1 -23 -3z"/>
<path d="M4840 785 c0 -30 11 -32 27 -6 10 16 9 20 -3 25 -23 9 -24 8 -24 -19z"/>
<path d="M6037 759 c-3 -12 0 -22 9 -26 20 -8 27 2 19 26 -8 27 -21 27 -28 0z"/>
<path d="M4895 759 c-9 -13 23 -38 49 -39 18 0 18 2 -4 25 -26 27 -35 30 -45
14z"/>
<path d="M4122 731 c-11 -6 -10 -10 4 -15 20 -8 32 0 18 14 -5 5 -15 5 -22 1z"/>
<path d="M5726 723 c-12 -12 -5 -21 21 -27 18 -5 31 -2 42 8 8 9 11 17 6 17
-6 1 -22 3 -37 4 -14 2 -29 1 -32 -2z"/>
<path d="M5920 680 c0 -5 5 -10 10 -10 6 0 10 5 10 10 0 6 -4 10 -10 10 -5 0
-10 -4 -10 -10z"/>
<path d="M4161 644 c0 -11 3 -14 6 -6 3 7 2 16 -1 19 -3 4 -6 -2 -5 -13z"/>
<path d="M5955 651 c-7 -12 12 -24 25 -16 11 7 4 25 -10 25 -5 0 -11 -4 -15
-9z"/>
<path d="M6180 639 c0 -5 5 -7 10 -4 6 3 10 8 10 11 0 2 -4 4 -10 4 -5 0 -10
-5 -10 -11z"/>
<path d="M5210 610 c8 -14 8 -20 0 -20 -8 0 -8 -6 0 -20 13 -24 26 -25 47 -5
8 9 18 13 21 10 4 -3 1 -10 -6 -14 -9 -5 -6 -15 13 -35 23 -25 26 -25 32 -9 4
10 14 23 22 29 13 10 13 14 2 28 -13 15 -15 15 -26 0 -9 -14 -14 -14 -20 -4
-5 8 -4 11 2 7 9 -6 23 12 23 29 0 12 -46 21 -58 11 -9 -7 -16 -7 -24 1 -7 7
-18 12 -25 12 -11 0 -11 -5 -3 -20z"/>
<path d="M6030 579 c0 -11 4 -17 10 -14 6 4 16 2 23 -4 21 -17 67 -32 67 -21
0 6 -5 10 -11 10 -6 0 -24 11 -41 25 -36 30 -48 31 -48 4z"/>
<path d="M5641 561 c-11 -7 -11 -10 0 -17 7 -4 14 -3 17 4 2 6 11 8 20 5 15
-4 15 -3 2 6 -18 13 -21 13 -39 2z"/>
<path d="M5356 525 c-3 -9 -1 -24 5 -33 9 -15 10 -15 5 1 -3 11 -2 15 4 12 6
-3 10 -13 10 -21 0 -8 5 -14 10 -14 14 0 13 5 -9 40 -15 25 -20 28 -25 15z"/>
<path d="M6312 528 c-21 -21 -12 -33 26 -34 20 -1 29 1 20 3 -10 3 -18 11 -18
18 0 20 -15 26 -28 13z"/>
<path d="M6150 509 c0 -6 9 -13 19 -16 11 -3 22 -11 25 -19 8 -20 26 -17 26 4
0 9 -12 23 -27 30 -33 15 -43 15 -43 1z"/>
<path d="M320 450 c0 -5 4 -10 9 -10 6 0 13 5 16 10 3 6 -1 10 -9 10 -9 0 -16
-4 -16 -10z"/>
<path d="M5945 450 c3 -5 13 -10 21 -10 8 0 14 5 14 10 0 6 -9 10 -21 10 -11
0 -17 -4 -14 -10z"/>
<path d="M391 403 c-1 -27 17 -40 32 -23 9 10 8 12 -5 7 -12 -4 -18 1 -21 16
l-4 22 -2 -22z"/>
<path d="M5690 392 c0 -12 19 -26 26 -19 2 2 -2 10 -11 17 -9 8 -15 8 -15 2z"/>
<path d="M5741 391 c-8 -5 -11 -16 -8 -24 3 -8 -1 -24 -8 -35 -13 -17 -12 -22
7 -38 15 -14 22 -16 25 -6 7 18 82 16 89 -3 4 -10 13 -13 25 -10 22 7 25 -5 7
-24 -11 -11 -9 -13 10 -8 17 4 22 1 22 -14 0 -14 7 -19 25 -19 15 0 25 -6 25
-14 0 -21 20 -30 33 -17 8 8 6 11 -6 11 -9 0 -17 5 -17 11 0 7 10 9 27 4 23
-5 25 -4 14 9 -12 14 -9 16 26 16 28 0 46 6 59 21 19 22 19 22 -9 17 -20 -4
-30 0 -38 13 -6 12 -21 19 -39 19 -17 0 -39 6 -50 13 -17 10 -22 9 -30 -3 -5
-8 -10 -10 -10 -5 0 6 6 17 13 24 10 10 8 15 -8 27 -11 8 -29 12 -40 9 -11 -3
-39 -8 -63 -11 -42 -6 -43 -6 -31 14 17 27 7 37 -21 22 -15 -8 -20 -8 -16 -1
9 13 6 14 -13 2z"/>
<path d="M5520 361 c-13 -9 -13 -11 0 -15 23 -8 60 -2 60 9 1 14 -41 17 -60 6z"/>
<path d="M0 215 l0 -95 40 0 c33 0 40 -3 40 -19 0 -11 -4 -21 -8 -23 -9 -4
-52 -63 -52 -72 0 -3 81 -6 180 -6 l180 0 0 40 c0 22 5 40 10 40 6 0 10 7 10
16 0 13 -7 15 -32 10 -18 -3 -38 -13 -45 -22 -10 -13 -24 -15 -87 -9 l-76 7 0
39 c0 39 0 39 40 39 22 0 40 5 40 10 0 6 -18 10 -40 10 -22 0 -40 5 -40 10 0
6 -7 10 -15 10 -8 0 -15 4 -15 10 0 5 -11 20 -25 34 -14 14 -25 34 -25 46 0
17 -6 20 -40 20 l-40 0 0 -95z m110 -45 c0 -5 -7 -10 -15 -10 -8 0 -15 5 -15
10 0 6 7 10 15 10 8 0 15 -4 15 -10z"/>
<path d="M4072 278 c6 -18 22 -20 43 -3 19 14 18 14 -13 15 -22 0 -32 -4 -30
-12z"/>
<path d="M5825 281 c-3 -5 -1 -12 5 -16 5 -3 10 1 10 9 0 18 -6 21 -15 7z"/>
<path d="M5523 273 c-21 -8 -15 -22 7 -16 11 3 20 9 20 14 0 10 -8 10 -27 2z"/>
<path d="M5770 261 c-16 -30 -12 -41 14 -41 31 0 36 8 25 38 -10 27 -25 28
-39 3z"/>
<path d="M4400 220 c0 -5 5 -10 11 -10 5 0 7 5 4 10 -3 6 -8 10 -11 10 -2 0
-4 -4 -4 -10z"/>
<path d="M6040 201 c0 -5 -3 -16 -6 -25 -4 -10 -1 -16 9 -16 20 0 29 14 21 34
-7 17 -24 22 -24 7z"/>
<path d="M240 113 c0 -26 4 -33 20 -33 25 0 25 11 0 41 l-19 24 -1 -32z"/>
<path d="M4840 100 c0 -5 7 -10 16 -10 8 0 13 -4 9 -9 -3 -6 4 -15 15 -21 11
-6 19 -15 17 -19 -1 -5 3 -11 8 -13 6 -1 11 7 13 20 3 16 -2 22 -17 22 -11 0
-22 9 -26 20 -6 20 -35 28 -35 10z"/>
<path d="M4899 94 c-12 -14 -11 -16 5 -13 11 2 21 10 24 17 5 17 -13 15 -29
-4z"/>
<path d="M5748 93 c7 -3 16 -2 19 1 4 3 -2 6 -13 5 -11 0 -14 -3 -6 -6z"/>
<path d="M4635 70 c3 -5 8 -10 11 -10 2 0 4 5 4 10 0 6 -5 10 -11 10 -5 0 -7
-4 -4 -10z"/>
<path d="M5993 67 c-40 -15 -52 -27 -27 -27 33 0 62 11 68 26 6 16 2 16 -41 1z"/>
<path d="M5006 24 c-4 -11 -13 -14 -30 -10 -14 3 -28 2 -31 -4 -9 -14 68 -13
83 2 16 16 15 28 -2 28 -8 0 -17 -7 -20 -16z"/>
<path d="M2980 10 c0 -5 5 -10 10 -10 6 0 10 5 10 10 0 6 -4 10 -10 10 -5 0
-10 -4 -10 -10z"/>
<path d="M6240 10 c0 -5 5 -10 11 -10 5 0 7 5 4 10 -3 6 -8 10 -11 10 -2 0 -4
-4 -4 -10z"/>
</g>
</svg>
