<?xml version="1.0" standalone="no"?>
<!DOCTYPE svg PUBLIC "-//W3C//DTD SVG 20010904//EN"
 "http://www.w3.org/TR/2001/REC-SVG-20010904/DTD/svg10.dtd">
<svg version="1.0" xmlns="http://www.w3.org/2000/svg"
 width="1280.000000pt" height="720.000000pt" viewBox="0 0 1280.000000 720.000000"
 preserveAspectRatio="xMidYMid meet">
<metadata>
Created by potrace 1.16, written by Peter Selinger 2001-2019
</metadata>
<g transform="translate(0.000000,720.000000) scale(0.100000,-0.100000)"
fill="#000000" stroke="none">
<path d="M0 4600 c0 -2150 2 -2600 13 -2600 8 0 18 17 23 37 5 23 16 39 26 41
16 3 16 0 3 -45 -20 -66 -19 -70 11 -42 l25 24 20 -25 20 -25 -6 35 c-5 27 -2
41 13 58 22 25 32 28 32 9 0 -7 9 -20 20 -30 23 -19 27 -57 6 -57 -21 0 -25
-21 -10 -50 7 -14 15 -33 18 -43 4 -13 12 -16 25 -12 30 9 43 -17 35 -71 -5
-35 -4 -45 5 -39 7 4 23 4 37 1 20 -5 25 -12 22 -34 -3 -23 -8 -27 -40 -30
-31 -3 -38 -7 -38 -24 0 -41 -23 -83 -61 -113 -21 -16 -45 -44 -54 -62 -8 -18
-20 -35 -25 -38 -6 -3 -10 -24 -10 -46 0 -21 -4 -39 -10 -39 -10 0 -12 6 -14
42 -2 27 -21 26 -24 -1 -3 -17 -6 -20 -12 -11 -12 20 -50 -24 -50 -59 0 -23 4
-28 18 -24 24 6 47 -29 57 -87 4 -25 16 -58 27 -73 11 -16 21 -41 23 -57 1
-16 8 -42 15 -59 9 -23 10 -41 2 -72 -10 -40 -10 -41 14 -35 16 4 30 0 45 -15
26 -26 19 -45 -20 -54 -42 -9 -67 -50 -53 -88 19 -51 -22 -105 -55 -71 -9 8
-21 13 -29 10 -7 -3 -15 0 -17 7 -3 7 -8 5 -12 -7 -6 -13 -3 -21 8 -28 11 -6
17 -22 17 -48 0 -43 -17 -54 -24 -17 -3 12 -7 31 -9 42 -3 11 -5 -10 -6 -46
-1 -43 4 -72 14 -85 14 -19 14 -19 16 1 1 11 1 26 0 32 -1 7 5 13 14 13 8 0
15 -6 15 -14 0 -17 39 -48 51 -40 4 2 10 0 14 -6 4 -6 11 -6 19 2 10 10 10 17
-1 38 -7 14 -13 31 -13 38 0 6 -7 12 -15 12 -9 0 -15 10 -16 23 0 12 -3 16 -6
9 -7 -18 -33 5 -33 30 0 18 1 18 29 2 21 -12 33 -14 46 -6 15 8 23 4 40 -17
12 -14 27 -40 33 -58 12 -37 46 -73 67 -73 13 0 15 -7 9 -35 -5 -30 -4 -35 12
-34 19 0 65 17 52 18 -3 1 3 12 15 25 14 16 26 21 33 15 13 -10 24 -2 24 19 0
11 -8 13 -31 8 -29 -6 -31 -4 -26 20 4 23 2 25 -24 19 -32 -7 -38 2 -12 20 14
10 15 17 6 41 -15 39 -16 111 -1 120 6 4 28 10 49 14 32 6 38 4 43 -12 6 -24
-3 -50 -14 -43 -13 8 -40 -24 -34 -39 3 -7 15 -18 27 -23 18 -9 22 -18 21 -54
-3 -84 14 -104 61 -73 11 8 28 14 37 14 17 0 18 11 17 135 -1 75 2 139 6 143
12 12 93 8 107 -5 9 -10 9 -16 0 -25 -17 -17 -15 -30 15 -95 14 -32 26 -60 25
-63 0 -3 -4 -18 -7 -33 -5 -17 -3 -27 4 -27 6 0 11 7 11 15 0 8 10 33 22 56
17 33 23 38 30 25 14 -25 37 -157 31 -175 -14 -39 -34 -50 -79 -44 l-43 6 6
-54 c3 -30 15 -74 26 -99 41 -92 44 -108 31 -169 -11 -53 -10 -113 2 -132 3
-5 50 -9 104 -9 88 0 99 2 105 19 5 16 15 157 16 239 1 24 31 62 49 62 12 0
13 -37 1 -44 -11 -7 -2 -46 10 -46 5 0 9 -16 9 -35 0 -19 -4 -35 -9 -35 -5 0
-8 -25 -7 -55 1 -30 -2 -55 -6 -55 -4 0 -8 -11 -8 -25 l0 -25 239 0 c236 0
239 0 254 22 l16 23 0 -22 c1 -21 5 -22 111 -22 l110 -1 0 35 c0 36 25 60 52
50 7 -3 28 -7 46 -9 44 -5 48 -11 23 -37 -12 -13 -21 -27 -21 -31 0 -5 143 -7
318 -5 355 5 352 5 367 16 23 18 54 18 71 0 16 -18 34 -19 261 -19 138 0 243
4 243 9 0 5 -11 42 -25 83 -23 66 -23 74 -9 85 14 10 14 14 3 31 -11 14 -13
43 -8 113 l6 94 -34 33 c-19 19 -40 31 -48 28 -7 -2 -26 -1 -42 4 l-28 8 33 1
c21 1 32 6 32 16 0 18 13 16 -172 16 -90 0 -148 3 -148 9 0 6 59 10 149 10
164 0 174 4 175 62 1 43 31 61 54 31 9 -12 27 -23 40 -25 29 -4 29 -23 -1 -23
-17 -1 -21 -6 -20 -23 2 -12 -2 -22 -8 -22 -5 0 -8 -4 -4 -10 8 -13 35 -1 35
16 0 15 12 18 24 7 4 -4 15 -8 24 -8 12 0 18 -10 20 -32 4 -38 22 -45 22 -9 0
13 2 36 5 52 5 25 -3 38 -66 102 -87 91 -123 163 -139 281 -8 58 -17 89 -28
98 -15 11 -15 12 -1 13 12 0 20 17 29 63 31 160 141 288 288 332 107 33 282
10 367 -47 65 -45 129 -143 151 -231 l6 -27 -110 0 c-107 0 -110 1 -116 23
-16 66 -83 110 -166 110 -119 0 -195 -80 -210 -222 -21 -209 101 -346 270
-301 46 12 110 68 110 96 0 22 38 31 120 28 41 -2 81 -4 89 -4 35 0 -37 -156
-101 -216 -47 -44 -49 -48 -48 -97 1 -29 2 -72 1 -97 l-1 -45 20 25 20 25 0
-33 c0 -30 -2 -32 -25 -26 -22 5 -25 3 -25 -20 0 -14 -3 -26 -8 -26 -4 0 -12
-10 -17 -22 -11 -26 -50 -32 -50 -8 0 9 7 14 19 12 11 -2 15 1 11 7 -3 6 0 11
7 11 9 0 14 17 15 55 1 30 -2 55 -7 55 -5 0 -12 25 -16 56 -6 51 -8 55 -28 48
-11 -4 -69 -9 -128 -11 -98 -4 -108 -7 -108 -24 0 -10 3 -18 8 -17 19 5 52
-15 52 -33 0 -10 7 -19 15 -19 8 0 15 -4 15 -10 0 -5 -9 -10 -20 -10 -26 0
-26 -26 0 -33 18 -5 19 -8 8 -31 -14 -33 -32 -29 -36 8 -2 15 -10 30 -18 33
-9 3 -12 13 -9 24 8 24 -4 25 -20 2 -11 -15 -15 -15 -29 -4 -9 7 -16 10 -17 5
-3 -47 -9 -88 -15 -93 -4 -3 -5 6 -2 21 3 15 1 33 -3 40 -5 7 -7 -37 -6 -99 2
-62 7 -116 10 -120 4 -3 8 7 8 23 1 23 3 24 6 7 3 -15 9 -20 21 -17 14 5 13 3
-2 -10 -11 -9 -14 -16 -8 -16 19 0 14 -16 -7 -26 -18 -8 -18 -11 -5 -28 14
-20 14 -20 14 0 0 11 9 26 20 34 13 9 20 26 20 48 0 20 4 31 10 27 6 -3 10 5
10 18 0 16 7 26 20 30 17 4 20 0 20 -24 0 -22 5 -29 20 -29 22 0 28 -34 8 -46
-7 -5 -8 -3 -3 7 8 12 6 12 -8 0 -12 -9 -17 -10 -17 -2 0 7 -5 9 -12 4 -7 -4
-17 -8 -22 -8 -5 0 -14 -8 -20 -18 -9 -14 -7 -21 7 -31 9 -7 17 -18 17 -25 0
-6 5 -10 11 -9 6 2 17 -17 23 -41 11 -44 36 -69 36 -36 0 14 6 16 33 11 17 -3
40 -15 49 -27 11 -12 26 -19 40 -17 19 2 23 8 21 34 -2 21 2 34 12 38 9 3 15
18 15 36 0 30 13 40 25 20 4 -6 15 -8 26 -5 13 4 19 2 19 -8 0 -19 -27 -30
-33 -14 -3 9 -7 9 -17 0 -15 -14 -3 -36 16 -29 8 3 14 1 14 -4 0 -6 -4 -10 -9
-10 -5 0 -16 -13 -25 -30 -13 -28 -13 -30 4 -30 22 0 35 16 20 25 -10 6 -5 16
38 62 17 19 20 28 12 33 -20 13 -2 32 19 20 10 -5 21 -6 25 -3 3 3 6 1 6 -6 0
-7 5 -9 10 -6 6 3 11 27 11 53 2 45 2 46 8 12 6 -32 8 -33 15 -12 15 44 26 9
26 -84 l0 -94 165 0 c178 0 178 0 150 54 -8 16 -18 46 -21 67 -7 41 -13 46
-32 27 -31 -31 -55 63 -27 106 10 14 21 26 25 26 11 0 30 -48 30 -75 0 -19 5
-25 23 -25 12 0 27 4 33 8 19 12 33 81 27 133 -6 48 2 60 24 38 17 -17 57 -7
62 16 2 11 8 23 13 26 6 4 7 35 2 78 -5 60 -11 75 -30 87 l-23 15 20 46 c10
24 19 63 19 84 0 22 4 38 9 35 5 -3 16 9 25 28 20 42 20 57 1 50 -8 -4 -15 -1
-15 5 0 6 5 11 10 11 6 0 10 8 10 18 0 10 9 24 19 31 11 8 17 20 14 28 -9 22
7 65 21 60 14 -5 50 78 159 368 l34 90 106 3 c95 2 107 1 116 -16 8 -16 187
-485 291 -764 l29 -78 -27 -1 c-81 -5 -165 -3 -181 3 -12 4 -26 33 -41 82 -27
86 -20 83 -152 78 -79 -3 -88 -5 -88 -22 0 -11 -12 -27 -26 -37 -25 -16 -27
-16 -45 8 l-19 24 0 -27 c0 -30 -20 -40 -20 -10 -1 32 -29 -31 -30 -66 0 -18
-4 -31 -10 -27 -11 7 -27 -57 -26 -105 3 -76 36 -113 36 -40 0 22 4 40 8 40 5
0 9 -20 10 -45 0 -25 -4 -43 -9 -39 -5 3 -9 1 -9 -5 0 -6 -7 -8 -15 -5 -16 7
-21 -3 -30 -59 -3 -21 -12 -51 -20 -67 -17 -33 -20 -80 -5 -80 5 0 13 12 16
27 7 27 20 43 38 43 16 0 -5 -134 -23 -146 -51 -37 -63 -54 -57 -79 6 -25 7
-25 122 -25 102 0 115 2 110 16 -3 9 -6 24 -6 34 0 13 -5 17 -21 13 -19 -5
-20 -2 -17 57 3 66 15 82 41 55 28 -27 28 -16 1 30 -18 31 -21 43 -11 39 8 -3
24 -28 35 -55 20 -48 50 -70 39 -28 -3 13 -1 19 6 16 7 -2 12 -15 12 -28 0
-19 -6 -25 -27 -27 -30 -4 -35 -24 -22 -91 6 -30 9 -31 55 -31 l48 0 4 58 3
57 2 -57 2 -58 1685 0 1685 0 0 33 c0 18 7 42 15 53 17 22 20 70 5 79 -5 3
-10 21 -10 40 0 36 23 52 59 40 19 -6 38 -66 27 -84 -8 -12 19 -45 31 -38 5 3
8 20 5 37 -2 18 0 30 7 30 12 0 24 -41 25 -87 1 -18 4 -33 9 -33 4 0 7 -10 6
-22 0 -13 -3 -17 -6 -10 -7 17 -23 5 -23 -19 0 -18 9 -19 259 -19 l259 0 6 38
c3 20 6 54 6 74 -1 34 2 38 22 35 33 -3 38 -14 38 -84 0 -63 0 -63 29 -63 27
0 28 2 34 57 3 31 3 100 0 153 -6 99 0 155 17 145 15 -9 42 -68 49 -105 6 -34
8 -35 50 -34 24 1 46 7 50 13 11 18 41 2 42 -23 4 -61 -21 -136 -44 -136 -10
0 -27 -4 -37 -10 -14 -7 -23 -6 -33 5 -13 13 -15 10 -19 -25 l-4 -40 1733 0
c1185 0 1733 3 1733 10 0 6 -7 27 -15 47 -17 40 -20 83 -5 83 5 0 13 -6 17
-13 4 -7 20 -20 34 -29 30 -19 49 -8 49 28 0 13 4 26 10 29 5 3 10 0 10 -8 0
-8 9 -22 20 -32 11 -10 20 -13 20 -8 0 6 -7 16 -15 23 -8 7 -15 18 -15 26 0 7
-7 20 -16 28 -10 11 -13 23 -8 38 4 13 6 39 5 58 -6 70 -50 136 -52 78 0 -22
-1 -22 -10 2 -5 14 -16 30 -24 36 -20 15 -35 99 -35 194 0 50 -5 88 -15 106
-8 16 -15 45 -14 64 l0 35 16 -38 c8 -20 22 -37 30 -37 12 0 10 8 -7 36 -17
27 -21 45 -17 76 9 66 27 65 59 -4 28 -58 37 -65 42 -36 1 7 6 23 10 36 5 15
2 27 -7 37 -16 16 -46 123 -54 193 -3 27 -10 42 -19 42 -11 0 -13 7 -8 27 8
32 8 30 -5 103 -6 30 -13 71 -16 90 -3 19 -11 58 -17 87 -10 46 -9 56 11 93
24 46 21 83 -7 73 -13 -4 -12 -2 3 10 20 16 19 16 -7 17 -16 0 -28 5 -28 11 0
6 -16 26 -35 43 -29 27 -36 41 -39 82 l-5 49 18 -38 c27 -58 44 -70 37 -27 -3
19 -8 95 -12 169 -5 107 -3 132 7 129 20 -7 30 -55 30 -143 0 -44 7 -99 15
-123 16 -49 10 -73 -12 -45 -10 14 -13 15 -14 3 0 -8 5 -22 10 -30 9 -13 12
-12 26 5 13 17 16 18 24 5 5 -8 10 -21 10 -29 0 -10 3 -11 13 -3 9 8 12 39 9
114 -4 126 -4 104 3 223 4 55 6 113 5 130 0 19 3 26 9 20 12 -12 16 -74 7 -96
-4 -10 -3 -20 3 -24 6 -3 11 2 12 12 0 13 3 12 10 -7 6 -14 8 -48 5 -77 -4
-34 -2 -54 5 -59 9 -5 10 1 5 22 -6 26 -5 27 7 12 17 -21 25 -23 24 -5 0 6 1
28 2 47 l3 35 11 -33 c11 -28 12 -11 11 111 -1 80 -5 150 -8 156 -4 6 -5 11
-1 11 15 0 28 -65 32 -160 4 -112 5 -126 18 -177 5 -23 13 -33 26 -33 11 0 19
5 19 10 0 6 -5 10 -11 10 -6 0 -9 10 -7 22 5 37 20 26 35 -26 8 -26 22 -57 32
-68 11 -11 21 -40 24 -71 2 -29 8 -61 13 -72 6 -17 5 -18 -7 -8 -8 7 -21 35
-28 63 -13 49 -26 68 -38 56 -4 -4 -1 -12 5 -18 16 -16 15 -38 -2 -38 -7 0
-19 -7 -27 -16 -10 -13 -9 -21 6 -46 12 -21 17 -48 16 -83 -1 -39 3 -57 19
-75 24 -28 26 -56 3 -64 -14 -6 -12 -12 15 -39 18 -18 32 -39 32 -45 0 -20
-42 -31 -58 -16 -15 16 -58 19 -66 5 -3 -5 1 -22 9 -37 8 -16 15 -37 15 -46 0
-11 8 -18 19 -18 17 0 19 4 10 32 -5 18 -9 42 -9 53 1 29 16 0 24 -47 4 -21
10 -38 14 -38 10 0 32 -61 31 -86 0 -17 -1 -17 -9 2 -5 12 -13 25 -19 28 -11
7 -7 -36 10 -88 5 -16 9 -52 9 -81 0 -60 13 -76 78 -99 l42 -15 -3 922 c-1
507 -6 933 -10 947 -6 21 -6 22 3 5 8 -15 9 -6 6 40 -2 33 -7 69 -11 80 -5 16
-5 17 4 5 8 -11 11 593 11 2133 l0 2147 -2408 0 -2407 0 -14 -57 c-7 -31 -22
-70 -34 -87 -12 -17 -23 -33 -25 -36 -2 -2 -7 2 -13 10 -14 22 -29 -6 -22 -42
3 -17 1 -28 -6 -28 -6 0 -11 11 -11 25 0 14 -11 37 -25 51 -25 25 -45 25 -45
-2 0 -8 -6 -14 -14 -14 -11 0 -14 11 -11 45 1 25 -1 42 -6 39 -5 -3 -9 -14 -9
-25 0 -10 -5 -19 -10 -19 -6 0 -10 6 -9 13 2 6 -5 29 -14 51 -9 21 -17 47 -17
57 0 30 -15 22 -29 -16 -7 -19 -16 -35 -21 -35 -5 0 -6 16 -3 35 5 30 3 35
-14 35 -10 0 -24 -5 -30 -11 -9 -9 -20 -9 -44 0 -40 14 -129 14 -129 1 0 -6 8
-10 18 -8 10 2 17 -3 17 -12 0 -15 13 -30 28 -30 4 0 12 11 17 25 11 29 30 33
30 6 0 -10 7 -21 15 -25 8 -3 15 -15 15 -26 0 -12 7 -20 16 -20 12 0 15 6 10
23 -5 22 16 68 27 57 3 -3 8 -27 12 -54 6 -35 5 -47 -4 -42 -6 4 -11 2 -11 -4
0 -6 -4 -8 -10 -5 -5 3 -10 2 -10 -4 0 -5 5 -11 12 -13 6 -2 9 -10 7 -17 -4
-11 -9 -10 -22 3 -14 15 -17 15 -17 2 0 -8 -10 -23 -22 -33 -30 -25 -59 -80
-52 -98 4 -10 0 -15 -15 -15 -12 0 -21 -4 -21 -10 0 -5 5 -10 10 -10 6 0 10
-6 10 -13 0 -8 6 -27 14 -43 17 -34 20 -66 18 -196 -2 -94 -3 -98 -24 -98 -13
0 -28 4 -34 8 -27 17 -45 147 -24 168 8 8 -1 11 -27 12 -21 1 -42 7 -48 14 -5
7 -17 13 -25 13 -8 0 -17 11 -18 25 -4 22 -2 23 13 10 16 -13 16 -11 0 25 -10
22 -21 60 -25 85 -4 25 -15 62 -23 82 -11 23 -14 48 -11 67 6 30 6 31 -33 31
-21 0 -48 7 -59 15 -18 14 -18 14 10 15 21 0 26 3 19 13 -6 6 -13 24 -15 40
-6 32 11 36 30 7 7 -11 18 -20 25 -20 7 0 18 -12 25 -27 10 -26 11 -25 6 15
-5 36 -3 41 10 36 17 -7 20 3 7 24 -10 17 -182 15 -193 -2 -6 -8 -8 -7 -8 2 0
9 -87 12 -402 12 -337 -1 -400 -3 -385 -14 9 -7 17 -16 17 -20 0 -13 -26 -5
-43 14 -10 12 -29 20 -46 20 -21 0 -32 -6 -36 -20 -10 -32 -32 -22 -26 13 0 4
-10 7 -23 7 -19 0 -23 -4 -19 -19 3 -10 -3 -31 -14 -47 -10 -15 -23 -44 -30
-63 l-12 -36 1 45 c1 64 -1 72 -13 64 -7 -4 -8 -21 -5 -43 5 -26 4 -32 -4 -21
-7 11 -8 7 -4 -17 4 -20 2 -33 -4 -33 -14 0 -22 38 -16 84 4 29 1 47 -11 61
-15 19 -16 18 -13 -22 2 -24 0 -43 -4 -43 -5 0 -8 13 -8 29 0 16 -3 36 -6 45
-6 15 -279 16 -3000 16 l-2994 0 0 -2600z m8100 2576 c0 -3 -4 -8 -10 -11 -5
-3 -10 -1 -10 4 0 6 5 11 10 11 6 0 10 -2 10 -4z m-2262 -98 c15 -46 16 -118
2 -118 -5 0 -10 -7 -10 -16 0 -29 -20 -3 -31 42 -8 31 -16 44 -25 40 -8 -3
-14 1 -14 9 0 8 6 12 13 9 11 -4 13 8 10 51 l-3 56 23 -18 c13 -9 29 -34 35
-55z m2232 42 c10 -10 40 -11 40 0 0 5 4 10 9 10 6 0 7 -17 4 -37 -7 -41 -42
-127 -43 -104 0 26 -12 3 -16 -31 -5 -46 -12 -60 -24 -53 -16 10 -42 -15 -31
-29 9 -11 22 -83 26 -144 2 -39 25 -69 25 -34 0 12 6 22 14 22 10 0 14 -9 13
-27 -2 -34 -19 -56 -29 -40 -4 6 -6 -3 -6 -21 1 -18 5 -35 9 -38 5 -2 6 -11 2
-20 -4 -11 -9 -12 -19 -3 -7 6 -21 9 -31 7 -14 -3 -17 -11 -15 -41 2 -21 10
-50 18 -65 8 -15 14 -33 14 -39 0 -7 5 -13 10 -13 6 0 10 4 10 10 0 5 7 6 17
3 9 -4 14 -2 10 3 -3 5 -1 32 5 59 5 28 9 71 8 97 -1 41 1 46 18 41 16 -4 21
-17 27 -66 4 -44 12 -65 26 -75 10 -7 19 -21 19 -30 0 -9 7 -26 15 -36 8 -11
15 -34 15 -52 0 -18 4 -35 9 -38 15 -9 24 -118 11 -126 -16 -10 -29 -74 -18
-94 6 -10 5 -16 -2 -16 -5 0 -10 7 -10 15 0 8 -4 15 -10 15 -5 0 -10 -9 -10
-20 0 -12 -6 -33 -14 -48 -14 -28 -16 -109 -4 -128 8 -12 10 -83 4 -139 -20
-172 -18 -225 9 -225 17 0 17 -6 20 -160 2 -98 12 -200 20 -209 3 -2 0 -12 -6
-23 -8 -15 -7 -24 5 -37 20 -22 21 -61 1 -61 -23 0 -18 -30 8 -39 12 -5 26 -6
31 -3 6 3 7 -35 3 -94 -5 -76 -11 -105 -27 -126 -26 -35 -25 -64 1 -79 18 -9
20 -17 15 -48 -3 -23 0 -47 9 -65 20 -37 19 -43 -5 -49 -16 -4 -20 -13 -18
-44 0 -21 -4 -49 -11 -61 -8 -16 -9 -28 -1 -41 14 -28 12 -111 -4 -143 -13
-24 -12 -28 10 -47 13 -11 24 -30 24 -41 0 -12 7 -35 16 -52 9 -17 22 -52 30
-79 15 -49 30 -59 52 -37 18 18 23 5 16 -46 -5 -36 -12 -50 -29 -58 -18 -8
-24 -21 -28 -64 -7 -66 1 -120 19 -135 20 -16 17 -69 -6 -114 -12 -23 -17 -48
-14 -62 4 -13 2 -29 -4 -36 -14 -17 -22 -97 -10 -97 11 0 1 -74 -14 -103 -7
-15 -12 -16 -24 -6 -11 9 -14 8 -16 -2 -1 -16 -5 -32 -8 -39 -9 -19 -5 -292 5
-325 10 -35 11 -27 9 72 -1 62 1 115 5 118 4 2 14 -7 21 -20 7 -14 17 -25 21
-25 4 0 10 -11 13 -24 4 -17 11 -23 24 -19 14 3 23 -5 34 -34 14 -33 16 -35
17 -13 1 14 8 36 17 48 8 12 12 27 9 32 -3 6 -1 10 4 10 6 0 11 -8 12 -17 0
-17 3 -31 10 -63 2 -8 -2 -14 -8 -13 -8 2 -13 -7 -13 -21 0 -13 -7 -29 -15
-36 -8 -7 -15 -19 -15 -26 0 -17 36 -18 44 -1 3 6 5 3 3 -8 -1 -11 2 -26 6
-33 5 -7 5 -26 2 -44 -5 -21 -10 -27 -15 -18 -6 9 -16 -3 -34 -38 -32 -64 -32
-77 -1 -118 14 -18 25 -37 25 -43 0 -26 21 -62 32 -55 7 5 30 10 51 12 l39 3
-6 -43 c-3 -24 -8 -67 -12 -96 -7 -56 -20 -68 -30 -27 -6 25 -34 35 -34 13 0
-7 -3 -23 -6 -35 -5 -17 -2 -23 10 -23 11 0 14 -4 9 -12 -31 -50 9 -224 61
-267 9 -8 16 -18 16 -24 0 -5 -9 -2 -20 8 -20 18 -20 17 -21 -91 l0 -109 -15
54 c-8 30 -12 61 -10 68 3 7 3 13 1 13 -9 0 -29 -47 -41 -95 -7 -27 -13 -42
-13 -33 -1 11 -6 15 -16 12 -8 -4 -13 -9 -10 -13 9 -15 -123 -11 -151 4 -32
17 -84 20 -84 6 0 -6 -12 -6 -31 -1 -21 6 -37 5 -50 -3 -17 -10 -23 -9 -34 7
-12 16 -30 20 -112 22 -54 2 -116 4 -138 6 -36 2 -40 0 -42 -22 -1 -14 -7 -38
-12 -55 -12 -39 -5 185 9 270 15 92 12 153 -12 235 -19 67 -28 81 -84 136 -34
33 -89 75 -123 92 -57 31 -60 34 -50 59 8 23 6 29 -19 52 -16 14 -51 53 -78
86 -27 33 -55 66 -62 73 -7 8 -24 29 -39 48 -14 19 -32 33 -39 30 -29 -11 -35
125 -10 222 9 35 14 73 10 84 -4 15 -3 18 6 13 10 -6 12 -1 8 19 -4 17 -1 26
8 26 10 0 11 6 4 26 -6 14 -6 23 -2 20 5 -3 15 4 22 15 8 10 18 19 23 19 19 0
68 64 63 82 -3 15 -1 17 9 8 9 -8 14 -6 18 9 3 12 15 21 33 23 15 2 30 9 32
17 3 8 0 11 -7 7 -17 -11 -13 5 5 18 21 16 44 116 44 194 0 60 -1 63 -21 57
-20 -7 -21 -5 -13 21 5 16 9 85 10 154 0 87 6 143 18 184 9 32 16 68 15 80 -2
11 1 31 5 43 9 28 -9 64 -29 57 -8 -4 -15 -1 -15 6 0 6 9 14 20 17 25 7 25 15
0 38 -14 13 -23 15 -32 7 -7 -5 -21 -11 -31 -13 -17 -4 -17 -5 1 -25 12 -13
17 -26 12 -34 -6 -9 -10 -7 -15 9 -14 44 -182 191 -199 174 -3 -3 -6 2 -6 13
0 11 -3 15 -8 8 -10 -15 -86 -11 -106 5 -9 8 -19 11 -23 7 -3 -3 -1 -6 5 -6 7
0 12 -7 12 -17 0 -14 -2 -14 -21 3 -13 12 -23 14 -27 8 -11 -17 -51 -36 -62
-29 -6 4 -17 -1 -26 -9 -21 -22 -35 -20 -41 5 -5 17 -12 20 -37 17 -17 -3 -42
-2 -56 2 -25 8 -24 8 8 15 17 4 32 13 32 20 0 7 11 23 25 36 31 30 34 69 5 69
-24 0 -27 36 -5 66 14 18 14 17 15 -13 0 -18 5 -33 11 -33 7 0 9 11 6 30 -4
17 -2 30 3 30 15 0 23 42 10 50 -16 10 7 166 27 186 15 14 17 24 6 24 -5 0
-16 -14 -26 -31 -10 -18 -20 -29 -24 -26 -3 4 1 17 9 29 26 39 31 83 13 124
-16 39 -8 58 22 47 8 -3 13 2 13 15 0 11 7 33 15 48 19 36 19 68 0 119 -21 58
-19 62 30 97 35 25 42 34 35 49 -8 13 -2 23 28 45 20 15 39 29 41 30 6 5 -22
138 -37 174 -10 24 -11 35 -3 38 19 6 12 22 -10 22 -19 0 -20 -4 -14 -40 8
-49 -2 -50 -38 -2 -26 33 -32 36 -80 38 -90 2 -97 3 -97 20 0 9 -6 14 -12 11
-7 -2 -12 -10 -10 -16 2 -10 -21 -16 -43 -11 -22 5 -122 7 -153 2 -24 -3 -34
-11 -38 -28 -8 -32 -23 -31 -16 1 3 18 0 25 -12 25 -9 0 -19 -7 -22 -15 -5
-12 -10 -13 -20 -4 -11 9 -15 7 -21 -7 -9 -21 -33 -30 -33 -13 0 7 -9 9 -23 5
-17 -4 -30 1 -45 19 -16 18 -32 25 -59 26 -35 0 -36 1 -15 11 12 6 22 19 22
29 0 12 5 16 15 13 8 -4 15 -2 15 2 0 5 7 18 15 28 14 19 15 19 35 1 24 -21
24 -21 6 30 -13 38 -13 42 9 71 15 20 21 39 18 56 -6 32 16 49 24 18 3 -12 11
-19 18 -16 21 8 27 -25 8 -39 -15 -11 -14 -14 11 -30 20 -14 30 -15 39 -6 19
19 35 12 46 -20 11 -33 40 -61 53 -53 15 10 8 43 -11 53 -15 8 -19 21 -18 61
1 54 8 62 24 28 27 -59 35 -75 49 -100 8 -16 22 -28 30 -28 7 0 14 -9 14 -20
0 -11 7 -20 15 -20 8 0 15 4 15 8 0 5 8 19 19 31 l19 21 17 -26 c12 -19 20
-23 28 -15 7 7 14 7 23 1 8 -7 20 -7 38 0 29 11 30 14 17 39 -6 10 -6 23 -1
31 7 11 13 9 31 -13 12 -16 27 -26 34 -23 7 2 20 -11 30 -34 9 -20 42 -64 72
-96 122 -130 141 -151 180 -204 23 -30 51 -77 64 -105 38 -83 84 -148 156
-221 102 -103 150 -168 133 -179 -14 -8 10 -54 25 -49 7 3 16 1 20 -5 12 -21
41 -11 51 17 13 34 -4 97 -26 97 -8 0 -14 6 -12 14 1 7 -5 33 -14 56 -9 24
-13 49 -9 55 4 7 -2 18 -13 26 -11 7 -30 42 -41 76 -17 50 -42 97 -79 148 -2
2 -7 -2 -12 -9 -4 -8 -15 -11 -24 -8 -22 9 -66 104 -66 143 0 20 -11 45 -30
69 -16 21 -30 44 -30 51 0 8 -5 14 -11 14 -5 0 -42 33 -81 73 -71 72 -118 142
-118 176 0 10 -11 43 -25 72 -28 63 -43 139 -27 139 6 0 15 -7 20 -15 11 -21
56 -30 48 -10 -3 9 0 12 8 9 9 -3 18 7 25 28 l12 33 29 -35 c16 -19 30 -43 30
-52 0 -12 8 -18 25 -18 14 0 28 -7 31 -15 4 -8 12 -15 20 -15 8 0 14 -3 14 -7
2 -35 73 -65 84 -36 5 12 9 12 22 1 48 -39 64 -60 74 -99 7 -24 21 -61 32 -82
15 -30 18 -48 13 -91 -6 -45 -4 -54 10 -60 10 -3 24 -1 31 5 11 9 19 8 32 -5
10 -9 23 -16 29 -16 6 0 19 -29 28 -64 13 -49 15 -68 6 -84 -9 -16 -8 -26 1
-42 7 -11 16 -20 20 -20 5 0 8 -6 8 -13 0 -8 11 -24 25 -37 l25 -23 1 39 c0
21 3 57 8 79 l7 40 7 -33 c7 -35 27 -35 27 -1 0 27 -19 61 -30 54 -15 -9 -41
138 -28 160 3 6 -2 50 -13 99 -12 59 -16 94 -9 105 7 12 9 5 10 -26 0 -24 5
-43 10 -43 6 0 10 -8 10 -17 0 -15 4 -13 20 7 17 21 21 23 30 10 5 -8 10 -19
10 -25 0 -5 6 -3 13 6 7 9 17 14 23 12 7 -2 10 6 6 23 -3 19 -7 23 -14 12 -7
-9 -8 -7 -4 7 3 11 8 38 12 60 5 33 4 38 -7 28 -18 -17 -39 2 -39 36 0 20 -2
23 -10 11 -8 -12 -10 -9 -10 12 0 15 13 46 29 70 15 24 33 57 38 73 6 19 17
31 31 33 25 4 30 30 7 38 -8 4 -15 16 -15 28 0 15 -3 17 -9 8 -6 -10 -10 -8
-14 9 -10 37 2 67 23 62 17 -4 17 -2 7 34 -13 45 -14 203 -2 286 7 52 6 57
-11 57 -20 1 -66 67 -78 113 -7 28 8 38 18 12 3 -8 12 -12 20 -9 12 5 13 11 5
25 -6 13 -6 19 1 19 5 0 10 9 10 20 0 12 7 20 16 20 19 0 47 27 40 39 -8 13
21 34 39 27 19 -7 19 8 0 24 -32 26 -7 67 29 47 11 -7 23 -14 26 -17z m-2109
-136 c15 -34 32 -55 51 -63 15 -7 28 -19 28 -26 0 -19 39 -45 67 -45 26 0 42
-38 22 -51 -20 -12 -22 -12 -63 16 -20 14 -38 25 -39 25 -2 0 -3 -12 -2 -27 0
-14 -6 -28 -12 -30 -7 -3 -13 2 -13 11 0 9 -7 16 -15 16 -18 0 -19 -12 -4 -27
15 -15 28 -80 18 -90 -9 -9 1 -58 22 -111 10 -24 11 -37 3 -50 -7 -10 -15 -32
-19 -50 -3 -18 -10 -32 -13 -32 -10 0 -72 93 -72 106 0 7 -6 17 -14 24 -12 9
-16 5 -22 -25 -6 -36 -16 -40 -19 -7 -1 9 -7 27 -14 40 -7 13 -10 28 -8 35 2
7 -5 29 -16 51 -19 35 -25 64 -30 125 -1 13 6 28 15 34 14 9 23 6 47 -18 17
-17 31 -34 31 -40 1 -19 39 -90 40 -73 0 9 4 18 9 20 14 5 -32 96 -51 101 -23
6 -35 37 -19 47 10 5 9 9 -2 13 -16 6 -16 64 1 107 6 15 6 35 1 48 -10 27 -4
42 17 42 8 0 14 8 14 18 0 10 6 24 13 31 10 10 13 2 18 -41 4 -29 17 -76 30
-104z m1143 141 c-4 -8 -8 -15 -10 -15 -2 0 -4 7 -4 15 0 8 4 15 10 15 5 0 7
-7 4 -15z m596 -54 c0 -5 -7 -11 -15 -15 -9 -3 -15 0 -15 9 0 8 7 15 15 15 8
0 15 -4 15 -9z m-897 -214 c-1 -31 3 -59 8 -62 23 -15 -5 -129 -29 -120 -8 3
-21 0 -28 -6 -7 -6 -18 -8 -24 -4 -13 8 -13 -8 1 -22 6 -6 9 -23 7 -38 l-3
-28 -27 28 c-25 25 -32 27 -81 21 -65 -8 -74 0 -110 100 l-26 72 22 20 c27 24
117 37 117 16 0 -8 11 -12 30 -12 22 1 30 6 30 19 0 15 6 17 35 14 30 -4 35
-2 36 15 1 11 3 25 4 30 1 6 3 13 4 16 0 3 9 4 18 2 15 -3 18 -13 16 -61z
m714 1 c-3 -8 -6 -5 -6 6 -1 11 2 17 5 13 3 -3 4 -12 1 -19z m559 -125 c-10
-11 -26 18 -26 47 0 23 1 23 17 -8 8 -18 13 -36 9 -39z m-1893 28 c14 -28 14
-29 -2 -19 -9 5 -17 19 -17 29 0 25 2 24 19 -10z m1387 -37 c0 -24 -4 -44 -10
-44 -5 0 -10 6 -11 13 0 6 -2 26 -3 42 -3 35 2 48 15 40 5 -4 9 -26 9 -51z
m-1266 -6 c9 -12 16 -31 16 -42 0 -20 0 -20 -19 -1 -23 24 -37 65 -22 65 5 0
17 -10 25 -22z m-126 -17 c3 -8 -1 -12 -9 -9 -7 2 -15 10 -17 17 -3 8 1 12 9
9 7 -2 15 -10 17 -17z m-8 -31 c0 -5 -5 -10 -11 -10 -5 0 -7 5 -4 10 3 6 8 10
11 10 2 0 4 -4 4 -10z m1482 -50 c9 -25 10 -25 25 -5 11 14 14 15 10 3 -7 -21
3 -31 20 -17 10 9 13 6 13 -14 0 -13 -3 -38 -6 -55 -5 -26 -9 -29 -24 -20 -25
16 -50 3 -56 -32 -13 -63 -24 -15 -18 78 6 105 14 141 22 107 2 -11 9 -31 14
-45z m-1437 -10 c3 -6 -1 -7 -9 -4 -18 7 -21 14 -7 14 6 0 13 -4 16 -10z m610
-10 c3 -5 1 -10 -4 -10 -6 0 -11 5 -11 10 0 6 2 10 4 10 3 0 8 -4 11 -10z
m605 -30 c24 -47 25 -64 5 -56 -8 3 -15 1 -15 -4 0 -23 -17 -7 -30 28 -23 57
-23 59 0 33 24 -27 37 -23 21 7 -12 22 -14 32 -6 32 2 0 14 -18 25 -40z m-527
-32 c23 7 113 -129 103 -155 -8 -20 23 -83 41 -83 18 0 55 -52 44 -63 -14 -14
-51 10 -51 33 0 11 -7 20 -15 20 -8 0 -35 19 -60 42 -36 34 -42 44 -32 56 10
13 8 14 -12 7 -21 -6 -23 -5 -18 16 6 23 -17 70 -24 50 -3 -5 -14 -3 -29 5
l-25 15 27 -5 c31 -7 44 7 24 26 -7 8 -17 24 -21 37 -6 21 -5 22 17 10 12 -7
27 -12 31 -11z m-180 -5 c-7 -2 -19 -2 -25 0 -7 3 -2 5 12 5 14 0 19 -2 13 -5z
m97 -28 c11 -13 10 -14 -4 -9 -9 3 -16 10 -16 15 0 13 6 11 20 -6z m722 -55
c-5 -21 21 -78 33 -73 7 2 15 -5 18 -17 4 -16 3 -19 -7 -10 -10 8 -12 4 -9
-17 5 -28 5 -28 -11 -6 -10 14 -23 19 -36 16 -10 -3 -19 -8 -18 -12 2 -19 -5
-20 -33 -6 -39 20 -49 12 -22 -18 21 -22 28 -42 42 -109 5 -23 5 -38 -1 -38
-21 0 -97 64 -109 92 -6 16 -17 27 -24 24 -16 -6 -56 38 -78 87 -14 32 -15 37
-2 37 8 0 15 5 15 11 0 7 23 -18 51 -55 57 -73 77 -85 54 -30 l-15 36 26 -6
c21 -6 25 -4 20 11 -21 71 -16 83 21 60 8 -5 24 2 40 18 28 25 50 28 45 5z
m-682 -94 c0 -3 -4 -8 -10 -11 -5 -3 -10 -1 -10 4 0 6 5 11 10 11 6 0 10 -2
10 -4z m1435 -63 c4 -21 11 -53 15 -71 8 -31 7 -32 -13 -26 -38 11 -45 23 -40
67 2 23 6 48 9 55 7 24 23 11 29 -25z m-1195 17 c0 -5 -2 -10 -4 -10 -3 0 -8
5 -11 10 -3 6 -1 10 4 10 6 0 11 -4 11 -10z m35 -30 c3 -6 -1 -7 -9 -4 -18 7
-21 14 -7 14 6 0 13 -4 16 -10z m465 -93 c0 -5 -7 -4 -15 3 -8 7 -15 20 -15
29 1 13 3 13 15 -3 8 -11 15 -24 15 -29z m250 -37 c0 -6 -12 -22 -27 -36 -27
-25 -26 -47 2 -24 12 10 15 10 15 -1 0 -8 3 -24 6 -35 4 -15 0 -23 -12 -28
-22 -9 -30 0 -15 17 9 12 6 13 -16 9 -16 -3 -32 -11 -36 -18 -9 -16 -47 -19
-47 -4 0 6 9 10 21 10 15 0 19 5 15 16 -4 10 10 30 41 60 51 48 53 49 53 34z
m412 -22 c-7 -7 -12 -8 -12 -2 0 14 12 26 19 19 2 -3 -1 -11 -7 -17z m-1464
-181 c2 -16 1 -36 -3 -45 -5 -13 -10 -12 -30 11 -29 30 -29 33 -12 52 19 22
42 13 45 -18z m912 -40 c0 -24 -2 -26 -14 -14 -8 8 -12 24 -9 41 7 34 23 15
23 -27z m-1400 -115 c0 -12 -23 -32 -37 -32 -9 0 -8 6 4 20 18 21 33 26 33 12z
m464 -67 c-4 -10 0 -15 11 -15 10 0 13 5 9 12 -5 7 -3 8 5 3 18 -10 -3 -29
-23 -22 -17 7 -22 37 -6 37 5 0 7 -7 4 -15z m-898 -22 c-7 -7 -26 7 -26 19 0
6 6 6 15 -2 9 -7 13 -15 11 -17z m504 23 c0 -3 -4 -8 -10 -11 -5 -3 -10 -1
-10 4 0 6 5 11 10 11 6 0 10 -2 10 -4z m520 -6 c0 -5 -5 -10 -11 -10 -5 0 -7
5 -4 10 3 6 8 10 11 10 2 0 4 -4 4 -10z m60 -5 c0 -8 -9 -15 -20 -15 -11 0
-20 5 -20 11 0 5 4 8 9 4 5 -3 12 -1 16 5 9 14 15 12 15 -5z m-500 -26 c0 -6
-4 -7 -10 -4 -5 3 -10 11 -10 16 0 6 5 7 10 4 6 -3 10 -11 10 -16z m-339 -98
c23 23 39 24 39 3 0 -10 6 -14 14 -11 9 4 15 -5 19 -26 4 -18 9 -43 13 -57 6
-21 4 -23 -7 -12 -19 18 -29 15 -29 -8 0 -18 -2 -19 -21 -8 -47 28 -66 54 -72
98 -6 43 -6 44 9 23 15 -21 16 -21 35 -2z m-71 -51 c0 -5 -2 -10 -4 -10 -3 0
-8 5 -11 10 -3 6 -1 10 4 10 6 0 11 -4 11 -10z m50 -108 c12 -46 13 -62 0 -62
-12 0 -1 -30 21 -54 19 -20 39 -14 39 11 0 15 2 14 18 0 10 -10 23 -17 29 -17
6 0 16 -7 23 -15 11 -14 14 -13 26 4 8 11 12 25 10 33 -12 37 -15 68 -8 68 9
0 32 -58 32 -81 0 -8 12 -20 27 -26 31 -15 39 -8 49 45 6 29 24 46 24 22 0
-17 40 29 41 48 1 9 4 1 8 -18 4 -25 14 -39 34 -48 17 -9 27 -21 27 -36 0 -12
4 -26 8 -31 12 -14 32 -88 32 -119 0 -22 -4 -26 -18 -22 -15 5 -18 0 -19 -30
-1 -20 -6 -41 -12 -47 -6 -6 -11 -25 -11 -43 0 -58 -12 -91 -36 -104 -21 -12
-26 -10 -42 10 l-19 24 -7 -22 c-10 -30 2 -68 17 -53 18 18 23 13 36 -31 7
-24 20 -51 29 -61 23 -26 30 -137 8 -149 -17 -10 -23 -48 -7 -48 5 0 13 9 16
21 6 16 9 18 22 8 8 -7 12 -21 10 -31 -3 -10 -2 -18 3 -18 4 0 10 -10 13 -21
4 -13 11 -19 19 -16 16 6 42 -11 50 -33 4 -10 10 -5 18 18 13 35 30 43 30 13
0 -10 7 -24 16 -32 10 -8 13 -21 9 -37 -5 -21 -3 -23 17 -17 13 4 30 14 39 21
9 8 24 12 33 8 9 -3 16 -1 16 6 0 6 5 8 12 4 8 -5 9 -2 5 9 -4 11 -1 17 8 17
22 0 18 -14 -12 -42 -16 -15 -38 -38 -50 -52 -15 -18 -31 -26 -53 -26 -24 0
-31 -4 -27 -15 4 -8 2 -17 -3 -20 -16 -10 -12 -55 5 -55 21 0 19 -5 -14 -54
-32 -47 -51 -136 -33 -158 5 -7 12 -77 16 -155 5 -138 5 -143 -14 -143 -18 0
-20 -7 -19 -62 1 -92 9 -110 48 -120 22 -6 31 -14 27 -23 -5 -15 17 -39 27
-28 4 3 7 2 7 -3 0 -6 -5 -15 -11 -21 -9 -9 -7 -11 7 -7 17 4 19 -1 21 -46 0
-28 4 -62 7 -76 5 -17 3 -23 -4 -19 -5 3 -10 -2 -10 -13 0 -11 -7 -25 -16 -33
-8 -7 -13 -20 -11 -29 6 -23 -31 -44 -70 -41 -46 4 -66 -11 -111 -82 -32 -52
-39 -72 -37 -104 3 -38 -1 -44 -64 -104 -37 -35 -96 -86 -131 -114 -36 -27
-75 -59 -87 -70 -12 -11 -33 -28 -46 -37 -26 -18 -105 -117 -128 -159 -7 -13
-18 -30 -26 -37 -20 -21 -16 -46 19 -103 28 -44 33 -63 37 -127 2 -41 -2 -91
-8 -112 -15 -51 -65 -117 -107 -142 -18 -11 -34 -24 -34 -29 0 -6 43 -75 95
-155 52 -80 95 -148 95 -152 0 -5 -50 -8 -112 -8 l-112 1 -89 138 -90 137 -67
0 -68 0 -1 -131 c-1 -72 -4 -135 -7 -140 -3 -5 -49 -8 -102 -6 l-97 2 -3 148
c-2 98 -6 147 -13 147 -8 0 -8 5 1 14 13 16 9 173 -5 215 -6 18 -5 22 4 17 9
-6 12 1 9 25 l-3 33 -140 -2 c-94 -2 -135 1 -124 7 8 6 73 11 142 12 70 1 127
6 127 10 0 5 -21 9 -47 9 -57 0 -53 8 5 11 27 2 42 8 42 16 0 10 -57 13 -284
13 -321 0 -293 9 -292 -90 l1 -55 208 -3 c206 -2 207 -2 208 -25 1 -12 3 -52
4 -89 l2 -68 -208 0 c-114 0 -209 -3 -211 -7 -2 -5 -2 -43 0 -86 l4 -78 214 2
c119 0 216 0 217 -2 2 -2 0 -42 -3 -89 l-5 -85 -320 0 -320 0 -1 25 c0 14 -1
54 -3 90 -1 56 -3 63 -15 48 -9 -13 -27 -18 -59 -18 -53 0 -57 -6 -57 -91 l0
-59 -310 0 c-170 1 -312 5 -315 9 -3 5 -6 177 -6 383 -1 205 -5 360 -8 343 -5
-24 -8 -27 -16 -15 -13 20 -22 -21 -25 -115 -2 -40 -5 -56 -7 -37 l-4 33 -25
-26 c-13 -14 -24 -34 -25 -43 0 -9 -5 -3 -10 13 -5 17 -8 71 -6 120 2 50 2 73
0 53 -2 -21 -8 -38 -14 -38 -5 0 -9 -67 -9 -160 0 -121 3 -160 13 -160 6 0 26
-11 42 -25 33 -27 17 -34 -25 -10 -14 8 -27 14 -30 15 -3 0 -5 -75 -5 -168 l0
-167 -105 0 -105 0 -5 425 c-4 262 -2 430 4 438 5 7 15 11 23 8 17 -7 29 20
16 37 -6 6 -15 35 -22 62 -22 94 -45 160 -58 168 -7 4 -13 13 -13 18 0 6 5 7
10 4 6 -3 10 -1 10 5 0 6 10 10 22 8 18 -2 25 -13 33 -48 5 -25 13 -49 16 -55
4 -5 17 -50 29 -100 13 -49 27 -94 31 -99 8 -9 4 113 -7 242 -4 44 -10 62 -20
62 -8 0 -14 -5 -14 -12 0 -6 -2 -9 -4 -7 -2 2 4 58 14 124 l18 120 1 -82 c1
-46 -3 -83 -8 -83 -23 0 -2 -35 22 -38 25 -3 27 -7 27 -53 0 -27 3 -49 8 -49
4 0 7 -51 7 -112 0 -92 3 -113 15 -115 37 -7 40 8 46 233 2 120 9 255 14 299
5 44 10 119 11 168 1 48 6 87 10 87 5 0 9 -6 9 -12 0 -59 14 -274 17 -278 3
-3 3 66 2 152 -2 148 2 187 19 162 4 -6 15 -13 25 -17 10 -4 15 -12 12 -17 -4
-6 -1 -9 7 -8 8 2 14 -8 16 -27 5 -58 24 -135 32 -135 4 0 11 11 14 25 7 27
26 34 26 9 0 -26 20 -4 21 24 3 60 17 -81 19 -185 1 -90 4 -113 16 -113 11 0
12 -21 6 -127 -3 -71 -7 -146 -7 -168 0 -22 -4 -43 -10 -47 -18 -14 18 -29 57
-24 43 5 65 -9 70 -44 3 -23 5 -22 23 15 10 22 32 59 47 82 l29 43 -20 27
c-11 16 -21 35 -22 43 -3 23 21 78 37 84 8 3 14 16 14 29 0 14 10 31 23 40
l22 16 -26 24 c-15 13 -32 35 -39 48 -11 20 -10 25 7 38 19 15 19 16 1 48 -15
25 -17 36 -9 52 6 11 11 38 11 61 0 35 -2 40 -16 32 -9 -5 -25 -7 -35 -5 -15
4 -19 15 -19 54 0 53 5 59 26 32 12 -16 13 -13 14 25 0 36 3 42 21 42 19 0 19
2 5 28 -8 15 -17 39 -20 54 -4 18 -13 28 -28 30 -18 2 -23 11 -26 46 -2 24 1
42 7 42 5 0 13 9 16 20 3 11 13 20 20 20 9 0 12 6 9 15 -7 17 16 21 32 5 12
-12 39 14 46 45 3 11 5 0 5 -25 -1 -41 44 -160 59 -160 4 0 4 6 1 14 -3 7 -2
17 3 22 5 5 11 45 14 89 2 44 5 83 5 88 2 15 21 6 21 -10 0 -10 7 -27 15 -37
17 -22 21 -101 5 -91 -5 3 -10 -3 -10 -14 0 -23 26 -29 33 -8 3 9 7 9 20 -2
15 -12 17 -10 17 23 0 41 12 46 33 15 13 -18 18 -19 39 -8 12 7 28 12 35 11 6
-1 14 11 18 27 5 25 1 36 -19 56 -14 14 -26 33 -26 41 0 8 -6 17 -14 20 -8 3
-16 29 -20 67 -4 34 -10 77 -13 96 -5 29 -3 33 11 28 12 -5 16 -1 16 15 0 21
0 21 14 3 14 -19 15 -19 26 10 7 17 16 38 21 48 5 10 7 40 3 68 -5 38 -3 53 7
60 12 8 11 12 -5 24 -16 12 -18 20 -10 56 10 48 29 61 40 27 4 -13 14 -28 23
-35 13 -9 16 -31 16 -105 0 -74 4 -99 19 -123 35 -54 47 -59 68 -25 20 35 52
39 70 11 9 -14 16 -17 24 -10 19 16 27 -7 16 -44 -18 -57 -22 -97 -11 -97 6 0
13 9 16 20 7 26 23 26 23 1 0 -17 5 -19 36 -14 37 6 37 6 30 -23 -13 -50 -26
-58 -52 -33 -13 12 -26 20 -29 17 -9 -9 6 -38 20 -38 18 0 33 -50 24 -80 -4
-14 -7 -19 -8 -12 -2 23 -19 12 -23 -15 -3 -16 -9 -36 -13 -45 -5 -13 -2 -20
11 -25 30 -11 43 -28 40 -54 -5 -40 -27 -78 -42 -72 -18 7 -18 -7 1 -34 20
-28 -2 -45 -22 -18 -12 17 -13 16 -13 -16 0 -43 -8 -53 -28 -36 -13 10 -14 5
-8 -41 4 -29 11 -62 15 -75 9 -21 9 -21 17 -2 11 29 36 46 61 40 15 -3 23 0
26 12 3 12 5 9 6 -8 1 -20 -8 -33 -40 -54 -31 -20 -38 -29 -28 -35 7 -5 17 -6
22 -3 5 3 4 9 -3 13 -8 5 -1 10 19 15 37 8 57 -3 23 -12 l-22 -5 25 -34 c28
-36 33 -85 11 -103 -8 -7 -17 -23 -20 -37 -6 -22 -9 -24 -22 -13 -13 10 -14 7
-8 -28 6 -42 -11 -73 -42 -73 -16 0 -19 -16 -4 -25 12 -7 2 -35 -20 -55 -9 -8
-19 -25 -22 -37 -5 -18 -2 -22 15 -20 15 1 23 -6 30 -30 17 -57 50 -52 64 10
4 20 9 25 16 18 6 -6 21 -11 34 -11 13 0 23 -6 23 -13 0 -18 -20 -36 -34 -31
-7 3 -20 -4 -30 -15 -20 -22 -19 -82 2 -89 9 -3 11 3 7 21 -6 22 -2 25 39 37
37 10 46 17 46 35 0 34 25 51 56 37 20 -10 23 -17 18 -37 -8 -33 9 -32 32 3
17 27 43 51 55 52 11 0 16 -46 7 -69 -10 -27 15 -40 43 -23 10 7 26 12 34 12
19 0 19 14 0 34 -8 8 -15 27 -15 42 0 21 -3 24 -13 15 -11 -9 -13 0 -9 47 2
31 8 65 13 74 12 23 11 75 -1 83 -5 3 -10 12 -10 18 0 9 3 8 8 -1 5 -7 8 27 6
75 -2 77 0 85 11 63 7 -14 16 -50 19 -81 6 -50 10 -56 27 -52 10 3 19 1 19 -5
0 -15 50 -72 62 -72 6 0 8 7 4 15 -3 8 -1 15 5 15 6 0 8 4 5 9 -4 5 -2 21 3
34 8 22 6 28 -16 42 -20 13 -27 14 -33 5 -9 -14 -40 37 -40 64 0 20 48 32 69
17 33 -24 81 -41 116 -41 43 0 75 -29 75 -68 0 -16 -9 -37 -20 -47 -29 -26
-25 -44 14 -60 19 -8 37 -24 41 -35 5 -14 12 -19 25 -15 11 3 20 0 24 -10 5
-13 10 -14 27 -5 15 9 24 9 32 1 7 -7 14 -7 23 0 7 6 14 6 18 1 4 -6 21 -6 46
0 30 8 40 15 40 30 0 16 3 18 13 9 8 -6 17 -8 20 -4 14 14 6 33 -20 47 -16 8
-22 15 -15 16 6 0 12 7 12 16 0 14 2 15 17 3 15 -13 16 -11 9 11 -10 33 -10
35 -2 105 4 40 3 53 -3 40 -9 -19 -10 -19 -10 3 -1 14 5 22 16 22 9 0 25 7 35
17 20 17 25 53 7 53 -5 0 -8 4 -4 9 3 6 -6 8 -20 5 -20 -4 -25 0 -25 17 0 24
36 58 63 59 9 0 17 4 17 10 0 14 -52 8 -68 -7 -7 -7 -18 -13 -23 -13 -16 0
-10 19 11 37 20 18 28 39 10 28 -11 -7 -8 30 3 41 4 4 7 17 7 28 -1 18 -6 15
-35 -18 -19 -22 -35 -34 -35 -28 0 23 36 80 55 88 16 7 20 18 19 49 -2 36 -1
38 12 20 16 -22 19 -20 28 17 5 22 3 26 -9 22 -9 -4 -15 -1 -15 7 0 9 -4 7
-11 -4 -8 -13 -18 -17 -35 -13 -19 5 -24 3 -24 -14 0 -11 -7 -23 -15 -26 -10
-4 -13 -13 -10 -25 5 -14 -1 -22 -22 -31 -15 -7 -35 -19 -43 -26 -8 -7 -26
-21 -40 -31 -22 -17 -23 -21 -10 -37 12 -16 12 -17 0 -6 -20 17 -27 15 -33 -9
-3 -12 -10 -18 -16 -14 -16 9 -14 35 2 35 8 0 28 15 45 34 17 19 45 42 61 52
17 10 31 22 31 26 0 12 -38 10 -45 -2 -11 -18 -55 -12 -56 8 0 9 -2 29 -3 43
l-2 26 27 -20 c26 -19 49 -17 49 5 0 20 -42 63 -73 74 -20 7 -33 19 -38 36 -6
24 -5 25 22 15 15 -6 26 -15 23 -19 -3 -4 2 -8 10 -8 9 0 22 -12 30 -27 14
-26 76 -91 76 -80 0 3 3 12 6 21 4 10 1 16 -9 16 -10 0 -13 7 -10 20 3 11 11
20 19 20 10 0 12 8 7 30 -4 23 -2 30 11 30 9 0 16 7 16 16 0 23 -20 55 -31 49
-5 -4 -9 5 -9 19 0 14 8 29 18 34 23 11 102 8 110 -5 4 -6 16 -12 26 -14 18
-4 19 -5 3 -21 -17 -17 -24 -58 -9 -58 23 0 73 140 92 258 5 30 11 56 14 60 3
3 -5 20 -19 38 -14 18 -25 36 -25 40 0 4 -11 20 -25 35 -15 14 -27 37 -28 50
-2 13 -10 40 -19 59 -28 61 -28 86 1 113 14 14 43 28 64 31 40 7 42 11 38 92
-2 23 2 45 8 49 7 4 11 -5 11 -24 0 -36 6 -41 59 -43 35 -1 44 -6 61 -35 20
-33 58 -48 46 -17 -3 9 -6 25 -6 35 0 11 -4 18 -9 14 -10 -6 -18 33 -19 93 -1
19 4 32 11 32 7 0 21 14 30 30 21 36 52 39 61 8 5 -20 7 -21 20 -8 19 20 24
52 9 57 -7 3 -13 -2 -13 -11 0 -25 -25 -8 -28 19 -1 18 2 23 13 19 12 -5 14 0
9 22 -7 35 -8 50 -6 92 2 34 22 46 22 13 0 -27 10 -51 22 -51 6 0 8 7 4 15 -3
8 -1 15 4 15 6 0 10 9 10 21 0 11 -4 17 -10 14 -6 -4 -10 17 -10 57 0 52 4 66
20 78 12 9 20 26 20 45 0 70 26 98 41 44 l7 -24 1 27 c1 34 -9 59 -20 52 -5
-3 -9 3 -9 12 0 10 -3 14 -7 11 -9 -10 -54 55 -48 71 2 7 -3 15 -13 19 -23 8
-52 44 -52 66 0 10 -4 15 -10 12 -5 -3 -10 -15 -10 -26 0 -37 -18 -18 -54 57
-33 70 -46 140 -30 157 13 13 34 -7 44 -41z m-200 -102 c0 -5 -4 -10 -9 -10
-6 0 -13 5 -16 10 -3 6 1 10 9 10 9 0 16 -4 16 -10z m2343 -28 c-3 -12 -9 -22
-14 -22 -5 0 -3 11 3 25 13 30 20 28 11 -3z m-2538 -82 c3 -5 1 -10 -4 -10 -6
0 -11 5 -11 10 0 6 2 10 4 10 3 0 8 -4 11 -10z m225 -20 c0 -5 -2 -10 -4 -10
-3 0 -8 5 -11 10 -3 6 -1 10 4 10 6 0 11 -4 11 -10z m244 -151 c7 -54 -8 -95
-18 -48 -14 68 -14 99 -2 99 9 0 16 -19 20 -51z m369 -76 c-4 -24 -11 -33 -24
-33 -11 0 -19 -7 -19 -15 0 -8 -5 -15 -11 -15 -7 0 -8 7 -4 18 3 9 9 30 12 45
3 16 12 31 19 34 8 3 14 13 15 22 0 12 2 11 8 -4 5 -11 6 -35 4 -52z m-394
-207 c-9 -8 -10 -2 -5 29 3 22 7 54 8 70 1 17 3 3 5 -29 3 -37 0 -63 -8 -70z
m379 113 c-2 -6 -8 -10 -13 -10 -5 0 -11 4 -13 10 -2 6 4 11 13 11 9 0 15 -5
13 -11z m42 -183 c-7 -7 -10 1 -9 25 0 32 1 33 10 10 6 -16 6 -28 -1 -35z
m-49 -21 c12 -54 8 -78 -10 -59 -11 11 -20 125 -10 118 4 -2 13 -29 20 -59z
m-739 -7 c-7 -7 -12 -8 -12 -2 0 14 12 26 19 19 2 -3 -1 -11 -7 -17z m-1357
-178 c3 -5 2 -10 -4 -10 -5 0 -13 5 -16 10 -3 6 -2 10 4 10 5 0 13 -4 16 -10z
m780 -9 c3 -5 1 -12 -5 -16 -5 -3 -10 1 -10 9 0 18 6 21 15 7z m-813 -29 c-7
-2 -12 -11 -13 -20 0 -13 -2 -13 -8 3 -9 21 6 38 23 28 6 -4 5 -8 -2 -11z
m2968 -56 c0 -11 -19 -15 -25 -6 -3 5 1 10 9 10 9 0 16 -2 16 -4z m-30 -32 c0
-8 -4 -12 -10 -9 -5 3 -10 10 -10 16 0 5 5 9 10 9 6 0 10 -7 10 -16z m161 -9
c-1 -15 -24 -12 -29 3 -3 9 2 13 12 10 10 -1 17 -7 17 -13z m-101 -5 c0 -5 -4
-10 -10 -10 -5 0 -10 5 -10 10 0 6 5 10 10 10 6 0 10 -4 10 -10z m-145 -42
c32 -11 72 -26 87 -34 33 -17 69 -70 61 -90 -4 -10 0 -12 11 -8 12 4 16 0 16
-15 0 -12 0 -24 1 -28 0 -4 -5 -9 -11 -11 -8 -3 -10 3 -5 17 7 23 -4 28 -23 9
-9 -9 -12 -9 -12 0 0 7 -3 11 -7 10 -12 -3 -56 23 -73 43 -20 22 -208 40 -294
28 -56 -7 -96 2 -96 23 0 4 -20 6 -45 3 -49 -5 -55 2 -26 29 15 13 20 14 24 4
3 -7 6 -4 6 8 1 16 11 22 54 30 80 16 261 6 332 -18z m-1710 4 c-3 -3 -11 0
-18 7 -9 10 -8 11 6 5 10 -3 15 -9 12 -12z m-275 -42 c0 -5 -4 -10 -10 -10 -5
0 -10 5 -10 10 0 6 5 10 10 10 6 0 10 -4 10 -10z m2258 -2 c-3 -7 -11 -13 -18
-13 -7 0 -15 6 -17 13 -3 7 4 12 17 12 13 0 20 -5 18 -12z m-748 -18 c-12 -23
-16 -24 -26 -8 -4 6 -3 8 3 5 6 -4 13 0 17 8 3 8 8 15 11 15 3 0 1 -9 -5 -20z
m-1382 -19 c3 -8 -1 -12 -9 -9 -7 2 -15 10 -17 17 -3 8 1 12 9 9 7 -2 15 -10
17 -17z m1406 -10 c3 -5 -1 -12 -10 -15 -27 -11 -37 -7 -24 9 14 17 26 19 34
6z m-1354 -23 c0 -6 -6 -5 -15 2 -8 7 -15 14 -15 16 0 2 7 1 15 -2 8 -4 15
-11 15 -16z m-53 -4 c-3 -3 -12 -4 -19 -1 -8 3 -5 6 6 6 11 1 17 -2 13 -5z
m74 -62 c-7 -2 -18 1 -23 6 -8 8 -4 9 13 5 13 -4 18 -8 10 -11z m1165 -50
c-12 -12 -18 8 -10 35 l8 28 4 -28 c2 -16 1 -31 -2 -35z m-1069 -5 c16 -10 17
-27 2 -27 -5 0 -17 16 -25 35 -17 41 -18 61 -1 25 6 -14 17 -29 24 -33z m33
29 c0 -3 -4 -8 -10 -11 -5 -3 -10 -1 -10 4 0 6 5 11 10 11 6 0 10 -2 10 -4z
m230 -11 c7 -9 8 -15 2 -15 -5 0 -12 7 -16 15 -3 8 -4 15 -2 15 2 0 9 -7 16
-15z m-180 -25 c0 -5 -2 -10 -4 -10 -3 0 -8 5 -11 10 -3 6 -1 10 4 10 6 0 11
-4 11 -10z m-30 -20 c0 -5 -4 -10 -10 -10 -5 0 -10 5 -10 10 0 6 5 10 10 10 6
0 10 -4 10 -10z m1745 -20 c3 -6 -1 -7 -9 -4 -18 7 -21 14 -7 14 6 0 13 -4 16
-10z m-2941 -35 c3 -8 1 -15 -4 -15 -6 0 -10 7 -10 15 0 8 2 15 4 15 2 0 6 -7
10 -15z m1087 -39 l12 -24 26 24 26 24 10 -41 c6 -22 13 -37 17 -33 4 4 2 -5
-5 -20 -16 -35 -40 -36 -27 0 12 31 -6 76 -21 53 -5 -8 -7 -27 -4 -44 l5 -30
-15 32 c-21 45 -35 50 -35 12 0 -44 -6 -34 -14 24 -8 52 6 65 25 23z m1919 3
c0 -6 -4 -7 -10 -4 -5 3 -10 11 -10 16 0 6 5 7 10 4 6 -3 10 -11 10 -16z
m-2085 -9 c3 -5 1 -10 -4 -10 -6 0 -11 5 -11 10 0 6 2 10 4 10 3 0 8 -4 11
-10z m1763 -46 c9 -18 9 -31 1 -46 -13 -23 2 -59 36 -92 20 -19 20 -19 -5 -12
-39 11 -74 12 -87 3 -10 -7 -9 2 2 33 8 23 15 61 15 85 0 60 18 74 38 29z
m-2745 -45 c-3 -10 0 -19 6 -19 6 0 11 -17 11 -40 0 -22 -4 -40 -10 -40 -5 0
-10 14 -10 31 0 17 -7 37 -15 45 -22 23 -20 53 4 47 13 -3 17 -11 14 -24z
m687 -9 c0 -5 -5 -10 -11 -10 -5 0 -7 5 -4 10 3 6 8 10 11 10 2 0 4 -4 4 -10z
m-721 -68 c1 -13 5 -21 10 -18 13 8 42 -40 35 -57 -7 -20 16 -33 27 -16 8 12
11 12 19 -1 13 -20 13 -77 0 -85 -12 -7 -33 42 -24 56 4 8 -7 11 -33 8 -5 0
-7 -7 -5 -15 5 -25 -16 -15 -22 10 -4 18 -12 24 -25 21 -21 -4 -25 7 -36 90
-6 46 -5 49 9 31 16 -20 16 -20 16 0 0 51 28 28 29 -24z m1186 8 c-3 -6 -10
-10 -16 -10 -10 0 -12 33 -2 44 9 9 26 -22 18 -34z m1185 15 c0 -14 -4 -25
-10 -25 -8 0 -8 23 -1 48 4 12 11 -3 11 -23z m-1665 -2 c-13 -35 -14 -71 -1
-76 8 -3 15 -24 18 -46 l3 -40 -23 22 -24 22 2 -40 c3 -58 -1 -74 -10 -44 -10
34 -1 79 16 86 21 8 17 23 -5 23 -17 0 -20 7 -19 43 2 46 12 67 35 67 10 0 13
-6 8 -17z m325 -13 c0 -5 -2 -10 -4 -10 -3 0 -8 5 -11 10 -3 6 -1 10 4 10 6 0
11 -4 11 -10z m3020 -25 c0 -9 7 -18 15 -21 15 -6 21 -45 8 -57 -10 -10 -43
44 -43 71 0 12 5 22 10 22 6 0 10 -7 10 -15z m-3520 -95 c0 -20 -5 -30 -15
-30 -16 0 -19 17 -9 44 10 26 24 18 24 -14z m4730 26 c0 -3 -4 -8 -10 -11 -5
-3 -10 -1 -10 4 0 6 5 11 10 11 6 0 10 -2 10 -4z m-4000 -10 c0 -3 -4 -8 -10
-11 -5 -3 -10 -1 -10 4 0 6 5 11 10 11 6 0 10 -2 10 -4z m5505 -36 c3 -5 1
-10 -4 -10 -6 0 -11 5 -11 10 0 6 2 10 4 10 3 0 8 -4 11 -10z m-9568 -77 c-2
-16 -4 -3 -4 27 0 30 2 43 4 28 2 -16 2 -40 0 -55z m3933 59 c0 -5 16 -16 35
-25 32 -15 44 -35 30 -49 -3 -3 -22 10 -42 28 -20 19 -43 34 -50 34 -7 0 -13
5 -13 10 0 6 9 10 20 10 11 0 20 -4 20 -8z m-630 -32 c0 -5 -5 -10 -11 -10 -5
0 -7 5 -4 10 3 6 8 10 11 10 2 0 4 -4 4 -10z m6347 -62 c-2 -13 -4 -3 -4 22 0
25 2 35 4 23 2 -13 2 -33 0 -45z m-6285 30 c-7 -7 -12 -8 -12 -2 0 6 3 14 7
17 3 4 9 5 12 2 2 -3 -1 -11 -7 -17z m100 -40 c-9 -9 -12 -7 -12 12 0 19 3 21
12 12 9 -9 9 -15 0 -24z m155 -10 c0 -7 3 -30 7 -50 7 -36 -6 -54 -17 -25 -3
6 -6 1 -6 -13 -1 -30 15 -50 41 -50 10 0 18 -7 18 -15 0 -24 -20 -17 -58 21
-26 26 -32 38 -23 43 9 6 10 20 5 46 -5 27 -3 40 7 46 19 12 26 11 26 -3z
m-317 -48 c0 -5 -2 -10 -4 -10 -3 0 -8 5 -11 10 -3 6 -1 10 4 10 6 0 11 -4 11
-10z m564 -14 c-3 -9 -12 -16 -20 -16 -18 0 -18 5 2 25 19 19 27 15 18 -9z
m147 5 c-9 -6 -10 -11 -2 -15 6 -4 11 -12 11 -19 0 -7 -7 -5 -16 5 -17 17 -12
38 9 38 8 0 8 -3 -2 -9z m5332 2 c-7 -2 -19 -2 -25 0 -7 3 -2 5 12 5 14 0 19
-2 13 -5z m-6013 -164 c0 -10 -4 -19 -10 -19 -5 0 -10 12 -10 26 0 14 4 23 10
19 6 -3 10 -15 10 -26z m765 -19 c3 -5 1 -10 -4 -10 -6 0 -11 5 -11 10 0 6 2
10 4 10 3 0 8 -4 11 -10z m5824 -100 c1 -26 -2 -31 -9 -20 -5 8 -9 42 -9 75 1
58 2 59 10 20 4 -22 8 -56 8 -75z m-5779 69 c0 -6 -4 -7 -10 -4 -5 3 -10 11
-10 16 0 6 5 7 10 4 6 -3 10 -11 10 -16z m2621 -58 c11 -24 19 -55 17 -70 -2
-21 -9 -12 -31 47 -18 45 -26 79 -21 90 6 15 8 15 11 -3 3 -11 13 -40 24 -64z
m2549 59 c0 -5 -7 -10 -16 -10 -8 0 -12 5 -9 10 3 6 10 10 16 10 5 0 9 -4 9
-10z m47 4 c-3 -3 -12 -4 -19 -1 -8 3 -5 6 6 6 11 1 17 -2 13 -5z m43 -92 c0
-26 -4 -41 -10 -37 -5 3 -10 30 -10 58 0 37 3 48 10 37 5 -8 10 -34 10 -58z
m-9613 6 c-2 -13 -4 -5 -4 17 -1 22 1 32 4 23 2 -10 2 -28 0 -40z m7029 -13
c-9 -19 -10 -19 -14 -2 -2 10 0 31 4 45 l7 27 7 -25 c4 -14 2 -34 -4 -45z
m-2621 45 c3 -6 -1 -7 -9 -4 -18 7 -21 14 -7 14 6 0 13 -4 16 -10z m-1735 -61
c0 -11 -4 -17 -10 -14 -5 3 -10 13 -10 21 0 8 5 14 10 14 6 0 10 -9 10 -21z
m1680 -80 c0 -6 7 -9 15 -6 8 4 17 2 20 -3 9 -14 -56 -24 -68 -10 -9 10 -9 11
1 6 7 -4 12 -1 12 8 0 9 5 16 10 16 6 0 10 -5 10 -11z m5241 -12 c-10 -9 -11
-8 -5 6 3 10 9 15 12 12 3 -3 0 -11 -7 -18z m-5991 -16 c0 -14 -41 -41 -63
-41 -9 0 0 39 15 56 12 16 48 5 48 -15z m690 9 c0 -5 -10 -10 -22 -9 -22 0
-22 1 -3 9 11 5 21 9 23 9 1 1 2 -3 2 -9z m-5281 -32 c0 -27 -2 -29 -8 -13 -5
11 -6 26 -4 33 8 21 13 13 12 -20z m74 -8 c3 -11 2 -20 -3 -20 -8 0 -20 24
-20 41 0 17 17 1 23 -21z m4560 10 c-6 -22 -23 -38 -23 -21 0 17 12 41 20 41
5 0 6 -9 3 -20z m3826 -12 c-1 -18 7 -64 16 -103 9 -38 17 -85 17 -102 0 -18
4 -33 9 -33 5 0 9 27 9 59 0 63 8 76 40 66 15 -5 18 -11 11 -22 -8 -15 -3
-213 5 -222 3 -3 21 5 42 17 l37 21 5 92 c5 96 17 120 54 106 13 -5 14 -11 6
-32 -6 -15 -10 -118 -10 -231 0 -161 -3 -206 -13 -210 -8 -3 -14 -18 -14 -34
0 -36 -2 -38 -42 -50 -24 -7 -31 -6 -31 6 0 8 9 14 20 14 11 0 20 6 20 13 5
210 5 257 2 257 -1 0 -16 -10 -32 -21 -16 -12 -35 -19 -42 -17 -9 4 -13 -6
-13 -36 1 -23 3 -46 7 -51 8 -13 -9 -55 -22 -55 -5 0 -10 -14 -10 -31 0 -22
-6 -32 -19 -36 -15 -4 -17 -8 -7 -28 6 -13 14 -21 19 -18 4 3 3 11 -4 19 -7 8
-7 14 -1 14 15 0 23 -29 14 -46 -5 -9 -5 -40 -1 -70 4 -30 4 -79 0 -109 -4
-30 -4 -55 0 -55 5 0 4 -12 -1 -26 -6 -14 -11 -40 -11 -57 -1 -26 -2 -28 -6
-7 -9 59 -13 68 -30 65 -10 -1 -17 -7 -16 -13 1 -5 -7 -18 -17 -27 -19 -18
-22 -17 -73 8 -29 15 -56 27 -61 27 -5 0 -23 11 -41 24 -23 18 -36 40 -50 88
-10 34 -24 75 -32 90 -11 23 -11 27 1 22 8 -3 17 0 22 7 10 16 -22 38 -46 32
-29 -8 -25 15 5 29 23 10 29 22 28 56 -1 19 47 55 162 123 57 33 105 68 108
78 2 9 -9 82 -24 161 -15 80 -32 169 -38 199 -12 59 -3 81 30 81 14 0 18 -7
18 -32z m4010 -32 c-1 -20 -1 -21 -6 -1 -3 11 -9 24 -14 30 -5 5 -9 14 -9 20
0 5 7 1 15 -9 8 -11 14 -29 14 -40z m-9232 -28 c-3 -8 -6 -5 -6 6 -1 11 2 17
5 13 3 -3 4 -12 1 -19z m1973 -3 c-7 -8 -16 -12 -21 -9 -13 8 -1 24 18 24 13
0 13 -3 3 -15z m5365 5 c-3 -5 -10 -10 -16 -10 -5 0 -9 5 -9 10 0 6 7 10 16
10 8 0 12 -4 9 -10z m-1659 -21 c3 -6 1 -16 -5 -22 -7 -7 -11 -86 -11 -244 0
-226 -1 -233 -20 -233 -11 0 -23 -1 -26 -2 -5 -3 -5 220 0 322 1 19 3 70 4
113 2 74 3 77 26 77 14 0 28 -5 32 -11z m-8862 -64 c6 -42 5 -64 -3 -77 -14
-22 -12 -146 2 -155 5 -3 13 1 18 8 13 21 22 3 12 -26 -5 -15 -20 -34 -34 -42
-23 -14 -30 -14 -57 -2 -35 15 -48 60 -31 109 8 23 7 34 -5 52 -9 12 -16 32
-15 43 0 17 2 17 11 -5 6 -15 12 -20 15 -12 6 15 -29 92 -51 114 -9 10 -11 20
-5 29 7 12 9 12 9 -1 1 -11 4 -10 17 5 15 20 15 20 10 -1 -7 -31 9 -53 18 -25
3 12 10 19 15 16 4 -3 10 4 13 15 4 14 12 19 29 17 20 -3 24 -12 32 -62z
m3593 23 c-3 -8 -6 -5 -6 6 -1 11 2 17 5 13 3 -3 4 -12 1 -19z m-500 -65 c-3
-10 -5 -2 -5 17 0 19 2 27 5 18 2 -10 2 -26 0 -35z m-1904 -18 c-3 -9 -8 -14
-10 -11 -3 3 -2 9 2 15 9 16 15 13 8 -4z m-92 -19 c-7 -9 -7 -16 1 -24 9 -9 9
-12 1 -12 -7 0 -15 5 -18 10 -9 15 5 51 16 44 6 -4 6 -10 0 -18z m3306 18 c-3
-3 -12 -4 -19 -1 -8 3 -5 6 6 6 11 1 17 -2 13 -5z m6373 2 c0 -11 -19 -15 -25
-6 -3 5 1 10 9 10 9 0 16 -2 16 -4z m1277 -28 c-3 -8 -6 -5 -6 6 -1 11 2 17 5
13 3 -3 4 -12 1 -19z m-1167 -33 c0 -8 -4 -15 -10 -15 -5 0 -7 7 -4 15 4 8 8
15 10 15 2 0 4 -7 4 -15z m1200 -6 c0 -6 -4 -7 -10 -4 -5 3 -10 11 -10 16 0 6
5 7 10 4 6 -3 10 -11 10 -16z m121 -9 c5 0 12 -18 15 -40 4 -22 10 -37 15 -35
14 9 28 -29 27 -73 0 -25 -5 -40 -12 -39 -6 1 -10 -9 -9 -23 2 -21 0 -20 -14
10 -9 19 -18 62 -21 95 -3 38 -12 71 -25 89 -19 26 -19 29 -3 23 10 -4 22 -7
27 -7z m-61 -71 c0 -18 -10 -8 -25 24 l-16 32 21 -24 c11 -13 20 -27 20 -32z
m-10982 -151 l3 -88 -141 0 -140 0 0 -345 0 -345 -30 0 c-29 0 -40 -13 -20
-25 15 -9 12 -22 -6 -29 -10 -4 -24 5 -41 24 -17 20 -33 30 -51 29 -15 0 -22
-2 -17 -5 6 -2 9 -56 6 -140 l-3 -137 23 8 c13 4 76 10 139 14 l115 6 2 45 c1
25 2 157 2 293 l1 248 32 -3 32 -3 -3 -180 c-2 -99 -4 -214 -5 -255 -1 -41 -4
-80 -8 -86 -4 -6 -3 -25 2 -43 5 -17 8 -35 8 -39 0 -4 16 -15 36 -25 70 -33
143 -108 187 -190 19 -37 36 -57 44 -53 20 7 24 -3 14 -37 -5 -19 -5 -35 1
-41 6 -6 5 -16 -1 -28 -7 -14 -7 -23 2 -34 15 -18 45 -18 53 1 3 8 10 15 16
15 5 0 10 -7 10 -15 0 -8 7 -15 15 -15 9 0 15 9 15 25 0 16 -6 25 -15 25 -22
0 -18 23 5 38 19 11 20 23 20 172 l0 160 313 -2 312 -3 0 -85 0 -85 -213 -3
-213 -2 3 -88 3 -87 201 -3 202 -2 5 -33 c2 -17 2 -58 -1 -89 l-5 -58 -198 0
-197 0 -5 -28 c-3 -15 -6 -85 -6 -157 -1 -71 -3 -130 -4 -131 -1 -1 -47 -4
-102 -6 l-100 -4 3 194 c2 135 -1 198 -9 208 -10 13 -87 13 -108 0 -5 -3 -14
-34 -21 -68 -12 -66 -57 -165 -84 -187 -9 -8 -16 -19 -16 -25 -1 -16 -78 -72
-142 -101 -65 -30 -178 -46 -264 -38 -56 5 -61 4 -67 -16 -5 -21 -8 -22 -104
-25 -12 -1 -27 -6 -34 -13 -9 -9 -5 -13 17 -18 40 -9 95 -38 101 -53 3 -6 11
-12 19 -12 8 0 14 -5 14 -11 0 -6 -7 -9 -15 -5 -8 3 -22 -2 -30 -11 -9 -8 -19
-12 -23 -9 -3 4 0 11 7 16 18 10 7 40 -14 40 -9 0 -25 -5 -35 -10 -15 -8 -24
-6 -40 7 -11 10 -20 23 -20 29 0 6 -7 17 -15 24 -8 7 -15 22 -15 34 0 11 -1
32 -2 46 0 14 5 40 13 57 12 30 12 34 -13 60 -79 85 -122 214 -115 348 9 166
70 272 211 367 23 16 36 28 31 28 -17 0 -7 206 10 220 16 13 6 70 -11 70 -12
0 -14 58 -14 345 l0 345 -135 0 -135 0 0 83 c0 46 3 87 7 90 4 4 173 6 377 5
l371 -3 3 -87z m672 61 c115 -55 165 -135 165 -264 0 -70 -4 -87 -29 -133 -18
-32 -49 -67 -77 -88 l-48 -35 100 -152 c54 -83 99 -154 99 -157 0 -3 -49 -7
-109 -8 -82 -2 -112 1 -122 11 -8 8 -45 64 -84 126 l-70 112 -5 -103 c-7 -142
-25 -130 -25 17 l0 115 -48 0 -48 0 2 -117 c1 -79 -2 -118 -10 -121 -6 -2 -12
10 -13 30 -1 25 -3 20 -7 -17 l-6 -50 -100 0 -100 0 -3 433 -2 434 242 -4
c238 -3 244 -4 298 -29z m805 -34 c43 -109 177 -460 185 -485 7 -21 91 -242
115 -303 7 -16 -1 -17 -106 -15 l-114 3 -29 83 -28 82 -77 1 c-42 0 -113 2
-159 2 l-82 2 -31 -87 -32 -88 -98 0 c-54 0 -100 3 -102 8 -5 7 59 183 168
467 29 77 75 198 101 268 l47 128 109 -3 109 -3 24 -60z m7705 15 c0 -5 -4
-10 -10 -10 -5 0 -10 5 -10 10 0 6 5 10 10 10 6 0 10 -4 10 -10z m80 0 c0 -5
-2 -10 -4 -10 -3 0 -8 5 -11 10 -3 6 -1 10 4 10 6 0 11 -4 11 -10z m-240 -10
c0 -5 -5 -10 -11 -10 -6 0 -9 -9 -6 -19 5 -20 -28 -37 -39 -20 -3 5 0 9 6 9 6
0 16 11 22 25 11 25 28 34 28 15z m1940 -64 c-12 -12 -15 -8 -25 24 -8 25 -8
25 14 6 14 -13 18 -23 11 -30z m-12169 -13 c8 -16 23 -36 34 -45 27 -23 9 -43
-27 -29 -22 8 -26 17 -30 55 -4 53 3 58 23 19z m12286 -20 c-3 -10 -5 -4 -5
12 0 17 2 24 5 18 2 -7 2 -21 0 -30z m-2124 -3 c-3 -11 -9 -23 -14 -26 -10 -6
-12 39 -3 49 12 12 22 -3 17 -23z m-10237 -15 c6 -34 1 -55 -11 -43 -3 3 -9
22 -12 42 -8 48 14 48 23 1z m12354 -43 c0 -7 -4 -10 -10 -7 -5 3 -10 16 -10
28 0 18 2 19 10 7 5 -8 10 -21 10 -28z m-3425 1 c-4 -16 -7 -28 -8 -29 -9 -6
-57 -13 -57 -9 0 10 54 64 64 65 4 0 5 -12 1 -27z m1252 2 c-12 -25 -27 -33
-27 -15 0 12 22 39 32 40 3 0 1 -11 -5 -25z m-9475 -14 c2 -9 -2 -61 -9 -116
-6 -55 -14 -134 -18 -175 -4 -41 -9 -78 -12 -83 -3 -4 -5 -24 -5 -43 0 -40 34
-84 65 -84 14 0 17 -4 12 -17 -4 -10 -11 -33 -17 -50 -11 -39 -28 -44 -28 -9
0 14 -4 28 -10 31 -5 3 -10 17 -10 30 0 13 -4 27 -10 30 -6 4 -10 -20 -10 -64
l0 -71 -34 0 -35 0 6 58 c2 31 11 74 19 95 9 24 10 37 3 37 -6 0 -8 9 -3 23 4
12 6 52 5 89 -1 36 2 69 7 72 5 3 8 38 6 78 -1 40 1 77 4 83 3 5 5 28 5 52 -1
29 4 46 14 52 22 12 51 2 55 -18z m-647 -31 c-5 -8 -11 -8 -17 -2 -6 6 -7 16
-3 22 5 8 11 8 17 2 6 -6 7 -16 3 -22z m10529 -5 c-4 -8 -8 -15 -10 -15 -2 0
-4 7 -4 15 0 8 4 15 10 15 5 0 7 -7 4 -15z m487 5 c27 -15 24 -30 -6 -30 l-25
0 0 -127 c-1 -146 -8 -244 -20 -256 -4 -5 -6 85 -4 200 2 114 4 211 4 216 0
10 28 9 51 -3z m1304 -152 c12 -35 12 -43 -1 -55 -17 -17 -17 -28 -4 -54 6
-11 8 -24 4 -30 -4 -7 -15 6 -26 31 -18 38 -18 43 -4 59 12 14 14 24 6 52 -6
18 -9 63 -9 99 l1 65 10 -63 c4 -35 15 -82 23 -104z m-12385 120 c0 -5 -4 -8
-10 -8 -5 0 -10 10 -10 23 0 18 2 19 10 7 5 -8 10 -18 10 -22z m-52 -36 c2
-32 -1 -52 -7 -52 -6 0 -11 11 -11 24 0 13 -3 38 -7 56 -5 25 -3 32 8 28 9 -3
15 -23 17 -56z m8996 -12 c-2 -28 -8 -65 -14 -84 -15 -47 -74 -102 -128 -120
-68 -24 -85 -18 -25 7 29 12 64 32 78 45 36 31 67 105 63 148 -2 30 4 42 27
54 0 0 0 -23 -1 -50z m3503 18 c-3 -8 -6 -5 -6 6 -1 11 2 17 5 13 3 -3 4 -12
1 -19z m-3703 2 c-6 -6 -8 -31 -4 -62 9 -70 -5 -119 -46 -159 -38 -37 -46 -27
-12 16 17 22 22 45 26 109 4 79 13 106 35 106 8 0 8 -3 1 -10z m3746 -87 c-1
-11 -40 37 -40 49 0 6 9 -1 20 -15 11 -14 20 -29 20 -34z m-22 -78 c0 -16 -2
-15 -8 5 -11 34 -11 60 0 35 5 -11 8 -29 8 -40z m-11711 -37 c-3 -7 -5 -2 -5
12 0 14 2 19 5 13 2 -7 2 -19 0 -25z m-887 2 c0 -5 -2 -10 -4 -10 -3 0 -8 5
-11 10 -3 6 -1 10 4 10 6 0 11 -4 11 -10z m8785 -10 c3 -5 -1 -10 -10 -10 -9
0 -13 5 -10 10 3 6 8 10 10 10 2 0 7 -4 10 -10z m2025 6 c0 -3 -4 -8 -10 -11
-5 -3 -10 -1 -10 4 0 6 5 11 10 11 6 0 10 -2 10 -4z m1732 -63 c-2 -13 -9 -26
-15 -30 -7 -4 -8 0 -4 11 4 10 7 32 8 49 0 25 2 28 8 13 4 -11 6 -30 3 -43z
m-1082 15 c-12 -11 -28 -17 -39 -13 -31 9 -38 -16 -39 -135 -1 -148 -4 -163
-12 -70 -12 124 -11 218 2 226 18 11 71 21 91 16 17 -4 17 -6 -3 -24z m-10814
-5 c-3 -16 -11 -75 -17 -133 -6 -58 -13 -121 -15 -140 -18 -137 -33 -283 -33
-327 -1 -56 -7 -61 -57 -47 -21 6 -21 8 -9 62 6 32 13 89 14 127 1 43 8 79 18
94 12 18 12 25 3 31 -9 6 -11 19 -5 41 9 44 25 178 29 254 2 33 4 61 5 63 0 1
17 2 37 2 34 0 35 -2 30 -27z m4454 18 c0 -5 -13 -11 -30 -14 -16 -4 -30 -13
-30 -21 0 -7 -10 -16 -23 -18 -20 -4 -23 -1 -19 18 2 13 15 27 31 33 34 12 71
13 71 2z m3385 -1 c3 -5 -1 -10 -9 -10 -9 0 -16 5 -16 10 0 6 4 10 9 10 6 0
13 -4 16 -10z m2435 -9 c0 -13 -8 -21 -22 -23 -21 -3 -26 -18 -65 -212 -24
-116 -48 -215 -54 -220 -7 -8 -9 -4 -5 14 3 14 17 86 31 160 13 74 31 171 40
215 8 44 15 81 15 83 0 1 14 2 30 2 23 0 30 -5 30 -19z m95 9 c3 -5 -3 -10
-14 -10 -11 0 -22 -4 -25 -8 -7 -11 -14 -87 -26 -287 -11 -175 -20 -225 -20
-116 0 79 19 402 25 419 5 14 51 16 60 2z m-10718 -32 c-3 -8 -6 -5 -6 6 -1
11 2 17 5 13 3 -3 4 -12 1 -19z m11463 -33 c0 -3 -11 -10 -24 -15 -24 -9 -32
-44 -50 -225 -19 -184 -29 -235 -47 -235 -10 0 -21 -4 -24 -10 -3 -5 -11 -10
-17 -10 -7 0 -6 6 2 15 7 8 18 15 25 15 18 0 23 28 40 208 27 282 22 262 61
262 19 0 34 -2 34 -5z m-6890 -20 c10 -12 9 -16 -5 -21 -19 -8 -40 9 -31 25
10 15 21 14 36 -4z m65 4 c4 -6 13 -8 21 -5 8 3 14 -1 14 -10 0 -12 -6 -15
-22 -10 -13 3 -28 6 -35 6 -7 0 -10 7 -7 15 7 18 20 19 29 4z m3785 -49 c0 -8
-5 -22 -10 -30 -7 -11 -10 -7 -10 18 0 17 -4 32 -10 32 -5 0 -10 -5 -10 -12 0
-6 -2 -9 -5 -6 -4 3 -3 18 1 33 l7 28 18 -24 c10 -13 19 -31 19 -39z m2734 35
c3 -8 1 -15 -4 -15 -6 0 -10 7 -10 15 0 8 2 15 4 15 2 0 6 -7 10 -15z m1114
-48 c14 -20 23 -40 20 -43 -9 -8 -46 50 -52 82 -4 16 -3 22 0 14 3 -8 18 -32
32 -53z m-12338 43 c0 -6 -9 -20 -20 -32 -21 -23 -24 -18 -14 20 6 22 34 32
34 12z m8419 -32 c-6 -10 -14 -16 -20 -13 -5 4 -8 9 -6 13 2 4 7 16 11 27 6
16 9 17 16 5 5 -8 5 -21 -1 -32z m-3514 22 c3 -5 -3 -10 -14 -10 -11 0 -23 5
-26 10 -3 6 3 10 14 10 11 0 23 -4 26 -10z m-4838 -62 c-2 -13 -4 -3 -4 22 0
25 2 35 4 23 2 -13 2 -33 0 -45z m11150 20 c-3 -8 -6 -5 -6 6 -1 11 2 17 5 13
3 -3 4 -12 1 -19z m-1008 -4 c2 -2 -15 -4 -38 -4 -25 0 -40 4 -36 10 5 8 63 3
74 -6z m204 9 c-7 -2 -21 -2 -30 0 -10 3 -4 5 12 5 17 0 24 -2 18 -5z m-7870
-46 c-7 -11 -23 12 -23 32 0 11 4 9 14 -4 8 -11 12 -24 9 -28z m5922 -32 c3
-35 4 -69 0 -74 -3 -6 -6 -60 -6 -122 0 -61 -2 -109 -6 -106 -10 11 -16 367
-5 367 5 0 13 -29 17 -65z m-388 39 c-3 -3 -12 -4 -19 -1 -8 3 -5 6 6 6 11 1
17 -2 13 -5z m2798 -34 c-3 -5 -11 -10 -16 -10 -6 0 -7 5 -4 10 3 6 11 10 16
10 6 0 7 -4 4 -10z m-10193 -80 c-6 -46 -19 -70 -37 -70 -20 0 -19 36 1 44 11
4 14 13 10 31 -4 14 -1 34 6 45 12 18 13 19 19 2 4 -9 4 -33 1 -52z m-615 13
c-3 -10 -5 -2 -5 17 0 19 2 27 5 18 2 -10 2 -26 0 -35z m1498 -13 c3 -5 1 -10
-4 -10 -6 0 -11 5 -11 10 0 6 2 10 4 10 3 0 8 -4 11 -10z m942 -47 c-3 -10 -5
-4 -5 12 0 17 2 24 5 18 2 -7 2 -21 0 -30z m8652 -37 c2 -47 -9 -24 -13 30 -4
35 -2 42 4 24 4 -14 8 -38 9 -54z m1180 -14 c-1 -33 -2 -34 -9 -12 -12 36 -12
62 0 55 6 -3 10 -23 9 -43z m-9798 25 c-1 -12 -15 -9 -19 4 -3 6 1 10 8 8 6
-3 11 -8 11 -12z m-1678 -84 c4 -19 2 -33 -3 -33 -6 0 -10 17 -10 37 0 43 5
41 13 -4z m1697 27 c0 -5 -4 -10 -10 -10 -5 0 -10 5 -10 10 0 6 5 10 10 10 6
0 10 -4 10 -10z m8602 -35 c-6 -34 -12 -32 -12 6 0 16 4 28 9 25 4 -3 6 -17 3
-31z m1188 15 c0 -5 -2 -10 -4 -10 -3 0 -8 5 -11 10 -3 6 -1 10 4 10 6 0 11
-4 11 -10z m-12500 -87 c0 -5 -7 -17 -15 -27 -8 -11 -15 -30 -15 -42 0 -13 -4
-26 -10 -29 -16 -10 -12 31 7 70 15 31 34 47 33 28z m186 -50 c-10 -10 -19 5
-10 18 6 11 8 11 12 0 2 -7 1 -15 -2 -18z m2432 -432 c2 -333 0 -426 -10 -433
-19 -11 -186 -10 -193 2 -5 8 -9 533 -6 803 l1 58 103 -3 102 -3 3 -424z
m1270 -3 l-3 -433 -100 0 -100 0 -3 433 -2 432 105 0 105 0 -2 -432z m1270 85
l2 -343 205 0 205 0 0 -85 0 -85 -42 0 c-24 0 -149 -2 -278 -5 -129 -2 -250
-2 -267 1 l-33 6 0 429 0 430 103 -3 102 -3 3 -342z m-5223 242 c19 -34 21
-34 48 -20 l27 14 -6 -42 c-4 -23 -12 -45 -18 -49 -14 -9 -46 20 -46 42 0 9
-4 20 -8 26 -14 16 -32 64 -24 64 4 0 16 -16 27 -35z m12545 -5 c0 -5 -4 -10
-10 -10 -5 0 -10 5 -10 10 0 6 5 10 10 10 6 0 10 -4 10 -10z m-10140 -320 c0
-5 -14 -7 -31 -5 -45 6 -49 15 -6 15 21 0 37 -4 37 -10z m8680 6 c0 -3 -4 -8
-10 -11 -5 -3 -10 -1 -10 4 0 6 5 11 10 11 6 0 10 -2 10 -4z m-1405 -116 c8
-7 15 -18 15 -26 0 -7 4 -15 8 -18 5 -3 8 5 8 17 -1 12 -8 25 -16 29 -8 4 138
5 325 1 187 -3 341 -7 343 -8 11 -10 -16 -83 -40 -108 l-29 -31 -119 0 c-76
-1 -119 3 -117 9 2 6 13 11 25 13 12 2 22 8 22 14 0 5 -6 8 -14 5 -8 -3 -20 1
-26 9 -14 16 -77 19 -99 5 -10 -6 -25 -4 -44 6 l-29 15 18 -26 c11 -15 26 -23
35 -20 9 2 16 -2 16 -11 0 -23 -295 -13 -336 11 -33 19 -56 55 -66 103 l-7 34
56 -6 c31 -3 63 -11 71 -17z m1430 -9 c-6 -5 -21 -12 -35 -15 -24 -7 -24 -6
-6 8 21 17 57 23 41 7z m-10900 -51 c3 -5 1 -10 -4 -10 -6 0 -11 5 -11 10 0 6
2 10 4 10 3 0 8 -4 11 -10z m-180 -27 c0 -21 -1 -22 -12 -6 -7 9 -13 20 -13
23 0 4 6 7 13 7 6 0 12 -11 12 -24z m250 17 c3 -5 2 -10 -4 -10 -5 0 -13 5
-16 10 -3 6 -2 10 4 10 5 0 13 -4 16 -10z m-175 -19 c13 -25 13 -41 0 -41 -5
0 -7 7 -4 15 4 9 0 15 -7 16 -8 1 -20 2 -28 3 -8 0 -16 7 -18 14 -8 21 45 14
57 -7z m9939 -15 c13 -16 -2 -32 -19 -21 -5 3 -10 2 -10 -4 0 -6 -7 -8 -15 -5
-18 7 -20 30 -2 37 22 9 34 7 46 -7z m-8438 -129 c-13 -13 -15 11 -4 40 7 16
8 15 11 -6 2 -13 -1 -28 -7 -34z m-1318 29 c6 -15 -1 -26 -15 -26 -4 0 -8 9
-8 20 0 23 15 27 23 6z m1284 -12 c-3 -3 -12 -4 -19 -1 -8 3 -5 6 6 6 11 1 17
-2 13 -5z m1226 -19 c-5 -13 -23 -22 -23 -11 0 15 14 35 21 31 4 -3 6 -12 2
-20z m1637 -21 c0 -8 -5 -12 -10 -9 -6 4 -8 11 -5 16 9 14 15 11 15 -7z m4203
4 c12 -7 25 -17 30 -23 10 -14 7 -465 -4 -465 -6 0 -12 7 -16 16 -3 8 -12 13
-19 10 -7 -3 -16 4 -19 15 -8 24 -9 255 -1 267 3 5 -1 19 -8 33 -7 13 -11 29
-10 34 1 6 5 36 9 68 4 31 8 57 11 57 2 0 14 -6 27 -12z m-8453 -18 c0 -5 -4
-10 -10 -10 -5 0 -10 5 -10 10 0 6 5 10 10 10 6 0 10 -4 10 -10z m1430 -4 c0
-2 -7 -9 -15 -16 -13 -11 -14 -10 -9 4 5 14 24 23 24 12z m10271 -20 c1 -6 1
-18 0 -28 -1 -9 3 -19 9 -23 16 -10 12 -55 -5 -55 -8 0 -15 -9 -15 -20 0 -11
-7 -20 -15 -20 -8 0 -20 9 -27 20 -20 31 -28 24 -28 -24 0 -25 -4 -48 -10 -51
-6 -4 -10 8 -10 29 0 29 -4 36 -20 36 -16 0 -20 7 -20 38 l0 37 20 -25 c11
-14 20 -19 20 -12 0 6 8 12 18 13 14 0 13 2 -4 9 -22 9 -36 50 -24 71 10 15
30 3 30 -19 0 -11 7 -6 19 15 15 24 25 30 40 26 12 -3 22 -10 22 -17z m-3129
-21 c3 -14 1 -25 -3 -25 -5 0 -9 11 -9 25 0 14 2 25 4 25 2 0 6 -11 8 -25z
m-4333 -15 c5 0 8 -10 7 -22 -1 -16 -8 -24 -23 -26 -19 -3 -22 1 -18 27 5 40
18 62 23 39 2 -10 7 -18 11 -18z m-2094 10 c3 -5 1 -10 -5 -10 -7 0 -10 -7 -6
-15 3 -9 0 -15 -9 -15 -9 0 -15 10 -15 25 0 25 23 35 35 15z m8260 0 c8 -13
-5 -13 -25 0 -13 8 -13 10 2 10 9 0 20 -4 23 -10z m224 6 c-3 -3 -25 -6 -49
-7 -61 -2 -80 -8 -80 -24 0 -17 -30 -34 -47 -28 -21 8 -15 22 7 16 16 -4 20 0
20 21 0 26 1 26 77 26 42 0 74 -2 72 -4z m-8569 -26 c0 -19 -1 -19 -20 -3 -11
10 -20 19 -20 20 0 2 9 3 20 3 13 0 20 -7 20 -20z m8100 16 c0 -2 -7 -7 -16
-10 -8 -3 -12 -2 -9 4 6 10 25 14 25 6z m1364 -32 c9 -22 8 -24 -9 -18 -8 4
-15 12 -15 20 0 19 16 18 24 -2z m-10404 2 c0 -3 -4 -8 -10 -11 -5 -3 -10 -1
-10 4 0 6 5 11 10 11 6 0 10 -2 10 -4z m7480 -74 c0 -17 -4 -34 -10 -37 -5 -3
-10 -17 -10 -31 0 -13 -4 -24 -9 -24 -14 0 -23 73 -16 124 l7 46 19 -24 c11
-13 19 -38 19 -54z m-7662 38 c-5 -17 -8 -39 -5 -50 6 -22 -8 -36 -18 -20 -5
8 -11 7 -21 -1 -19 -16 -18 -3 8 53 24 54 54 69 36 18z m141 3 c0 -16 -4 -36
-8 -46 -6 -17 -8 -16 -19 8 -7 14 -17 23 -22 20 -6 -3 -10 -1 -10 5 0 7 9 14
20 17 11 3 20 9 20 14 0 5 5 9 10 9 6 0 10 -12 9 -27z m1226 17 c-3 -5 -35
-10 -71 -10 -36 0 -64 4 -64 10 0 6 30 10 71 10 44 0 68 -4 64 -10z m8261 -92
c-43 -127 -40 -116 -22 -93 16 19 16 19 35 0 10 -11 21 -34 24 -51 6 -31 6
-32 -43 -38 -55 -7 -70 -24 -70 -75 0 -30 -2 -31 -44 -31 -48 0 -62 11 -50 38
11 27 12 56 3 68 -14 18 -7 114 8 114 7 0 13 -9 13 -19 0 -30 11 -52 22 -45 6
4 20 7 31 8 17 1 30 22 66 116 49 124 68 130 27 8z m-9576 40 c0 -9 -24 -11
-32 -2 -3 3 -3 15 0 26 5 20 6 20 19 3 7 -11 13 -22 13 -27z m858 34 c7 -5
-16 -13 -61 -20 -57 -9 -82 -8 -115 1 -24 7 -40 16 -37 19 9 9 199 9 213 0z
m-1016 -34 c-15 -15 -24 -6 -16 16 5 12 10 14 17 7 8 -8 8 -14 -1 -23z m1091
-1 c3 4 27 6 54 4 44 -4 45 -5 18 -12 -43 -10 -105 -10 -105 -1 0 15 14 23 21
11 3 -6 9 -7 12 -2z m545 -2 c3 -3 -26 -5 -64 -4 -39 1 -79 -3 -90 -8 -12 -5
-55 -4 -114 4 l-95 12 106 -4 c58 -2 112 1 120 6 14 9 127 5 137 -6z m622 -5
c0 -5 -2 -10 -4 -10 -3 0 -8 5 -11 10 -3 6 -1 10 4 10 6 0 11 -4 11 -10z
m-1230 -4 c0 -3 -4 -8 -10 -11 -5 -3 -10 -1 -10 4 0 6 5 11 10 11 6 0 10 -2
10 -4z m587 -32 c0 -5 -4 -8 -10 -6 -6 2 -38 4 -71 4 -41 1 -54 4 -41 9 26 10
120 5 122 -7z m68 6 c-28 -12 -47 -12 -40 0 3 6 18 10 33 9 24 0 25 -1 7 -9z
m40 0 c3 -5 1 -10 -4 -10 -6 0 -11 5 -11 10 0 6 2 10 4 10 3 0 8 -4 11 -10z
m-905 -10 c17 -6 1 -8 -53 -9 -50 -1 -76 3 -72 9 7 12 89 12 125 0z m139 -11
c-22 -13 -31 -11 -17 5 7 8 17 12 22 9 4 -3 2 -9 -5 -14z m450 10 c-8 -5 -50
-8 -94 -8 -52 1 -69 4 -50 8 46 10 160 10 144 0z m-746 -6 c-7 -2 -19 -2 -25
0 -7 3 -2 5 12 5 14 0 19 -2 13 -5z m452 -3 c-3 -5 -11 -10 -16 -10 -6 0 -7 5
-4 10 3 6 11 10 16 10 6 0 7 -4 4 -10z m-1210 -10 c3 -5 1 -10 -4 -10 -6 0
-11 5 -11 10 0 6 2 10 4 10 3 0 8 -4 11 -10z m155 -5 c7 -9 10 -18 7 -22 -4
-3 -9 1 -13 10 -5 13 -9 14 -25 4 -10 -6 -19 -18 -19 -26 0 -8 -3 -12 -6 -8
-4 3 -4 18 0 32 7 28 36 34 56 10z m190 4 c0 -5 4 -7 10 -4 5 3 20 -1 32 -10
23 -17 23 -17 1 -11 -12 4 -24 2 -28 -4 -5 -8 -11 -8 -21 1 -16 13 -19 39 -4
39 6 0 10 -5 10 -11z m-140 -35 c0 -14 -4 -23 -10 -19 -5 3 -10 15 -10 26 0
10 5 19 10 19 6 0 10 -12 10 -26z m2025 7 c6 -10 -35 -54 -54 -59 -6 -1 -1 14
11 33 24 36 33 42 43 26z m145 -6 c7 -8 8 -15 2 -15 -5 0 -15 7 -22 15 -7 8
-8 15 -2 15 5 0 15 -7 22 -15z m200 -21 c0 -4 -11 -16 -25 -28 -25 -21 -25
-24 -10 -52 18 -35 4 -43 -25 -14 -22 22 -20 30 20 72 25 26 40 34 40 22z
m8790 -25 c0 -11 -4 -17 -10 -14 -5 3 -10 15 -10 26 0 11 5 17 10 14 6 -3 10
-15 10 -26z m-8670 -5 c0 -14 -4 -23 -9 -20 -5 3 -7 15 -4 26 7 28 13 25 13
-6z m5935 16 c13 -6 2 -7 -30 -3 -27 3 -52 7 -54 9 -9 8 65 2 84 -6z m135 -8
c0 -4 -26 -8 -58 -8 -31 -1 -51 1 -44 3 6 3 10 8 8 11 -2 4 18 5 45 4 27 -2
49 -7 49 -10z m-8620 -37 c0 -13 7 -31 16 -39 12 -13 12 -16 2 -16 -8 0 -19 5
-26 12 -15 15 -16 82 -2 73 6 -3 10 -17 10 -30z m-42 8 c-5 -25 -28 -28 -28
-4 0 12 6 21 16 21 9 0 14 -7 12 -17z m-108 -13 c0 -5 -5 -10 -11 -10 -5 0 -7
5 -4 10 3 6 8 10 11 10 2 0 4 -4 4 -10z m627 -27 c-3 -10 -5 -4 -5 12 0 17 2
24 5 18 2 -7 2 -21 0 -30z m1840 15 c-3 -8 -6 -5 -6 6 -1 11 2 17 5 13 3 -3 4
-12 1 -19z m8934 -31 c-8 -8 -11 -4 -11 14 0 33 14 47 18 19 2 -12 -1 -27 -7
-33z m-11331 13 c0 -25 -45 -73 -63 -67 -7 2 -12 12 -12 23 0 13 8 20 28 22
19 2 27 9 27 23 0 10 5 19 10 19 6 0 10 -9 10 -20z m9337 -12 c-3 -7 -5 -2 -5
12 0 14 2 19 5 13 2 -7 2 -19 0 -25z m-250 6 c-3 -3 -12 -4 -19 -1 -8 3 -5 6
6 6 11 1 17 -2 13 -5z m-6460 -36 c-3 -8 -6 -5 -6 6 -1 11 2 17 5 13 3 -3 4
-12 1 -19z m7278 12 c-3 -5 -43 -10 -88 -10 -57 0 -77 3 -67 10 20 13 163 13
155 0z m42 4 c-3 -3 -12 -4 -19 -1 -8 3 -5 6 6 6 11 1 17 -2 13 -5z m-9867
-45 c0 -5 -7 -6 -15 -3 -10 4 -15 0 -15 -12 0 -9 -2 -15 -5 -12 -4 3 -3 18 1
32 5 21 9 24 20 15 8 -6 14 -15 14 -20z m2240 21 c0 -5 -5 -10 -11 -10 -5 0
-7 5 -4 10 3 6 8 10 11 10 2 0 4 -4 4 -10z m7030 -25 c0 -14 -4 -25 -10 -25
-11 0 -14 33 -3 43 11 11 13 8 13 -18z m-6915 5 c-3 -5 -11 -10 -16 -10 -6 0
-7 5 -4 10 3 6 11 10 16 10 6 0 7 -4 4 -10z m-1970 -10 c-3 -5 -12 -10 -18
-10 -7 0 -6 4 3 10 19 12 23 12 15 0z m1865 0 c0 -5 -5 -10 -11 -10 -5 0 -7 5
-4 10 3 6 8 10 11 10 2 0 4 -4 4 -10z m410 -5 c0 -8 -4 -15 -9 -15 -5 0 -11
-8 -14 -17 -4 -17 -4 -17 -12 0 -4 10 -2 23 5 32 16 19 30 19 30 0z m-2490 -5
c0 -5 -5 -10 -11 -10 -5 0 -7 5 -4 10 3 6 8 10 11 10 2 0 4 -4 4 -10z m2030
-12 c0 -6 -7 -7 -16 -4 -9 3 -18 6 -20 6 -3 0 -3 4 1 10 7 11 35 2 35 -12z
m-2320 -20 c0 -25 -3 -29 -10 -18 -13 20 -13 50 0 50 6 0 10 -15 10 -32z m118
-53 c-2 -2 -14 -5 -28 -7 -35 -4 -37 23 -3 43 27 14 28 14 31 -9 2 -13 2 -25
0 -27z m-158 38 c0 -5 -5 -15 -10 -23 -8 -12 -10 -11 -10 8 0 12 5 22 10 22 6
0 10 -3 10 -7z m231 -56 c-13 -13 -14 5 -3 43 l7 25 3 -29 c2 -16 -1 -33 -7
-39z m199 28 c0 -8 -4 -15 -10 -15 -5 0 -10 7 -10 15 0 8 5 15 10 15 6 0 10
-7 10 -15z m8538 8 c-10 -2 -15 -10 -11 -19 3 -10 0 -12 -10 -8 -8 3 -18 1
-22 -5 -3 -6 -15 -11 -26 -11 -11 0 -17 4 -14 10 4 6 -3 6 -21 0 -19 -8 -30
-7 -41 2 -12 10 -18 9 -29 -7 -12 -16 -14 -16 -14 -3 0 20 26 29 110 38 79 9
102 9 78 3z m-8593 -39 c9 -20 13 -39 9 -42 -3 -4 -9 -1 -11 6 -3 7 -11 19
-19 26 -16 16 -19 46 -5 46 5 0 16 -16 26 -36z m82 4 c-3 -7 -5 -2 -5 12 0 14
2 19 5 13 2 -7 2 -19 0 -25z m2343 8 c0 -3 -4 -8 -10 -11 -5 -3 -10 -1 -10 4
0 6 5 11 10 11 6 0 10 -2 10 -4z m6080 -26 c0 -5 -4 -10 -10 -10 -5 0 -10 5
-10 10 0 6 5 10 10 10 6 0 10 -4 10 -10z m-8650 -26 c0 -8 -4 -12 -10 -9 -5 3
-10 10 -10 16 0 5 5 9 10 9 6 0 10 -7 10 -16z"/>
<path d="M7966 6355 c4 -8 8 -15 10 -15 2 0 4 7 4 15 0 8 -4 15 -10 15 -5 0
-7 -7 -4 -15z"/>
<path d="M7952 6053 c5 -25 28 -28 28 -4 0 12 -6 21 -16 21 -9 0 -14 -7 -12
-17z"/>
<path d="M8078 5901 c-4 -13 -11 -20 -17 -16 -6 3 -11 3 -12 -2 0 -4 -2 -26
-4 -48 -3 -23 1 -46 8 -55 7 -8 19 -28 27 -44 l15 -30 3 39 c2 27 -1 41 -12
47 -18 10 -21 59 -5 75 6 6 9 21 7 34 l-3 24 -7 -24z"/>
<path d="M7670 5586 c0 -17 26 -46 41 -46 6 0 9 12 7 28 -2 19 -9 28 -25 30
-15 2 -23 -2 -23 -12z"/>
<path d="M7396 5022 c-9 -17 -19 -32 -23 -34 -14 -6 -43 -78 -32 -78 7 0 9 -9
5 -22 -16 -51 -16 -115 -1 -128 11 -9 13 -23 9 -51 -5 -29 -2 -42 11 -55 13
-14 16 -29 13 -66 -4 -39 -3 -46 8 -37 8 6 17 27 21 48 4 20 8 39 9 44 1 4 2
14 3 23 0 8 5 13 10 10 5 -4 7 11 4 33 -5 33 -2 40 16 46 15 4 21 15 21 35 0
16 5 32 11 36 6 3 9 15 6 25 -3 10 -1 21 3 24 5 3 3 19 -3 35 -9 24 -9 33 0
38 8 5 10 21 7 44 -6 33 -8 35 -25 25 -15 -9 -18 -19 -13 -39 4 -19 1 -28 -6
-28 -7 0 -10 -8 -7 -20 3 -10 -1 -27 -9 -37 -12 -16 -13 -15 -14 14 0 17 4 34
10 38 6 4 6 15 0 31 -13 33 -13 34 6 34 21 0 14 34 -8 38 -10 2 -23 -8 -32
-26z"/>
<path d="M7610 4966 c0 -8 3 -23 7 -33 6 -16 8 -15 14 7 7 24 7 24 8 -4 1 -23
4 -27 12 -19 9 9 8 18 -5 37 -18 28 -36 34 -36 12z"/>
<path d="M7846 4812 c-3 -5 1 -15 9 -22 16 -14 20 -3 6 19 -5 8 -11 9 -15 3z"/>
<path d="M7520 4770 c0 -5 5 -10 11 -10 5 0 7 5 4 10 -3 6 -8 10 -11 10 -2 0
-4 -4 -4 -10z"/>
<path d="M7752 4655 c0 -16 2 -22 5 -12 2 9 2 23 0 30 -3 6 -5 -1 -5 -18z"/>
<path d="M7765 4538 c-9 -59 -8 -55 -19 -86 -6 -17 -11 -20 -21 -12 -9 8 -14
5 -18 -10 -3 -12 -11 -20 -19 -19 -29 4 -33 -2 -30 -46 2 -25 7 -45 11 -45 3
0 6 -20 7 -44 0 -28 -3 -44 -10 -43 -6 1 -12 -13 -14 -30 -2 -18 -7 -33 -12
-33 -5 0 -6 -8 -3 -17 5 -13 1 -12 -17 5 -17 16 -21 25 -13 30 33 21 51 144
25 174 -8 9 -11 21 -8 26 7 12 -22 25 -35 16 -5 -3 -7 -9 -4 -14 3 -4 6 -27 7
-49 1 -23 5 -41 10 -41 15 0 8 -37 -12 -60 -26 -30 -25 -55 2 -75 20 -13 21
-18 10 -35 -10 -17 -10 -20 4 -20 14 0 14 -1 0 -16 -9 -8 -16 -20 -16 -26 0
-6 -3 -8 -7 -4 -5 4 -8 17 -8 28 0 28 -32 48 -45 28 -5 -9 -5 -19 0 -26 6 -6
8 -13 5 -16 -3 -2 6 -15 20 -28 27 -25 31 -50 14 -82 -8 -15 -8 -19 1 -13 13
8 41 -25 33 -38 -3 -5 4 -6 16 -2 21 6 30 -8 11 -20 -6 -4 -8 -10 -5 -15 3 -5
14 -42 23 -82 15 -61 22 -74 40 -76 18 -3 22 2 22 22 0 14 5 26 10 26 6 0 10
-6 10 -14 0 -19 39 -28 60 -13 12 8 17 25 16 52 -1 22 3 43 9 47 5 4 7 9 4 12
-4 4 -56 -18 -111 -49 -10 -5 -18 -18 -18 -27 0 -10 -4 -18 -9 -18 -14 0 -4
50 15 71 21 23 13 36 -9 14 -15 -14 -17 -14 -27 4 -14 28 -12 74 5 97 17 22
20 100 5 109 -23 14 -42 -18 -38 -62 2 -34 0 -43 -12 -41 -8 2 -17 19 -21 38
-6 29 -3 38 18 60 14 14 32 39 39 57 10 22 19 31 29 27 11 -5 15 1 15 25 0 19
6 34 15 37 9 4 15 19 15 36 0 37 16 68 35 68 23 0 38 38 30 79 -4 20 -8 73 -9
118 -1 46 -5 85 -8 88 -3 3 -9 -18 -13 -47z"/>
<path d="M7677 4513 c-10 -9 -9 -73 1 -73 6 0 12 80 6 80 0 0 -4 -3 -7 -7z"/>
<path d="M7636 4495 c-3 -8 -1 -15 4 -15 6 0 10 7 10 15 0 8 -2 15 -4 15 -2 0
-6 -7 -10 -15z"/>
<path d="M7606 4481 c-9 -14 4 -41 20 -41 8 0 14 6 14 14 0 18 -26 40 -34 27z"/>
<path d="M7530 4342 c0 -19 12 -42 22 -42 14 0 5 43 -9 48 -7 2 -13 -1 -13 -6z"/>
<path d="M7810 3880 c0 -5 7 -7 15 -4 8 4 15 8 15 10 0 2 -7 4 -15 4 -8 0 -15
-4 -15 -10z"/>
<path d="M7740 3640 c0 -5 5 -10 11 -10 5 0 7 5 4 10 -3 6 -8 10 -11 10 -2 0
-4 -4 -4 -10z"/>
<path d="M8340 2955 c0 -8 4 -15 9 -15 5 0 14 7 21 15 10 13 9 15 -9 15 -12 0
-21 -6 -21 -15z"/>
<path d="M8241 2801 c-1 -24 2 -32 9 -25 7 7 7 19 1 35 -9 23 -10 22 -10 -10z"/>
<path d="M7805 2810 c-3 -5 -1 -10 4 -10 6 0 11 5 11 10 0 6 -2 10 -4 10 -3 0
-8 -4 -11 -10z"/>
<path d="M8077 2784 c-3 -3 -3 -12 -1 -19 3 -7 -3 -15 -13 -18 -10 -3 -6 -4
10 -4 21 1 27 6 27 24 0 22 -10 30 -23 17z"/>
<path d="M8014 2766 c-3 -9 -4 -23 -1 -31 4 -8 2 -17 -3 -20 -6 -4 -10 -14
-10 -25 0 -13 5 -17 21 -13 18 5 20 11 14 52 -7 52 -12 61 -21 37z"/>
<path d="M7927 2740 c3 -11 7 -20 9 -20 2 0 4 9 4 20 0 11 -4 20 -9 20 -5 0
-7 -9 -4 -20z"/>
<path d="M7897 2700 c-4 -18 -3 -38 1 -42 11 -11 62 8 62 22 0 13 -17 13 -25
0 -9 -14 -28 -12 -22 3 2 6 1 21 -3 32 -5 16 -8 13 -13 -15z"/>
<path d="M8262 2705 c-12 -26 -7 -31 17 -16 9 6 10 14 4 25 -8 15 -11 14 -21
-9z"/>
<path d="M8050 2701 c0 -5 5 -13 10 -16 6 -3 10 -2 10 4 0 5 -4 13 -10 16 -5
3 -10 2 -10 -4z"/>
<path d="M8090 2687 c-14 -8 -24 -18 -23 -24 1 -6 -9 -14 -22 -17 -14 -4 -25
-11 -25 -17 0 -15 31 -23 40 -9 6 10 9 10 15 0 5 -8 1 -16 -8 -21 -12 -7 -14
-19 -10 -44 4 -26 2 -36 -10 -41 -27 -10 -48 -61 -37 -90 6 -14 9 -28 9 -32
-5 -29 5 -56 25 -77 14 -14 21 -27 16 -30 -5 -3 -11 -1 -15 5 -9 15 -25 12
-25 -5 0 -9 9 -15 25 -15 14 0 25 -5 25 -11 0 -7 10 -9 25 -5 28 7 29 7 15
-28 -6 -16 -17 -26 -30 -26 -11 0 -25 -9 -32 -20 -17 -27 -38 -25 -38 2 0 16
-3 19 -11 11 -18 -18 -1 -53 26 -53 12 0 23 -6 22 -12 -1 -42 4 -48 37 -48 46
0 63 22 42 52 -23 33 -20 46 15 53 22 5 36 2 50 -11 21 -19 27 -17 32 12 2 10
11 35 20 55 18 41 12 79 -12 79 -9 0 -22 -9 -29 -20 -16 -26 -21 -25 -55 4
-25 22 -28 30 -26 78 2 29 10 66 20 81 16 27 17 27 22 6 3 -12 3 -44 0 -72 -5
-40 -3 -48 7 -42 10 6 12 3 8 -13 -7 -25 5 -28 45 -9 16 7 25 18 23 27 -3 8
-7 36 -11 62 -3 26 -10 50 -16 53 -5 4 -7 11 -3 16 3 5 10 6 16 3 6 -4 9 -1 6
7 -3 8 -14 15 -25 17 -17 3 -20 10 -18 47 0 25 -3 45 -7 45 -4 0 -8 7 -8 15 0
8 -4 15 -10 15 -5 0 -10 5 -10 10 0 6 9 10 20 10 12 0 20 7 20 16 0 14 -3 14
-15 4 -13 -10 -19 -10 -33 4 -22 19 -30 20 -62 3z m12 -89 c-7 -7 -12 -8 -12
-2 0 14 12 26 19 19 2 -3 -1 -11 -7 -17z m61 -33 c-8 -22 -22 -18 -16 5 3 11
9 17 14 15 4 -3 6 -12 2 -20z m-44 -54 c17 -11 7 -41 -13 -41 -13 0 -26 20
-26 41 0 11 21 11 39 0z"/>
<path d="M7842 2645 c-14 -30 -16 -55 -4 -55 4 0 13 -15 21 -32 40 -97 55
-128 63 -128 4 0 8 5 8 10 0 6 7 10 15 10 9 0 15 9 15 25 0 14 5 25 11 25 7 0
9 10 7 24 -4 17 -1 23 9 19 7 -3 13 0 13 6 0 7 -12 11 -27 9 -20 -2 -28 2 -31
16 -6 29 -27 46 -57 46 -19 0 -26 4 -22 13 3 8 2 19 -2 26 -5 8 -11 3 -19 -14z"/>
<path d="M7807 2643 c-4 -3 -7 -15 -7 -25 0 -10 -4 -18 -10 -18 -5 0 -10 -7
-10 -15 0 -8 -6 -15 -14 -15 -19 0 -29 -30 -15 -46 17 -21 29 -17 29 11 0 15
6 25 14 25 9 0 15 15 18 43 5 46 5 50 -5 40z"/>
<path d="M8330 2595 c-1 -5 -5 -29 -9 -52 -10 -52 3 -57 19 -8 8 24 8 40 1 52
-6 10 -11 14 -11 8z"/>
<path d="M7674 2526 c-3 -8 -4 -23 -2 -33 3 -11 6 -6 9 15 6 34 2 42 -7 18z"/>
<path d="M7852 2506 c6 -14 15 -26 20 -26 10 0 -7 36 -22 45 -6 4 -5 -5 2 -19z"/>
<path d="M7998 2509 c-10 -5 -18 -17 -18 -24 0 -23 16 -17 28 10 6 14 11 25 9
25 -1 0 -10 -5 -19 -11z"/>
<path d="M7803 2503 c-20 -7 -15 -19 12 -31 20 -9 25 -9 25 2 0 18 -22 34 -37
29z"/>
<path d="M7780 2363 c0 -12 14 -24 42 -37 42 -18 43 -18 57 3 7 12 19 21 27
21 7 0 15 4 19 9 3 6 -15 9 -42 8 -27 -1 -60 2 -75 7 -24 7 -28 5 -28 -11z"/>
<path d="M7956 2372 c-2 -4 4 -17 14 -30 19 -23 35 -16 24 11 -6 18 -31 30
-38 19z"/>
<path d="M8260 2340 c0 -11 4 -20 9 -20 5 0 7 9 4 20 -3 11 -7 20 -9 20 -2 0
-4 -9 -4 -20z"/>
<path d="M8034 2231 c10 -11 25 -17 33 -14 14 5 13 8 -3 20 -10 7 -24 13 -32
13 -12 0 -12 -4 2 -19z"/>
<path d="M5840 6679 c0 -11 5 -17 10 -14 6 3 10 13 10 21 0 8 -4 14 -10 14 -5
0 -10 -9 -10 -21z"/>
<path d="M5950 6529 c0 -5 5 -7 10 -4 6 3 10 8 10 11 0 2 -4 4 -10 4 -5 0 -10
-5 -10 -11z"/>
<path d="M6977 6399 c7 -7 15 -10 18 -7 3 3 -2 9 -12 12 -14 6 -15 5 -6 -5z"/>
<path d="M6292 4760 c0 -14 2 -19 5 -12 2 6 2 18 0 25 -3 6 -5 1 -5 -13z"/>
<path d="M6370 4753 c0 -7 -7 -13 -15 -13 -8 0 -15 -7 -15 -15 0 -8 -4 -15
-10 -15 -13 0 -8 -42 7 -57 6 -7 19 -13 27 -13 13 0 16 -13 16 -70 0 -40 4
-70 10 -70 6 0 10 23 10 50 0 43 3 52 22 59 21 8 21 8 1 22 -10 8 -22 23 -26
34 -6 18 -5 18 12 -2 20 -24 31 -21 31 10 0 10 -9 21 -20 24 -11 3 -20 11 -20
17 0 17 -29 54 -30 39z m0 -93 c0 -5 -4 -10 -10 -10 -5 0 -10 5 -10 10 0 6 5
10 10 10 6 0 10 -4 10 -10z"/>
<path d="M6327 4503 c-11 -10 -8 -20 7 -26 10 -4 12 0 9 14 -6 21 -7 22 -16
12z"/>
<path d="M6272 4475 c-6 -14 -14 -53 -18 -87 -6 -62 -5 -63 22 -75 36 -16 44
-16 44 1 0 7 9 20 19 27 26 19 38 59 18 59 -9 0 -18 -6 -20 -12 -9 -21 -25 11
-33 60 -8 51 -17 59 -32 27z"/>
<path d="M6134 4425 c-11 -59 35 -136 52 -90 4 8 13 15 21 15 16 0 14 21 -2
22 -14 1 -32 30 -37 57 -5 39 -26 36 -34 -4z"/>
<path d="M6540 4340 c0 -54 19 -86 44 -77 13 5 16 16 14 39 -2 28 1 34 20 36
12 2 22 6 22 8 0 16 -36 37 -66 39 l-34 2 0 -47z"/>
<path d="M6580 4240 c-10 -6 -11 -14 -4 -29 9 -20 9 -20 21 4 12 27 5 39 -17
25z"/>
<path d="M6161 4014 c0 -11 3 -14 6 -6 3 7 2 16 -1 19 -3 4 -6 -2 -5 -13z"/>
<path d="M4496 3983 c-8 -44 -1 -83 14 -83 15 0 16 14 5 70 l-12 55 -7 -42z"/>
<path d="M4472 3970 c0 -19 2 -27 5 -17 2 9 2 25 0 35 -3 9 -5 1 -5 -18z"/>
<path d="M6010 3794 c-7 -19 -6 -29 3 -39 22 -21 38 -3 31 33 -8 39 -21 41
-34 6z"/>
<path d="M5837 3633 c-4 -3 -7 -13 -7 -22 1 -13 3 -13 11 2 11 19 8 33 -4 20z"/>
<path d="M5811 3254 c0 -11 3 -14 6 -6 3 7 2 16 -1 19 -3 4 -6 -2 -5 -13z"/>
<path d="M3842 3180 c0 -14 2 -19 5 -12 2 6 2 18 0 25 -3 6 -5 1 -5 -13z"/>
<path d="M3690 3068 c0 -9 5 -20 10 -23 13 -8 13 5 0 25 -8 13 -10 13 -10 -2z"/>
<path d="M3764 3043 c3 -10 13 -51 22 -91 9 -40 18 -71 21 -69 2 3 0 22 -6 44
-14 48 -14 93 -1 93 19 0 10 17 -16 29 -22 10 -25 9 -20 -6z"/>
<path d="M3831 2994 c0 -11 3 -14 6 -6 3 7 2 16 -1 19 -3 4 -6 -2 -5 -13z"/>
<path d="M3812 2850 c0 -14 2 -19 5 -12 2 6 2 18 0 25 -3 6 -5 1 -5 -13z"/>
<path d="M4433 2694 c-21 -30 -59 -84 -85 -119 -27 -35 -48 -69 -48 -74 0 -5
-5 -13 -10 -16 -7 -4 -8 7 -4 33 6 38 5 40 -25 47 -17 4 -36 15 -41 26 -6 10
-17 19 -25 19 -8 0 -23 9 -34 21 l-19 21 -29 -44 c-54 -79 -105 -172 -96 -175
5 -2 7 -19 5 -38 -4 -32 -2 -35 22 -35 14 0 26 -4 26 -10 0 -19 -39 -10 -54
12 -16 22 -16 22 -16 -15 0 -21 6 -45 14 -53 12 -12 12 -20 0 -60 -8 -28 -15
-103 -16 -188 l-3 -141 144 0 144 0 2 33 c2 18 8 38 14 46 10 11 6 21 -18 45
-37 38 -40 75 -9 92 18 10 24 8 39 -10 9 -11 22 -21 27 -21 17 0 -2 53 -24 64
-10 6 -23 17 -27 24 -13 20 -34 14 -41 -11 -7 -30 -41 -74 -68 -88 -18 -10
-18 -9 -8 10 6 12 14 21 18 21 16 0 49 105 51 165 1 22 6 42 11 45 5 3 9 19 8
35 -1 17 1 44 6 60 6 24 5 28 -5 18 -7 -7 -22 -13 -32 -13 -17 0 -15 5 13 31
20 20 35 27 39 21 4 -7 14 -1 26 15 11 15 27 34 36 42 8 9 23 33 33 54 9 20
21 35 27 32 5 -4 9 1 9 9 0 9 4 16 10 16 5 0 7 8 3 18 -3 9 -3 14 2 10 8 -7
65 57 65 73 0 22 -22 4 -57 -47z m-253 -141 c0 -58 -6 -53 -14 10 -5 33 -3 47
4 42 5 -3 10 -27 10 -52z m-3 -105 c-3 -7 -5 -2 -5 12 0 14 2 19 5 13 2 -7 2
-19 0 -25z m-87 -388 c-19 -12 -30 -12 -30 -1 0 10 31 20 40 14 2 -2 -2 -8
-10 -13z m-40 -14 c0 -9 -30 -14 -35 -6 -4 6 3 10 14 10 12 0 21 -2 21 -4z"/>
<path d="M3778 2684 c-3 -22 -1 -43 3 -48 5 -6 9 -18 9 -28 0 -13 8 -18 25
-18 35 0 32 29 -5 43 -16 6 -30 15 -30 20 0 4 5 5 10 2 12 -8 13 35 1 54 -6 9
-10 1 -13 -25z"/>
<path d="M3851 2683 c0 -5 4 -17 9 -28 8 -18 9 -17 9 8 1 15 -3 27 -9 27 -5 0
-10 -3 -9 -7z"/>
<path d="M5246 2683 c-7 -8 12 -43 24 -43 15 0 12 37 -4 43 -8 3 -17 3 -20 0z"/>
<path d="M3650 2610 c0 -6 7 -10 15 -10 8 0 15 2 15 4 0 2 -7 6 -15 10 -8 3
-15 1 -15 -4z"/>
<path d="M3760 2590 c0 -5 5 -10 11 -10 5 0 7 5 4 10 -3 6 -8 10 -11 10 -2 0
-4 -4 -4 -10z"/>
<path d="M3740 2535 c0 -8 9 -19 20 -25 18 -9 20 -8 20 15 0 18 -5 25 -20 25
-11 0 -20 -7 -20 -15z"/>
<path d="M5206 2505 c-3 -8 -1 -15 4 -15 6 0 10 7 10 15 0 8 -2 15 -4 15 -2 0
-6 -7 -10 -15z"/>
<path d="M5225 2459 c-4 -6 -5 -12 -2 -15 2 -3 7 2 10 11 7 17 1 20 -8 4z"/>
<path d="M5276 2452 c-3 -6 -1 -14 5 -17 14 -9 20 -2 10 14 -6 8 -11 9 -15 3z"/>
<path d="M4311 2424 c0 -11 3 -14 6 -6 3 7 2 16 -1 19 -3 4 -6 -2 -5 -13z"/>
<path d="M5548 2328 c-1 -35 -2 -81 -2 -103 l-1 -40 77 -3 c134 -5 195 23 203
93 l5 40 -18 -38 c-21 -43 -51 -77 -37 -42 5 11 9 30 9 43 1 12 5 22 9 22 5 0
5 5 1 11 -4 7 -7 24 -6 40 0 22 -3 26 -15 22 -9 -4 -14 -2 -11 3 3 5 -12 10
-35 11 -24 2 -44 -2 -49 -10 -6 -9 -8 -9 -8 1 0 8 -19 12 -60 12 l-60 0 -2
-62z"/>
<path d="M5803 2338 c-2 -16 1 -18 10 -9 7 7 8 14 1 21 -6 6 -10 2 -11 -12z"/>
<path d="M3671 2304 c0 -11 3 -14 6 -6 3 7 2 16 -1 19 -3 4 -6 -2 -5 -13z"/>
<path d="M4391 2024 c0 -11 3 -14 6 -6 3 7 2 16 -1 19 -3 4 -6 -2 -5 -13z"/>
<path d="M8817 2591 c-4 -24 -5 -46 -2 -49 11 -11 16 8 13 49 l-3 44 -8 -44z"/>
<path d="M8871 2614 c0 -11 3 -14 6 -6 3 7 2 16 -1 19 -3 4 -6 -2 -5 -13z"/>
<path d="M8805 2509 c-4 -6 0 -18 9 -27 15 -15 16 -15 16 5 0 25 -15 38 -25
22z"/>
<path d="M8695 2449 c-44 -27 -89 -49 -100 -49 -27 0 -41 -11 -47 -37 -4 -17
-1 -24 14 -29 14 -4 17 -9 9 -13 -14 -9 -10 -86 6 -116 6 -11 14 -34 17 -51 7
-31 45 -73 103 -112 35 -24 43 -27 43 -12 0 6 -7 10 -15 10 -8 0 -15 5 -15 10
0 6 9 10 20 10 27 0 60 35 60 63 0 12 -9 31 -21 40 -19 17 -20 20 -5 40 9 12
23 31 31 43 11 15 13 34 9 67 -4 26 -10 44 -15 42 -17 -11 -17 13 1 28 15 13
18 24 13 49 -13 69 -20 70 -108 17z"/>
<path d="M8808 2179 c-14 -15 -14 -18 -2 -23 8 -3 14 -19 14 -38 0 -24 3 -29
11 -21 8 8 9 25 3 55 -8 41 -10 42 -26 27z"/>
<path d="M310 2830 c0 -19 3 -21 12 -12 9 9 9 15 0 24 -9 9 -12 7 -12 -12z"/>
<path d="M337 2614 c-8 -8 3 -34 14 -34 5 0 9 9 9 20 0 19 -11 26 -23 14z"/>
<path d="M1208 1267 c-59 -11 -115 -58 -147 -122 -34 -68 -35 -198 -3 -269 15
-32 26 -46 36 -43 9 4 12 0 9 -12 -3 -11 5 -22 21 -31 24 -12 28 -11 49 8 23
22 24 22 41 3 15 -16 15 -19 1 -24 -27 -11 -16 -25 25 -32 118 -20 248 86 253
208 2 41 2 41 -43 51 l-45 9 48 10 c26 5 47 15 47 21 0 7 -7 35 -15 64 -37
122 -144 184 -277 159z m93 -480 c-13 -13 -26 -3 -16 12 3 6 11 8 17 5 6 -4 6
-10 -1 -17z"/>
<path d="M965 609 c-4 -11 -4 -23 -1 -26 8 -9 47 28 40 38 -10 16 -33 9 -39
-12z"/>
<path d="M975 560 c-3 -6 1 -7 9 -4 18 7 21 14 7 14 -6 0 -13 -4 -16 -10z"/>
<path d="M1880 2295 l0 -115 92 0 c119 0 172 22 189 81 16 53 2 98 -40 126
-30 20 -46 23 -137 23 l-104 0 0 -115z"/>
<path d="M2835 2228 c-21 -62 -42 -121 -47 -130 -8 -17 -1 -18 87 -18 52 0 95
2 95 4 0 8 -80 228 -88 243 -6 10 -20 -20 -47 -99z"/>
<path d="M9963 893 c9 -2 17 -11 17 -19 0 -8 5 -14 10 -14 6 0 10 9 10 20 0
15 -6 20 -27 19 -17 -1 -21 -3 -10 -6z"/>
<path d="M10145 890 c-3 -5 -1 -10 4 -10 6 0 11 5 11 10 0 6 -2 10 -4 10 -3 0
-8 -4 -11 -10z"/>
<path d="M9770 845 c0 -8 2 -15 4 -15 2 0 6 7 10 15 3 8 1 15 -4 15 -6 0 -10
-7 -10 -15z"/>
<path d="M9853 824 c-11 -24 -11 -25 8 -12 21 13 27 30 12 35 -4 2 -13 -9 -20
-23z"/>
<path d="M9910 833 c0 -16 38 -45 49 -38 6 3 11 1 11 -6 0 -17 29 22 30 40 0
11 -4 11 -23 -2 -20 -13 -25 -13 -45 1 -12 8 -22 10 -22 5z"/>
<path d="M10301 824 c0 -11 3 -14 6 -6 3 7 2 16 -1 19 -3 4 -6 -2 -5 -13z"/>
<path d="M6032 7189 c2 -6 8 -10 13 -10 5 0 11 4 13 10 2 6 -4 11 -13 11 -9 0
-15 -5 -13 -11z"/>
<path d="M6070 7191 c0 -17 18 -21 24 -6 3 9 0 15 -9 15 -8 0 -15 -4 -15 -9z"/>
<path d="M7347 7178 c3 -13 15 -33 27 -46 l21 -24 6 24 c16 55 11 68 -25 68
-30 0 -34 -3 -29 -22z"/>
<path d="M7795 7183 c4 -10 10 -39 12 -65 3 -27 8 -48 12 -48 3 0 13 15 21 33
10 21 25 35 46 40 18 5 37 20 43 33 l11 24 -76 0 c-69 0 -75 -2 -69 -17z"/>
<path d="M7481 7101 c-1 -27 2 -32 11 -23 8 8 8 17 0 34 -10 22 -11 21 -11
-11z"/>
<path d="M7540 7120 c0 -5 5 -10 11 -10 5 0 7 5 4 10 -3 6 -8 10 -11 10 -2 0
-4 -4 -4 -10z"/>
<path d="M12544 1745 c-4 -10 -2 -25 5 -34 6 -9 16 -28 22 -43 6 -16 18 -28
26 -28 10 0 13 5 8 18 -4 9 -12 31 -17 47 -6 17 -17 36 -24 44 -11 13 -14 12
-20 -4z"/>
<path d="M144 1676 c-8 -32 -2 -69 12 -73 17 -6 24 21 17 61 -6 41 -20 47 -29
12z"/>
<path d="M12493 1651 c7 -19 19 -37 26 -39 15 -5 5 18 -24 53 -14 19 -15 18
-2 -14z"/>
<path d="M12530 1651 c0 -5 7 -11 14 -14 10 -4 13 -1 9 9 -6 15 -23 19 -23 5z"/>
<path d="M12560 1586 c0 -2 7 -6 15 -10 8 -3 15 -1 15 4 0 6 -7 10 -15 10 -8
0 -15 -2 -15 -4z"/>
<path d="M12541 1304 c0 -11 3 -14 6 -6 3 7 2 16 -1 19 -3 4 -6 -2 -5 -13z"/>
<path d="M12411 1254 c0 -11 3 -14 6 -6 3 7 2 16 -1 19 -3 4 -6 -2 -5 -13z"/>
<path d="M4607 1190 c-17 -43 -67 -196 -67 -204 0 -5 7 -3 15 4 18 15 19 15
31 -30 9 -34 12 -35 62 -38 40 -2 52 0 52 12 0 8 -17 65 -38 128 -54 159 -49
146 -55 128z"/>
<path d="M12627 1184 c-3 -6 -20 -14 -37 -17 -38 -8 -37 -16 5 -47 29 -21 34
-31 35 -65 0 -23 5 -46 12 -53 27 -27 27 -20 1 143 -5 28 -12 45 -16 39z"/>
<path d="M7 1163 c-4 -3 -7 -27 -7 -52 0 -55 25 -80 61 -60 15 8 24 8 32 0 17
-17 27 -13 27 8 0 11 -9 22 -20 26 -11 3 -35 24 -53 46 -19 21 -37 36 -40 32z"/>
<path d="M12430 1082 c0 -18 29 -77 30 -60 0 9 3 25 6 35 5 15 4 15 -5 3 -9
-13 -11 -13 -11 2 0 9 -4 20 -10 23 -5 3 -10 2 -10 -3z"/>
<path d="M66 964 c-3 -9 -6 -17 -6 -18 0 -1 11 -3 25 -4 23 -2 24 0 15 18 -13
24 -26 26 -34 4z"/>
<path d="M1 803 c0 -24 3 -43 8 -43 16 0 23 20 13 33 -5 7 -12 21 -15 32 -2
11 -5 1 -6 -22z"/>
<path d="M12780 820 c-8 -5 -25 -10 -37 -10 -12 0 -33 -10 -46 -22 -19 -18
-23 -30 -19 -56 2 -18 13 -39 23 -45 20 -12 26 -43 10 -49 -16 -5 -14 -78 4
-147 11 -48 13 -66 4 -72 -6 -4 -8 -12 -5 -18 4 -6 3 -11 -2 -11 -11 0 -25 47
-18 59 3 4 -5 6 -17 5 -12 -1 -25 -3 -29 -3 -16 -2 -7 -29 11 -34 10 -2 21
-17 24 -33 3 -16 11 -51 16 -79 6 -27 8 -75 5 -106 -4 -35 -1 -72 6 -94 7 -20
9 -39 6 -42 -3 -4 -11 8 -17 26 -19 55 -21 27 -2 -33 l18 -56 43 0 42 0 0 415
c0 228 -1 415 -2 415 -2 0 -10 -5 -18 -10z"/>
<path d="M12475 757 c-6 -12 -16 -22 -24 -22 -8 0 -19 -13 -24 -29 -8 -23 -5
-38 14 -77 13 -27 27 -49 30 -49 6 0 21 192 15 197 -1 1 -6 -8 -11 -20z"/>
<path d="M578 763 c-10 -2 -18 -8 -18 -11 0 -4 -3 -18 -7 -31 -4 -15 -2 -22 4
-18 5 4 20 -5 32 -19 33 -38 57 -28 53 21 -3 35 -24 67 -41 64 -3 -1 -14 -3
-23 -6z"/>
<path d="M12618 738 c-8 -20 1 -58 13 -58 10 0 10 14 0 50 -6 20 -8 22 -13 8z"/>
<path d="M12601 634 c0 -11 3 -14 6 -6 3 7 2 16 -1 19 -3 4 -6 -2 -5 -13z"/>
<path d="M356 624 c-5 -14 -4 -15 9 -4 17 14 19 20 6 20 -5 0 -12 -7 -15 -16z"/>
<path d="M12507 624 c-4 -4 -7 -14 -7 -23 0 -11 3 -12 11 -4 6 6 10 16 7 23
-2 6 -7 8 -11 4z"/>
<path d="M12631 607 c-11 -14 -10 -21 8 -49 22 -35 26 -25 12 36 -5 26 -7 27
-20 13z"/>
<path d="M615 583 c-29 -14 -55 -52 -55 -80 0 -8 -7 -16 -15 -19 -8 -4 -15
-12 -15 -19 0 -7 -7 -18 -15 -25 -12 -10 -15 -10 -15 4 0 8 -11 18 -24 22 -17
4 -22 11 -19 25 6 22 -15 26 -22 4 -3 -8 -8 -23 -11 -32 -4 -10 -8 -26 -9 -36
-3 -30 -20 -40 -44 -28 -12 7 -21 8 -21 2 0 -12 32 -81 70 -151 17 -30 30 -67
30 -82 0 -44 29 -52 33 -9 1 11 7 23 14 26 9 3 11 14 7 32 -4 22 -3 25 5 13 9
-11 11 -2 10 40 -2 40 4 67 20 98 12 23 19 47 16 52 -3 5 6 19 20 32 14 12 25
28 25 35 0 7 11 13 24 13 36 0 47 20 35 63 -5 20 -11 36 -12 36 -1 -1 -16 -8
-32 -16z"/>
<path d="M0 521 c0 -5 5 -13 10 -16 5 -3 10 -2 10 4 0 5 -4 13 -10 16 -5 3
-10 2 -10 -4z"/>
<path d="M3261 494 c0 -11 3 -14 6 -6 3 7 2 16 -1 19 -3 4 -6 -2 -5 -13z"/>
<path d="M4286 464 c-3 -9 -6 -17 -6 -18 0 -1 9 -2 20 -3 11 -1 20 0 20 2 0
11 -13 35 -20 35 -4 0 -11 -7 -14 -16z"/>
<path d="M12480 471 c0 -6 4 -13 10 -16 6 -3 7 1 4 9 -7 18 -14 21 -14 7z"/>
<path d="M3095 426 c-22 -25 -22 -28 -10 -209 9 -129 11 -132 74 -136 31 -1
33 0 27 24 -4 14 -2 25 3 25 5 0 11 11 13 25 3 14 1 23 -6 22 -6 -1 -12 16
-14 38 -2 25 -11 44 -23 53 -22 15 -25 32 -5 32 18 0 29 27 15 36 -10 6 -9 59
2 93 8 25 -54 23 -76 -3z m25 -123 c0 -24 5 -43 10 -43 6 0 10 -7 10 -15 0
-12 -4 -13 -19 -6 -15 9 -18 19 -15 50 2 22 -1 43 -6 46 -6 3 -10 16 -10 28 1
22 1 22 15 3 8 -11 15 -39 15 -63z m13 -118 c-7 -21 -13 -19 -13 6 0 11 4 18
10 14 5 -3 7 -12 3 -20z m37 -61 c0 -22 -2 -25 -15 -14 -12 10 -13 16 -4 26
16 20 19 18 19 -12z"/>
<path d="M3055 430 c3 -5 8 -10 11 -10 2 0 4 5 4 10 0 6 -5 10 -11 10 -5 0 -7
-4 -4 -10z"/>
<path d="M1 313 c0 -54 4 -107 8 -117 6 -16 10 -14 24 17 16 33 16 40 2 72
-13 33 -13 38 0 52 23 22 3 72 -27 73 -5 0 -8 -44 -7 -97z"/>
<path d="M565 400 c-3 -5 -1 -10 4 -10 6 0 11 5 11 10 0 6 -2 10 -4 10 -3 0
-8 -4 -11 -10z"/>
<path d="M270 385 c0 -8 4 -15 9 -15 5 0 14 7 21 15 10 13 9 15 -9 15 -12 0
-21 -6 -21 -15z"/>
<path d="M254 352 c-13 -8 -13 -66 -1 -78 13 -14 7 -24 -15 -24 -21 -1 -21 -2
-5 -11 34 -20 47 -4 47 61 0 59 -4 67 -26 52z"/>
<path d="M315 260 c9 -30 13 -35 21 -27 3 3 -2 16 -11 29 l-17 23 7 -25z"/>
<path d="M971 244 c0 -11 3 -14 6 -6 3 7 2 16 -1 19 -3 4 -6 -2 -5 -13z"/>
<path d="M12605 225 c4 -11 9 -42 12 -70 3 -27 12 -61 20 -75 13 -23 14 -21 8
33 -3 32 -15 75 -26 95 -11 20 -17 28 -14 17z"/>
<path d="M4167 223 c-4 -3 -7 -11 -7 -17 0 -6 5 -5 12 2 6 6 9 14 7 17 -3 3
-9 2 -12 -2z"/>
<path d="M12655 220 c-3 -5 1 -22 9 -37 l15 -28 1 32 c0 32 -14 51 -25 33z"/>
<path d="M563 188 c-33 -28 -75 -69 -72 -72 2 -2 18 -2 34 1 22 3 35 13 44 34
14 33 12 51 -6 37z"/>
<path d="M600 166 c0 -8 5 -18 10 -21 6 -3 10 1 10 9 0 8 -4 18 -10 21 -5 3
-10 -1 -10 -9z"/>
<path d="M648 159 c-4 -12 40 -64 48 -56 2 2 -7 18 -20 36 -14 18 -26 27 -28
20z"/>
<path d="M10 145 c0 -8 7 -15 15 -15 8 0 15 -4 15 -10 0 -5 7 -10 15 -10 14 0
13 3 -2 25 -20 27 -43 33 -43 10z"/>
<path d="M4335 150 c3 -5 8 -10 11 -10 2 0 4 5 4 10 0 6 -5 10 -11 10 -5 0 -7
-4 -4 -10z"/>
<path d="M960 131 c0 -12 5 -21 10 -21 6 0 10 6 10 14 0 8 -4 18 -10 21 -5 3
-10 -3 -10 -14z"/>
<path d="M8141 100 c0 -8 4 -24 9 -35 l9 -20 0 20 c0 11 -4 27 -9 35 -9 13
-10 13 -9 0z"/>
<path d="M3140 50 c0 -11 5 -20 10 -20 6 0 10 9 10 20 0 11 -4 20 -10 20 -5 0
-10 -9 -10 -20z"/>
<path d="M3090 25 c0 -15 6 -25 14 -25 22 0 30 19 16 35 -18 22 -30 18 -30
-10z"/>
</g>
</svg>
