<?xml version="1.0" standalone="no"?>
<!DOCTYPE svg PUBLIC "-//W3C//DTD SVG 20010904//EN"
 "http://www.w3.org/TR/2001/REC-SVG-20010904/DTD/svg10.dtd">
<svg version="1.0" xmlns="http://www.w3.org/2000/svg"
 width="1280.000000pt" height="720.000000pt" viewBox="0 0 1280.000000 720.000000"
 preserveAspectRatio="xMidYMid meet">
<metadata>
Created by potrace 1.16, written by Peter Selinger 2001-2019
</metadata>
<g transform="translate(0.000000,720.000000) scale(0.100000,-0.100000)"
fill="#000000" stroke="none">
<path d="M0 3600 l0 -3600 1608 0 1609 0 13 25 c12 23 15 24 30 10 9 -8 19
-13 21 -10 6 6 78 17 112 16 18 0 27 5 27 15 0 11 6 13 21 9 16 -5 19 -4 14 6
-6 9 -3 10 10 5 11 -4 21 -2 26 5 4 6 12 8 19 4 10 -6 9 -11 -5 -21 -9 -7 -15
-18 -13 -24 2 -6 12 -3 25 9 13 12 25 17 28 11 10 -16 52 -11 59 6 3 9 0 30
-9 46 -8 17 -12 34 -10 39 3 4 1 10 -5 14 -17 11 28 65 54 65 37 0 50 -23 35
-63 -11 -32 -10 -37 13 -62 25 -27 26 -27 33 -6 3 11 10 21 15 21 5 0 7 -7 4
-15 -8 -19 10 -41 37 -48 17 -5 20 -2 16 13 -5 18 -3 18 19 3 15 -10 24 -11
24 -4 0 7 9 5 25 -5 15 -10 38 -15 59 -12 19 2 32 0 30 -4 -8 -12 11 -9 24 4
9 9 12 9 12 -3 0 -9 13 -15 37 -17 21 -1 41 -9 46 -17 7 -13 47 -15 251 -15
232 0 244 1 249 19 3 14 1 18 -10 14 -18 -7 -34 16 -27 38 5 18 -21 33 -39 23
-8 -5 -7 -2 0 7 17 18 16 29 -2 29 -8 0 -15 -5 -15 -12 0 -6 -9 -3 -20 7 -14
13 -17 22 -10 29 5 5 10 14 10 20 0 5 -6 2 -13 -9 -14 -18 -43 -13 -32 6 4 5
1 9 -5 9 -8 0 -10 9 -5 27 9 38 12 39 38 16 12 -11 37 -26 55 -33 17 -7 32
-19 32 -26 0 -8 4 -14 8 -14 5 0 20 -9 33 -21 14 -12 25 -16 27 -9 3 8 8 8 17
0 14 -12 9 -40 -9 -53 -8 -5 -7 -9 1 -15 9 -6 7 -13 -8 -26 -23 -19 -21 -30 5
-20 9 3 16 12 16 20 0 8 4 14 10 14 5 0 7 7 4 15 -5 11 -2 13 10 9 9 -3 14 -9
11 -14 -2 -4 5 -17 16 -28 l20 -22 934 0 c617 0 935 3 935 10 0 6 5 10 11 10
5 0 7 -4 4 -10 -4 -7 1037 -10 3114 -10 l3121 0 0 3600 0 3600 -2558 0 -2558
0 -13 -77 c-7 -43 -19 -100 -26 -126 -8 -27 -19 -74 -25 -105 -10 -59 -12 -65
-31 -143 -15 -59 -9 -75 38 -96 21 -9 56 -24 77 -34 39 -18 62 -17 50 2 -3 5
-15 7 -27 4 -12 -2 -16 -2 -9 1 6 3 10 10 6 15 -10 17 13 9 31 -11 10 -11 14
-20 9 -20 -5 0 3 -11 18 -25 32 -30 39 -31 32 -7 -5 14 -3 14 13 -3 10 -11 35
-33 57 -49 123 -92 236 -257 251 -368 4 -26 13 -53 21 -59 8 -6 14 -17 14 -25
0 -7 7 -17 17 -22 14 -9 14 -10 -5 -16 -22 -7 -31 -26 -12 -26 6 0 10 -10 11
-22 0 -22 1 -22 9 -3 5 11 9 16 10 10 1 -5 4 -23 6 -40 3 -16 11 -35 19 -41 9
-7 10 -15 4 -25 -6 -9 -9 -10 -9 -2 0 7 -11 12 -25 11 -14 -1 -25 -6 -25 -10
0 -4 -7 -5 -16 -1 -13 5 -13 7 -2 14 14 9 10 10 -62 14 -19 1 -39 4 -45 5 -19
6 -60 11 -108 14 -26 2 -51 6 -54 10 -10 10 -91 7 -98 -4 -3 -5 -1 -10 4 -10
6 0 11 -5 11 -10 0 -7 -8 -6 -22 2 -27 14 -102 23 -95 11 6 -9 -75 -9 -121 1
-17 4 -39 3 -48 -2 -26 -14 -55 -3 -45 17 5 9 18 66 30 126 13 72 38 153 70
232 58 143 73 228 47 268 -21 32 -30 32 -64 -5 -16 -16 -31 -28 -33 -26 -2 2
-52 7 -111 10 -122 7 -255 23 -269 32 -6 3 -32 8 -57 10 -75 7 -281 75 -275
91 3 7 10 13 17 13 6 0 17 9 24 20 7 12 18 18 24 14 6 -4 8 -3 4 4 -9 15 41
63 59 56 15 -6 22 11 8 19 -5 2 -3 2 4 1 6 -2 14 2 16 9 3 9 9 8 21 -3 16 -12
20 -12 30 1 14 19 93 31 118 18 14 -7 16 -6 12 6 -8 20 6 19 22 -2 12 -16 13
-16 14 -2 0 19 20 29 54 29 13 0 31 9 41 20 10 11 23 20 28 20 17 0 110 66
142 100 25 27 26 31 8 21 -13 -6 -23 -15 -23 -20 0 -7 -51 -35 -58 -31 -2 1
-11 -7 -20 -18 -19 -20 -78 -52 -98 -52 -7 0 -15 4 -18 9 -4 5 2 7 13 4 13 -3
20 2 25 20 3 14 14 28 24 30 14 4 14 5 -3 6 -17 1 -18 3 -5 11 10 6 11 10 3
10 -7 0 -13 5 -13 10 0 6 9 10 21 10 15 0 19 5 15 15 -3 9 3 19 14 25 25 13
25 27 1 35 -12 4 -20 17 -23 40 -4 37 1 41 34 24 14 -8 18 -8 14 0 -4 6 7 17
26 25 29 13 -439 14 -3674 15 l-3708 1 0 -3600z m7213 3315 c9 -4 17 -11 17
-16 0 -14 -16 -11 -30 6 -7 8 -16 15 -21 15 -14 0 -11 -28 3 -32 9 -3 9 -6 1
-11 -7 -4 -15 5 -21 22 -9 27 -8 29 11 26 12 -1 30 -6 40 -10z m-67 -42 c-3
-4 -6 0 -6 7 0 10 -3 10 -12 -2 -9 -11 -19 -13 -33 -8 -19 8 -19 9 3 9 12 1
25 8 29 17 5 15 7 15 15 -1 6 -9 7 -19 4 -22z m-76 23 c0 -3 -4 -8 -10 -11 -5
-3 -10 -1 -10 4 0 6 5 11 10 11 6 0 10 -2 10 -4z m-200 -120 c0 -20 -25 -37
-44 -30 -9 3 -16 2 -16 -4 0 -6 6 -13 13 -15 6 -3 7 -6 1 -6 -5 -1 -19 6 -30
15 -10 8 -14 13 -7 10 6 -4 13 -1 15 4 2 6 13 12 25 12 12 1 19 7 16 15 -3 7
2 13 11 13 9 0 16 -6 16 -14z m-76 -64 c2 -4 -1 -15 -8 -24 -12 -16 -14 -16
-24 7 -10 22 -9 25 8 25 10 0 21 -3 24 -8z m-47 -34 c-3 -8 -6 -5 -6 6 -1 11
2 17 5 13 3 -3 4 -12 1 -19z m793 -769 c0 -5 -4 -9 -10 -9 -5 0 -10 7 -10 16
0 8 5 12 10 9 6 -3 10 -10 10 -16z m500 3 c0 -5 -7 -9 -15 -9 -8 0 -12 4 -9 9
3 4 9 8 15 8 5 0 9 -4 9 -8z m-4923 -254 c-3 -8 -6 -5 -6 6 -1 11 2 17 5 13 3
-3 4 -12 1 -19z m204 -241 c-8 -8 -11 -5 -11 10 0 12 -3 30 -6 40 -3 10 2 5
11 -11 12 -20 14 -31 6 -39z m3777 -4 c-10 -2 -26 -2 -35 0 -10 3 -2 5 17 5
19 0 27 -2 18 -5z m72 -13 c-14 -4 -45 -8 -70 -8 l-45 1 45 7 c25 4 56 7 70 8
l25 0 -25 -8z m-222 -17 c-10 -2 -28 -2 -40 0 -13 2 -5 4 17 4 22 1 32 -1 23
-4z m65 0 c-7 -2 -19 -2 -25 0 -7 3 -2 5 12 5 14 0 19 -2 13 -5z m170 -10 c-7
-2 -21 -2 -30 0 -10 3 -4 5 12 5 17 0 24 -2 18 -5z m-210 -10 c-18 -2 -48 -2
-65 0 -18 2 -4 4 32 4 36 0 50 -2 33 -4z m-3356 -40 c-3 -10 -5 -4 -5 12 0 17
2 24 5 18 2 -7 2 -21 0 -30z m3086 30 c-7 -2 -19 -2 -25 0 -7 3 -2 5 12 5 14
0 19 -2 13 -5z m420 -10 c-7 -2 -21 -2 -30 0 -10 3 -4 5 12 5 17 0 24 -2 18
-5z m-140 -10 c-13 -2 -33 -2 -45 0 -13 2 -3 4 22 4 25 0 35 -2 23 -4z m364
-59 c-3 -3 -12 -4 -19 -1 -8 3 -5 6 6 6 11 1 17 -2 13 -5z m-222 -54 c-3 -5
-2 -10 4 -10 5 0 11 5 13 12 3 7 7 6 11 -5 5 -13 1 -17 -17 -17 -13 0 -26 7
-30 15 -3 9 0 15 10 15 8 0 12 -4 9 -10z m-41 -15 c3 -8 3 -15 0 -15 -3 0 -12
7 -20 15 -13 13 -13 15 -1 15 8 0 17 -7 21 -15z m123 9 c-3 -3 -12 -4 -19 -1
-8 3 -5 6 6 6 11 1 17 -2 13 -5z m568 -23 c-3 -6 -11 -11 -16 -11 -5 0 -4 6 3
14 14 16 24 13 13 -3z m-522 2 c-7 -2 -19 -2 -25 0 -7 3 -2 5 12 5 14 0 19 -2
13 -5z m-4913 -38 c0 -5 -5 -3 -10 5 -5 8 -10 20 -10 25 0 6 5 3 10 -5 5 -8
10 -19 10 -25z m4648 12 c4 -22 -43 -23 -52 -1 -3 8 -2 12 3 9 5 -3 13 -1 16
5 9 15 29 7 33 -13z m201 19 c-2 -2 -22 -6 -44 -9 -27 -4 -35 -3 -25 3 14 9
79 15 69 6z m506 -6 c3 -6 -1 -7 -9 -4 -18 7 -21 14 -7 14 6 0 13 -4 16 -10z
m168 3 c-7 -2 -21 -2 -30 0 -10 3 -4 5 12 5 17 0 24 -2 18 -5z m-1798 -13 c13
-6 15 -9 5 -9 -8 0 -22 4 -30 9 -18 12 -2 12 25 0z m1032 4 c-3 -3 -12 -4 -19
-1 -8 3 -5 6 6 6 11 1 17 -2 13 -5z m863 2 c0 -3 -4 -8 -10 -11 -5 -3 -10 -1
-10 4 0 6 5 11 10 11 6 0 10 -2 10 -4z m-1089 -19 c-6 -8 -9 -17 -6 -21 3 -3
0 -2 -6 3 -12 10 -4 31 13 31 7 0 7 -4 -1 -13z m-731 -7 c11 -8 7 -9 -15 -4
-37 8 -45 14 -19 14 10 0 26 -5 34 -10z m220 6 c0 -2 -7 -7 -16 -10 -8 -3 -12
-2 -9 4 6 10 25 14 25 6z m398 -17 c-7 -5 -8 -9 -2 -9 5 0 14 4 20 9 5 6 14 4
22 -5 12 -13 5 -14 -48 -13 l-61 2 27 18 c15 9 33 15 41 12 12 -5 12 -7 1 -14z
m150 -4 c-3 -3 -9 2 -12 12 -6 14 -5 15 5 6 7 -7 10 -15 7 -18z m219 19 c-3
-3 -12 -4 -19 -1 -8 3 -5 6 6 6 11 1 17 -2 13 -5z m653 -4 c8 -5 11 -12 7 -17
-5 -4 -12 -1 -18 7 -7 13 -10 13 -18 1 -5 -8 -11 -9 -15 -3 -3 6 0 13 6 15 19
8 22 8 38 -3z m64 2 c3 -5 19 -8 36 -7 16 1 30 -2 30 -7 0 -13 -54 -8 -74 7
-11 8 -15 15 -9 15 7 0 14 -4 17 -8z m-1189 -11 c8 -14 -10 -22 -30 -15 -13 5
-14 8 -3 15 17 11 26 11 33 0z m-235 -16 c7 -8 9 -15 6 -15 -4 0 -14 7 -22 15
-9 8 -11 15 -6 15 5 0 15 -7 22 -15z m180 11 c0 -2 -7 -7 -16 -10 -8 -3 -12
-2 -9 4 6 10 25 14 25 6z m1390 -5 c0 -5 -9 -7 -20 -4 -11 3 -20 7 -20 9 0 2
9 4 20 4 11 0 20 -4 20 -9z m-1753 -7 c-3 -3 -12 -4 -19 -1 -8 3 -5 6 6 6 11
1 17 -2 13 -5z m93 2 c0 -2 -9 -6 -20 -9 -11 -3 -18 -1 -14 4 5 9 34 13 34 5z
m737 -22 c-3 -3 -12 -4 -19 -1 -8 3 -5 6 6 6 11 1 17 -2 13 -5z m993 -35 c0
-4 -7 -6 -15 -3 -8 4 -15 10 -15 15 0 4 7 6 15 3 8 -4 15 -10 15 -15z m-5790
1 c0 -5 -2 -10 -4 -10 -3 0 -8 5 -11 10 -3 6 -1 10 4 10 6 0 11 -4 11 -10z
m5052 -44 c7 4 8 2 4 -4 -12 -19 -36 -15 -29 5 4 11 8 13 11 5 2 -7 9 -9 14
-6z m45 -2 c-3 -3 -12 -4 -19 -1 -8 3 -5 6 6 6 11 1 17 -2 13 -5z m-22 -24
c-11 -5 -29 -8 -40 -8 -16 0 -15 2 5 8 34 11 60 11 35 0z m108 -17 c-7 -2 -19
-2 -25 0 -7 3 -2 5 12 5 14 0 19 -2 13 -5z m-5023 -41 c0 -7 -4 -10 -10 -7 -5
3 -10 16 -10 28 0 18 2 19 10 7 5 -8 10 -21 10 -28z m46 -59 c-7 -7 -26 7 -26
19 0 6 6 6 15 -2 9 -7 13 -15 11 -17z m5356 -50 c9 0 15 4 12 9 -3 5 -10 6
-15 3 -5 -4 -9 -1 -9 4 0 13 27 15 34 2 3 -5 27 -7 52 -4 26 2 52 -1 59 -7 8
-6 22 -10 32 -8 24 3 115 -41 107 -53 -3 -5 0 -9 5 -9 6 0 11 5 11 11 0 5 5 7
10 4 6 -4 8 -11 5 -16 -4 -5 2 -12 12 -16 10 -4 27 -15 38 -25 16 -15 17 -21
6 -27 -18 -11 -5 -32 15 -24 10 3 12 8 5 12 -6 4 -7 12 -1 21 8 12 10 12 16
-3 3 -9 10 -17 16 -17 5 0 6 5 3 10 -3 6 -1 10 4 10 6 0 11 -2 11 -4 0 -2 3
-12 7 -22 5 -14 2 -16 -15 -12 -12 4 -20 2 -17 -2 3 -5 0 -12 -6 -16 -8 -5 -9
-3 -4 6 6 10 4 12 -9 7 -10 -4 -23 -4 -29 0 -17 10 -47 11 -53 1 -7 -11 -34
-10 -34 2 0 5 8 6 17 3 12 -5 15 -2 11 9 -4 9 -1 21 5 27 8 8 8 11 0 11 -7 0
-15 -5 -19 -11 -4 -8 -10 -7 -18 1 -8 8 -7 14 7 21 9 6 17 15 17 21 0 6 -10 0
-22 -13 -13 -14 -27 -27 -33 -29 -5 -3 -9 -8 -7 -12 1 -5 -3 -8 -9 -8 -5 0 -7
-5 -4 -11 4 -6 13 -8 21 -5 8 3 13 2 13 -2 -4 -21 27 -72 44 -72 10 0 25 -7
33 -15 9 -8 26 -15 39 -15 13 0 27 -4 30 -10 3 -5 15 -10 26 -10 12 0 19 -7
19 -20 0 -11 7 -20 15 -20 8 0 15 9 15 20 0 11 4 20 10 20 5 0 8 -18 6 -40 -3
-36 0 -43 24 -55 39 -20 32 -65 -10 -65 -12 1 -11 3 3 11 21 12 23 31 2 23
-11 -4 -13 -2 -9 9 3 10 -2 17 -14 21 -14 5 -18 13 -15 26 3 11 0 20 -6 20 -5
0 -8 -7 -5 -15 8 -20 -5 -19 -45 6 -22 13 -32 16 -28 7 3 -10 -4 -14 -28 -14
-19 0 -32 3 -29 7 8 14 -20 23 -60 20 -36 -2 -38 -1 -27 13 12 14 10 16 -15
17 -62 3 -77 7 -86 23 -6 11 -17 15 -31 12 -12 -3 -16 -3 -9 0 18 8 15 27 -4
20 -13 -5 -14 -1 -8 26 6 31 6 32 -12 18 -15 -11 -17 -11 -6 0 19 22 16 43 -6
31 -11 -6 -24 -6 -32 -1 -12 8 -12 10 2 15 25 10 73 1 71 -12 -2 -7 4 -10 12
-7 8 4 15 2 15 -4 0 -5 16 -10 35 -9 19 1 35 5 35 9 0 4 -16 8 -35 8 -21 0
-43 8 -54 19 -22 22 -68 40 -57 22 8 -12 -13 -15 -29 -3 -20 14 -17 42 5 42
12 0 18 -4 15 -10 -3 -6 6 -11 22 -11 15 -1 35 -3 43 -4 8 -1 28 -3 43 -4 18
0 30 -8 35 -21 7 -19 8 -19 19 0 11 16 8 23 -17 48 -32 32 -88 45 -128 31 -15
-6 -21 -5 -17 1 3 6 2 10 -4 10 -6 0 -15 -9 -21 -20 -10 -19 -12 -19 -36 -4
-14 10 -23 22 -21 28 3 7 -6 13 -21 14 -25 2 -25 2 -7 -18 15 -17 16 -20 3
-20 -9 0 -18 7 -22 15 -3 8 -15 15 -26 15 -14 0 -19 -4 -15 -12 4 -7 0 -5 -8
5 -11 14 -16 15 -20 5 -3 -7 -4 -3 -4 9 1 12 4 20 8 17 4 -2 19 0 33 5 21 9
24 8 19 -7 -6 -15 -5 -15 10 -4 9 8 19 23 23 34 6 20 6 20 27 0 12 -11 30 -19
39 -19z m-319 -26 c-2 -4 3 -10 11 -13 9 -3 16 -12 16 -20 0 -8 6 -14 13 -14
8 0 7 -3 -3 -10 -12 -8 -12 -10 4 -16 14 -5 15 -9 5 -15 -10 -6 -7 -11 11 -18
15 -6 19 -10 9 -10 -12 -1 -18 -15 -22 -61 -3 -35 -12 -66 -21 -75 -9 -9 -16
-21 -16 -26 0 -5 -4 -9 -10 -9 -5 0 -10 6 -10 13 0 8 -37 22 -97 37 -54 14
-101 29 -104 34 -4 5 -12 6 -18 2 -5 -4 -16 2 -23 14 -7 11 -16 20 -21 20 -4
0 -5 -4 -2 -10 3 -5 -3 -10 -14 -10 -15 0 -19 5 -14 18 3 9 2 14 -2 10 -10
-10 -40 31 -30 40 4 4 12 7 18 7 7 1 11 7 9 14 -1 7 2 10 8 6 10 -6 40 16 40
30 0 28 96 84 170 100 51 11 57 10 76 -9 12 -12 19 -24 17 -29z m93 -22 c-3
-18 0 -25 12 -26 10 0 12 -3 5 -5 -6 -3 -24 1 -39 9 -27 14 -27 15 -6 21 12 4
22 12 22 17 0 5 2 9 5 9 3 0 3 -11 1 -25z m347 -25 c10 0 16 -4 12 -10 -4 -6
-15 -6 -31 0 -14 6 -31 7 -37 3 -7 -4 -6 1 2 11 10 12 17 14 25 6 5 -5 18 -10
29 -10z m52 -10 c3 -5 -1 -10 -9 -10 -9 0 -16 5 -16 10 0 6 4 10 9 10 6 0 13
-4 16 -10z m-410 -18 c-3 -3 -11 0 -18 7 -9 10 -8 11 6 5 10 -3 15 -9 12 -12z
m56 -10 c-7 -2 -18 1 -23 6 -8 8 -4 9 13 5 13 -4 18 -8 10 -11z m9 -22 c0 -5
-4 -10 -9 -10 -6 0 -13 5 -16 10 -3 6 1 10 9 10 9 0 16 -4 16 -10z m148 -11
c-20 -13 -28 -11 -22 5 3 8 12 12 21 9 12 -5 12 -7 1 -14z m-188 1 c0 -5 -5
-10 -11 -10 -5 0 -7 5 -4 10 3 6 8 10 11 10 2 0 4 -4 4 -10z m-5310 -10 c0 -5
-5 -10 -11 -10 -5 0 -7 5 -4 10 3 6 8 10 11 10 2 0 4 -4 4 -10z m4864 -49 c-6
-6 -24 19 -24 34 1 6 7 1 15 -9 8 -11 12 -22 9 -25z m421 29 c3 -5 -1 -10 -10
-10 -9 0 -13 5 -10 10 3 6 8 10 10 10 2 0 7 -4 10 -10z m212 -6 c-3 -3 -12 -4
-19 -1 -8 3 -5 6 6 6 11 1 17 -2 13 -5z m328 -26 c6 -4 2 -8 -7 -8 -10 0 -18
7 -18 17 0 9 3 12 8 7 4 -5 12 -12 17 -16z m-321 -17 c4 -5 -3 -7 -14 -4 -23
6 -26 13 -6 13 8 0 17 -4 20 -9z m603 -23 c-3 -7 -5 -2 -5 12 0 14 2 19 5 13
2 -7 2 -19 0 -25z m-707 13 c0 -12 -35 -20 -51 -11 -11 8 -7 9 44 19 4 0 7 -3
7 -8z m40 0 c0 -5 10 -11 23 -15 12 -3 28 -15 35 -26 11 -18 9 -24 -11 -46
-21 -22 -25 -23 -37 -10 -11 14 -9 16 8 16 26 0 39 19 21 31 -8 5 -9 9 -4 9 6
0 3 4 -5 9 -8 6 -18 7 -23 4 -5 -3 -3 -9 4 -14 7 -4 11 -11 7 -14 -10 -11 -78
-14 -78 -3 0 17 28 38 44 32 21 -8 20 6 -1 22 -17 13 -17 13 0 14 9 0 17 -4
17 -9z m560 5 c0 -3 -4 -8 -10 -11 -5 -3 -10 -1 -10 4 0 6 5 11 10 11 6 0 10
-2 10 -4z m-423 -20 c-4 -10 -1 -13 9 -9 9 3 14 0 12 -7 -2 -8 7 -14 22 -14
14 -1 26 -5 27 -11 1 -5 12 -13 25 -17 l23 -6 -23 -1 c-12 -1 -25 6 -28 14 -4
8 -13 15 -21 15 -8 0 -11 -4 -8 -10 10 -16 -12 -12 -29 5 -18 19 -27 19 -20 1
4 -11 0 -13 -15 -9 -17 4 -18 9 -10 30 8 21 7 24 -6 19 -9 -3 -13 -2 -10 4 3
6 18 10 32 10 18 0 24 -4 20 -14z m358 4 c3 -5 -1 -10 -10 -10 -9 0 -13 5 -10
10 3 6 8 10 10 10 2 0 7 -4 10 -10z m-630 -20 c3 -5 1 -10 -4 -10 -6 0 -11 5
-11 10 0 6 2 10 4 10 3 0 8 -4 11 -10z m762 -7 c0 -8 -4 -10 -12 -3 -7 5 -16
6 -20 2 -5 -4 -5 -2 -2 4 9 15 34 13 34 -3z m-797 -28 c7 -8 8 -15 2 -15 -5 0
-15 7 -22 15 -7 8 -8 15 -2 15 5 0 15 -7 22 -15z m95 5 c3 -5 2 -10 -4 -10 -5
0 -13 5 -16 10 -3 6 -2 10 4 10 5 0 13 -4 16 -10z m765 -7 c0 -12 -9 -18 -27
-20 -19 -1 -22 1 -12 8 10 6 10 9 2 9 -7 0 -13 5 -13 10 0 6 11 10 25 10 17 0
25 -5 25 -17z m-70 -4 c13 -9 12 -10 -2 -5 -23 7 -23 -10 -2 -22 9 -5 14 -14
10 -21 -9 -14 -33 -14 -41 -1 -4 6 1 7 11 3 12 -4 15 -3 10 5 -4 7 -14 12 -22
12 -17 0 -18 7 -1 25 15 17 18 18 37 4z m-670 -13 c0 -2 -7 -6 -15 -10 -8 -3
-15 -1 -15 4 0 6 7 10 15 10 8 0 15 -2 15 -4z m554 -42 c9 -3 13 -11 9 -17 -3
-6 -1 -7 6 -3 6 4 18 1 26 -8 18 -18 20 -33 3 -18 -7 6 -17 11 -23 11 -26 3
-45 14 -45 27 0 16 2 16 24 8z m149 -13 c2 -11 0 -25 -7 -32 -8 -9 -8 -10 4
-3 21 12 55 12 66 -1 12 -13 12 -51 0 -62 -5 -5 -6 -3 -2 5 10 17 -11 42 -29
36 -18 -7 -57 15 -49 28 4 5 1 14 -6 18 -7 4 -9 13 -6 19 11 17 23 13 29 -8z
m-325 -15 c40 -21 126 -114 159 -171 l29 -50 69 -5 c58 -4 71 -9 87 -30 22
-31 43 -129 63 -297 16 -140 18 -196 9 -266 -6 -41 -9 -45 -25 -37 -10 6 -24
10 -31 9 -10 0 -10 -2 0 -6 17 -7 5 -23 -19 -23 -13 0 -19 -7 -19 -24 0 -30
-52 -76 -86 -76 -16 0 -24 -6 -25 -17 0 -10 -6 6 -14 35 -13 56 -56 112 -85
112 -9 0 -25 -6 -35 -14 -13 -10 -28 -11 -49 -5 -17 5 -45 9 -63 9 -40 0 -122
-27 -145 -47 -15 -13 -19 -13 -40 2 l-23 16 25 -4 c14 -2 19 -2 11 0 -10 4
-10 7 -3 12 7 4 -3 7 -22 7 -24 0 -32 -4 -29 -13 3 -7 0 -13 -6 -13 -6 0 -11
6 -11 14 0 17 -48 28 -53 12 -2 -7 -10 -5 -20 5 -9 9 -14 19 -11 21 2 3 -11 0
-31 -6 -22 -7 -34 -17 -33 -26 4 -22 -11 -40 -27 -34 -8 4 -12 10 -9 15 3 5 1
9 -4 9 -5 0 -13 -10 -16 -22 -7 -22 -8 -22 -15 -4 -7 19 -8 19 -13 -1 -10 -38
-168 -49 -168 -11 0 4 -12 8 -26 8 -20 0 -25 4 -20 16 5 12 1 14 -17 9 -14 -4
-18 -3 -9 3 13 9 6 45 -8 37 -11 -7 -42 24 -35 36 4 5 -3 9 -15 9 -12 0 -18 5
-15 10 3 6 -5 14 -19 19 -13 6 -27 19 -31 30 -9 29 -80 82 -99 75 -9 -3 -16
-1 -16 5 0 6 5 11 10 11 6 0 10 9 10 20 0 25 -20 27 -21 3 0 -11 -3 -13 -6 -5
-2 6 -12 12 -21 12 -9 0 -26 7 -36 15 -12 9 -29 12 -40 9 -12 -4 -18 -3 -14 1
8 8 -6 25 -37 44 -19 11 -19 12 3 6 12 -4 22 -2 22 4 0 5 -10 13 -22 17 -13 3
-30 13 -39 21 -15 12 -19 12 -33 -2 -9 -9 -16 -22 -16 -29 0 -6 -13 -27 -30
-46 l-29 -35 -1 32 c0 46 -24 66 -71 58 -25 -4 -39 -3 -39 4 0 5 -12 10 -27
10 -86 -2 -175 9 -184 22 -7 11 -11 11 -17 1 -7 -10 -12 -9 -23 4 -12 16 -12
17 3 11 10 -3 20 -2 23 4 4 5 3 8 -2 7 -4 -1 -18 3 -30 10 -15 8 -24 9 -28 1
-5 -6 -13 -3 -22 11 -12 16 -12 24 -3 35 8 10 9 15 2 15 -6 0 -17 12 -24 27
-14 29 -43 51 -54 41 -8 -8 20 -38 35 -38 6 0 11 -4 11 -10 0 -5 -20 -10 -45
-10 -25 0 -54 -5 -65 -12 -23 -15 -38 -4 -21 16 9 11 7 15 -11 19 -17 5 -20 9
-11 18 9 9 16 8 28 -5 9 -9 18 -16 21 -16 8 0 4 9 -10 23 -13 12 -13 21 -2 58
9 30 15 38 17 25 4 -17 9 -15 47 21 23 22 42 34 42 26 0 -7 5 -13 10 -13 6 0
10 6 10 14 0 16 37 29 45 16 3 -5 3 -19 0 -32 -6 -27 8 -53 24 -44 7 5 7 12
-1 26 -7 11 -8 23 -4 27 5 4 11 3 13 -4 2 -7 11 -9 19 -6 13 5 13 7 2 14 -9 6
-10 9 -1 9 7 0 10 6 7 14 -3 8 -1 17 5 21 6 3 11 -1 11 -10 0 -9 7 -23 15 -31
8 -9 15 -11 15 -5 0 7 8 7 25 1 16 -6 25 -6 25 0 0 6 11 10 25 10 14 0 25 5
25 11 0 8 5 7 16 -2 13 -10 17 -10 25 2 6 10 9 10 9 2 0 -7 7 -13 16 -13 12 0
15 -6 10 -25 -6 -23 -3 -25 25 -25 24 0 30 -4 25 -15 -3 -9 0 -15 10 -15 9 0
14 -8 13 -17 -3 -31 2 -69 8 -55 9 23 23 1 23 -38 0 -46 17 -62 26 -25 4 17
13 25 28 25 15 0 17 3 7 9 -9 6 -10 11 -2 15 6 4 9 11 6 16 -2 4 5 19 16 34
11 14 17 26 12 26 -11 0 20 20 32 20 6 0 3 -5 -5 -10 -8 -5 -10 -10 -5 -10 6
0 17 6 24 13 9 9 78 12 269 13 182 1 257 4 260 13 5 16 14 14 46 -14 16 -14
33 -25 37 -25 5 0 6 -7 2 -16 -3 -9 0 -20 8 -25 9 -6 10 -12 4 -16 -5 -5 -11
-33 -12 -63 0 -30 -3 -81 -5 -113 -2 -41 1 -60 11 -66 9 -6 10 -10 2 -16 -14
-8 69 -89 111 -107 16 -8 28 -21 28 -32 0 -15 3 -16 15 -6 8 7 15 8 15 2 0
-17 44 -23 53 -6 5 9 38 29 73 45 35 16 64 34 64 39 0 6 7 10 15 10 9 0 18 7
22 16 3 8 12 13 19 10 7 -3 16 -1 19 4 5 8 35 2 78 -15 13 -6 17 -2 17 15 0
11 4 19 9 16 5 -3 11 1 15 9 3 8 10 15 16 15 6 0 8 -4 5 -10 -3 -5 -2 -10 4
-10 5 0 16 -3 24 -6 11 -4 17 4 22 25 3 17 22 44 41 60 53 47 74 89 74 149 0
28 -4 52 -10 52 -5 0 -10 8 -10 19 0 24 -19 38 -50 35 -14 -1 -38 5 -53 13
-15 7 -32 11 -37 8 -5 -3 -26 2 -47 10 -21 9 -64 17 -95 17 -55 1 -57 2 -64
32 -4 19 -24 46 -51 70 -33 29 -41 41 -31 47 7 5 9 9 4 9 -29 0 66 62 124 80
40 13 89 11 118 -4z m432 -107 c0 -14 -17 -10 -23 5 -4 10 -1 13 9 9 7 -3 14
-9 14 -14z m-3204 -125 c19 -23 34 -44 34 -48 0 -17 47 -75 58 -71 7 2 12 -4
12 -15 0 -11 4 -20 8 -20 5 0 18 -8 29 -17 11 -10 34 -28 50 -41 17 -13 42
-47 57 -77 33 -68 58 -173 43 -178 -7 -2 -5 -15 6 -39 21 -45 21 -45 -3 -51
-27 -7 -28 -57 -1 -57 11 0 21 -9 24 -22 7 -26 -1 -38 -12 -20 -6 9 -12 8 -25
-7 -20 -22 -9 -33 27 -31 46 4 67 0 67 -14 0 -8 6 -17 13 -19 8 -3 2 -13 -16
-29 -24 -20 -28 -30 -29 -86 -1 -42 -5 -59 -12 -52 -13 13 -36 13 -36 0 0 -5
8 -18 18 -28 17 -17 19 -52 2 -52 -4 0 -6 -18 -3 -40 5 -35 3 -41 -21 -51 -14
-7 -26 -20 -26 -31 0 -10 -4 -18 -10 -18 -5 0 -10 5 -10 10 0 6 -4 10 -10 10
-6 0 -6 -9 -1 -22 4 -13 6 -29 3 -37 -2 -8 -1 -11 4 -8 5 2 15 -2 23 -10 12
-14 12 -15 0 -11 -19 6 -49 -61 -37 -85 10 -19 2 -40 -13 -32 -5 4 -9 -8 -9
-24 0 -21 -5 -31 -16 -31 -8 0 -12 -5 -9 -11 4 -6 -3 -17 -14 -26 -15 -10 -20
-21 -16 -34 4 -11 2 -19 -4 -19 -6 0 -11 7 -11 15 0 8 -4 15 -10 15 -5 0 -10
-7 -10 -15 0 -15 38 -36 52 -29 3 2 4 -5 1 -16 -3 -12 -14 -20 -27 -21 -15 0
-16 -2 -6 -6 8 -4 20 -13 27 -22 9 -11 12 -12 13 -3 0 7 5 10 11 6 8 -4 7 -9
-2 -15 -10 -6 -10 -13 -1 -33 10 -22 9 -26 -3 -26 -19 0 -19 -7 0 -26 19 -20
19 -33 0 -41 -9 -3 -23 3 -31 13 -9 11 -13 13 -9 7 3 -7 1 -13 -4 -13 -6 0
-11 -5 -11 -12 0 -6 3 -9 6 -5 4 3 19 0 34 -8 22 -11 29 -12 33 -2 5 15 46
-31 46 -53 0 -19 -24 -52 -32 -44 -3 3 -3 12 0 20 3 8 1 14 -5 14 -12 0 -23
-40 -15 -53 4 -6 8 -24 9 -41 5 -50 7 -56 16 -56 11 0 -1 -110 -13 -126 -5 -6
-6 -13 -3 -17 3 -3 -3 -8 -14 -11 -13 -4 -18 -13 -15 -24 5 -21 -37 -28 -49
-9 -4 7 -5 -3 -2 -20 4 -20 2 -33 -3 -33 -6 0 -13 15 -17 33 -5 23 -9 28 -15
18 -7 -11 -12 -11 -32 0 -13 7 -27 12 -32 11 -4 -1 -20 12 -36 30 -25 28 -31
30 -45 19 -9 -7 -16 -20 -16 -27 0 -8 -7 -14 -15 -14 -8 0 -15 -5 -15 -11 0
-5 -5 -7 -10 -4 -6 3 -17 -1 -26 -9 -19 -20 -28 -20 -44 -1 -23 27 -31 16 -25
-32 9 -69 15 -83 25 -58 7 16 9 14 9 -14 1 -24 -3 -32 -12 -28 -10 4 -13 -1
-10 -17 3 -16 -1 -22 -16 -23 -20 -2 -21 3 -19 50 1 29 -1 57 -5 64 -12 19
-41 8 -47 -18 -6 -23 -7 -23 -17 -5 -12 21 -73 33 -73 14 0 -6 -9 -2 -20 10
-12 12 -23 22 -25 22 -2 0 -13 -10 -25 -22 -15 -16 -20 -18 -20 -7 0 11 -9 15
-32 13 -18 -2 -25 -1 -16 2 16 5 16 7 -1 25 -21 23 -21 73 1 108 8 14 9 24 3
29 -18 12 -17 42 1 42 12 0 15 6 12 24 -4 21 0 25 26 29 17 3 33 3 36 0 7 -6
-23 -22 -32 -17 -4 3 -8 3 -8 -1 0 -3 10 -10 23 -15 17 -7 18 -9 5 -9 -10 -1
-18 -7 -18 -13 0 -7 -5 -20 -10 -28 -9 -13 -11 -13 -20 0 -5 8 -10 11 -10 5 0
-37 34 -45 88 -21 35 16 42 24 42 47 0 19 -6 30 -21 34 -16 5 -18 10 -8 21 6
8 18 14 25 14 8 0 14 5 14 11 0 6 -7 9 -15 5 -13 -4 -13 -2 -5 14 5 10 10 28
10 39 0 11 9 22 20 26 11 3 20 14 20 22 0 9 8 25 17 35 15 17 19 30 22 86 1 7
5 11 9 8 4 -3 16 11 27 30 10 19 26 34 36 34 25 0 39 30 32 71 -2 19 -7 36 -9
38 -2 2 4 10 14 18 10 9 11 12 2 7 -9 -4 -7 2 6 17 33 38 43 78 43 172 0 50 5
94 11 102 6 7 8 25 4 39 -8 33 12 91 42 121 28 28 30 35 9 35 -8 0 -15 5 -15
11 0 5 5 7 10 4 6 -3 10 3 10 14 0 10 -6 21 -12 24 -9 3 -7 10 7 22 11 9 13
13 5 9 -11 -6 -10 -2 3 13 9 11 17 25 17 31 0 7 5 12 10 12 16 0 12 37 -6 55
-13 13 -17 34 -16 86 1 39 4 74 7 79 3 4 -1 11 -7 13 -9 4 -10 8 -2 14 6 4 10
32 8 63 -1 30 4 69 11 87 12 29 12 33 -1 33 -11 0 -13 8 -9 32 3 18 11 38 17
45 8 10 5 13 -11 13 -18 0 -19 3 -11 25 6 16 6 25 0 25 -6 0 -9 3 -8 8 3 10
-32 62 -65 95 -16 15 -27 35 -25 45 1 9 0 22 -4 27 -3 6 -9 24 -12 41 -8 37
16 68 46 61 15 -4 18 -1 13 14 -6 17 -4 17 36 -4 23 -12 57 -40 75 -63z m559
46 c-3 -5 -10 -10 -16 -10 -5 0 -9 5 -9 10 0 6 7 10 16 10 8 0 12 -4 9 -10z
m47 -22 c-9 -9 -15 -9 -24 0 -9 9 -7 12 12 12 19 0 21 -3 12 -12z m-152 -2 c0
-2 -9 -6 -20 -9 -11 -3 -20 -1 -20 4 0 5 9 9 20 9 11 0 20 -2 20 -4z m116 -7
c10 -17 -13 -36 -27 -22 -12 12 -4 33 11 33 5 0 12 -5 16 -11z m-346 -9 c0 -5
-4 -10 -10 -10 -5 0 -10 5 -10 10 0 6 5 10 10 10 6 0 10 -4 10 -10z m142 -1
c2 -6 20 -11 41 -12 20 0 37 -2 37 -4 0 -4 -39 -43 -44 -43 -2 0 -3 7 -2 17 1
11 -10 19 -32 25 -18 5 -30 13 -27 18 8 13 22 13 27 -1z m148 -15 c0 -9 -9
-18 -20 -21 -11 -3 -20 -9 -20 -14 0 -5 -7 -9 -15 -9 -8 0 -15 5 -15 10 0 6 5
10 10 10 6 0 20 9 32 20 26 24 28 24 28 4z m885 6 c3 -5 1 -10 -4 -10 -6 0
-11 5 -11 10 0 6 2 10 4 10 3 0 8 -4 11 -10z m-855 -24 c0 -2 -7 -7 -16 -10
-8 -3 -12 -2 -9 4 6 10 25 14 25 6z m355 -16 c3 -5 -1 -10 -10 -10 -9 0 -13 5
-10 10 3 6 8 10 10 10 2 0 7 -4 10 -10z m1583 -16 c20 12 42 -6 42 -35 0 -28
-19 -43 -21 -16 0 9 -2 9 -6 0 -3 -10 -8 -9 -19 2 -9 8 -12 19 -9 25 3 5 1 10
-4 10 -6 0 -11 8 -11 18 0 13 2 14 9 3 5 -7 13 -11 19 -7z m-2101 0 c-3 -3
-12 -4 -19 -1 -8 3 -5 6 6 6 11 1 17 -2 13 -5z m73 -23 c0 -9 -5 -22 -12 -29
-15 -15 -38 -16 -38 -2 0 6 7 10 15 10 18 0 20 17 3 22 -6 2 -8 9 -4 16 9 16
36 3 36 -17z m37 -30 c-36 -19 -42 -18 -34 4 4 8 15 15 26 15 15 0 19 5 15 18
-5 15 -4 15 10 -2 14 -18 13 -20 -17 -35z m2073 23 c0 -2 -7 -4 -15 -4 -8 0
-15 4 -15 10 0 5 7 7 15 4 8 -4 15 -8 15 -10z m-2243 -10 c-3 -3 -12 -4 -19
-1 -8 3 -5 6 6 6 11 1 17 -2 13 -5z m393 -6 c0 -5 -5 -6 -11 -2 -15 9 0 -38
15 -49 6 -4 0 -6 -14 -5 -19 2 -26 -2 -28 -19 -4 -27 -58 -53 -109 -52 -21 0
-32 3 -25 6 6 2 12 13 12 23 0 11 6 23 13 27 6 4 12 15 12 23 0 8 10 16 23 18
12 2 20 8 17 13 -4 5 3 9 14 9 12 0 21 3 21 8 0 4 14 7 30 8 17 1 30 -3 30 -8z
m150 -23 c0 -8 -5 -14 -12 -12 -7 1 -15 -13 -19 -33 -7 -38 -11 -33 -13 15 -1
22 4 32 19 37 11 3 21 6 23 7 1 1 2 -6 2 -14z m-470 -9 c0 -2 -7 -9 -15 -16
-13 -11 -14 -10 -9 4 5 14 24 23 24 12z m110 -6 c0 -5 -4 -10 -9 -10 -6 0 -13
5 -16 10 -3 6 1 10 9 10 9 0 16 -4 16 -10z m-325 -20 c3 -5 1 -10 -4 -10 -6 0
-11 5 -11 10 0 6 2 10 4 10 3 0 8 -4 11 -10z m245 6 c0 -3 -4 -8 -10 -11 -5
-3 -10 -1 -10 4 0 6 5 11 10 11 6 0 10 -2 10 -4z m38 -55 c11 -7 10 -9 -3 -14
-9 -4 -13 -3 -10 2 3 5 -3 12 -12 14 -13 3 -14 5 -3 6 8 0 21 -3 28 -8z m44
-16 c-2 -15 -11 -25 -21 -24 -10 0 -11 2 -3 6 6 2 12 13 12 24 0 10 4 19 9 19
4 0 6 -11 3 -25z m-1949 -4 c41 -23 31 -38 -23 -33 -64 6 -119 10 -137 11 -13
1 -23 5 -23 9 0 32 134 41 183 13z m2061 -35 c-3 -14 -9 -26 -13 -26 -3 0 -23
-4 -43 -9 -45 -10 -50 2 -10 24 l27 16 -27 -4 c-47 -7 -31 9 20 19 26 5 48 9
50 8 2 -1 0 -13 -4 -28z m1094 -114 c8 -6 2 -9 -18 -9 -20 0 -26 3 -18 9 7 4
15 8 18 8 3 0 11 -4 18 -8z m-810 -51 c3 -8 -1 -12 -9 -9 -7 2 -15 10 -17 17
-3 8 1 12 9 9 7 -2 15 -10 17 -17z m56 -31 c12 0 27 -5 33 -11 10 -10 19 -12
113 -25 25 -3 52 -7 60 -8 8 -1 34 -12 58 -24 32 -17 42 -28 42 -47 0 -16 -6
-25 -16 -25 -12 0 -15 -6 -10 -27 5 -16 3 -29 -5 -34 -14 -8 -38 11 -32 27 6
16 -24 37 -42 30 -8 -3 -15 -2 -15 3 0 5 -11 16 -23 24 -23 15 -24 14 -20 -8
3 -12 -1 -26 -8 -30 -8 -5 -10 -4 -5 3 5 8 -1 12 -18 12 -14 0 -29 6 -33 13
-12 18 -73 38 -73 24 0 -7 -9 -18 -20 -25 -17 -10 -20 -10 -20 3 0 13 -4 14
-22 4 -18 -10 -20 -9 -15 5 5 11 1 16 -13 16 -13 0 -20 7 -20 19 0 11 -6 18
-16 17 -9 0 -18 5 -20 12 -1 7 0 8 2 3 3 -6 12 -7 20 -4 7 3 17 -2 20 -11 5
-14 64 -25 64 -12 0 2 3 12 7 22 5 13 3 16 -9 11 -12 -4 -19 3 -27 23 -8 26
-7 29 12 32 12 2 24 0 25 -4 2 -5 14 -8 26 -8z m-149 -26 c-9 -9 -19 -13 -23
-10 -3 4 0 11 8 16 24 15 33 11 15 -6z m1641 -29 c-3 -9 -10 -13 -16 -10 -6 4
-5 11 3 20 15 16 22 11 13 -10z m-1831 -115 c10 -11 24 -20 32 -20 7 0 13 -4
13 -9 0 -11 -38 -2 -46 10 -15 24 -124 -2 -124 -30 0 -4 23 -13 52 -20 46 -12
53 -12 64 4 11 14 12 12 10 -17 -3 -33 -2 -34 28 -30 17 3 33 8 36 12 11 15
100 61 100 52 0 -5 -10 -12 -22 -15 -12 -4 -20 -9 -16 -12 10 -11 57 17 51 31
-3 8 0 14 7 14 6 0 8 -4 5 -10 -8 -13 -4 -13 38 5 43 18 47 18 47 5 0 -5 -7
-10 -15 -10 -9 0 -47 -16 -86 -35 -70 -36 -84 -61 -27 -53 16 3 31 1 34 -4 3
-4 -2 -8 -11 -8 -9 0 -13 -5 -10 -11 4 -6 13 -8 21 -5 8 3 14 0 14 -5 0 -7 -9
-9 -22 -4 -34 10 -69 7 -95 -10 -27 -18 -29 -30 -5 -39 9 -3 23 -9 31 -12 9
-5 11 -3 6 6 -5 8 -4 11 3 6 6 -4 47 12 90 34 44 22 82 40 86 40 3 0 -4 -11
-15 -24 -12 -14 -27 -22 -35 -19 -7 2 -32 -7 -56 -21 -34 -20 -39 -26 -25 -32
10 -3 25 0 34 7 15 13 15 12 2 -11 -8 -13 -21 -30 -29 -37 -13 -11 -13 -15 5
-29 20 -16 20 -16 -3 -11 -22 5 -30 -2 -70 -59 -11 -17 -12 -16 -7 8 5 26 4
27 -20 16 -13 -6 -22 -15 -19 -19 3 -5 0 -9 -5 -9 -6 0 -11 -13 -11 -30 0 -28
-8 -35 -37 -31 -6 1 -14 -3 -18 -9 -4 -7 14 -9 57 -6 l63 4 -40 -18 c-21 -10
-43 -16 -47 -14 -4 3 -8 -1 -8 -10 0 -13 52 -33 73 -28 4 1 7 -3 7 -9 0 -6 -7
-8 -16 -5 -40 15 -61 17 -62 4 0 -7 -5 -30 -10 -50 -11 -42 -1 -49 30 -21 12
10 18 12 18 4 0 -8 8 -10 23 -6 19 5 20 4 5 -5 -10 -6 -24 -10 -30 -8 -17 3
-78 -30 -78 -42 0 -6 5 -10 10 -10 18 0 10 -31 -12 -52 -15 -13 -18 -18 -7
-15 11 4 20 -3 28 -19 9 -19 18 -24 50 -24 22 0 42 -4 46 -9 3 -6 -8 -8 -27
-5 -18 3 -61 -1 -96 -9 -53 -12 -62 -12 -58 -1 3 8 -1 14 -10 14 -10 0 -14 -6
-11 -14 3 -8 -1 -20 -9 -26 -22 -19 -17 -33 11 -28 27 6 65 -15 52 -28 -4 -4
-13 -2 -19 4 -16 16 -28 15 -28 -3 0 -8 20 -25 44 -37 37 -18 47 -19 60 -8 9
7 16 19 16 27 0 21 40 -3 41 -25 1 -9 5 -3 9 13 6 24 8 26 9 8 0 -13 6 -23 11
-23 6 0 19 -9 31 -21 l20 -20 20 25 c12 15 31 26 45 26 13 0 24 4 24 9 0 15
-19 23 -32 14 -19 -11 -39 -13 -32 -2 3 5 12 9 20 9 13 0 16 5 18 40 1 11 16
15 59 17 31 1 57 -2 57 -7 0 -6 -11 -10 -25 -10 -21 0 -25 -5 -25 -30 0 -16 4
-30 9 -30 4 0 7 12 4 28 -3 27 -3 27 9 4 8 -17 19 -22 37 -20 20 2 25 -1 23
-14 -2 -13 4 -18 19 -18 21 0 66 -12 117 -31 13 -5 20 -14 17 -19 -3 -5 0 -7
7 -5 16 7 121 -99 110 -110 -4 -5 -2 -5 5 -2 6 4 19 4 30 0 16 -6 15 -8 -6
-13 l-25 -6 25 -24 c14 -14 34 -40 44 -57 11 -18 24 -32 30 -32 24 3 59 -3 48
-8 -19 -7 -16 -23 4 -23 15 0 15 -2 -1 -19 -16 -18 -16 -21 -1 -44 13 -20 13
-26 3 -31 -7 -3 -4 -4 7 -1 14 3 27 -6 45 -29 13 -18 31 -33 40 -32 9 1 14 -6
12 -16 -2 -12 2 -16 12 -12 8 3 17 0 22 -7 5 -8 3 -10 -7 -4 -12 7 -12 6 -1
-7 14 -18 56 -32 46 -16 -4 6 -1 9 5 7 7 -3 12 -8 11 -12 -2 -13 78 -84 110
-99 35 -15 41 -38 8 -31 -21 4 -22 3 -5 -10 9 -8 17 -19 17 -25 0 -5 8 -8 19
-5 12 3 21 -2 25 -14 3 -10 9 -25 12 -33 4 -8 -5 -4 -20 9 -14 14 -26 20 -26
14 0 -24 37 -43 76 -39 30 4 35 3 21 -5 -9 -6 -35 -11 -56 -11 l-39 0 26 -24
27 -23 -40 14 c-60 21 -88 20 -80 -4 3 -11 1 -22 -5 -26 -6 -4 -10 6 -10 24 0
17 -4 31 -9 31 -5 0 -8 -8 -7 -17 1 -12 -5 -17 -17 -15 -16 3 -15 -2 7 -35 14
-21 28 -53 32 -71 4 -17 10 -29 15 -26 5 3 9 0 9 -5 0 -6 -4 -11 -10 -11 -5 0
-10 -6 -10 -13 0 -7 -10 -18 -21 -26 -19 -11 -21 -11 -16 3 4 9 2 16 -3 16 -6
0 -10 -6 -10 -12 0 -9 -4 -8 -10 2 -7 11 -5 18 5 26 19 14 19 25 0 18 -11 -5
-15 1 -15 18 0 13 -9 29 -21 36 -12 7 -18 16 -15 19 5 6 -18 33 -29 33 -3 0
-4 -8 -1 -17 3 -10 1 -25 -4 -33 -7 -12 -12 -11 -30 5 -12 11 -27 20 -33 20
-7 1 -25 7 -41 13 -18 8 -32 9 -35 3 -3 -5 -16 -1 -28 9 -12 9 -19 20 -16 24
4 3 1 6 -5 6 -5 0 -13 -6 -15 -12 -3 -7 -6 -1 -6 15 -1 29 8 34 27 15 8 -8 12
-9 12 -1 0 6 -4 13 -8 15 -5 2 -12 19 -16 38 -6 30 -5 33 8 20 8 -8 16 -31 18
-50 3 -34 17 -61 29 -54 3 1 18 -4 34 -12 15 -8 36 -12 47 -9 10 4 18 1 18 -5
0 -6 4 -9 9 -6 5 4 11 3 14 -1 5 -10 1 5 -8 32 -6 16 -5 17 4 5 9 -13 11 -13
12 0 1 8 1 19 0 23 -1 4 5 15 14 23 21 21 19 41 -5 47 -12 3 -20 1 -19 -6 1
-7 1 -23 0 -36 -1 -25 -1 -25 -20 -5 -10 11 -22 30 -25 42 -4 12 -12 22 -17
22 -6 0 -8 9 -4 19 3 11 1 22 -4 26 -6 3 -8 0 -5 -8 8 -21 -14 -31 -32 -16
-14 11 -14 13 0 21 23 13 20 23 -10 37 -21 9 -25 17 -21 37 2 13 0 27 -5 30
-4 3 -8 2 -7 -3 3 -20 -2 -56 -7 -50 -4 3 -16 1 -28 -5 -11 -6 -18 -7 -14 -3
4 4 3 16 -3 26 -6 13 -6 19 0 19 6 0 8 6 5 14 -4 11 -13 12 -37 5 -18 -5 -33
-9 -33 -9 -1 0 0 8 3 19 3 10 0 22 -6 25 -7 5 -11 -2 -11 -16 0 -27 13 -50 26
-46 5 2 9 -1 9 -7 1 -5 -14 -15 -33 -22 -45 -15 -45 -16 -19 -46 29 -34 34
-34 34 3 0 22 -4 29 -14 26 -8 -3 -11 -2 -8 3 6 11 44 9 66 -5 19 -11 35 -64
19 -64 -6 0 -13 14 -17 30 -8 43 -22 47 -19 5 2 -20 -1 -38 -7 -42 -6 -3 -7
-1 -3 5 9 15 1 15 -25 2 -16 -9 -25 -4 -59 32 -28 31 -40 38 -40 26 0 -10 -5
-18 -11 -18 -5 0 -8 4 -4 9 8 14 -9 21 -25 11 -12 -7 -11 -12 4 -29 12 -13 19
-38 20 -70 2 -27 8 -57 15 -65 9 -11 10 -16 2 -16 -15 0 -32 46 -34 87 0 17
-4 30 -8 27 -4 -2 -9 -1 -11 3 -6 15 -86 53 -109 52 -13 0 -18 -3 -11 -6 17
-7 15 -28 -5 -44 -15 -11 -16 -11 -5 1 14 16 16 34 4 26 -5 -3 -26 9 -47 27
-22 18 -36 26 -32 19 5 -6 4 -12 -2 -12 -6 0 -11 4 -11 9 0 5 -7 12 -16 15
-13 5 -15 1 -10 -18 4 -15 1 -26 -6 -28 -7 -3 -9 -12 -5 -22 4 -9 11 -15 16
-12 10 7 56 -52 48 -60 -3 -3 -12 7 -21 23 -13 23 -15 25 -16 8 0 -11 7 -30
15 -43 14 -20 14 -21 0 -16 -8 3 -15 1 -15 -6 0 -6 -5 -8 -10 -5 -8 5 -8 11 0
20 8 9 5 14 -10 18 -11 3 -26 18 -33 34 -6 17 -18 28 -25 26 -7 -3 -10 1 -7 9
6 17 -12 45 -22 34 -4 -5 -2 -11 5 -13 9 -4 10 -8 2 -18 -8 -9 -5 -27 9 -64
20 -49 19 -81 -1 -81 -5 0 -7 8 -4 18 3 9 1 24 -4 32 -7 11 -10 12 -10 2 0 -8
-14 0 -31 17 -17 17 -35 31 -40 31 -14 0 25 -72 55 -99 14 -14 26 -30 26 -38
0 -7 4 -13 10 -13 5 0 30 -22 56 -50 26 -27 51 -50 56 -50 13 0 -42 80 -77
111 -24 22 -27 30 -18 40 10 10 14 7 22 -12 5 -13 21 -35 35 -48 14 -13 26
-27 26 -33 0 -12 51 -85 84 -120 38 -40 32 -44 -14 -8 -22 17 -44 28 -50 25
-14 -9 -42 14 -33 28 4 6 0 8 -10 4 -15 -6 -35 9 -35 26 -1 11 -91 107 -99
105 -3 -1 -17 9 -30 21 l-23 23 0 -26 c0 -15 7 -29 16 -33 8 -3 13 -11 10 -19
-3 -7 2 -18 10 -24 8 -7 14 -10 14 -6 0 3 10 -2 21 -12 69 -56 61 -67 -14 -18
-30 20 -59 36 -64 36 -13 0 -49 51 -45 63 1 5 -7 23 -18 42 -22 35 -25 66 -11
94 6 10 19 52 30 93 40 153 25 447 -30 586 -6 17 -5 22 6 22 12 0 12 5 3 24
-7 17 -20 26 -42 28 -23 2 -30 7 -28 21 2 9 -2 17 -8 17 -22 0 -50 41 -50 74
0 19 4 36 9 38 5 2 12 32 15 68 4 36 10 66 14 68 4 1 6 22 4 47 -4 43 -3 46
28 56 22 8 28 14 19 19 -7 5 -19 6 -26 3 -12 -5 -14 7 -8 73 4 43 9 81 10 84
9 15 -33 165 -60 218 -9 18 -15 42 -12 53 4 16 2 19 -14 14 -39 -13 -17 14 33
40 109 57 146 65 173 35z m1769 -26 c5 -14 4 -15 -9 -4 -17 14 -19 20 -6 20 5
0 12 -7 15 -16z m-3706 -79 c7 -25 17 -44 24 -43 11 3 19 -25 34 -114 4 -21
12 -38 18 -38 6 0 3 -7 -7 -14 -10 -8 -16 -24 -15 -37 2 -18 -2 -25 -20 -27
-12 -2 -20 -7 -17 -12 3 -5 -36 -7 -92 -3 -54 3 -113 5 -130 4 -19 0 -33 4
-33 10 0 8 -5 8 -15 -1 -11 -9 -15 -9 -15 -1 0 7 -4 10 -9 6 -5 -3 -12 4 -16
15 -3 11 -16 25 -27 31 -17 9 -18 13 -7 20 10 6 11 9 2 9 -32 0 15 65 52 72
12 2 19 10 17 21 -5 29 62 26 94 -5 14 -13 24 -16 29 -9 10 17 25 13 19 -4 -4
-8 -2 -15 4 -15 5 0 12 10 16 23 5 17 8 19 15 9 6 -10 10 -7 15 13 4 14 4 30
1 35 -3 4 7 13 22 18 l28 10 -35 2 c-19 0 -48 6 -64 13 l-28 12 28 14 c16 7
36 17 44 22 37 20 56 10 68 -36z m-228 -14 c0 -5 -9 -7 -20 -4 -11 3 -20 7
-20 9 0 2 9 4 20 4 11 0 20 -4 20 -9z m4753 -98 c-7 -2 -19 -2 -25 0 -7 3 -2
5 12 5 14 0 19 -2 13 -5z m-565 -175 c-6 -16 -21 -14 -24 4 -1 11 3 15 12 11
8 -3 13 -10 12 -15z m699 -27 c37 -21 104 -56 148 -76 44 -21 91 -46 105 -55
14 -10 42 -23 63 -29 20 -7 37 -18 37 -24 0 -8 -4 -7 -12 1 -7 7 -21 12 -32
12 -24 0 -122 49 -271 133 -55 31 -108 57 -118 57 -10 0 -15 5 -12 10 10 16
18 13 92 -29z m-2371 22 c-3 -4 -29 -6 -56 -4 -28 1 -50 -1 -50 -6 0 -4 -18
-9 -40 -10 -22 0 -47 -7 -55 -13 -11 -9 -15 -9 -15 -1 0 17 -31 13 -52 -6 -16
-15 -21 -15 -28 -3 -11 18 -7 22 22 26 13 2 34 6 47 10 19 6 22 4 16 -6 -6
-10 -4 -11 11 -5 48 20 218 35 200 18z m-2388 -52 c-2 -10 -15 -17 -37 -19
-21 -2 -31 0 -26 7 3 6 1 11 -5 11 -6 0 -13 -7 -17 -16 -5 -15 -7 -15 -15 0
-5 9 -16 16 -23 16 -8 0 -15 5 -15 11 0 5 4 7 10 4 5 -3 16 -2 24 2 8 5 36 7
61 5 36 -3 45 -8 43 -21z m131 10 c17 -11 5 -17 -41 -20 -35 -2 -47 6 -31 22
9 10 55 8 72 -2z m4231 -58 c0 -27 -3 -34 -11 -26 -7 7 -9 23 -5 37 9 37 16
32 16 -11z m-2189 -16 c-10 -9 -11 -8 -5 6 3 10 9 15 12 12 3 -3 0 -11 -7 -18z
m2558 -53 c3 -4 -2 -4 -11 -1 -10 4 -18 5 -18 2 0 -5 84 -62 120 -80 15 -8 34
-21 42 -29 8 -7 32 -23 54 -33 79 -40 137 -73 126 -73 -38 0 -162 38 -162 50
0 4 -10 10 -23 13 -32 9 -207 123 -224 147 -20 29 0 25 31 -7 14 -14 30 -23
34 -19 4 4 -7 20 -23 34 -17 15 -39 37 -50 50 -16 19 -9 17 39 -12 32 -19 61
-38 65 -42z m-179 22 c19 -19 44 -46 55 -59 39 -48 129 -109 250 -171 39 -20
63 -36 55 -36 -22 0 -168 77 -220 116 -25 19 -67 48 -93 65 -27 18 -53 42 -58
55 -4 13 -15 24 -24 24 -8 0 -15 9 -15 20 0 28 10 25 50 -14z m-2426 -21 c-4
-8 -11 -15 -16 -15 -6 0 -5 6 2 15 7 8 14 15 16 15 2 0 1 -7 -2 -15z m2705
-21 c2 -2 -7 -4 -22 -4 -14 0 -29 5 -32 10 -6 10 42 4 54 -6z m-2639 -240 c0
-2 -7 -4 -15 -4 -8 0 -15 4 -15 10 0 5 7 7 15 4 8 -4 15 -8 15 -10z m2301 -41
c13 -15 12 -15 -11 -3 -34 17 -36 20 -18 20 9 0 22 -7 29 -17z m-2628 -47 c23
-21 37 -43 37 -57 0 -13 4 -38 9 -55 10 -36 0 -60 -22 -51 -9 3 -18 0 -21 -8
-3 -10 0 -12 11 -8 13 5 13 3 4 -15 -12 -23 -15 -44 -3 -25 5 8 12 8 25 -2 18
-13 18 -13 -1 -19 -13 -4 -22 -19 -26 -42 -4 -19 -10 -32 -14 -30 -5 3 -14 1
-22 -4 -9 -5 -20 -4 -29 3 -12 10 -14 9 -8 -7 4 -10 2 -25 -5 -33 -9 -11 -9
-16 1 -22 10 -6 9 -10 -4 -15 -25 -9 -28 -8 -22 17 6 28 -5 69 -17 65 -13 -4
-26 51 -20 82 13 55 82 260 88 260 1 0 19 -15 39 -34z m2483 9 c10 -8 14 -15
8 -15 -5 0 -19 7 -30 15 -10 8 -14 15 -8 15 5 0 19 -7 30 -15z m172 -163 c14
14 92 12 106 -2 6 -6 -8 -9 -37 -7 -26 1 -47 -1 -47 -5 0 -4 -7 -8 -15 -8 -8
0 -15 -4 -15 -9 0 -13 34 -24 38 -12 2 6 16 8 33 4 17 -3 29 -1 29 5 0 10 26
22 58 28 14 3 16 -12 2 -21 -5 -3 -10 -12 -10 -18 0 -8 3 -7 9 2 6 8 14 10 22
5 10 -6 3 -12 -25 -19 -22 -6 -42 -17 -44 -23 -5 -15 44 -16 53 -2 3 6 12 10
18 10 7 0 6 -4 -3 -11 -12 -9 -11 -10 7 -6 15 3 20 1 17 -8 -4 -10 5 -12 38
-8 24 3 45 8 48 10 8 8 -25 23 -44 20 -11 -1 -21 3 -23 9 -6 17 29 13 65 -8
18 -10 42 -18 53 -18 12 0 17 -4 13 -11 -4 -8 3 -9 22 -5 31 6 119 -15 108
-26 -3 -4 5 -10 20 -14 14 -3 26 -10 26 -15 0 -5 9 -9 20 -9 12 0 35 -8 53
-17 18 -9 43 -16 56 -14 14 2 21 -1 17 -7 -3 -6 -2 -13 4 -17 5 -3 10 -1 10 4
0 21 19 11 22 -11 2 -17 13 -25 41 -31 41 -10 48 -22 16 -30 -25 -7 -16 -27
12 -27 11 0 17 4 14 10 -3 5 -1 18 4 27 6 10 11 12 11 6 0 -7 7 -13 15 -13 9
0 15 -9 15 -21 0 -14 5 -19 14 -16 10 4 18 -2 22 -15 4 -12 16 -30 28 -41 l21
-18 -27 4 c-16 2 -25 0 -21 -5 3 -6 18 -7 34 -4 25 5 29 3 28 -17 0 -12 -3
-16 -6 -10 -3 9 -10 10 -23 3 -10 -5 -27 -7 -37 -4 -15 5 -15 3 3 -13 16 -14
19 -24 13 -41 -5 -13 -4 -22 1 -22 6 0 10 -9 10 -20 0 -15 7 -20 25 -20 15 0
25 -6 25 -14 0 -8 8 -13 18 -12 12 1 16 -5 14 -22 -3 -21 0 -23 37 -20 30 1
46 -3 59 -18 21 -22 47 -88 31 -78 -5 3 -17 0 -26 -8 -13 -10 -15 -10 -9 0 6
10 1 12 -21 9 -22 -3 -27 -9 -25 -27 1 -12 -2 -28 -8 -35 -7 -9 -6 -16 4 -24
11 -9 15 -9 20 1 3 7 4 0 1 -15 -7 -34 3 -56 16 -36 6 10 9 11 9 2 0 -19 65
-16 84 2 12 12 20 13 35 6 14 -8 20 -8 23 0 3 8 13 7 35 -4 17 -9 34 -13 38
-9 3 4 5 0 3 -8 -2 -9 6 -16 20 -18 21 -3 22 -5 8 -15 -14 -10 -10 -19 29 -62
25 -27 45 -56 45 -62 0 -7 5 -13 10 -13 6 0 10 -5 10 -11 0 -8 -4 -8 -14 1
-19 15 -126 40 -126 29 0 -5 -7 -9 -15 -9 -8 0 -15 -5 -15 -11 0 -5 8 -9 18
-7 10 1 31 -5 46 -15 15 -10 33 -17 39 -14 7 2 26 -2 42 -9 l30 -12 -40 2
c-22 1 -46 5 -53 10 -17 10 -42 0 -41 -16 0 -10 2 -10 6 0 6 14 33 16 33 2 0
-5 -3 -10 -7 -10 -5 0 -19 -3 -32 -7 -22 -6 -23 -4 -19 21 5 23 2 27 -12 23
-10 -2 -24 -1 -31 4 -12 8 -11 11 1 20 13 9 13 10 0 6 -8 -2 -14 -13 -13 -25
2 -15 -2 -19 -17 -15 -11 3 -20 0 -20 -6 0 -6 -3 -10 -7 -9 -18 3 -45 -16 -59
-43 -8 -16 -22 -29 -30 -29 -9 0 -24 -10 -35 -22 -10 -13 -18 -17 -19 -10 0 6
5 12 11 12 5 0 8 4 4 9 -3 5 3 17 12 27 13 13 14 19 5 22 -7 2 -10 8 -6 13 3
5 -1 9 -10 9 -8 0 -17 6 -20 13 -4 8 -5 7 -5 -3 2 -32 -2 -38 -21 -33 -11 3
-27 0 -35 -7 -13 -10 -15 -9 -15 9 0 11 -3 21 -7 21 -5 0 -8 -132 -8 -293 0
-284 -1 -293 -23 -334 -45 -85 -115 -110 -314 -112 l-118 -2 -1 38 c0 21 0 82
1 135 1 83 -1 98 -14 98 -19 0 -21 17 -3 22 17 6 24 268 7 268 -9 0 -9 4 1 16
10 13 10 17 0 24 -8 4 -10 13 -6 20 12 20 16 90 5 90 -6 0 -10 7 -10 15 0 8 5
15 10 15 6 0 10 23 10 50 0 46 -2 50 -24 50 -37 0 -40 -17 -10 -45 15 -14 24
-25 21 -25 -13 0 -57 24 -57 31 0 4 -12 10 -27 14 l-28 8 27 11 c31 13 25 32
-12 37 -19 3 -25 -1 -26 -16 -1 -11 -5 -32 -9 -47 -5 -21 -3 -27 14 -33 12 -3
21 -10 21 -15 0 -5 15 -12 34 -15 22 -5 37 -15 45 -32 7 -15 7 -22 1 -18 -14
9 -52 -4 -45 -16 4 -5 -5 -9 -18 -9 -13 0 -27 -3 -31 -7 -10 -11 -36 -12 -36
-2 0 5 5 9 10 9 6 0 10 5 10 11 0 7 -10 9 -26 5 -22 -6 -24 -5 -15 12 20 37
-9 36 -62 0 -15 -11 -35 -18 -45 -15 -12 3 -7 9 21 21 33 14 37 19 31 43 -5
19 -4 24 5 19 7 -4 18 -2 26 4 25 20 17 30 -15 18 -17 -5 -36 -8 -44 -5 -9 4
-12 -2 -8 -19 2 -13 9 -24 14 -24 5 0 6 -4 3 -10 -3 -5 -15 -10 -27 -10 -16 0
-18 3 -9 14 8 10 8 20 -2 40 -8 14 -17 23 -20 19 -4 -3 -2 -12 4 -20 9 -9 8
-13 0 -13 -6 0 -14 8 -17 18 -3 9 -10 26 -14 37 -5 11 -10 29 -12 40 -2 11
-11 21 -21 23 -13 3 -17 -2 -15 -15 2 -10 8 -22 13 -26 6 -5 3 -7 -7 -3 -11 3
-21 -2 -28 -14 -10 -18 -77 -47 -87 -37 -3 3 10 12 28 20 41 17 81 57 57 57
-9 0 -21 -7 -28 -15 -6 -8 -22 -17 -33 -21 -42 -13 -47 -22 -30 -62 10 -24 15
-70 16 -132 0 -110 -14 -152 -70 -201 l-36 -31 57 -188 c31 -103 56 -192 56
-198 0 -6 -29 -9 -70 -8 -69 1 -71 2 -79 31 -5 17 -28 99 -51 183 l-43 152
-33 0 -34 0 0 -180 c0 -137 -3 -180 -12 -181 -7 0 -40 -1 -73 -2 l-60 -2 -1
408 c-1 340 -3 410 -15 419 -11 7 -11 11 -1 15 6 2 12 11 12 19 0 8 -6 14 -12
15 -10 0 -10 2 0 6 9 3 7 10 -9 23 -11 11 -18 23 -15 28 10 16 -23 37 -36 24
-18 -18 -26 -15 -30 11 -2 14 -10 22 -23 22 -20 0 -45 36 -45 66 0 10 -10 19
-24 21 -18 4 -27 -1 -35 -20 -13 -27 -11 -32 14 -36 21 -3 50 -56 30 -56 -7 0
-16 7 -18 15 -4 11 -4 10 -3 -2 1 -11 11 -19 26 -21 52 -8 74 -49 46 -87 -8
-11 -12 -25 -9 -32 7 -18 -5 -16 -25 3 -14 15 -14 18 9 34 13 10 20 22 16 27
-5 4 -11 3 -15 -3 -9 -14 -44 -28 -61 -25 -13 2 -13 0 -2 -13 8 -9 11 -26 7
-41 -9 -34 -21 -31 -24 6 -3 41 -17 66 -41 74 -20 6 -37 35 -21 35 6 0 10 7
10 15 0 8 6 12 14 9 20 -8 39 31 31 67 -6 26 -15 34 -37 30 -13 -2 -9 12 11
42 13 20 20 25 23 15 3 -7 9 -9 14 -5 5 4 2 12 -6 17 -11 7 -21 2 -36 -17 -25
-32 -41 -25 -42 18 0 23 4 33 19 36 10 3 19 14 19 24 0 12 -5 16 -15 13 -8 -3
-27 3 -42 13 -27 19 -54 21 -125 9 -55 -9 -63 -32 -23 -62 30 -23 32 -34 5
-34 -11 0 -20 7 -20 15 0 8 -9 15 -19 15 -11 0 -23 5 -27 12 -5 7 -2 9 8 5 12
-4 14 -1 10 15 -4 15 -7 17 -13 6 -6 -8 -9 -9 -9 -1 0 21 12 43 21 38 11 -7
50 15 67 38 7 9 19 17 27 17 8 0 25 12 39 27 13 14 33 27 43 28 10 1 29 7 41
14 13 7 26 10 29 7 10 -9 -17 -34 -44 -41 -14 -3 -41 -20 -60 -38 l-34 -32 63
-10 c71 -12 101 -8 94 10 -2 7 4 15 15 18 10 3 19 12 19 19 0 10 9 13 30 10
21 -3 38 3 60 21 16 14 43 28 60 32 16 4 30 10 30 15 0 4 11 10 25 12 14 3 25
1 25 -3 0 -5 5 -9 10 -9 6 0 10 11 10 25 0 20 -6 25 -35 31 -40 7 -47 20 -11
19 35 -2 54 -21 62 -61 3 -19 11 -37 16 -40 6 -4 8 2 3 15 -4 13 -1 28 5 36 7
8 8 15 4 15 -5 0 -15 9 -22 21 -12 18 -11 24 9 42 l22 20 -22 8 c-11 5 -21 13
-21 19 0 18 -25 11 -38 -11 -7 -12 -16 -18 -19 -15 -4 3 -13 0 -22 -7 -25 -19
47 62 101 115 27 26 47 51 46 56 -4 13 62 73 97 88 17 7 47 26 69 43 21 17 44
31 50 31 6 0 2 -6 -9 -12 -11 -6 -25 -19 -32 -27 -10 -13 -7 -17 15 -23 14 -4
28 -5 31 -3 2 3 -2 5 -10 5 -8 0 1 9 19 20 22 13 32 26 28 35 -3 8 -1 15 5 15
6 0 7 6 3 13 -6 9 -4 9 8 -1 11 -9 18 -10 23 -2 3 5 15 10 26 10 10 0 19 6 19
13 1 6 6 2 13 -11 10 -17 15 -20 25 -10z m-1770 -112 c7 0 10 5 7 10 -13 21 8
9 27 -15 11 -14 33 -32 50 -41 16 -8 27 -18 24 -22 -4 -3 -20 4 -36 16 -16 12
-34 22 -41 22 -17 0 -69 33 -69 44 0 6 5 5 12 -2 7 -7 18 -12 26 -12z m-838
-7 c0 -5 -5 -15 -10 -23 -8 -12 -10 -11 -10 8 0 12 5 22 10 22 6 0 10 -3 10
-7z m-1763 -37 c-12 -24 -22 -25 -22 -3 0 7 6 15 15 19 8 4 16 7 17 7 0 1 -4
-10 -10 -23z m3983 -29 c0 -2 -15 -14 -32 -27 l-33 -23 24 26 c21 23 41 35 41
24z m-4153 -29 c-2 -7 4 -24 14 -37 11 -13 19 -31 19 -40 0 -14 -2 -14 -10 -1
-8 12 -14 13 -41 3 -40 -15 -45 -12 -44 29 0 26 4 34 23 36 12 2 22 8 22 13 0
5 5 9 11 9 6 0 9 -6 6 -12z m48 -17 c-3 -6 -11 -11 -17 -11 -6 0 -6 6 2 15 14
17 26 13 15 -4z m2797 11 c2 -5 16 -12 31 -16 21 -5 27 -4 21 5 -5 8 -3 9 5 4
9 -5 9 -11 3 -17 -12 -12 -82 8 -82 23 0 11 17 12 22 1z m2458 -13 c0 -10 -12
-11 -34 -3 -25 10 -19 22 9 16 14 -2 25 -8 25 -13z m-5226 -4 c-4 -8 -11 -15
-16 -15 -6 0 -5 6 2 15 7 8 14 15 16 15 2 0 1 -7 -2 -15z m156 7 c0 -5 -9 -18
-20 -30 l-20 -21 41 -11 c23 -6 47 -9 54 -6 31 12 27 -86 -4 -103 -9 -5 -15
-13 -15 -18 2 -12 -15 -53 -22 -53 -3 0 -4 6 -1 14 9 23 -5 27 -21 5 -11 -16
-17 -17 -28 -8 -18 15 -18 28 3 51 15 17 15 18 -10 18 -14 0 -29 5 -32 11 -5
6 -12 4 -21 -8 -13 -17 -14 -17 -7 2 3 11 15 32 25 47 18 26 18 29 2 53 -9 13
-20 23 -24 20 -5 -3 -6 4 -3 15 3 11 10 20 15 20 6 0 8 -7 4 -15 -8 -21 7 -19
20 3 11 17 64 29 64 14z m-115 -22 c-3 -5 -12 -10 -18 -10 -7 0 -6 4 3 10 19
12 23 12 15 0z m2856 -12 c36 -12 149 -97 149 -112 0 -4 -18 8 -39 27 -47 42
-92 67 -121 67 -12 0 -28 7 -36 15 -20 19 -3 20 47 3z m-87 -15 c-5 -5 -12
-12 -16 -18 -4 -6 -8 -2 -8 8 0 9 7 17 17 17 9 0 12 -3 7 -7z m-2819 -13 c3
-5 1 -10 -4 -10 -6 0 -11 5 -11 10 0 6 2 10 4 10 3 0 8 -4 11 -10z m641 -3 c4
-3 1 -13 -6 -22 -8 -10 -9 -15 -1 -15 6 0 11 -7 11 -15 0 -8 7 -15 15 -15 8 0
15 -4 15 -10 0 -5 -10 -10 -22 -10 -51 0 -57 -2 -45 -21 6 -10 15 -15 19 -13
22 14 3 -30 -33 -76 -30 -38 -44 -49 -53 -41 -7 6 -16 8 -19 4 -4 -3 -7 -1 -7
5 0 7 -4 12 -10 12 -5 0 -7 -8 -3 -17 6 -16 3 -16 -18 2 -13 11 -25 20 -26 20
-1 1 9 14 22 29 14 16 25 37 25 46 0 9 5 21 11 27 16 16 20 84 7 100 -7 9 -7
13 1 13 6 0 11 -4 11 -10 0 -5 5 -10 11 -10 6 0 9 6 6 13 -3 8 8 12 39 12 24
-1 46 -4 50 -8z m2204 3 c-8 -5 -19 -10 -25 -10 -5 0 -3 5 5 10 8 5 20 10 25
10 6 0 3 -5 -5 -10z m-2772 -25 c-6 -14 -17 -25 -25 -25 -7 0 -16 0 -20 -1 -4
0 -9 4 -11 10 -2 6 6 11 17 11 14 0 19 5 15 15 -4 10 0 15 15 15 18 0 19 -3 9
-25z m396 10 c-4 -8 -11 -15 -16 -15 -6 0 -5 6 2 15 7 8 14 15 16 15 2 0 1 -7
-2 -15z m-574 -9 c0 -3 -4 -8 -10 -11 -5 -3 -10 -1 -10 4 0 6 5 11 10 11 6 0
10 -2 10 -4z m2960 -6 c8 -5 11 -10 5 -10 -5 0 -17 5 -25 10 -8 5 -10 10 -5
10 6 0 17 -5 25 -10z m-2359 -37 c-12 -20 -14 -14 -5 12 4 9 9 14 11 11 3 -2
0 -13 -6 -23z m206 14 c-1 -5 -6 -8 -10 -8 -4 1 -14 1 -22 1 -8 0 -15 4 -15
10 0 5 11 9 25 8 14 -1 24 -6 22 -11z m-853 -44 c-10 -7 -13 -13 -7 -13 16 0
24 -28 11 -36 -7 -4 -8 -3 -4 4 11 18 -52 15 -70 -3 -8 -8 -22 -11 -32 -8 -14
5 -14 3 2 -9 11 -9 16 -20 12 -27 -6 -9 -12 -7 -22 6 -8 11 -13 13 -14 6 0
-15 -30 -18 -30 -4 0 17 62 72 76 67 8 -3 11 0 7 10 -6 17 8 18 26 2 10 -11
11 -10 6 5 -6 13 -2 17 19 17 14 0 26 6 27 13 0 8 2 7 6 -2 3 -8 -2 -20 -13
-28z m411 8 c-3 -12 -11 -21 -16 -21 -6 0 -8 3 -6 8 2 4 7 16 11 26 9 25 20
13 11 -13z m488 -24 c-6 -31 -83 -65 -83 -36 0 5 4 8 9 5 5 -4 12 7 16 23 9
44 66 52 58 8z m-820 8 c-3 -9 -8 -14 -10 -11 -3 3 -2 9 2 15 9 16 15 13 8 -4z
m4007 7 c0 -5 -11 -14 -25 -20 -29 -13 -31 -10 -9 12 17 17 34 21 34 8z
m-3465 -12 c3 -5 1 -10 -4 -10 -6 0 -11 5 -11 10 0 6 2 10 4 10 3 0 8 -4 11
-10z m316 -23 c-10 -9 -11 -8 -5 6 3 10 9 15 12 12 3 -3 0 -11 -7 -18z m726
-9 c-3 -7 -5 -2 -5 12 0 14 2 19 5 13 2 -7 2 -19 0 -25z m-1442 2 c-3 -5 -11
-10 -16 -10 -6 0 -7 5 -4 10 3 6 11 10 16 10 6 0 7 -4 4 -10z m346 -34 c5 3 9
-2 9 -10 0 -9 5 -16 10 -16 15 0 12 -33 -6 -58 -9 -13 -14 -26 -11 -29 3 -2
10 5 17 16 6 12 17 21 24 21 20 0 8 -34 -34 -98 -28 -42 -36 -49 -41 -35 -4
10 -5 29 -2 41 5 19 2 23 -13 21 -11 -2 -24 0 -31 4 -6 4 -18 4 -27 1 -14 -5
-14 -9 -4 -23 11 -14 11 -14 -3 -4 -12 10 -20 9 -37 -3 -14 -10 -22 -11 -22
-4 0 7 9 14 19 17 11 3 26 23 36 49 9 24 21 44 26 44 5 0 9 9 9 19 0 26 27 52
45 45 9 -4 15 0 16 7 0 11 2 11 6 1 2 -6 9 -10 14 -6z m243 -7 c-4 -8 0 -8 15
0 18 10 20 9 14 -6 -11 -29 -31 -45 -39 -32 -5 9 -11 6 -21 -6 -19 -28 -17 4
3 33 15 22 41 32 28 11z m4763 -11 c-3 -8 -6 -5 -6 6 -1 11 2 17 5 13 3 -3 4
-12 1 -19z m-1947 -112 c-7 -7 -10 -5 -10 5 -1 10 -5 8 -17 -6 l-16 -20 9 20
c5 11 8 45 7 75 l-1 55 19 -60 c12 -38 15 -63 9 -69z m-2762 82 c-8 -12 -21
-24 -29 -26 -8 -3 -3 7 10 22 30 32 39 34 19 4z m364 0 c-7 -7 -12 -8 -12 -2
0 14 12 26 19 19 2 -3 -1 -11 -7 -17z m-1332 -2 c0 -8 -7 -16 -15 -20 -15 -5
-21 14 -8 27 11 12 23 8 23 -7z m420 5 c0 -6 -4 -13 -10 -16 -5 -3 -10 1 -10
9 0 9 5 16 10 16 6 0 10 -4 10 -9z m2548 -41 c7 -11 8 -20 3 -20 -6 0 -13 5
-16 11 -4 6 -14 8 -22 4 -13 -4 -14 -3 -3 10 16 20 23 19 38 -5z m729 -2 c-3
-8 -6 -5 -6 6 -1 11 2 17 5 13 3 -3 4 -12 1 -19z m243 8 c0 -2 -7 -7 -16 -10
-8 -3 -12 -2 -9 4 6 10 25 14 25 6z m1823 -53 c-7 -2 -21 -2 -30 0 -10 3 -4 5
12 5 17 0 24 -2 18 -5z m-5023 -25 c0 -7 -9 -26 -20 -43 -18 -27 -20 -28 -20
-9 0 12 7 24 15 28 8 3 12 12 9 21 -3 8 -1 15 5 15 6 0 11 -6 11 -12z m1882
-54 c-3 -10 109 -126 128 -132 6 -2 10 -9 10 -15 0 -8 -4 -7 -12 1 -16 16 -28
15 -24 0 1 -7 1 -10 -1 -5 -3 4 -10 4 -16 0 -7 -4 -7 0 1 9 11 14 7 22 -33 59
-25 24 -53 48 -61 54 -8 6 -16 18 -17 27 -4 24 -28 49 -41 41 -6 -4 -6 0 2 9
11 14 16 13 40 -11 15 -14 26 -31 24 -37z m1065 27 c0 -11 -6 -19 -11 -18 -24
5 -15 -33 14 -53 30 -21 32 -40 4 -40 -8 0 -20 11 -26 25 -7 15 -17 24 -25 21
-8 -3 -22 0 -33 6 -42 27 -69 -42 -29 -78 17 -15 23 -16 40 -6 16 10 19 9 19
-7 0 -11 -8 -21 -17 -24 -14 -3 -11 -6 10 -11 15 -5 27 -12 27 -17 0 -5 7 -9
16 -9 13 0 15 7 11 33 -4 26 -1 36 13 45 22 13 33 3 20 -18 -5 -8 -3 -26 6
-44 12 -25 12 -28 1 -13 -17 20 -27 22 -27 4 0 -8 10 -19 23 -26 15 -8 16 -10
2 -4 -11 3 -32 6 -47 6 -16 0 -28 4 -28 8 0 5 -4 9 -10 9 -5 0 -10 -6 -10 -13
0 -7 -6 -21 -13 -31 -13 -18 -14 -18 -14 0 0 11 4 25 10 32 6 8 5 12 -4 12
-11 0 -11 2 1 10 8 5 11 10 6 10 -5 0 -18 -8 -28 -17 -18 -16 -18 -16 -12 0 4
11 1 17 -7 17 -7 0 -9 3 -6 6 3 4 1 16 -5 28 -22 39 -20 136 2 136 5 0 7 -7 3
-16 -4 -12 -2 -15 8 -10 8 3 22 9 32 12 9 4 17 10 17 15 0 5 11 9 24 9 13 0
26 7 30 15 8 21 15 19 13 -4z m-3092 -21 c-3 -5 -11 -10 -16 -10 -6 0 -7 5 -4
10 3 6 11 10 16 10 6 0 7 -4 4 -10z m2230 0 c3 -5 2 -10 -4 -10 -5 0 -13 5
-16 10 -3 6 -2 10 4 10 5 0 13 -4 16 -10z m1076 -4 c-13 -16 -24 -58 -25 -98
-1 -14 -3 -25 -5 -22 -2 2 -10 -4 -17 -14 -9 -11 -13 -13 -14 -4 0 7 -5 10
-12 6 -7 -4 -8 -3 -4 4 4 7 1 12 -8 12 -23 0 -20 16 6 34 12 9 19 19 15 22 -4
4 -13 2 -20 -4 -8 -7 -17 -9 -20 -5 -4 3 -15 -1 -25 -10 -10 -10 -21 -14 -25
-11 -9 9 27 35 98 73 68 35 72 36 56 17z m-1021 -75 c-1 -29 -11 -17 -25 29
-7 22 -6 23 9 11 9 -7 16 -25 16 -40z m195 39 c3 -6 -1 -7 -9 -4 -18 7 -21 14
-7 14 6 0 13 -4 16 -10z m-500 -20 c3 -5 1 -10 -4 -10 -6 0 -11 5 -11 10 0 6
2 10 4 10 3 0 8 -4 11 -10z m-2325 -21 c0 -5 -7 -9 -15 -9 -15 0 -20 12 -9 23
8 8 24 -1 24 -14z m2740 -57 c38 -35 28 -44 -12 -12 -14 10 -28 16 -32 13 -3
-3 -6 -2 -6 4 0 5 -9 20 -20 33 -30 34 -24 48 8 19 15 -14 43 -40 62 -57z
m498 58 c25 0 23 -2 -13 -19 -22 -10 -47 -15 -55 -12 -11 4 -8 7 8 9 20 3 21
6 10 20 -11 14 -10 15 5 9 10 -4 31 -7 45 -7z m-873 -20 c10 -11 16 -20 13
-20 -3 0 -13 9 -23 20 -10 11 -16 20 -13 20 3 0 13 -9 23 -20z m1455 -14 c0
-3 -4 -8 -10 -11 -5 -3 -10 -1 -10 4 0 6 5 11 10 11 6 0 10 -2 10 -4z m-536
-21 c-4 -8 -8 -15 -10 -15 -2 0 -4 7 -4 15 0 8 4 15 10 15 5 0 7 -7 4 -15z
m-365 -63 c-8 -53 -28 -102 -41 -102 -12 0 -10 12 12 53 15 28 19 48 14 73 -5
27 -3 33 8 29 12 -5 13 -16 7 -53z m631 43 c0 -8 -2 -15 -4 -15 -2 0 -6 7 -10
15 -3 8 -1 15 4 15 6 0 10 -7 10 -15z m140 -5 c0 -5 -4 -10 -10 -10 -5 0 -10
5 -10 10 0 6 5 10 10 10 6 0 10 -4 10 -10z m150 -11 c0 -6 -4 -7 -10 -4 -5 3
-10 11 -10 16 0 6 5 7 10 4 6 -3 10 -11 10 -16z m-540 1 c0 -5 -2 -10 -4 -10
-3 0 -8 5 -11 10 -3 6 -1 10 4 10 6 0 11 -4 11 -10z m-3030 -4 c0 -3 -4 -8
-10 -11 -5 -3 -10 -1 -10 4 0 6 5 11 10 11 6 0 10 -2 10 -4z m1770 -6 c0 -5 9
-10 21 -10 11 0 18 -4 14 -10 -7 -11 -47 2 -53 18 -2 7 1 12 7 12 6 0 11 -4
11 -10z m1471 -23 c-10 -9 -11 -8 -5 6 3 10 9 15 12 12 3 -3 0 -11 -7 -18z
m-1501 3 c0 -5 -4 -10 -10 -10 -5 0 -10 5 -10 10 0 6 5 10 10 10 6 0 10 -4 10
-10z m1560 0 c0 -5 -5 -10 -11 -10 -5 0 -7 5 -4 10 3 6 8 10 11 10 2 0 4 -4 4
-10z m104 -19 c3 -4 -3 -16 -13 -25 -17 -16 -19 -16 -25 0 -4 12 -2 15 9 10 9
-3 15 0 15 9 0 17 6 19 14 6z m-1671 -21 c3 -11 1 -18 -4 -14 -5 3 -9 12 -9
20 0 20 7 17 13 -6z m40 3 c-7 -3 -9 -12 -6 -21 4 -13 3 -14 -6 -6 -14 13 -3
47 12 37 8 -5 8 -8 0 -10z m792 7 c4 -6 15 -8 26 -5 20 7 24 -2 10 -24 -10
-16 -45 -1 -55 24 -6 17 9 21 19 5z m-2585 -4 c0 -2 -7 -7 -16 -10 -8 -3 -12
-2 -9 4 6 10 25 14 25 6z m3273 -27 c3 -13 1 -19 -6 -16 -7 2 -12 8 -12 13 0
5 -4 15 -8 21 -5 9 -3 11 6 7 8 -3 17 -14 20 -25z m-58 3 c-3 -3 -11 0 -18 7
-9 10 -8 11 6 5 10 -3 15 -9 12 -12z m-288 -10 c-2 -9 25 -46 41 -56 17 -10
15 0 -4 19 -9 9 -14 19 -11 22 3 3 14 -2 23 -11 15 -15 18 -15 33 -1 10 8 22
15 28 15 13 0 35 -58 28 -70 -3 -5 -1 -11 5 -15 6 -4 10 8 10 29 0 59 3 61 80
58 l70 -4 0 -90 0 -89 30 21 c16 12 34 19 40 15 5 -3 12 6 16 20 3 13 10 22
15 19 5 -3 7 -15 3 -28 -3 -14 1 -27 10 -35 13 -11 16 -9 22 15 4 15 8 36 9
48 4 32 4 33 25 6 16 -21 20 -22 20 -7 0 16 2 16 22 -2 27 -26 36 -116 12
-125 -10 -4 -13 -2 -8 7 5 6 -9 -3 -30 -21 -26 -23 -41 -30 -50 -23 -7 6 -17
6 -26 1 -21 -13 -30 -12 -30 3 0 7 19 23 43 34 l42 22 -31 0 c-17 1 -39 -7
-51 -18 -26 -25 -72 -17 -75 13 -2 11 -5 -134 -8 -324 l-5 -345 -45 1 c-101 3
-90 -21 -90 193 0 142 -3 191 -12 194 -10 4 -10 8 -1 14 8 6 11 48 11 131 -1
115 -2 123 -19 119 -14 -4 -19 0 -19 13 0 11 -4 22 -10 25 -5 3 -10 15 -10 26
0 10 -7 19 -15 19 -8 0 -15 -4 -15 -10 0 -5 -5 -10 -10 -10 -7 0 -7 6 -1 19
10 18 6 31 -11 31 -4 0 -8 -9 -8 -20 0 -11 -4 -20 -10 -20 -5 0 -10 8 -10 18
0 27 -30 23 -41 -5 -6 -15 -16 -23 -31 -22 -13 0 -17 3 -10 6 6 2 12 11 12 19
0 9 -4 12 -10 9 -5 -3 -10 -1 -10 4 0 6 9 11 20 11 11 0 20 5 20 11 0 6 9 9
20 6 10 -3 21 0 24 7 3 7 7 8 13 1 11 -13 83 -18 83 -5 0 5 -11 12 -25 16 -14
3 -25 9 -25 13 0 4 -17 8 -37 9 -20 2 -43 8 -50 14 -7 6 -13 7 -13 4 0 -4 -5
-4 -12 0 -7 5 -4 10 11 16 30 11 18 26 -16 21 l-28 -5 29 20 c26 18 59 20 53
4z m785 -6 c6 -29 -13 -56 -39 -56 -10 0 -24 -5 -31 -12 -20 -20 -26 0 -8 27
9 14 14 25 11 25 -3 0 -1 9 5 20 15 29 56 26 62 -4z m-3767 1 c-11 -8 -29 -17
-39 -21 -19 -7 -19 -6 -1 14 10 11 27 20 39 20 20 0 20 0 1 -13z m2522 -17
c29 0 85 -52 105 -98 15 -33 20 -66 20 -120 -1 -90 -27 -151 -80 -187 -26 -18
-31 -25 -18 -25 27 0 83 -61 95 -105 23 -85 8 -199 -35 -264 -41 -62 -80 -74
-252 -75 l-147 -1 -3 443 -2 442 140 0 c105 0 140 3 140 13 0 6 5 4 11 -5 5
-10 17 -18 26 -18z m4711 8 c31 -8 59 -25 88 -53 61 -62 66 -97 62 -415 -3
-249 -4 -267 -25 -305 -44 -82 -109 -118 -214 -117 -108 0 -198 54 -219 132
-5 19 -10 165 -10 324 l0 288 26 49 c15 27 38 56 51 65 65 42 153 54 241 32z
m-914 -8 c88 -20 128 -81 134 -201 5 -96 -22 -167 -75 -201 l-36 -21 37 -19
c67 -34 100 -147 77 -260 -14 -67 -43 -114 -90 -145 -32 -22 -44 -23 -192 -23
l-159 0 0 433 c0 239 3 437 7 440 10 10 252 8 297 -3z m1670 -134 l50 -139 13
39 c7 21 29 85 49 142 l36 102 65 0 c58 0 64 -2 58 -17 -3 -10 -40 -107 -80
-215 l-74 -198 56 -147 c30 -82 68 -183 84 -225 l28 -78 -72 0 -72 0 -19 53
c-48 140 -82 227 -87 227 -3 0 -27 -63 -54 -140 l-49 -140 -68 0 -68 0 21 53
c12 28 50 128 85 220 l63 168 -74 202 c-40 111 -77 210 -80 220 -7 16 -1 18
66 15 l74 -3 49 -139z m-6153 124 c14 -8 19 -7 19 1 0 14 45 -41 45 -56 0 -5
11 -9 24 -7 21 2 23 -1 17 -33 -8 -39 0 -47 13 -12 8 20 9 19 16 -15 4 -21 5
-44 2 -52 -4 -10 -1 -13 9 -9 7 3 14 9 14 14 0 5 5 9 10 9 14 0 12 -20 -5 -53
-8 -15 -11 -35 -8 -45 6 -15 5 -15 -11 -3 -9 8 -15 20 -12 28 3 7 1 13 -3 13
-5 0 -11 -6 -14 -12 -3 -10 -9 -10 -26 0 -11 6 -25 12 -30 12 -5 0 -11 -6 -14
-12 -2 -7 -3 -5 -2 5 2 9 -3 17 -11 17 -8 0 -14 -6 -13 -12 3 -21 -18 -65 -35
-71 -10 -4 -16 1 -18 16 -2 14 -11 23 -25 25 -13 2 -23 8 -23 14 0 5 7 8 15 4
9 -3 15 0 15 9 0 8 -9 15 -21 15 -11 0 -18 4 -15 8 3 5 19 7 36 4 24 -3 30 -9
30 -28 0 -32 15 -31 16 0 1 19 -5 28 -30 37 -17 6 -34 11 -38 10 -10 -1 -11
-5 13 98 11 50 25 91 31 91 5 0 18 -5 29 -10z m811 -12 c-7 -7 -12 -8 -12 -2
0 14 12 26 19 19 2 -3 -1 -11 -7 -17z m811 -27 c-6 -8 -31 34 -26 42 3 5 11
-2 17 -15 7 -12 11 -25 9 -27z m-559 31 c-6 -4 -13 -15 -17 -24 -6 -16 -27
-26 -27 -13 0 10 35 45 45 45 6 0 6 -3 -1 -8z m459 -73 c-4 -13 -9 -17 -16
-10 -12 12 -1 45 12 37 5 -3 7 -15 4 -27z m1037 1 c0 -5 -4 -10 -10 -10 -5 0
-10 5 -10 10 0 6 5 10 10 10 6 0 10 -4 10 -10z m-1640 -52 c0 -4 -4 -8 -10 -8
-5 0 -10 4 -10 9 0 5 -3 18 -6 28 -5 16 -4 16 10 -1 9 -11 16 -23 16 -28z
m1550 11 c-7 -11 -14 -18 -17 -15 -8 8 5 36 17 36 7 0 7 -6 0 -21z m-2280 -15
c0 -8 -4 -12 -10 -9 -5 3 -10 10 -10 16 0 5 5 9 10 9 6 0 10 -7 10 -16z m3490
0 c8 -8 9 -14 4 -12 -16 4 -84 -34 -84 -47 0 -14 -29 -29 -38 -20 -3 3 0 5 6
5 7 0 12 7 12 15 0 8 -7 15 -15 15 -8 0 -15 4 -15 10 0 12 38 32 53 27 6 -2
18 2 25 10 18 17 37 17 52 -3z m-1916 -2 c8 -13 -7 -28 -41 -40 -26 -9 -31 -8
-27 4 2 8 6 21 9 29 5 16 50 21 59 7z m756 -6 c0 -3 -4 -8 -10 -11 -5 -3 -10
-1 -10 4 0 6 5 11 10 11 6 0 10 -2 10 -4z m-1585 -15 c3 -5 1 -12 -5 -16 -5
-3 -10 1 -10 9 0 18 6 21 15 7z m2862 -31 c0 -33 -8 -38 -27 -15 -9 11 -9 17
2 29 19 22 25 19 25 -14z m-1262 10 c-3 -5 -11 -10 -16 -10 -6 0 -7 5 -4 10 3
6 11 10 16 10 6 0 7 -4 4 -10z m-655 -10 c-19 -13 -30 -13 -30 0 0 6 10 10 23
10 18 0 19 -2 7 -10z m-780 -6 c0 -11 -34 -33 -50 -33 -8 0 -5 4 8 9 12 5 22
14 22 20 0 5 5 10 10 10 6 0 10 -3 10 -6z m137 0 c-3 -3 -12 -4 -19 -1 -8 3
-5 6 6 6 11 1 17 -2 13 -5z m693 -4 c0 -5 -5 -10 -11 -10 -5 0 -7 5 -4 10 3 6
8 10 11 10 2 0 4 -4 4 -10z m770 4 c0 -3 -7 -12 -15 -20 -12 -13 -15 -13 -15
-1 0 7 3 17 7 20 8 8 23 9 23 1z m1147 0 c-3 -3 -12 -4 -19 -1 -8 3 -5 6 6 6
11 1 17 -2 13 -5z m-955 -14 c6 0 5 -6 -2 -15 -9 -11 -15 -12 -20 -5 -4 6 -11
0 -18 -14 -10 -22 -9 -24 6 -19 9 3 3 -4 -13 -14 -17 -11 -41 -22 -55 -25 -14
-3 -33 -9 -43 -13 -13 -6 -16 -4 -11 9 3 9 10 13 15 10 5 -3 9 -1 9 5 0 5 12
11 27 13 14 2 29 9 31 17 4 11 -3 13 -29 8 l-34 -6 33 15 c17 8 32 18 32 23 0
11 30 20 48 15 8 -2 18 -4 24 -4z m-152 -4 c0 -3 -4 -8 -10 -11 -5 -3 -10 -1
-10 4 0 6 5 11 10 11 6 0 10 -2 10 -4z m-2830 -20 c0 -2 -7 -9 -15 -16 -13
-11 -14 -10 -9 4 5 14 24 23 24 12z m300 -31 c0 -16 -6 -25 -15 -25 -16 0 -19
9 -9 34 9 25 24 19 24 -9z m-110 -5 c0 -5 -2 -10 -4 -10 -3 0 -8 5 -11 10 -3
6 -1 10 4 10 6 0 11 -4 11 -10z m1653 -52 c-9 -20 -10 -17 -11 22 0 39 1 42
11 23 7 -16 7 -30 0 -45z m178 39 c-10 -9 -11 -8 -5 6 3 10 9 15 12 12 3 -3 0
-11 -7 -18z m804 8 c-13 -10 -19 -28 -20 -53 0 -46 -10 -62 -38 -62 -20 0 -20
0 -1 15 16 12 17 16 5 24 -11 7 -10 12 8 22 29 19 26 33 -6 24 -23 -5 -25 -4
-14 9 7 8 18 13 25 10 8 -3 16 2 19 10 4 9 14 16 24 16 17 -1 16 -2 -2 -15z
m-2590 -15 c3 -5 -1 -10 -9 -10 -9 0 -16 5 -16 10 0 6 4 10 9 10 6 0 13 -4 16
-10z m3362 -24 c-6 -15 -9 -14 -27 1 -19 16 -19 18 -3 24 23 8 38 -5 30 -25z
m-1687 -6 c7 -13 6 -20 -2 -22 -16 -6 -38 16 -38 36 0 20 27 10 40 -14z m-530
16 c0 -9 -30 -14 -35 -6 -4 6 3 10 14 10 12 0 21 -2 21 -4z m443 -15 c-6 -22
-29 -35 -38 -21 -4 6 -1 10 4 10 6 0 11 7 11 15 0 8 6 15 14 15 9 0 12 -7 9
-19z m-1758 -1 c3 -5 1 -10 -4 -10 -6 0 -11 5 -11 10 0 6 2 10 4 10 3 0 8 -4
11 -10z m272 -5 c0 -8 -4 -15 -9 -15 -4 0 -8 7 -8 15 0 8 4 15 8 15 5 0 9 -7
9 -15z m1272 2 c-2 -1 -11 -8 -20 -15 -13 -9 -16 -9 -16 3 0 8 9 15 20 15 11
0 18 -1 16 -3z m387 -24 c-10 -10 -19 5 -10 18 6 11 8 11 12 0 2 -7 1 -15 -2
-18z m1521 2 c-17 -16 -47 -20 -47 -6 0 9 52 31 59 25 2 -2 -4 -10 -12 -19z
m-541 -10 c-3 -9 -10 -13 -16 -10 -6 4 -5 11 3 20 15 16 22 11 13 -10z m-106
11 c0 -2 -7 -6 -15 -10 -8 -3 -15 -1 -15 4 0 6 7 10 15 10 8 0 15 -2 15 -4z
m-1020 -27 c0 -11 -4 -17 -10 -14 -5 3 -10 13 -10 21 0 8 5 14 10 14 6 0 10
-9 10 -21z m92 12 c28 -11 60 -62 49 -80 -6 -10 -15 -6 -36 13 -15 14 -33 26
-39 25 -6 0 -5 -3 2 -6 7 -3 17 -16 23 -30 5 -13 13 -21 19 -18 6 3 7 -1 4
-10 -4 -8 -1 -22 6 -30 8 -9 8 -15 2 -15 -6 0 -13 -8 -15 -17 -3 -13 -5 -12
-6 5 -1 25 -58 112 -73 112 -4 0 -8 5 -8 10 0 6 6 10 14 10 7 0 16 9 19 20 6
23 7 23 39 11z m598 -11 c-18 -12 -30 -13 -30 -2 0 4 10 9 22 9 18 2 20 0 8
-7z m-887 -7 c9 -5 -18 -33 -31 -33 -6 0 -13 7 -16 16 -3 8 -11 12 -17 8 -8
-4 -9 -3 -5 4 6 11 51 14 69 5z m-358 -13 c-3 -5 -11 -10 -16 -10 -6 0 -7 5
-4 10 3 6 11 10 16 10 6 0 7 -4 4 -10z m1662 -15 c-15 -16 -19 -13 -11 9 3 9
10 13 15 10 5 -3 3 -11 -4 -19z m-1147 5 c0 -5 -4 -10 -10 -10 -5 0 -10 5 -10
10 0 6 5 10 10 10 6 0 10 -4 10 -10z m-210 -10 c0 -5 -7 -10 -15 -10 -8 0 -15
5 -15 10 0 6 7 10 15 10 8 0 15 -4 15 -10z m1065 -10 c3 -5 1 -10 -4 -10 -6 0
-11 5 -11 10 0 6 2 10 4 10 3 0 8 -4 11 -10z m113 -2 c-3 -15 -18 -28 -32 -28
-5 0 -1 9 9 20 21 23 26 25 23 8z m-1587 -41 c-1 -12 -15 -9 -19 4 -3 6 1 10
8 8 6 -3 11 -8 11 -12z m1529 9 c0 -2 -7 -7 -16 -10 -8 -3 -12 -2 -9 4 6 10
25 14 25 6z m-998 -29 c7 4 9 0 5 -10 -3 -10 -2 -17 3 -17 6 0 10 -4 10 -10 0
-5 -8 -10 -19 -10 -21 0 -33 32 -23 58 6 15 7 15 10 -1 2 -9 8 -14 14 -10z
m1214 -1 c1 -16 -6 -27 -22 -35 -13 -6 -24 -7 -24 -2 0 7 38 61 43 61 1 0 3
-11 3 -24z m-1166 -12 c0 -8 -5 -12 -10 -9 -6 4 -8 11 -5 16 9 14 15 11 15 -7z
m1040 11 c0 -2 -15 -8 -32 -13 -18 -6 -42 -13 -52 -18 -14 -5 -17 -4 -12 5 13
21 96 44 96 26z m-4 -47 c-26 -15 -94 -23 -81 -10 6 6 24 12 40 15 56 8 61 7
41 -5z m954 -18 c0 -11 -4 -20 -10 -20 -5 0 -10 9 -10 20 0 11 5 20 10 20 6 0
10 -9 10 -20z m-2015 0 c3 -5 1 -10 -4 -10 -6 0 -11 5 -11 10 0 6 2 10 4 10 3
0 8 -4 11 -10z m1235 -7 c0 -9 -3 -13 -7 -10 -3 4 -12 2 -20 -4 -10 -9 -13 -8
-13 4 0 9 8 18 18 20 9 3 18 5 20 6 1 0 2 -6 2 -16z m1104 1 c10 -25 -1 -29
-14 -5 -6 12 -7 21 -1 21 5 0 12 -7 15 -16z m-3657 -16 c-3 -8 -6 -5 -6 6 -1
11 2 17 5 13 3 -3 4 -12 1 -19z m2493 8 c0 -11 -19 -15 -25 -6 -3 5 1 10 9 10
9 0 16 -2 16 -4z m-935 -16 c3 -5 1 -10 -4 -10 -6 0 -11 5 -11 10 0 6 2 10 4
10 3 0 8 -4 11 -10z m-1535 -26 c0 -8 -4 -12 -10 -9 -5 3 -10 10 -10 16 0 5 5
9 10 9 6 0 10 -7 10 -16z m1580 -54 c7 -22 11 -43 7 -46 -7 -7 -37 49 -37 71
0 29 17 15 30 -25z m909 9 c-16 -10 -23 -4 -14 10 3 6 11 8 17 5 6 -4 5 -9 -3
-15z m651 -14 c0 -8 -2 -15 -4 -15 -2 0 -6 7 -10 15 -3 8 -1 15 4 15 6 0 10
-7 10 -15z m-1835 -95 c7 -11 -9 -11 -45 0 -24 8 -24 8 7 9 17 1 35 -3 38 -9z
m-30 -80 c3 -5 2 -10 -4 -10 -5 0 -13 5 -16 10 -3 6 -2 10 4 10 5 0 13 -4 16
-10z m48 -7 c-7 -2 -19 -2 -25 0 -7 3 -2 5 12 5 14 0 19 -2 13 -5z m-3188 -23
c3 -5 1 -10 -4 -10 -6 0 -11 5 -11 10 0 6 2 10 4 10 3 0 8 -4 11 -10z m-880
-100 c4 -6 -6 -10 -22 -9 -25 0 -26 1 -8 9 11 5 21 9 22 9 1 1 5 -3 8 -9z
m957 -27 c-6 -34 -25 -54 -40 -44 -8 5 -9 16 -3 36 7 22 10 25 11 10 1 -15 3
-16 7 -5 5 12 21 29 29 30 1 0 -1 -12 -4 -27z m-1007 7 c3 -5 2 -17 -3 -26 -8
-14 -10 -14 -21 0 -13 15 -8 36 9 36 5 0 12 -4 15 -10z m210 -2 c38 -1 42 -7
23 -27 -10 -10 -5 -9 16 1 25 13 32 13 58 1 16 -8 37 -13 48 -10 17 4 30 -11
43 -53 4 -12 6 -11 6 3 1 24 51 22 85 -4 14 -11 26 -17 26 -12 0 4 4 3 8 -2
10 -15 66 -50 75 -47 4 1 24 -5 45 -15 20 -9 39 -17 42 -17 6 -1 92 -67 100
-76 3 -4 20 -15 38 -25 37 -22 38 -27 15 -51 -11 -11 -18 -13 -21 -5 -2 6 -8
11 -13 11 -4 0 -6 -8 -2 -17 5 -13 -1 -11 -20 7 -55 52 -69 61 -82 56 -8 -3
-21 4 -29 16 -11 15 -29 22 -65 26 -34 3 -51 9 -51 18 0 8 -4 14 -10 14 -5 0
-10 7 -10 16 0 10 -4 12 -12 7 -7 -4 -21 -6 -30 -5 -10 2 -18 -2 -18 -7 0 -6
-4 -11 -10 -11 -5 0 -10 9 -10 20 0 10 -5 30 -12 44 -8 20 -16 24 -33 20 -19
-5 -23 0 -29 26 -5 27 -8 30 -21 20 -8 -7 -23 -9 -37 -4 -13 4 -44 8 -70 8
-36 1 -48 -3 -48 -14 -1 -12 -3 -11 -11 3 -5 9 -17 17 -24 17 -8 0 -15 9 -15
20 0 15 -7 20 -26 20 -14 0 -23 -4 -20 -8 6 -11 -11 -38 -19 -30 -4 3 -9 20
-11 37 -4 24 -1 31 10 31 9 0 16 -4 16 -10 0 -15 26 -12 40 5 7 8 16 12 21 10
4 -3 24 -6 44 -7z m702 -110 c-3 -8 -6 -5 -6 6 -1 11 2 17 5 13 3 -3 4 -12 1
-19z m163 -8 c-8 -5 -19 -10 -25 -10 -5 0 -3 5 5 10 8 5 20 10 25 10 6 0 3 -5
-5 -10z m237 -62 c-3 -8 -6 -5 -6 6 -1 11 2 17 5 13 3 -3 4 -12 1 -19z m-3403
-31 c-3 -9 -14 -17 -24 -17 -10 0 -27 -8 -36 -17 -17 -17 -18 -17 -11 0 4 10
7 24 7 30 0 7 4 6 10 -3 7 -12 10 -12 10 -1 0 7 6 11 15 7 10 -4 15 1 15 16 0
15 3 19 10 12 6 -6 8 -18 4 -27z m5831 23 c3 -5 1 -10 -4 -10 -6 0 -11 5 -11
10 0 6 2 10 4 10 3 0 8 -4 11 -10z m-1055 -180 c0 -5 -5 -10 -11 -10 -5 0 -7
5 -4 10 3 6 8 10 11 10 2 0 4 -4 4 -10z m-2680 -4 c0 -2 -8 -10 -17 -17 -16
-13 -17 -12 -4 4 13 16 21 21 21 13z m188 -19 c14 5 15 3 5 -7 -14 -16 -53
-24 -53 -12 0 14 24 34 28 23 2 -5 11 -7 20 -4z m2482 -27 c0 -5 -5 -10 -11
-10 -5 0 -7 5 -4 10 3 6 8 10 11 10 2 0 4 -4 4 -10z m-2380 -9 c0 -5 -7 -11
-15 -15 -9 -3 -15 0 -15 9 0 8 7 15 15 15 8 0 15 -4 15 -9z m2220 -46 c-7 -9
-15 -13 -19 -10 -3 3 1 10 9 15 21 14 24 12 10 -5z m-39 -18 c-10 -9 -11 -8
-5 6 3 10 9 15 12 12 3 -3 0 -11 -7 -18z m-2771 3 c0 -5 -4 -10 -10 -10 -5 0
-10 5 -10 10 0 6 5 10 10 10 6 0 10 -4 10 -10z m2840 -25 c-7 -9 -15 -13 -19
-10 -3 3 1 10 9 15 21 14 24 12 10 -5z"/>
<path d="M7865 4810 c-3 -5 -1 -10 4 -10 6 0 11 5 11 10 0 6 -2 10 -4 10 -3 0
-8 -4 -11 -10z"/>
<path d="M7945 4800 c3 -5 14 -10 23 -10 15 0 15 2 2 10 -20 13 -33 13 -25 0z"/>
<path d="M8030 4759 c0 -5 7 -12 15 -15 8 -4 12 -10 9 -15 -3 -5 2 -6 10 -3
23 9 20 19 -9 32 -16 7 -25 8 -25 1z"/>
<path d="M8085 4760 c3 -5 8 -10 11 -10 2 0 4 5 4 10 0 6 -5 10 -11 10 -5 0
-7 -4 -4 -10z"/>
<path d="M8150 4706 c0 -8 4 -17 8 -20 4 -2 8 4 8 15 0 10 -4 19 -8 19 -4 0
-8 -6 -8 -14z"/>
<path d="M7978 4693 c6 -2 18 -2 25 0 6 3 1 5 -13 5 -14 0 -19 -2 -12 -5z"/>
<path d="M7930 4620 c0 -5 4 -10 9 -10 6 0 13 5 16 10 3 6 -1 10 -9 10 -9 0
-16 -4 -16 -10z"/>
<path d="M7965 4600 c-15 -7 -9 -9 25 -9 33 -1 41 2 30 9 -18 12 -28 12 -55 0z"/>
<path d="M8247 4520 c-3 -11 -1 -20 4 -20 5 0 9 9 9 20 0 11 -2 20 -4 20 -2 0
-6 -9 -9 -20z"/>
<path d="M7720 4556 c0 -2 7 -6 15 -10 8 -3 15 -1 15 4 0 6 -7 10 -15 10 -8 0
-15 -2 -15 -4z"/>
<path d="M6347 4185 c-4 -8 -3 -16 1 -19 4 -3 9 4 9 15 2 23 -3 25 -10 4z"/>
<path d="M6260 4120 c0 -19 3 -21 12 -12 9 9 9 15 0 24 -9 9 -12 7 -12 -12z"/>
<path d="M6846 3985 c-9 -26 -7 -32 5 -12 6 10 9 21 6 23 -2 3 -7 -2 -11 -11z"/>
<path d="M7625 3720 c-3 -5 -1 -10 4 -10 6 0 11 5 11 10 0 6 -2 10 -4 10 -3 0
-8 -4 -11 -10z"/>
<path d="M8448 3613 c6 -2 18 -2 25 0 6 3 1 5 -13 5 -14 0 -19 -2 -12 -5z"/>
<path d="M5530 3774 c0 -8 5 -12 10 -9 6 4 8 11 5 16 -9 14 -15 11 -15 -7z"/>
<path d="M5658 3473 c7 -3 16 -2 19 1 4 3 -2 6 -13 5 -11 0 -14 -3 -6 -6z"/>
<path d="M5120 2740 c0 -5 4 -10 9 -10 6 0 13 5 16 10 3 6 -1 10 -9 10 -9 0
-16 -4 -16 -10z"/>
<path d="M5147 2354 c-11 -11 3 -24 24 -24 12 0 19 5 17 13 -5 14 -31 21 -41
11z"/>
<path d="M4986 2285 c-11 -8 -17 -18 -13 -21 4 -4 13 -1 22 6 10 8 15 9 15 1
0 -6 -4 -11 -10 -11 -16 0 -12 -16 11 -41 l20 -24 -7 24 c-4 14 -2 21 4 18 13
-9 10 46 -3 55 -14 10 -17 10 -39 -7z"/>
<path d="M5159 2248 c-14 -25 -4 -50 18 -47 10 1 26 -2 36 -6 14 -6 25 -1 43
18 29 32 30 40 4 32 -14 -4 -18 -2 -15 7 4 10 -6 14 -35 14 -31 1 -43 -3 -51
-18z"/>
<path d="M5030 2168 c0 -9 5 -20 10 -23 13 -8 13 5 0 25 -8 13 -10 13 -10 -2z"/>
<path d="M4940 2161 c0 -5 11 -8 25 -8 13 0 22 3 19 8 -3 5 -14 9 -25 9 -10 0
-19 -4 -19 -9z"/>
<path d="M5850 4220 c0 -5 5 -10 10 -10 6 0 10 5 10 10 0 6 -4 10 -10 10 -5 0
-10 -4 -10 -10z"/>
<path d="M5950 4080 c0 -5 7 -10 15 -10 8 0 15 5 15 10 0 6 -7 10 -15 10 -8 0
-15 -4 -15 -10z"/>
<path d="M5910 4060 c0 -5 4 -10 9 -10 6 0 13 5 16 10 3 6 -1 10 -9 10 -9 0
-16 -4 -16 -10z"/>
<path d="M5786 3485 c-3 -8 -1 -15 4 -15 6 0 10 7 10 15 0 8 -2 15 -4 15 -2 0
-6 -7 -10 -15z"/>
<path d="M5821 3474 c0 -11 3 -14 6 -6 3 7 2 16 -1 19 -3 4 -6 -2 -5 -13z"/>
<path d="M5965 3430 c-16 -11 -41 -20 -55 -21 -23 0 -23 -1 -5 -8 11 -5 25 -8
30 -7 21 4 75 37 75 46 0 15 -12 12 -45 -10z"/>
<path d="M5970 3340 c19 -13 30 -13 30 0 0 6 -10 10 -22 10 -19 0 -20 -2 -8
-10z"/>
<path d="M6052 3321 c6 -10 18 -17 25 -14 18 7 16 20 -3 27 -28 11 -35 7 -22
-13z"/>
<path d="M6000 3299 c0 -15 4 -19 16 -15 9 3 20 6 26 6 6 0 6 6 -2 15 -18 22
-40 18 -40 -6z"/>
<path d="M5823 3123 c-15 -5 -17 -23 -4 -23 5 0 11 7 15 15 3 8 4 15 3 14 -1
0 -8 -3 -14 -6z"/>
<path d="M5820 3027 c0 -8 7 -14 15 -14 11 0 12 4 4 14 -6 7 -13 13 -15 13 -2
0 -4 -6 -4 -13z"/>
<path d="M5880 3015 c-11 -13 -10 -14 4 -9 9 3 16 10 16 15 0 13 -6 11 -20 -6z"/>
<path d="M5800 2951 c0 -10 19 -25 25 -20 1 2 -3 10 -11 17 -8 7 -14 8 -14 3z"/>
<path d="M5830 2860 c0 -5 7 -10 15 -10 8 0 15 5 15 10 0 6 -7 10 -15 10 -8 0
-15 -4 -15 -10z"/>
<path d="M5780 2835 c0 -8 5 -15 10 -15 6 0 10 7 10 15 0 8 -4 15 -10 15 -5 0
-10 -7 -10 -15z"/>
<path d="M6155 2701 c-3 -5 -1 -12 5 -16 5 -3 10 1 10 9 0 18 -6 21 -15 7z"/>
<path d="M6150 2655 c0 -8 -6 -12 -13 -9 -8 3 -20 -2 -27 -11 -15 -18 -3 -19
34 -5 25 9 37 40 16 40 -5 0 -10 -7 -10 -15z"/>
<path d="M6237 2626 c-4 -10 -1 -13 9 -9 15 6 19 23 5 23 -5 0 -11 -7 -14 -14z"/>
<path d="M6267 2614 c-3 -4 2 -18 11 -32 9 -15 11 -23 5 -19 -8 5 -13 3 -13
-7 0 -20 17 -30 23 -14 4 10 6 10 6 0 1 -9 7 -8 26 4 23 15 25 15 25 0 0 -9
-5 -16 -12 -16 -6 0 -8 -3 -5 -6 4 -4 13 -1 22 6 9 7 15 8 15 2 0 -14 29 -20
61 -11 19 5 29 2 37 -12 7 -11 8 -19 3 -19 -6 0 -13 5 -16 10 -3 6 -16 10 -28
9 -20 -1 -19 -2 6 -12 15 -6 27 -14 27 -19 0 -4 8 -8 18 -8 54 0 -13 97 -83
120 -19 6 -35 16 -35 21 0 10 -83 13 -93 3z m98 -34 c-3 -5 -16 -10 -28 -9
-20 1 -20 2 3 9 14 4 26 8 28 9 2 1 0 -3 -3 -9z m35 -24 c0 -3 -4 -8 -10 -11
-5 -3 -10 -1 -10 4 0 6 5 11 10 11 6 0 10 -2 10 -4z"/>
<path d="M6185 2600 c-3 -5 -2 -10 4 -10 5 0 13 5 16 10 3 6 2 10 -4 10 -5 0
-13 -4 -16 -10z"/>
<path d="M6040 2539 c0 -5 5 -7 10 -4 6 3 10 8 10 11 0 2 -4 4 -10 4 -5 0 -10
-5 -10 -11z"/>
<path d="M6370 2499 c0 -5 -4 -7 -10 -4 -5 3 -10 1 -10 -4 0 -16 26 -13 40 4
10 12 10 15 -4 15 -9 0 -16 -5 -16 -11z"/>
<path d="M6395 2465 l-30 -14 29 4 c29 4 43 12 35 19 -2 2 -17 -2 -34 -9z"/>
<path d="M6440 2450 c0 -5 5 -10 11 -10 5 0 7 5 4 10 -3 6 -8 10 -11 10 -2 0
-4 -4 -4 -10z"/>
<path d="M6483 2446 c2 -6 12 -10 22 -8 10 2 14 -1 10 -7 -3 -6 -1 -11 5 -11
22 0 5 35 -18 36 -13 1 -21 -4 -19 -10z"/>
<path d="M6460 2421 c0 -6 5 -13 10 -16 6 -3 10 1 10 9 0 9 -4 16 -10 16 -5 0
-10 -4 -10 -9z"/>
<path d="M6500 2390 c-11 -11 -20 -25 -20 -30 0 -16 28 -24 43 -12 18 14 49
11 43 -4 -3 -8 -1 -16 3 -19 16 -9 5 52 -11 69 -22 21 -34 20 -58 -4z"/>
<path d="M6530 2340 c0 -5 5 -10 11 -10 5 0 7 5 4 10 -3 6 -8 10 -11 10 -2 0
-4 -4 -4 -10z"/>
<path d="M6528 2303 c7 -3 16 -2 19 1 4 3 -2 6 -13 5 -11 0 -14 -3 -6 -6z"/>
<path d="M6570 2290 c0 -5 5 -10 10 -10 6 0 10 5 10 10 0 6 -4 10 -10 10 -5 0
-10 -4 -10 -10z"/>
<path d="M6622 2271 c-10 -6 -10 -10 0 -19 8 -6 19 -7 26 -3 10 6 10 10 0 19
-8 6 -19 7 -26 3z"/>
<path d="M5960 2252 c0 -7 7 -20 15 -28 19 -20 20 -4 0 22 -9 12 -14 14 -15 6z"/>
<path d="M6261 2229 c-23 -9 -29 -27 -8 -26 35 1 46 -4 41 -18 -4 -9 0 -15 9
-15 8 0 20 -7 27 -15 7 -8 17 -15 22 -15 7 0 6 5 -1 13 -6 8 -9 16 -8 18 2 2
-11 18 -28 35 -25 24 -37 29 -54 23z"/>
<path d="M6470 2171 c0 -5 9 -19 20 -32 l20 -24 -3 25 c-2 24 -14 40 -29 40
-5 0 -8 -4 -8 -9z"/>
<path d="M6620 2166 c0 -2 8 -10 18 -17 15 -13 16 -12 3 4 -13 16 -21 21 -21
13z"/>
<path d="M6720 2161 c0 -7 -5 -9 -12 -5 -7 5 -8 3 -3 -5 5 -9 10 -10 18 -2 6
6 8 14 4 18 -4 3 -7 1 -7 -6z"/>
<path d="M6190 2140 c8 -5 22 -10 30 -10 13 0 13 1 0 10 -8 5 -22 10 -30 10
-13 0 -13 -1 0 -10z"/>
<path d="M6521 2134 c0 -11 3 -14 6 -6 3 7 2 16 -1 19 -3 4 -6 -2 -5 -13z"/>
<path d="M6096 2125 c-3 -10 1 -15 12 -15 10 0 26 -6 37 -13 38 -26 52 -27 51
-4 -2 38 -87 65 -100 32z m74 -15 c0 -5 -2 -10 -4 -10 -3 0 -8 5 -11 10 -3 6
-1 10 4 10 6 0 11 -4 11 -10z"/>
<path d="M6280 2130 c0 -5 5 -10 11 -10 5 0 7 5 4 10 -3 6 -8 10 -11 10 -2 0
-4 -4 -4 -10z"/>
<path d="M6395 2110 c3 -5 11 -10 16 -10 6 0 7 5 4 10 -3 6 -11 10 -16 10 -6
0 -7 -4 -4 -10z"/>
<path d="M6030 2091 c0 -5 5 -13 10 -16 6 -3 10 -2 10 4 0 5 -4 13 -10 16 -5
3 -10 2 -10 -4z"/>
<path d="M6782 2088 c3 -7 13 -15 22 -16 12 -3 17 1 14 10 -3 7 -13 15 -22 16
-12 3 -17 -1 -14 -10z"/>
<path d="M6240 2074 c0 -8 5 -12 10 -9 6 4 8 11 5 16 -9 14 -15 11 -15 -7z"/>
<path d="M6685 2080 c3 -5 8 -10 11 -10 2 0 4 5 4 10 0 6 -5 10 -11 10 -5 0
-7 -4 -4 -10z"/>
<path d="M6705 2059 c-9 -14 -2 -20 14 -10 8 6 9 11 3 15 -6 3 -14 1 -17 -5z"/>
<path d="M6750 2062 c0 -5 7 -13 16 -16 10 -4 14 -1 12 6 -5 15 -28 23 -28 10z"/>
<path d="M5986 2035 c4 -8 11 -15 16 -15 6 0 5 6 -2 15 -7 8 -14 15 -16 15 -2
0 -1 -7 2 -15z"/>
<path d="M6058 2027 c12 -13 22 -29 22 -36 0 -7 5 -9 10 -6 12 8 -26 65 -42
65 -7 0 -2 -10 10 -23z"/>
<path d="M6220 2046 c0 -2 7 -7 16 -10 8 -3 12 -2 9 4 -6 10 -25 14 -25 6z"/>
<path d="M6710 2025 c0 -12 40 -48 46 -42 4 4 -1 16 -11 27 -17 19 -35 26 -35
15z"/>
<path d="M6796 2017 c3 -10 9 -15 12 -12 3 3 0 11 -7 18 -10 9 -11 8 -5 -6z"/>
<path d="M6920 2002 c0 -6 -7 -9 -15 -6 -22 9 -18 -9 5 -24 13 -8 27 -9 36 -4
13 7 12 11 -6 27 -11 10 -20 13 -20 7z"/>
<path d="M6850 1980 c0 -12 42 -31 50 -23 6 5 -30 33 -42 33 -4 0 -8 -5 -8
-10z"/>
<path d="M6810 1970 c-12 -8 -10 -10 8 -10 13 0 20 4 17 10 -7 12 -6 12 -25 0z"/>
<path d="M6530 1960 c0 -5 5 -10 10 -10 6 0 10 5 10 10 0 6 -4 10 -10 10 -5 0
-10 -4 -10 -10z"/>
<path d="M6815 1940 c-3 -5 1 -10 9 -10 9 0 16 5 16 10 0 6 -4 10 -9 10 -6 0
-13 -4 -16 -10z"/>
<path d="M6899 1939 c-7 -4 -18 -5 -26 -2 -11 4 -12 -1 -7 -23 9 -39 22 -54
48 -54 32 0 46 13 41 38 -2 12 1 22 8 22 8 0 8 3 -1 12 -14 14 -46 18 -63 7z"/>
<path d="M6090 1929 c0 -8 7 -23 15 -33 11 -14 15 -16 15 -5 0 8 -7 23 -15 33
-11 14 -15 16 -15 5z"/>
<path d="M6790 1931 c0 -10 19 -25 25 -20 1 2 -3 10 -11 17 -8 7 -14 8 -14 3z"/>
<path d="M6870 1841 c0 -6 4 -13 10 -16 6 -3 7 1 4 9 -7 18 -14 21 -14 7z"/>
<path d="M6840 1810 c-8 -5 -11 -12 -7 -16 4 -4 13 -2 19 4 15 15 7 24 -12 12z"/>
<path d="M5901 1783 c0 -5 4 -17 9 -28 8 -18 9 -17 9 8 1 15 -3 27 -9 27 -5 0
-10 -3 -9 -7z"/>
<path d="M3961 3474 c0 -11 3 -14 6 -6 3 7 2 16 -1 19 -3 4 -6 -2 -5 -13z"/>
<path d="M3748 3343 c-10 -12 -9 -14 7 -12 11 2 25 1 30 -2 6 -4 18 -3 29 0
15 6 11 9 -18 18 -29 9 -38 8 -48 -4z"/>
<path d="M4025 3220 c-3 -5 -1 -10 4 -10 6 0 11 5 11 10 0 6 -2 10 -4 10 -3 0
-8 -4 -11 -10z"/>
<path d="M8332 2488 c-7 -7 -12 -18 -12 -25 0 -7 -5 -13 -11 -13 -5 0 -8 -4
-5 -9 7 -10 56 -2 56 10 0 5 -6 9 -12 9 -7 0 -5 5 5 11 9 5 17 14 17 19 0 14
-24 12 -38 -2z"/>
<path d="M8420 2440 c0 -5 4 -10 9 -10 6 0 13 5 16 10 3 6 -1 10 -9 10 -9 0
-16 -4 -16 -10z"/>
<path d="M9150 2174 c0 -7 12 -25 26 -39 19 -19 29 -23 39 -15 14 12 27 50 17
50 -4 0 -24 4 -44 9 -30 7 -38 6 -38 -5z m70 -38 c0 -3 -4 -8 -10 -11 -5 -3
-10 -1 -10 4 0 6 5 11 10 11 6 0 10 -2 10 -4z"/>
<path d="M8235 2120 c-3 -5 -1 -10 4 -10 6 0 11 5 11 10 0 6 -2 10 -4 10 -3 0
-8 -4 -11 -10z"/>
<path d="M8263 2083 c-7 -3 -13 -11 -13 -19 0 -8 6 -14 13 -14 8 0 7 -4 -3
-10 -10 -7 -11 -10 -2 -10 7 0 15 6 18 14 8 22 1 44 -13 39z"/>
<path d="M8090 2021 c22 -13 79 -17 82 -6 2 6 -19 11 -47 13 -33 1 -45 -1 -35
-7z"/>
<path d="M7560 2000 c-8 -5 -10 -10 -5 -10 6 0 17 5 25 10 8 5 11 10 5 10 -5
0 -17 -5 -25 -10z"/>
<path d="M8420 1979 c0 -5 5 -7 10 -4 6 3 10 8 10 11 0 2 -4 4 -10 4 -5 0 -10
-5 -10 -11z"/>
<path d="M7796 1972 c-2 -4 4 -9 15 -9 11 -1 17 2 14 8 -7 11 -22 12 -29 1z"/>
<path d="M9270 1942 c0 -5 12 -18 28 -28 17 -11 23 -12 15 -3 -6 8 -11 19 -12
24 0 13 -31 20 -31 7z"/>
<path d="M9321 1934 c0 -11 3 -14 6 -6 3 7 2 16 -1 19 -3 4 -6 -2 -5 -13z"/>
<path d="M7850 1926 c0 -2 7 -7 16 -10 8 -3 12 -2 9 4 -6 10 -25 14 -25 6z"/>
<path d="M8516 1914 c-5 -12 -2 -15 10 -10 8 3 18 6 20 6 3 0 2 5 -1 10 -9 15
-22 12 -29 -6z"/>
<path d="M8960 1921 c0 -14 18 -23 31 -15 8 4 7 9 -2 15 -18 11 -29 11 -29 0z"/>
<path d="M9140 1920 c8 -5 20 -10 25 -10 6 0 3 5 -5 10 -8 5 -19 10 -25 10 -5
0 -3 -5 5 -10z"/>
<path d="M7802 1900 c-7 -11 -8 -20 -3 -20 9 0 24 30 18 36 -1 2 -8 -6 -15
-16z"/>
<path d="M9042 1899 c2 -7 10 -15 17 -17 8 -3 12 1 9 9 -2 7 -10 15 -17 17 -8
3 -12 -1 -9 -9z"/>
<path d="M7735 1877 c10 -8 15 -19 11 -25 -4 -7 -2 -12 3 -12 12 0 14 11 5 34
-3 9 -13 16 -22 16 -13 0 -13 -2 3 -13z"/>
<path d="M8910 1875 c0 -8 2 -15 4 -15 2 0 6 7 10 15 3 8 1 15 -4 15 -6 0 -10
-7 -10 -15z"/>
<path d="M9440 1880 c0 -5 5 -10 11 -10 5 0 7 5 4 10 -3 6 -8 10 -11 10 -2 0
-4 -4 -4 -10z"/>
<path d="M7680 1860 c-8 -5 -11 -12 -8 -16 10 -9 38 3 38 16 0 12 -10 13 -30
0z"/>
<path d="M7865 1860 c3 -5 13 -10 21 -10 8 0 14 5 14 10 0 6 -9 10 -21 10 -11
0 -17 -4 -14 -10z"/>
<path d="M9248 1843 c-7 -10 -20 -19 -28 -21 -22 -5 -40 -22 -37 -35 1 -7 -3
-11 -9 -10 -6 1 -11 -11 -10 -27 1 -38 16 -34 39 11 10 19 24 33 32 31 10 -2
13 2 9 13 -3 8 -1 15 6 15 6 0 8 5 4 12 -5 7 -2 9 8 6 9 -4 15 0 15 8 0 19
-13 18 -29 -3z"/>
<path d="M8806 1835 c4 -8 1 -15 -5 -15 -6 0 -11 -7 -11 -15 0 -19 14 -19 30
0 13 16 7 45 -9 45 -6 0 -8 -7 -5 -15z"/>
<path d="M9040 1840 c-8 -5 -10 -10 -5 -10 6 0 17 5 25 10 8 5 11 10 5 10 -5
0 -17 -5 -25 -10z"/>
<path d="M9307 1833 c-4 -3 -7 -21 -7 -38 0 -42 -22 -62 -43 -40 -9 8 -18 15
-21 15 -10 0 -6 -39 4 -45 6 -3 10 -1 10 4 0 6 5 11 10 11 6 0 10 -6 10 -13 0
-8 12 -14 30 -14 33 0 41 21 13 31 -12 5 -14 9 -6 14 7 4 19 24 28 45 14 35
14 37 -3 37 -10 0 -22 -3 -25 -7z"/>
<path d="M9395 1830 c3 -5 8 -10 11 -10 2 0 4 5 4 10 0 6 -5 10 -11 10 -5 0
-7 -4 -4 -10z"/>
<path d="M9360 1813 c0 -9 -8 -25 -17 -35 -16 -18 -16 -19 12 -14 17 3 32 1
37 -6 12 -20 16 -5 6 28 -9 35 -38 55 -38 27z"/>
<path d="M7786 1788 c-8 -12 -12 -26 -9 -32 4 -6 8 -4 11 4 3 8 9 23 14 33 12
24 2 21 -16 -5z"/>
<path d="M8130 1795 c7 -8 16 -15 21 -15 5 0 9 7 9 15 0 9 -9 15 -21 15 -18 0
-19 -2 -9 -15z"/>
<path d="M8190 1765 c0 -9 6 -12 15 -9 8 4 15 7 15 9 0 2 -7 5 -15 9 -9 3 -15
0 -15 -9z"/>
<path d="M8246 1733 c12 -48 21 -54 47 -29 13 13 17 12 37 -10 23 -24 64 -32
74 -15 6 9 -92 81 -111 81 -6 0 -14 -6 -16 -12 -4 -10 -6 -10 -6 0 -1 6 -8 12
-16 12 -12 0 -14 -7 -9 -27z"/>
<path d="M9360 1742 c0 -6 11 -24 24 -39 22 -25 24 -26 19 -6 -6 24 -43 63
-43 45z"/>
<path d="M7975 1720 c-3 -5 -1 -10 4 -10 6 0 11 5 11 10 0 6 -2 10 -4 10 -3 0
-8 -4 -11 -10z"/>
<path d="M8215 1720 c-3 -5 -1 -10 4 -10 6 0 11 5 11 10 0 6 -2 10 -4 10 -3 0
-8 -4 -11 -10z"/>
<path d="M8208 1673 c-7 -10 -26 -26 -43 -35 -16 -9 -31 -21 -33 -27 -6 -19
26 -12 47 10 13 15 24 18 35 12 14 -7 13 -12 -3 -37 -10 -15 -21 -27 -25 -27
-17 2 -39 1 -35 -3 11 -10 121 -17 115 -8 -4 7 4 9 21 7 40 -5 40 -5 15 -15
l-23 -10 33 -29 c18 -16 35 -26 38 -21 10 16 126 73 146 72 31 -2 61 33 45 52
-7 8 -10 20 -6 26 3 5 2 10 -4 10 -5 0 -14 -7 -19 -16 -8 -15 -11 -15 -31 5
-12 12 -34 21 -50 21 -32 0 -51 -15 -22 -17 24 -2 85 -39 74 -46 -4 -2 -21 -7
-37 -11 -16 -4 -41 -16 -55 -27 -16 -13 -27 -16 -29 -9 -5 15 17 40 36 40 11
0 13 3 5 11 -7 7 -21 4 -47 -11 -36 -19 -63 -19 -50 1 3 5 9 7 14 4 5 -3 11 4
15 15 3 11 13 20 21 20 8 0 14 5 14 11 0 6 -9 8 -21 4 -14 -5 -25 -1 -35 12
-14 17 -15 16 -10 -8 4 -17 0 -31 -9 -39 -12 -10 -15 -9 -15 8 0 16 -6 20 -26
19 -33 -2 -44 22 -14 30 16 4 18 8 8 14 -19 12 -25 11 -40 -8z m52 -87 c0 -2
-7 -6 -15 -10 -8 -3 -15 -1 -15 4 0 6 7 10 15 10 8 0 15 -2 15 -4z m85 -56 c3
-5 -1 -10 -9 -10 -9 0 -16 5 -16 10 0 6 4 10 9 10 6 0 13 -4 16 -10z"/>
<path d="M7951 1611 c-7 -5 -10 -14 -7 -20 11 -17 23 -13 29 9 6 22 0 25 -22
11z"/>
<path d="M7997 1591 c-4 -17 -3 -21 5 -13 5 5 8 16 6 23 -3 8 -7 3 -11 -10z"/>
<path d="M8035 1600 c-3 -5 -1 -10 4 -10 6 0 11 5 11 10 0 6 -2 10 -4 10 -3 0
-8 -4 -11 -10z"/>
<path d="M8074 1575 c-12 -9 -14 -14 -6 -15 7 0 20 7 28 15 20 19 4 20 -22 0z"/>
<path d="M8560 1580 c0 -5 5 -10 10 -10 18 0 10 -39 -10 -50 -11 -6 -20 -17
-20 -26 0 -12 4 -12 28 3 60 39 68 63 27 81 -32 15 -35 15 -35 2z"/>
<path d="M8687 1583 c-4 -3 -7 -15 -7 -25 0 -21 25 -24 33 -4 6 16 -16 40 -26
29z"/>
<path d="M8636 1532 c-2 -4 11 -21 31 -36 28 -23 37 -26 44 -15 10 17 7 31 -8
36 -6 2 -13 -4 -16 -14 -4 -17 -5 -17 -6 0 0 9 -6 17 -12 17 -5 0 -7 5 -4 10
3 6 -1 10 -9 10 -8 0 -17 -4 -20 -8z"/>
<path d="M8686 1435 c-3 -8 -1 -15 4 -15 13 0 22 18 11 24 -5 3 -11 -1 -15 -9z"/>
<path d="M9357 1433 c3 -7 8 -13 12 -13 4 0 8 6 8 13 0 8 -6 14 -13 14 -7 0
-10 -6 -7 -14z"/>
<path d="M9440 1439 c0 -4 9 -13 20 -19 16 -8 20 -8 20 3 0 8 -9 17 -20 20
-11 3 -20 1 -20 -4z"/>
<path d="M8080 1294 l0 -146 56 4 c75 6 96 28 102 107 9 129 -22 181 -108 181
l-50 0 0 -146z"/>
<path d="M9065 1430 c-3 -4 1 -11 7 -13 8 -3 6 -6 -4 -6 -10 -1 -18 4 -18 9 0
6 -9 10 -20 10 -25 0 -26 -17 -2 -23 16 -4 16 -5 0 -6 -16 -1 -18 -13 -17
-108 1 -60 4 -97 6 -85 4 19 9 23 26 17 12 -3 28 -7 35 -7 6 -1 12 -7 12 -14
0 -25 -56 -112 -66 -102 -6 6 20 52 43 76 13 13 16 22 9 22 -2 0 -18 -13 -35
-29 l-31 -29 0 -171 0 -171 60 0 c51 0 65 4 85 25 l25 24 0 256 c0 210 -3 261
-15 285 -9 17 -20 30 -25 30 -16 0 -23 2 -47 11 -12 5 -25 4 -28 -1z m45 -39
c0 -5 -7 -12 -16 -15 -14 -5 -15 -4 -4 9 14 17 20 19 20 6z m50 -5 c0 -2 -8
-10 -17 -17 -16 -13 -17 -12 -4 4 13 16 21 21 21 13z m-104 -32 c-21 -20 -20
-34 2 -34 16 -1 16 -1 -1 -11 -10 -6 -22 -9 -27 -7 -12 4 16 68 30 68 7 0 5
-7 -4 -16z m107 -198 c6 -15 -6 -38 -19 -36 -5 1 -10 -3 -12 -8 -2 -6 7 -8 20
-5 19 5 21 3 11 -8 -7 -7 -13 -21 -13 -32 0 -10 -4 -16 -9 -12 -5 3 -12 -4
-16 -15 -3 -11 -11 -20 -16 -20 -12 0 -12 53 1 66 12 12 3 44 -11 44 -5 0 -9
-7 -9 -15 0 -17 -16 -20 -25 -6 -8 14 25 43 42 36 10 -3 13 -1 10 8 -3 8 4 14
18 15 13 1 25 -4 28 -12z m-99 -81 c-4 -8 -10 -15 -15 -15 -4 0 -6 7 -3 15 4
8 10 15 15 15 4 0 6 -7 3 -15z m5 -66 c-22 -14 -33 -10 -19 6 7 8 17 12 22 9
6 -4 5 -10 -3 -15z"/>
<path d="M8650 1409 c0 -5 5 -7 10 -4 6 3 10 8 10 11 0 2 -4 4 -10 4 -5 0 -10
-5 -10 -11z"/>
<path d="M4501 2194 c0 -11 3 -14 6 -6 3 7 2 16 -1 19 -3 4 -6 -2 -5 -13z"/>
<path d="M4466 2080 c-18 -46 -20 -70 -6 -70 6 0 10 5 10 11 0 8 6 7 18 -2 15
-13 16 -12 3 4 -11 14 -12 23 -2 43 6 14 11 31 11 39 0 28 -18 15 -34 -25z"/>
<path d="M4511 2070 c-13 -39 -13 -40 -3 -40 15 0 33 41 24 57 -7 12 -11 9
-21 -17z"/>
<path d="M7305 1810 c3 -5 8 -10 11 -10 2 0 4 5 4 10 0 6 -5 10 -11 10 -5 0
-7 -4 -4 -10z"/>
<path d="M7510 1741 c0 -5 5 -13 10 -16 6 -3 10 -2 10 4 0 5 -4 13 -10 16 -5
3 -10 2 -10 -4z"/>
<path d="M7237 1426 c-16 -12 -16 -16 -1 -45 8 -17 16 -31 17 -31 1 0 2 11 2
25 0 14 -4 25 -9 25 -6 0 -2 6 9 13 10 8 14 16 9 20 -5 3 -17 0 -27 -7z"/>
<path d="M7850 1540 c0 -5 7 -10 15 -10 8 0 15 5 15 10 0 6 -7 10 -15 10 -8 0
-15 -4 -15 -10z"/>
<path d="M6473 1434 c-2 -5 -2 -64 -1 -130 l3 -119 54 0 c46 1 57 5 77 29 21
23 24 38 24 100 0 99 -18 123 -96 128 -34 2 -58 -1 -61 -8z"/>
<path d="M6477 1064 c-9 -9 -8 -86 1 -139 6 -29 10 -35 14 -23 5 11 14 16 25
12 14 -5 15 -4 4 4 -12 9 -13 13 -1 27 7 8 18 14 24 12 6 -3 20 3 30 12 14 11
17 12 11 2 -6 -10 -4 -12 4 -7 7 5 10 15 7 23 -3 8 -1 11 5 8 5 -4 8 -12 6
-18 -2 -7 2 -20 11 -29 14 -16 12 -24 -17 -79 -35 -66 -33 -90 4 -47 42 49 41
176 -2 220 -19 19 -112 35 -126 22z"/>
<path d="M6553 908 c-16 -18 -19 -29 -12 -52 9 -32 3 -49 -10 -27 -6 10 -10 9
-15 -5 -3 -9 -4 -19 -1 -22 3 -3 5 -2 5 2 0 4 8 2 18 -3 16 -8 21 -3 37 41 14
39 15 52 5 58 -7 4 -9 13 -6 19 12 18 1 12 -21 -11z m12 -48 c3 -5 1 -10 -4
-10 -6 0 -11 5 -11 10 0 6 2 10 4 10 3 0 8 -4 11 -10z"/>
<path d="M6480 855 c0 -8 5 -15 10 -15 6 0 10 7 10 15 0 8 -4 15 -10 15 -5 0
-10 -7 -10 -15z"/>
<path d="M6481 814 c0 -11 3 -14 6 -6 3 7 2 16 -1 19 -3 4 -6 -2 -5 -13z"/>
<path d="M11227 1443 c-42 -11 -47 -47 -47 -333 l0 -271 25 -24 c26 -27 80
-34 117 -14 42 22 48 63 48 319 0 188 -3 248 -15 275 -19 47 -66 64 -128 48z"/>
<path d="M10285 1442 c-3 -3 -5 -63 -5 -134 l0 -128 49 0 c69 0 102 29 110 96
8 64 -1 121 -25 144 -18 18 -116 35 -129 22z"/>
<path d="M10280 930 l0 -140 43 0 c23 0 52 3 65 6 45 13 73 114 53 191 -16 57
-51 83 -112 83 l-49 0 0 -140z"/>
<path d="M5935 1370 c-3 -5 -2 -10 4 -10 5 0 13 5 16 10 3 6 2 10 -4 10 -5 0
-13 -4 -16 -10z"/>
<path d="M6025 1340 c3 -5 10 -10 16 -10 5 0 9 5 9 10 0 6 -7 10 -16 10 -8 0
-12 -4 -9 -10z"/>
<path d="M9545 1380 c3 -5 8 -10 11 -10 2 0 4 5 4 10 0 6 -5 10 -11 10 -5 0
-7 -4 -4 -10z"/>
<path d="M7387 7159 c7 -7 15 -10 18 -7 3 3 -2 9 -12 12 -14 6 -15 5 -6 -5z"/>
<path d="M7330 7130 c0 -5 5 -10 10 -10 6 0 10 5 10 10 0 6 -4 10 -10 10 -5 0
-10 -4 -10 -10z"/>
<path d="M7365 7090 c-3 -5 -1 -10 4 -10 6 0 11 5 11 10 0 6 -2 10 -4 10 -3 0
-8 -4 -11 -10z"/>
<path d="M7360 7061 c0 -5 11 -11 25 -13 20 -4 23 -3 14 8 -13 16 -39 19 -39
5z"/>
<path d="M7358 6993 c7 -3 16 -2 19 1 4 3 -2 6 -13 5 -11 0 -14 -3 -6 -6z"/>
<path d="M7290 6950 c-8 -5 -10 -10 -5 -10 6 0 17 5 25 10 8 5 11 10 5 10 -5
0 -17 -5 -25 -10z"/>
<path d="M7430 6934 c0 -14 3 -14 15 -4 8 7 15 14 15 16 0 2 -7 4 -15 4 -8 0
-15 -7 -15 -16z"/>
<path d="M7335 6909 c-18 -8 -17 -9 5 -5 26 5 24 3 -27 -31 -17 -12 -17 -12 1
-6 15 5 17 2 11 -15 -4 -16 -2 -22 9 -22 10 0 13 6 10 15 -4 9 0 15 7 16 8 0
5 4 -6 8 -19 8 -19 8 3 15 12 4 22 14 22 22 0 16 -7 17 -35 3z"/>
<path d="M7275 6840 c3 -5 8 -10 11 -10 2 0 4 5 4 10 0 6 -5 10 -11 10 -5 0
-7 -4 -4 -10z"/>
<path d="M7175 6810 c3 -5 8 -10 11 -10 2 0 4 5 4 10 0 6 -5 10 -11 10 -5 0
-7 -4 -4 -10z"/>
<path d="M7300 6810 c8 -5 20 -10 25 -10 6 0 3 5 -5 10 -8 5 -19 10 -25 10 -5
0 -3 -5 5 -10z"/>
<path d="M6956 6775 c-3 -8 -1 -15 4 -15 6 0 10 4 10 9 0 5 8 12 18 14 13 4
12 5 -4 6 -12 0 -24 -6 -28 -14z"/>
<path d="M8133 6070 c1 -11 5 -20 9 -20 4 0 8 9 8 20 0 11 -4 20 -9 20 -6 0
-9 -9 -8 -20z"/>
<path d="M4537 106 c-7 -19 11 -32 24 -19 6 6 5 14 -4 22 -12 9 -16 8 -20 -3z"/>
<path d="M4540 60 c0 -5 7 -10 15 -10 8 0 15 5 15 10 0 6 -7 10 -15 10 -8 0
-15 -4 -15 -10z"/>
</g>
</svg>
