<?xml version="1.0" standalone="no"?>
<!DOCTYPE svg PUBLIC "-//W3C//DTD SVG 20010904//EN"
 "http://www.w3.org/TR/2001/REC-SVG-20010904/DTD/svg10.dtd">
<svg version="1.0" xmlns="http://www.w3.org/2000/svg"
 width="1280.000000pt" height="720.000000pt" viewBox="0 0 1280.000000 720.000000"
 preserveAspectRatio="xMidYMid meet">
<metadata>
Created by potrace 1.16, written by Peter Selinger 2001-2019
</metadata>
<g transform="translate(0.000000,720.000000) scale(0.100000,-0.100000)"
fill="#000000" stroke="none">
<path d="M0 3600 l0 -3600 3915 0 3916 0 10 27 c8 21 6 30 -11 48 -24 25 -26
37 -5 29 8 -4 15 -12 15 -19 0 -7 7 -18 15 -25 13 -11 13 -15 3 -22 -10 -6 -7
-10 10 -14 12 -4 22 -10 22 -15 0 -5 7 -9 15 -9 8 0 15 7 15 16 0 14 1 14 16
0 23 -23 25 -20 9 18 -8 18 -11 36 -8 40 4 3 1 6 -5 6 -7 0 -12 -4 -12 -10 0
-5 -5 -10 -11 -10 -5 0 -7 5 -4 11 4 5 0 18 -8 27 -8 9 -24 37 -36 62 l-22 45
61 -65 c34 -36 76 -82 93 -102 l31 -38 991 1 c544 1 981 4 970 8 -30 9 -117
57 -140 76 -20 16 -19 16 7 12 15 -2 25 -1 23 4 -3 4 22 6 55 4 33 -2 58 0 55
5 -3 5 8 5 25 0 19 -6 28 -5 24 1 -3 6 5 7 22 3 18 -5 25 -3 20 4 -4 8 3 8 26
1 40 -11 47 -11 30 0 -10 6 -9 10 7 14 12 3 19 2 16 -3 -3 -4 2 -11 11 -14 8
-3 12 -2 9 4 -8 13 -3 13 30 0 19 -7 24 -7 19 1 -5 9 2 10 22 6 19 -4 11 2
-21 17 -68 32 -112 42 -50 12 28 -13 46 -25 42 -25 -5 -1 -18 4 -30 10 -27 15
-128 19 -120 6 4 -7 -1 -7 -13 -2 -46 19 -141 14 -128 -7 4 -7 2 -8 -4 -4 -7
4 -28 4 -48 0 -26 -5 -32 -9 -22 -16 8 -6 1 -7 -22 -3 -26 5 -31 4 -20 -4 11
-8 11 -11 2 -11 -7 0 -15 7 -18 15 -4 8 -17 15 -31 15 -52 0 -10 17 72 29 47
7 85 17 85 21 0 10 32 20 95 30 28 4 61 11 75 14 21 5 22 5 5 -3 -11 -5 -15
-10 -8 -10 6 -1 20 -4 30 -7 15 -5 15 -4 3 5 -8 6 -11 11 -6 11 5 0 2 7 -5 17
-13 15 -8 15 61 9 41 -4 88 -14 105 -22 16 -8 22 -12 13 -9 -29 7 -21 -2 22
-26 57 -32 42 -35 -20 -4 -29 14 -54 25 -56 22 -2 -2 23 -16 57 -32 33 -16 65
-35 70 -41 6 -7 17 -10 25 -7 19 7 67 -25 61 -42 -7 -16 20 -55 36 -55 7 0 6
4 -3 11 -12 9 -12 10 3 5 10 -3 21 -6 23 -6 3 0 2 -5 -1 -10 -3 -6 6 -15 20
-20 36 -14 1595 -14 1595 0 0 6 -4 10 -10 10 -5 0 -10 5 -10 11 0 5 4 8 9 4 5
-3 12 -1 16 5 3 6 18 7 33 4 15 -4 43 -7 62 -9 63 -3 68 -5 73 -22 3 -12 5 -9
6 8 0 15 7 29 15 32 8 3 16 18 18 33 2 20 9 28 26 29 19 1 23 -3 20 -24 -2
-14 -9 -27 -15 -27 -7 -1 -17 -2 -23 -3 -5 0 -10 -14 -10 -31 0 -34 23 -40 61
-17 17 9 23 9 26 0 4 -10 51 -13 193 -13 l188 0 1 134 c1 77 -3 136 -8 138
-15 5 -18 83 -3 81 9 -2 12 28 12 128 0 115 -2 129 -15 116 -15 -16 -96 -37
-143 -37 -31 -1 -105 -52 -108 -76 -3 -22 -25 -45 -38 -41 -6 2 -22 0 -35 -5
-35 -13 -61 -1 -61 28 0 20 4 24 19 19 12 -3 21 0 25 10 3 9 19 21 36 26 28
10 43 39 20 39 -5 0 -10 9 -10 20 0 25 -10 25 -54 -1 -39 -23 -41 -22 -24 15
12 28 23 33 79 40 l36 4 -4 -43 c-3 -23 0 -51 6 -61 9 -17 10 -17 11 -1 0 16
11 21 39 18 7 -2 10 2 7 8 -4 5 3 12 14 16 11 3 20 10 20 15 0 4 11 11 25 14
17 4 25 14 26 29 1 12 2 29 3 37 2 8 3 23 4 33 1 10 6 16 11 13 4 -3 6 -18 3
-33 -4 -24 -3 -26 10 -16 18 16 28 7 28 -24 0 -20 4 -23 20 -18 12 4 20 2 20
-5 0 -7 6 -6 15 4 13 12 15 62 14 333 -1 175 -4 308 -6 296 -2 -13 -11 -23
-19 -23 -16 0 -18 18 -4 40 5 9 5 19 -2 27 -17 20 -45 15 -52 -10 -9 -32 -8
-34 14 -40 30 -8 26 -44 -5 -49 -14 -3 -25 -1 -25 6 0 6 -4 5 -9 -3 -5 -8 -11
-9 -15 -3 -3 6 -2 13 4 17 5 3 10 17 10 31 0 22 -3 24 -27 18 -16 -4 -32 -11
-37 -15 -6 -5 -19 -9 -29 -9 -15 0 -17 -3 -9 -13 17 -19 3 -90 -15 -83 -8 3
-23 1 -34 -5 -17 -9 -21 -7 -26 10 -3 12 -11 21 -18 21 -8 0 -16 10 -18 23 -2
12 -5 0 -6 -27 -1 -38 -4 -47 -16 -42 -9 3 -15 0 -15 -9 0 -7 -5 -17 -11 -20
-7 -5 -8 4 -4 28 7 34 -4 51 -30 52 -5 0 -11 12 -13 28 -3 21 -9 27 -28 27
-20 0 -25 -6 -31 -42 -6 -41 -7 -42 -15 -16 -5 14 -16 29 -25 32 -19 8 -43
-10 -43 -31 0 -12 -3 -13 -15 -3 -20 17 -35 4 -35 -31 0 -16 -3 -29 -7 -29 -5
0 -7 -21 -5 -47 3 -36 -1 -53 -15 -68 -28 -31 -57 -77 -68 -110 -7 -20 -17
-30 -30 -30 -15 0 -21 -8 -23 -30 -2 -16 -8 -34 -14 -40 -8 -7 -9 -6 -4 2 14
24 -12 13 -28 -12 -18 -27 -14 -45 10 -45 18 0 20 -80 2 -98 -6 -6 -9 -14 -6
-17 3 -4 18 6 33 22 25 26 26 26 20 6 -7 -27 3 -30 20 -7 11 15 14 15 38 -1
15 -9 27 -24 27 -31 0 -19 29 -15 108 17 34 13 41 11 35 -11 -6 -21 -50 -50
-78 -50 -10 0 -15 -10 -15 -30 0 -35 8 -37 38 -10 12 12 22 16 22 9 0 -8 4 -8
15 1 18 15 18 14 6 -28 -6 -21 -6 -32 1 -32 5 0 8 -6 5 -12 -2 -7 -10 -12 -16
-10 -8 1 -9 -10 -5 -37 7 -41 -10 -65 -28 -40 -7 10 -8 5 -3 -16 7 -31 23 -47
37 -39 4 3 8 10 8 15 0 17 25 37 51 41 16 2 24 9 24 23 0 29 45 27 56 -2 7
-20 5 -23 -16 -23 -16 0 -25 -6 -25 -15 0 -8 -6 -14 -12 -12 -7 1 -14 -9 -16
-23 -6 -50 -12 -57 -28 -35 -19 26 -25 25 -36 -4 l-9 -24 -29 28 c-17 16 -30
35 -30 42 0 7 -6 13 -12 13 -28 0 -68 47 -68 79 0 37 17 74 30 66 14 -9 23 41
11 62 -9 15 -10 13 -11 -16 0 -24 -4 -32 -14 -28 -8 3 -16 -2 -19 -15 -6 -23
-27 -16 -27 9 0 9 7 24 16 34 10 11 14 25 10 35 -5 14 -12 9 -34 -24 -18 -29
-34 -42 -49 -42 -27 0 -32 8 -24 37 6 22 8 22 34 8 26 -13 28 -13 25 2 -3 18
-65 37 -73 22 -3 -4 -11 -6 -18 -3 -17 6 -61 -41 -52 -55 3 -6 10 -11 15 -11
5 0 25 -11 45 -24 20 -14 40 -26 46 -28 20 -7 -2 -34 -28 -36 -35 -3 -49 -17
-36 -34 10 -13 12 -93 2 -102 -9 -9 -41 94 -36 114 3 12 -4 29 -19 45 -12 14
-38 46 -56 72 -18 27 -40 57 -50 67 -11 12 -18 35 -18 57 0 29 -5 38 -20 42
-13 3 -27 22 -37 46 -12 32 -19 38 -29 30 -7 -6 -10 -17 -7 -25 3 -8 1 -14 -5
-14 -17 0 -19 23 -6 49 10 18 10 28 1 42 -9 14 -9 21 1 31 9 9 12 9 12 0 0 -7
9 -12 20 -12 13 0 20 7 20 19 0 11 5 23 10 26 6 3 10 11 10 17 0 7 -5 6 -14
-1 -11 -9 -19 -9 -35 1 -23 14 -22 41 5 107 8 19 13 36 11 38 -3 2 -18 -9 -34
-24 -28 -26 -31 -35 -37 -121 -8 -98 -19 -118 -30 -52 -3 23 -13 43 -21 46 -8
4 -15 12 -15 19 0 7 -6 18 -14 24 -12 10 -12 17 -1 45 16 37 9 77 -24 144 -26
50 -88 122 -106 122 -7 0 -16 -17 -20 -38 -9 -52 -68 -173 -95 -197 -22 -19
-22 -17 4 25 38 63 76 149 76 172 0 18 -1 18 -27 -1 -16 -11 -39 -23 -53 -27
-21 -6 -23 -5 -13 8 16 19 7 28 -28 28 -15 0 -30 4 -33 9 -3 5 23 7 59 4 55
-3 65 -1 65 12 0 9 7 15 16 13 10 -2 19 2 21 8 2 7 -12 15 -32 18 -19 4 -35
12 -35 18 0 11 -50 76 -108 140 -34 37 -68 53 -78 37 -3 -5 -1 -9 4 -9 5 0 9
-17 10 -37 1 -33 -1 -36 -11 -21 -16 21 -32 24 -83 14 -47 -8 -108 -63 -95
-84 9 -15 41 -6 41 12 0 14 64 40 68 28 1 -5 14 -7 27 -4 14 2 31 -2 40 -12
15 -14 13 -15 -17 -11 -18 3 -27 3 -20 -1 23 -11 13 -26 -14 -20 -23 6 -25 4
-19 -11 4 -10 7 -28 6 -40 0 -17 5 -23 20 -23 17 0 19 -3 10 -14 -9 -11 -9
-15 1 -19 7 -3 3 -6 -9 -6 -16 -1 -21 -5 -16 -17 4 -10 -1 -17 -16 -21 -11 -3
-18 -9 -15 -14 3 -5 -3 -9 -13 -9 -30 0 -123 -24 -123 -32 0 -10 1 -10 79 3
36 6 74 18 83 27 26 22 89 24 105 4 8 -11 15 -13 20 -7 5 6 18 10 30 11 18 0
20 -2 12 -13 -6 -7 -15 -13 -20 -13 -36 0 -239 -115 -239 -135 0 -9 -6 -12
-16 -8 -9 3 -19 2 -23 -4 -9 -14 -217 -164 -271 -195 -25 -14 -74 -38 -110
-53 -36 -15 -80 -34 -98 -42 -39 -18 -64 -5 -36 18 12 9 15 10 10 2 -4 -8 -1
-13 9 -13 9 0 13 5 10 10 -3 6 1 10 9 10 9 0 16 5 16 10 0 6 9 10 20 10 12 0
30 9 42 20 12 11 27 20 34 20 6 0 15 7 18 16 3 8 10 12 16 9 5 -3 10 -1 10 5
0 6 6 10 13 9 17 -3 47 11 85 39 18 14 35 22 38 19 3 -3 13 1 22 8 10 8 28 23
42 34 35 27 19 36 -21 12 -25 -15 -43 -19 -75 -14 -26 3 -44 1 -48 -6 -10 -15
-36 -14 -70 4 -22 12 -32 12 -42 4 -16 -14 -19 2 -3 18 7 7 7 13 1 17 -5 3
-15 -1 -22 -9 -16 -19 -76 -20 -83 -1 -3 8 -1 17 6 20 7 3 -1 4 -18 3 -25 -2
-30 -6 -28 -25 2 -18 -3 -24 -27 -29 -34 -6 -34 -7 -20 -34 11 -20 -3 -26 -26
-11 -31 20 -94 221 -81 255 3 8 63 53 134 100 70 47 162 109 203 137 41 28
122 76 180 107 208 112 424 251 548 356 41 34 89 73 108 86 l33 23 -4 92 c-2
50 -8 103 -14 118 -6 15 -18 69 -27 120 -18 107 -22 123 -25 123 -1 0 -3 9 -5
20 -1 11 -12 63 -24 115 -30 139 -35 249 -13 318 12 40 17 92 18 172 0 143 -2
151 -127 425 -5 11 -15 88 -23 170 -19 204 -50 360 -100 508 -13 39 -18 70
-13 73 5 3 1 14 -10 25 -11 10 -36 52 -56 94 -20 41 -41 75 -46 75 -6 0 -10 6
-10 14 0 17 -75 100 -112 124 -14 9 -58 48 -98 85 -71 67 -73 68 -116 61 -35
-5 -48 -2 -70 15 -43 34 -71 27 -123 -28 -60 -64 -84 -99 -93 -136 -8 -34 -22
-92 -37 -150 -12 -46 -7 -156 14 -310 21 -163 23 -171 45 -220 11 -24 20 -51
20 -60 0 -9 7 -30 16 -46 8 -17 13 -33 10 -37 -8 -8 -10 -5 -40 73 -21 56 -26
62 -22 33 3 -21 2 -38 -2 -38 -4 0 -8 -12 -8 -26 -1 -14 -5 -28 -9 -32 -8 -8
-25 19 -19 30 3 5 -2 11 -11 14 -14 6 -14 8 -1 18 13 9 11 16 -14 46 -23 28
-30 31 -30 16 0 -10 8 -25 18 -32 16 -13 16 -15 -3 -26 -23 -14 -64 -17 -71
-6 -3 4 4 8 15 8 16 0 21 6 21 24 0 39 11 56 35 56 13 0 27 4 30 10 7 11 -39
25 -54 15 -6 -3 -16 7 -23 22 -7 15 -17 31 -23 35 -5 4 -6 10 -2 15 5 4 12 1
16 -6 5 -7 14 -10 21 -6 7 4 13 -1 17 -14 6 -22 40 -25 36 -4 -2 7 6 15 17 18
11 4 18 10 15 14 -2 5 -7 30 -10 57 -4 27 -19 102 -36 166 -42 170 -36 284 22
401 l21 42 -30 -32 c-30 -32 -82 -46 -82 -23 0 6 -7 10 -15 10 -8 0 -15 -4
-15 -10 0 -5 -11 -10 -25 -10 -14 0 -28 -7 -31 -15 -9 -24 -24 -17 -24 10 0
20 5 25 24 25 13 0 26 7 30 15 6 17 -9 21 -19 5 -3 -5 -17 -10 -30 -10 -14 0
-29 -8 -35 -19 -6 -13 -17 -17 -30 -14 -30 8 -33 20 -12 41 18 18 18 19 1 30
-15 9 -20 8 -29 -6 -9 -16 -11 -16 -25 3 -8 11 -20 27 -28 35 -8 8 -17 23 -20
32 -3 10 -19 21 -34 24 -15 4 -33 13 -40 19 -8 9 0 12 35 14 25 1 50 5 55 10
5 5 15 7 22 5 6 -3 18 2 25 11 11 13 10 18 -6 30 -26 20 -34 18 -34 -5 0 -10
-10 -24 -22 -31 -17 -9 -20 -9 -15 2 17 41 33 69 42 72 6 2 -2 2 -17 0 -14 -2
-29 0 -32 5 -3 5 26 15 64 21 39 7 70 16 70 19 -1 24 -84 79 -175 117 -41 17
-63 31 -52 33 9 2 15 8 12 13 -4 5 -2 9 3 9 9 0 35 50 30 56 -2 2 -18 -10 -35
-26 -41 -39 -50 -38 -45 6 l4 36 -30 -16 c-40 -21 -52 -20 -27 2 14 12 20 31
21 65 2 54 -5 52 -25 -7 -18 -51 -29 -63 -60 -60 -15 2 -18 1 -8 -2 27 -8 20
-22 -8 -16 -26 5 -56 42 -34 42 6 0 9 7 6 14 -4 10 -1 13 9 9 7 -3 14 0 14 6
0 6 -6 11 -12 11 -7 0 2 10 20 22 25 15 30 23 20 29 -9 5 -6 8 10 6 25 -2 29
-12 7 -21 -19 -7 -20 -26 -1 -26 21 0 57 62 45 77 -6 7 -7 22 -3 35 5 13 9 32
9 43 4 68 5 71 16 53 5 -10 18 -22 29 -28 16 -9 15 -4 -7 36 -21 38 -24 50
-14 70 15 33 -5 31 -22 -2 -10 -18 -16 -23 -22 -15 -4 7 0 20 9 30 22 24 20
34 -4 19 -28 -18 -35 -3 -11 21 12 12 21 27 21 34 -1 7 -6 5 -14 -5 -21 -29
-26 -21 -10 17 14 35 3 50 -14 19 -6 -11 -12 -13 -16 -6 -8 13 43 41 61 35 7
-3 11 4 10 16 -1 12 -7 21 -14 21 -7 0 -13 4 -13 10 0 5 -12 13 -26 16 -22 6
-24 8 -10 16 9 5 20 7 25 4 5 -4 7 3 4 14 -5 17 0 20 26 20 22 0 30 -4 25 -12
-4 -6 -3 -8 3 -5 6 4 13 -2 16 -13 3 -11 11 -20 17 -20 10 0 10 3 0 15 -7 8
-9 15 -4 15 5 0 2 5 -6 10 -12 8 -11 13 8 33 12 13 22 29 22 35 0 7 8 12 19
12 10 0 24 7 31 15 8 9 8 15 2 15 -6 0 -13 -6 -16 -12 -5 -10 -7 -10 -12 0 -5
10 -9 10 -21 0 -14 -11 -15 -10 -8 11 5 17 4 22 -5 16 -9 -6 -11 2 -6 31 3 22
7 72 8 113 1 59 -2 76 -15 86 -15 11 -62 125 -52 125 4 0 -69 70 -101 97 -74
63 -94 84 -88 95 4 6 3 8 -4 4 -6 -3 -48 23 -93 60 -45 36 -91 69 -103 74 -11
5 -97 21 -189 36 -144 22 -190 26 -310 22 -133 -5 -312 -35 -342 -58 -5 -4
-29 -11 -52 -15 -24 -4 -73 -18 -110 -33 -38 -14 -87 -26 -109 -26 -28 -1 -40
-5 -37 -13 3 -6 12 -9 21 -7 13 5 13 2 -2 -10 -23 -19 -40 -21 -30 -4 4 7 3 8
-5 4 -6 -4 -9 -11 -7 -15 7 -11 -102 -104 -113 -97 -4 3 -17 -4 -27 -17 l-19
-22 25 20 c14 10 -29 -36 -94 -102 -66 -67 -124 -119 -130 -116 -6 3 -8 3 -4
-2 4 -4 -7 -24 -25 -44 -23 -26 -36 -54 -45 -101 -8 -36 -19 -88 -26 -117 -7
-29 -10 -50 -6 -48 8 5 20 -54 20 -103 0 -38 19 -79 48 -106 17 -14 19 -23 11
-43 -5 -14 -7 -28 -5 -31 3 -3 10 8 16 23 8 20 15 25 28 20 9 -4 30 -12 46
-17 27 -10 28 -13 21 -52 -7 -45 -13 -84 -14 -103 -1 -6 -10 -9 -21 -6 -13 3
-20 0 -20 -8 0 -9 -3 -10 -11 -2 -8 8 -6 18 6 37 16 24 16 26 1 20 -20 -8 -21
9 -1 26 8 7 15 22 15 34 0 12 4 26 9 31 6 6 1 14 -15 22 -22 10 -25 9 -30 -15
-4 -15 -12 -32 -20 -38 -10 -8 -11 -19 -3 -50 14 -55 30 -94 39 -94 14 0 28
-46 18 -63 -5 -10 -6 -22 -2 -29 4 -7 3 -8 -4 -4 -8 4 -12 0 -12 -11 0 -11 -5
-24 -12 -31 -6 -6 -8 -15 -4 -19 4 -4 12 -1 17 7 8 12 9 11 5 -5 -3 -11 5 -40
17 -65 16 -33 29 -46 47 -48 25 -3 25 -2 5 15 -16 15 -45 64 -45 77 0 12 44
-4 46 -17 4 -31 26 -87 33 -87 15 0 53 -39 47 -48 -6 -9 -188 -151 -214 -166
-18 -11 -70 12 -77 33 -3 10 -22 27 -43 38 -30 17 -53 20 -119 19 -79 -2 -83
-1 -93 24 -6 14 -26 32 -44 41 -32 16 -35 16 -81 -7 -42 -22 -60 -25 -144 -23
-53 1 -124 -4 -159 -11 -54 -11 -65 -11 -80 2 -30 27 -80 48 -112 48 -17 0
-44 7 -59 14 -15 8 -52 18 -82 21 -30 4 -73 15 -96 26 -24 10 -52 19 -63 19
-11 0 -37 9 -57 20 -21 11 -44 20 -51 20 -14 0 -147 41 -231 71 -29 11 -79 22
-110 25 -31 3 -65 12 -76 19 -11 6 -56 20 -100 29 -113 25 -345 132 -345 159
0 5 6 5 13 0 6 -4 19 -8 27 -8 8 0 14 -6 12 -13 -1 -7 13 -19 33 -27 41 -18
48 -18 40 -5 -3 6 -1 10 4 10 6 0 11 -6 11 -14 0 -16 21 -26 56 -26 14 0 23
-4 19 -10 -3 -5 8 -16 24 -25 35 -17 45 -19 36 -5 -8 14 8 13 22 -1 9 -9 11
-7 7 7 -5 18 1 20 72 21 51 1 80 6 85 15 7 10 9 8 9 -5 0 -27 21 -44 49 -39
21 3 23 1 11 -7 -21 -15 4 -15 32 0 17 9 19 17 13 55 -6 42 -5 44 19 44 18 0
26 -6 29 -22 l4 -23 2 23 c1 28 27 29 34 1 6 -23 27 -17 27 7 0 11 9 8 37 -11
47 -32 53 -31 54 3 l0 27 16 -32 c20 -41 28 -41 42 -3 9 27 14 30 55 30 34 0
46 -4 46 -15 0 -20 89 -21 116 0 15 11 16 15 4 15 -10 0 -4 9 15 25 32 26 100
35 107 14 5 -16 78 10 78 28 0 7 6 13 14 13 10 0 16 14 19 43 l4 42 1 -42 c2
-54 22 -57 22 -3 0 22 5 40 10 40 6 0 10 -15 10 -33 0 -18 9 -51 19 -73 l19
-39 13 30 c8 17 17 32 20 35 4 3 9 19 11 35 l5 30 8 -32 c10 -45 31 -41 39 7
l6 40 55 0 55 0 0 40 c0 39 1 40 35 40 19 0 35 3 35 8 0 10 58 42 78 42 33 1
62 36 62 74 0 20 -4 36 -10 36 -18 0 -11 18 10 25 28 9 28 55 0 55 -24 0 -27
15 -4 24 22 9 24 8 24 -9 0 -8 5 -15 10 -15 6 0 10 -18 10 -40 0 -29 4 -40 15
-40 11 0 15 11 15 40 0 29 4 40 15 40 11 0 15 11 15 40 0 22 4 40 9 40 8 0 31
52 31 71 0 5 -12 9 -27 9 -33 0 -21 13 26 29 27 9 36 8 43 -1 5 -9 11 -3 20
20 15 38 23 40 48 10 17 -22 18 -22 17 -3 -1 12 7 24 21 30 23 10 30 25 12 25
-5 0 -10 5 -10 10 0 6 7 10 15 10 18 0 20 17 3 22 -10 4 -10 11 1 34 l15 29 7
-35 c6 -35 6 -35 8 -5 l1 30 18 -21 c9 -12 29 -24 44 -26 28 -5 28 1 3 32 -26
31 -26 73 0 103 27 30 35 33 35 13 0 -7 7 -19 15 -26 12 -10 17 -6 32 27 10
21 21 40 26 41 4 2 7 8 7 14 0 19 29 38 57 37 15 0 22 -3 15 -6 -10 -4 -9 -8
5 -19 17 -13 17 -13 -2 -14 -20 -1 -20 -1 -1 -12 15 -8 21 -8 24 0 2 7 11 12
19 12 13 0 13 3 3 15 -11 13 -8 15 14 15 26 0 35 -14 16 -23 -6 -3 -5 -4 2 -3
7 2 26 -1 42 -5 28 -8 28 -8 11 11 -11 12 -13 20 -7 20 7 0 12 5 12 11 0 7 8
18 18 25 16 13 16 15 0 28 -24 18 -23 23 7 30 26 7 34 31 13 39 -7 2 -10 8 -6
12 4 4 16 -2 28 -13 20 -19 20 -21 4 -30 -11 -6 -15 -16 -10 -27 8 -22 15 -16
30 28 11 33 13 34 31 20 14 -11 16 -17 8 -20 -7 -3 -13 -12 -13 -21 0 -13 4
-11 21 6 11 12 17 27 14 33 -4 6 1 19 11 30 16 18 16 19 -5 19 -19 0 -20 3
-11 20 14 26 30 26 30 -1 0 -13 4 -18 12 -13 6 4 4 -3 -5 -17 -18 -25 -22 -44
-8 -35 5 3 12 -1 15 -10 5 -13 8 -13 19 -2 16 16 31 50 28 63 -2 6 1 7 5 3 4
-4 15 2 25 14 11 11 19 16 19 10 0 -19 18 -14 23 6 2 9 2 2 0 -17 -4 -27 -1
-32 10 -28 21 8 28 -2 16 -24 -6 -13 -6 -19 1 -19 5 0 10 5 10 11 0 6 7 8 17
5 10 -4 14 -4 11 0 -4 4 4 15 17 26 14 11 22 25 18 33 -3 10 1 15 12 15 9 0
19 9 22 20 6 23 23 27 23 6 0 -20 21 -31 30 -16 5 8 17 9 43 2 20 -6 38 -7 42
-4 3 4 10 0 15 -8 8 -13 10 -13 10 1 0 13 -14 18 -57 24 -34 4 -51 10 -43 15
10 6 9 9 -1 13 -18 6 18 36 44 37 25 0 21 -17 -5 -24 -17 -4 -20 -8 -11 -17 8
-8 16 -6 32 10 12 12 21 25 21 30 0 14 25 20 41 10 11 -7 9 -9 -8 -9 -13 0
-23 -4 -23 -10 0 -5 11 -10 25 -10 14 0 25 5 25 10 0 6 8 10 18 10 9 0 30 7
46 15 35 18 36 18 36 0 0 -8 5 -15 10 -15 6 0 13 7 16 15 9 23 23 18 30 -10 9
-35 24 -21 22 20 -2 44 8 54 27 29 14 -19 14 -19 15 1 1 20 1 20 15 1 8 -10
12 -23 9 -28 -9 -14 6 -48 22 -48 8 0 14 5 14 10 0 6 -7 10 -15 10 -8 0 -15 5
-15 11 0 7 10 9 28 4 31 -9 88 -16 117 -16 10 0 25 -5 33 -11 11 -10 12 -6 7
25 -9 48 6 48 29 0 l18 -38 14 30 c14 30 14 29 11 -22 -3 -43 -2 -49 10 -38 7
8 13 33 13 56 0 47 8 46 21 -3 8 -31 8 -30 5 9 -2 24 0 46 5 49 5 3 9 0 9 -6
0 -6 5 -8 12 -4 7 5 8 3 3 -7 -5 -7 -10 -25 -11 -39 -1 -14 0 -19 3 -12 5 14
33 17 33 3 0 -5 -6 -12 -13 -14 -9 -4 -8 -8 3 -16 8 -6 20 -10 25 -10 6 0 4 3
-2 6 -16 6 -17 23 -2 23 7 0 18 8 26 18 13 15 13 14 3 -7 -14 -27 2 -44 34
-37 10 3 24 -1 31 -7 10 -10 9 -14 -9 -24 l-21 -13 23 -6 c12 -3 22 -12 22
-19 0 -22 32 -49 40 -34 4 6 13 8 20 4 10 -6 9 -10 -4 -17 -9 -5 -16 -14 -16
-21 0 -7 4 -6 10 3 6 10 10 11 10 3 0 -7 5 -13 11 -13 7 0 9 12 7 32 l-5 32
19 -24 c13 -17 18 -33 14 -52 -7 -34 9 -45 35 -22 16 15 19 15 19 2 0 -9 9
-18 21 -21 12 -3 18 -10 15 -16 -4 -6 0 -21 7 -33 25 -39 30 -78 11 -85 -12
-5 -13 -7 -2 -14 7 -5 13 -12 13 -16 1 -14 25 -53 33 -53 4 0 13 4 21 9 11 7
11 13 -3 32 -15 22 -16 22 -16 4 -1 -18 -2 -17 -15 5 -12 22 -12 27 3 39 12
10 14 15 5 18 -15 6 -17 33 -3 33 6 0 10 -7 10 -15 0 -24 37 -18 45 8 6 19 10
14 25 -33 10 -30 19 -67 19 -82 1 -14 7 -29 13 -31 8 -3 6 -6 -4 -6 -10 -1
-18 -6 -18 -11 0 -6 3 -9 8 -9 19 3 25 -2 12 -11 -12 -8 -9 -10 11 -10 21 0
28 -6 33 -26 4 -15 5 -29 1 -32 -3 -3 -5 2 -5 12 0 9 -4 15 -9 11 -5 -3 -11 0
-14 7 -2 7 -3 0 -1 -17 3 -16 10 -33 17 -37 18 -11 77 -10 77 2 0 6 6 5 14 -2
8 -7 10 -14 5 -16 -10 -4 -12 -32 -3 -32 4 0 13 8 20 18 13 16 13 16 14 0 0
-10 -4 -18 -10 -18 -14 0 -12 -27 2 -34 7 -3 3 -3 -9 0 -13 3 -23 1 -23 -4 0
-6 18 -13 40 -17 41 -7 56 -25 21 -25 -11 0 -23 -4 -26 -10 -4 -6 5 -10 19
-10 14 0 26 -4 26 -10 0 -5 6 -10 14 -10 23 0 58 -54 44 -68 -9 -9 -9 -12 1
-12 8 0 12 -14 11 -42 -3 -60 1 -69 10 -29 5 19 5 44 0 55 -4 12 -4 29 -1 39
6 17 8 17 20 3 7 -8 10 -20 6 -26 -3 -5 1 -13 9 -16 21 -8 20 -34 -1 -49 -15
-12 -14 -15 14 -44 20 -20 26 -31 17 -31 -9 0 -12 -4 -9 -10 13 -21 35 -9 57
30 25 43 43 51 51 21 3 -11 17 -21 40 -25 38 -7 49 -28 41 -80 -4 -30 -4 -30
15 8 l19 39 21 -39 c12 -23 20 -32 21 -21 0 13 9 17 39 17 31 0 40 -4 44 -21
4 -13 10 -18 18 -13 9 5 11 -7 7 -53 -3 -33 -2 -66 2 -73 12 -19 33 56 28 99
-3 20 -2 45 2 56 6 17 7 16 14 -8 10 -43 36 -34 36 13 0 29 -4 40 -15 40 -8 0
-15 7 -15 15 0 21 12 19 34 -6 14 -17 17 -33 13 -66 -5 -43 10 -103 25 -103 4
0 8 15 10 33 l3 32 40 -41 c38 -39 44 -42 115 -48 41 -4 94 -12 118 -19 l42
-11 0 -73 c0 -78 3 -81 58 -67 19 6 22 13 22 56 0 44 2 49 18 43 9 -4 29 -11
43 -15 65 -20 92 -50 44 -50 -22 0 -25 -4 -25 -40 l0 -40 40 0 c29 0 40 -4 40
-15 0 -20 16 -19 24 1 4 11 14 15 31 12 20 -4 24 -1 27 24 l3 30 37 -29 c27
-20 37 -36 38 -55 0 -32 -22 -38 -46 -13 -24 24 -34 18 -34 -19 0 -36 12 -46
56 -46 19 0 24 -5 24 -24 0 -21 5 -24 44 -27 50 -4 49 5 0 51 l-27 25 34 3
c20 2 41 12 51 25 15 19 19 20 28 7 14 -21 12 -30 -5 -30 -21 0 -19 -16 7 -50
15 -21 24 -26 29 -18 7 10 11 10 21 0 6 -6 22 -12 35 -12 19 0 23 -5 23 -30 0
-21 5 -30 16 -30 18 0 44 23 44 39 0 6 5 11 10 11 6 0 10 -16 10 -35 0 -33 2
-35 34 -35 l35 0 -17 -40 c-9 -22 -24 -40 -32 -40 -13 0 -13 -1 0 -10 9 -6 17
-5 22 3 6 9 12 7 23 -7 13 -17 15 -18 15 -3 0 24 8 21 37 -13 31 -38 43 -38
43 0 0 17 2 30 5 30 3 0 22 -16 41 -35 31 -31 35 -41 32 -78 -3 -41 -4 -42
-38 -42 -28 0 -36 -4 -38 -22 -3 -18 3 -23 33 -29 26 -5 40 -3 45 7 7 11 13 9
30 -6 11 -10 18 -25 16 -32 -7 -17 21 -44 38 -37 8 3 23 -6 34 -20 11 -14 25
-26 31 -26 6 0 11 -6 11 -13 0 -10 26 -17 86 -23 84 -9 87 -9 101 13 21 32 53
31 53 -2 0 -22 4 -25 40 -25 36 0 40 3 40 25 0 23 4 25 40 25 32 0 40 -4 40
-18 0 -10 10 -26 23 -37 l22 -20 -22 -3 c-19 -3 -23 -10 -23 -43 0 -26 4 -39
14 -39 7 0 19 -7 26 -15 16 -19 40 -19 40 -1 0 8 -10 16 -22 18 -21 3 -21 4
-4 21 11 11 33 17 62 17 l44 0 0 -60 c0 -53 2 -60 20 -60 17 0 20 7 20 40 0
33 3 40 20 40 20 0 20 7 20 1360 l0 1360 -6400 0 -6400 0 0 -3600z m9150 3160
c0 -5 -4 -10 -10 -10 -5 0 -10 5 -10 10 0 6 5 10 10 10 6 0 10 -4 10 -10z
m-490 -26 c0 -8 -4 -12 -10 -9 -5 3 -10 10 -10 16 0 5 5 9 10 9 6 0 10 -7 10
-16z m110 6 c0 -5 -4 -10 -10 -10 -5 0 -10 5 -10 10 0 6 5 10 10 10 6 0 10 -4
10 -10z m44 -11 c-6 -11 -24 -2 -24 11 0 5 7 7 15 4 8 -4 12 -10 9 -15z m-104
-9 c0 -5 -8 -10 -17 -10 -15 0 -16 2 -3 10 19 12 20 12 20 0z m415 0 c-3 -5
-14 -10 -23 -9 -14 0 -13 2 3 9 27 11 27 11 20 0z m431 -17 c16 -22 17 -33 4
-33 -5 0 -10 8 -10 18 0 14 -4 12 -20 -8 -20 -24 -20 -22 -5 25 6 20 15 19 31
-2z m-896 -3 c0 -5 -4 -10 -10 -10 -5 0 -10 5 -10 10 0 6 5 10 10 10 6 0 10
-4 10 -10z m937 -32 c-3 -8 -6 -5 -6 6 -1 11 2 17 5 13 3 -3 4 -12 1 -19z
m-122 2 c3 -5 1 -10 -4 -10 -6 0 -11 5 -11 10 0 6 2 10 4 10 3 0 8 -4 11 -10z
m-1056 -25 c7 3 8 0 5 -9 -8 -20 -12 -20 -30 -2 -18 19 -18 32 1 16 8 -6 19
-9 24 -5z m1193 -19 c4 -17 1 -23 -9 -19 -15 6 -15 6 -7 27 8 22 11 20 16 -8z
m-1086 -11 c12 -12 12 -15 2 -15 -9 -1 -8 -5 4 -13 15 -12 15 -14 -4 -26 -17
-10 -23 -10 -39 5 -10 9 -19 24 -18 33 0 10 3 8 9 -6 5 -13 12 -23 15 -23 4 0
4 4 0 9 -3 5 -1 12 4 16 6 3 8 12 4 20 -7 19 4 19 23 0z m1054 -15 c0 -5 -4
-10 -10 -10 -5 0 -10 5 -10 10 0 6 5 10 10 10 6 0 10 -4 10 -10z m99 -48 c1
-13 -3 -21 -7 -18 -5 3 -9 22 -10 43 0 29 2 33 8 18 5 -11 9 -30 9 -43z m-111
14 c13 5 14 4 3 -4 -19 -13 -41 -4 -41 17 1 14 2 14 11 -1 5 -10 17 -15 27
-12z m-1218 -42 c0 -8 -4 -12 -10 -9 -5 3 -10 10 -10 16 0 5 5 9 10 9 6 0 10
-7 10 -16z m1374 0 c3 -8 2 -12 -4 -9 -6 3 -10 10 -10 16 0 14 7 11 14 -7z
m-19 -24 c-3 -5 -12 -10 -18 -10 -7 0 -6 4 3 10 19 12 23 12 15 0z m-1576 -60
c0 -10 -3 -8 -9 5 -12 27 -12 43 0 25 5 -8 9 -22 9 -30z m1623 25 c0 -5 -5
-11 -11 -13 -6 -2 -11 4 -11 13 0 9 5 15 11 13 6 -2 11 -8 11 -13z m58 6 c0
-6 -4 -13 -10 -16 -5 -3 -10 1 -10 9 0 9 5 16 10 16 6 0 10 -4 10 -9z m-1724
-46 c-4 -14 -13 -25 -21 -25 -19 0 -19 19 0 26 8 4 15 13 15 22 0 8 3 13 6 9
4 -3 4 -18 0 -32z m1659 -5 c3 -5 1 -10 -4 -10 -6 0 -11 5 -11 10 0 6 2 10 4
10 3 0 8 -4 11 -10z m-1858 -16 c-3 -3 -12 -4 -19 -1 -8 3 -5 6 6 6 11 1 17
-2 13 -5z m1918 -12 c-3 -3 -11 0 -18 7 -9 10 -8 11 6 5 10 -3 15 -9 12 -12z
m122 -94 c-3 -8 -6 -5 -6 6 -1 11 2 17 5 13 3 -3 4 -12 1 -19z m-2247 -62 c0
-11 -19 -15 -25 -6 -3 5 1 10 9 10 9 0 16 -2 16 -4z m27 -42 c-9 -9 -28 6 -21
18 4 6 10 6 17 -1 6 -6 8 -13 4 -17z m-57 -2 c0 -8 -32 -42 -39 -42 -3 0 -7
10 -7 23 -1 17 4 22 22 23 13 1 24 -1 24 -4z m2265 -2 c3 -5 1 -10 -4 -10 -6
0 -11 5 -11 10 0 6 2 10 4 10 3 0 8 -4 11 -10z m195 -14 c0 -2 -9 -6 -20 -9
-11 -3 -18 -1 -14 4 5 9 34 13 34 5z m-155 -16 c3 -5 1 -10 -4 -10 -6 0 -11 5
-11 10 0 6 2 10 4 10 3 0 8 -4 11 -10z m-2298 -36 c7 -19 -4 -31 -39 -39 -18
-5 -28 -3 -28 4 0 6 7 11 15 11 8 0 15 9 15 20 0 24 28 27 37 4z m2303 -18 c0
-3 -4 -8 -10 -11 -5 -3 -10 -1 -10 4 0 6 5 11 10 11 6 0 10 -2 10 -4z m162
-81 c4 -17 1 -25 -8 -25 -14 0 -19 31 -7 43 9 10 10 9 15 -18z m-2615 -92 c2
-6 -4 -10 -14 -8 -10 2 -22 4 -28 4 -5 1 -3 6 5 11 17 11 32 8 37 -7z m2766
-80 c-7 -2 -19 -2 -25 0 -7 3 -2 5 12 5 14 0 19 -2 13 -5z m-2893 -133 c0 -22
-4 -40 -10 -40 -5 0 -10 18 -10 40 0 22 5 40 10 40 6 0 10 -18 10 -40z m3340
24 c0 -8 -4 -12 -10 -9 -5 3 -10 10 -10 16 0 5 5 9 10 9 6 0 10 -7 10 -16z
m-196 -29 c-4 -8 -11 -15 -16 -15 -6 0 -5 6 2 15 7 8 14 15 16 15 2 0 1 -7 -2
-15z m-47 -57 c-3 -8 -6 -5 -6 6 -1 11 2 17 5 13 3 -3 4 -12 1 -19z m-1051
-55 c4 -27 8 -52 9 -58 0 -5 8 -20 19 -32 15 -18 22 -20 37 -10 10 6 15 15 13
19 -3 4 -1 8 5 8 5 0 12 -6 14 -12 3 -7 3 5 1 27 l-4 40 50 2 c27 1 50 -3 50
-8 0 -5 5 -9 11 -9 6 0 9 7 5 15 -8 21 17 19 30 -3 9 -14 8 -22 -2 -36 -7 -11
-11 -23 -7 -29 3 -6 1 -7 -5 -3 -6 3 -15 0 -19 -9 -5 -8 -20 -16 -33 -17 -30
-4 -39 -27 -32 -90 3 -34 0 -55 -11 -72 -14 -21 -15 -29 -4 -56 8 -16 16 -27
20 -23 4 3 7 2 7 -4 0 -5 7 -10 15 -10 8 0 11 5 8 10 -3 5 0 13 8 17 9 6 10
12 2 22 -11 14 -6 78 7 78 10 0 20 -81 13 -108 -3 -12 -1 -22 4 -22 11 0 10
-41 -3 -60 -5 -8 -18 -20 -29 -26 -14 -8 -21 -23 -23 -52 -3 -35 0 -41 19 -44
15 -2 25 -16 36 -47 15 -46 21 -55 66 -103 15 -16 27 -33 27 -37 0 -4 8 -16
19 -25 34 -31 51 -163 26 -199 -19 -27 -19 -41 -1 -34 9 4 16 -3 19 -19 3 -18
1 -22 -8 -14 -16 13 -39 -35 -27 -57 11 -19 -8 -104 -35 -158 -11 -22 -25 -67
-33 -100 -7 -33 -19 -79 -26 -103 -8 -23 -14 -47 -14 -53 0 -5 -15 -42 -34
-82 -26 -55 -53 -90 -115 -150 -44 -43 -83 -87 -86 -97 -3 -11 -14 -22 -23
-25 -9 -3 -42 -37 -72 -75 -30 -38 -61 -70 -67 -71 -7 -1 -17 -3 -23 -4 -5 -1
-15 -3 -20 -4 -6 0 -24 -14 -40 -30 -28 -26 -34 -28 -105 -26 -57 2 -77 -1
-87 -12 -11 -14 -10 -15 10 -9 19 6 22 4 21 -21 0 -15 -3 -22 -6 -15 -9 22
-71 42 -97 32 -18 -7 -26 -5 -30 6 -4 9 -20 14 -50 14 -52 0 -70 18 -81 83 -4
20 -10 37 -14 37 -11 0 -41 68 -41 91 0 11 -4 18 -8 15 -12 -7 -10 38 2 47 7
6 5 7 -5 4 -11 -4 -21 3 -29 19 -8 13 -17 24 -22 24 -4 0 -8 7 -8 15 0 8 -4
15 -8 15 -15 0 -31 47 -25 71 5 16 3 20 -6 14 -10 -6 -11 -3 -2 13 14 26 14
35 1 27 -16 -10 -43 23 -37 46 4 14 1 19 -7 16 -7 -3 -18 4 -24 14 -11 16 -9
19 9 19 20 0 20 0 -3 32 -12 18 -21 43 -20 55 2 13 -3 25 -11 29 -12 4 -13 11
-5 35 9 28 28 40 28 19 0 -5 5 -10 10 -10 6 0 10 9 10 20 0 11 4 20 9 20 6 0
9 -12 8 -27 -2 -22 3 -28 18 -29 49 -2 54 -5 49 -18 -3 -9 5 -16 23 -21 15 -4
22 -10 16 -12 -7 -3 -13 -9 -13 -15 0 -6 7 -7 15 -4 20 7 31 -20 16 -38 -6 -7
-12 -31 -14 -52 -2 -36 0 -39 26 -42 28 -3 36 -17 15 -25 -9 -4 -10 -8 -2 -14
14 -11 27 -63 15 -63 -16 0 -6 -58 13 -79 13 -14 26 -19 40 -15 16 4 17 3 7
-4 -9 -7 -11 -16 -6 -28 8 -18 8 -18 12 -1 5 21 17 22 33 2 7 -8 17 -12 22 -9
6 4 5 10 -3 15 -11 7 -10 9 4 9 9 0 17 5 17 10 0 6 7 10 15 10 8 0 15 5 15 10
0 6 7 10 16 10 8 0 12 5 9 10 -3 6 4 10 18 10 14 0 30 7 37 15 18 21 33 19 27
-5 -5 -18 2 -31 50 -90 7 -8 21 -26 32 -40 23 -30 44 -22 70 26 27 49 80 122
100 136 30 22 78 101 63 106 -6 2 -9 8 -6 14 4 6 1 14 -5 18 -20 11 17 42 46
38 19 -2 32 6 51 32 22 29 23 32 5 17 -27 -23 -58 -19 -58 8 0 17 7 20 42 20
42 0 43 1 69 59 14 32 28 66 29 75 2 9 4 16 5 16 1 0 3 14 5 31 2 25 -3 35
-20 44 -27 14 -84 17 -135 7 -31 -6 -37 -12 -47 -50 -7 -23 -14 -62 -18 -87
-3 -25 -14 -56 -25 -70 -23 -30 -26 -14 -5 26 8 16 15 45 15 64 0 36 49 152
69 164 6 4 11 18 11 31 0 19 91 220 158 350 14 28 14 29 -1 16 -16 -13 -39
-56 -92 -175 -14 -33 -35 -71 -46 -84 -22 -28 -24 -24 -7 13 9 19 9 28 0 37
-7 7 -12 22 -12 35 0 13 -4 23 -9 23 -5 0 -8 8 -7 18 0 9 -6 17 -14 17 -8 0
-18 5 -22 10 -4 6 -8 0 -8 -12 0 -13 -4 -23 -10 -23 -5 0 -10 -7 -10 -16 0
-18 -23 -44 -39 -44 -6 0 -12 12 -13 28 -4 70 -2 110 4 105 5 -2 7 15 6 39 -1
45 -34 108 -55 108 -7 0 -13 8 -13 19 0 10 -11 34 -24 54 -15 22 -22 44 -19
56 6 23 -11 29 -21 9 -3 -7 -5 -1 -3 14 3 18 0 25 -9 21 -9 -3 -11 2 -7 16 5
21 23 29 23 11 0 -5 5 -10 10 -10 6 0 10 8 8 18 -2 10 2 16 10 14 8 -1 11 2 7
8 -3 5 1 13 9 16 9 3 16 15 16 26 0 12 5 18 13 15 13 -5 39 17 30 26 -3 3 -11
3 -19 0 -28 -11 -13 7 19 22 35 17 38 17 -56 -2 -22 -4 -28 -3 -23 6 4 6 11 9
15 6 5 -2 21 16 37 40 27 44 64 61 64 31 0 -17 39 -48 52 -40 4 3 8 -2 8 -11
0 -9 5 -13 10 -10 13 8 10 84 -3 92 -5 3 -14 0 -20 -6 -8 -8 -8 -11 0 -11 6 0
9 -9 6 -20 -7 -26 -29 -20 -26 7 2 16 -7 21 -50 29 -37 6 -55 15 -62 30 -6 11
-16 19 -23 16 -7 -2 -9 -9 -6 -14 5 -7 2 -8 -5 -4 -9 6 -8 12 4 26 11 13 13
20 5 25 -15 9 -7 30 11 30 7 0 15 8 17 18 3 12 -3 17 -22 17 -14 0 -28 5 -32
11 -5 8 1 10 20 7 22 -4 24 -3 14 9 -6 8 -18 11 -25 9 -10 -4 -13 -1 -8 13 5
16 2 19 -17 15 -21 -4 -21 -4 -3 4 11 5 38 10 60 11 22 1 81 10 130 20 50 10
106 19 126 20 36 1 37 0 45 -46z m-2256 17 c0 -5 -4 -10 -9 -10 -5 0 -18 -3
-28 -6 -16 -6 -16 -5 2 9 23 19 35 21 35 7z m3817 4 c-3 -3 -12 -4 -19 -1 -8
3 -5 6 6 6 11 1 17 -2 13 -5z m-3789 -76 c-3 -21 -5 -21 -21 9 -21 40 -21 41
1 45 18 4 26 -16 20 -54z m-158 -8 c0 -11 -4 -20 -10 -20 -5 0 -10 -18 -10
-40 0 -29 -4 -40 -15 -40 -20 0 -20 68 1 98 19 27 34 28 34 2z m4130 4 c0 -2
-11 -4 -25 -4 -14 0 -25 4 -25 9 0 4 11 6 25 3 14 -2 25 -6 25 -8z m-5730 -24
c8 -5 11 -10 5 -10 -5 0 -17 5 -25 10 -8 5 -10 10 -5 10 6 0 17 -5 25 -10z
m5610 -15 c0 -13 9 -34 28 -64 1 -3 9 4 17 15 13 17 14 14 15 -38 0 -57 0 -58
-29 -58 -28 0 -28 1 -33 71 -4 45 -11 75 -19 80 -11 7 -10 9 4 9 9 0 17 -7 17
-15z m67 -17 c-3 -7 -5 -2 -5 12 0 14 2 19 5 13 2 -7 2 -19 0 -25z m-2857 -2
c0 -2 -7 -7 -16 -10 -8 -3 -12 -2 -9 4 6 10 25 14 25 6z m-1380 -31 c0 -10
-10 -15 -26 -15 -22 0 -25 2 -14 15 7 8 19 15 26 15 8 0 14 -7 14 -15z m-1295
-35 c10 -11 16 -20 13 -20 -3 0 -13 9 -23 20 -10 11 -16 20 -13 20 3 0 13 -9
23 -20z m3207 10 c4 14 34 3 35 -13 2 -28 11 -73 18 -89 4 -10 5 -25 1 -33 -3
-9 0 -15 9 -15 51 0 61 -12 60 -75 -1 -42 -6 -60 -18 -66 -9 -5 -14 -16 -10
-24 4 -11 1 -13 -11 -9 -23 9 -47 -3 -40 -20 5 -12 10 -13 24 -4 22 14 45 6
65 -26 14 -22 15 -28 2 -52 -9 -17 -17 -23 -21 -15 -8 12 -64 15 -90 5 -8 -3
-12 -12 -10 -19 3 -7 -8 -20 -27 -29 -39 -20 -43 -20 -35 -1 3 8 -1 20 -7 27
-15 15 -13 121 3 163 5 14 10 46 10 71 0 24 5 44 10 44 7 0 7 7 0 20 -9 16 -9
115 -1 169 1 2 7 -2 15 -8 10 -8 15 -9 18 -1z m348 -40 c0 -5 -9 -10 -21 -10
-11 0 -17 5 -14 10 3 6 13 10 21 10 8 0 14 -4 14 -10z m2297 -16 c-3 -3 -12
-4 -19 -1 -8 3 -5 6 6 6 11 1 17 -2 13 -5z m-5632 -24 c3 -5 1 -10 -4 -10 -6
0 -11 5 -11 10 0 6 2 10 4 10 3 0 8 -4 11 -10z m372 -22 c-3 -7 -5 -2 -5 12 0
14 2 19 5 13 2 -7 2 -19 0 -25z m-17 -33 c0 -8 -4 -15 -10 -15 -5 0 -7 7 -4
15 4 8 8 15 10 15 2 0 4 -7 4 -15z m1790 -15 c0 -5 -4 -10 -10 -10 -5 0 -10 5
-10 10 0 6 5 10 10 10 6 0 10 -4 10 -10z m3726 -78 c-11 -10 -15 4 -8 28 l7
25 3 -23 c2 -13 1 -26 -2 -30z m-6844 -4 c24 -24 57 -51 72 -61 15 -11 25 -21
22 -24 -3 -3 0 -15 6 -26 l11 -20 -26 20 c-55 43 -97 83 -97 91 0 5 -9 21 -21
36 -30 38 -18 32 33 -16z m3138 1 c0 -5 5 -7 10 -4 6 3 10 1 10 -4 0 -13 -37
-15 -44 -2 -6 9 3 21 16 21 4 0 8 -5 8 -11z m-5 -49 c3 -5 -1 -10 -9 -10 -9 0
-16 5 -16 10 0 6 4 10 9 10 6 0 13 -4 16 -10z m63 -44 c1 -34 -2 -57 -10 -62
-8 -5 -9 -2 -4 11 3 10 2 33 -4 51 -11 32 -7 54 8 54 4 0 9 -24 10 -54z m40
-11 c1 -14 -3 -25 -8 -25 -6 0 -10 11 -10 25 0 14 4 25 8 25 4 0 9 -11 10 -25z
m1762 -14 c0 -5 -7 -11 -15 -15 -15 -5 -20 5 -8 17 9 10 23 9 23 -2z m-1120
-116 c0 -8 -4 -15 -10 -15 -5 0 -10 7 -10 15 0 8 5 15 10 15 6 0 10 -7 10 -15z
m274 -10 c-7 -29 14 -42 43 -26 15 7 23 6 34 -7 34 -40 49 -68 49 -92 -1 -24
-1 -24 -15 -5 -17 22 -62 28 -73 10 -4 -7 -18 -16 -32 -19 -17 -5 -21 -4 -11
2 11 8 10 12 -7 21 -12 6 -23 7 -26 2 -3 -5 -15 -7 -27 -4 -15 4 -22 0 -26
-16 -3 -11 -13 -21 -22 -20 -10 0 -11 2 -3 6 22 9 13 24 -12 17 -20 -5 -24 -1
-30 27 -3 17 -6 49 -6 70 0 43 -6 40 97 43 29 1 55 5 59 9 13 12 15 8 8 -18z
m3041 -5 c-3 -5 -10 -10 -16 -10 -5 0 -9 5 -9 10 0 6 7 10 16 10 8 0 12 -4 9
-10z m-6910 -38 c-3 -3 -11 0 -18 7 -9 10 -8 11 6 5 10 -3 15 -9 12 -12z m132
-89 c-8 -7 -35 9 -41 23 -4 11 0 11 20 -2 13 -9 23 -18 21 -21z m6933 33 c0
-3 -4 -8 -10 -11 -5 -3 -10 -1 -10 4 0 6 5 11 10 11 6 0 10 -2 10 -4z m7 -52
c-3 -3 -12 -4 -19 -1 -8 3 -5 6 6 6 11 1 17 -2 13 -5z m-6782 -47 c7 -7 4 -8
-10 -2 -11 4 -26 8 -32 8 -7 0 -13 4 -13 9 0 11 41 0 55 -15z m3643 -19 c8
-10 11 -18 7 -18 -5 0 2 -12 16 -27 13 -14 18 -23 10 -18 -11 6 -13 4 -8 -8 4
-11 1 -17 -7 -17 -31 0 -28 -60 3 -60 14 -1 14 -2 -1 -11 -27 -15 -22 -29 6
-16 14 7 22 17 18 26 -3 8 -1 12 5 8 13 -8 15 -87 3 -107 -8 -12 -10 -12 -10
-1 0 11 -3 11 -15 1 -9 -7 -15 -8 -15 -2 0 5 -11 13 -25 16 -14 4 -25 11 -25
16 0 6 -6 10 -13 10 -21 0 -52 31 -75 73 -23 43 -63 84 -89 89 -14 3 -11 8 15
21 19 11 32 25 32 37 0 11 5 20 10 20 6 0 10 -7 10 -15 0 -15 31 -21 44 -7 15
15 81 29 85 18 2 -6 10 -19 19 -28z m-108 28 c0 -2 -7 -6 -15 -10 -8 -3 -15
-1 -15 4 0 6 7 10 15 10 8 0 15 -2 15 -4z m-3545 -47 c-8 -12 -45 -12 -45 0 0
10 30 20 43 14 4 -3 5 -9 2 -14z m70 -8 c-6 -5 -25 10 -25 20 0 5 6 4 14 -3 8
-7 12 -15 11 -17z m4400 19 c8 -13 -45 -13 -65 0 -11 7 -6 10 22 10 20 0 40
-4 43 -10z m-4345 -66 c0 -2 -7 -4 -15 -4 -8 0 -15 4 -15 10 0 5 7 7 15 4 8
-4 15 -8 15 -10z m21 -32 c-7 -2 -18 1 -23 6 -8 8 -4 9 13 5 13 -4 18 -8 10
-11z m89 -2 c0 -5 -7 -10 -15 -10 -8 0 -15 5 -15 10 0 6 7 10 15 10 8 0 15 -4
15 -10z m2323 -144 c22 -42 35 -80 31 -90 -3 -9 -2 -16 4 -16 5 0 15 -21 21
-46 12 -49 4 -74 -25 -74 -21 0 -17 17 6 23 11 3 20 10 20 16 0 20 -31 11 -58
-17 -15 -15 -44 -40 -64 -55 -21 -16 -38 -35 -38 -43 0 -8 -4 -12 -10 -9 -5 3
-10 10 -10 14 0 15 46 57 58 53 7 -2 15 5 19 15 3 10 11 21 17 25 15 10 2 20
-18 12 -9 -3 -16 -12 -16 -20 0 -8 -4 -14 -10 -14 -5 0 -7 8 -4 18 5 14 4 15
-5 2 -6 -8 -11 -23 -11 -32 0 -10 -5 -18 -11 -18 -6 0 -8 9 -3 23 4 12 6 38 6
57 -1 19 3 42 8 50 7 11 10 4 10 -25 0 -30 3 -36 10 -25 7 10 10 11 10 2 0
-10 6 -9 28 2 36 19 59 45 46 54 -13 10 -16 32 -4 32 18 0 10 16 -25 53 -27
27 -35 44 -35 72 0 19 4 35 8 35 5 0 25 -33 45 -74z m2084 68 c-3 -3 -12 -4
-19 -1 -8 3 -5 6 6 6 11 1 17 -2 13 -5z m-4270 -24 c14 -11 22 -20 17 -20 -12
1 -61 39 -51 40 5 0 20 -9 34 -20z m119 -16 c19 -15 18 -15 -2 -5 -11 5 -32 8
-45 5 -21 -4 -22 -3 -4 5 27 13 29 13 51 -5z m59 -48 c9 4 15 0 15 -10 0 -21
-8 -20 -47 4 -18 11 -38 18 -45 16 -7 -1 -10 -1 -5 1 4 3 4 10 0 16 -4 6 10 1
30 -11 20 -12 44 -19 52 -16z m1960 -26 c-1 -21 3 -30 14 -31 14 0 14 -1 1 -7
-8 -4 -16 -19 -17 -35 -1 -23 2 -27 20 -23 12 1 16 1 10 -1 -7 -3 -13 -9 -13
-14 0 -15 -30 -10 -36 6 -4 8 -1 21 5 29 8 9 8 22 2 39 -10 25 -5 67 9 67 4 0
6 -13 5 -30z m-1944 -23 l24 -17 -30 12 c-36 14 -54 28 -33 24 9 -1 26 -9 39
-19z m94 -22 c30 -7 30 -7 6 -16 -33 -13 -61 -2 -61 23 0 15 3 18 13 11 6 -6
26 -14 42 -18z m198 -89 c107 -51 184 -77 378 -126 82 -21 118 -38 222 -102
24 -16 74 -35 110 -44 37 -9 67 -20 67 -23 0 -4 -21 -12 -47 -18 -27 -5 -57
-13 -68 -17 -16 -6 -17 -6 -5 3 12 8 7 11 -23 11 -32 0 -38 -3 -33 -17 2 -10
7 -65 11 -122 4 -57 13 -121 21 -143 8 -22 12 -44 9 -48 -8 -14 40 -42 230
-135 99 -49 220 -111 269 -138 85 -48 186 -138 186 -164 0 -7 6 -13 14 -13 8
0 30 -24 49 -53 26 -39 35 -63 35 -92 -1 -22 6 -62 14 -90 38 -122 72 -238 98
-336 16 -58 36 -124 45 -145 17 -39 21 -65 45 -322 l13 -133 63 -35 c86 -48
225 -108 248 -106 10 0 36 -8 57 -18 27 -14 39 -16 42 -7 4 12 22 9 153 -25
56 -14 87 -35 77 -51 -4 -7 5 -8 26 -4 22 5 30 3 25 -4 -4 -6 0 -15 7 -20 11
-6 8 -9 -8 -9 -28 0 -39 -16 -15 -22 10 -3 23 1 30 9 18 18 29 16 35 -6 6 -24
-10 -41 -31 -34 -12 5 -14 1 -10 -15 5 -18 2 -22 -17 -22 -13 0 -27 -5 -30
-10 -10 -17 -41 -11 -67 13 -13 12 -23 28 -20 35 2 7 -1 12 -7 12 -6 0 -11 -7
-11 -16 0 -11 -5 -14 -16 -10 -13 5 -15 0 -10 -27 3 -17 3 -26 0 -19 -3 6 -14
12 -25 12 -11 0 -22 7 -25 15 -8 21 -104 66 -104 49 0 -7 -7 -11 -14 -10 -18
3 -58 51 -49 60 3 3 -3 6 -14 6 -12 0 -24 6 -26 13 -4 7 -6 6 -6 -4 -1 -11
-12 -18 -31 -21 -24 -4 -30 -1 -30 13 0 24 -18 33 -35 19 -8 -7 -23 -9 -32 -6
-15 6 -15 8 -3 16 12 8 11 12 -7 30 -12 11 -29 20 -38 20 -9 0 -27 11 -41 25
-13 13 -27 25 -29 25 -3 0 -8 0 -13 0 -4 0 -20 12 -35 26 -19 17 -32 23 -38
17 -6 -6 2 -19 24 -36 19 -14 51 -52 72 -84 34 -53 160 -183 178 -183 4 0 7
-5 7 -10 0 -14 -38 5 -72 38 -32 29 -39 13 -8 -18 11 -11 20 -29 20 -40 0 -11
7 -23 15 -26 8 -4 15 -12 15 -20 0 -8 3 -14 8 -14 14 0 34 -61 28 -86 -9 -35
2 -49 21 -27 8 10 12 13 9 7 -3 -6 14 -33 39 -60 52 -55 56 -63 18 -38 -16 10
-40 17 -56 16 -21 -2 -30 3 -37 22 -5 13 -14 27 -20 31 -9 5 -9 2 -2 -11 10
-21 5 -44 -12 -57 -7 -6 -5 -7 6 -4 9 3 19 -1 22 -9 3 -8 2 -12 -3 -9 -16 9
-22 -13 -9 -34 7 -11 9 -24 4 -28 -4 -4 -12 0 -17 9 -5 10 -16 15 -24 12 -8
-4 -15 -1 -15 5 0 6 4 11 9 11 5 0 11 7 15 15 4 12 0 14 -22 8 -24 -6 -26 -5
-13 10 9 11 10 17 2 17 -6 0 -11 8 -11 18 -1 16 -1 16 -10 0 -6 -10 -18 -14
-30 -11 -23 6 -27 23 -5 23 8 0 15 5 15 12 0 6 9 21 20 33 12 13 25 46 30 81
13 76 12 81 -2 87 -10 3 -12 -9 -11 -46 2 -55 -8 -82 -41 -108 -23 -19 -36
-16 -36 8 0 9 6 13 14 10 8 -3 20 1 26 9 7 8 9 14 5 14 -4 0 -2 7 5 15 10 12
9 15 -4 15 -13 0 -16 5 -11 21 6 18 4 20 -17 14 -12 -4 -30 -16 -38 -27 -11
-13 -22 -17 -35 -12 -25 9 -58 48 -61 71 -1 10 -3 33 -5 51 -2 18 -9 32 -16
32 -7 0 -13 8 -13 18 0 18 -50 62 -70 62 -6 0 -9 4 -5 9 9 15 -41 88 -80 117
-14 10 -16 14 -5 13 31 -3 50 1 50 12 0 5 -4 7 -10 4 -5 -3 -10 -1 -10 5 0 7
-6 8 -17 1 -13 -6 -22 -4 -33 7 -13 14 -12 15 3 9 12 -4 17 -1 17 9 0 12 -6
15 -21 11 -15 -4 -19 -2 -15 8 3 8 -2 28 -10 44 -9 17 -13 35 -10 39 3 5 -10
15 -29 22 -25 10 -32 17 -25 26 12 13 -31 65 -63 77 -10 4 -24 21 -30 37 -9
24 -16 29 -32 24 -18 -6 -18 -5 -6 10 12 14 12 18 -4 30 -11 8 -16 19 -12 30
8 19 -19 66 -37 66 -13 0 -52 41 -48 52 1 5 -7 17 -18 28 -10 10 -28 41 -40
67 -11 26 -25 56 -30 65 -12 22 -12 28 -1 28 5 0 11 -9 14 -21 6 -24 30 -21
35 5 2 11 -8 21 -31 31 -28 12 -36 22 -48 62 -7 26 -12 57 -11 68 0 11 -6 30
-14 43 -8 12 -12 26 -9 31 2 5 -3 12 -12 15 -14 6 -15 9 -4 15 10 7 8 12 -10
25 -19 13 -20 16 -6 16 9 0 17 5 17 10 0 6 -7 10 -15 10 -18 0 -19 12 -2 29
10 10 9 14 -5 22 -10 6 -15 16 -11 26 4 9 -1 21 -11 28 -15 12 -15 13 1 20 17
6 17 7 -1 21 -26 18 -42 18 -26 -1 8 -9 8 -15 2 -15 -16 0 -26 40 -13 53 7 7
7 14 0 24 -13 15 2 18 17 3 18 -18 2 74 -18 102 -16 23 -23 26 -43 18 -18 -7
-23 -6 -19 4 3 7 -2 16 -10 19 -9 4 -13 13 -10 22 4 8 -1 17 -10 21 -9 3 -16
10 -16 16 0 5 5 6 11 2 14 -9 29 14 29 46 0 17 -3 21 -9 12 -6 -10 -10 -10
-21 3 -10 12 -10 15 4 15 10 0 16 8 16 23 -1 20 -2 20 -11 4 -8 -14 -14 -16
-25 -6 -8 6 -14 18 -14 26 0 8 -7 28 -16 45 -9 17 -17 42 -18 57 -2 36 -28
115 -39 122 -6 4 -7 14 -4 22 8 21 -3 29 -20 15 -11 -9 -13 -4 -8 31 4 32 1
43 -11 48 -8 3 -13 12 -10 20 3 7 -1 16 -9 19 -8 4 -15 13 -15 21 0 8 -9 26
-20 41 -16 20 -18 27 -8 34 7 4 -1 5 -20 2 -32 -6 -33 -6 -30 22 2 17 -2 29
-9 30 -7 1 -17 2 -23 3 -5 0 -10 6 -10 12 0 5 5 7 11 3 7 -4 1 7 -11 24 -13
17 -26 29 -30 27 -3 -2 -5 8 -2 23 4 32 -17 46 -83 57 -22 4 -54 18 -72 31
-23 17 -39 22 -60 18 -21 -4 -36 0 -53 16 l-25 21 32 -16 c47 -22 63 -18 23 7
-19 12 -55 34 -79 50 -25 15 -55 28 -68 28 -13 0 -23 5 -23 11 0 14 -25 36
-65 54 -21 10 -24 14 -12 15 11 0 69 -24 130 -54z m2362 0 c12 -12 12 -16 0
-26 -9 -8 -15 -8 -15 -2 0 6 -3 17 -6 26 -8 20 3 21 21 2z m88 -73 c17 -23 24
-40 18 -46 -13 -13 -34 2 -27 19 3 7 -6 27 -20 44 -14 16 -20 28 -12 25 7 -3
25 -22 41 -42z m-2433 15 c0 -6 -6 -5 -15 2 -8 7 -15 14 -15 16 0 2 7 1 15 -2
8 -4 15 -11 15 -16z m1786 -44 c-4 -13 -11 -24 -16 -24 -6 0 -5 8 1 19 13 20
6 51 -10 51 -6 0 -8 -7 -5 -15 4 -8 1 -15 -5 -15 -6 0 -11 6 -12 13 0 9 -2 9
-5 0 -3 -7 -12 -9 -20 -6 -10 4 -5 10 18 23 32 17 33 17 46 -2 8 -11 11 -30 8
-44z m754 16 c0 -5 -4 -10 -10 -10 -5 0 -10 5 -10 10 0 6 5 10 10 10 6 0 10
-4 10 -10z m-903 -33 c7 -15 8 -29 2 -38 -8 -12 -10 -12 -8 1 3 32 -1 42 -16
36 -15 -5 -20 5 -8 17 11 12 20 8 30 -16z m853 -12 c-7 -8 -17 -15 -23 -15 -6
0 -2 7 9 15 25 19 30 19 14 0z m940 -15 c0 -5 -4 -10 -10 -10 -5 0 -10 5 -10
10 0 6 5 10 10 10 6 0 10 -4 10 -10z m-1721 -4 c-2 -2 -20 -11 -39 -21 l-35
-17 20 20 c11 12 29 21 39 21 11 1 17 -1 15 -3z m1754 -46 c-3 -11 -11 -16
-19 -13 -16 6 -16 6 -8 27 8 21 33 9 27 -14z m-933 10 c0 -5 -4 -10 -10 -10
-5 0 -10 5 -10 10 0 6 5 10 10 10 6 0 10 -4 10 -10z m-2320 -10 c0 -5 -2 -10
-4 -10 -3 0 -8 5 -11 10 -3 6 -1 10 4 10 6 0 11 -4 11 -10z m1490 0 c0 -5 -7
-10 -16 -10 -8 0 -12 5 -9 10 3 6 10 10 16 10 5 0 9 -4 9 -10z m1711 -33 c-6
-6 -11 -18 -11 -26 0 -13 2 -13 13 1 17 21 43 28 56 15 6 -6 14 -7 18 -2 5 4
2 10 -4 12 -7 3 -13 9 -13 14 0 6 5 7 10 4 6 -3 10 2 11 12 0 10 5 5 10 -12 5
-16 6 -52 2 -80 -4 -27 -7 -54 -8 -60 0 -5 -6 -15 -14 -21 -13 -10 -11 -14 7
-25 12 -8 22 -18 22 -23 0 -5 8 -16 18 -25 18 -17 29 -101 12 -101 -6 0 -10
12 -11 28 0 25 -1 25 -9 5 -11 -26 -2 -63 15 -63 16 0 27 -68 15 -89 -7 -12
-9 -5 -10 25 0 38 -2 41 -25 39 -30 -4 -41 10 -24 31 9 11 9 18 1 26 -15 15
-16 62 -1 52 8 -4 9 1 4 17 -10 31 -7 29 -34 22 -22 -6 -23 -10 -18 -65 4 -55
4 -58 -12 -44 -10 9 -23 16 -30 16 -6 0 -14 7 -17 15 -9 23 -23 18 -34 -11 -7
-17 -15 -24 -25 -20 -8 3 -17 1 -20 -5 -7 -11 -40 10 -61 39 -13 18 -12 20 8
14 17 -4 20 -2 15 11 -8 21 14 37 41 30 13 -3 22 -1 22 6 0 5 -7 8 -15 5 -12
-5 -12 0 1 40 9 25 20 44 24 41 5 -3 12 11 16 32 4 21 13 47 20 58 8 11 14 30
14 42 0 13 5 23 11 23 6 0 8 9 4 23 -5 20 -5 20 6 4 8 -14 8 -22 0 -30z
m-3084 7 c-7 -7 -37 7 -37 17 0 6 9 5 21 -1 11 -7 19 -14 16 -16z m1237 -6
c-1 -13 -3 -29 -3 -35 -1 -7 -5 -13 -9 -13 -4 0 -6 16 -4 35 2 19 7 35 11 35
4 0 7 -10 5 -22z m1041 12 c3 -5 2 -10 -4 -10 -5 0 -13 5 -16 10 -3 6 -2 10 4
10 5 0 13 -4 16 -10z m-15 -30 c0 -5 -7 -10 -15 -10 -8 0 -15 5 -15 10 0 6 7
10 15 10 8 0 15 -4 15 -10z m1493 -47 c-7 -2 -13 -9 -13 -14 0 -6 5 -7 10 -4
6 3 10 -3 10 -14 0 -10 3 -26 6 -34 7 -20 -28 -28 -45 -9 -11 12 -12 19 -2 34
6 10 9 23 6 28 -5 8 11 18 30 18 6 0 4 -2 -2 -5z m-3918 -13 c-3 -5 -12 -10
-20 -10 -8 0 -17 5 -20 10 -4 6 5 10 20 10 15 0 24 -4 20 -10z m2475 -26 c0
-8 -4 -12 -10 -9 -5 3 -10 10 -10 16 0 5 5 9 10 9 6 0 10 -7 10 -16z m-2597
-29 c-20 -27 -33 -32 -33 -12 0 11 28 32 48 36 2 1 -5 -10 -15 -24z m216 -19
c-2 -2 -17 -6 -34 -10 -22 -5 -26 -4 -15 4 14 9 59 15 49 6z m3261 -6 c0 -5
-2 -10 -4 -10 -3 0 -8 5 -11 10 -3 6 -1 10 4 10 6 0 11 -4 11 -10z m-1030 -26
c0 -28 -15 -25 -23 6 -3 13 0 20 9 20 8 0 14 -10 14 -26z m-927 -142 c8 -11 6
-18 -10 -30 -15 -13 -25 -41 -38 -112 -31 -173 -33 -180 -28 -90 2 47 8 94 13
105 4 11 16 56 26 100 10 44 20 71 22 60 2 -11 9 -26 15 -33z m-1398 -2 c-3
-5 -14 -10 -23 -10 -15 0 -15 2 -2 10 20 13 33 13 25 0z m182 -47 c-3 -10 -5
-4 -5 12 0 17 2 24 5 18 2 -7 2 -21 0 -30z m-110 5 c-3 -8 -6 -5 -6 6 -1 11 2
17 5 13 3 -3 4 -12 1 -19z m3795 10 c-17 -8 -26 -8 -34 0 -9 9 -4 12 23 11 32
0 33 -1 11 -11z m-2 -28 c0 -5 -7 -10 -16 -10 -8 0 -12 5 -9 10 3 6 10 10 16
10 5 0 9 -4 9 -10z m75 -50 c-5 -30 -3 -40 7 -40 8 -1 6 -6 -6 -15 -28 -21
-12 -19 34 5 49 25 58 25 36 1 -9 -10 -16 -22 -15 -27 3 -20 -2 -28 -10 -15
-7 11 -16 8 -45 -14 -43 -33 -80 -54 -161 -95 -33 -16 -84 -48 -114 -70 -72
-55 -74 -46 -3 12 31 25 70 58 85 72 15 14 34 26 41 26 16 0 96 57 96 69 0 5
-9 11 -20 14 -22 6 -29 56 -7 59 6 0 17 2 22 2 21 3 35 18 35 37 0 11 7 19 16
19 13 0 15 -7 9 -40z m-4485 0 c0 -5 -5 -10 -11 -10 -5 0 -7 5 -4 10 3 6 8 10
11 10 2 0 4 -4 4 -10z m3834 -5 c-7 -16 -24 -21 -24 -6 0 8 7 13 27 20 1 1 0
-6 -3 -14z m759 -10 c-7 -21 -13 -19 -13 6 0 11 4 18 10 14 5 -3 7 -12 3 -20z
m-3853 -11 c0 -22 -16 -17 -17 6 -1 11 2 18 8 15 5 -4 9 -13 9 -21z m-70 10
c0 -3 -6 -12 -14 -19 -17 -17 -30 -7 -15 12 12 13 29 18 29 7z m1525 -14 c3
-5 -4 -6 -15 -3 -11 3 -22 9 -25 13 -3 5 4 6 15 3 11 -3 22 -9 25 -13z m2335
10 c0 -5 -4 -10 -10 -10 -5 0 -10 5 -10 10 0 6 5 10 10 10 6 0 10 -4 10 -10z
m-4550 -9 c0 -5 -7 -12 -16 -15 -14 -5 -15 -4 -4 9 14 17 20 19 20 6z m3940
-23 c0 -12 -10 -9 -26 6 -20 21 -17 28 6 14 11 -7 20 -16 20 -20z m-3225 12
c3 -5 -1 -10 -10 -10 -9 0 -13 5 -10 10 3 6 8 10 10 10 2 0 7 -4 10 -10z
m3661 -35 c-5 -19 -3 -23 9 -19 28 11 16 -30 -12 -43 -37 -18 -63 -16 -63 3 0
13 7 15 30 11 22 -5 30 -3 30 7 0 8 -4 16 -9 18 -9 3 4 48 15 48 3 0 3 -11 0
-25z m-2065 -3 c-7 -2 -18 1 -23 6 -8 8 -4 9 13 5 13 -4 18 -8 10 -11z m2017
-21 c-15 -5 -19 4 -11 24 6 18 7 18 13 -1 4 -10 3 -21 -2 -23z m-3388 19 c0
-5 -5 -10 -11 -10 -5 0 -7 5 -4 10 3 6 8 10 11 10 2 0 4 -4 4 -10z m-275 -19
c-3 -6 -11 -11 -17 -11 -6 0 -6 6 2 15 14 17 26 13 15 -4z m85 -1 c0 -5 -5
-10 -11 -10 -5 0 -7 5 -4 10 3 6 8 10 11 10 2 0 4 -4 4 -10z m3198 -16 c-9 -9
-21 -13 -28 -9 -8 5 -4 11 12 19 29 16 37 10 16 -10z m-3238 -14 c0 -5 -4 -10
-10 -10 -5 0 -10 5 -10 10 0 6 5 10 10 10 6 0 10 -4 10 -10z m3802 -21 c-2
-17 -11 -33 -18 -36 -16 -6 -19 -43 -3 -43 5 0 7 -5 4 -10 -4 -6 -14 -1 -24
12 -20 24 -65 34 -56 11 20 -50 20 -49 -1 -29 -18 19 -19 19 -22 1 -2 -9 1
-21 7 -25 8 -4 5 -12 -8 -24 -21 -19 -41 -14 -41 9 0 7 6 16 13 19 8 3 7 8 -5
16 -27 17 -22 28 23 49 31 15 46 18 61 10 15 -8 23 -6 38 13 10 13 14 25 9 26
-6 3 -5 10 2 18 18 22 26 16 21 -17z m-3762 11 c0 -5 -5 -10 -10 -10 -6 0 -20
-9 -32 -20 -12 -10 -25 -17 -31 -13 -5 3 2 13 17 22 14 8 26 19 26 23 0 5 7 8
15 8 8 0 15 -4 15 -10z m2351 -43 c-10 -9 -11 -8 -5 6 3 10 9 15 12 12 3 -3 0
-11 -7 -18z m-2281 -27 c0 -5 -2 -10 -4 -10 -3 0 -8 5 -11 10 -3 6 -1 10 4 10
6 0 11 -4 11 -10z m3174 -22 c-4 -6 -10 -5 -15 3 -14 22 -10 33 6 19 8 -7 12
-17 9 -22z m-3214 -11 c0 -5 -4 -5 -10 -2 -16 10 -12 -7 8 -28 16 -19 16 -20
-5 -8 -28 14 -40 34 -25 39 7 2 12 11 12 20 0 15 2 15 10 2 5 -8 10 -19 10
-23z m2364 -13 c3 -8 2 -12 -4 -9 -6 3 -10 10 -10 16 0 14 7 11 14 -7z m-3364
-14 c-6 -11 -16 -20 -22 -20 -6 0 -3 9 7 20 10 11 20 20 22 20 2 0 -1 -9 -7
-20z m763 -7 c-7 -2 -19 -2 -25 0 -7 3 -2 5 12 5 14 0 19 -2 13 -5z m1337 -23
c0 -16 -4 -30 -8 -30 -5 0 -7 14 -4 30 2 17 6 30 8 30 2 0 4 -13 4 -30z m2140
10 c0 -5 -2 -10 -4 -10 -3 0 -8 5 -11 10 -3 6 -1 10 4 10 6 0 11 -4 11 -10z
m-4280 -10 c0 -5 -5 -10 -11 -10 -5 0 -7 5 -4 10 3 6 8 10 11 10 2 0 4 -4 4
-10z m1310 -56 c0 -8 -4 -12 -10 -9 -5 3 -10 13 -10 21 0 8 5 12 10 9 6 -3 10
-13 10 -21z m3386 -3 c9 8 14 8 14 1 0 -6 -5 -12 -12 -14 -19 -7 -58 3 -52 13
3 5 0 9 -5 9 -6 0 -11 5 -11 11 0 6 12 1 26 -10 21 -16 30 -18 40 -10z m-297
6 c-2 -2 -20 -15 -40 -29 -37 -28 -67 -37 -85 -26 -6 4 -24 0 -40 -8 -16 -9
-55 -21 -86 -29 -31 -7 -60 -15 -65 -18 -5 -3 -15 -2 -23 3 -9 6 0 12 31 21
24 7 48 16 54 21 5 4 20 8 35 8 14 1 36 7 50 15 14 7 37 11 52 8 28 -5 91 18
104 38 3 6 9 8 12 5 3 -3 3 -7 1 -9z m-2267 -32 c-2 -14 -6 -25 -8 -25 -2 0
-4 11 -4 25 0 14 4 25 9 25 4 0 6 -11 3 -25z m-1080 -15 c18 -16 28 -30 22
-30 -6 0 -23 14 -39 30 -16 17 -26 30 -22 30 3 0 21 -13 39 -30z m278 10 c0
-5 -7 -10 -16 -10 -8 0 -12 5 -9 10 3 6 10 10 16 10 5 0 9 -4 9 -10z m3355
-10 c4 -6 1 -17 -5 -25 -10 -12 -10 -15 0 -15 8 0 11 -2 9 -5 -11 -11 -47 9
-58 31 -10 22 -9 24 19 24 16 0 32 -5 35 -10z m-3345 -20 c0 -5 -5 -10 -11
-10 -5 0 -7 5 -4 10 3 6 8 10 11 10 2 0 4 -4 4 -10z m50 -20 c0 -5 -2 -10 -4
-10 -3 0 -8 5 -11 10 -3 6 -1 10 4 10 6 0 11 -4 11 -10z m-39 -35 c18 -26 29
-33 44 -29 18 5 19 4 2 -6 -12 -8 -16 -18 -11 -33 6 -21 6 -21 -15 2 l-21 24
0 -24 c-1 -22 -2 -22 -14 6 -12 28 -11 30 8 35 18 5 19 7 4 12 -19 8 -44 48
-30 48 5 0 20 -16 33 -35z m779 25 c0 -5 -5 -10 -11 -10 -5 0 -7 5 -4 10 3 6
8 10 11 10 2 0 4 -4 4 -10z m2520 -6 c0 -3 -7 -12 -15 -20 -12 -13 -15 -13
-15 -1 0 7 3 17 7 20 8 8 23 9 23 1z m-3225 -24 c3 -5 -3 -10 -14 -10 -12 0
-21 5 -21 10 0 6 6 10 14 10 8 0 18 -4 21 -10z m2535 -10 c-8 -5 -22 -9 -30
-9 -10 0 -8 3 5 9 27 12 43 12 25 0z m-1849 -77 c-9 -16 -10 -16 -11 -1 0 9 3
25 7 35 7 16 8 17 11 1 2 -10 -1 -25 -7 -35z m1496 15 c-3 -8 -6 -5 -6 6 -1
11 2 17 5 13 3 -3 4 -12 1 -19z m-117 -43 c0 -5 -5 -3 -10 5 -5 8 -10 20 -10
25 0 6 5 3 10 -5 5 -8 10 -19 10 -25z m159 -65 c1 -8 -8 5 -19 29 -11 24 -20
48 -20 55 1 16 39 -66 39 -84z m-1558 66 c5 3 9 0 9 -6 0 -15 -23 -7 -26 8 -1
7 0 8 3 2 2 -5 9 -8 14 -4z m-705 -21 c-16 -24 -14 -30 9 -26 6 1 2 -6 -7 -15
-10 -10 -19 -16 -22 -13 -8 7 -14 69 -7 65 4 -3 13 -1 21 5 23 14 24 11 6 -16z
m2184 21 c0 -2 -8 -10 -17 -17 -16 -13 -17 -12 -4 4 13 16 21 21 21 13z
m-2379 -53 c7 -16 15 -32 17 -37 3 -5 -10 2 -27 15 -32 23 -41 49 -18 49 8 0
20 -12 28 -27z m2329 -38 c0 -5 -5 -3 -10 5 -5 8 -10 20 -10 25 0 6 5 3 10 -5
5 -8 10 -19 10 -25z m65 15 c-3 -4 2 -10 10 -14 20 -7 19 -19 -4 -33 -16 -10
-18 -9 -14 7 3 10 0 27 -6 39 -10 17 -9 20 4 15 8 -3 13 -10 10 -14z m-2154
-96 c10 -12 2 -24 -18 -24 -8 0 -13 11 -13 28 0 34 13 52 19 25 2 -10 7 -23
12 -29z m2198 7 c15 -29 17 -41 8 -50 -8 -8 -8 -11 2 -11 7 0 9 -4 6 -10 -3
-5 -1 -10 5 -10 6 0 8 -4 5 -10 -3 -5 -2 -10 4 -10 5 0 8 -9 6 -20 -2 -11 1
-20 6 -20 6 0 7 -4 4 -10 -3 -5 -1 -10 5 -10 6 0 8 -4 5 -10 -9 -15 -25 -12
-25 5 0 8 -4 15 -9 15 -6 0 -8 10 -6 21 2 12 -2 34 -10 49 -11 21 -11 30 -2
40 10 10 8 12 -5 7 -10 -4 -18 -2 -18 4 0 6 -6 7 -12 3 -10 -6 -10 -5 -1 7 7
9 8 20 3 29 -8 13 -5 30 5 30 3 0 13 -17 24 -39z m-65 -41 c5 -17 4 -20 -2
-10 -5 8 -13 26 -16 40 -5 17 -4 20 2 10 5 -8 13 -26 16 -40z m133 -146 c-3
-4 0 -19 8 -34 8 -15 11 -30 8 -34 -4 -3 0 -6 7 -6 7 0 10 -3 7 -6 -3 -4 -2
-14 2 -23 5 -9 12 -32 15 -51 4 -29 1 -38 -17 -49 -22 -14 -22 -14 -3 8 11 11
14 21 8 21 -7 0 -12 9 -12 20 0 10 -8 24 -17 30 -16 10 -16 11 -1 6 12 -3 15
-1 11 9 -3 8 -10 12 -17 8 -6 -4 -4 2 4 12 14 17 13 18 -5 11 -16 -6 -17 -5
-8 5 9 9 9 18 -2 39 -14 27 -11 40 8 40 6 0 8 -3 4 -6z m-3992 -122 c15 -9 16
-11 4 -12 -16 0 -40 22 -53 50 -4 8 1 5 11 -6 10 -12 27 -26 38 -32z m1700 -2
c3 -5 1 -10 -4 -10 -6 0 -11 5 -11 10 0 6 2 10 4 10 3 0 8 -4 11 -10z m-25
-41 c0 -6 7 -9 15 -5 19 7 20 -8 1 -23 -10 -8 -16 -9 -21 -1 -3 6 -11 8 -16 5
-11 -7 -11 -3 -3 19 7 18 24 22 24 5z m180 1 c0 -5 -4 -10 -10 -10 -5 0 -10 5
-10 10 0 6 5 10 10 10 6 0 10 -4 10 -10z m-1373 -23 c12 5 15 2 10 -10 -4 -10
-1 -17 6 -18 7 0 2 -5 -11 -11 -18 -9 -25 -8 -36 7 -10 14 -10 22 -2 31 6 7
12 8 14 4 2 -5 11 -6 19 -3z m1161 -27 l17 -29 22 27 c19 23 24 25 32 12 8
-12 5 -16 -12 -20 -12 -3 -27 -16 -33 -28 l-11 -22 -19 28 c-11 15 -23 35 -27
45 -11 28 13 19 31 -13z m-1488 -30 c0 -3 9 -16 20 -28 12 -12 18 -22 14 -22
-8 0 -94 87 -94 95 0 3 14 -4 30 -17 17 -12 30 -25 30 -28z m3937 18 c-3 -8
-6 -5 -6 6 -1 11 2 17 5 13 3 -3 4 -12 1 -19z m-3712 -8 c3 -5 1 -10 -4 -10
-6 0 -11 5 -11 10 0 6 2 10 4 10 3 0 8 -4 11 -10z m160 -20 c12 -15 14 -20 4
-12 -9 6 -18 10 -20 7 -3 -2 -6 5 -6 17 -1 11 -1 19 0 17 1 -2 11 -15 22 -29z
m-30 -20 c3 -5 2 -10 -4 -10 -5 0 -13 5 -16 10 -3 6 -2 10 4 10 5 0 13 -4 16
-10z m1185 -6 c0 -8 -4 -12 -10 -9 -5 3 -10 10 -10 16 0 5 5 9 10 9 6 0 10 -7
10 -16z m-1226 -23 c-2 -3 -12 3 -22 13 -16 17 -16 18 5 5 12 -7 20 -15 17
-18z m156 -45 c39 -45 46 -65 7 -25 -18 19 -40 33 -48 31 -12 -3 -12 -2 0 6
10 7 10 11 1 17 -6 4 -17 2 -23 -4 -15 -15 -24 -14 -31 5 -4 12 -2 15 9 10 8
-3 14 -2 14 2 -5 31 18 17 71 -42z m1116 -42 c-4 -9 -9 -15 -11 -12 -3 3 -3
13 1 22 4 9 9 15 11 12 3 -3 3 -13 -1 -22z m-1129 -40 c-3 -3 -12 -4 -19 -1
-8 3 -5 6 6 6 11 1 17 -2 13 -5z m103 -19 c7 -9 8 -15 2 -15 -5 0 -12 7 -16
15 -3 8 -4 15 -2 15 2 0 9 -7 16 -15z m-31 -97 c11 -10 13 -10 7 0 -15 26 12
10 44 -25 41 -47 56 -71 65 -103 5 -22 3 -21 -15 8 -12 17 -27 32 -33 32 -7 0
-6 -4 3 -10 8 -5 11 -12 7 -16 -8 -9 -17 -1 -21 18 -6 28 -19 48 -30 48 -7 0
-22 14 -34 30 -23 30 -18 41 7 18z m1206 -37 c3 -5 1 -12 -5 -16 -5 -3 -10 1
-10 9 0 18 6 21 15 7z m-1425 -16 c7 -9 8 -15 2 -15 -5 0 -12 7 -16 15 -3 8
-4 15 -2 15 2 0 9 -7 16 -15z m3638 -38 c-2 -14 2 -21 10 -19 8 1 11 -2 8 -7
-3 -5 1 -22 9 -38 8 -16 17 -45 21 -64 5 -32 4 -32 -8 -12 -7 12 -17 21 -23
21 -14 0 -45 105 -38 131 7 27 25 16 21 -12z m-3398 -37 c0 -5 -2 -10 -4 -10
-3 0 -8 5 -11 10 -3 6 -1 10 4 10 6 0 11 -4 11 -10z m207 -54 c-15 -31 -20
-27 -11 8 3 14 10 24 14 21 5 -3 3 -16 -3 -29z m-97 20 c0 -2 -7 -7 -16 -10
-8 -3 -12 -2 -9 4 6 10 25 14 25 6z m164 -27 c27 -21 34 -57 15 -76 -7 -7 -5
-12 10 -16 15 -4 18 -1 13 12 -5 15 79 -54 86 -70 1 -3 -9 -4 -23 -1 -21 3
-24 1 -19 -12 4 -10 12 -15 19 -12 18 6 26 -19 12 -33 -8 -8 -8 -11 2 -11 11
0 11 -3 1 -15 -14 -17 -40 -3 -40 22 0 29 -42 94 -66 103 -14 6 -22 14 -19 20
3 5 -1 10 -9 10 -14 0 -26 41 -24 83 2 22 10 22 42 -4z m1280 6 c-4 -8 -10
-12 -15 -9 -11 6 -2 24 11 24 5 0 7 -7 4 -15z m-1529 -15 c3 -5 2 -10 -4 -10
-5 0 -13 5 -16 10 -3 6 -2 10 4 10 5 0 13 -4 16 -10z m65 -50 c0 -14 -28 -1
-34 16 -4 12 -2 12 14 4 11 -6 20 -15 20 -20z m100 -24 c0 -3 -4 -8 -10 -11
-5 -3 -10 -1 -10 4 0 6 5 11 10 11 6 0 10 -2 10 -4z m1789 -45 c7 -5 9 -11 5
-14 -5 -3 -15 1 -22 9 -14 16 -5 18 17 5z m-324 -11 c3 -5 1 -10 -4 -10 -6 0
-11 5 -11 10 0 6 2 10 4 10 3 0 8 -4 11 -10z m1305 -37 c19 -11 56 -34 82 -52
26 -18 64 -35 83 -38 38 -6 46 -18 18 -27 -10 -3 -7 -4 8 -3 14 1 38 -7 54
-17 16 -11 35 -19 42 -19 7 0 13 -4 13 -8 0 -6 57 -20 92 -23 3 -1 10 -4 14
-8 4 -5 17 -8 29 -8 12 0 55 -16 96 -36 41 -20 130 -56 198 -79 84 -29 116
-44 100 -47 -22 -3 25 -22 185 -75 14 -5 17 -3 11 8 -5 7 9 3 31 -11 21 -13
58 -34 81 -47 68 -39 59 -44 -12 -6 -35 19 -67 38 -70 44 -4 5 -12 9 -18 9
-19 0 44 -48 105 -80 64 -33 72 -36 62 -17 -4 6 -4 9 0 5 4 -3 7 -10 6 -14 -1
-5 15 -17 37 -26 21 -10 30 -16 20 -13 -15 4 -16 1 -7 -15 6 -11 8 -25 5 -30
-3 -6 -1 -10 4 -10 6 0 11 -4 11 -9 0 -5 -14 -9 -31 -9 -20 1 -26 4 -17 9 7 5
9 9 3 9 -5 0 -3 5 5 10 13 8 11 13 -9 32 -13 13 -21 17 -17 11 11 -21 -6 -15
-54 17 -25 17 -70 39 -100 51 -30 11 -85 36 -123 55 -71 36 -93 42 -81 22 4
-8 3 -10 -2 -5 -5 5 -9 14 -9 19 0 6 -6 13 -14 16 -8 3 -11 0 -8 -5 10 -16 -9
-34 -28 -27 -17 7 -17 8 0 20 16 12 17 14 2 20 -9 3 -15 9 -13 13 2 3 -12 6
-32 6 -21 1 -46 5 -57 9 l-20 9 20 -16 c11 -9 15 -17 8 -17 -6 0 -18 7 -27 15
-8 8 -22 15 -30 15 -9 0 -25 9 -36 20 -11 11 -28 20 -37 20 -14 -1 -12 -4 7
-16 24 -15 24 -15 -15 -9 -22 4 -44 11 -50 17 -7 7 -3 8 13 3 28 -8 29 1 1 15
-14 8 -24 8 -33 1 -8 -7 -22 -4 -45 10 -18 11 -36 17 -41 14 -5 -3 -11 -1 -15
5 -4 6 -10 8 -15 5 -5 -3 -27 3 -49 15 -22 11 -49 20 -61 20 -11 0 -33 14 -48
30 -16 17 -37 30 -46 30 -17 0 -76 27 -76 35 0 2 25 -5 57 -16 65 -22 63 -22
63 -9 0 5 -20 18 -45 29 -25 11 -45 25 -45 30 0 6 -6 11 -14 11 -7 0 -19 7
-26 15 -7 8 -21 15 -31 15 -11 0 -19 6 -19 13 0 15 -152 53 -169 42 -8 -4 -14
1 -18 14 -7 28 -33 27 -34 -1 0 -13 -3 -17 -6 -10 -2 6 -20 12 -39 12 -47 0
-43 14 9 26 69 17 177 11 217 -13z m-2686 1 c5 -14 4 -15 -9 -4 -17 14 -19 20
-6 20 5 0 12 -7 15 -16z m2381 6 c17 -7 15 -9 -12 -9 -18 -1 -33 4 -33 9 0 12
17 12 45 0z m43 -61 c-3 -8 -7 -3 -11 10 -4 17 -3 21 5 13 5 -5 8 -16 6 -23z
m-33 1 c3 -5 1 -10 -4 -10 -6 0 -11 5 -11 10 0 6 2 10 4 10 3 0 8 -4 11 -10z
m165 0 c0 -5 -4 -10 -9 -10 -6 0 -13 5 -16 10 -3 6 1 10 9 10 9 0 16 -4 16
-10z m-2619 -17 c13 -16 12 -17 -3 -4 -10 7 -18 15 -18 17 0 8 8 3 21 -13z
m2788 -35 c2 -7 11 -18 20 -25 27 -21 1 -14 -29 7 -27 19 -66 18 -54 -1 9 -15
-10 -9 -36 11 -14 11 -19 20 -12 20 7 0 20 7 28 14 12 13 19 13 46 1 18 -7 34
-19 37 -27z m-2522 10 c-3 -8 -6 -5 -6 6 -1 11 2 17 5 13 3 -3 4 -12 1 -19z
m-17 -39 c3 -3 25 -15 49 -27 51 -27 66 -40 75 -70 4 -12 19 -27 33 -34 15 -7
28 -19 31 -26 3 -11 1 -11 -16 -1 -12 7 -25 10 -29 6 -4 -5 -1 -12 7 -17 10
-6 4 -9 -20 -8 -19 0 -54 -2 -77 -5 -24 -3 -43 -1 -43 4 0 5 12 9 26 9 22 0
25 2 14 15 -11 13 -8 14 16 9 27 -5 29 -3 30 25 1 30 -11 42 -18 19 -3 -7 -15
-2 -33 13 -54 46 -101 94 -107 111 -6 15 -4 15 25 0 18 -9 34 -19 37 -23z m77
9 c-3 -8 -6 -5 -6 6 -1 11 2 17 5 13 3 -3 4 -12 1 -19z m822 -48 c0 -32 -4
-62 -9 -65 -6 -3 -10 -2 -10 4 0 6 -8 8 -17 4 -17 -6 -17 -5 0 14 21 25 22 37
1 29 -13 -5 -15 -1 -9 21 7 30 23 53 35 53 4 0 8 -27 9 -60z m389 33 c0 -5 2
-16 7 -26 12 -29 -5 -34 -26 -8 -24 30 -24 41 1 41 11 0 19 -3 18 -7z m-1165
-23 c16 -19 16 -20 -3 -20 -11 0 -20 2 -20 4 0 2 -3 11 -6 20 -9 22 8 20 29
-4z m1122 10 c3 -5 1 -10 -4 -10 -6 0 -11 5 -11 10 0 6 2 10 4 10 3 0 8 -4 11
-10z m425 -4 c0 -11 -19 -15 -25 -6 -3 5 1 10 9 10 9 0 16 -2 16 -4z m406 -61
c-9 -9 -16 -13 -16 -8 0 12 22 34 28 28 2 -2 -3 -11 -12 -20z m-345 -22 c13
-16 12 -17 -3 -4 -10 7 -18 15 -18 17 0 8 8 3 21 -13z m-76 -3 c3 -5 1 -10 -4
-10 -6 0 -11 5 -11 10 0 6 2 10 4 10 3 0 8 -4 11 -10z m171 -78 c-4 -3 -14 2
-24 12 -16 18 -16 18 6 6 13 -6 21 -14 18 -18z m-1646 -2 c0 -5 -5 -10 -11
-10 -5 0 -7 5 -4 10 3 6 8 10 11 10 2 0 4 -4 4 -10z m1545 -10 c3 -5 2 -10 -4
-10 -5 0 -13 5 -16 10 -3 6 -2 10 4 10 5 0 13 -4 16 -10z m505 -10 c0 -5 -6
-10 -14 -10 -8 0 -18 5 -21 10 -3 6 3 10 14 10 12 0 21 -4 21 -10z m710 0 c13
-8 13 -10 -2 -10 -9 0 -20 5 -23 10 -8 13 5 13 25 0z m-1113 -47 c10 -10 13
-14 6 -9 -15 10 -47 0 -39 -13 3 -5 -3 -7 -14 -4 -29 8 -35 23 -8 20 14 -1 22
3 21 11 -4 17 12 15 34 -5z m428 -18 c17 -14 26 -25 21 -25 -6 0 -20 10 -33
21 -18 18 -25 20 -38 9 -12 -10 -15 -10 -15 4 0 23 30 19 65 -9z m1192 19 c-3
-3 -12 -4 -19 -1 -8 3 -5 6 6 6 11 1 17 -2 13 -5z m-1088 -42 c-19 -7 -8 -43
16 -54 32 -14 33 -37 2 -31 -29 6 -54 57 -38 77 9 11 9 15 0 18 -7 2 -9 10 -5
17 6 9 11 8 21 -6 8 -10 9 -19 4 -21z m-2063 17 c3 -6 1 -14 -5 -18 -8 -5 -5
-13 9 -26 31 -28 24 -36 -14 -14 -37 22 -54 49 -31 49 8 0 15 5 15 10 0 13 17
13 26 -1z m1143 -31 c-6 -10 -14 -16 -20 -13 -14 9 -11 25 6 25 9 0 12 6 9 18
-5 14 -4 14 4 3 7 -10 7 -21 1 -33z m3228 36 c-3 -3 -12 -4 -19 -1 -8 3 -5 6
6 6 11 1 17 -2 13 -5z m53 -14 c0 -5 -7 -10 -15 -10 -8 0 -15 5 -15 10 0 6 7
10 15 10 8 0 15 -4 15 -10z m-2310 -10 c0 -5 -5 -10 -11 -10 -5 0 -7 5 -4 10
3 6 8 10 11 10 2 0 4 -4 4 -10z m-993 -49 c9 -24 8 -29 -3 -24 -8 3 -14 9 -14
13 0 5 -3 15 -6 24 -3 9 -2 16 3 16 5 0 14 -13 20 -29z m-1167 5 c0 -3 -4 -8
-10 -11 -5 -3 -10 -1 -10 4 0 6 5 11 10 11 6 0 10 -2 10 -4z m30 -26 c-20 -13
-33 -13 -25 0 3 6 14 10 23 10 15 0 15 -2 2 -10z m80 6 c0 -2 -7 -7 -16 -10
-8 -3 -12 -2 -9 4 6 10 25 14 25 6z m3085 -16 c3 -6 -1 -7 -9 -4 -18 7 -21 14
-7 14 6 0 13 -4 16 -10z m-3125 -26 c0 -8 -6 -11 -15 -8 -8 4 -15 12 -15 20 0
8 6 11 15 8 8 -4 15 -12 15 -20z m1110 2 c0 -15 -20 -36 -34 -36 -5 0 -1 7 10
16 13 11 15 17 7 20 -18 8 -16 25 2 18 8 -4 15 -12 15 -18z m-1170 -1 c0 -12
-19 -12 -23 0 -4 9 -1 12 9 8 7 -3 14 -7 14 -8z m2390 11 c0 -3 -4 -8 -10 -11
-5 -3 -10 -1 -10 4 0 6 5 11 10 11 6 0 10 -2 10 -4z m-1030 -30 c0 -8 -4 -18
-10 -21 -5 -3 -10 3 -10 14 0 12 5 21 10 21 6 0 10 -6 10 -14z m-1220 -5 c0
-5 3 -16 6 -25 8 -20 -6 -20 -32 -1 -19 15 -19 15 0 8 15 -5 18 -3 13 10 -3 9
-2 17 3 17 6 0 10 -4 10 -9z m960 -1 c0 -5 -8 -10 -17 -10 -15 0 -16 2 -3 10
19 12 20 12 20 0z m-1040 -16 c22 -4 39 -19 44 -37 3 -12 19 -28 36 -36 17 -7
29 -15 27 -17 -9 -9 -67 23 -87 49 -12 15 -28 27 -36 27 -8 0 -14 7 -14 16 0
10 4 12 13 7 6 -4 14 -8 17 -9z m1595 6 c3 -5 1 -10 -4 -10 -6 0 -11 5 -11 10
0 6 2 10 4 10 3 0 8 -4 11 -10z m572 4 c-3 -3 -12 -4 -19 -1 -8 3 -5 6 6 6 11
1 17 -2 13 -5z m201 -14 c14 -23 0 -27 -20 -7 -7 8 -20 16 -28 20 -9 3 -5 6
10 6 15 1 30 -7 38 -19z m2079 -4 c3 -3 -12 -6 -35 -6 -22 0 -43 4 -46 9 -6 9
71 7 81 -3z m-3380 -33 c-15 -16 -17 -16 -17 -1 0 9 6 18 13 21 20 7 22 -2 4
-20z m-957 -8 c7 -9 8 -15 2 -15 -5 0 -12 7 -16 15 -3 8 -4 15 -2 15 2 0 9 -7
16 -15z m2295 -5 c-13 -12 -17 -12 -30 0 -12 13 -11 15 15 15 26 0 28 -2 15
-15z m-65 -5 c11 -13 10 -14 -4 -9 -9 3 -16 10 -16 15 0 13 6 11 20 -6z m3255
-82 c-15 -46 -15 -46 -9 -8 4 22 8 49 10 60 4 29 6 32 11 13 2 -9 -3 -38 -12
-65z m-4445 12 c0 -15 -6 -25 -14 -25 -11 0 -12 5 -3 25 15 31 17 31 17 0z
m2315 -17 c4 -24 18 -85 33 -135 25 -89 25 -93 7 -112 -9 -11 -26 -23 -36 -26
-17 -6 -17 -8 -3 -29 13 -20 13 -24 0 -29 -8 -3 -16 2 -19 14 -5 18 -7 18 -41
4 -20 -9 -41 -13 -46 -10 -6 4 -10 1 -10 -4 0 -6 -15 -11 -33 -11 -19 0 -55
-7 -82 -14 -42 -13 -51 -13 -74 0 l-26 15 28 -4 c15 -2 27 0 27 5 0 5 4 6 10
3 5 -3 18 -2 27 4 16 8 15 11 -10 20 -36 14 -37 14 -37 -4 0 -9 -6 -12 -16 -8
-10 4 -22 -1 -30 -11 -13 -19 -54 -14 -54 5 0 19 30 40 48 35 12 -4 34 6 60
26 51 39 55 58 7 29 -22 -13 -37 -16 -41 -9 -7 11 15 30 27 22 4 -2 11 2 17 9
7 8 6 18 -4 32 -15 20 -16 20 -35 -5 -11 -14 -27 -33 -35 -43 -8 -10 -12 -22
-9 -27 4 -6 2 -10 -4 -10 -5 0 -13 5 -16 10 -11 17 -24 11 -31 -14 -5 -21 -10
-24 -40 -19 -22 4 -34 2 -34 -6 0 -6 8 -11 18 -11 15 -1 15 -2 -3 -17 -20 -15
-20 -15 3 -10 15 3 22 1 22 -9 0 -16 -31 -19 -46 -4 -11 11 -44 4 -44 -9 0 -4
-14 -6 -30 -3 -17 2 -37 -1 -45 -8 -9 -7 -18 -10 -21 -7 -9 9 31 44 62 54 18
6 30 18 32 31 2 12 7 22 12 22 5 0 25 16 46 35 52 49 165 106 187 93 13 -7 17
-5 17 6 0 8 10 22 23 31 45 33 222 145 229 145 3 0 9 -19 13 -42z m-3344 -25
c-24 -19 -31 -16 -31 15 0 39 9 45 30 19 16 -20 17 -22 1 -34z m5319 22 c0 -8
-4 -15 -10 -15 -5 0 -7 7 -4 15 4 8 8 15 10 15 2 0 4 -7 4 -15z m416 -12 c-10
-10 -19 5 -10 18 6 11 8 11 12 0 2 -7 1 -15 -2 -18z m-3836 9 c0 -4 -9 -13
-20 -20 -22 -13 -27 -3 -8 16 14 14 28 16 28 4z m3658 -20 c3 -17 -2 -22 -17
-22 -22 0 -25 8 -15 35 9 22 28 14 32 -13z m-4523 -2 c-3 -5 -16 -10 -28 -10
-18 0 -19 2 -7 10 20 13 43 13 35 0z m1719 -6 c4 -10 1 -14 -6 -12 -15 5 -23
28 -10 28 5 0 13 -7 16 -16z m-2724 -4 c0 -5 -4 -10 -10 -10 -5 0 -10 5 -10
10 0 6 5 10 10 10 6 0 10 -4 10 -10z m5280 0 c0 -5 -4 -10 -10 -10 -5 0 -10 5
-10 10 0 6 5 10 10 10 6 0 10 -4 10 -10z m310 -85 c-13 -14 -32 -25 -42 -25
-10 0 -18 -4 -18 -9 0 -5 -13 -11 -30 -13 -20 -3 -30 0 -30 9 0 17 -17 17 -23
1 -3 -7 -6 -8 -6 -2 -1 10 73 64 88 64 4 0 13 11 19 25 l11 25 27 -25 27 -25
-23 -25z m-213 33 c-3 -7 -5 -2 -5 12 0 14 2 19 5 13 2 -7 2 -19 0 -25z m64
-41 c-13 -13 -15 31 -3 60 5 14 8 10 10 -16 2 -18 -1 -38 -7 -44z m-4621 53
c0 -5 -2 -10 -4 -10 -3 0 -8 5 -11 10 -3 6 -1 10 4 10 6 0 11 -4 11 -10z
m1907 -12 c-3 -8 -6 -5 -6 6 -1 11 2 17 5 13 3 -3 4 -12 1 -19z m2553 12 c0
-5 -4 -10 -10 -10 -5 0 -10 -7 -10 -15 0 -25 37 -17 59 13 l20 27 1 -32 c0
-26 4 -33 19 -33 11 0 27 10 35 22 13 18 16 19 21 6 10 -26 -23 -68 -54 -69
-51 -1 -73 -6 -79 -16 -10 -14 -65 -10 -75 5 -6 9 3 31 25 62 32 48 48 61 48
40z m-3843 -6 c-3 -3 -12 -4 -19 -1 -8 3 -5 6 6 6 11 1 17 -2 13 -5z m2634
-76 c21 -64 13 -115 -17 -104 -9 3 -24 6 -35 6 -16 0 -18 4 -11 17 6 10 6 29
0 51 -11 41 6 95 30 90 8 -2 23 -28 33 -60z m1639 13 c0 -3 -4 -12 -9 -19 -7
-11 -10 -10 -15 3 -10 26 -7 35 9 29 8 -4 15 -9 15 -13z m-5726 -36 c-4 -8 -8
-15 -10 -15 -2 0 -4 7 -4 15 0 8 4 15 10 15 5 0 7 -7 4 -15z m3651 -1 c26 20
39 20 31 1 -3 -9 0 -15 9 -15 8 0 15 -4 15 -10 0 -5 -8 -10 -17 -10 -15 0 -16
-2 -3 -10 22 -14 0 -31 -48 -37 -23 -3 -40 -11 -39 -17 1 -6 -9 -10 -23 -8
-14 2 -36 3 -50 3 l-25 1 23 18 c12 10 22 22 22 26 0 4 16 23 37 43 31 30 37
33 42 18 6 -16 8 -16 26 -3z m-140 -31 c-9 -17 -23 -27 -41 -29 l-27 -3 29 30
c36 38 58 40 39 2z m-2615 13 c0 -3 -4 -8 -10 -11 -5 -3 -10 -1 -10 4 0 6 5
11 10 11 6 0 10 -2 10 -4z m4316 -40 c17 1 19 -4 16 -27 -3 -17 0 -29 7 -29 6
0 11 7 11 15 0 8 4 15 10 15 13 0 43 -67 36 -79 -3 -5 -35 -9 -70 -10 -56 0
-66 2 -71 19 -4 11 -3 24 0 30 3 5 1 10 -4 10 -16 0 -13 33 6 59 13 20 18 22
27 10 6 -8 20 -14 32 -13z m-539 -8 c-3 -8 -6 -5 -6 6 -1 11 2 17 5 13 3 -3 4
-12 1 -19z m1047 -13 c-4 -8 -8 -15 -10 -15 -2 0 -4 7 -4 15 0 8 4 15 10 15 5
0 7 -7 4 -15z m-304 -50 c0 -17 -32 -43 -46 -38 -14 5 -19 49 -8 76 4 12 10
11 30 -8 13 -12 24 -26 24 -30z m-2400 35 c0 -5 -2 -10 -4 -10 -3 0 -8 5 -11
10 -3 6 -1 10 4 10 6 0 11 -4 11 -10z m965 0 c4 -6 -5 -10 -20 -10 -15 0 -24
4 -20 10 3 6 12 10 20 10 8 0 17 -4 20 -10z m692 -22 c-3 -7 -5 -2 -5 12 0 14
2 19 5 13 2 -7 2 -19 0 -25z m801 6 c10 -11 17 -13 20 -5 6 17 20 13 25 -6 3
-13 5 -10 6 6 1 18 4 22 12 14 17 -17 2 -49 -24 -48 -12 0 -28 4 -34 8 -8 5
-13 4 -13 -2 0 -6 -4 -11 -9 -11 -5 0 -9 14 -9 30 1 35 4 36 26 14z m-1981 0
c-3 -3 -12 -4 -19 -1 -8 3 -5 6 6 6 11 1 17 -2 13 -5z m-87 -18 c0 -2 -7 -7
-16 -10 -8 -3 -12 -2 -9 4 6 10 25 14 25 6z m-5340 -16 c0 -5 -7 -10 -16 -10
-8 0 -12 5 -9 10 3 6 10 10 16 10 5 0 9 -4 9 -10z m1940 -33 c0 -6 8 -19 17
-29 12 -14 13 -17 2 -13 -8 3 -26 24 -42 46 l-27 40 25 -17 c14 -9 25 -21 25
-27z m344 12 c-3 -5 0 -9 5 -9 6 0 11 5 11 10 0 23 18 7 24 -21 8 -40 0 -52
-25 -39 -11 6 -17 15 -14 21 4 5 11 7 16 4 5 -4 9 -1 9 4 0 6 -7 12 -15 12 -8
1 -20 2 -27 3 -6 0 -12 8 -13 17 -2 12 3 15 16 12 10 -3 16 -9 13 -14z m3173
15 c-3 -3 -12 -4 -19 -1 -8 3 -5 6 6 6 11 1 17 -2 13 -5z m1611 -27 c-16 -33
-18 -32 -15 0 1 19 6 29 14 26 10 -4 10 -10 1 -26z m-1708 19 c0 -2 -7 -7 -16
-10 -8 -3 -12 -2 -9 4 6 10 25 14 25 6z m1265 -20 l30 -24 -27 5 c-16 3 -28
11 -28 18 0 7 -6 16 -12 18 -7 3 -8 6 -3 6 6 1 24 -10 40 -23z m-3525 -31 c17
-25 43 -56 57 -69 l25 -24 -38 0 c-22 -1 -62 -6 -89 -11 -72 -14 -135 -4 -135
21 0 22 91 109 124 120 12 3 22 6 23 7 1 1 16 -19 33 -44z m1510 30 c0 -8 -3
-14 -7 -13 -5 1 -21 -6 -36 -16 -15 -10 -30 -17 -33 -14 -3 4 61 54 74 57 1 1
2 -6 2 -14z m2951 -12 c-12 -20 -14 -14 -5 12 4 9 9 14 11 11 3 -2 0 -13 -6
-23z m-7581 7 c0 -5 -4 -10 -10 -10 -5 0 -10 5 -10 10 0 6 5 10 10 10 6 0 10
-4 10 -10z m60 -20 c0 -5 -4 -10 -10 -10 -5 0 -10 5 -10 10 0 6 5 10 10 10 6
0 10 -4 10 -10z m6719 -16 c3 -16 1 -17 -13 -5 -19 16 -21 34 -3 29 6 -3 14
-13 16 -24z m-1948 -17 c-10 -26 -29 -43 -38 -34 -2 3 5 19 18 36 26 35 34 35
20 -2z m99 1 c-19 -4 -42 -4 -50 -1 -9 4 0 9 25 13 51 8 71 -2 25 -12z m508
10 c-2 -7 -53 -38 -114 -68 -133 -67 -207 -109 -299 -170 -38 -25 -83 -52 -99
-60 -31 -16 -152 -120 -150 -129 1 -4 -13 -13 -32 -22 -37 -18 -44 -9 -16 19
10 10 17 22 15 28 -1 5 9 16 25 26 15 9 64 43 109 76 46 33 89 63 95 65 10 4
9 8 -2 17 -12 10 -11 11 9 6 16 -3 34 3 56 20 17 13 37 24 43 24 7 0 12 8 12
18 0 13 9 18 32 20 18 2 35 6 38 11 3 4 20 11 38 14 18 4 45 15 60 26 97 70
190 110 180 79z m2232 -2 c0 -8 -5 -18 -12 -22 -7 -5 -9 -2 -5 9 3 9 1 18 -6
21 -7 2 -4 5 6 5 9 1 17 -5 17 -13z m-6655 -6 c-3 -5 -12 -10 -18 -10 -7 0 -6
4 3 10 19 12 23 12 15 0z m2495 -12 c0 -13 -32 -6 -37 9 -3 7 3 9 16 6 12 -3
21 -10 21 -15z m4107 6 c2 -5 -4 -19 -13 -29 -15 -19 -15 -19 -9 8 4 21 3 27
-6 21 -8 -4 -9 -3 -5 5 9 13 28 10 33 -5z m-5228 -56 c0 -7 -5 -3 -11 10 -6
12 -15 22 -20 22 -4 0 -8 7 -8 16 0 12 5 10 20 -9 11 -14 20 -31 19 -39z
m3971 42 c0 -5 -4 -10 -10 -10 -5 0 -10 5 -10 10 0 6 5 10 10 10 6 0 10 -4 10
-10z m-2890 -9 c0 -5 -6 -12 -12 -15 -7 -3 -3 -3 8 -1 16 4 23 0 27 -16 4 -15
2 -19 -8 -15 -8 3 -17 1 -20 -5 -4 -5 -11 -7 -16 -4 -5 4 -9 2 -9 -3 0 -5 -11
-14 -25 -20 -14 -6 -25 -9 -25 -6 0 13 32 64 40 64 6 0 10 7 10 15 0 8 7 15
15 15 8 0 15 -4 15 -9z m120 -40 c0 -10 8 -12 30 -8 16 4 32 2 35 -3 6 -9 -10
-12 -75 -14 -19 -1 -24 -6 -22 -21 3 -16 1 -18 -9 -8 -10 10 -8 18 12 39 13
15 18 25 10 22 -13 -4 -51 24 -51 37 0 12 70 -32 70 -44z m3134 33 c5 -14 4
-15 -9 -4 -17 14 -19 20 -6 20 5 0 12 -7 15 -16z m-6544 -14 c0 -5 -5 -10 -11
-10 -5 0 -7 5 -4 10 3 6 8 10 11 10 2 0 4 -4 4 -10z m2283 -46 c16 -32 16 -37
1 -51 -13 -14 -17 -14 -25 -2 -11 18 -11 29 0 29 5 0 4 11 -2 24 -7 14 -17 22
-27 19 -13 -4 -13 -4 0 6 25 18 35 13 53 -25z m-2343 6 c0 -5 -8 -10 -17 -10
-15 0 -16 2 -3 10 19 12 20 12 20 0z m1510 -10 c0 -5 -2 -10 -4 -10 -3 0 -8 5
-11 10 -3 6 -1 10 4 10 6 0 11 -4 11 -10z m-1547 -16 c9 -9 -11 -44 -25 -44
-9 0 -9 3 -1 11 6 6 9 18 6 25 -5 14 8 19 20 8z m7357 -4 c0 -5 -4 -10 -10
-10 -5 0 -10 5 -10 10 0 6 5 10 10 10 6 0 10 -4 10 -10z m-3946 -25 c11 -8 28
-15 38 -15 10 0 18 -4 18 -10 0 -5 5 -10 10 -10 6 0 9 6 8 13 -5 22 37 13 47
-10 7 -16 18 -23 37 -23 15 0 29 -4 33 -10 3 -5 -9 -7 -32 -4 -20 2 -40 9 -44
15 -3 6 -8 2 -12 -10 -2 -11 0 -22 7 -25 6 -2 3 -5 -6 -5 -9 -1 -21 5 -25 12
-12 18 -53 39 -53 27 0 -5 -4 -10 -9 -10 -4 0 -6 12 -3 26 4 23 2 25 -15 20
-15 -5 -22 -1 -26 14 -6 24 1 25 27 5z m1561 5 c-3 -5 -12 -10 -18 -10 -7 0
-6 4 3 10 19 12 23 12 15 0z m-2515 -22 c21 -22 22 -41 4 -83 -7 -18 -6 -18 9
-6 9 7 17 22 17 32 0 11 6 19 14 19 20 0 107 -100 99 -113 -4 -6 -1 -7 6 -3 8
5 14 0 18 -13 3 -12 9 -21 14 -21 5 0 9 -7 9 -16 0 -12 -3 -14 -12 -6 -7 6
-16 11 -20 11 -4 1 -22 15 -39 31 -30 27 -31 29 -8 24 23 -5 23 -5 5 10 -11 9
-23 16 -27 16 -4 0 -9 9 -12 20 -3 11 -10 20 -17 20 -7 0 -9 -8 -5 -19 3 -10
0 -31 -6 -47 -10 -27 -12 -27 -19 -9 -4 11 -4 28 1 37 12 22 11 28 -1 28 -5 0
-10 -7 -10 -15 0 -22 -7 -19 -48 26 -40 44 -56 73 -29 50 10 -8 17 -9 17 -3 0
6 -4 14 -10 17 -5 3 -10 13 -10 21 0 22 37 17 60 -8z m-2406 -12 c-3 -8 -13
-17 -22 -21 -13 -5 -13 -2 3 15 21 24 26 25 19 6z m7212 -14 c-18 -16 -18 -16
-6 6 6 13 14 21 18 18 3 -4 -2 -14 -12 -24z m-7341 7 c-4 -5 -15 -9 -26 -9
-26 0 -17 15 10 17 12 1 19 -2 16 -8z m-85 -19 c0 -5 -4 -10 -9 -10 -5 0 -18
-3 -28 -6 -16 -6 -16 -5 2 9 23 19 35 21 35 7z m194 -25 c3 -8 1 -15 -4 -15
-6 0 -10 4 -10 10 0 5 -8 7 -17 4 -15 -5 -16 -4 -3 5 20 14 27 14 34 -4z
m4755 -9 c-15 -13 -49 -25 -49 -17 0 5 8 12 18 14 24 6 36 8 31 3z m-3909 -31
c-19 -14 -36 -25 -39 -25 -10 0 53 49 63 50 6 0 -5 -11 -24 -25z m102 -7 c-6
-6 -15 -8 -19 -4 -4 4 -1 11 7 16 19 12 27 3 12 -12z m6003 12 c3 -5 12 -7 20
-4 9 4 12 0 8 -14 -3 -14 -13 -19 -36 -18 -35 1 -48 12 -40 33 6 15 39 18 48
3z m-4854 -17 c13 -16 12 -17 -3 -4 -17 13 -22 21 -14 21 2 0 10 -8 17 -17z
m5319 -40 c0 -7 -7 -13 -15 -13 -8 0 -15 -9 -15 -20 0 -11 -4 -20 -9 -20 -12
0 -23 29 -15 41 3 5 -3 9 -13 10 -10 0 -13 3 -5 6 6 2 12 11 12 18 0 7 6 15
13 18 15 5 47 -21 47 -40z m-5055 17 c10 -11 16 -20 13 -20 -3 0 -13 9 -23 20
-10 11 -16 20 -13 20 3 0 13 -9 23 -20z m-1245 -4 c0 -2 -7 -7 -16 -10 -8 -3
-12 -2 -9 4 6 10 25 14 25 6z m3550 -12 c0 -9 -7 -14 -17 -12 -25 5 -28 28 -4
28 12 0 21 -6 21 -16z m-2031 -28 c-3 -3 -11 5 -18 17 -13 21 -12 21 5 5 10
-10 16 -20 13 -22z m4886 17 c-1 -10 -5 -26 -9 -35 -7 -16 -10 -16 -27 6 -23
29 -24 37 -4 30 8 -4 15 -1 15 5 0 6 6 11 14 11 7 0 12 -8 11 -17z m-613 -20
c-3 -16 -7 -22 -10 -15 -4 13 4 42 11 42 2 0 2 -12 -1 -27z m713 -3 c-19 -21
-50 -27 -60 -11 -8 14 30 32 49 25 10 -4 16 -1 16 7 0 7 3 9 7 6 3 -4 -2 -16
-12 -27z m-7625 5 c-7 -8 -17 -12 -22 -9 -6 4 -5 10 3 15 22 14 33 10 19 -6z
m280 5 c0 -5 -5 -10 -11 -10 -5 0 -7 5 -4 10 3 6 8 10 11 10 2 0 4 -4 4 -10z
m455 0 c-3 -5 -2 -10 3 -10 6 0 13 -7 16 -16 6 -15 -4 -13 -32 9 -11 8 -11 12
0 18 17 11 20 11 13 -1z m1775 -15 c19 -23 8 -25 -14 -4 -11 11 -15 19 -9 19
6 0 16 -7 23 -15z m4542 1 c7 4 8 2 4 -4 -8 -14 -36 -16 -36 -4 0 14 14 24 18
13 2 -6 9 -8 14 -5z m248 5 c0 -5 -7 -14 -15 -21 -16 -14 -18 -10 -9 14 6 17
24 22 24 7z m-5114 -23 l19 -23 -25 20 c-14 11 -27 21 -29 22 -2 2 0 3 6 3 5
0 18 -10 29 -22z m2439 13 c10 -17 -12 -21 -25 -6 -10 12 -10 15 3 15 9 0 18
-4 22 -9z m-4660 -11 c-3 -5 -15 -10 -25 -10 -10 0 -22 -4 -25 -10 -8 -13 -25
-13 -25 0 0 5 15 14 33 19 43 13 49 13 42 1z m735 5 c0 -2 -15 -12 -32 -20
l-33 -16 25 20 c24 20 40 26 40 16z m-1150 -9 c0 -3 -4 -8 -10 -11 -5 -3 -10
-1 -10 4 0 6 5 11 10 11 6 0 10 -2 10 -4z m1185 -14 c-3 -3 -11 0 -18 7 -9 10
-8 11 6 5 10 -3 15 -9 12 -12z m6345 -15 c0 -5 -4 -5 -10 -2 -5 3 -10 14 -10
23 0 15 2 15 10 2 5 -8 10 -19 10 -23z m370 12 c0 -11 -4 -17 -10 -14 -5 3
-10 13 -10 21 0 8 5 14 10 14 6 0 10 -9 10 -21z m-6681 -25 c-12 -13 -30 -24
-39 -24 -9 0 -25 -7 -36 -15 -10 -8 -26 -14 -34 -14 -13 1 -13 1 0 6 24 10 37
27 34 46 -2 14 1 15 19 5 16 -8 22 -8 25 1 2 6 8 9 13 5 5 -3 12 2 15 10 3 9
10 13 16 10 5 -3 0 -17 -13 -30z m1832 3 c1 5 1 11 0 16 0 4 4 7 9 7 6 0 10
-6 10 -13 0 -8 9 -25 21 -38 17 -19 22 -21 29 -9 6 8 10 12 10 8 0 -3 3 -13 6
-22 9 -23 -19 -20 -41 4 -10 11 -35 25 -56 32 -21 6 -40 17 -43 25 -4 10 1 10
24 -2 17 -9 31 -12 31 -8z m4309 -12 c0 -5 -5 -3 -10 5 -5 8 -10 20 -10 25 0
6 5 3 10 -5 5 -8 10 -19 10 -25z m139 -65 c5 0 14 7 21 15 18 22 32 14 36 -18
3 -27 -9 -36 -21 -17 -3 5 -20 -6 -36 -25 -17 -19 -35 -32 -41 -29 -5 3 -15
-2 -22 -12 -13 -17 -14 -16 -25 4 -10 18 -8 24 13 37 24 16 43 61 31 74 -4 3
-15 -5 -26 -19 -16 -21 -20 -23 -29 -10 -5 8 -10 32 -10 53 0 35 1 36 20 25
11 -7 20 -16 20 -20 0 -4 12 5 28 20 l27 27 3 -52 c2 -29 7 -53 11 -53z
m-3582 74 c-3 -3 -12 -4 -19 -1 -8 3 -5 6 6 6 11 1 17 -2 13 -5z m4053 -44
c-15 -28 -23 -20 -14 15 4 17 10 23 16 17 6 -6 6 -18 -2 -32z m-7285 -5 c-38
-31 -46 -23 -9 9 16 13 31 22 34 19 3 -3 -8 -15 -25 -28z m2055 -82 c0 -7 9
-17 20 -23 11 -6 18 -15 14 -21 -9 -15 -27 4 -65 66 -18 30 -37 55 -41 55 -4
0 -12 10 -18 23 -6 12 12 -3 39 -33 28 -30 51 -60 51 -67z m229 91 c17 -38 6
-42 -14 -5 -8 17 -12 31 -7 31 5 0 14 -12 21 -26z m5081 11 c0 -8 -4 -15 -10
-15 -5 0 -7 7 -4 15 4 8 8 15 10 15 2 0 4 -7 4 -15z m47 -17 c-3 -8 -6 -5 -6
6 -1 11 2 17 5 13 3 -3 4 -12 1 -19z m-6877 -3 c-14 -17 -40 -20 -40 -6 0 5
10 12 23 14 12 2 24 5 26 6 2 0 -2 -6 -9 -14z m1855 -3 c-3 -3 -11 0 -18 7 -9
10 -8 11 6 5 10 -3 15 -9 12 -12z m4310 -32 c3 -5 1 -10 -4 -10 -6 0 -11 5
-11 10 0 6 2 10 4 10 3 0 8 -4 11 -10z m-2380 -20 c-10 -11 -23 -20 -28 -20
-13 0 24 39 37 39 5 1 1 -8 -9 -19z m-2012 -20 c-8 -29 -21 -25 -15 5 2 14 8
23 12 20 5 -3 6 -14 3 -25z m-2242 6 c5 3 9 0 9 -6 0 -7 -7 -9 -16 -6 -9 3
-18 6 -20 6 -3 0 -2 5 2 12 6 9 9 9 12 0 2 -7 8 -10 13 -6z"/>
<path d="M9150 5598 c-29 -8 -32 -11 -17 -19 12 -7 24 -5 42 7 40 26 34 29
-25 12z"/>
<path d="M9600 5531 c0 -17 18 -21 24 -6 3 9 0 15 -9 15 -8 0 -15 -4 -15 -9z"/>
<path d="M9570 4730 c-26 -52 -61 -181 -60 -223 0 -7 11 9 24 35 12 26 28 54
36 62 8 11 9 16 1 16 -16 0 -14 50 3 56 8 3 12 13 9 23 -3 10 3 33 12 51 9 17
14 34 11 37 -2 3 -19 -23 -36 -57z"/>
<path d="M8633 4024 c-3 -8 -3 -18 1 -21 3 -4 6 -1 6 5 0 6 6 9 14 6 8 -3 17
-1 20 4 3 5 -3 12 -15 15 -12 3 -22 0 -26 -9z"/>
<path d="M7917 4513 c-3 -4 1 -17 9 -28 10 -13 14 -15 14 -4 0 20 -16 43 -23
32z"/>
<path d="M6860 4030 c-12 -8 -10 -10 10 -10 14 0 32 5 40 10 12 8 10 10 -10
10 -14 0 -32 -5 -40 -10z"/>
<path d="M6760 3920 c0 -5 5 -10 11 -10 5 0 7 5 4 10 -3 6 -8 10 -11 10 -2 0
-4 -4 -4 -10z"/>
<path d="M7280 2521 c0 -6 10 -17 22 -25 12 -9 19 -16 15 -16 -9 0 29 -76 42
-85 12 -7 -1 42 -20 76 -29 50 -59 76 -59 50z"/>
<path d="M7540 2194 c0 -6 16 -25 35 -44 19 -19 35 -29 35 -24 0 6 -16 25 -35
44 -19 19 -35 29 -35 24z"/>
<path d="M7660 2141 c0 -12 28 -22 35 -12 3 5 -2 12 -11 15 -21 8 -24 8 -24
-3z"/>
<path d="M7560 2114 c0 -8 5 -12 10 -9 6 3 10 10 10 16 0 5 -4 9 -10 9 -5 0
-10 -7 -10 -16z"/>
<path d="M7586 2078 c3 -5 10 -6 15 -3 13 9 11 12 -6 12 -8 0 -12 -4 -9 -9z"/>
<path d="M7660 2072 c0 -13 45 -52 60 -52 9 0 8 6 -6 21 -23 25 -54 43 -54 31z"/>
<path d="M7630 1979 c0 -5 5 -7 10 -4 6 3 10 8 10 11 0 2 -4 4 -10 4 -5 0 -10
-5 -10 -11z"/>
<path d="M8392 1840 c31 -10 74 -21 95 -24 25 -4 17 0 -24 13 -85 26 -142 35
-71 11z"/>
<path d="M7825 1710 c3 -5 8 -10 11 -10 2 0 4 5 4 10 0 6 -5 10 -11 10 -5 0
-7 -4 -4 -10z"/>
<path d="M8115 1400 c3 -5 8 -10 11 -10 2 0 4 5 4 10 0 6 -5 10 -11 10 -5 0
-7 -4 -4 -10z"/>
<path d="M9715 3990 c4 -6 11 -8 16 -5 14 9 11 15 -7 15 -8 0 -12 -5 -9 -10z"/>
<path d="M9606 3891 c-10 -15 21 -51 43 -51 13 1 12 4 -5 18 -11 10 -23 24
-26 32 -3 11 -6 11 -12 1z"/>
<path d="M9575 3790 c3 -5 8 -10 11 -10 2 0 4 5 4 10 0 6 -5 10 -11 10 -5 0
-7 -4 -4 -10z"/>
<path d="M10330 3960 c0 -5 5 -10 10 -10 6 0 10 5 10 10 0 6 -4 10 -10 10 -5
0 -10 -4 -10 -10z"/>
<path d="M10305 3590 c3 -5 13 -10 21 -10 8 0 14 5 14 10 0 6 -9 10 -21 10
-11 0 -17 -4 -14 -10z"/>
<path d="M10240 3360 c0 -5 5 -10 10 -10 6 0 10 5 10 10 0 6 -4 10 -10 10 -5
0 -10 -4 -10 -10z"/>
<path d="M8858 1773 c6 -2 18 -2 25 0 6 3 1 5 -13 5 -14 0 -19 -2 -12 -5z"/>
<path d="M9225 1560 c-3 -5 -1 -10 4 -10 6 0 11 5 11 10 0 6 -2 10 -4 10 -3 0
-8 -4 -11 -10z"/>
<path d="M9530 1490 c0 -7 24 -20 36 -20 13 0 1 19 -16 23 -11 3 -20 2 -20 -3z"/>
<path d="M9620 1460 c0 -4 21 -15 47 -24 54 -19 71 -20 57 -6 -14 14 -104 40
-104 30z"/>
<path d="M10037 911 c-15 -6 -12 -10 19 -24 20 -10 39 -15 42 -12 3 3 -1 5 -9
5 -8 1 -3 7 11 15 14 8 23 15 20 16 -19 5 -68 5 -83 0z"/>
<path d="M10140 910 c-8 -5 -11 -12 -7 -16 4 -4 13 -2 19 4 15 15 7 24 -12 12z"/>
<path d="M9940 900 c0 -5 5 -10 10 -10 6 0 10 5 10 10 0 6 -4 10 -10 10 -5 0
-10 -4 -10 -10z"/>
<path d="M10100 845 c0 -8 5 -15 10 -15 6 0 10 7 10 15 0 8 -4 15 -10 15 -5 0
-10 -7 -10 -15z"/>
<path d="M9840 840 c0 -5 5 -10 10 -10 6 0 10 5 10 10 0 6 -4 10 -10 10 -5 0
-10 -4 -10 -10z"/>
<path d="M9888 833 c7 -3 16 -2 19 1 4 3 -2 6 -13 5 -11 0 -14 -3 -6 -6z"/>
<path d="M10005 770 c3 -5 11 -10 16 -10 6 0 7 5 4 10 -3 6 -11 10 -16 10 -6
0 -7 -4 -4 -10z"/>
<path d="M10125 770 c3 -5 8 -10 11 -10 2 0 4 5 4 10 0 6 -5 10 -11 10 -5 0
-7 -4 -4 -10z"/>
<path d="M11001 894 c0 -11 3 -14 6 -6 3 7 2 16 -1 19 -3 4 -6 -2 -5 -13z"/>
<path d="M10540 830 c0 -5 4 -10 9 -10 6 0 13 5 16 10 3 6 -1 10 -9 10 -9 0
-16 -4 -16 -10z"/>
<path d="M7497 446 c-4 -10 -5 -21 -2 -24 9 -9 17 6 13 25 -3 17 -4 17 -11 -1z"/>
<path d="M7666 297 c3 -10 9 -15 12 -12 3 3 0 11 -7 18 -10 9 -11 8 -5 -6z"/>
<path d="M8978 6702 c3 -18 7 -20 13 -10 8 11 10 11 18 0 6 -10 10 -8 13 10 4
21 1 25 -22 25 -23 0 -26 -4 -22 -25z"/>
<path d="M8864 6670 c-36 -14 -38 -30 -5 -30 24 0 31 4 31 20 0 11 -1 20 -2
19 -2 0 -13 -4 -24 -9z"/>
<path d="M8971 6654 c0 -11 3 -14 6 -6 3 7 2 16 -1 19 -3 4 -6 -2 -5 -13z"/>
<path d="M9022 6644 c2 -16 9 -20 42 -21 23 -1 34 1 26 4 -36 11 -41 12 -46
12 -4 0 -10 5 -15 13 -6 9 -8 7 -7 -8z"/>
<path d="M8755 6640 c-3 -6 1 -7 9 -4 18 7 21 14 7 14 -6 0 -13 -4 -16 -10z"/>
<path d="M9155 6630 c3 -5 8 -10 11 -10 2 0 4 5 4 10 0 6 -5 10 -11 10 -5 0
-7 -4 -4 -10z"/>
<path d="M9195 6631 c-7 -12 12 -24 25 -16 11 7 4 25 -10 25 -5 0 -11 -4 -15
-9z"/>
<path d="M9448 6623 c7 -3 16 -2 19 1 4 3 -2 6 -13 5 -11 0 -14 -3 -6 -6z"/>
<path d="M8845 6600 c-13 -6 -15 -9 -5 -9 8 0 22 4 30 9 18 12 2 12 -25 0z"/>
<path d="M9140 6600 c0 -5 5 -10 11 -10 5 0 7 5 4 10 -3 6 -8 10 -11 10 -2 0
-4 -4 -4 -10z"/>
<path d="M8590 6580 c0 -11 5 -20 10 -20 6 0 10 9 10 20 0 11 -4 20 -10 20 -5
0 -10 -9 -10 -20z"/>
<path d="M9068 6593 c6 -2 18 -2 25 0 6 3 1 5 -13 5 -14 0 -19 -2 -12 -5z"/>
<path d="M8408 6553 c-13 -14 -14 -22 -7 -33 9 -12 10 -12 5 3 -6 20 13 23 34
5 12 -11 12 -10 3 2 -6 8 -12 21 -14 28 -3 10 -9 9 -21 -5z"/>
<path d="M9466 6545 c25 -19 40 -19 20 0 -8 8 -20 15 -27 15 -7 0 -4 -6 7 -15z"/>
<path d="M8420 6500 c0 -5 5 -10 10 -10 6 0 10 5 10 10 0 6 -4 10 -10 10 -5 0
-10 -4 -10 -10z"/>
<path d="M9528 6490 c-10 -11 -13 -22 -9 -25 5 -2 12 2 15 11 3 8 10 12 16 9
6 -3 7 1 4 9 -3 9 -7 16 -8 15 0 0 -9 -9 -18 -19z"/>
<path d="M9570 6480 c0 -5 5 -10 11 -10 5 0 7 5 4 10 -3 6 -8 10 -11 10 -2 0
-4 -4 -4 -10z"/>
<path d="M8290 6466 c0 -2 7 -7 16 -10 8 -3 12 -2 9 4 -6 10 -25 14 -25 6z"/>
<path d="M9670 6415 c-8 -9 -8 -15 -2 -15 12 0 26 19 19 26 -2 2 -10 -2 -17
-11z"/>
<path d="M8206 6404 c-3 -9 -12 -14 -19 -11 -8 3 -14 -3 -14 -14 -1 -10 3 -19
8 -19 6 0 7 5 3 12 -5 8 -2 9 12 4 10 -4 15 -4 11 0 -4 4 1 12 10 19 10 8 12
14 6 18 -6 4 -14 0 -17 -9z"/>
<path d="M9635 6380 c-3 -5 -2 -10 4 -10 5 0 13 5 16 10 3 6 2 10 -4 10 -5 0
-13 -4 -16 -10z"/>
<path d="M8106 6325 c-4 -13 -2 -14 14 -5 23 13 26 20 6 20 -8 0 -16 -7 -20
-15z"/>
<path d="M9823 6324 c-3 -8 -1 -20 6 -27 8 -8 11 -4 11 16 0 30 -7 35 -17 11z"/>
<path d="M7920 6304 c0 -14 3 -14 15 -4 8 7 15 14 15 16 0 2 -7 4 -15 4 -8 0
-15 -7 -15 -16z"/>
<path d="M8018 6313 c7 -3 16 -2 19 1 4 3 -2 6 -13 5 -11 0 -14 -3 -6 -6z"/>
<path d="M7868 6183 c7 -3 16 -2 19 1 4 3 -2 6 -13 5 -11 0 -14 -3 -6 -6z"/>
<path d="M9821 6183 c0 -4 4 -17 9 -28 8 -19 9 -19 9 2 1 12 -3 25 -9 28 -5 3
-10 3 -9 -2z"/>
<path d="M9895 6059 c-4 -12 -2 -26 4 -32 8 -8 11 -2 11 21 0 37 -6 41 -15 11z"/>
<path d="M9902 6003 c-6 -2 -10 -9 -6 -14 8 -14 21 -11 21 6 0 8 -1 15 -1 14
-1 0 -7 -3 -14 -6z"/>
<path d="M7792 5971 c-6 -17 -7 -31 -3 -31 10 0 25 50 18 57 -3 2 -9 -10 -15
-26z"/>
<path d="M9950 5990 c0 -5 4 -10 9 -10 6 0 13 5 16 10 3 6 -1 10 -9 10 -9 0
-16 -4 -16 -10z"/>
<path d="M9880 5966 c0 -2 7 -7 16 -10 8 -3 12 -2 9 4 -6 10 -25 14 -25 6z"/>
<path d="M9887 5883 c-4 -3 -7 -11 -7 -17 0 -6 5 -5 12 2 6 6 9 14 7 17 -3 3
-9 2 -12 -2z"/>
<path d="M10052 5878 c6 -18 28 -21 28 -4 0 9 -7 16 -16 16 -9 0 -14 -5 -12
-12z"/>
<path d="M10110 5870 c0 -5 5 -10 10 -10 6 0 10 5 10 10 0 6 -4 10 -10 10 -5
0 -10 -4 -10 -10z"/>
<path d="M10056 5733 c6 -4 14 -15 17 -23 5 -11 6 -9 4 4 -1 11 -9 21 -17 23
-10 3 -11 2 -4 -4z"/>
<path d="M10070 5671 c0 -10 19 -25 25 -20 1 2 -3 10 -11 17 -8 7 -14 8 -14 3z"/>
<path d="M10125 5630 c-3 -5 -1 -10 4 -10 6 0 11 5 11 10 0 6 -2 10 -4 10 -3
0 -8 -4 -11 -10z"/>
<path d="M10430 5619 c0 -12 29 -38 43 -39 4 0 7 5 7 10 0 6 -7 10 -15 10 -8
0 -15 7 -15 15 0 8 -4 15 -10 15 -5 0 -10 -5 -10 -11z"/>
<path d="M10093 5600 c-11 -16 -10 -18 2 -14 8 4 15 12 15 20 0 19 -3 18 -17
-6z"/>
<path d="M10201 5584 c0 -11 3 -14 6 -6 3 7 2 16 -1 19 -3 4 -6 -2 -5 -13z"/>
<path d="M10352 5560 c0 -22 3 -40 9 -40 10 0 10 0 14 48 2 20 -2 32 -10 32
-8 0 -13 -15 -13 -40z"/>
<path d="M10105 5570 c-3 -5 -1 -10 5 -10 6 0 8 -6 4 -12 -4 -7 -3 -9 1 -5 12
10 15 37 5 37 -5 0 -12 -4 -15 -10z"/>
<path d="M10144 5549 c-3 -6 -2 -15 3 -20 5 -5 9 -1 10 11 2 22 -2 25 -13 9z"/>
<path d="M10186 5505 c4 -8 7 -15 9 -15 2 0 5 7 9 15 3 9 0 15 -9 15 -9 0 -12
-6 -9 -15z"/>
<path d="M10960 5450 c0 -5 7 -10 15 -10 8 0 15 5 15 10 0 6 -7 10 -15 10 -8
0 -15 -4 -15 -10z"/>
<path d="M9825 5430 c-3 -5 1 -10 10 -10 9 0 13 5 10 10 -3 6 -8 10 -10 10 -2
0 -7 -4 -10 -10z"/>
<path d="M10551 5424 c0 -11 3 -14 6 -6 3 7 2 16 -1 19 -3 4 -6 -2 -5 -13z"/>
<path d="M10880 5420 c0 -23 10 -26 28 -8 18 18 15 28 -8 28 -13 0 -20 -7 -20
-20z"/>
<path d="M7930 5385 c0 -14 4 -25 9 -25 4 0 6 11 3 25 -2 14 -6 25 -8 25 -2 0
-4 -11 -4 -25z"/>
<path d="M11140 5320 c0 -32 4 -40 18 -40 14 0 17 7 14 40 -3 26 -9 40 -18 40
-10 0 -14 -12 -14 -40z"/>
<path d="M6212 5300 c0 -19 2 -27 5 -17 2 9 2 25 0 35 -3 9 -5 1 -5 -18z"/>
<path d="M6257 5300 c-3 -11 -1 -20 4 -20 5 0 9 -8 9 -17 0 -12 3 -14 10 -7 7
7 8 19 1 37 -12 32 -17 34 -24 7z"/>
<path d="M6311 5294 c0 -11 3 -14 6 -6 3 7 2 16 -1 19 -3 4 -6 -2 -5 -13z"/>
<path d="M5975 5269 c-35 -8 -33 -9 18 -13 21 -2 35 0 30 3 -4 3 -10 9 -13 12
-3 3 -18 2 -35 -2z"/>
<path d="M6075 5260 c-3 -6 1 -7 9 -4 18 7 21 14 7 14 -6 0 -13 -4 -16 -10z"/>
<path d="M6040 5249 c0 -5 5 -7 10 -4 6 3 10 8 10 11 0 2 -4 4 -10 4 -5 0 -10
-5 -10 -11z"/>
<path d="M9738 5143 c7 -3 16 -2 19 1 4 3 -2 6 -13 5 -11 0 -14 -3 -6 -6z"/>
<path d="M11600 5024 c0 -8 5 -12 10 -9 6 3 10 10 10 16 0 5 -4 9 -10 9 -5 0
-10 -7 -10 -16z"/>
<path d="M11675 4949 c9 -13 45 -17 45 -5 0 7 -11 12 -24 12 -14 0 -23 -3 -21
-7z"/>
<path d="M10139 4720 c-13 -10 -18 -19 -11 -20 6 0 12 5 12 11 0 5 4 8 9 5 5
-3 11 1 15 9 7 20 3 19 -25 -5z"/>
<path d="M10487 4696 c-4 -10 -1 -13 9 -9 15 6 19 23 5 23 -5 0 -11 -7 -14
-14z"/>
<path d="M10150 4690 c0 -5 4 -10 9 -10 6 0 13 5 16 10 3 6 -1 10 -9 10 -9 0
-16 -4 -16 -10z"/>
<path d="M10045 4680 c3 -5 8 -10 11 -10 2 0 4 5 4 10 0 6 -5 10 -11 10 -5 0
-7 -4 -4 -10z"/>
<path d="M10005 4660 c3 -5 14 -10 23 -10 15 0 15 2 2 10 -20 13 -33 13 -25 0z"/>
<path d="M10252 4602 c-9 -7 -8 -13 8 -27 18 -16 23 -17 30 -5 18 28 -9 50
-38 32z"/>
<path d="M12320 4550 c0 -5 5 -10 10 -10 6 0 10 5 10 10 0 6 -4 10 -10 10 -5
0 -10 -4 -10 -10z"/>
<path d="M12780 4255 c-10 -12 -10 -15 4 -15 9 0 16 7 16 15 0 8 -2 15 -4 15
-2 0 -9 -7 -16 -15z"/>
<path d="M10350 3880 c0 -5 11 -10 25 -10 14 0 25 5 25 10 0 6 -11 10 -25 10
-14 0 -25 -4 -25 -10z"/>
<path d="M10385 3830 c4 -6 11 -8 16 -5 14 9 11 15 -7 15 -8 0 -12 -5 -9 -10z"/>
<path d="M12678 2583 c6 -2 18 -2 25 0 6 3 1 5 -13 5 -14 0 -19 -2 -12 -5z"/>
<path d="M12383 2519 c-6 -6 -34 -28 -61 -48 -97 -70 -203 -161 -189 -161 8 0
28 12 45 28 16 15 65 52 108 84 89 64 124 92 124 102 0 10 -15 7 -27 -5z"/>
<path d="M12696 2483 c-20 -5 -46 -27 -46 -37 0 -16 52 -3 77 19 25 21 26 24
8 24 -11 -1 -29 -4 -39 -6z"/>
<path d="M12489 2441 c-1 -6 -2 -17 -3 -23 0 -7 -11 -14 -24 -14 -29 -2 -31
-5 -17 -31 11 -22 12 -22 34 -5 55 42 85 72 71 72 -8 0 -25 3 -37 6 -14 4 -24
2 -24 -5z"/>
<path d="M12590 2421 c-13 -11 -29 -17 -34 -14 -5 3 -6 1 -2 -5 4 -7 2 -12 -4
-12 -12 0 -80 -48 -92 -65 -13 -17 -9 -31 16 -58 13 -14 19 -28 13 -30 -6 -2
-7 -9 -3 -15 9 -15 36 -16 36 -2 0 6 5 10 11 10 6 0 8 -7 5 -17 -4 -9 -1 -20
6 -25 8 -5 2 -6 -14 -2 -29 6 -36 -4 -17 -23 10 -10 18 -41 22 -85 1 -10 5
-18 9 -18 4 0 8 -7 8 -15 0 -12 -4 -13 -19 -5 -11 5 -29 10 -41 10 -12 0 -19
4 -15 9 3 5 -4 12 -15 16 -11 3 -20 12 -20 19 0 7 -9 24 -19 37 -42 54 -72
120 -70 157 1 37 -33 122 -50 122 -5 0 -25 -15 -44 -32 -20 -18 -45 -39 -56
-47 -11 -8 -18 -18 -15 -23 3 -4 -4 -8 -15 -8 -12 0 -21 -4 -21 -10 0 -5 6
-10 14 -10 8 0 17 -7 20 -16 4 -11 14 -14 35 -9 27 6 29 4 24 -15 -4 -13 0
-26 8 -31 10 -6 10 -9 2 -9 -21 0 -15 -17 10 -25 58 -20 58 -23 -3 -18 -36 3
-74 12 -85 19 -29 21 -45 17 -45 -10 0 -14 -5 -28 -12 -32 -7 -5 -9 -2 -6 7 8
20 -46 17 -70 -4 -9 -7 -25 -17 -36 -21 -11 -4 -16 -12 -12 -21 3 -8 1 -15 -4
-15 -5 0 -9 -16 -8 -35 1 -27 5 -34 15 -30 8 3 21 5 29 5 9 0 13 4 10 9 -3 4
5 17 17 28 17 15 29 18 52 12 17 -3 24 -7 17 -8 -18 -1 -46 -30 -38 -39 4 -3
11 0 16 8 5 8 12 11 16 7 12 -12 -13 -29 -42 -29 -15 0 -39 -11 -53 -24 -26
-25 -47 -32 -36 -13 12 18 -26 38 -53 28 -33 -13 -54 -35 -77 -83 -22 -44 -47
-60 -125 -79 -47 -11 -70 -31 -53 -48 5 -5 15 -3 23 2 12 9 12 10 -3 5 -29 -9
-10 10 23 24 24 10 33 10 45 0 20 -16 19 -34 -1 -26 -8 3 -22 -1 -30 -9 -12
-12 -12 -15 -2 -15 8 0 7 -4 -4 -11 -10 -5 -18 -14 -18 -19 0 -6 8 -11 18 -11
9 -1 -7 -5 -36 -9 -64 -10 -70 -14 -47 -36 16 -16 16 -19 1 -29 -23 -17 -20
-25 9 -25 14 0 25 -2 25 -4 0 -3 -11 -17 -25 -32 -14 -15 -25 -31 -25 -35 0
-5 11 -11 25 -15 14 -3 25 -10 25 -15 0 -5 28 5 63 22 77 38 71 34 146 91 35
27 67 45 73 42 14 -9 65 15 136 63 34 24 66 43 72 43 14 0 101 50 124 72 12
11 35 27 51 35 17 9 45 29 64 44 19 15 38 26 42 24 4 -3 9 1 12 9 3 7 25 23
49 36 72 37 87 46 121 74 70 57 95 76 104 76 5 0 19 7 32 16 l23 17 -29 12
c-24 10 -31 21 -36 53 -8 48 -25 57 -58 31 -13 -10 -36 -19 -51 -19 -25 0 -26
2 -21 35 5 29 3 35 -12 35 -11 0 -15 5 -11 16 3 9 6 18 6 20 0 2 7 4 15 4 9 0
30 7 47 16 30 16 31 17 13 30 -25 18 -35 17 -65 -5z m-319 -121 c5 0 9 -4 9
-10 0 -5 -16 -10 -35 -10 -19 0 -35 5 -35 10 0 6 6 10 14 10 8 0 17 8 21 18 8
16 8 16 12 0 3 -10 9 -18 14 -18z m-481 -550 c0 -5 -7 -10 -15 -10 -8 0 -15 5
-15 10 0 6 7 10 15 10 8 0 15 -4 15 -10z m-34 -45 c-3 -9 4 -20 20 -28 l26
-14 -31 0 c-17 0 -31 4 -31 9 0 4 -7 8 -17 8 -13 0 -11 4 7 20 28 24 34 25 26
5z m47 -62 c-7 -2 -21 -2 -30 0 -10 3 -4 5 12 5 17 0 24 -2 18 -5z"/>
<path d="M11959 2199 c-46 -28 -96 -60 -111 -70 -14 -10 -29 -19 -32 -19 -3 0
-30 -16 -60 -35 -30 -19 -60 -35 -66 -35 -5 0 -10 -4 -10 -9 0 -5 -8 -12 -19
-16 -10 -3 -31 -16 -46 -29 -36 -31 -17 -42 32 -18 35 18 76 17 74 -1 -2 -19
1 -20 10 -4 16 28 1 40 -44 34 l-40 -6 28 19 c15 10 45 26 66 36 22 9 39 20
39 23 0 4 12 8 28 9 l27 2 -24 -19 c-16 -12 -20 -20 -12 -25 16 -11 84 42 77
60 -3 8 1 14 10 14 16 0 58 25 85 50 8 8 32 28 52 45 36 29 46 45 29 45 -5 0
-47 -23 -93 -51z"/>
<path d="M11735 2020 c-3 -5 -2 -10 4 -10 5 0 13 5 16 10 3 6 2 10 -4 10 -5 0
-13 -4 -16 -10z"/>
<path d="M11590 1810 c-8 -5 -11 -12 -7 -16 4 -4 13 -2 19 4 15 15 7 24 -12
12z"/>
<path d="M11445 1590 c11 -5 29 -8 40 -8 16 0 15 2 -5 8 -34 11 -60 11 -35 0z"/>
<path d="M11530 1590 c13 -9 13 -11 0 -19 -8 -6 -12 -12 -10 -15 3 -2 14 2 25
10 17 13 18 16 5 24 -8 5 -19 10 -25 10 -5 0 -3 -5 5 -10z"/>
<path d="M11075 1579 c-12 -19 5 -23 22 -6 16 16 16 17 1 17 -9 0 -20 -5 -23
-11z"/>
<path d="M11315 1560 c-16 -7 -17 -9 -3 -9 9 -1 20 4 23 9 7 11 7 11 -20 0z"/>
<path d="M11540 1541 c0 -5 6 -12 13 -15 6 -3 0 -4 -15 -2 -28 3 -40 -5 -51
-35 -8 -23 4 -36 38 -45 l29 -7 -17 26 c-21 32 -22 44 -3 27 23 -18 61 -9 61
15 0 11 -5 26 -12 33 -13 14 -43 16 -43 3z"/>
<path d="M11653 1506 c19 -19 40 -21 35 -3 -3 6 -15 14 -28 15 -21 4 -22 2 -7
-12z"/>
<path d="M11620 1479 c0 -5 5 -7 10 -4 6 3 10 8 10 11 0 2 -4 4 -10 4 -5 0
-10 -5 -10 -11z"/>
<path d="M11470 1395 c0 -33 4 -45 14 -45 22 0 26 12 19 53 -8 55 -33 49 -33
-8z"/>
<path d="M11797 1433 c-10 -10 -8 -33 3 -33 5 0 14 9 20 20 8 15 8 20 -3 20
-8 0 -17 -3 -20 -7z"/>
<path d="M11315 1360 c3 -5 13 -10 21 -10 8 0 12 5 9 10 -3 6 -13 10 -21 10
-8 0 -12 -4 -9 -10z"/>
<path d="M11032 1303 c-6 -2 -10 -9 -6 -14 3 -5 -1 -9 -8 -9 -10 0 -10 -2 1
-9 8 -5 21 -7 30 -4 9 2 4 -6 -11 -19 -16 -13 -28 -31 -28 -41 0 -9 -6 -17
-12 -18 -23 -1 26 -18 54 -18 26 -1 27 1 26 52 -2 73 -13 93 -46 80z"/>
<path d="M10936 1285 c-10 -8 -16 -18 -15 -24 2 -5 14 -1 27 9 26 22 16 35
-12 15z"/>
<path d="M10985 1280 c-3 -5 -1 -10 4 -10 6 0 11 5 11 10 0 6 -2 10 -4 10 -3
0 -8 -4 -11 -10z"/>
<path d="M11672 1245 c0 -22 3 -49 6 -60 4 -18 5 -18 14 4 5 14 5 28 -1 35 -5
6 -11 22 -14 36 -3 16 -5 11 -5 -15z"/>
<path d="M10855 1230 c-3 -5 1 -10 10 -10 9 0 13 5 10 10 -3 6 -8 10 -10 10
-2 0 -7 -4 -10 -10z"/>
<path d="M10796 1214 c-4 -9 -4 -19 -1 -23 8 -7 38 12 43 27 6 19 -35 14 -42
-4z"/>
<path d="M10959 1213 c-13 -16 -12 -17 4 -4 16 13 21 21 13 21 -2 0 -10 -8
-17 -17z"/>
<path d="M11861 1201 c-8 -5 -11 -16 -8 -25 10 -25 27 -19 25 9 -1 14 -3 25
-3 25 0 0 -6 -4 -14 -9z"/>
<path d="M10875 1185 c-39 -18 -11 -18 35 0 22 8 28 13 15 13 -11 0 -33 -6
-50 -13z"/>
<path d="M10765 1180 c-3 -5 -1 -10 4 -10 6 0 11 5 11 10 0 6 -2 10 -4 10 -3
0 -8 -4 -11 -10z"/>
<path d="M10820 1160 c-9 -6 -10 -10 -3 -10 6 0 15 5 18 10 8 12 4 12 -15 0z"/>
<path d="M12108 1144 c-5 -4 -8 -18 -8 -31 0 -12 -4 -23 -9 -23 -5 0 -12 -12
-15 -26 -5 -17 -12 -24 -21 -20 -8 3 -19 -3 -25 -14 -6 -11 -17 -17 -24 -14
-21 8 -27 -11 -11 -32 10 -13 17 -15 22 -8 5 6 16 14 27 17 11 5 16 13 12 23
-4 11 -2 15 8 11 8 -3 19 5 27 21 8 14 26 38 40 52 25 24 29 50 7 50 -6 0 -8
-7 -4 -15 3 -8 1 -15 -4 -15 -5 0 -10 7 -12 16 -2 9 -6 12 -10 8z"/>
<path d="M11145 1120 c3 -5 11 -10 16 -10 6 0 7 5 4 10 -3 6 -11 10 -16 10 -6
0 -7 -4 -4 -10z"/>
<path d="M11705 1111 c-3 -12 -12 -18 -20 -15 -9 4 -16 -3 -21 -20 -3 -14 -9
-26 -13 -26 -5 0 -6 -41 -1 -60 1 -3 9 15 20 40 10 25 23 44 28 43 6 -1 15 11
21 27 5 17 6 30 1 30 -5 0 -11 -9 -15 -19z"/>
<path d="M11086 1096 c-16 -7 -24 -16 -18 -20 12 -7 75 18 65 27 -8 9 -12 8
-47 -7z"/>
<path d="M11741 1100 c-1 -8 -4 -26 -7 -40 -4 -20 -3 -22 5 -10 8 11 11 3 11
-37 0 -29 3 -53 6 -53 3 0 15 10 26 23 l20 22 -6 -25 c-5 -24 -4 -24 19 5 14
17 25 37 25 45 -1 12 -3 11 -11 -3 -7 -13 -17 -16 -32 -11 -30 9 -38 24 -31
59 4 21 2 26 -4 16 -8 -11 -11 -10 -15 5 -3 12 -5 14 -6 4z"/>
<path d="M11580 1081 c0 -12 5 -21 10 -21 6 0 10 6 10 14 0 8 -4 18 -10 21 -5
3 -10 -3 -10 -14z"/>
<path d="M10834 1055 c-18 -14 -18 -14 4 -8 12 3 22 9 22 14 0 12 -3 11 -26
-6z"/>
<path d="M11856 1014 c-7 -19 10 -44 31 -44 10 0 13 9 11 27 -3 32 -32 43 -42
17z"/>
<path d="M11947 998 c-8 -29 -4 -32 11 -8 6 10 8 21 3 24 -5 3 -11 -4 -14 -16z"/>
<path d="M10525 990 c-3 -5 -1 -10 4 -10 6 0 11 5 11 10 0 6 -2 10 -4 10 -3 0
-8 -4 -11 -10z"/>
<path d="M12071 973 c-7 -8 -10 -20 -7 -28 2 -7 0 -16 -7 -19 -7 -2 0 -5 14
-5 18 -1 29 6 37 24 15 33 15 32 -6 37 -10 3 -23 -1 -31 -9z"/>
<path d="M11619 953 c0 -5 -2 -24 -5 -43 l-4 -35 19 25 c13 16 16 27 9 31 -6
4 -7 12 -4 18 4 6 2 11 -3 11 -6 0 -11 -3 -12 -7z"/>
<path d="M12010 900 c-6 -12 -10 -33 -8 -48 3 -25 4 -26 14 -7 17 31 26 75 15
75 -6 0 -15 -9 -21 -20z"/>
<path d="M11783 824 c6 -38 23 -64 39 -64 6 0 5 7 -2 15 -7 8 -10 30 -8 48 3
27 0 33 -15 35 -17 1 -19 -4 -14 -34z"/>
<path d="M11856 758 c-19 -26 -21 -47 -4 -30 16 16 45 15 51 0 4 -10 7 -10 17
-1 11 10 9 16 -11 32 -31 26 -35 26 -53 -1z"/>
<path d="M11925 680 c-3 -5 -5 -10 -3 -11 2 0 10 -2 18 -4 8 -2 23 -6 33 -10
12 -5 17 -2 17 10 0 9 -6 15 -12 12 -7 -2 -21 0 -30 4 -10 6 -19 5 -23 -1z"/>
<path d="M11930 640 c0 -5 5 -10 10 -10 6 0 10 5 10 10 0 6 -4 10 -10 10 -5 0
-10 -4 -10 -10z"/>
<path d="M12162 447 c-13 -31 -16 -54 -5 -44 3 4 12 2 20 -4 10 -9 17 -8 28 1
21 17 19 40 -4 40 -11 0 -21 8 -24 18 -3 13 -6 11 -15 -11z"/>
<path d="M10179 179 c24 -11 46 -18 48 -15 4 4 -73 36 -85 35 -4 0 13 -9 37
-20z"/>
<path d="M10240 175 c14 -8 30 -14 35 -14 6 0 -1 6 -15 14 -14 8 -29 14 -35
14 -5 0 1 -6 15 -14z"/>
<path d="M10080 170 c8 -5 22 -9 30 -9 10 0 8 3 -5 9 -27 12 -43 12 -25 0z"/>
<path d="M10237 49 c7 -7 15 -10 18 -7 3 3 -2 9 -12 12 -14 6 -15 5 -6 -5z"/>
<path d="M10157 36 c4 -5 -7 -6 -23 -3 -25 6 -26 5 -8 -4 15 -8 30 -7 55 4
l34 14 -32 -1 c-17 -1 -29 -5 -26 -10z"/>
</g>
</svg>
