<?xml version="1.0" standalone="no"?>
<!DOCTYPE svg PUBLIC "-//W3C//DTD SVG 20010904//EN"
 "http://www.w3.org/TR/2001/REC-SVG-20010904/DTD/svg10.dtd">
<svg version="1.0" xmlns="http://www.w3.org/2000/svg"
 width="1280.000000pt" height="720.000000pt" viewBox="0 0 1280.000000 720.000000"
 preserveAspectRatio="xMidYMid meet">
<metadata>
Created by potrace 1.16, written by Peter Selinger 2001-2019
</metadata>
<g transform="translate(0.000000,720.000000) scale(0.100000,-0.100000)"
fill="#000000" stroke="none">
<path d="M2 3598 c2 -1982 5 -3367 8 -3078 l5 524 40 0 c22 -1 60 -5 85 -9 25
-4 42 -5 38 -1 -10 12 -137 36 -153 29 -13 -4 -15 88 -15 730 0 690 1 735 17
742 59 24 189 66 211 69 112 13 354 246 256 246 -8 0 -21 -15 -29 -33 -22 -53
-137 -147 -219 -179 -39 -15 -75 -28 -81 -28 -5 0 -39 -14 -73 -30 -35 -17
-68 -30 -73 -30 -5 0 -9 38 -9 84 l0 84 43 25 c138 80 246 124 337 135 44 6
57 12 65 30 11 26 30 29 39 6 7 -19 25 -14 136 39 47 22 105 48 130 57 25 8
70 34 102 57 49 37 57 48 67 91 5 27 26 85 44 128 19 43 38 90 42 103 10 31
25 9 25 -37 0 -54 48 -182 93 -249 65 -96 274 -313 324 -335 23 -10 47 -26 52
-36 8 -13 12 -14 22 -5 9 9 6 15 -14 24 -32 15 -34 25 -6 34 19 6 221 155 325
241 78 63 257 241 284 281 45 67 80 92 80 58 0 -8 5 -15 11 -15 6 0 8 -9 4
-20 -4 -12 -2 -20 5 -20 7 0 10 -8 7 -20 -3 -11 -1 -23 4 -26 6 -3 7 -14 4
-25 -4 -11 -2 -19 4 -19 6 0 11 -8 11 -19 0 -10 7 -24 16 -31 13 -12 14 -8 8
40 -5 39 -4 51 5 46 6 -4 11 -14 11 -22 0 -8 5 -14 10 -14 6 0 10 -8 10 -17 0
-27 75 -93 105 -93 16 0 25 -6 25 -15 0 -8 8 -15 18 -15 10 0 22 -3 26 -7 4
-5 20 -8 34 -8 28 -1 106 -37 117 -55 3 -5 15 -10 26 -10 10 0 27 -9 36 -19 9
-11 20 -18 25 -15 5 3 25 -5 45 -17 37 -23 37 -23 13 -29 -26 -6 14 -14 140
-27 33 -3 69 -14 90 -28 35 -24 193 -95 240 -110 46 -14 250 -116 250 -126 0
-5 46 -9 104 -9 l103 0 5 -91 c4 -70 10 -95 25 -112 42 -47 64 -97 68 -151 3
-50 10 -72 46 -151 12 -27 14 0 17 238 l2 267 100 0 100 0 2 -333 3 -332 145
2 c80 2 155 3 167 3 16 0 24 9 33 38 12 35 118 205 167 265 22 27 23 36 23
193 l0 164 310 0 310 0 0 -51 c0 -51 0 -51 28 -44 51 12 107 49 110 73 2 12
10 22 19 22 8 0 28 9 44 21 24 17 37 19 72 13 23 -4 46 -7 50 -6 4 1 10 -5 13
-13 4 -8 18 -15 33 -14 19 0 39 16 76 61 100 122 138 156 188 168 25 7 51 18
58 26 9 11 63 186 101 327 13 47 28 48 28 1 0 -61 70 -283 120 -384 83 -164
91 -176 157 -221 31 -22 52 -49 81 -107 35 -68 73 -171 71 -190 -3 -18 2 -32
10 -32 4 0 6 11 3 25 -4 25 5 31 51 27 9 -1 17 3 17 8 0 6 7 10 16 10 8 0 20
13 25 30 14 37 55 44 45 8 -3 -13 -6 -29 -6 -37 0 -8 -6 -11 -15 -7 -22 8 -18
-7 5 -22 12 -7 20 -8 20 -2 0 7 6 6 18 -1 15 -9 35 -2 112 36 125 62 218 123
225 146 4 11 12 19 20 19 7 0 16 11 19 24 6 25 70 112 131 181 20 22 45 56 55
75 10 19 30 46 45 60 34 31 129 184 168 270 20 43 31 87 35 132 4 62 2 71 -32
132 -19 36 -31 66 -26 66 25 0 97 -107 161 -239 17 -35 49 -89 72 -119 78
-101 87 -117 98 -154 8 -30 18 -42 57 -61 26 -13 80 -46 121 -72 41 -26 97
-60 125 -75 28 -15 82 -44 119 -64 37 -20 85 -49 105 -65 20 -16 62 -37 92
-46 30 -10 80 -30 110 -46 147 -74 338 -161 360 -164 33 -5 184 -84 268 -142
88 -61 192 -162 217 -210 10 -21 33 -58 51 -83 74 -106 113 -186 124 -256 7
-38 19 -98 27 -134 9 -36 20 -105 24 -155 13 -131 20 -175 29 -175 5 0 17 15
28 33 15 26 18 45 15 97 -4 50 0 77 16 120 12 30 26 89 32 130 13 96 22 125
75 237 41 86 71 123 102 123 7 0 31 14 52 31 37 30 60 32 60 5 0 -7 -22 -58
-49 -112 -27 -55 -66 -148 -86 -209 -36 -105 -68 -155 -101 -155 -13 0 -44
-33 -44 -47 0 -16 30 -24 48 -13 10 5 12 10 5 10 -15 0 -6 27 11 33 15 6 8
-46 -18 -130 -68 -224 -80 -256 -97 -260 -17 -5 -31 -47 -35 -108 -6 -97 -25
-178 -50 -213 -9 -13 -18 -47 -19 -75 -2 -29 -9 -68 -15 -87 -6 -19 -14 -54
-16 -78 -2 -24 -13 -76 -24 -115 -12 -40 -27 -108 -36 -152 -8 -44 -17 -87
-19 -96 -3 -9 -12 -48 -19 -88 l-14 -71 85 0 84 0 -7 35 c-7 41 21 128 40 122
6 -2 18 6 26 17 33 47 138 134 195 162 62 30 145 101 145 124 0 7 -12 0 -27
-15 -16 -15 -62 -48 -103 -74 -72 -44 -186 -132 -254 -195 -30 -27 -31 -27
-34 -7 -2 12 2 37 8 57 7 19 13 72 15 117 4 115 42 331 66 386 28 61 59 173
59 210 0 49 39 139 90 205 65 87 63 83 44 115 -15 25 -15 35 -5 77 7 27 26 75
42 107 16 32 29 68 29 80 1 12 10 47 20 77 11 30 32 97 45 148 14 51 32 110
40 129 l16 37 15 -23 c14 -20 14 -24 0 -46 -24 -36 -19 -40 17 -13 31 23 36
24 122 16 50 -4 122 -5 160 -2 45 3 65 2 56 -4 -25 -18 12 -74 39 -57 16 10
63 123 120 293 33 96 63 179 68 184 4 4 32 -12 61 -36 30 -25 73 -52 97 -61
40 -15 42 -18 34 -41 -7 -16 -6 -24 1 -24 8 0 7 -5 -1 -15 -16 -19 -5 -34 12
-17 17 17 29 15 22 -3 -4 -10 3 -18 19 -24 34 -13 42 -30 23 -49 -12 -13 -18
-14 -28 -4 -19 19 -25 14 -20 -18 4 -29 3 -31 -22 -24 -20 5 -26 2 -26 -10 0
-10 9 -16 24 -16 14 0 27 -4 31 -10 8 -13 35 -1 35 16 0 8 6 17 14 20 8 3 17
16 20 30 9 36 29 30 21 -6 -4 -19 -3 -30 4 -30 6 0 11 4 11 8 0 4 14 13 31 19
28 11 32 10 36 -7 8 -31 5 -33 121 70 19 17 37 30 40 30 4 1 20 12 37 25 l29
24 11 -26 c9 -21 18 -26 49 -27 22 -1 43 5 50 14 14 16 106 226 106 242 0 41
106 128 156 128 42 0 88 38 120 101 29 58 20 62 -27 14 -19 -19 -40 -35 -48
-35 -12 0 -12 2 1 13 24 19 26 40 6 60 -16 15 -19 15 -24 2 -3 -8 -10 -12 -15
-9 -12 7 0 124 14 142 16 20 -7 14 -44 -11 -19 -13 -58 -40 -86 -60 -29 -20
-55 -37 -58 -37 -3 0 -5 10 -4 23 0 20 1 20 8 3 7 -18 8 -18 14 -2 12 29 8 46
-10 46 -14 0 -13 3 5 23 12 13 22 31 22 40 0 27 -30 67 -50 67 -10 0 -20 9
-23 21 -3 11 -12 19 -19 17 -31 -7 -13 18 83 110 55 53 105 104 109 112 21 40
-60 227 -93 214 -7 -2 -19 6 -26 19 -11 21 -10 28 4 51 10 14 25 26 34 27 9 0
25 3 36 5 11 2 39 5 62 7 35 2 46 -2 60 -23 39 -54 42 -118 9 -183 -25 -50
-23 -56 12 -31 19 13 22 13 22 0 0 -8 -4 -17 -8 -20 -5 -3 -7 -19 -4 -36 4
-26 8 -30 31 -28 36 4 39 -30 7 -87 -25 -45 -25 -60 0 -27 12 15 15 15 24 2
13 -19 4 -61 -17 -77 -34 -26 -98 -8 -75 20 10 12 9 16 -8 20 -12 3 -20 13
-20 27 0 21 -2 20 -41 -11 -59 -47 -72 -70 -58 -103 16 -34 31 -33 65 4 27 28
32 29 81 23 52 -6 54 -5 89 32 25 27 32 41 25 48 -14 14 -14 67 -1 67 6 0 10
-7 10 -16 0 -8 4 -13 9 -10 5 4 7 -4 3 -16 l-5 -22 28 22 c34 27 43 27 68 5
11 -10 17 -12 12 -4 -6 10 -2 12 16 6 13 -4 25 -9 27 -10 8 -7 -23 -96 -56
-160 -20 -38 -38 -73 -40 -77 -2 -5 6 -8 18 -8 11 0 20 6 18 13 -3 14 41 67
56 67 6 1 23 19 39 41 15 22 35 42 45 45 56 17 70 61 78 239 7 142 18 184 49
186 11 1 40 3 64 5 56 5 127 -32 233 -121 67 -57 80 -73 99 -126 30 -81 70
-123 138 -143 30 -9 65 -16 78 -16 23 0 23 -1 23 -115 0 -84 -3 -117 -12 -119
-7 -2 -38 -11 -68 -21 -145 -43 -172 -60 -319 -205 -54 -53 -180 -191 -236
-257 -15 -18 -33 -33 -41 -33 -8 0 -71 59 -141 130 -69 72 -128 128 -131 125
-10 -9 60 -100 107 -138 25 -20 70 -60 100 -87 l53 -50 -19 -30 c-10 -16 -41
-53 -69 -82 -27 -29 -69 -77 -93 -105 -47 -58 -58 -62 -98 -35 -21 13 -49 17
-128 17 -93 0 -105 -2 -165 -32 -74 -36 -152 -101 -132 -109 6 -3 12 -12 12
-19 0 -10 20 -25 35 -25 2 0 0 14 -5 31 -9 32 -4 59 12 59 17 0 40 -30 34 -45
-7 -19 4 -19 29 -1 27 19 121 46 159 46 16 0 49 -9 73 -21 44 -21 56 -39 27
-39 -10 0 -14 -6 -10 -15 6 -17 -72 -135 -89 -135 -6 0 -42 11 -81 24 -55 19
-68 27 -66 42 1 11 4 30 6 43 3 27 23 40 86 57 38 11 40 13 15 13 -35 -1 -74
-15 -133 -48 -40 -24 -59 -47 -27 -35 16 6 21 -11 6 -20 -15 -10 -75 15 -98
40 l-22 24 -16 -22 c-8 -13 -36 -51 -61 -86 -24 -35 -42 -67 -39 -71 3 -5 0
-46 -6 -92 -13 -94 0 -202 28 -247 19 -29 64 -72 76 -72 4 0 7 -4 7 -10 0 -16
-30 -11 -63 11 l-32 21 33 -29 c17 -16 32 -32 32 -36 0 -5 -80 -126 -151 -227
-18 -25 -69 -99 -114 -166 -218 -319 -236 -344 -248 -344 -5 0 -32 16 -60 35
-100 68 -104 71 -70 38 18 -17 53 -46 77 -63 44 -32 45 -33 29 -59 -46 -73
-200 -270 -212 -271 -8 0 -11 6 -7 15 4 10 -3 17 -22 21 -15 3 -32 7 -39 9 -7
2 -19 26 -27 52 l-15 48 2 -70 c2 -76 -7 -65 95 -114 39 -19 61 -21 252 -21
l209 0 10 38 c6 20 11 43 11 50 0 8 17 29 38 48 20 18 31 34 25 34 -23 0 -14
19 12 26 14 3 25 13 25 23 0 9 22 40 49 70 139 151 285 346 388 517 32 53 64
99 71 101 6 3 12 9 12 14 0 6 10 23 22 40 12 16 23 40 23 52 0 17 7 23 30 25
44 5 56 20 49 57 -5 28 4 46 65 136 39 58 97 132 128 164 32 33 65 72 72 87
17 32 39 36 67 10 24 -23 54 -35 54 -22 0 6 -18 40 -40 76 -37 62 -39 67 -26
93 12 22 135 141 168 162 6 4 12 17 13 30 6 48 26 107 41 120 14 11 22 10 55
-8 47 -26 49 -22 8 15 -29 26 -31 30 -19 53 7 13 29 44 50 69 20 25 53 70 73
100 61 92 229 260 274 274 l23 7 3 -1233 c1 -678 3 388 5 2370 l2 3602 -6400
0 -6400 0 2 -3602z m12788 1917 c0 -1066 2 -1028 -48 -970 -29 33 -42 93 -31
147 5 24 9 121 9 215 -1 150 2 182 21 245 l22 72 -21 40 c-14 29 -22 68 -26
131 -3 50 -7 106 -10 125 -2 19 -5 98 -6 175 -2 121 1 149 19 203 12 35 19 68
15 73 -26 43 -43 205 -25 251 5 13 11 56 15 96 7 89 22 147 44 172 9 11 18 20
19 20 2 0 3 -448 3 -995z m-2822 213 c9 -9 15 -9 20 -3 10 15 72 19 72 5 0 -7
7 -9 17 -6 9 4 19 3 22 -1 17 -23 92 -73 110 -73 12 0 47 -25 81 -59 33 -32
80 -67 103 -77 23 -10 45 -22 48 -27 6 -9 101 -13 171 -7 54 5 101 -21 106
-59 2 -11 7 -21 12 -21 21 0 31 -41 19 -78 -9 -26 -9 -37 -1 -40 6 -2 9 -15 6
-30 -3 -15 3 -49 13 -77 11 -28 19 -57 18 -65 -1 -8 -3 -21 -3 -27 -1 -7 -10
-13 -20 -13 -10 0 -26 -6 -37 -14 -19 -13 -158 -33 -201 -28 -12 1 -27 -5 -35
-14 -12 -15 -11 -16 11 -10 23 6 24 6 5 -6 -11 -7 -24 -13 -30 -13 -15 0 -18
-34 -5 -50 16 -20 171 -14 258 9 34 10 72 16 84 14 23 -3 52 -45 63 -90 6 -22
4 -27 -12 -27 -10 1 -70 -4 -133 -11 -138 -13 -200 -39 -243 -100 -29 -41 -41
-48 -52 -30 -12 19 -26 10 -40 -23 -12 -30 -12 -38 3 -70 9 -19 24 -38 32 -40
8 -3 40 -15 70 -26 33 -13 56 -17 58 -11 2 5 14 10 27 10 28 0 41 16 26 33
-13 17 0 37 36 53 27 12 27 12 4 13 -13 1 -39 11 -58 22 -32 20 -33 22 -17 40
9 11 26 19 36 19 11 0 28 5 38 10 17 9 22 5 40 -29 11 -22 24 -43 30 -46 6 -4
8 -10 5 -15 -5 -7 63 -12 158 -11 27 0 39 -23 15 -31 -10 -4 -10 -11 -2 -29
16 -35 -6 -191 -51 -371 -20 -81 -35 -156 -32 -165 5 -22 9 -12 27 67 7 30 23
75 35 100 24 48 48 117 67 190 l11 45 9 -35 c5 -19 13 -49 19 -66 14 -45 11
-70 -11 -111 -31 -57 -24 -71 11 -23 l31 43 20 -54 c10 -30 23 -75 29 -101 10
-45 21 -59 33 -40 8 14 -14 141 -35 206 -18 53 -19 100 -2 129 2 4 36 -26 74
-67 39 -42 96 -91 128 -110 31 -19 62 -45 68 -58 57 -117 86 -197 85 -233 -1
-22 -13 -83 -28 -135 -14 -52 -33 -135 -43 -184 -14 -74 -21 -91 -39 -99 -12
-6 -22 -14 -22 -19 0 -4 -6 -8 -14 -8 -7 0 -19 -7 -26 -15 -7 -8 -28 -17 -49
-21 -49 -9 -137 -51 -186 -88 -22 -17 -82 -70 -133 -117 -52 -47 -112 -96
-135 -107 -113 -56 -315 -85 -440 -63 -112 19 -185 74 -267 199 -27 39 -62 89
-78 110 -60 75 -155 227 -193 307 -21 46 -57 141 -79 212 -23 70 -59 182 -80
248 -49 148 -49 150 -54 422 -4 191 -2 225 11 238 34 35 68 43 188 45 186 4
180 3 179 22 -1 11 4 14 13 11 10 -4 5 9 -12 35 -25 38 -36 46 -57 43 -32 -4
-207 -1 -220 4 -12 5 -28 -4 -53 -29 -37 -37 -69 -48 -59 -21 4 8 2 21 -4 28
-24 29 1 415 29 437 3 3 16 38 28 78 12 39 26 72 31 72 6 0 10 6 10 14 0 8 8
17 18 20 10 4 37 25 61 49 24 23 46 42 49 43 17 1 88 40 95 52 4 6 16 12 25
12 9 1 28 7 42 15 31 18 33 18 48 3z m-3145 -397 c5 -1 5 -10 2 -22 -6 -18 -4
-20 17 -14 22 6 22 6 3 -10 -14 -11 -21 -33 -26 -88 -4 -39 -5 -77 -2 -83 2
-7 26 -26 52 -44 47 -32 77 -74 83 -115 3 -19 -3 -20 -117 -22 -107 -1 -140
-6 -225 -33 -14 -5 -43 -11 -65 -15 -71 -11 -75 -13 -68 -46 6 -34 -12 -40
-20 -7 -8 31 27 106 56 119 44 20 67 117 42 181 -5 13 0 20 20 28 17 6 25 16
22 24 -8 21 19 52 86 99 64 44 91 56 117 51 8 -1 19 -3 23 -3z m221 -322 c-3
-5 -10 -7 -15 -3 -5 3 -7 10 -3 15 3 5 10 7 15 3 5 -3 7 -10 3 -15z m-524 -34
c-7 -8 -17 -12 -22 -9 -6 4 -5 10 3 15 22 14 33 10 19 -6z m-4840 -19 c0 -13
7 -29 15 -36 8 -7 15 -19 15 -26 0 -8 9 -14 19 -14 11 0 23 -4 26 -10 3 -5 1
-10 -5 -10 -6 0 -9 -4 -6 -9 3 -4 17 -6 31 -3 33 6 145 -19 145 -33 0 -6 -20
-18 -44 -27 -33 -12 -47 -13 -56 -5 -9 9 -17 5 -34 -17 -11 -16 -35 -43 -52
-60 -25 -26 -30 -37 -26 -66 2 -23 -7 -65 -27 -119 -17 -47 -31 -93 -31 -103
0 -10 -4 -18 -10 -18 -9 0 -12 14 -9 36 0 4 -5 10 -11 14 -9 6 -9 12 0 26 10
16 9 27 -4 58 -9 21 -16 49 -16 61 0 18 -4 22 -18 18 -14 -3 -22 4 -32 29 -8
18 -20 37 -27 41 -7 4 -13 15 -13 24 0 24 -50 73 -74 73 -17 0 -18 2 -6 10 11
7 4 10 -27 10 -32 0 -43 4 -43 15 0 8 -3 14 -7 14 -27 -4 -53 2 -47 12 4 7 21
9 41 6 26 -5 38 -1 51 14 21 25 47 24 72 -1 22 -22 43 -19 33 5 -3 8 0 15 7
15 9 0 11 -13 7 -47 -3 -27 -3 -42 0 -35 2 6 8 10 12 8 4 -3 12 8 18 25 7 17
7 29 2 29 -18 0 12 40 46 63 39 24 44 36 18 38 -10 1 -4 5 12 9 49 13 55 11
55 -14z m4681 -74 c-8 -15 -7 -23 4 -32 20 -17 19 -26 -5 -50 -27 -27 -41 -17
-34 23 8 43 36 105 41 90 3 -7 0 -21 -6 -31z m-101 10 c0 -9 -44 -32 -60 -32
-21 0 -9 19 18 28 35 13 42 14 42 4z m130 -32 c0 -5 -5 -10 -11 -10 -5 0 -7 5
-4 10 3 6 8 10 11 10 2 0 4 -4 4 -10z m631 -56 c14 -13 30 -24 37 -24 7 0 12
-4 12 -9 0 -4 15 -12 33 -17 28 -9 35 -18 56 -74 26 -71 30 -148 16 -268 -7
-60 -5 -79 10 -111 20 -46 58 -60 79 -30 7 10 27 22 44 25 26 5 32 3 32 -11 0
-14 5 -16 28 -10 29 8 61 9 69 2 9 -10 -10 -56 -38 -91 -27 -31 -36 -36 -74
-36 -51 0 -85 27 -86 69 l0 26 -12 -23 c-8 -18 -8 -25 1 -31 8 -5 9 -17 2 -41
-6 -19 -7 -56 -4 -82 4 -26 1 -83 -5 -125 -18 -113 -16 -107 -42 -172 -12 -29
-5 -38 15 -21 9 6 21 39 27 71 16 79 29 84 29 11 0 -77 48 -318 100 -502 6
-19 12 -46 14 -60 3 -14 5 -27 6 -30 2 -3 2 -9 1 -14 -1 -5 -6 -32 -12 -60
-11 -59 -40 -136 -52 -136 -4 0 -12 -10 -17 -22 -6 -13 -19 -36 -30 -53 -11
-16 -26 -42 -32 -58 -7 -15 -20 -30 -30 -33 -10 -3 -18 -11 -18 -17 0 -7 -11
-25 -26 -40 -14 -15 -23 -31 -20 -36 3 -5 -5 -12 -19 -15 -16 -4 -25 -13 -25
-26 0 -11 -7 -20 -15 -20 -8 0 -15 -5 -15 -11 0 -5 -4 -7 -10 -4 -5 3 -10 2
-10 -3 0 -11 -55 -72 -64 -72 -4 0 -16 -9 -28 -20 -12 -11 -44 -27 -72 -36
-28 -9 -58 -22 -66 -29 -8 -7 -50 -18 -92 -26 -43 -7 -78 -17 -78 -21 0 -4
-13 -8 -30 -8 -28 0 -30 -2 -30 -40 0 -39 -1 -40 -34 -40 -29 0 -36 5 -45 31
-6 17 -15 28 -21 24 -14 -9 -13 8 3 24 10 11 9 12 -2 6 -11 -6 -13 -4 -8 8 4
11 -1 20 -13 27 -11 6 -20 16 -20 23 0 19 -89 189 -111 213 -10 11 -19 26 -19
32 0 7 -4 12 -10 12 -5 0 -10 7 -10 15 0 8 -4 15 -9 15 -5 0 -16 12 -24 28 -8
15 -24 44 -35 66 -12 21 -27 46 -35 55 -31 36 -87 150 -102 209 -9 34 -18 113
-19 174 -4 124 -10 147 -54 197 -49 56 -98 161 -122 261 -13 52 -24 101 -26
108 -2 6 -18 12 -37 12 -20 0 -42 8 -55 20 -27 26 -27 32 -2 48 12 7 18 16 15
21 -7 12 19 31 31 23 6 -4 17 -18 23 -30 24 -46 20 -15 -15 97 -35 116 -41
146 -25 137 4 -3 18 5 31 19 20 21 21 26 8 39 -20 20 -12 66 11 66 25 0 32 10
20 31 -11 21 5 64 21 54 5 -3 11 -1 15 5 4 6 10 8 15 5 5 -3 23 4 40 17 26 19
34 20 50 10 11 -7 27 -12 36 -12 10 0 14 -5 10 -15 -4 -10 1 -15 15 -15 12 0
37 -7 56 -16 25 -13 37 -14 46 -5 17 17 37 13 37 -6 1 -31 47 36 60 86 7 25
17 60 23 76 7 17 12 33 12 37 0 4 10 15 23 24 15 10 21 22 17 34 -7 22 49 90
74 90 14 0 14 -2 1 -10 -17 -11 -7 -24 28 -35 14 -4 22 -2 22 6 0 9 4 9 15 -1
13 -10 13 -14 0 -26 -28 -28 6 -116 50 -130 11 -4 23 -12 27 -18 4 -6 10 -7
14 -3 4 3 2 12 -4 20 -8 10 -6 16 9 25 24 15 42 6 36 -18 -4 -15 1 -18 32 -17
21 1 45 10 55 20 15 15 69 23 114 18 6 -1 12 3 12 9 0 14 26 13 49 -2 17 -10
24 -8 47 15 15 15 35 27 46 27 14 0 17 6 14 25 -14 74 -78 124 -166 126 l-45
2 45 7 c25 4 48 6 52 4 4 -3 10 0 13 6 12 19 107 0 136 -26z m-576 6 c3 -5 1
-10 -4 -10 -6 0 -11 5 -11 10 0 6 2 10 4 10 3 0 8 -4 11 -10z m4332 -26 c2 -6
-16 -11 -43 -13 -47 -2 -149 -35 -159 -51 -3 -5 -26 -19 -51 -32 -60 -29 -74
-55 -39 -68 14 -5 25 -14 25 -20 0 -18 -28 -11 -57 14 l-28 24 30 24 c85 67
199 120 257 120 10 -1 20 4 24 9 7 13 36 8 41 -7z m-4287 -4 c0 -5 -5 -10 -11
-10 -5 0 -7 5 -4 10 3 6 8 10 11 10 2 0 4 -4 4 -10z m50 -24 c0 -3 -4 -8 -10
-11 -5 -3 -10 -1 -10 4 0 6 5 11 10 11 6 0 10 -2 10 -4z m165 -48 c4 -13 17
-33 28 -45 l20 -23 -26 0 c-14 0 -38 11 -54 24 -27 24 -28 24 -9 45 24 27 33
26 41 -1z m175 -8 c0 -21 -33 -60 -50 -60 -6 0 2 18 16 40 30 46 34 48 34 20z
m3900 -15 c0 -8 -4 -15 -10 -15 -5 0 -12 0 -15 0 -3 0 -5 3 -4 6 0 4 -5 11
-13 15 -9 6 -4 9 15 9 17 0 27 -5 27 -15z m-8750 -25 c0 -5 -7 -10 -15 -10 -8
0 -15 5 -15 10 0 6 7 10 15 10 8 0 15 -4 15 -10z m3930 -55 c0 -8 11 -22 25
-31 37 -24 31 -37 -12 -29 -51 9 -68 26 -54 54 13 24 41 28 41 6z m90 -15 c0
-5 -2 -10 -4 -10 -3 0 -8 5 -11 10 -3 6 -1 10 4 10 6 0 11 -4 11 -10z m5146
-55 c15 -27 35 -63 44 -80 8 -16 28 -43 43 -59 31 -33 34 -46 12 -46 -37 0
-126 141 -142 223 -7 41 7 29 43 -38z m-10016 -1 c0 -14 5 -34 10 -45 14 -26
-4 -25 -30 1 -23 23 -25 41 -8 58 19 19 28 14 28 -14z m760 -23 c11 -38 -4
-50 -31 -25 -23 21 -24 28 -3 49 19 19 22 17 34 -24z m-586 13 c7 -18 -11 -47
-24 -39 -9 6 0 55 10 55 4 0 11 -7 14 -16z m731 -32 c-15 -16 -16 -15 -4 12 7
15 15 23 17 16 3 -7 -3 -19 -13 -28z m9032 1 c29 -47 84 -115 145 -180 39 -41
56 -67 52 -77 -7 -19 -16 -20 -57 -2 -44 18 -110 92 -146 165 -44 87 -39 165
6 94z m-10052 -117 c23 -21 38 -26 81 -26 55 0 77 -19 27 -21 l-28 -2 26 -4
c21 -3 28 -11 33 -37 9 -48 0 -63 -45 -74 -33 -8 -41 -7 -52 7 -21 27 -58 45
-67 31 -5 -8 -9 -7 -13 5 -4 9 -14 15 -23 13 -24 -4 -44 58 -32 97 6 17 11 36
14 42 5 17 43 2 79 -31z m183 -67 c-2 -6 -8 -10 -13 -10 -5 0 -11 4 -13 10 -2
6 4 11 13 11 9 0 15 -5 13 -11z m282 -9 c-1 -23 -43 -43 -58 -28 -18 18 -2 37
29 35 16 -1 29 -4 29 -7z m608 -22 c2 -10 -2 -23 -8 -30 -6 -7 -17 -22 -25
-33 l-14 -20 -7 20 c-4 11 -12 23 -17 26 -11 8 1 51 13 44 5 -3 12 -1 15 5 10
16 39 7 43 -12z m-778 -8 c0 -5 -18 -10 -40 -10 -22 0 -40 5 -40 10 0 6 18 10
40 10 22 0 40 -4 40 -10z m2 -65 c-2 -25 -8 -45 -13 -45 -13 0 -11 -78 2 -82
16 -5 -4 -72 -23 -76 -12 -2 -19 10 -27 48 -6 28 -11 58 -11 65 0 9 -9 15 -21
15 -16 0 -20 5 -16 20 3 11 1 18 -4 14 -5 -3 -9 2 -9 11 0 9 9 19 20 22 11 3
20 14 20 24 0 14 9 19 43 22 23 2 42 4 42 5 0 1 -1 -18 -3 -43z m635 -105 c-4
-30 -13 -58 -20 -62 -9 -6 -9 -10 -1 -15 8 -6 5 -14 -7 -27 -11 -11 -19 -14
-19 -8 0 7 -7 12 -15 12 -8 0 -15 -5 -15 -11 0 -5 -4 -7 -10 -4 -5 3 -10 25
-11 48 -1 23 -4 53 -8 67 -5 17 -1 36 13 62 17 30 27 38 56 40 30 3 36 0 40
-22 3 -14 2 -50 -3 -80z m-336 90 c36 0 39 -2 39 -29 0 -17 -5 -33 -10 -36 -6
-4 -8 -11 -5 -16 3 -5 -3 -19 -14 -31 -12 -12 -21 -16 -21 -10 0 16 -27 15
-33 0 -10 -28 -25 9 -26 65 -1 25 -4 27 -28 21 -36 -8 -56 -33 -42 -50 8 -10
3 -17 -19 -28 -16 -8 -32 -22 -35 -31 -10 -24 -24 -18 -36 16 -14 40 3 67 44
71 16 2 30 8 30 13 1 6 7 21 14 34 12 21 18 23 58 17 25 -3 63 -6 84 -6z m112
-89 c24 -9 45 -46 34 -58 -7 -6 -87 47 -87 58 0 12 23 11 53 0z m-548 -11 c3
-5 -1 -10 -9 -10 -9 0 -16 5 -16 10 0 6 4 10 9 10 6 0 13 -4 16 -10z m405
-414 c0 -11 -19 -15 -25 -6 -3 5 1 10 9 10 9 0 16 -2 16 -4z m50 0 c0 -11 -19
-15 -25 -6 -3 5 1 10 9 10 9 0 16 -2 16 -4z m10235 -337 c9 -17 14 -33 11 -36
-4 -4 -36 49 -36 62 0 13 11 2 25 -26z m-10226 8 c15 -19 2 -29 -15 -12 -8 7
-14 16 -14 19 0 11 17 6 29 -7z m9668 -214 c29 -9 69 -30 90 -48 l37 -32 -22
-31 c-29 -40 -106 -108 -159 -139 -24 -14 -43 -29 -43 -34 0 -5 -7 -9 -15 -9
-9 0 -12 -6 -9 -15 5 -11 -1 -15 -24 -15 -50 0 -79 -16 -112 -64 -33 -49 -50
-58 -50 -27 0 19 45 71 62 71 5 0 24 10 41 23 35 24 43 53 14 51 -10 -1 -19 7
-23 22 -8 32 -51 59 -70 43 -8 -6 -14 -17 -14 -23 0 -6 -16 -29 -35 -50 -19
-22 -35 -43 -35 -48 0 -4 -7 -8 -15 -8 -8 0 -15 -4 -15 -10 0 -5 -12 -22 -27
-37 l-28 -28 38 -3 c32 -3 36 -6 26 -18 -6 -8 -18 -14 -26 -14 -7 0 -13 -7
-11 -16 3 -18 -56 -58 -187 -128 -38 -20 -77 -46 -87 -56 -16 -19 -16 -19 -23
17 -5 35 13 163 30 206 12 30 -18 19 -43 -16 l-24 -32 6 37 c10 53 55 136 98
179 75 74 164 148 211 174 71 39 174 76 193 68 11 -4 15 -3 10 5 -4 7 10 13
41 17 27 3 55 7 63 9 24 4 81 -4 137 -21z m447 -35 c-8 -28 -23 -48 -36 -48
-10 0 -1 38 14 58 17 20 30 14 22 -10z m-1308 -190 c-2 -18 -9 -48 -16 -65
l-12 -33 -18 23 c-10 12 -15 23 -10 25 5 2 6 17 3 34 -6 29 -5 31 20 26 19 -4
27 -1 27 8 0 8 2 14 5 14 3 0 4 -15 1 -32z m551 -296 c1 -20 3 -48 5 -62 2
-18 -2 -25 -17 -28 -11 -2 -31 -14 -45 -27 -34 -31 -152 -95 -176 -95 -24 0
-64 -27 -64 -43 0 -7 4 -18 9 -25 13 -21 130 19 241 82 l95 55 28 -26 c15 -15
27 -30 27 -34 0 -5 -63 -50 -139 -101 -77 -51 -138 -95 -136 -98 2 -3 -9 -6
-23 -7 -15 -1 -44 -5 -65 -9 -46 -8 -76 15 -113 88 -35 69 -28 150 13 165 22
8 199 109 233 133 17 12 122 71 125 70 0 0 1 -17 2 -38z m-1168 -136 c14 -56
14 -113 1 -121 -12 -8 -27 29 -30 75 -7 95 10 121 29 46z m-3326 -103 c-7 -2
-19 -2 -25 0 -7 3 -2 5 12 5 14 0 19 -2 13 -5z m4798 -111 c-7 -2 -23 -16 -35
-29 -27 -32 -53 -46 -61 -33 -6 10 97 82 105 73 3 -3 -1 -8 -9 -11z m-1617
-88 c9 -22 -3 -32 -14 -14 -12 19 -12 30 -1 30 5 0 12 -7 15 -16z m306 -168
c0 -16 -50 36 -65 68 -8 16 -15 43 -15 60 1 27 5 22 40 -44 21 -41 39 -79 40
-84z m-244 42 c13 -27 20 -48 15 -48 -9 0 -62 89 -74 125 -12 33 31 -22 59
-77z m1082 75 c-10 -2 -26 -2 -35 0 -10 3 -2 5 17 5 19 0 27 -2 18 -5z m767
-253 c-10 -32 12 -32 35 0 25 35 36 38 43 11 7 -29 -4 -38 -55 -45 -36 -5 -48
-4 -48 5 0 7 -9 3 -21 -10 -12 -12 -27 -20 -34 -17 -8 3 -19 -2 -25 -10 -18
-21 -37 -17 -44 9 -3 14 1 29 14 42 12 11 20 14 20 7 0 -7 -5 -12 -11 -12 -6
0 -9 -8 -7 -17 6 -30 32 -20 44 17 11 32 44 56 44 31 0 -6 -7 -11 -15 -11 -8
0 -15 -7 -15 -15 0 -8 4 -15 10 -15 15 0 50 33 50 48 0 7 5 10 10 7 6 -4 8
-15 5 -25z m181 -13 c21 8 17 -21 -5 -41 -15 -14 -23 -15 -45 -5 l-26 12 27
29 c21 22 29 26 31 14 2 -8 10 -12 18 -9z m-330 -207 c-7 -39 21 -70 67 -70
38 -1 72 -23 64 -44 -7 -19 -104 -151 -134 -184 -14 -15 -29 -22 -38 -18 -13
5 -15 16 -9 68 4 35 13 76 21 91 13 27 13 29 -6 34 -24 6 -26 14 -10 30 6 6
12 31 14 56 3 49 10 67 27 67 6 0 8 -12 4 -30z m-142 -5 c8 -21 -15 -56 -34
-53 -32 7 -14 63 21 67 4 1 10 -6 13 -14z m-51 -172 c-3 -27 -10 -54 -16 -61
-8 -10 -7 -16 3 -22 12 -7 12 -11 0 -25 -11 -14 -11 -16 0 -13 8 2 14 -2 15
-9 0 -6 3 -15 8 -19 4 -4 7 -10 7 -14 0 -12 -40 -54 -45 -48 -3 3 -8 28 -12
57 -3 28 -10 51 -16 51 -5 0 -4 6 2 14 8 10 9 16 1 21 -7 4 -7 12 0 24 5 10 7
21 4 24 -3 3 4 8 15 12 12 3 21 13 21 22 0 9 -6 13 -15 9 -8 -3 -15 -2 -15 3
0 13 12 21 31 21 16 0 18 -6 12 -47z m42 -35 c2 -63 20 -113 49 -137 24 -20
19 -1 -6 27 -19 19 -23 36 -25 90 -1 37 0 70 3 73 7 12 57 -6 68 -23 7 -12 6
-32 -3 -68 -11 -44 -11 -54 3 -75 13 -20 14 -28 4 -45 -15 -24 -26 -25 -57 -4
-47 33 -74 139 -55 212 10 36 16 18 19 -50z m17 -218 c-9 -14 -17 -27 -18 -29
-2 -1 -13 6 -25 18 -21 19 -21 21 -5 46 16 25 17 25 40 8 22 -17 22 -19 8 -43z"/>
<path d="M9805 4751 c-102 -25 -125 -42 -162 -119 -28 -59 -30 -67 -15 -71 9
-2 20 -9 25 -16 4 -7 15 -12 25 -10 9 2 23 4 30 4 6 1 12 10 12 22 0 19 4 20
43 14 l42 -6 -33 17 c-39 20 -37 31 8 62 42 28 46 28 58 -6 17 -49 54 -81 85
-75 27 5 28 4 21 -23 -4 -16 -10 -31 -13 -34 -3 -3 -12 -13 -19 -22 -12 -15
-9 -16 45 -11 64 6 125 29 141 54 6 9 16 45 24 79 16 77 3 105 -62 137 -56 28
-154 29 -255 4z m75 -31 c0 -4 -21 -13 -46 -19 -26 -7 -65 -21 -86 -32 -22
-11 -42 -18 -44 -16 -8 8 7 33 29 47 34 21 147 37 147 20z m50 -106 c0 -8 -3
-14 -6 -14 -10 0 -33 27 -28 33 10 9 34 -4 34 -19z"/>
<path d="M10354 4173 c-23 -4 -85 -63 -66 -63 6 0 14 5 17 10 4 7 13 6 27 -1
24 -13 104 -7 120 9 5 5 7 19 3 31 -5 17 -14 21 -43 20 -20 -1 -47 -4 -58 -6z"/>
<path d="M10096 4096 c3 -9 11 -16 16 -16 13 0 5 23 -10 28 -7 2 -10 -2 -6
-12z"/>
<path d="M10080 4052 c0 -11 22 -32 32 -32 5 0 4 9 -2 20 -11 20 -30 28 -30
12z"/>
<path d="M10115 4000 c-3 -5 -1 -10 4 -10 6 0 11 5 11 10 0 6 -2 10 -4 10 -3
0 -8 -4 -11 -10z"/>
<path d="M10850 3911 c0 -21 49 -84 50 -65 0 6 -7 17 -15 24 -8 7 -15 23 -15
36 0 13 -4 24 -10 24 -5 0 -10 -9 -10 -19z"/>
<path d="M10556 3752 c-59 -2 -83 -7 -91 -19 -8 -11 -29 -17 -63 -18 -29 -1
-55 -5 -59 -8 -11 -12 -90 -8 -101 6 -6 7 -29 11 -54 10 -41 -2 -148 -26 -167
-37 -16 -10 -19 -45 -5 -57 8 -6 14 -17 14 -23 0 -17 43 -56 62 -56 9 0 19 14
24 33 l10 32 78 3 c49 2 82 -1 91 -8 11 -9 18 -8 30 4 9 9 25 16 35 16 11 0
57 10 104 21 l84 22 23 -22 c24 -22 49 -28 49 -11 0 6 6 10 13 8 7 -2 27 7 43
20 16 12 38 28 48 36 29 20 14 46 -28 46 -19 0 -40 1 -48 3 -7 1 -49 1 -92 -1z
m39 -82 c3 -5 1 -10 -4 -10 -6 0 -11 5 -11 10 0 6 2 10 4 10 3 0 8 -4 11 -10z"/>
<path d="M11140 3652 c0 -16 -43 -60 -71 -71 -19 -8 -20 -10 -6 -10 31 -1 75
31 80 58 3 14 3 28 1 30 -2 2 -4 -1 -4 -7z"/>
<path d="M5960 4481 c0 -5 9 -7 20 -4 11 3 20 7 20 9 0 2 -9 4 -20 4 -11 0
-20 -4 -20 -9z"/>
<path d="M6240 4345 c0 -9 -7 -27 -16 -41 -9 -13 -14 -28 -10 -31 28 -28 72
11 57 50 -12 30 -31 44 -31 22z"/>
<path d="M6496 4179 c-28 -33 -26 -61 3 -35 22 20 37 20 45 1 6 -18 36 -19 71
-3 35 16 31 28 -11 28 -31 0 -35 3 -29 20 5 17 2 20 -23 20 -21 0 -38 -9 -56
-31z"/>
<path d="M6275 4171 c-3 -5 4 -16 15 -24 18 -13 19 -15 5 -21 -9 -3 -30 -6
-46 -6 -16 0 -29 -2 -29 -5 0 -15 34 -55 47 -55 11 0 11 -4 3 -20 -14 -26 -9
-25 24 5 15 14 34 25 42 25 7 0 14 7 14 15 0 9 9 15 24 15 36 0 26 27 -20 55
-41 26 -69 31 -79 16z"/>
<path d="M6435 4101 c-6 -11 9 -23 19 -14 9 9 7 23 -3 23 -6 0 -12 -4 -16 -9z"/>
<path d="M6333 3941 c-19 -15 -20 -20 -8 -25 8 -3 28 0 43 6 15 6 37 10 50 9
13 0 20 3 17 9 -9 14 -38 12 -54 -2 -11 -11 -13 -10 -8 5 8 22 -12 22 -40 -2z"/>
<path d="M6290 3910 c0 -7 24 -20 36 -20 13 0 1 19 -16 23 -11 3 -20 2 -20 -3z"/>
<path d="M6608 3901 c-5 -14 -302 -40 -310 -27 -5 7 -8 7 -8 1 0 -6 -22 -24
-50 -40 -27 -17 -48 -34 -46 -40 1 -5 24 -10 49 -10 26 0 47 -3 47 -7 0 -5 7
-8 15 -8 9 0 15 9 15 24 0 27 18 32 112 35 31 1 71 6 90 11 51 15 68 12 68
-10 0 -27 30 -26 80 3 42 23 53 47 21 47 -10 0 -24 7 -31 15 -14 16 -46 20
-52 6z"/>
<path d="M1901 4124 c0 -11 3 -14 6 -6 3 7 2 16 -1 19 -3 4 -6 -2 -5 -13z"/>
<path d="M1276 2677 c-20 -16 -26 -26 -17 -31 6 -4 9 -12 6 -17 -4 -5 5 -9 19
-9 14 0 26 5 26 10 0 6 10 10 23 10 36 0 50 20 30 42 -22 24 -52 23 -87 -5z"/>
<path d="M6014 2636 l-69 -64 42 -44 c48 -49 69 -93 79 -166 6 -51 24 -63 24
-17 0 13 8 28 17 34 14 8 15 12 4 25 -15 18 -8 46 12 46 8 0 22 -9 32 -20 24
-27 35 -25 35 5 0 23 -23 71 -41 85 -3 3 -17 23 -31 46 -18 28 -23 45 -17 56
10 18 1 78 -11 78 -4 0 -39 -29 -76 -64z m70 9 c3 -8 1 -15 -4 -15 -6 0 -10 7
-10 15 0 8 2 15 4 15 2 0 6 -7 10 -15z m-52 -72 c13 -16 -4 -17 -19 -2 -6 6
-8 20 -5 32 6 21 6 21 10 2 2 -11 9 -26 14 -32z"/>
<path d="M1458 2683 c7 -3 16 -2 19 1 4 3 -2 6 -13 5 -11 0 -14 -3 -6 -6z"/>
<path d="M12505 2681 c-3 -5 -1 -12 5 -16 5 -3 10 1 10 9 0 18 -6 21 -15 7z"/>
<path d="M6160 2641 c0 -6 3 -11 8 -11 4 0 16 -16 26 -35 11 -19 23 -35 28
-35 5 0 -2 19 -16 42 -25 42 -46 60 -46 39z"/>
<path d="M1195 2630 c-30 -8 -30 -8 8 -9 23 -1 36 3 32 9 -3 6 -7 9 -8 9 -1
-1 -15 -5 -32 -9z"/>
<path d="M11660 2620 c0 -5 9 -10 21 -10 11 0 17 5 14 10 -3 6 -13 10 -21 10
-8 0 -14 -4 -14 -10z"/>
<path d="M611 1630 l1 -990 54 0 54 0 0 990 0 990 -55 0 -56 0 2 -990z"/>
<path d="M2745 2610 c3 -5 10 -10 16 -10 5 0 9 5 9 10 0 6 -7 10 -16 10 -8 0
-12 -4 -9 -10z"/>
<path d="M11800 2545 c0 -8 2 -15 4 -15 2 0 6 7 10 15 3 8 1 15 -4 15 -6 0
-10 -7 -10 -15z"/>
<path d="M1720 2490 c0 -5 5 -10 11 -10 5 0 7 5 4 10 -3 6 -8 10 -11 10 -2 0
-4 -4 -4 -10z"/>
<path d="M3161 2467 c7 -16 22 -27 43 -30 17 -3 39 -8 49 -12 11 -5 17 -2 17
7 0 13 -44 37 -98 53 -21 6 -21 5 -11 -18z"/>
<path d="M4810 2436 c0 -9 7 -12 20 -9 11 3 20 9 20 14 0 5 -9 9 -20 9 -11 0
-20 -6 -20 -14z"/>
<path d="M947 2422 c-19 -20 -23 -47 -7 -37 6 4 30 8 54 9 38 2 76 22 76 40 0
3 -24 6 -53 6 -40 0 -58 -5 -70 -18z"/>
<path d="M7154 2407 c-12 -12 -35 -33 -53 -47 -129 -103 -206 -183 -197 -206
11 -30 76 -4 146 58 29 26 86 63 126 83 41 20 74 41 74 46 0 5 9 9 20 9 11 0
20 -4 20 -10 0 -5 -7 -10 -15 -10 -8 0 -15 -7 -15 -15 0 -8 -13 -24 -30 -37
-36 -26 -39 -60 -7 -76 17 -9 129 -32 158 -32 14 0 19 71 9 109 -10 38 -80
110 -137 139 -33 18 -76 13 -99 -11z"/>
<path d="M8040 2368 c0 -15 30 -77 48 -99 35 -42 61 -67 94 -89 21 -14 38 -28
38 -31 0 -4 27 -17 61 -29 33 -13 74 -36 90 -52 24 -24 42 -32 95 -38 64 -8
74 -13 123 -57 23 -21 77 -40 87 -31 2 2 -15 15 -37 29 -22 13 -55 34 -72 46
-47 33 -182 97 -261 124 -68 23 -111 57 -166 127 -47 61 -100 114 -100 100z"/>
<path d="M5208 2318 c-33 -12 -38 -32 -5 -23 23 8 58 36 42 34 -6 0 -22 -5
-37 -11z"/>
<path d="M2512 2260 c-12 -11 -22 -29 -22 -38 0 -10 -11 -33 -25 -52 -28 -38
-30 -50 -13 -83 6 -12 14 -29 18 -37 4 -9 27 -18 56 -21 27 -4 66 -10 88 -14
28 -6 40 -4 47 6 13 22 11 25 -21 27 -16 1 -41 7 -55 12 -15 6 -41 10 -59 10
-19 0 -39 7 -46 15 -7 8 -10 15 -7 15 3 0 2 12 -2 28 -7 24 -4 29 28 44 22 11
29 17 18 18 -10 0 -15 5 -12 11 4 5 19 9 33 7 22 -2 28 2 30 20 2 12 10 22 18
22 17 0 19 -36 2 -43 -7 -3 8 -6 35 -6 33 -1 47 -5 47 -15 0 -7 10 -13 23 -13
17 0 27 9 39 38 l16 39 -41 11 c-23 6 -71 13 -107 15 -56 4 -69 1 -88 -16z
m184 -31 c3 -6 1 -16 -4 -21 -13 -13 -45 8 -36 23 7 12 31 11 40 -2z"/>
<path d="M2574 2125 c-4 -9 -2 -21 3 -26 14 -14 45 1 41 20 -4 22 -37 26 -44
6z"/>
<path d="M4582 2090 c-10 -17 -10 -20 3 -20 8 0 15 9 15 20 0 11 -1 20 -3 20
-1 0 -8 -9 -15 -20z"/>
<path d="M2365 2090 c-4 -6 15 -43 42 -83 35 -53 49 -67 51 -53 2 11 -3 23
-12 28 -11 6 -16 23 -16 50 0 27 -6 45 -17 54 -22 16 -40 18 -48 4z"/>
<path d="M2607 1929 c-3 -13 -1 -19 6 -16 15 5 22 37 9 37 -5 0 -12 -9 -15
-21z"/>
<path d="M11814 1935 c22 -17 40 -20 32 -6 -3 5 -16 11 -28 14 -22 6 -22 5 -4
-8z"/>
<path d="M8719 1902 c14 -26 30 -38 75 -52 22 -7 58 -30 80 -51 22 -22 49 -39
61 -39 17 0 15 5 -15 30 -35 30 -192 130 -204 130 -4 0 -2 -8 3 -18z"/>
<path d="M2271 1838 c29 -54 58 -82 109 -105 46 -21 66 -24 118 -20 35 3 69
10 75 17 9 9 1 11 -38 6 -53 -7 -83 4 -70 24 5 8 21 10 46 6 24 -4 39 -2 39 4
0 6 -29 10 -69 10 -64 0 -69 -1 -64 -20 6 -24 -18 -28 -36 -6 -9 11 -9 15 1
19 7 3 -3 6 -23 6 -31 1 -40 7 -63 41 -28 43 -44 54 -25 18z"/>
<path d="M2560 1800 c-13 -8 -12 -10 3 -10 9 0 17 5 17 10 0 12 -1 12 -20 0z"/>
<path d="M10606 1800 c-17 -6 -15 -8 15 -20 18 -8 38 -16 42 -18 5 -2 4 5 -3
17 -6 12 -15 19 -20 16 -4 -3 -10 -1 -12 4 -1 4 -12 5 -22 1z"/>
<path d="M2588 1773 c7 -3 16 -2 19 1 4 3 -2 6 -13 5 -11 0 -14 -3 -6 -6z"/>
<path d="M2633 1766 c-17 -19 -3 -29 16 -12 9 8 30 16 46 19 25 3 23 4 -10 5
-22 1 -45 -5 -52 -12z"/>
<path d="M3910 1770 c8 -5 15 -13 16 -17 0 -4 3 -15 7 -23 7 -20 17 -83 24
-155 3 -33 7 -62 10 -65 3 -3 47 -7 99 -8 l94 -4 0 -233 c0 -129 4 -236 8
-239 5 -3 18 25 30 62 22 68 30 108 77 382 27 159 48 261 60 293 7 16 -8 17
-216 17 -145 0 -219 -4 -209 -10z"/>
<path d="M11657 1731 c-10 -4 -17 -9 -16 -11 1 -3 -3 -15 -9 -27 -10 -19 -9
-23 9 -28 29 -10 60 22 53 53 -7 24 -9 24 -37 13z"/>
<path d="M10335 1695 c-17 -20 -38 -45 -48 -56 -10 -11 -17 -22 -15 -24 2 -2
25 4 53 14 36 13 51 24 56 42 19 68 0 78 -46 24z"/>
<path d="M7750 1713 c-8 -3 -26 -10 -40 -15 -19 -7 -21 -11 -10 -18 11 -7 11
-11 1 -23 -19 -24 5 -31 34 -10 27 20 33 36 10 27 -17 -7 -21 11 -5 21 16 10
40 -15 40 -41 0 -15 6 -24 15 -24 17 0 20 16 5 25 -12 7 -14 45 -2 45 4 0 13
-13 20 -30 8 -16 18 -30 23 -30 6 0 7 5 4 10 -9 14 23 62 35 55 15 -10 12 -37
-7 -50 -14 -10 -9 -14 35 -24 27 -7 59 -19 69 -26 21 -16 37 -19 29 -6 -9 14
29 55 42 47 19 -11 14 -44 -9 -59 -13 -10 -16 -17 -10 -22 6 -3 18 1 27 9 8 9
23 20 32 26 15 9 12 15 -25 48 -54 50 -124 72 -222 71 -42 0 -83 -3 -91 -6z
m241 -43 c22 0 25 -13 5 -29 -11 -9 -35 -10 -64 -2 -1 1 5 13 15 27 9 15 19
22 21 15 2 -6 12 -11 23 -11z"/>
<path d="M7656 1667 c-16 -12 -16 -14 3 -31 22 -20 43 -14 24 5 -6 6 -9 18 -6
25 6 17 2 18 -21 1z"/>
<path d="M10580 1640 c0 -5 7 -10 16 -10 8 0 12 5 9 10 -3 6 -10 10 -16 10 -5
0 -9 -4 -9 -10z"/>
<path d="M7595 1620 c-15 -16 -15 -20 -3 -20 8 0 25 -9 38 -20 29 -25 32 -25
20 3 -6 12 -13 30 -16 40 -8 22 -17 22 -39 -3z"/>
<path d="M7708 1614 c-16 -8 -28 -19 -28 -25 0 -8 53 17 79 38 13 10 -28 0
-51 -13z"/>
<path d="M8025 1621 c-6 -11 9 -23 19 -14 9 9 7 23 -3 23 -6 0 -12 -4 -16 -9z"/>
<path d="M7750 1590 c-8 -5 -10 -10 -5 -10 6 0 17 5 25 10 8 5 11 10 5 10 -5
0 -17 -5 -25 -10z"/>
<path d="M7548 1543 c-56 -126 -19 -301 84 -400 88 -84 238 -116 350 -74 75
29 149 99 183 174 22 48 27 72 26 136 -1 99 -21 152 -53 144 -31 -8 -48 -22
-48 -42 0 -10 3 -12 8 -5 8 12 62 25 62 15 0 -3 -14 -14 -30 -23 -17 -9 -30
-25 -30 -35 0 -13 3 -14 12 -5 7 7 25 12 41 12 24 0 28 -4 25 -22 -2 -17 -11
-24 -30 -26 -17 -2 -28 2 -28 8 0 7 -6 10 -14 7 -9 -4 -17 3 -21 16 -6 22 -6
22 -17 -3 -6 -15 -12 -20 -15 -12 -6 17 -23 15 -23 -3 0 -8 -11 -22 -25 -31
-19 -12 -24 -22 -19 -37 6 -18 3 -19 -30 -14 -31 5 -36 3 -36 -13 0 -11 -11
-27 -25 -36 -13 -9 -27 -24 -30 -33 -3 -10 -15 -23 -28 -30 -21 -11 -21 -11 3
-5 14 4 42 25 62 47 28 29 42 38 55 32 10 -4 28 -10 41 -13 36 -7 22 -34 -38
-69 -30 -18 -46 -33 -36 -33 25 0 56 18 93 53 18 17 36 27 40 23 9 -9 -47 -59
-90 -82 -81 -43 -204 -22 -275 47 -52 51 -69 83 -77 140 -6 40 -5 42 8 26 9
-11 18 -14 21 -8 4 6 12 8 19 6 7 -2 24 -6 39 -9 16 -4 34 -18 42 -33 l14 -28
0 38 c0 31 -4 40 -24 47 -25 10 -32 26 -13 32 9 3 9 10 -1 27 -6 13 -10 34 -7
47 3 18 0 24 -14 24 -11 0 -19 4 -19 10 0 5 -7 7 -15 4 -8 -4 -15 -1 -15 6 0
7 -7 10 -15 7 -8 -4 -22 4 -34 18 -10 14 -22 25 -26 25 -3 0 -15 -21 -27 -47z
m49 -53 c4 -23 -12 -41 -30 -34 -17 6 -23 35 -10 48 11 11 38 2 40 -14z m-4
-129 c4 -19 6 -42 4 -52 -3 -10 2 -20 10 -23 12 -5 13 -9 3 -21 -11 -13 -10
-14 2 -10 8 3 23 -6 35 -23 l21 -29 -20 -18 c-21 -17 -22 -17 -35 1 -43 56
-78 164 -54 164 6 0 11 7 11 15 0 8 -4 15 -10 15 -5 0 -10 -5 -10 -12 0 -6 -3
-9 -6 -5 -4 3 -4 13 0 22 10 27 39 13 49 -24z m563 -67 c-7 -19 -35 -18 -43 2
-4 11 1 22 12 31 16 11 20 11 28 -3 5 -8 6 -22 3 -30z m-61 -94 c-5 -43 -14
-53 -32 -38 -14 11 -15 10 -9 -8 8 -25 -18 -46 -87 -69 -40 -13 -48 -13 -76 1
-25 12 -35 13 -46 4 -9 -7 -22 -9 -32 -5 -10 5 -24 7 -30 6 -7 -1 -13 7 -13
18 0 22 15 36 24 23 8 -13 143 -15 151 -2 3 6 11 7 17 4 6 -4 14 0 19 7 7 11
11 10 23 -6 8 -11 18 -16 23 -11 4 5 2 11 -4 13 -20 7 -16 18 20 56 41 44 57
46 52 7z m-372 -36 c19 -7 23 -34 5 -52 -8 -8 -18 -6 -40 9 -23 17 -26 24 -17
40 6 11 16 18 22 15 7 -3 20 -9 30 -12z m152 -84 c3 -5 1 -10 -4 -10 -6 0 -11
5 -11 10 0 6 2 10 4 10 3 0 8 -4 11 -10z"/>
<path d="M8104 1565 c-2 -27 3 -30 25 -16 12 8 12 12 2 25 -19 22 -26 20 -27
-9z"/>
<path d="M7730 1545 c0 -8 5 -15 10 -15 6 0 10 -13 10 -29 0 -38 19 -52 99
-74 119 -32 117 -32 158 3 52 45 57 56 38 83 l-16 22 7 -27 c4 -20 2 -28 -8
-28 -7 0 -19 -9 -26 -20 -16 -26 -47 -25 -152 9 -82 26 -85 28 -88 59 -3 32
-32 48 -32 17z"/>
<path d="M7878 1553 c-22 -6 -23 -17 -2 -37 18 -18 30 -20 39 -6 7 12 -3 51
-13 49 -4 -1 -15 -3 -24 -6z"/>
<path d="M8061 1529 c9 -17 13 -19 20 -8 5 8 3 16 -4 21 -22 14 -28 8 -16 -13z"/>
<path d="M3166 1499 c-31 -9 -63 -40 -97 -95 -26 -43 -65 -328 -50 -376 17
-57 74 -189 79 -183 3 2 -2 24 -12 47 -25 67 -36 184 -25 264 12 90 25 126 68
199 52 86 74 132 70 143 -2 5 -16 5 -33 1z m-12 -77 c3 -5 -1 -9 -9 -9 -8 0
-12 4 -9 9 3 4 7 8 9 8 2 0 6 -4 9 -8z"/>
<path d="M8222 1410 c0 -14 2 -19 5 -12 2 6 2 18 0 25 -3 6 -5 1 -5 -13z"/>
<path d="M3943 1320 c0 -25 2 -35 4 -22 2 12 2 32 0 45 -2 12 -4 2 -4 -23z"/>
<path d="M8208 1320 c-3 -19 -9 -44 -12 -55 -4 -11 1 -5 9 14 9 18 15 43 13
55 -3 15 -5 11 -10 -14z"/>
<path d="M7757 1283 c-10 -16 13 -65 33 -71 12 -4 12 -2 -2 14 -9 10 -18 30
-20 44 -2 17 -6 21 -11 13z"/>
<path d="M1940 1176 c0 -2 7 -7 16 -10 8 -3 12 -2 9 4 -6 10 -25 14 -25 6z"/>
<path d="M8110 1128 c-26 -30 -36 -46 -23 -40 24 13 73 69 73 83 0 13 -1 12
-50 -43z"/>
<path d="M7985 1044 c-23 -9 -76 -16 -125 -16 -84 -2 -80 -15 5 -17 45 -1 143
23 158 38 14 14 11 13 -38 -5z"/>
<path d="M8376 849 c-7 -44 20 -179 35 -179 12 0 11 55 -2 110 -6 25 -12 57
-13 72 -3 44 -13 42 -20 -3z"/>
<path d="M10042 823 c-11 -21 -44 -174 -38 -180 2 -2 15 40 30 93 26 92 29
127 8 87z"/>
<path d="M3106 726 c-4 -16 -7 -63 -6 -105 0 -42 -5 -98 -11 -126 -8 -36 -9
-57 -1 -80 13 -36 47 -240 57 -342 l8 -73 362 0 362 0 15 38 c16 39 56 168 89
285 24 89 52 278 42 288 -4 4 -42 1 -83 -6 -41 -7 -178 -32 -305 -55 -243 -45
-435 -61 -472 -41 -18 9 -22 24 -28 108 -4 54 -11 107 -15 117 -6 18 -8 17
-14 -8z"/>
<path d="M8520 701 c0 -28 17 -35 29 -12 15 27 14 31 -9 31 -13 0 -20 -7 -20
-19z"/>
<path d="M4008 653 c6 -2 18 -2 25 0 6 3 1 5 -13 5 -14 0 -19 -2 -12 -5z"/>
<path d="M8465 609 c-10 -18 -22 -29 -30 -25 -17 6 -26 -5 -64 -78 -20 -36
-31 -73 -31 -98 0 -47 35 -134 67 -167 13 -13 23 -33 24 -45 1 -29 4 -42 28
-108 12 -32 21 -64 21 -73 0 -10 10 -15 29 -15 28 0 28 0 32 73 7 103 4 243
-6 306 -7 47 -10 52 -21 37 -12 -17 -13 -17 -23 1 -5 11 -8 44 -5 74 2 30 6
75 9 102 4 54 -7 61 -30 16z"/>
<path d="M8410 620 c0 -5 5 -10 10 -10 6 0 10 5 10 10 0 6 -4 10 -10 10 -5 0
-10 -4 -10 -10z"/>
<path d="M9991 614 c0 -11 3 -14 6 -6 3 7 2 16 -1 19 -3 4 -6 -2 -5 -13z"/>
<path d="M8520 554 c0 -10 -3 -29 -6 -41 -5 -17 -2 -23 10 -23 14 0 16 6 10
38 -8 42 -14 54 -14 26z"/>
<path d="M8510 465 c0 -8 5 -15 10 -15 6 0 10 7 10 15 0 8 -4 15 -10 15 -5 0
-10 -7 -10 -15z"/>
<path d="M3046 407 c-3 -13 -1 -36 3 -52 9 -31 10 -28 16 38 4 41 -9 51 -19
14z"/>
<path d="M12530 80 c-12 -8 -8 -16 23 -45 47 -43 58 -44 47 -4 -16 54 -38 70
-70 49z"/>
</g>
</svg>
