<?xml version="1.0" standalone="no"?>
<!DOCTYPE svg PUBLIC "-//W3C//DTD SVG 20010904//EN"
 "http://www.w3.org/TR/2001/REC-SVG-20010904/DTD/svg10.dtd">
<svg version="1.0" xmlns="http://www.w3.org/2000/svg"
 width="1280.000000pt" height="720.000000pt" viewBox="0 0 1280.000000 720.000000"
 preserveAspectRatio="xMidYMid meet">
<metadata>
Created by potrace 1.16, written by Peter Selinger 2001-2019
</metadata>
<g transform="translate(0.000000,720.000000) scale(0.100000,-0.100000)"
fill="#000000" stroke="none">
<path d="M0 3600 l0 -3600 2726 0 c2393 0 2725 2 2721 15 -4 8 -2 17 3 20 6 4
10 15 10 25 0 25 17 35 35 20 16 -13 21 -35 6 -26 -5 3 -14 -1 -21 -10 -12
-13 -10 -14 16 -9 51 11 59 10 59 -5 0 -25 17 -30 93 -29 48 1 71 6 69 13 -2
6 -13 9 -23 8 -15 -3 -14 2 10 27 17 17 32 31 35 31 3 0 0 -5 -6 -11 -8 -8 -8
-19 0 -40 13 -33 37 -39 37 -9 0 20 5 21 68 24 9 1 20 6 24 11 7 9 13 -26 9
-48 -1 -5 3 -6 9 -2 6 3 8 10 5 15 -7 12 5 41 15 35 5 -3 12 5 16 17 4 12 24
40 46 62 22 22 36 46 33 54 -3 7 -5 18 -5 23 0 6 -8 5 -20 -1 -11 -6 -20 -21
-20 -33 0 -17 -2 -19 -9 -8 -10 15 -8 78 3 88 4 4 38 7 77 7 l71 1 -4 32 c-2
17 -1 30 2 28 10 -6 81 98 87 127 3 15 9 28 14 28 5 0 9 7 9 16 0 8 -5 12 -10
9 -6 -3 -13 1 -16 10 -9 24 25 57 52 51 13 -4 26 -2 29 4 10 16 22 11 28 -11
3 -12 -1 -32 -10 -45 -8 -13 -13 -24 -10 -24 6 0 57 77 57 87 0 4 -7 -2 -15
-13 -14 -19 -14 -19 -15 3 0 14 8 24 23 28 12 4 33 17 46 29 l23 21 -6 -25
c-6 -19 -5 -21 3 -10 13 19 4 51 -21 68 -10 7 -16 18 -13 23 3 5 -2 6 -11 2
-13 -5 -15 -3 -9 7 5 8 4 11 -3 6 -6 -4 -23 -4 -38 0 -26 7 -26 7 20 35 45 28
46 30 46 79 0 39 4 50 16 50 16 0 44 56 44 89 0 11 -7 26 -15 35 -9 9 -11 17
-5 21 16 10 12 28 -5 22 -17 -7 -32 12 -18 22 13 8 24 41 14 41 -4 0 -6 11 -3
25 3 16 -2 33 -12 44 -15 17 -15 19 -1 25 9 3 14 2 11 -3 -3 -5 0 -11 8 -14
19 -8 49 38 41 63 -5 15 -25 31 -45 34 -14 2 -53 47 -46 53 3 4 -4 13 -16 20
l-23 12 23 1 c36 0 62 -18 62 -43 0 -33 18 -47 52 -40 28 5 29 4 22 -22 -4
-17 -3 -26 3 -22 5 3 10 -10 10 -29 1 -21 -3 -32 -9 -27 -8 4 -9 -10 -4 -44 6
-47 5 -50 -19 -61 -25 -12 -27 -35 -2 -27 7 2 24 6 39 9 29 7 52 53 37 77 -15
25 -10 34 22 36 60 4 82 46 58 110 -8 22 -7 30 5 39 9 6 16 17 16 23 0 7 3 10
8 7 4 -2 6 13 4 35 -3 31 -1 39 12 39 9 0 16 5 16 10 0 6 -6 10 -12 10 -7 0
-1 10 12 23 23 21 32 23 102 19 87 -5 108 4 108 47 0 34 -7 42 -53 65 -31 16
-40 17 -47 7 -10 -17 -19 8 -20 54 -2 70 -5 100 -13 106 -4 3 -9 24 -12 48 -3
38 -2 41 16 36 28 -9 23 2 -8 19 -20 11 -23 15 -10 16 15 0 22 11 18 33 -1 5
12 14 29 20 17 6 28 17 26 23 -5 12 28 44 45 44 7 0 7 -6 -2 -17 -12 -14 -12
-15 -1 -9 11 7 12 4 3 -13 -8 -15 -9 -21 -1 -21 6 0 8 -6 4 -12 -4 -7 5 -2 19
11 22 20 27 21 27 8 0 -9 -4 -18 -10 -22 -5 -3 -19 -20 -31 -38 -15 -21 -8
-16 23 16 25 27 45 54 45 60 -1 47 5 66 22 72 11 3 22 14 25 23 6 19 45 46 53
38 3 -3 0 -14 -8 -23 -7 -10 -9 -15 -5 -11 5 4 15 3 22 -3 7 -6 18 -8 25 -4 7
5 8 10 1 14 -6 3 -14 19 -17 34 -6 21 -4 27 9 27 9 0 16 4 16 9 0 5 9 11 20
14 11 3 20 10 20 16 0 9 -6 9 -21 0 -20 -10 -21 -9 -15 15 5 19 2 26 -8 26 -7
0 -17 12 -21 27 -3 15 -11 30 -16 33 -5 3 -13 34 -17 68 -10 68 0 89 38 79 12
-3 20 0 20 8 0 14 22 25 51 25 13 0 19 7 19 21 0 17 -5 20 -25 17 -19 -4 -23
-2 -15 7 7 8 1 10 -22 7 -31 -5 -32 -4 -14 13 14 14 15 20 4 26 -11 7 -11 9 0
9 26 0 47 33 47 72 0 29 3 37 13 33 11 -4 13 2 10 25 -6 40 13 39 46 -2 21
-27 25 -29 25 -13 -1 41 25 145 36 145 8 0 11 18 10 54 -1 43 1 52 11 42 47
-41 54 -44 54 -21 0 22 19 18 28 -6 8 -21 9 -21 40 6 17 14 31 32 29 38 -1 7
4 11 11 9 6 -1 12 5 12 13 0 8 5 15 12 15 6 0 3 7 -8 15 -12 9 -14 14 -6 15 7
0 10 5 7 10 -5 8 -12 7 -23 -2 -13 -11 -15 -10 -9 5 4 11 3 16 -3 12 -6 -3
-10 -13 -10 -21 0 -8 -4 -14 -10 -14 -16 0 -12 40 5 46 30 12 2 25 -37 19 -38
-7 -39 -6 -27 13 7 12 16 19 20 16 4 -2 9 1 11 7 9 28 108 -48 108 -82 0 -19
37 -59 53 -59 5 0 3 8 -4 17 -10 11 -10 14 -1 9 7 -4 12 -2 12 6 0 7 14 21 30
30 21 12 28 22 23 34 -4 12 -3 15 5 10 7 -4 12 -14 12 -22 0 -8 5 -12 10 -9 6
4 8 11 4 16 -3 6 2 17 12 25 11 9 13 13 6 9 -19 -10 -7 47 13 57 8 5 15 17 14
26 0 14 -2 13 -9 -3 -7 -16 -9 -13 -9 18 -1 20 -5 37 -11 37 -5 0 -7 -7 -4
-15 4 -8 1 -15 -5 -15 -6 0 -11 7 -11 16 0 8 -7 22 -15 31 -8 8 -12 19 -9 25
5 7 0 9 -14 6 -12 -4 -22 -2 -22 3 0 5 0 12 0 17 0 4 5 7 11 7 6 0 18 9 26 20
15 19 15 19 9 -7 -6 -25 -4 -28 18 -26 20 2 23 5 14 16 -9 11 -7 11 15 1 21
-10 24 -15 16 -26 -9 -11 -8 -12 5 -7 9 3 19 18 22 33 11 51 15 58 23 37 7
-19 8 -19 13 2 4 12 2 38 -3 57 -12 43 6 152 28 177 14 15 14 20 2 34 -13 16
-12 16 10 5 19 -10 25 -10 31 -1 4 7 12 10 18 6 15 -9 92 4 92 16 0 5 -5 6
-10 3 -6 -3 -13 1 -16 9 -3 8 -14 18 -25 21 -10 4 -19 11 -19 16 0 6 9 7 20 4
20 -6 21 -6 5 31 -19 46 -15 51 15 19 13 -14 28 -25 33 -25 4 0 -5 14 -22 31
-46 45 -38 60 17 31 12 -7 22 -9 22 -5 0 10 -42 38 -53 35 -5 -1 -6 2 -3 7 4
5 -4 17 -16 25 l-22 16 22 0 c12 0 22 -4 22 -10 0 -5 8 -10 19 -10 10 0 24 -7
31 -15 20 -24 27 -18 33 26 7 50 10 53 39 39 18 -9 16 -6 -7 14 l-30 25 43 1
c34 0 42 3 42 19 0 14 6 18 25 15 20 -2 25 2 23 14 -1 9 2 24 7 32 5 8 10 27
10 42 1 31 47 74 67 62 10 -6 10 -4 2 7 -16 21 -25 49 -14 49 5 0 12 -9 15
-20 12 -39 22 -19 28 57 4 58 2 81 -9 97 l-14 20 0 -21 c0 -30 -45 -79 -53
-59 -4 9 -2 18 3 21 5 3 7 12 3 20 -3 9 0 21 6 29 6 7 8 16 4 19 -3 4 0 7 8 7
12 0 12 2 -1 10 -8 5 -11 12 -7 16 4 4 16 -1 26 -10 19 -18 41 -15 41 5 0 20
30 41 48 34 30 -12 71 -14 77 -5 4 6 17 4 34 -4 24 -13 27 -13 29 2 4 38 9 50
26 67 12 13 14 21 6 29 -8 8 -13 7 -20 -4 -6 -10 -8 -3 -7 23 2 29 7 39 29 48
14 6 28 19 31 29 5 18 -10 32 -95 84 -32 19 -39 43 -9 26 32 -17 46 -12 26 10
-9 10 -20 18 -24 17 -3 0 -16 4 -29 11 -12 7 -31 10 -41 7 -20 -6 -35 -44 -26
-67 3 -7 -10 -31 -29 -53 -31 -35 -37 -38 -49 -25 -7 8 -21 41 -31 72 -20 67
-32 79 -46 43 -16 -43 -11 -69 20 -95 32 -26 42 -67 14 -56 -12 5 -14 1 -9
-17 3 -12 3 -17 -2 -12 -8 11 -52 15 -51 6 0 -3 0 -14 -1 -23 -1 -21 -31 -13
-31 9 0 8 -4 11 -10 8 -10 -6 -14 6 -11 36 1 9 -5 19 -14 23 -8 3 -20 17 -25
32 -6 14 -19 28 -31 31 -12 4 -18 11 -15 20 3 8 6 16 6 18 0 2 9 1 20 -2 21
-5 28 11 10 22 -5 3 -10 14 -10 23 0 12 3 13 12 4 7 -7 17 -8 29 -1 10 5 45
11 78 12 32 1 57 6 54 10 -3 5 4 11 16 14 17 4 18 7 6 19 -7 8 -20 14 -27 14
-10 0 -13 10 -10 36 4 30 2 35 -14 32 -11 -2 -29 -18 -40 -37 -21 -34 -22 -34
-33 -13 -6 12 -8 22 -4 22 4 0 2 5 -5 12 -9 9 -6 18 15 40 15 15 28 34 29 41
1 6 3 17 4 22 5 23 -1 37 -14 32 -10 -4 -13 -1 -10 7 5 13 46 36 65 36 14 0
39 -26 39 -39 0 -6 7 -11 15 -11 19 0 55 -36 55 -55 0 -8 5 -15 11 -15 6 0 9
-6 6 -14 -8 -21 14 -35 67 -42 45 -7 47 -8 41 -33 -6 -24 -6 -25 13 -8 27 25
36 21 50 -17 16 -44 37 -62 55 -47 10 7 16 8 24 0 14 -14 59 26 65 56 2 11 10
20 18 20 8 0 20 11 27 25 7 14 20 25 30 25 10 0 19 8 21 18 3 15 -1 17 -22 11
-30 -7 -67 3 -49 14 8 5 8 12 -2 25 -13 18 -14 18 -32 0 -11 -11 -25 -17 -31
-15 -6 2 -25 -6 -41 -17 -31 -22 -61 -28 -61 -11 0 6 5 10 11 10 13 0 60 36
54 42 -2 2 6 10 18 17 20 13 21 13 8 -2 -12 -15 -11 -17 7 -17 17 0 20 5 16
26 -3 18 -1 23 7 18 9 -5 11 3 6 30 -3 21 -2 34 3 31 6 -3 7 1 4 9 -3 9 -10
16 -16 16 -5 0 -6 -4 -3 -10 3 -5 1 -10 -5 -10 -6 0 -10 8 -8 18 2 10 12 17
26 16 16 0 22 5 22 20 0 17 2 18 10 6 8 -13 10 -13 10 -1 0 11 4 9 15 -5 14
-18 14 -18 15 8 0 15 -4 30 -10 33 -20 12 -9 22 20 19 34 -4 37 2 15 32 -8 12
-11 24 -8 28 3 3 1 6 -5 6 -7 0 -12 9 -12 20 0 11 -5 20 -11 20 -5 0 -7 5 -4
11 5 7 13 5 24 -5 18 -17 48 -20 75 -10 13 5 12 9 -7 25 -19 16 -20 18 -4 19
10 0 15 4 12 10 -3 6 1 7 9 4 9 -3 16 -1 16 5 0 6 6 11 14 11 8 0 18 5 22 12
5 8 2 9 -12 4 -10 -4 -31 -10 -46 -13 -24 -5 -26 -3 -21 16 4 15 13 22 27 20
58 -4 66 0 56 27 -13 33 -13 34 4 28 22 -9 27 46 6 65 -21 18 -36 61 -22 61 5
0 21 -9 36 -21 l27 -21 -17 41 c-22 55 -14 60 21 15 l28 -37 17 23 17 22 16
-34 16 -33 -3 42 c-2 30 1 44 12 48 21 8 28 -3 16 -23 -6 -9 -8 -26 -4 -37 6
-16 8 -12 14 18 6 30 11 37 30 37 27 0 46 15 70 54 l18 28 19 -42 c22 -49 24
-67 7 -72 -17 -6 -19 -40 -2 -36 8 2 14 5 13 8 -1 3 3 15 9 27 10 18 8 31 -8
73 -24 61 -25 76 -5 114 8 16 22 53 31 83 8 29 19 51 24 48 21 -13 68 99 50
120 -5 6 -6 24 -1 40 7 28 8 29 19 10 16 -28 15 -4 -3 38 -8 19 -11 38 -7 41
3 4 0 11 -8 16 -13 8 -12 10 3 10 9 0 17 -4 17 -9 0 -5 12 -8 26 -5 15 3 23 1
20 -5 -4 -5 1 -14 10 -19 19 -11 66 -3 58 9 -3 5 4 9 15 9 11 0 23 5 27 11 5
9 -1 10 -20 5 -36 -9 -33 10 4 29 17 9 30 20 30 26 0 5 -10 3 -22 -5 -33 -24
-41 -19 -16 9 12 14 28 23 35 21 10 -4 11 -1 3 13 -13 25 -71 73 -78 66 -4 -3
-1 -10 7 -14 10 -7 9 -9 -3 -14 -8 -3 -18 -2 -21 3 -11 18 -23 10 -30 -17 -9
-36 -33 -63 -57 -63 -10 0 -18 -7 -18 -17 -1 -27 -27 -56 -45 -50 -17 7 -21
52 -5 62 6 3 10 17 10 31 0 17 5 24 20 24 20 0 40 27 40 54 0 20 -24 21 -44 1
-8 -8 -21 -15 -28 -15 -10 0 -9 -3 2 -10 8 -5 12 -11 9 -14 -3 -3 -14 1 -25 9
-19 15 -19 15 0 30 11 8 26 15 33 15 25 0 64 33 83 69 19 37 68 61 125 61 14
0 25 5 25 11 0 6 7 17 15 25 11 11 12 20 5 34 -8 15 -4 25 21 49 34 34 49 39
49 16 0 -8 4 -15 9 -15 5 0 8 16 7 34 -3 35 16 57 30 35 3 -6 12 -8 19 -5 8 3
16 0 19 -7 5 -9 7 -9 12 1 3 6 12 12 20 12 7 0 28 9 46 21 35 22 37 22 -59 -7
-34 -10 -44 -10 -60 1 -17 14 -17 14 7 15 l25 1 -23 10 c-13 5 -29 6 -34 2 -7
-4 -8 -1 -3 7 6 9 4 11 -4 6 -7 -5 -10 -14 -7 -21 3 -8 -2 -19 -10 -26 -12
-10 -13 -9 -8 5 6 16 -18 22 -70 18 -13 -2 -16 2 -12 14 3 8 6 20 6 25 0 14
104 59 113 49 5 -4 4 -17 -2 -29 -10 -18 -8 -23 13 -32 33 -16 79 3 95 38 11
24 10 25 -4 13 -13 -11 -15 -10 -9 3 4 11 -1 16 -17 19 -26 3 -39 28 -15 28
18 0 22 25 4 36 -6 4 -8 3 -4 -4 3 -6 2 -13 -3 -16 -11 -7 -8 20 3 31 4 4 11
8 16 8 5 0 21 18 35 39 22 33 26 46 20 75 -11 58 -6 106 16 150 11 22 22 41
25 41 2 0 0 -9 -6 -19 -20 -39 -6 -112 19 -97 6 4 9 11 6 16 -3 4 1 8 8 7 6 0
28 1 47 1 l35 2 -30 20 c-36 24 -35 24 33 6 28 -8 50 -11 47 -6 -3 4 5 10 16
13 16 4 19 11 14 26 -4 12 -2 21 4 21 6 0 11 -7 11 -15 0 -9 6 -12 15 -9 14 6
13 8 -2 20 -10 7 -26 14 -36 14 -10 0 -15 5 -11 11 3 6 17 8 31 4 20 -5 22 -3
12 8 -9 9 -43 14 -110 16 -84 1 -99 -1 -109 -16 -11 -17 -11 -17 -6 0 4 14 -1
17 -33 17 -29 0 -40 -5 -43 -18 -7 -25 -55 -27 -70 -2 -12 19 -24 20 -210 20
-148 0 -198 -3 -201 -12 -4 -10 -8 -10 -15 1 -8 11 -10 11 -15 0 -4 -10 -6
-10 -6 -2 -1 10 -927 13 -4531 13 l-4530 0 0 -3600z m9787 3584 c-3 -3 -12 -4
-19 -1 -8 3 -5 6 6 6 11 1 17 -2 13 -5z m-1012 -44 c-2 -27 -15 -38 -15 -13 0
16 8 33 15 33 1 0 1 -9 0 -20z m1040 10 c3 -6 -1 -7 -9 -4 -18 7 -21 14 -7 14
6 0 13 -4 16 -10z m-835 -87 c17 -39 18 -54 10 -110 -5 -35 -6 -71 -3 -79 9
-24 -47 -76 -74 -69 -21 5 -23 2 -23 -29 0 -19 -4 -37 -9 -41 -6 -3 -8 13 -6
37 l3 43 -33 -38 c-22 -25 -31 -45 -28 -57 3 -11 0 -20 -6 -20 -6 0 -8 -8 -4
-17 6 -16 5 -17 -12 -3 -17 14 -17 13 -10 -10 10 -32 10 -31 1 -62 -5 -16 -12
-26 -16 -23 -5 3 -11 1 -15 -5 -3 -5 -13 -10 -21 -10 -12 0 -14 17 -12 94 2
52 6 92 11 89 4 -2 7 3 7 12 0 9 4 13 10 10 6 -3 7 1 4 9 -9 23 32 21 45 -1 6
-10 11 -14 11 -10 0 4 -8 20 -17 35 l-17 27 22 -19 22 -19 1 44 c1 24 1 49 0
56 -2 19 16 24 29 8 11 -13 10 -20 0 -41 -10 -18 -11 -27 -3 -35 15 -15 42 10
35 33 -2 10 2 20 12 24 27 10 20 37 -9 32 -26 -5 -35 6 -12 15 6 3 2 6 -10 6
-14 1 -23 7 -23 17 0 8 -4 12 -10 9 -5 -3 -10 -1 -10 5 0 6 7 13 15 16 8 4 15
10 15 16 0 14 -43 -1 -57 -20 -18 -23 -16 1 4 42 17 37 46 54 103 58 30 3 35
6 32 27 -2 20 0 22 13 11 8 -7 24 -33 35 -57z m854 59 c3 -5 -1 -9 -9 -9 -8 0
-12 4 -9 9 3 4 7 8 9 8 2 0 6 -4 9 -8z m-1181 -52 c-15 -9 -30 -13 -32 -8 -5
13 31 37 47 31 9 -4 4 -11 -15 -23z m89 8 c-7 -7 -12 -8 -12 -2 0 14 12 26 19
19 2 -3 -1 -11 -7 -17z m-2492 -8 c0 -5 -4 -10 -10 -10 -5 0 -10 5 -10 10 0 6
5 10 10 10 6 0 10 -4 10 -10z m30 0 c0 -5 -2 -10 -4 -10 -3 0 -8 5 -11 10 -3
6 -1 10 4 10 6 0 11 -4 11 -10z m3015 0 c3 -5 2 -10 -4 -10 -5 0 -13 5 -16 10
-3 6 -2 10 4 10 5 0 13 -4 16 -10z m-705 -15 c0 -8 -7 -15 -16 -15 -14 0 -14
3 -4 15 7 8 14 15 16 15 2 0 4 -7 4 -15z m733 -38 c7 6 12 -31 7 -52 -1 -5 -3
-26 -4 -46 -3 -49 -30 -89 -61 -89 -28 0 -41 16 -36 48 3 23 33 62 49 62 6 0
10 20 12 73 1 14 4 16 14 8 7 -6 16 -8 19 -4z m-1740 -47 c-8 -29 -24 -36 -19
-8 3 13 5 24 5 26 1 1 5 2 10 2 5 0 7 -9 4 -20z m1687 0 c0 -5 -5 -10 -11 -10
-5 0 -7 5 -4 10 3 6 8 10 11 10 2 0 4 -4 4 -10z m-900 -56 c0 -14 5 -34 11
-45 8 -16 7 -25 -3 -37 -8 -9 -20 -29 -28 -44 -25 -52 -68 -23 -56 37 3 11 5
26 5 33 1 7 14 12 31 12 17 0 30 5 30 11 0 6 -7 8 -16 5 -10 -4 -14 -2 -10 6
3 7 9 21 12 31 9 26 24 21 24 -9z m-1355 -14 c-3 -5 -10 -10 -16 -10 -5 0 -9
5 -9 10 0 6 7 10 16 10 8 0 12 -4 9 -10z m2169 -6 c4 -10 1 -14 -6 -12 -15 5
-23 28 -10 28 5 0 13 -7 16 -16z m-930 -46 c-2 -13 -2 -17 2 -10 3 6 10 12 15
12 5 0 4 -9 -3 -20 -12 -18 -14 -19 -25 -4 -6 9 -9 22 -6 30 8 23 22 16 17 -8z
m969 -27 c2 -14 10 -47 17 -73 10 -34 11 -53 3 -70 -9 -20 -12 -12 -23 57 -8
44 -15 74 -18 67 -2 -7 -7 -10 -12 -7 -5 3 -15 -1 -23 -9 -13 -13 -18 -11 -42
14 -23 25 -26 32 -15 45 15 18 40 20 40 3 0 -8 5 -6 11 4 14 25 56 4 62 -31z
m217 45 c0 -3 -4 -8 -10 -11 -5 -3 -10 -1 -10 4 0 6 5 11 10 11 6 0 10 -2 10
-4z m-1178 -122 c-4 -24 -5 -24 -23 -8 -25 22 -24 29 5 32 20 1 22 -2 18 -24z
m-2792 -88 c0 -2 -8 -10 -17 -17 -16 -13 -17 -12 -4 4 13 16 21 21 21 13z
m3230 -53 c0 -20 -3 -24 -11 -16 -7 7 -9 19 -6 27 10 24 17 19 17 -11z m382
-128 c-4 -5 -8 -2 -10 7 -2 9 -9 15 -15 12 -7 -2 -13 6 -13 20 l-2 25 23 -27
c13 -15 20 -31 17 -37z m-894 -29 c-1 -13 4 -31 11 -40 12 -15 12 -19 -1 -33
-14 -14 -16 -13 -21 3 -3 11 -4 30 -3 44 2 14 4 31 5 38 0 6 4 12 7 12 3 0 4
-11 2 -24z m-2123 4 c8 -13 -5 -13 -25 0 -13 8 -13 10 2 10 9 0 20 -4 23 -10z
m3035 -25 c0 -13 -4 -27 -10 -30 -5 -3 -15 -15 -21 -27 -8 -15 -8 -19 0 -14 6
4 11 3 11 -2 0 -14 -28 -23 -35 -12 -4 6 -12 10 -18 10 -7 0 -6 -4 3 -10 12
-8 9 -10 -11 -10 -15 0 -33 8 -40 17 -12 15 -12 16 3 10 12 -4 15 -2 11 9 -3
7 0 14 6 14 6 0 11 7 11 15 0 8 6 15 13 15 8 0 24 11 37 25 26 28 40 25 40
-10z m-1800 -29 c0 -14 -18 -5 -24 12 -3 9 -9 24 -12 32 -4 8 3 3 15 -12 11
-14 21 -29 21 -32z m-35 -7 c-5 -15 -4 -19 5 -14 7 4 5 -5 -4 -24 -17 -32 -28
-40 -25 -18 4 34 -2 47 -23 48 -21 1 -20 2 7 14 41 19 47 18 40 -6z m-759 -30
c3 -5 3 -9 1 -9 -7 0 -67 31 -67 35 0 7 60 -17 66 -26z m1016 -13 c7 4 8 2 4
-4 -5 -9 -13 -9 -27 -2 -11 6 -17 16 -13 22 4 7 10 5 16 -6 5 -9 14 -13 20
-10z m1066 -4 c3 -20 8 -23 28 -18 14 4 24 2 24 -4 0 -21 -54 -6 -66 17 -6 13
-13 20 -16 17 -3 -3 -9 0 -13 6 -5 8 1 11 16 8 16 -2 25 -11 27 -26z m-1438
-22 c12 -7 10 -9 -8 -7 -12 0 -22 5 -22 9 0 11 12 10 30 -2z m1866 -3 c7 -9
-11 -67 -22 -67 -17 0 -23 12 -28 50 -3 30 -2 31 23 25 14 -4 27 -7 27 -8z
m-162 -40 c-3 -24 -2 -27 4 -12 8 18 10 16 17 -13 4 -18 4 -36 1 -39 -3 -4 -1
-12 5 -19 7 -9 7 -19 -1 -33 -12 -23 -40 -29 -40 -8 -1 6 -9 -4 -20 -23 -18
-33 -19 -34 -20 -10 -1 23 -2 23 -10 5 -4 -11 -6 -30 -3 -41 2 -12 0 -25 -6
-28 -13 -9 -14 -3 -15 96 -1 42 2 74 7 71 4 -2 10 3 13 11 3 9 10 13 15 10 5
-3 9 6 9 20 0 16 6 26 15 26 8 0 15 7 15 16 0 8 4 12 10 9 5 -3 7 -20 4 -38z
m-277 27 c-3 -3 -12 -4 -19 -1 -8 3 -5 6 6 6 11 1 17 -2 13 -5z m-1437 -8 c0
-3 -4 -8 -10 -11 -5 -3 -10 -1 -10 4 0 6 5 11 10 11 6 0 10 -2 10 -4z m1464
-10 c-21 -15 -30 -14 -19 3 3 6 14 11 23 11 13 0 13 -2 -4 -14z m136 -16 c0
-11 -9 -24 -20 -30 -16 -9 -20 -8 -20 5 0 24 20 56 31 50 5 -4 9 -15 9 -25z
m-172 -15 c-3 -3 -9 2 -12 12 -6 14 -5 15 5 6 7 -7 10 -15 7 -18z m-1467 -9
c-7 -9 -7 -16 1 -24 7 -7 9 -12 4 -12 -11 0 -36 27 -36 38 0 12 21 21 33 15 4
-3 3 -10 -2 -17z m2207 4 c-11 -18 -28 -27 -28 -16 0 6 30 36 36 36 2 0 -1 -9
-8 -20z m12 -18 c0 -5 -7 -17 -16 -28 -8 -10 -13 -13 -9 -6 3 6 1 12 -4 12 -6
0 -11 -5 -11 -12 0 -6 -3 -8 -7 -4 -4 4 3 16 17 26 29 22 30 23 30 12z m-588
-26 c5 -9 7 -24 4 -31 -3 -8 -1 -17 5 -21 13 -8 3 -132 -12 -150 -22 -27 -94
-8 -83 21 5 11 2 13 -11 9 -15 -6 -16 -4 -5 17 7 13 30 47 51 76 40 53 49 78
27 70 -7 -2 -12 -12 -10 -22 2 -9 -1 -14 -7 -11 -6 4 -9 19 -8 34 2 33 33 37
49 8z m-712 -42 c14 -36 13 -67 -2 -61 -7 2 -12 14 -11 26 2 13 -3 21 -12 21
-8 0 -15 5 -15 10 0 6 5 10 11 10 5 0 7 5 4 10 -3 6 -1 10 5 10 6 0 15 -12 20
-26z m1019 -3 c8 -14 6 -23 -9 -36 -19 -17 -20 -17 -20 3 0 11 -3 27 -6 36 -9
23 23 20 35 -3z m-74 -91 c3 -6 -1 -7 -9 -4 -18 7 -21 14 -7 14 6 0 13 -4 16
-10z m-402 -17 c-5 -12 -2 -15 10 -10 9 3 17 2 17 -3 0 -6 -4 -10 -9 -10 -17
0 -20 -29 -6 -57 8 -15 17 -63 21 -105 l7 -77 -37 -6 c-20 -4 -34 -11 -31 -15
3 -5 1 -12 -5 -15 -6 -4 -10 -3 -9 2 3 19 -3 47 -8 35 -4 -10 -9 -9 -19 5 -13
17 -14 17 -8 1 4 -13 1 -18 -11 -18 -9 0 -14 -4 -10 -9 3 -5 1 -12 -4 -16 -6
-3 -8 -12 -5 -19 4 -9 -8 -21 -30 -31 -20 -10 -36 -21 -36 -26 0 -5 -7 -9 -15
-9 -8 0 -15 5 -15 10 0 6 -8 10 -17 11 -14 0 -13 2 5 9 12 5 22 16 22 24 0 9
14 18 35 22 20 3 34 8 31 11 -2 3 5 14 17 26 13 13 17 22 9 25 -7 2 -12 11
-11 20 0 11 2 12 6 5 9 -23 24 -13 21 13 -2 20 2 27 16 30 16 2 18 -2 13 -31
-5 -29 -3 -32 14 -28 10 3 19 12 19 20 0 8 -4 11 -10 8 -5 -3 -10 -1 -10 4 0
6 5 11 11 11 7 0 5 10 -5 25 -20 30 -31 103 -22 140 5 20 11 25 25 20 12 -3
21 0 25 10 3 8 8 15 10 15 3 0 2 -8 -1 -17z m-213 -77 c0 -2 -9 -6 -20 -9 -11
-3 -18 -1 -14 4 5 9 34 13 34 5z m374 -11 c-4 -8 -15 -15 -26 -15 -10 0 -17 4
-13 9 3 5 -3 12 -12 14 -10 3 -1 5 19 6 29 1 36 -2 32 -14z m-276 -32 c17 -13
32 -29 32 -36 0 -7 -5 -5 -10 4 -6 11 -18 15 -36 11 -23 -4 -26 -2 -21 12 4
10 2 16 -6 15 -24 -3 -35 1 -41 16 -8 22 40 9 82 -22z m-35 -97 c4 -10 1 -13
-8 -9 -8 3 -12 9 -9 14 7 12 11 11 17 -5z m-1211 -41 c3 -14 1 -28 -3 -31 -5
-3 -1 -16 7 -30 9 -13 14 -28 10 -32 -4 -3 -11 0 -15 7 -6 9 -11 10 -15 2 -4
-6 -2 -11 3 -11 6 0 11 -7 11 -16 0 -8 -4 -12 -10 -9 -6 3 -7 -1 -4 -9 4 -11
0 -16 -15 -16 -12 0 -21 4 -21 10 0 5 -7 7 -15 4 -21 -8 -19 13 2 25 14 7 15
12 5 23 -16 20 -5 29 27 23 14 -3 19 -2 11 2 -39 17 -43 45 -11 70 23 18 28
16 33 -12z m1755 -6 c31 -20 34 -25 32 -63 -2 -23 0 -47 4 -52 8 -14 -29 -49
-66 -63 -26 -10 -27 -9 -17 9 6 11 14 20 19 20 4 0 13 11 19 24 10 21 8 26 -8
31 -23 7 -25 26 -7 56 10 17 9 22 -5 30 -17 10 -25 29 -12 29 4 0 22 -10 41
-21z m-191 -36 c-11 -11 -19 6 -11 24 8 17 8 17 12 0 3 -10 2 -21 -1 -24z
m151 -14 c-16 -22 -16 -22 -14 -1 0 11 5 18 9 16 4 -3 8 0 8 7 0 7 3 10 6 6 3
-3 -1 -16 -9 -28z m-1994 6 c-3 -9 -8 -14 -10 -11 -3 3 -2 9 2 15 9 16 15 13
8 -4z m124 -37 c-3 -7 -5 -2 -5 12 0 14 2 19 5 13 2 -7 2 -19 0 -25z m1149
-21 c-7 13 10 28 17 16 3 -5 26 -8 51 -7 l46 1 -3 -81 c-3 -89 -33 -171 -79
-217 -13 -13 -37 -48 -53 -77 -30 -56 -48 -66 -19 -10 9 18 18 44 20 58 l3 25
-19 -25 -19 -25 6 42 c4 30 1 50 -11 67 -8 14 -12 27 -7 31 5 3 12 -1 15 -7 3
-7 3 -2 -1 12 -13 46 -3 170 14 170 16 0 22 22 11 45 -7 15 -4 14 12 -5 12
-14 19 -20 16 -13z m-1193 -38 c-6 -6 -9 -1 -7 13 3 33 6 36 11 14 3 -10 1
-22 -4 -27z m79 -11 c-27 -11 -32 -9 -32 11 0 17 3 18 25 8 21 -10 22 -13 7
-19z m1513 -65 c-10 -42 -69 -163 -79 -163 -5 0 -15 -8 -22 -17 -13 -17 -13
-17 -14 0 0 11 -5 15 -11 11 -7 -4 -10 -1 -7 7 3 8 12 14 21 14 9 0 17 5 18
10 1 6 10 16 21 24 14 9 17 16 9 24 -17 17 -13 31 4 17 24 -20 28 -6 5 15 -20
19 -20 19 12 52 39 40 52 42 43 6z m265 14 c0 -2 -9 -12 -20 -22 -24 -21 -27
-14 -4 9 15 15 24 20 24 13z m-1385 -167 c-3 -10 1 -30 10 -43 14 -22 14 -26
0 -37 -8 -7 -12 -16 -9 -21 3 -5 -2 -6 -10 -3 -9 3 -16 1 -16 -5 0 -14 -37
-15 -45 -1 -3 6 -1 10 6 10 6 0 1 9 -12 20 l-24 19 28 1 c26 0 27 1 13 16 -18
18 -21 34 -6 34 6 0 9 4 8 9 -2 4 8 18 22 29 21 17 26 18 33 6 5 -8 5 -23 2
-34z m655 -45 c-11 -34 -25 -45 -32 -25 -2 7 -10 6 -22 -3 -18 -13 -18 -14 5
-13 22 1 24 -3 22 -38 -2 -21 -7 -44 -12 -50 -6 -7 -8 -22 -4 -34 4 -16 0 -24
-19 -31 -13 -5 -30 -16 -37 -25 -17 -20 -35 -20 -51 -1 -10 12 -10 18 0 30 7
8 10 24 7 35 -3 11 1 27 9 34 19 19 18 40 -2 32 -23 -9 -6 14 20 25 19 8 19 9
1 5 -11 -2 -29 -7 -40 -11 -12 -5 -5 7 19 29 21 20 43 36 49 36 6 0 7 3 4 6
-4 4 -13 1 -21 -5 -10 -8 -21 -9 -32 -3 -15 8 -14 11 7 26 32 22 54 20 72 -6
l16 -23 0 22 c1 33 21 39 22 6 1 -27 1 -27 12 6 6 19 13 29 15 23 2 -7 -2 -28
-8 -47z m91 -12 c-12 -20 -14 -14 -5 12 4 9 9 14 11 11 3 -2 0 -13 -6 -23z
m246 -5 c-3 -7 -5 -2 -5 12 0 14 2 19 5 13 2 -7 2 -19 0 -25z m-5103 -501 c-1
-750 -4 -878 -22 -875 -23 4 -25 -19 -2 -25 19 -5 20 -13 20 -158 0 -84 -3
-149 -7 -146 -3 4 -5 30 -4 57 1 48 0 50 -19 40 -23 -13 -24 -17 -6 -49 8 -14
12 -30 9 -36 -2 -7 3 -18 12 -25 10 -8 14 -27 13 -54 l-1 -41 -4 38 c-4 39
-11 45 -31 25 -8 -8 -8 -15 -1 -24 7 -8 6 -14 -2 -19 -6 -4 -15 -2 -19 5 -5 9
-9 9 -14 1 -4 -6 0 -14 9 -17 9 -4 14 -13 11 -20 -3 -8 1 -14 9 -14 10 0 15
-10 15 -27 0 -24 -1 -25 -13 -9 -11 15 -15 15 -23 4 -21 -25 -24 -49 -9 -54 8
-4 15 -11 15 -16 0 -7 -5 -6 -13 1 -8 6 -16 9 -19 6 -3 -3 -11 1 -18 10 -7 8
-23 15 -36 15 -27 0 -41 17 -25 33 8 8 11 8 11 -2 0 -7 5 -9 10 -6 6 4 4 12
-5 22 -11 11 -14 25 -9 50 5 26 4 34 -5 29 -6 -4 -11 -1 -11 9 0 9 5 13 11 9
7 -4 10 -1 7 7 -3 8 -12 15 -20 17 -12 2 -14 -3 -10 -24 3 -15 1 -25 -4 -22
-5 3 -18 2 -29 -3 -16 -6 -14 -8 13 -8 22 -1 32 -6 32 -17 0 -8 -4 -12 -10 -9
-5 3 -10 2 -10 -4 0 -7 -8 -7 -25 -1 -16 6 -26 6 -31 -1 -3 -6 -18 -10 -32 -9
-52 4 -70 0 -76 -16 -5 -14 -4 -15 8 -5 13 11 14 7 11 -26 -1 -21 -3 -46 -4
-56 -1 -9 -6 -16 -12 -15 -7 2 -16 -12 -21 -30 -6 -21 -13 -30 -20 -26 -9 6
-9 9 0 12 14 4 16 41 2 62 -5 8 -12 11 -17 7 -4 -5 -3 -11 2 -15 6 -4 11 -15
11 -25 3 -27 -30 -17 -34 11 -2 13 -10 22 -21 22 -10 0 -24 7 -31 15 -8 9 -8
15 -2 15 6 0 12 -5 14 -11 5 -15 38 0 38 18 0 8 -8 13 -17 12 -35 -3 -43 1
-43 25 0 13 6 26 13 29 9 3 9 7 -2 20 -7 9 -11 26 -8 37 3 11 1 23 -4 26 -5 3
-9 -72 -9 -180 l0 -186 -235 0 c-150 0 -235 -4 -235 -10 0 -5 9 -10 19 -10 11
0 23 -4 26 -10 3 -5 18 -10 33 -10 21 0 24 -2 12 -10 -13 -9 -7 -14 12 -11 4
0 10 -15 14 -34 4 -22 12 -35 21 -35 9 0 13 -6 10 -15 -4 -8 -1 -17 5 -21 12
-8 -27 -28 -62 -33 -5 0 -10 -6 -10 -12 0 -6 7 -9 15 -6 8 4 17 2 20 -3 4 -6
1 -10 -4 -10 -6 0 -11 -11 -11 -24 0 -13 -6 -27 -12 -29 -10 -4 -10 -6 0 -6 8
-1 16 8 19 19 7 28 23 25 23 -4 0 -17 -7 -26 -25 -30 -30 -8 -24 -26 7 -26 12
0 18 -3 15 -7 -4 -3 -34 -5 -67 -4 -60 2 -60 2 -59 -26 1 -17 3 -21 6 -10 2 9
13 17 24 17 10 0 22 0 26 1 18 2 12 -19 -7 -24 -17 -4 -19 -9 -11 -30 9 -22 7
-26 -17 -33 -47 -13 -56 -13 -68 -3 -8 7 -14 6 -19 -1 -10 -16 3 -29 25 -23
11 3 20 0 20 -6 0 -18 -49 -12 -73 9 -12 11 -27 18 -34 16 -7 -3 -13 0 -13 7
0 8 -3 8 -9 -2 -5 -8 -16 -11 -29 -7 -14 5 -21 1 -25 -14 -3 -11 -9 -20 -14
-19 -20 3 -27 -2 -13 -11 10 -6 -40 -10 -150 -10 -96 0 -159 4 -151 9 9 6 10
11 2 15 -14 9 -33 -2 -26 -15 4 -5 -159 -9 -419 -9 -372 0 -426 2 -426 15 0
18 12 19 28 3 7 -7 12 -8 12 -4 0 5 -8 15 -17 22 -15 11 -16 13 -3 14 9 0 21
-5 28 -12 9 -9 12 -8 12 4 0 9 -6 19 -12 21 -10 4 -9 8 2 16 41 28 50 36 50
44 0 4 -5 5 -12 1 -20 -13 -58 -10 -58 3 0 7 -5 13 -12 13 -6 0 -9 3 -5 6 5 5
22 2 46 -9 2 -1 6 9 8 23 2 14 8 27 14 29 8 2 8 6 -1 11 -15 9 -60 1 -60 -12
0 -5 9 -6 20 -3 11 4 20 2 20 -4 0 -6 -11 -11 -24 -11 -18 0 -26 7 -31 27 -4
17 -2 29 4 31 6 2 11 9 11 15 0 6 7 19 16 29 14 14 14 18 3 22 -8 2 -19 6 -24
8 -7 2 -6 15 2 38 9 28 12 30 12 12 l1 -23 30 21 c26 19 31 19 36 6 3 -9 10
-16 15 -16 4 0 -1 16 -12 35 -14 23 -17 35 -9 35 10 0 10 3 0 15 -12 15 -6 35
11 35 6 0 7 -4 4 -10 -11 -17 5 -32 21 -19 7 6 11 15 8 20 -3 5 3 6 13 2 15
-5 16 -3 6 8 -7 7 -13 21 -13 31 0 16 -10 18 -92 18 -50 0 -89 2 -86 5 2 3
421 5 929 5 508 0 934 3 946 6 22 6 22 8 25 255 l3 249 -971 0 c-963 0 -972 0
-977 20 -3 11 -2 18 3 15 4 -3 11 2 14 11 4 12 1 14 -14 9 -21 -7 -28 10 -7
18 6 3 2 6 -10 6 -14 1 -23 7 -23 17 0 10 -6 14 -15 10 -14 -5 -16 -1 -19 37
-1 6 -5 15 -11 19 -10 7 7 12 30 9 6 -1 -2 10 -17 23 -16 14 -23 28 -18 31 14
9 12 47 -5 69 -13 17 -14 11 -18 -55 -1 -41 -4 8 -5 109 l-2 182 1030 0 1029
0 3 255 3 255 -1022 0 -1023 0 0 113 c0 83 5 124 18 159 10 26 21 50 25 54 4
4 7 16 7 26 0 10 6 28 13 40 16 28 69 77 84 78 6 0 13 5 15 10 2 6 26 15 53
19 40 7 22 9 -87 10 l-138 1 0 -255 c0 -163 -4 -255 -10 -255 -11 0 -15 486
-4 514 6 14 129 16 1298 16 l1291 0 -1 -473z m1103 460 c3 -4 5 -339 3 -789
l0 -188 -484 0 -484 0 -1 348 c0 191 3 363 6 382 l7 35 7 -30 c6 -29 7 -28 9
10 1 22 2 43 1 47 0 4 6 23 14 42 9 21 11 36 5 36 -5 0 -10 8 -10 18 0 10 3
13 8 6 5 -7 15 -6 32 3 l25 13 -25 0 c-19 0 -26 6 -27 21 -2 18 2 20 28 15 22
-4 29 -2 29 10 0 9 -8 14 -17 13 -10 -1 -34 0 -53 2 -53 5 530 14 739 12 101
-2 186 -5 188 -6z m1589 -14 c-8 -10 -97 -128 -198 -263 -101 -135 -258 -342
-349 -460 -207 -270 -328 -428 -460 -602 -864 -1134 -917 -1202 -933 -1188 -9
7 -13 6 -13 -5 0 -8 4 -12 9 -9 12 8 9 -9 -6 -28 -17 -23 -88 -26 -80 -3 4 9
0 15 -7 15 -11 0 -11 3 1 11 12 8 10 9 -7 4 -12 -3 -24 -1 -28 5 -3 5 1 10 9
10 20 0 29 17 15 26 -8 5 -10 2 -5 -7 5 -9 3 -8 -6 2 -20 24 -46 30 -62 14
-17 -17 -30 -20 -21 -5 3 6 1 10 -5 10 -6 0 -9 8 -6 18 4 13 1 18 -14 18 -11
0 -19 -5 -19 -11 3 -25 -2 -34 -21 -32 -11 1 -20 5 -20 9 0 4 -7 8 -16 8 -14
0 -14 3 -4 15 10 12 9 15 -8 15 -13 0 -19 6 -18 18 0 9 -5 16 -11 14 -7 -1
-13 2 -13 8 0 5 5 10 10 10 6 0 10 5 10 11 0 7 8 18 18 26 15 13 15 14 -8 8
-22 -5 -23 -5 -6 6 13 8 24 8 43 0 13 -6 22 -8 20 -4 -8 16 -20 49 -23 65 -3
12 1 15 11 12 10 -4 15 0 15 15 0 19 20 27 53 22 11 -2 8 9 -7 25 -23 23 -33
17 -77 -43 -24 -32 -48 -62 -56 -66 -7 -4 -13 -17 -13 -28 0 -11 -4 -18 -9
-14 -5 3 -18 -8 -27 -25 -10 -16 -22 -30 -27 -30 -8 0 40 75 65 102 7 7 33 40
57 73 59 80 89 119 356 470 126 165 344 451 484 635 140 184 314 412 386 505
72 94 211 275 309 403 l178 232 274 0 c259 0 273 -1 260 -17z m2574 7 c0 -5
-4 -10 -9 -10 -6 0 -13 5 -16 10 -3 6 1 10 9 10 9 0 16 -4 16 -10z m-1281 -31
c-6 -12 -20 -19 -37 -18 -24 0 -25 1 -7 9 11 5 16 9 11 9 -5 1 -3 7 4 15 17
22 42 9 29 -15z m180 8 c12 -15 12 -17 -4 -11 -15 6 -17 3 -11 -19 8 -34 -7
-35 -22 -2 -16 34 -15 38 3 31 10 -3 15 1 15 11 0 9 1 14 3 12 1 -2 9 -12 16
-22z m-129 -1 c0 -8 -4 -18 -10 -21 -5 -3 -10 3 -10 14 0 12 5 21 10 21 6 0
10 -6 10 -14z m69 -50 c-1 -17 -2 -18 -6 -3 -2 9 -8 15 -11 13 -4 -2 -8 8 -9
22 -1 25 0 26 13 7 8 -10 13 -28 13 -39z m817 36 c6 -4 9 -15 5 -24 -5 -15 -8
-13 -18 7 -11 25 -7 31 13 17z m-867 -44 c-1 -42 -1 -42 -10 -13 -5 17 -7 36
-4 43 9 24 15 11 14 -30z m508 15 c5 3 10 -3 10 -14 1 -12 -2 -17 -9 -13 -7 5
-9 1 -5 -9 4 -10 1 -17 -6 -17 -7 0 -13 16 -14 38 -2 24 0 32 6 23 5 -7 13
-11 18 -8z m452 -20 c20 -16 19 -17 -6 -62 -15 -25 -37 -60 -50 -78 -12 -17
-23 -40 -23 -50 -1 -17 -1 -17 -11 0 -5 9 -15 17 -22 17 -7 0 -6 -4 3 -10 12
-7 10 -9 -7 -7 -12 0 -19 5 -16 11 4 5 -1 7 -11 3 -13 -5 -22 4 -39 43 -12 27
-28 52 -36 55 -10 4 -11 2 -3 -8 7 -8 7 -18 2 -27 -8 -13 -10 -12 -10 3 0 9
-5 17 -11 17 -6 0 -9 6 -6 14 3 8 1 17 -6 20 -7 2 -2 5 10 5 12 1 25 -3 28 -9
3 -5 10 -10 16 -10 16 0 10 23 -13 47 -40 42 -18 42 100 -1 40 -15 45 -15 67
1 14 10 22 24 20 31 -6 16 1 15 24 -5z m-1028 -65 c50 -98 42 -121 -39 -124
-27 -1 -38 1 -25 5 22 6 22 7 8 35 -8 15 -12 32 -9 37 3 5 0 9 -7 9 -8 0 -7 5
2 17 13 16 13 16 -11 0 -30 -21 -40 -21 -40 -2 0 8 6 15 13 15 7 0 28 11 47
25 19 13 36 24 37 25 2 0 12 -19 24 -42z m542 10 c4 -10 8 -10 15 1 7 10 11
10 17 1 4 -6 13 -9 21 -6 10 4 14 -2 14 -20 0 -17 4 -23 13 -18 6 4 9 4 5 -1
-4 -4 -1 -17 7 -29 18 -25 19 -44 3 -96 -15 -46 -21 -49 -42 -18 -9 12 -16 17
-16 10 0 -6 -11 -12 -25 -12 -18 0 -25 5 -25 19 0 10 -8 22 -17 25 -15 6 -15
8 -3 16 13 8 13 10 -2 10 -13 0 -16 8 -13 44 5 66 34 109 48 74z m655 -10 c-6
-18 -28 -21 -28 -4 0 9 7 16 16 16 9 0 14 -5 12 -12z m-812 -112 c6 -15 -9
-34 -56 -71 -23 -18 -23 -18 3 11 15 16 27 33 27 36 0 12 -30 17 -36 6 -5 -7
-2 -8 7 -3 12 8 12 6 0 -8 -15 -18 -26 -23 -16 -7 3 6 -3 10 -15 10 -12 0 -19
-4 -16 -8 3 -5 0 -9 -7 -10 -7 0 -23 -3 -37 -6 -18 -5 -20 -4 -7 2 10 4 18 12
18 17 -1 32 124 60 135 31z m-486 -26 c-8 -5 -19 -10 -25 -10 -5 0 -3 5 5 10
8 5 20 10 25 10 6 0 3 -5 -5 -10z m84 -45 c-4 -8 -2 -15 4 -15 5 0 12 -7 15
-14 8 -21 -21 -8 -33 15 -13 24 -13 29 5 29 9 0 12 -6 9 -15z m646 -29 c0 -11
-19 -15 -25 -6 -3 5 1 10 9 10 9 0 16 -2 16 -4z m347 -28 c-3 -8 -6 -5 -6 6
-1 11 2 17 5 13 3 -3 4 -12 1 -19z m-386 -77 c-14 -24 -36 -28 -45 -6 -3 8 -2
14 2 13 16 -3 41 15 35 26 -4 8 -3 8 6 0 10 -9 10 -17 2 -33z m-101 -87 c20
-17 27 -30 22 -38 -5 -6 -9 -24 -8 -39 2 -39 -70 -103 -96 -85 -2 1 -13 -4
-25 -11 -15 -7 -23 -8 -23 -1 0 5 6 10 13 10 8 0 7 3 -3 10 -12 7 -11 12 6 27
12 10 19 23 17 29 -4 13 30 15 38 2 8 -13 59 50 53 65 -2 7 -14 17 -26 22 -12
6 -23 16 -26 23 -6 21 25 13 58 -14z m230 -10 c0 -9 -7 -14 -17 -12 -25 5 -28
28 -4 28 12 0 21 -6 21 -16z m-1452 -37 c15 -17 -1 -40 -24 -35 -21 4 -26 28
-9 40 14 11 21 10 33 -5z m1489 -29 c-3 -8 -6 -5 -6 6 -1 11 2 17 5 13 3 -3 4
-12 1 -19z m-1478 -58 c0 -10 -3 -8 -9 5 -12 27 -12 43 0 25 5 -8 9 -22 9 -30z
m-40 4 c-6 -8 -8 -14 -3 -14 5 0 3 -4 -5 -9 -9 -6 -19 -4 -29 5 -8 8 -13 16
-11 17 2 1 13 7 24 13 25 14 40 7 24 -12z m1282 -90 c-6 -18 -9 -44 -5 -58 4
-17 2 -26 -6 -26 -7 0 -10 -7 -6 -16 3 -8 2 -13 -3 -10 -5 3 -14 -1 -21 -9 -7
-8 -20 -15 -30 -15 -21 0 -36 80 -17 92 7 4 10 21 9 38 -2 16 1 30 6 30 15 0
52 36 52 51 1 8 8 1 17 -15 13 -25 14 -36 4 -62z m-1280 43 l-24 -22 19 27
c10 14 21 24 23 22 3 -3 -6 -15 -18 -27z m-108 -17 c7 0 6 -4 -3 -10 -21 -14
-27 -12 -34 6 -5 12 -2 15 10 10 8 -3 21 -6 27 -6z m1414 -12 c-3 -8 -6 -5 -6
6 -1 11 2 17 5 13 3 -3 4 -12 1 -19z m338 -26 c-71 -61 -116 -84 -128 -64 -7
11 37 59 59 65 32 8 78 7 69 -1z m-291 -11 c3 -5 -1 -11 -9 -14 -9 -4 -12 -1
-8 9 6 16 10 17 17 5z m70 -29 c2 -4 -4 -8 -15 -8 -10 0 -19 4 -19 8 0 4 6 8
14 8 8 0 17 -4 20 -8z m-94 -52 c0 -5 -5 -10 -11 -10 -5 0 -7 5 -4 10 3 6 8
10 11 10 2 0 4 -4 4 -10z m-715 -10 c4 -6 -7 -10 -27 -10 -25 0 -29 3 -18 10
19 13 37 13 45 0z m455 -14 c0 -17 -24 -38 -33 -29 -15 15 -6 43 13 43 11 0
20 -6 20 -14z m70 4 c-8 -5 -24 -9 -35 -9 l-20 0 20 9 c11 5 27 9 35 9 13 1
13 0 0 -9z m278 -13 c31 -2 27 -14 -7 -22 -20 -4 -38 -1 -55 10 -34 23 -33 27
7 20 17 -3 42 -7 55 -8z m-838 -22 c9 -11 9 -15 1 -15 -7 0 -10 -4 -6 -9 3 -5
1 -12 -5 -16 -5 -3 -10 -16 -10 -27 0 -26 -13 -16 -17 13 -2 12 1 18 7 14 7
-4 9 4 5 24 -6 33 5 40 25 16z m478 -25 c6 0 30 -13 53 -29 34 -23 43 -35 46
-65 3 -34 2 -37 -21 -33 -14 1 -34 11 -44 21 -15 13 -21 14 -25 4 -4 -8 -6 -7
-6 5 -1 10 6 17 17 18 14 0 14 2 -3 9 -19 8 -19 9 2 9 12 1 24 5 27 10 3 4 -5
6 -18 4 -13 -3 -27 1 -31 8 -6 8 -4 10 5 4 8 -5 11 -3 8 6 -3 8 -26 20 -51 27
-26 7 -47 18 -47 24 0 7 5 7 14 -1 11 -9 15 -8 20 5 6 15 8 14 25 -5 10 -11
23 -21 29 -21z m422 0 c0 -14 -15 -19 -29 -10 -17 10 -5 31 14 23 8 -3 15 -9
15 -13z m-1257 -16 c5 -26 -21 -64 -43 -64 -19 0 -10 49 12 70 12 11 23 20 24
20 1 0 4 -12 7 -26z m1202 3 c7 -7 6 -7 -4 -2 -7 4 -16 3 -20 -4 -9 -14 -37
-5 -45 14 -4 11 2 13 27 8 18 -3 37 -10 42 -16z m94 -31 c-2 -2 -15 -9 -29
-15 -24 -11 -24 -11 -6 3 16 13 49 24 35 12z m-1002 -38 c-3 -8 -6 -5 -6 6 -1
11 2 17 5 13 3 -3 4 -12 1 -19z m-80 -20 c-3 -7 -5 -2 -5 12 0 14 2 19 5 13 2
-7 2 -19 0 -25z m-217 -18 c0 -13 -1 -13 -10 0 -5 8 -10 22 -10 30 0 13 1 13
10 0 5 -8 10 -22 10 -30z m-34 18 c4 -7 3 -8 -4 -4 -14 9 -16 -13 -2 -34 10
-15 -4 -40 -23 -40 -6 0 -3 6 7 13 17 12 16 14 -8 25 -32 14 -34 39 -3 45 12
2 23 5 24 6 1 0 5 -4 9 -11z m1252 -23 c4 -20 4 -20 -11 0 -9 11 -19 17 -23
12 -4 -4 -3 -12 3 -18 12 -12 7 -39 -7 -39 -4 0 -17 9 -30 20 -28 24 -42 26
-33 3 4 -11 3 -14 -5 -9 -20 12 -13 26 21 41 44 20 81 15 85 -10z m-406 -37
c-7 -7 -12 -8 -12 -2 0 14 12 26 19 19 2 -3 -1 -11 -7 -17z m448 6 c0 -8 -5
-12 -10 -9 -6 4 -8 11 -5 16 9 14 15 11 15 -7z m-1382 -72 c2 -30 -3 -53 -17
-76 -26 -41 -27 -53 -3 -35 11 9 10 5 -4 -11 -12 -14 -19 -32 -17 -40 4 -13 3
-13 -6 0 -7 10 -6 18 1 27 7 9 7 13 -1 13 -6 0 -14 -6 -17 -14 -11 -29 -64
-29 -64 -1 0 20 -38 101 -55 115 -12 10 -12 14 -1 26 8 7 16 19 18 26 3 8 12
8 36 -3 18 -8 32 -17 32 -21 0 -5 5 -8 10 -8 6 0 10 6 10 13 0 22 23 38 50 35
22 -3 25 -9 28 -46z m1041 22 c-7 -9 -12 -32 -11 -51 2 -22 -1 -32 -8 -28 -5
3 -10 3 -10 -2 0 -4 -14 -16 -31 -26 -30 -16 -32 -16 -59 3 -15 11 -30 17 -34
13 -8 -8 -8 5 0 35 4 14 12 21 21 18 11 -5 73 18 123 45 22 12 24 11 9 -7z
m-170 -82 c-6 -18 -18 -32 -26 -32 -8 0 -12 -4 -8 -9 11 -19 22 -102 14 -107
-18 -11 -9 -25 10 -15 14 8 21 5 31 -14 7 -14 9 -31 5 -42 -9 -20 -11 -30 -13
-57 -2 -15 -5 -16 -17 -6 -11 9 -15 10 -15 1 0 -8 -6 -7 -16 3 -18 19 -41 11
-24 -9 6 -7 8 -20 4 -29 -8 -21 0 -20 22 2 17 16 18 16 11 0 -3 -10 -3 -18 2
-18 22 0 19 -43 -5 -67 -20 -20 -23 -31 -18 -58 6 -31 3 -35 -35 -54 -32 -17
-45 -19 -67 -11 -23 9 -31 7 -51 -11 -22 -22 -32 -46 -14 -35 5 4 7 -3 4 -14
-3 -11 0 -20 6 -20 6 0 20 -18 30 -39 16 -30 19 -48 13 -82 -4 -23 -13 -44
-21 -47 -8 -3 -12 1 -9 9 3 8 -1 21 -8 30 -7 8 -15 26 -17 39 -2 13 -9 26 -15
28 -19 6 -14 -17 9 -50 18 -25 19 -32 8 -39 -12 -8 -12 -10 0 -18 12 -8 12
-12 2 -25 -21 -25 -27 -19 -30 30 -1 34 -8 51 -24 64 -12 10 -24 16 -27 13 -3
-2 2 -10 10 -16 16 -13 18 -30 6 -65 -11 -33 -26 -17 -27 31 0 23 -3 36 -6 30
-6 -17 -39 -17 -46 0 -7 19 21 80 33 72 5 -3 10 -1 10 6 0 8 7 5 20 -6 16 -14
22 -15 35 -5 8 7 12 16 9 21 -3 5 -1 9 4 9 16 0 0 50 -19 61 -15 7 -21 6 -25
-6 -9 -23 -24 -8 -24 25 0 27 2 28 30 20 17 -5 30 -5 30 0 0 5 7 7 15 4 23 -9
67 5 59 18 -5 7 -2 9 9 5 9 -3 19 -1 23 5 5 7 2 8 -7 4 -8 -4 -6 -1 4 7 12 10
14 16 6 19 -7 2 2 10 19 17 18 8 32 20 32 28 0 13 -3 13 -17 2 -10 -7 -8 -2 5
12 20 23 21 27 7 39 -9 7 -14 19 -11 27 4 11 1 11 -14 3 -16 -8 -20 -8 -20 4
0 8 -5 18 -12 22 -7 4 -8 3 -4 -4 11 -19 -9 -14 -34 8 -23 20 -21 24 10 21 10
-1 16 7 16 19 0 11 -6 20 -13 20 -7 0 -10 -6 -8 -12 3 -8 -4 -13 -20 -13 -23
0 -24 1 -8 13 9 6 14 12 10 12 -4 0 1 8 11 18 17 18 52 24 52 10 0 -4 -5 -8
-11 -8 -5 0 -7 -5 -3 -11 4 -8 9 -7 15 2 7 11 9 11 9 1 0 -7 5 -10 11 -6 8 5
8 9 -1 14 -7 4 -10 17 -7 29 3 12 -3 31 -14 45 -10 13 -19 29 -19 35 0 20 46
77 58 73 7 -2 11 2 10 10 -2 8 7 13 27 13 18 0 38 9 50 22 25 27 28 24 14 -15z
m-1034 -29 c18 -43 14 -70 -15 -104 -20 -22 -20 -22 -11 -2 12 23 5 53 -11 53
-5 0 -8 20 -7 45 3 56 23 59 44 8z m1049 -53 c-6 -6 -10 -3 -10 10 0 13 4 16
10 10 7 -7 7 -13 0 -20z m-198 -34 c-3 -13 -9 -32 -13 -42 -5 -13 -3 -15 8 -9
11 6 11 5 2 -5 -27 -29 -41 31 -16 73 10 17 25 5 19 -17z m-737 -23 c-8 -10
-22 -26 -31 -37 -10 -10 -15 -23 -12 -28 3 -4 0 -8 -5 -8 -24 0 -9 46 22 68
38 27 44 28 26 5z m1171 13 c0 -3 -4 -8 -10 -11 -5 -3 -10 -1 -10 4 0 6 5 11
10 11 6 0 10 -2 10 -4z m-1270 -20 c0 -3 -4 -8 -10 -11 -5 -3 -10 -1 -10 4 0
6 5 11 10 11 6 0 10 -2 10 -4z m-5753 -58 c-2 -13 -4 -5 -4 17 -1 22 1 32 4
23 2 -10 2 -28 0 -40z m6638 32 c-3 -5 -12 -10 -18 -10 -7 0 -6 4 3 10 19 12
23 12 15 0z m-1490 -8 c13 -9 17 -32 6 -32 -5 0 -17 -3 -27 -7 -11 -4 -15 -3
-10 5 3 6 2 13 -4 17 -13 8 -3 25 13 25 7 0 17 -4 22 -8z m1854 -39 c1 -7 -6
-10 -14 -7 -9 4 -15 0 -16 -7 0 -8 -4 -5 -9 6 -5 14 -2 26 8 38 16 18 17 18
23 0 4 -10 8 -23 8 -30z m-6919 -43 c0 -5 -5 -10 -11 -10 -5 0 -7 5 -4 10 3 6
8 10 11 10 2 0 4 -4 4 -10z m5035 -20 c-3 -5 -13 -10 -21 -10 -8 0 -12 5 -9
10 3 6 13 10 21 10 8 0 12 -4 9 -10z m1497 -62 c-7 -7 -12 -8 -12 -2 0 14 12
26 19 19 2 -3 -1 -11 -7 -17z m-1296 -24 c-3 -9 -6 -79 -6 -155 0 -109 -3
-139 -12 -133 -10 6 -10 4 0 -7 8 -9 12 -61 12 -186 0 -154 -7 -201 -23 -160
-4 9 -8 8 -16 -3 -8 -11 -7 -16 4 -18 9 -2 13 -8 9 -13 -3 -5 -10 -7 -15 -4
-5 4 -9 -1 -9 -9 0 -9 5 -16 10 -16 6 0 10 -5 10 -11 0 -5 -4 -8 -8 -5 -4 2
-14 1 -21 -3 -9 -6 -1 -11 23 -15 20 -4 36 -11 36 -17 0 -6 -4 -8 -9 -5 -15
10 -20 -33 -5 -45 10 -8 14 -34 14 -85 l0 -74 -277 1 c-153 1 -268 4 -255 6
26 5 28 21 5 39 -17 12 -16 13 5 14 15 0 22 -6 22 -19 0 -11 5 -23 11 -26 7
-5 9 6 7 31 -4 31 0 41 16 51 16 10 17 12 5 13 -9 0 -22 -7 -29 -16 -12 -13
-15 -11 -26 15 -17 41 -60 44 -70 4 -6 -23 -8 -24 -19 -10 -13 19 -50 23 -60
7 -3 -5 -19 -10 -35 -10 -19 0 -30 -6 -33 -17 -3 -10 -5 -3 -6 15 -1 23 3 32
14 32 9 0 18 6 21 13 4 11 25 13 89 10 60 -3 85 -1 85 7 0 7 -8 9 -20 5 -21
-7 -28 10 -7 18 8 3 4 11 -11 22 l-23 17 20 19 c12 11 27 16 37 12 13 -5 16
-2 12 8 -4 9 1 15 11 17 101 11 85 22 -31 22 -63 0 -108 -4 -111 -10 -3 -6 -4
-5 -3 2 2 10 46 14 172 18 l169 5 3 171 2 171 -162 6 c-90 3 -166 3 -170 1 -5
-3 -9 -38 -9 -77 -1 -40 -4 -60 -6 -45 -3 22 -7 25 -17 15 -8 -6 -12 -17 -9
-23 2 -7 -7 -24 -21 -39 -14 -15 -26 -39 -26 -51 0 -24 -14 -32 -25 -14 -3 6
-15 5 -31 -2 -20 -10 -27 -9 -35 3 -5 8 -7 20 -4 27 2 6 0 12 -5 12 -6 0 -10
4 -10 10 0 5 7 7 16 3 9 -3 14 -13 11 -24 -4 -14 0 -19 15 -19 15 0 19 5 15
20 -3 13 0 20 9 20 8 0 14 -7 14 -15 0 -28 18 -15 22 15 3 21 1 27 -6 20 -17
-17 -24 -11 -31 30 -4 22 -8 40 -10 40 -15 0 -34 -14 -29 -21 3 -5 0 -9 -6 -9
-7 0 -10 -6 -7 -12 5 -17 -73 -41 -88 -28 -7 6 -15 7 -18 3 -4 -3 -8 7 -9 23
-1 16 -5 -65 -8 -181 -5 -171 -6 -132 -8 213 l-2 422 486 0 c439 0 486 -2 480
-16z m1250 -106 c17 -20 17 -21 1 -8 -15 11 -20 11 -26 1 -6 -9 -10 -7 -14 8
-7 28 15 27 39 -1z m-1115 -40 c1 -7 0 -23 -1 -35 0 -12 6 -42 14 -67 11 -33
13 -53 6 -71 -9 -22 -12 -24 -35 -13 -16 7 -21 14 -14 18 7 5 8 10 1 14 -6 3
-10 15 -9 26 1 15 6 18 21 14 19 -6 19 -6 2 11 -13 13 -14 20 -6 25 8 5 9 10
2 14 -9 5 -10 24 -3 69 2 12 21 8 22 -5z m-2884 -80 c-2 -13 -4 -3 -4 22 0 25
2 35 4 23 2 -13 2 -33 0 -45z m3887 -4 c3 -8 2 -12 -4 -9 -6 3 -10 10 -10 16
0 14 7 11 14 -7z m-4170 -32 c-3 -17 -12 -33 -20 -36 -19 -7 -18 6 3 43 21 36
25 34 17 -7z m4223 8 c-2 -29 -17 -24 -17 6 0 14 4 23 9 19 6 -3 9 -14 8 -25z
m-4070 -6 c-3 -3 -12 -4 -19 -1 -8 3 -5 6 6 6 11 1 17 -2 13 -5z m3811 -6 c7
-7 12 -9 12 -4 0 16 56 -27 84 -65 39 -51 41 -72 11 -106 l-24 -28 -23 23
c-12 12 -17 22 -10 22 7 0 12 -4 12 -10 0 -14 27 -13 36 2 4 7 3 8 -4 4 -7 -4
-12 -3 -12 2 0 6 7 13 16 16 13 5 14 9 4 21 -7 8 -9 15 -4 15 4 0 2 6 -4 12
-10 10 -18 6 -38 -17 -14 -17 -23 -25 -20 -18 3 6 3 18 0 27 -5 13 -10 14 -20
5 -10 -8 -13 -6 -11 10 1 13 6 19 14 16 18 -7 40 -13 31 -8 -5 3 -8 11 -8 19
0 9 -5 12 -12 8 -8 -5 -9 -2 -5 9 4 10 1 17 -6 17 -19 1 -65 40 -46 40 8 0 20
-5 27 -12z m-3681 -40 c-3 -7 -5 -2 -5 12 0 14 2 19 5 13 2 -7 2 -19 0 -25z
m3673 12 c0 -5 -8 -10 -17 -10 -15 0 -16 2 -3 10 19 12 20 12 20 0z m444 -59
c17 -7 13 -12 -29 -41 -35 -24 -47 -28 -42 -16 4 10 7 24 7 32 0 8 7 14 15 14
8 0 15 5 15 10 0 11 7 12 34 1z m-4544 -15 c0 -3 -4 -8 -10 -11 -5 -3 -10 -1
-10 4 0 6 5 11 10 11 6 0 10 -2 10 -4z m4188 -33 c-6 -8 -14 -11 -17 -7 -3 4
-1 9 6 11 7 2 9 12 6 21 -4 14 -3 15 5 2 8 -10 8 -18 0 -27z m-6235 -50 c-13
-2 -33 -2 -45 0 -13 2 -3 4 22 4 25 0 35 -2 23 -4z m4427 -9 c0 -8 -4 -12 -10
-9 -5 3 -10 10 -10 16 0 5 5 9 10 9 6 0 10 -7 10 -16z m1808 -16 c43 -43 -45
-108 -96 -72 -28 19 -29 37 -1 29 13 -5 19 -3 15 3 -8 13 20 36 34 27 5 -3 10
1 10 9 0 19 21 21 38 4z m-1908 -18 c0 -5 -2 -10 -4 -10 -3 0 -8 5 -11 10 -3
6 -1 10 4 10 6 0 11 -4 11 -10z m-4168 -28 c3 -11 0 -19 -7 -19 -7 0 -10 8 -7
19 2 10 6 18 7 18 1 0 5 -8 7 -18z m4213 -20 c0 -22 5 -27 22 -25 16 2 21 -2
17 -12 -4 -10 0 -15 14 -15 12 0 22 9 27 23 4 13 8 17 12 9 2 -6 9 -10 14 -6
5 3 9 -5 8 -18 0 -13 -3 -17 -6 -10 -8 21 -23 13 -23 -14 0 -23 3 -25 25 -20
18 5 25 2 25 -9 0 -13 -18 -19 -57 -18 -7 1 -13 -7 -13 -16 0 -14 -2 -14 -10
-1 -13 20 -13 4 0 -20 8 -16 8 -18 -5 -14 -10 4 -15 0 -15 -10 0 -9 -5 -16
-11 -16 -5 0 -7 -5 -4 -10 4 -6 2 -17 -5 -25 -8 -10 -7 -16 6 -23 19 -11 2
-27 -21 -19 -9 4 -12 -2 -10 -19 1 -13 -1 -24 -5 -24 -11 0 -20 54 -9 58 16 6
10 20 -11 27 -11 3 -20 14 -21 23 -1 11 -4 7 -9 -8 -7 -21 -8 -18 -9 18 -1 26
-5 41 -11 37 -13 -8 -13 -3 0 30 6 17 7 33 0 44 -6 12 -5 22 2 29 7 7 9 12 5
12 -4 0 -3 9 3 20 6 11 20 20 31 20 13 0 23 8 26 20 7 27 17 16 18 -18z
m-2611 -38 c3 -8 2 -12 -4 -9 -6 3 -10 10 -10 16 0 14 7 11 14 -7z m4285 6
c-6 -5 -18 -6 -26 -3 -19 8 -16 11 13 11 17 0 22 -3 13 -8z m-489 -33 c0 -24
-26 -67 -40 -67 -12 0 -4 68 10 85 16 19 30 10 30 -18z m-1020 -42 c0 -8 -4
-15 -10 -15 -5 0 -7 7 -4 15 4 8 8 15 10 15 2 0 4 -7 4 -15z m920 -5 c0 -5 -5
-10 -11 -10 -5 0 -7 5 -4 10 3 6 8 10 11 10 2 0 4 -4 4 -10z m-3800 -40 c0 -5
-2 -10 -4 -10 -3 0 -8 5 -11 10 -3 6 -1 10 4 10 6 0 11 -4 11 -10z m2814 -5
c3 -8 1 -15 -3 -15 -5 0 -11 7 -15 15 -3 8 -1 15 3 15 5 0 11 -7 15 -15z m106
-6 c0 -10 -27 -19 -34 -12 -11 12 -6 19 14 19 11 0 20 -3 20 -7z m23 -26 c-7
-3 -13 -16 -13 -29 0 -14 -4 -22 -10 -19 -17 11 -11 53 8 57 20 5 32 -3 15 -9z
m32 -33 c3 -5 -1 -10 -9 -10 -9 0 -16 5 -16 10 0 6 4 10 9 10 6 0 13 -4 16
-10z m-15 -30 c0 -5 -4 -10 -10 -10 -5 0 -10 5 -10 10 0 6 5 10 10 10 6 0 10
-4 10 -10z m-1753 -36 c-3 -3 -12 -4 -19 -1 -8 3 -5 6 6 6 11 1 17 -2 13 -5z
m1602 -31 c0 -25 -1 -26 -9 -8 -12 27 -12 35 0 35 6 0 10 -12 9 -27z m1272
-33 c5 0 9 -7 9 -15 0 -8 3 -14 8 -13 4 2 22 -11 40 -27 25 -22 32 -36 29 -54
l-5 -25 18 24 c10 13 15 31 12 39 -4 12 0 11 17 -4 13 -11 18 -21 11 -23 -7
-3 -6 -12 5 -29 12 -18 13 -24 4 -21 -20 7 -41 -39 -29 -63 7 -12 7 -25 1 -36
-5 -10 -12 -30 -16 -45 -5 -25 -10 -28 -44 -28 -43 0 -86 -34 -62 -50 9 -5 12
-19 8 -41 -3 -25 0 -40 15 -56 15 -16 18 -26 10 -39 -9 -16 -13 -14 -32 19
-12 20 -27 37 -32 37 -6 0 -5 -6 2 -15 9 -10 11 -32 7 -66 -6 -45 -4 -49 9
-38 13 11 14 9 3 -14 -7 -15 -15 -24 -20 -22 -4 3 -10 -3 -13 -13 -4 -10 -23
-34 -44 -53 -32 -29 -33 -30 -11 -4 33 37 42 65 28 85 -10 13 -10 13 -6 -1 3
-9 1 -22 -4 -30 -6 -10 -9 -4 -9 21 0 26 -9 43 -36 71 -34 35 -36 40 -30 82 7
43 39 92 55 82 5 -2 9 -15 9 -27 1 -33 28 -102 35 -91 3 5 4 25 1 44 -15 93
-8 122 31 115 24 -5 54 18 41 31 -4 4 -10 3 -14 -3 -4 -6 -23 -14 -43 -18 -34
-6 -36 -5 -36 23 0 21 7 32 24 40 26 12 30 0 7 -23 -14 -15 -13 -16 13 -15 29
0 78 17 56 18 -18 1 -16 21 2 21 8 0 15 7 15 15 0 16 34 38 44 28 3 -3 6 7 6
22 0 27 -1 28 -15 9 -13 -18 -14 -18 -8 6 5 23 2 22 -37 -15 -24 -22 -39 -34
-35 -26 6 11 4 13 -8 8 -21 -8 -22 18 -2 53 16 28 21 115 6 91 -5 -8 -17 -16
-26 -17 -13 -2 -16 3 -12 22 3 18 1 22 -8 14 -9 -8 -14 -6 -19 5 -3 9 -2 13 4
10 6 -3 10 1 10 9 0 20 -5 20 -36 0 -13 -9 -27 -14 -31 -10 -10 9 15 56 29 56
9 0 9 -3 -2 -10 -24 -15 -7 -19 20 -5 14 8 19 14 12 15 -7 0 -10 5 -7 10 4 6
11 8 16 5 5 -4 9 0 9 7 0 7 10 -2 21 -19 12 -18 25 -33 30 -33z m-1474 -32
c-2 -13 -4 -3 -4 22 0 25 2 35 4 23 2 -13 2 -33 0 -45z m126 45 c-7 -2 -19 -2
-25 0 -7 3 -2 5 12 5 14 0 19 -2 13 -5z m62 -21 c-6 -7 -34 11 -29 19 3 5 11
3 19 -4 7 -6 12 -13 10 -15z m235 18 c0 -5 -2 -10 -4 -10 -3 0 -8 5 -11 10 -3
6 -1 10 4 10 6 0 11 -4 11 -10z m-1598 -28 c4 -16 0 -18 -27 -17 -18 1 -38 5
-44 9 -19 12 -2 27 25 22 13 -3 24 0 24 5 0 16 17 1 22 -19z m-162 14 c0 -3
-4 -8 -10 -11 -5 -3 -10 -1 -10 4 0 6 5 11 10 11 6 0 10 -2 10 -4z m1490 -17
c0 -6 -4 -7 -10 -4 -5 3 -10 11 -10 16 0 6 5 7 10 4 6 -3 10 -11 10 -16z m217
15 c-3 -3 -12 -4 -19 -1 -8 3 -5 6 6 6 11 1 17 -2 13 -5z m1293 -28 c0 -21 -6
-36 -15 -40 -16 -6 -16 17 0 57 11 26 15 21 15 -17z m-1563 18 c-3 -3 -12 -4
-19 -1 -8 3 -5 6 6 6 11 1 17 -2 13 -5z m243 -8 c0 -11 -19 -15 -25 -6 -3 5 1
10 9 10 9 0 16 -2 16 -4z m-3260 -42 c0 -2 -9 -4 -21 -4 -11 0 -18 4 -14 10 5
8 35 3 35 -6z m1765 6 c-3 -5 -14 -10 -23 -9 -14 0 -13 2 3 9 27 11 27 11 20
0z m1325 0 c0 -5 -5 -10 -11 -10 -5 0 -7 5 -4 10 3 6 8 10 11 10 2 0 4 -4 4
-10z m130 0 c0 -5 -15 -10 -32 -9 -31 1 -32 1 -8 9 35 11 40 11 40 0z m35 0
c3 -5 -1 -10 -10 -10 -9 0 -13 5 -10 10 3 6 8 10 10 10 2 0 7 -4 10 -10z
m-3148 -7 c-20 -2 -52 -2 -70 0 -17 2 0 4 38 4 39 0 53 -2 32 -4z m2896 0 c-7
-2 -21 -2 -30 0 -10 3 -4 5 12 5 17 0 24 -2 18 -5z m701 -29 c22 -8 20 -27 -3
-41 -16 -10 -20 -9 -24 9 -9 33 0 43 27 32z m-99 -54 c16 -31 20 -97 6 -118
-5 -8 -6 7 -4 35 4 34 0 60 -11 81 -9 18 -14 32 -12 32 3 0 12 -13 21 -30z
m-301 -78 c0 -14 -9 -31 -20 -36 -10 -6 -22 -15 -27 -21 -11 -15 -47 33 -44
57 5 27 20 35 60 30 28 -3 32 -7 31 -30z m1309 -7 c-22 -17 -30 -11 -13 10 7
8 17 12 22 9 5 -3 1 -12 -9 -19z m-288 -5 c-3 -5 -12 -10 -18 -10 -7 0 -6 4 3
10 19 12 23 12 15 0z m-605 -387 c0 -20 -8 -41 -20 -53 -22 -22 -46 -27 -33
-7 4 6 8 23 8 37 1 14 5 40 9 58 8 30 10 31 22 15 7 -10 14 -33 14 -50z m511
40 c13 -17 13 -17 -6 -3 -11 8 -22 16 -24 17 -2 2 0 3 6 3 6 0 17 -8 24 -17z
m-306 -86 c9 -49 -7 -141 -26 -145 -8 -1 -39 9 -69 22 -44 20 -49 24 -23 21
l31 -5 7 65 c8 69 17 84 40 65 12 -10 15 -9 15 4 0 28 19 8 25 -27z m326 -46
c-6 -11 -8 -27 -5 -35 4 -9 0 -18 -9 -22 -9 -3 -14 -11 -11 -18 3 -7 -11 -21
-30 -31 -28 -15 -38 -17 -48 -7 -10 10 -8 19 6 44 11 17 14 28 7 24 -7 -5 -11
2 -11 19 0 15 -5 35 -10 46 -16 28 13 25 46 -6 15 -14 28 -25 30 -25 2 0 11
15 21 33 13 24 18 28 21 15 2 -9 -2 -26 -7 -37z m-1177 10 c3 -4 -20 -9 -52
-9 -40 0 -51 2 -37 8 27 11 82 12 89 1z m-100 -38 c-5 -5 -12 -12 -16 -18 -4
-6 -8 -2 -8 8 0 9 7 17 17 17 9 0 12 -3 7 -7z m951 -103 c9 8 14 6 19 -7 5
-11 -1 -23 -16 -35 -22 -16 -23 -16 -30 3 -4 10 -4 27 -1 36 4 11 8 13 11 5 3
-9 8 -10 17 -2z m495 -40 c-6 -11 -15 -22 -21 -26 -7 -4 -7 1 1 16 6 12 9 29
6 37 -5 13 -4 14 9 3 11 -9 12 -17 5 -30z m-445 -10 c3 -5 2 -10 -4 -10 -5 0
-18 -3 -28 -7 -16 -6 -16 -5 -4 10 15 19 27 22 36 7z m435 -60 c-30 -38 -50
-54 -34 -27 17 27 59 76 62 72 3 -2 -10 -22 -28 -45z m-938 -72 c-2 -10 -8
-15 -13 -12 -14 8 -11 31 5 31 8 0 11 -8 8 -19z m939 -83 c14 -49 13 -100 -1
-123 -10 -15 -11 -15 -6 0 4 13 -3 16 -39 16 -39 0 -46 -3 -60 -30 -19 -39
-19 -47 0 -22 13 18 14 17 15 -18 0 -21 5 -38 10 -38 6 0 10 9 10 21 0 12 4
17 11 14 6 -4 8 -13 5 -21 -7 -17 6 -18 22 -2 8 8 12 8 12 1 0 -6 -7 -13 -15
-17 -9 -3 -15 -18 -15 -34 0 -16 -9 -37 -20 -47 -18 -17 -20 -17 -14 -2 5 13
2 16 -10 11 -10 -4 -16 -1 -16 7 0 8 -8 23 -16 34 -16 19 -16 19 -9 -5 l8 -25
-28 28 c-15 15 -25 30 -22 34 4 3 7 1 7 -6 0 -7 5 -9 10 -6 6 4 8 10 5 15 -3
5 -1 11 5 15 5 3 10 11 10 16 0 6 -4 7 -10 4 -5 -3 -10 1 -10 10 0 11 5 15 15
11 13 -5 14 -2 4 15 -12 23 0 39 30 39 7 0 11 6 7 15 -3 8 -1 15 4 15 6 0 10
7 10 15 0 8 -6 14 -12 13 -8 -2 -12 5 -10 16 3 17 2 18 -12 7 -9 -8 -16 -10
-16 -5 1 34 107 104 122 81 5 -7 13 -30 19 -52z m-210 -154 c-8 -5 -11 -16 -8
-25 4 -9 3 -16 -2 -16 -14 0 -20 39 -7 44 20 8 32 6 17 -3z m35 -103 c4 -7 3
-8 -4 -4 -7 4 -12 3 -12 -3 0 -5 5 -13 10 -16 6 -3 10 -13 10 -21 0 -23 -17
-8 -28 26 -9 24 -8 30 3 30 8 0 17 -5 21 -12z m-53 -43 c-3 -9 -8 -14 -10 -11
-3 3 -2 9 2 15 9 16 15 13 8 -4z m-213 -35 c0 -5 -2 -10 -4 -10 -3 0 -8 5 -11
10 -3 6 -1 10 4 10 6 0 11 -4 11 -10z m267 -22 c-3 -7 -5 -2 -5 12 0 14 2 19
5 13 2 -7 2 -19 0 -25z m103 -21 c0 -8 -9 -24 -20 -37 -11 -13 -20 -32 -21
-44 -1 -16 -3 -15 -9 8 -8 24 -5 33 18 57 32 33 32 33 32 16z m-790 -242 c0
-8 -7 -15 -15 -15 -16 0 -20 12 -8 23 11 12 23 8 23 -8z m453 -9 c24 -6 27 -9
17 -21 -10 -12 -7 -14 19 -10 17 2 29 0 26 -5 -3 -5 -1 -11 4 -14 5 -3 12 2
16 12 7 14 9 13 14 -8 7 -27 -26 -100 -45 -100 -22 0 -36 27 -25 47 5 11 6 25
1 32 -11 18 -33 3 -26 -18 4 -12 2 -11 -7 3 -7 10 -22 34 -34 53 -28 41 -28
46 -5 40 9 -3 30 -8 45 -11z m74 -12 c-3 -3 -12 -4 -19 -1 -8 3 -5 6 6 6 11 1
17 -2 13 -5z m-637 -19 c-14 -17 -30 -20 -30 -4 0 5 4 8 9 4 5 -3 12 -1 16 5
3 5 9 10 12 10 3 0 0 -7 -7 -15z m-91 -50 c1 -17 -1 -17 -9 -5 -5 8 -9 26 -9
40 0 23 1 23 9 5 5 -11 9 -29 9 -40z m47 37 c1 -7 0 -8 -3 -2 -2 5 -9 8 -14 4
-5 -3 -9 0 -9 6 0 15 23 7 26 -8z m74 -39 c17 -9 28 -27 36 -58 11 -41 10 -46
-7 -56 -10 -5 -20 -7 -20 -4 -1 3 -2 9 -3 15 0 5 -7 15 -15 22 -12 11 -13 10
-9 -2 18 -51 17 -56 -3 -68 -25 -16 -27 -14 -39 27 -7 24 -6 31 5 31 8 0 19 9
25 21 11 19 13 19 29 4 17 -15 18 -14 14 10 -3 14 -12 25 -19 25 -8 0 -14 5
-14 11 0 5 -5 7 -12 3 -7 -4 -8 -3 -4 5 4 6 0 14 -8 17 -9 3 -16 10 -16 15 0
9 19 3 60 -18z m392 -174 c3 -16 1 -29 -4 -29 -4 0 -8 5 -8 10 0 6 -11 16 -25
22 -33 15 -32 23 4 24 25 1 30 -3 33 -27z m-15 -61 c-3 -8 -6 -5 -6 6 -1 11 2
17 5 13 3 -3 4 -12 1 -19z m-707 -347 c0 -11 -5 -23 -12 -27 -6 -4 -8 -3 -4 4
3 6 2 13 -4 17 -5 3 -10 1 -10 -6 0 -7 -3 -10 -6 -6 -11 10 4 37 21 37 8 0 15
-9 15 -19z m554 -61 c-4 -17 -11 -33 -17 -37 -6 -4 -8 0 -4 10 4 11 1 17 -8
17 -8 0 -15 -3 -15 -7 0 -5 -14 -16 -30 -25 -42 -24 -37 -5 8 29 31 23 36 33
34 58 l-4 30 21 -22 c16 -16 19 -30 15 -53z m-609 30 c-3 -5 -12 -10 -18 -10
-7 0 -6 4 3 10 19 12 23 12 15 0z m-107 -18 c29 -16 31 -20 19 -36 -12 -16
-18 -17 -55 -5 -23 7 -42 18 -42 26 0 8 -4 12 -9 8 -5 -3 -12 -1 -15 4 -6 9
17 17 54 19 8 1 30 -7 48 -16z m499 -20 c15 -10 33 -57 33 -88 0 -23 -1 -24
-23 -10 -15 10 -27 12 -37 6 -24 -16 -33 -12 -27 13 3 12 0 30 -8 41 -11 14
-11 21 -2 32 13 15 45 18 64 6z m83 -149 c0 -15 -2 -16 -10 -3 -8 13 -10 12
-10 -2 0 -24 -16 -23 -23 2 -4 16 0 20 19 20 16 0 24 -6 24 -17z m-43 -75 c-3
-8 -6 -5 -6 6 -1 11 2 17 5 13 3 -3 4 -12 1 -19z"/>
<path d="M8962 7034 c13 -25 24 -41 26 -36 3 9 -36 82 -44 82 -2 0 6 -21 18
-46z"/>
<path d="M8720 6110 c0 -11 2 -20 4 -20 2 0 6 9 9 20 3 11 1 20 -4 20 -5 0 -9
-9 -9 -20z"/>
<path d="M8666 6041 c-3 -4 6 -6 19 -3 14 2 25 6 25 8 0 8 -39 4 -44 -5z"/>
<path d="M8273 5650 c3 -12 1 -35 -4 -52 -10 -35 -3 -51 11 -28 14 21 12 100
-1 100 -6 0 -9 -9 -6 -20z"/>
<path d="M8240 5651 c0 -5 -9 -12 -20 -16 -19 -6 -19 -7 2 -50 12 -25 24 -43
26 -41 2 2 -4 18 -12 35 -16 30 -22 60 -9 48 7 -8 33 11 33 24 0 5 -4 9 -10 9
-5 0 -10 -4 -10 -9z"/>
<path d="M7450 5380 c-10 -6 -11 -10 -3 -10 7 0 10 -7 7 -15 -4 -8 -1 -15 5
-15 15 0 26 29 15 40 -5 5 -15 5 -24 0z"/>
<path d="M3331 4104 c0 -11 3 -14 6 -6 3 7 2 16 -1 19 -3 4 -6 -2 -5 -13z"/>
<path d="M3280 3995 c-8 -10 -21 -13 -34 -9 -21 6 -21 6 -1 -10 11 -8 27 -15
35 -16 13 0 13 1 0 10 -12 8 -11 10 8 10 12 0 22 4 22 9 0 18 -18 21 -30 6z"/>
<path d="M3264 3929 c-3 -6 -2 -15 4 -21 6 -6 12 -6 16 1 4 6 2 11 -4 11 -6 0
-8 5 -5 10 3 6 4 10 1 10 -3 0 -8 -5 -12 -11z"/>
<path d="M3200 3919 c0 -5 5 -7 10 -4 6 3 10 8 10 11 0 2 -4 4 -10 4 -5 0 -10
-5 -10 -11z"/>
<path d="M2740 3906 c0 -2 7 -9 15 -16 13 -11 14 -10 9 4 -5 14 -24 23 -24 12z"/>
<path d="M3205 3890 c-3 -5 -1 -10 4 -10 6 0 11 5 11 10 0 6 -2 10 -4 10 -3 0
-8 -4 -11 -10z"/>
<path d="M1078 3773 c6 -2 18 -2 25 0 6 3 1 5 -13 5 -14 0 -19 -2 -12 -5z"/>
<path d="M2985 3550 c3 -5 8 -10 11 -10 2 0 4 5 4 10 0 6 -5 10 -11 10 -5 0
-7 -4 -4 -10z"/>
<path d="M3210 3525 c0 -8 5 -15 10 -15 6 0 10 7 10 15 0 8 -4 15 -10 15 -5 0
-10 -7 -10 -15z"/>
<path d="M2972 3460 c0 -14 2 -19 5 -12 2 6 2 18 0 25 -3 6 -5 1 -5 -13z"/>
<path d="M1135 3230 c3 -5 15 -10 26 -10 10 0 19 5 19 10 0 6 -12 10 -26 10
-14 0 -23 -4 -19 -10z"/>
<path d="M1200 3232 c0 -5 15 -8 32 -7 20 1 38 -4 45 -14 10 -13 14 -14 22 -2
5 7 10 9 12 3 2 -5 15 -12 29 -16 14 -3 19 -3 13 0 -22 10 -14 21 15 21 15 0
52 3 82 7 30 3 47 3 37 -2 -16 -6 -12 -11 22 -30 29 -16 40 -19 44 -10 3 8 9
1 16 -14 12 -32 21 -37 19 -10 -3 37 2 63 12 57 5 -3 20 1 32 9 21 15 4 16
-205 16 -125 0 -227 -4 -227 -8z"/>
<path d="M1673 3233 c6 -6 119 -12 230 -13 34 0 46 -3 41 -12 -5 -8 -2 -9 11
-4 38 14 109 20 101 8 -4 -7 -3 -12 3 -12 5 0 18 -3 28 -6 15 -5 15 -4 3 5
-19 13 -13 14 80 17 41 1 85 4 97 6 72 14 2 18 -282 18 -175 0 -315 -3 -312
-7z"/>
<path d="M1155 3200 c-3 -5 -1 -10 4 -10 6 0 11 5 11 10 0 6 -2 10 -4 10 -3 0
-8 -4 -11 -10z"/>
<path d="M1685 3200 c-3 -5 -3 -10 2 -10 4 0 18 -3 31 -6 13 -4 22 -2 22 5 0
7 -5 9 -10 6 -6 -4 -17 -2 -25 5 -9 7 -15 8 -20 0z"/>
<path d="M1988 3193 c-16 -2 -28 -8 -28 -14 0 -13 44 -7 59 8 6 7 8 12 4 12
-4 -1 -20 -4 -35 -6z"/>
<path d="M1720 3159 c0 -5 5 -7 10 -4 6 3 10 8 10 11 0 2 -4 4 -10 4 -5 0 -10
-5 -10 -11z"/>
<path d="M1110 3142 c0 -6 -7 -12 -17 -14 -14 -3 -14 -5 3 -18 10 -8 16 -10
12 -6 -4 5 -3 15 4 23 6 7 8 16 4 20 -3 3 -6 1 -6 -5z"/>
<path d="M1970 3139 c0 -5 5 -7 10 -4 6 3 10 8 10 11 0 2 -4 4 -10 4 -5 0 -10
-5 -10 -11z"/>
<path d="M1567 3123 c-4 -3 -7 -11 -7 -17 0 -6 5 -5 12 2 6 6 9 14 7 17 -3 3
-9 2 -12 -2z"/>
<path d="M1348 3112 c7 -5 10 -16 6 -25 -5 -14 -2 -16 17 -9 13 5 25 15 27 22
3 9 -1 11 -12 7 -9 -4 -16 -2 -16 3 0 6 -8 10 -17 10 -13 0 -15 -2 -5 -8z"/>
<path d="M1851 3104 c0 -11 3 -14 6 -6 3 7 2 16 -1 19 -3 4 -6 -2 -5 -13z"/>
<path d="M1880 3116 c0 -2 7 -6 15 -10 8 -3 15 -1 15 4 0 6 -7 10 -15 10 -8 0
-15 -2 -15 -4z"/>
<path d="M2140 3104 c0 -8 5 -12 10 -9 6 4 8 11 5 16 -9 14 -15 11 -15 -7z"/>
<path d="M1317 3070 c-5 -21 -14 -31 -32 -36 -20 -5 -25 -12 -25 -35 0 -33 35
-55 56 -35 9 8 4 14 -17 23 -32 13 -39 28 -10 20 22 -5 54 11 46 24 -4 5 -2 9
3 9 11 0 4 48 -8 55 -4 3 -10 -9 -13 -25z"/>
<path d="M1836 3077 c3 -10 9 -15 12 -12 3 3 0 11 -7 18 -10 9 -11 8 -5 -6z"/>
<path d="M1230 3059 c0 -6 7 -9 15 -5 8 3 15 1 15 -4 0 -5 7 -7 16 -3 13 5 13
7 2 14 -19 12 -48 11 -48 -2z"/>
<path d="M2106 3048 c3 -4 9 -8 15 -8 5 0 9 4 9 8 0 5 -7 9 -15 9 -8 0 -12 -4
-9 -9z"/>
<path d="M1106 3037 c3 -10 9 -15 12 -12 3 3 0 11 -7 18 -10 9 -11 8 -5 -6z"/>
<path d="M1885 3039 c-4 -6 -5 -12 -2 -15 2 -3 7 2 10 11 7 17 1 20 -8 4z"/>
<path d="M2170 3040 c0 -5 5 -10 10 -10 6 0 10 5 10 10 0 6 -4 10 -10 10 -5 0
-10 -4 -10 -10z"/>
<path d="M1045 3030 c-3 -5 -1 -10 4 -10 6 0 11 5 11 10 0 6 -2 10 -4 10 -3 0
-8 -4 -11 -10z"/>
<path d="M1638 3033 c7 -3 16 -2 19 1 4 3 -2 6 -13 5 -11 0 -14 -3 -6 -6z"/>
<path d="M1996 3028 c3 -4 9 -8 15 -8 5 0 9 4 9 8 0 5 -7 9 -15 9 -8 0 -12 -4
-9 -9z"/>
<path d="M1451 2994 c0 -11 3 -14 6 -6 3 7 2 16 -1 19 -3 4 -6 -2 -5 -13z"/>
<path d="M2155 2970 c-7 -32 9 -65 26 -54 5 3 9 -3 9 -12 0 -14 -3 -15 -12 -6
-17 17 -28 15 -28 -7 0 -26 17 -36 35 -21 12 10 15 10 15 1 0 -9 4 -9 13 1 16
16 18 48 4 66 -7 9 -3 12 14 13 l24 0 -24 10 c-13 5 -25 8 -26 7 -1 -2 -7 -12
-14 -23 -11 -19 -12 -19 -6 3 4 14 2 22 -5 22 -7 0 -10 7 -6 15 3 8 1 15 -4
15 -4 0 -11 -14 -15 -30z m52 -82 c-3 -8 -6 -5 -6 6 -1 11 2 17 5 13 3 -3 4
-12 1 -19z"/>
<path d="M1847 2984 c-3 -3 -3 -13 0 -22 4 -10 2 -13 -5 -8 -7 4 -12 1 -12 -7
0 -7 11 -19 25 -25 21 -10 25 -9 25 3 0 8 -5 15 -11 15 -6 0 -8 8 -4 19 6 19
-7 36 -18 25z"/>
<path d="M1150 2959 c0 -5 4 -7 10 -4 6 4 8 -7 5 -27 -5 -30 -4 -31 6 -11 12
23 6 53 -11 53 -5 0 -10 -5 -10 -11z"/>
<path d="M1700 2950 c0 -5 5 -10 11 -10 5 0 7 5 4 10 -3 6 -8 10 -11 10 -2 0
-4 -4 -4 -10z"/>
<path d="M1924 2942 c-14 -9 -24 -38 -17 -46 3 -3 7 -19 8 -36 3 -39 24 -65
39 -50 8 8 7 13 -3 19 -9 6 -10 10 -2 12 7 3 13 15 14 27 1 17 7 22 24 20 12
-2 23 1 25 7 2 6 -13 9 -35 7 -35 -3 -38 -2 -33 16 7 22 -4 35 -20 24z"/>
<path d="M1116 2893 c-6 -14 -5 -15 5 -6 7 7 10 15 7 18 -3 3 -9 -2 -12 -12z"/>
<path d="M1872 2880 c0 -14 2 -19 5 -12 2 6 2 18 0 25 -3 6 -5 1 -5 -13z"/>
<path d="M1162 2873 c-8 -8 -19 -12 -25 -10 -12 4 -37 -16 -37 -28 0 -3 9 -3
21 0 21 7 59 -25 59 -51 0 -7 5 -16 11 -20 6 -3 10 1 9 12 -4 34 0 44 16 44 8
0 12 5 9 10 -3 6 -17 7 -31 4 -22 -6 -26 -1 -23 24 1 4 5 6 10 5 11 -4 12 14
2 20 -5 3 -14 -2 -21 -10z"/>
<path d="M1470 2879 c0 -5 5 -7 10 -4 6 3 10 8 10 11 0 2 -4 4 -10 4 -5 0 -10
-5 -10 -11z"/>
<path d="M2108 2883 c7 -3 16 -2 19 1 4 3 -2 6 -13 5 -11 0 -14 -3 -6 -6z"/>
<path d="M2325 2880 c3 -5 8 -10 11 -10 2 0 4 5 4 10 0 6 -5 10 -11 10 -5 0
-7 -4 -4 -10z"/>
<path d="M2000 2860 c0 -5 7 -10 15 -10 8 0 15 5 15 10 0 6 -7 10 -15 10 -8 0
-15 -4 -15 -10z"/>
<path d="M2108 2863 c6 -2 18 -2 25 0 6 3 1 5 -13 5 -14 0 -19 -2 -12 -5z"/>
<path d="M2275 2830 c3 -5 8 -10 11 -10 2 0 4 5 4 10 0 6 -5 10 -11 10 -5 0
-7 -4 -4 -10z"/>
<path d="M1335 2810 c3 -5 8 -10 11 -10 2 0 4 5 4 10 0 6 -5 10 -11 10 -5 0
-7 -4 -4 -10z"/>
<path d="M2140 2816 c0 -2 7 -7 16 -10 8 -3 12 -2 9 4 -6 10 -25 14 -25 6z"/>
<path d="M1910 2798 c0 -21 -16 -24 -23 -5 -4 9 -8 9 -16 -3 -13 -19 -5 -30
22 -31 20 -1 20 -2 -3 -9 -23 -7 -23 -8 9 -9 25 -1 32 3 28 13 -3 8 1 17 10
20 22 9 28 -1 13 -19 -10 -13 -9 -15 9 -15 23 0 24 3 15 38 -5 17 -11 21 -26
16 -13 -4 -24 -1 -29 7 -7 11 -9 10 -9 -3z"/>
<path d="M1445 2770 c3 -5 8 -10 11 -10 2 0 4 5 4 10 0 6 -5 10 -11 10 -5 0
-7 -4 -4 -10z"/>
<path d="M2000 2755 c0 -8 5 -15 10 -15 6 0 10 7 10 15 0 8 -4 15 -10 15 -5 0
-10 -7 -10 -15z"/>
<path d="M1248 2743 c6 -2 18 -2 25 0 6 3 1 5 -13 5 -14 0 -19 -2 -12 -5z"/>
<path d="M2098 2743 c6 -2 18 -2 25 0 6 3 1 5 -13 5 -14 0 -19 -2 -12 -5z"/>
<path d="M3628 5303 c7 -3 16 -2 19 1 4 3 -2 6 -13 5 -11 0 -14 -3 -6 -6z"/>
<path d="M3933 5303 c-15 -5 -17 -23 -4 -23 5 0 11 7 15 15 3 8 4 15 3 14 -1
0 -8 -3 -14 -6z"/>
<path d="M3820 4835 l0 -175 165 0 165 0 1 33 c1 17 2 96 3 174 l1 141 -167 2
-168 1 0 -176z"/>
<path d="M3940 3100 c0 -5 5 -10 11 -10 5 0 7 5 4 10 -3 6 -8 10 -11 10 -2 0
-4 -4 -4 -10z"/>
<path d="M3915 2991 c5 -32 4 -42 -5 -36 -8 5 -7 1 2 -14 12 -19 13 -19 23 -3
5 10 17 16 26 14 21 -4 32 33 14 48 -10 8 -14 7 -18 -7 -3 -11 -5 -7 -7 12 -1
17 -4 24 -7 17 -4 -10 -8 -10 -20 0 -14 11 -15 7 -8 -31z"/>
<path d="M3844 3004 c3 -9 6 -18 6 -20 0 -2 5 -4 11 -4 8 0 8 5 -1 15 -19 23
-3 18 20 -7 11 -12 23 -18 27 -14 10 9 -34 46 -54 46 -10 0 -13 -6 -9 -16z"/>
<path d="M3980 2929 c0 -4 7 -9 15 -13 9 -3 15 0 15 8 0 7 -7 13 -15 13 -8 0
-15 -4 -15 -8z"/>
<path d="M7758 4623 c7 -3 16 -2 19 1 4 3 -2 6 -13 5 -11 0 -14 -3 -6 -6z"/>
<path d="M7680 4110 c-8 -5 -11 -12 -7 -16 4 -4 13 -2 19 4 15 15 7 24 -12 12z"/>
<path d="M7675 4069 c-4 -6 -5 -12 -2 -15 2 -3 7 2 10 11 7 17 1 20 -8 4z"/>
<path d="M7556 3843 c-6 -14 -5 -15 5 -6 7 7 10 15 7 18 -3 3 -9 -2 -12 -12z"/>
<path d="M5150 3681 c0 -5 9 -7 20 -4 11 3 20 7 20 9 0 2 -9 4 -20 4 -11 0
-20 -4 -20 -9z"/>
<path d="M5152 3355 c0 -58 1 -65 10 -42 5 15 16 27 24 27 8 0 14 4 14 9 0 5
-9 7 -19 4 -17 -4 -20 1 -24 34 -2 21 -4 7 -5 -32z"/>
<path d="M5185 3270 c3 -5 8 -10 11 -10 2 0 4 5 4 10 0 6 -5 10 -11 10 -5 0
-7 -4 -4 -10z"/>
<path d="M5245 3270 c3 -5 8 -10 11 -10 2 0 4 5 4 10 0 6 -5 10 -11 10 -5 0
-7 -4 -4 -10z"/>
<path d="M6081 3254 c0 -11 3 -14 6 -6 3 7 2 16 -1 19 -3 4 -6 -2 -5 -13z"/>
<path d="M6072 3146 c7 -8 15 -12 17 -11 5 6 -10 25 -20 25 -5 0 -4 -6 3 -14z"/>
<path d="M5805 3140 c-3 -5 -1 -10 4 -10 6 0 11 5 11 10 0 6 -2 10 -4 10 -3 0
-8 -4 -11 -10z"/>
<path d="M5677 3013 c3 -9 10 -10 17 -5 6 5 18 12 26 15 8 3 1 5 -16 4 -22 -1
-30 -5 -27 -14z"/>
<path d="M5765 3010 c-18 -19 -17 -20 3 -20 15 0 22 6 22 20 0 11 -2 20 -3 20
-2 0 -12 -9 -22 -20z"/>
<path d="M5880 3009 c0 -5 5 -7 10 -4 6 3 10 8 10 11 0 2 -4 4 -10 4 -5 0 -10
-5 -10 -11z"/>
<path d="M5950 3010 c0 -5 5 -10 10 -10 6 0 10 5 10 10 0 6 -4 10 -10 10 -5 0
-10 -4 -10 -10z"/>
<path d="M5954 2975 c-18 -14 -18 -14 4 -8 12 3 22 9 22 14 0 12 -3 11 -26 -6z"/>
<path d="M5545 2960 c3 -5 18 -10 32 -10 32 0 28 5 -10 14 -19 4 -26 3 -22 -4z"/>
<path d="M5976 2946 c3 -8 -2 -16 -12 -18 -15 -3 -14 -7 9 -33 25 -28 26 -29
27 -8 0 12 -5 25 -10 28 -8 5 -8 11 -1 19 11 13 5 26 -10 26 -5 0 -6 -6 -3
-14z"/>
<path d="M5911 2926 c-9 -10 -22 -14 -37 -10 -19 5 -26 1 -34 -21 -13 -34 -13
-34 10 -28 13 3 20 0 20 -8 0 -11 2 -11 10 1 9 13 11 13 20 0 6 -9 21 -14 44
-12 40 4 66 -15 66 -47 0 -15 6 -21 21 -21 25 0 59 17 59 30 0 16 -33 50 -49
50 -11 0 -11 -3 2 -18 21 -23 22 -42 3 -42 -10 0 -12 7 -8 22 3 14 2 19 -6 14
-7 -4 -12 -1 -12 9 0 14 -9 16 -55 13 -60 -3 -79 11 -34 27 27 10 28 10 10 33
-15 21 -19 22 -30 8z m-34 -35 c0 -11 -5 -17 -9 -15 -11 7 -10 34 1 34 6 0 9
-9 8 -19z"/>
<path d="M5405 2860 c-3 -5 1 -10 9 -10 9 0 16 5 16 10 0 6 -4 10 -9 10 -6 0
-13 -4 -16 -10z"/>
<path d="M5706 2835 c4 -8 8 -15 10 -15 2 0 4 7 4 15 0 8 -4 15 -10 15 -5 0
-7 -7 -4 -15z"/>
<path d="M5866 2825 c-3 -8 -11 -13 -18 -11 -7 1 -10 1 -5 -1 4 -3 5 -8 3 -12
-3 -4 3 -7 12 -6 28 3 52 16 52 28 0 7 -4 7 -12 -1 -17 -17 -33 -15 -18 3 7 9
8 15 2 15 -5 0 -12 -7 -16 -15z"/>
<path d="M5768 2783 c7 -3 16 -2 19 1 4 3 -2 6 -13 5 -11 0 -14 -3 -6 -6z"/>
<path d="M5818 2773 c18 -7 15 -23 -5 -24 -12 0 -14 -2 -5 -6 17 -7 63 17 56
29 -3 4 -17 8 -32 7 -15 0 -21 -3 -14 -6z"/>
<path d="M5228 3013 c6 -2 18 -2 25 0 6 3 1 5 -13 5 -14 0 -19 -2 -12 -5z"/>
<path d="M5265 2980 c3 -5 8 -10 11 -10 2 0 4 5 4 10 0 6 -5 10 -11 10 -5 0
-7 -4 -4 -10z"/>
<path d="M5218 2948 c9 -9 15 -9 24 0 9 9 7 12 -12 12 -19 0 -21 -3 -12 -12z"/>
<path d="M5474 2555 c-12 -9 -14 -14 -6 -15 7 0 10 -5 7 -11 -4 -6 2 -5 14 3
12 7 21 16 21 20 0 15 -18 17 -36 3z"/>
<path d="M6111 2004 c0 -11 3 -14 6 -6 3 7 2 16 -1 19 -3 4 -6 -2 -5 -13z"/>
<path d="M6570 1639 c0 -5 5 -7 10 -4 6 3 10 8 10 11 0 2 -4 4 -10 4 -5 0 -10
-5 -10 -11z"/>
<path d="M9540 7190 c0 -5 5 -10 11 -10 5 0 7 5 4 10 -3 6 -8 10 -11 10 -2 0
-4 -4 -4 -10z"/>
<path d="M10124 7185 c2 -7 -3 -12 -12 -11 -11 1 -28 -22 -50 -67 -41 -84 -93
-136 -128 -129 -21 4 -24 1 -24 -23 0 -17 -9 -34 -25 -47 -14 -11 -25 -28 -25
-39 0 -19 -38 -65 -46 -56 -3 2 0 17 6 33 l10 29 -21 -25 c-16 -19 -19 -20
-15 -6 6 16 4 17 -9 6 -14 -12 -16 -10 -10 16 6 27 5 26 -10 -6 -9 -19 -17
-48 -19 -65 -1 -16 -5 -36 -10 -44 -6 -9 -5 -12 0 -8 6 3 16 1 24 -4 12 -7 11
-10 -7 -15 -13 -4 -23 -13 -23 -22 0 -12 7 -9 28 10 l27 27 40 -25 c52 -31 64
-30 78 6 7 18 19 30 30 30 23 0 33 28 18 52 -14 23 -1 78 29 123 23 35 29 45
57 100 16 30 27 40 47 41 31 1 57 21 50 38 -3 8 5 16 19 20 36 9 44 36 11 36
-20 0 -24 4 -20 18 4 13 1 19 -9 19 -9 0 -14 -6 -11 -12z"/>
<path d="M10678 7170 c-22 -39 -15 -39 12 0 12 17 18 30 13 30 -4 0 -16 -14
-25 -30z"/>
<path d="M10717 7174 c-13 -18 -14 -22 -3 -18 8 3 17 13 20 21 10 25 3 23 -17
-3z"/>
<path d="M10747 7148 c-30 -57 -14 -46 22 15 13 20 19 37 14 37 -4 0 -20 -24
-36 -52z"/>
<path d="M10868 7066 c-43 -73 -78 -138 -78 -144 0 -6 -4 -12 -9 -14 -5 -1
-22 -28 -39 -58 -16 -30 -67 -120 -113 -200 -45 -80 -118 -215 -162 -300 -43
-85 -96 -177 -116 -205 -53 -72 -261 -419 -519 -870 -84 -148 -158 -275 -162
-280 -8 -9 -137 -235 -195 -341 -13 -23 -34 -59 -48 -80 -13 -22 -41 -68 -60
-104 -52 -93 -55 -97 -65 -83 -6 9 -14 3 -26 -19 -11 -17 -14 -28 -7 -24 6 4
11 2 11 -3 0 -13 -84 -165 -134 -244 -20 -31 -36 -59 -36 -63 0 -4 -12 -22
-26 -41 -14 -19 -23 -37 -20 -40 3 -4 -1 -14 -10 -24 -23 -26 -130 -205 -429
-719 -59 -102 -116 -197 -126 -212 -11 -15 -19 -30 -19 -33 0 -3 -49 -88 -109
-188 -60 -100 -119 -200 -131 -222 -27 -49 -122 -212 -163 -280 -16 -27 -55
-93 -85 -145 -31 -52 -70 -120 -88 -150 -18 -30 -42 -74 -53 -98 -11 -24 -29
-55 -39 -70 -11 -15 -28 -43 -39 -62 -11 -19 -57 -98 -103 -175 -45 -77 -96
-163 -113 -192 -17 -29 -33 -50 -35 -48 -3 2 3 16 12 29 18 28 20 36 8 36 -4
0 -28 -34 -52 -75 -31 -53 -50 -75 -64 -75 -20 0 -20 0 0 -14 17 -13 18 -16 3
-28 -9 -7 -27 -33 -41 -58 -14 -25 -121 -207 -238 -405 -117 -198 -264 -447
-326 -552 l-113 -193 48 0 c45 0 49 2 70 40 12 22 24 40 27 40 2 0 -5 -18 -16
-40 l-20 -40 32 0 c32 0 36 5 112 138 43 75 109 189 146 252 75 127 93 158
157 273 24 43 54 95 67 115 13 20 115 195 226 387 111 193 233 402 270 465 37
63 113 194 168 290 55 96 138 240 185 320 46 80 135 233 197 340 62 107 190
328 285 490 94 162 240 414 324 560 85 146 184 317 221 380 37 63 100 171 140
240 40 69 98 170 130 225 32 55 105 181 162 280 58 99 125 216 150 260 24 44
98 172 163 285 65 113 146 255 180 315 34 61 72 126 83 146 11 20 85 148 165
285 206 356 215 373 320 593 12 24 34 56 49 72 16 15 43 54 62 86 18 32 78
136 134 231 89 152 98 172 79 172 -18 0 -37 -26 -97 -132 -41 -73 -80 -142
-87 -153 -7 -11 -15 -27 -19 -35 -4 -8 -40 -67 -80 -131 -40 -63 -86 -144
-103 -179 -17 -35 -37 -70 -45 -79 -7 -9 -27 -40 -42 -69 -16 -29 -39 -69 -51
-90 -12 -20 -36 -63 -53 -95 -17 -32 -51 -89 -75 -128 -25 -38 -45 -72 -45
-74 0 -3 -18 -34 -39 -68 -35 -55 -188 -318 -246 -422 -81 -146 -107 -192
-115 -205 -19 -30 -105 -176 -125 -211 -34 -62 -78 -138 -133 -230 -29 -49
-61 -105 -72 -125 -26 -44 -286 -497 -314 -545 -54 -91 -144 -242 -193 -322
-29 -48 -53 -92 -53 -97 0 -6 -5 -10 -11 -10 -5 0 -8 3 -6 8 2 4 49 84 104
177 55 94 119 204 143 245 48 85 52 91 252 435 80 138 206 356 280 485 74 129
168 291 208 360 40 69 107 186 150 260 104 184 227 397 325 565 106 181 232
399 257 444 25 44 113 196 185 316 29 50 53 94 53 98 0 4 -8 7 -17 7 -12 0
-43 -43 -95 -134z m-1904 -3382 c-76 -133 -126 -214 -131 -214 -3 0 4 15 14
33 10 17 52 89 93 159 41 70 75 126 77 124 2 -2 -22 -48 -53 -102z m-272 -468
c-99 -167 -96 -162 -202 -346 -40 -69 -79 -134 -86 -145 -22 -32 -16 -3 8 35
12 19 67 114 123 210 177 307 239 410 243 405 3 -2 -36 -74 -86 -159z m-324
-551 c-6 -14 -13 -23 -15 -21 -5 5 15 46 22 46 3 0 -1 -11 -7 -25z m-28 -52
c0 -5 -10 -19 -21 -33 l-21 -25 18 33 c18 32 24 38 24 25z m-63 -105 c-71
-128 -219 -378 -224 -378 -5 0 47 96 112 205 23 39 57 97 75 130 34 62 50 85
57 85 2 0 -7 -19 -20 -42z m-258 -449 c-18 -30 -49 -83 -69 -119 -20 -36 -46
-82 -58 -102 -12 -21 -31 -55 -43 -75 -12 -21 -25 -42 -29 -48 -9 -11 -55 -92
-100 -175 -17 -30 -47 -82 -68 -115 -36 -57 -80 -133 -147 -251 -29 -51 -97
-167 -134 -229 -22 -37 -200 -342 -215 -370 -49 -88 -159 -265 -163 -262 -4 4
96 178 392 682 48 83 97 166 109 186 12 20 98 168 191 328 94 160 181 311 194
334 90 157 164 278 168 274 2 -3 -11 -29 -28 -58z m-569 -858 c-23 -39 -44
-71 -47 -71 -4 0 20 47 74 143 3 5 7 6 10 3 3 -2 -14 -36 -37 -75z m-74 -125
c-50 -90 -188 -316 -192 -316 -6 0 -15 -15 105 188 56 94 104 172 107 172 3 0
-7 -20 -20 -44z m-196 -333 c0 -5 -10 -19 -21 -33 l-21 -25 18 33 c18 32 24
38 24 25z m-66 -112 c-29 -44 -42 -55 -23 -18 22 40 42 68 46 63 3 -2 -8 -23
-23 -45z m-48 -79 c-17 -16 -18 -16 -5 5 7 12 15 20 18 17 3 -2 -3 -12 -13
-22z m-94 -284 c-11 -18 -29 -49 -41 -68 -31 -51 -26 -27 6 28 30 53 43 72 50
72 3 0 -4 -15 -15 -32z"/>
<path d="M10650 7170 c-6 -11 -8 -20 -6 -20 3 0 10 9 16 20 6 11 8 20 6 20 -3
0 -10 -9 -16 -20z"/>
<path d="M10632 7086 c-18 -24 -32 -48 -32 -52 0 -5 12 9 26 30 18 27 29 35
34 26 6 -9 11 -7 19 8 16 30 13 39 -5 16 -13 -16 -15 -16 -10 -1 8 26 2 21
-32 -27z"/>
<path d="M10603 7093 c-15 -5 -17 -23 -4 -23 5 0 11 7 15 15 3 8 4 15 3 14 -1
0 -8 -3 -14 -6z"/>
<path d="M9885 7067 c-10 -8 -15 -19 -12 -24 4 -6 -11 -23 -32 -37 -38 -27
-59 -65 -41 -76 5 -3 13 -17 19 -30 9 -24 10 -24 10 8 1 18 -4 43 -10 54 -10
18 -9 20 7 14 10 -4 15 -4 11 0 -10 10 12 34 27 28 6 -2 22 14 35 36 23 41 19
50 -14 27z"/>
<path d="M10636 7044 c-5 -14 -4 -15 9 -4 17 14 19 20 6 20 -5 0 -12 -7 -15
-16z"/>
<path d="M9627 7026 c-4 -10 -1 -13 9 -9 7 3 14 9 14 14 0 14 -17 10 -23 -5z"/>
<path d="M9730 7025 c7 -8 16 -15 20 -15 3 0 7 7 7 15 0 8 -9 15 -20 15 -16 0
-17 -3 -7 -15z"/>
<path d="M10557 7013 c-2 -5 -17 -30 -32 -58 -16 -27 -24 -45 -18 -40 14 14
66 105 60 105 -3 0 -8 -3 -10 -7z"/>
<path d="M10584 7008 c-4 -7 -14 -24 -22 -38 -14 -24 -13 -24 3 -5 20 24 37
55 31 55 -3 0 -8 -6 -12 -12z"/>
<path d="M10596 6969 c-10 -17 -16 -33 -13 -36 3 -3 13 9 22 27 21 41 14 48
-9 9z"/>
<path d="M10634 6958 c-35 -39 -83 -128 -70 -128 3 0 25 34 50 75 25 41 44 75
43 75 -2 0 -12 -10 -23 -22z"/>
<path d="M10434 6755 c-115 -195 -159 -270 -528 -887 -434 -727 -448 -751
-579 -980 -15 -26 -23 -49 -18 -52 5 -4 43 51 84 121 100 174 366 626 647
1103 127 217 250 427 272 465 21 39 52 91 68 117 16 26 43 73 61 105 18 32 50
86 72 121 22 35 37 65 35 68 -3 2 -54 -79 -114 -181z"/>
<path d="M10540 6877 c-24 -41 -46 -86 -36 -77 10 11 76 110 76 115 0 16 -18
-1 -40 -38z"/>
<path d="M10480 6880 c-6 -11 -8 -20 -6 -20 3 0 10 9 16 20 6 11 8 20 6 20 -3
0 -10 -9 -16 -20z"/>
<path d="M10441 6814 c-12 -19 -16 -32 -11 -29 11 7 43 65 36 65 -2 0 -13 -16
-25 -36z"/>
<path d="M10547 6813 c-4 -3 -7 -11 -7 -17 0 -6 5 -5 12 2 6 6 9 14 7 17 -3 3
-9 2 -12 -2z"/>
<path d="M9585 6790 c3 -5 8 -10 11 -10 2 0 4 5 4 10 0 6 -5 10 -11 10 -5 0
-7 -4 -4 -10z"/>
<path d="M9710 6769 c0 -5 5 -7 10 -4 6 3 10 8 10 11 0 2 -4 4 -10 4 -5 0 -10
-5 -10 -11z"/>
<path d="M9630 6754 c0 -8 5 -12 10 -9 6 4 8 11 5 16 -9 14 -15 11 -15 -7z"/>
<path d="M10450 6727 c-12 -23 -39 -69 -60 -102 -62 -101 -106 -177 -139 -240
-37 -71 -52 -96 -140 -235 -36 -57 -69 -112 -73 -122 -4 -10 -27 -49 -52 -86
-24 -37 -67 -108 -96 -157 -28 -50 -166 -285 -306 -524 -145 -248 -251 -438
-246 -443 8 -8 49 55 146 226 19 32 31 44 36 36 5 -8 10 -9 14 -2 3 6 1 12 -6
14 -8 3 70 146 207 379 187 319 562 963 629 1080 74 128 118 211 114 214 -2 3
-15 -14 -28 -38z"/>
<path d="M10495 6750 c-3 -5 -2 -10 4 -10 6 0 8 -8 5 -17 -5 -14 -4 -15 4 -4
6 8 8 20 5 28 -6 16 -10 16 -18 3z"/>
<path d="M10416 6593 c-26 -43 -54 -89 -64 -103 -9 -13 -12 -21 -5 -17 16 10
126 188 120 193 -3 3 -26 -30 -51 -73z"/>
<path d="M9681 6598 c0 -28 2 -30 9 -13 12 28 12 45 0 45 -5 0 -10 -15 -9 -32z"/>
<path d="M9500 6613 c0 -6 8 -17 18 -24 16 -13 16 -13 2 6 -8 11 -16 22 -17
24 -2 2 -3 0 -3 -6z"/>
<path d="M9606 6549 c-27 -27 -28 -30 -13 -53 9 -14 13 -26 9 -29 -4 -2 -2 -3
4 -1 6 1 25 -5 43 -13 29 -14 34 -14 47 -1 13 13 14 22 4 57 -9 36 -30 58 -30
31 0 -5 -8 -6 -17 -3 -11 4 -12 8 -5 11 16 5 15 32 0 31 -7 0 -26 -14 -42 -30z"/>
<path d="M9530 6520 c0 -16 2 -30 4 -30 2 0 6 14 8 30 3 17 1 30 -4 30 -4 0
-8 -13 -8 -30z"/>
<path d="M9470 6524 c0 -5 5 -15 12 -22 6 -6 14 -31 18 -54 3 -26 8 -37 12
-28 6 17 -14 86 -31 103 -7 7 -11 7 -11 1z"/>
<path d="M9537 6463 c-12 -11 -8 -23 9 -23 9 0 12 -5 8 -12 -4 -7 -3 -8 5 -4
9 6 9 12 -1 24 -7 10 -13 18 -14 20 0 1 -4 -1 -7 -5z"/>
<path d="M10315 6430 c-9 -16 -13 -30 -11 -30 3 0 12 14 21 30 9 17 13 30 11
30 -3 0 -12 -13 -21 -30z"/>
<path d="M9629 6423 c-13 -16 -12 -17 4 -4 16 13 21 21 13 21 -2 0 -10 -8 -17
-17z"/>
<path d="M9295 6390 c3 -5 8 -10 11 -10 2 0 4 5 4 10 0 6 -5 10 -11 10 -5 0
-7 -4 -4 -10z"/>
<path d="M9366 6340 c-15 -26 -15 -29 -1 -24 9 4 13 9 11 12 -3 3 -1 11 6 19
6 7 9 15 6 18 -2 2 -12 -9 -22 -25z"/>
<path d="M10270 6350 c-6 -11 -8 -20 -6 -20 3 0 10 9 16 20 6 11 8 20 6 20 -3
0 -10 -9 -16 -20z"/>
<path d="M9406 6214 c-4 -9 -4 -19 -1 -22 2 -3 7 3 11 12 4 9 4 19 1 22 -2 3
-7 -3 -11 -12z"/>
<path d="M9458 6182 c-10 -2 -18 -8 -18 -13 0 -11 11 -11 30 1 18 11 11 18
-12 12z"/>
<path d="M10151 6148 c-13 -25 -24 -44 -62 -103 -38 -60 -101 -175 -95 -175 8
0 179 291 174 295 -3 3 -10 -5 -17 -17z"/>
<path d="M9130 6149 c0 -5 5 -7 10 -4 6 3 10 8 10 11 0 2 -4 4 -10 4 -5 0 -10
-5 -10 -11z"/>
<path d="M9389 6149 c-1 -8 -1 -18 0 -23 1 -4 -3 -14 -9 -21 -13 -16 1 -28 23
-19 12 4 13 12 6 36 -10 36 -19 47 -20 27z"/>
<path d="M9210 6111 c0 -6 4 -13 10 -16 6 -3 7 1 4 9 -7 18 -14 21 -14 7z"/>
<path d="M9307 6054 c-15 -15 -25 -30 -22 -34 3 -4 -2 -13 -10 -20 -17 -14
-20 -40 -5 -40 6 0 22 23 35 51 13 29 30 56 37 60 8 5 8 9 2 9 -6 0 -23 -12
-37 -26z"/>
<path d="M9255 6020 c3 -5 11 -10 16 -10 6 0 7 5 4 10 -3 6 -11 10 -16 10 -6
0 -7 -4 -4 -10z"/>
<path d="M9220 5880 c-9 -21 -10 -34 -3 -41 7 -7 12 2 16 27 8 48 3 53 -13 14z"/>
<path d="M9262 5880 c0 -14 2 -19 5 -12 2 6 2 18 0 25 -3 6 -5 1 -5 -13z"/>
<path d="M10740 5896 c0 -3 9 -10 20 -16 11 -6 20 -8 20 -6 0 3 -9 10 -20 16
-11 6 -20 8 -20 6z"/>
<path d="M9970 5840 c-6 -11 -8 -20 -6 -20 3 0 10 9 16 20 6 11 8 20 6 20 -3
0 -10 -9 -16 -20z"/>
<path d="M9193 5843 c4 -5 -5 -25 -18 -43 -18 -25 -22 -36 -13 -41 9 -6 7 -16
-10 -38 -12 -17 -22 -38 -22 -48 1 -10 13 4 28 32 25 46 30 50 60 47 21 -2 34
2 38 12 6 17 -12 56 -27 56 -6 0 -7 -4 -4 -10 3 -5 1 -10 -4 -10 -6 0 -11 9
-11 19 0 11 -5 23 -12 27 -6 4 -8 3 -5 -3z m53 -65 c5 -8 2 -9 -11 -5 -9 4
-24 2 -31 -4 -14 -11 -20 1 -7 14 10 11 41 8 49 -5z"/>
<path d="M10840 5836 c0 -3 14 -12 30 -21 17 -9 30 -13 30 -11 0 3 -13 12 -30
21 -16 9 -30 13 -30 11z"/>
<path d="M9935 5784 c-9 -14 -15 -27 -13 -30 2 -2 12 10 22 26 21 37 15 40 -9
4z"/>
<path d="M10910 5796 c0 -3 9 -10 20 -16 11 -6 20 -8 20 -6 0 3 -9 10 -20 16
-11 6 -20 8 -20 6z"/>
<path d="M10960 5765 c0 -2 18 -14 40 -25 22 -11 40 -18 40 -15 0 2 -18 14
-40 25 -22 11 -40 18 -40 15z"/>
<path d="M9898 5718 c-22 -34 -42 -74 -31 -63 14 15 55 85 50 85 -3 0 -11 -10
-19 -22z"/>
<path d="M9797 5553 c-55 -88 -127 -219 -127 -231 0 -8 56 81 103 163 19 33
46 81 61 108 46 78 22 53 -37 -40z"/>
<path d="M9010 5565 c0 -11 4 -27 10 -35 6 -10 3 -24 -10 -46 -20 -32 -18 -46
6 -38 48 14 46 11 29 50 -8 20 -13 39 -10 44 2 4 -2 16 -10 26 -14 19 -14 19
-15 -1z"/>
<path d="M9596 5403 c-6 -14 -5 -15 5 -6 7 7 10 15 7 18 -3 3 -9 -2 -12 -12z"/>
<path d="M11689 5291 c-47 -30 -93 -88 -103 -134 -9 -37 -30 -43 -62 -18 -21
16 -41 21 -88 21 -40 0 -74 6 -98 19 -36 18 -37 18 -60 -3 -23 -20 -58 -79
-58 -98 0 -5 10 -3 23 3 18 10 17 6 -8 -19 -27 -28 -53 -43 -42 -24 3 4 1 16
-3 27 -8 19 -8 19 -16 1 -4 -10 -3 -26 3 -35 7 -12 3 -25 -14 -50 -13 -19 -23
-30 -23 -25 0 5 6 18 14 29 16 24 4 70 -16 60 -7 -4 -2 2 12 14 20 16 23 22
13 32 -11 11 -13 10 -13 -4 0 -9 -5 -16 -12 -15 -7 2 -12 -4 -13 -12 0 -8 -5
-15 -12 -15 -6 0 -15 -4 -20 -9 -4 -5 -3 -6 3 -3 7 4 14 -3 18 -18 4 -14 11
-23 16 -20 5 3 7 12 4 19 -3 8 -1 17 5 21 7 4 10 -1 8 -12 -4 -26 -17 -44 -28
-38 -5 4 -9 2 -9 -4 0 -5 6 -11 13 -14 6 -2 0 -4 -14 -3 -16 0 -25 6 -22 12 2
7 -1 15 -6 19 -6 3 -8 12 -5 18 5 9 4 9 -5 1 -7 -6 -13 -20 -14 -32 0 -11 -5
-18 -9 -16 -4 3 -8 0 -8 -5 0 -6 5 -11 12 -11 6 0 8 -3 5 -6 -4 -4 -14 -1 -23
7 -16 13 -17 11 -11 -13 4 -15 3 -30 -3 -33 -6 -4 -7 1 -3 11 4 11 3 15 -5 11
-6 -4 -12 1 -14 10 -2 14 -9 9 -27 -20 -13 -21 -21 -46 -18 -57 3 -12 0 -20
-7 -20 -14 0 -50 -40 -42 -48 3 -3 14 2 23 10 10 9 24 13 31 11 6 -3 12 0 12
7 0 6 9 20 20 32 11 12 20 16 20 10 0 -7 4 -12 10 -12 5 0 7 7 4 15 -4 10 0
15 10 15 9 0 19 8 23 18 7 18 38 52 49 52 3 0 1 -7 -6 -15 -7 -9 -10 -18 -6
-22 3 -3 6 -2 6 4 0 17 31 24 49 11 9 -7 13 -8 9 -4 -10 11 11 38 23 30 5 -3
6 1 4 9 -7 17 110 130 128 124 6 -2 11 -16 10 -31 -1 -17 2 -24 9 -20 7 4 8 2
4 -5 -6 -9 -11 -9 -22 0 -10 9 -14 9 -12 1 2 -6 -14 -29 -36 -52 -32 -33 -36
-42 -26 -55 10 -12 16 -13 26 -4 19 15 18 3 -5 -55 -11 -31 -21 -44 -25 -35
-3 8 -3 4 -1 -7 3 -12 -1 -39 -9 -60 -8 -22 -17 -57 -21 -78 -4 -22 -24 -75
-46 -119 -22 -44 -38 -81 -36 -83 1 -2 21 25 43 59 28 42 43 78 47 113 9 67
51 192 93 282 29 61 39 72 59 72 14 0 25 -4 25 -10 0 -5 -4 -10 -9 -10 -5 0
-13 -9 -16 -20 -4 -11 -11 -18 -16 -15 -5 4 -9 -3 -9 -15 0 -12 -4 -19 -9 -16
-5 3 -8 -10 -8 -29 1 -19 4 -35 7 -35 9 0 80 103 86 124 3 12 15 28 26 35 18
11 20 11 15 -3 -4 -9 -3 -16 2 -16 5 0 14 -13 21 -29 9 -23 9 -34 -1 -53 -26
-49 -120 -184 -148 -214 -22 -23 -27 -34 -18 -43 6 -6 16 -11 23 -11 16 0 78
75 146 178 55 82 55 82 73 62 16 -17 26 -20 59 -14 23 3 46 14 53 23 11 13 11
11 1 -14 -16 -40 -121 -168 -162 -200 -18 -14 -54 -31 -81 -39 -49 -15 -63
-30 -105 -107 -28 -52 -102 -139 -118 -139 -6 0 -21 -18 -33 -39 -12 -22 -31
-44 -43 -49 -11 -6 -15 -11 -8 -11 17 -1 15 -28 -4 -35 -8 -3 -13 -2 -10 2 2
4 -6 12 -19 18 -19 9 -25 9 -30 -4 -3 -8 -1 -20 5 -26 8 -8 9 -6 4 8 -6 17 -2
15 29 -8 22 -17 37 -38 39 -53 2 -15 8 -28 14 -30 10 -3 180 238 245 348 29
49 29 50 7 44 -22 -6 -22 -6 2 15 134 113 180 154 180 162 0 5 5 6 10 3 6 -4
9 -3 8 2 -4 12 41 58 49 50 3 -4 1 -7 -5 -7 -7 0 -12 -5 -12 -11 0 -6 7 -8 16
-5 8 3 13 2 10 -3 -3 -5 0 -14 8 -20 10 -8 16 -8 25 2 6 8 8 17 4 20 -3 4 0 8
8 8 8 1 24 3 36 4 16 2 20 -2 15 -14 -4 -13 -1 -12 17 3 30 27 54 30 46 5 -9
-26 9 -24 29 4 16 22 16 22 6 0 -14 -29 -13 -33 5 -27 11 5 14 1 10 -12 -5
-17 -1 -9 27 51 5 11 10 34 11 50 2 24 -2 29 -15 27 -10 -2 -18 1 -18 5 0 4
-18 32 -40 61 -22 29 -40 56 -40 61 0 4 12 14 27 22 39 21 81 84 89 134 8 53
-2 74 -23 48 -13 -17 -14 -16 -9 7 10 50 -71 137 -93 101 -6 -10 -14 -10 -28
-3 -15 8 -28 5 -64 -17z m-93 -175 c0 -13 -5 -22 -9 -19 -4 3 -15 -1 -24 -9
-14 -11 -16 -11 -8 2 9 16 36 50 40 50 2 0 2 -11 1 -24z m1 -86 c18 0 17 -29
-2 -36 -8 -4 -12 -11 -8 -18 4 -7 2 -8 -5 -1 -6 6 -14 30 -17 55 -5 39 -4 42
6 23 7 -13 18 -23 26 -23z m117 21 c21 -11 44 -17 52 -14 8 3 14 0 14 -7 0 -6
-4 -8 -10 -5 -5 3 -10 1 -10 -4 0 -6 -8 -11 -17 -11 -16 0 -16 -2 -3 -11 11
-7 4 -9 -27 -7 -25 1 -48 -3 -55 -11 -11 -10 -3 -12 45 -9 31 1 57 2 57 1 0
-1 -15 -10 -32 -19 -43 -23 -79 -27 -72 -9 10 25 -13 24 -26 0 -7 -14 -20 -25
-29 -25 -14 1 -14 2 2 14 9 7 17 18 17 25 0 6 4 11 9 11 18 0 21 33 5 51 -13
15 -14 20 -2 33 18 20 37 20 82 -3z m-337 -7 c-3 -3 -12 -4 -19 -1 -8 3 -5 6
6 6 11 1 17 -2 13 -5z m133 -63 c0 -27 -18 3 -24 39 l-6 35 15 -30 c8 -16 14
-37 15 -44z m-207 -6 c-9 -19 -20 -32 -25 -29 -5 3 -2 14 6 23 9 10 16 23 16
29 0 7 4 12 10 12 5 0 2 -16 -7 -35z m377 -130 c-10 -12 -10 -18 0 -30 17 -20
5 -32 -14 -15 -14 11 -14 15 0 42 9 16 18 27 21 24 3 -3 0 -12 -7 -21z m40
-41 c0 -22 -16 -17 -17 6 -1 11 2 18 8 15 5 -4 9 -13 9 -21z m33 5 c-8 -8 -13
-7 -18 2 -5 8 -4 10 3 5 7 -4 12 -2 12 5 0 7 3 9 7 6 4 -4 2 -12 -4 -18z"/>
<path d="M8754 5285 c-9 -14 -21 -22 -27 -18 -6 3 -7 1 -3 -6 9 -14 31 0 47
31 14 27 2 22 -17 -7z"/>
<path d="M9646 5288 c-53 -86 -67 -110 -63 -114 3 -3 23 27 45 65 23 39 39 71
37 71 -3 0 -11 -10 -19 -22z"/>
<path d="M8921 5283 c-1 -6 -25 -21 -53 -32 -34 -13 -45 -20 -30 -20 12 -1 34
-8 47 -17 24 -16 25 -16 25 8 0 13 5 29 11 35 6 6 9 17 6 25 -3 8 -6 9 -6 1z"/>
<path d="M8610 5241 c0 -5 7 -12 16 -15 14 -5 15 -4 4 9 -14 17 -20 19 -20 6z"/>
<path d="M8646 5175 c4 -8 8 -15 10 -15 2 0 4 7 4 15 0 8 -4 15 -10 15 -5 0
-7 -7 -4 -15z"/>
<path d="M9450 5160 c-6 -11 -8 -20 -6 -20 3 0 10 9 16 20 6 11 8 20 6 20 -3
0 -10 -9 -16 -20z"/>
<path d="M9560 5140 c-6 -11 -8 -20 -6 -20 3 0 10 9 16 20 6 11 8 20 6 20 -3
0 -10 -9 -16 -20z"/>
<path d="M11204 5106 c-3 -8 -4 -25 -2 -38 3 -17 5 -13 9 15 5 38 2 47 -7 23z"/>
<path d="M8711 5084 c0 -17 -8 -37 -16 -44 -9 -7 -13 -21 -10 -31 3 -10 -2
-33 -12 -51 -9 -18 -18 -46 -20 -63 -2 -28 -2 -28 8 5 6 19 17 42 24 50 8 9
16 31 18 50 2 19 8 43 11 52 4 9 6 27 3 40 -3 18 -5 16 -6 -8z"/>
<path d="M12180 5056 c0 -3 9 -10 20 -16 11 -6 20 -8 20 -6 0 3 -9 10 -20 16
-11 6 -20 8 -20 6z"/>
<path d="M9456 4973 c-33 -53 -42 -73 -32 -73 5 0 50 72 64 103 19 43 7 32
-32 -30z"/>
<path d="M11095 5000 c-3 -5 -1 -10 4 -10 6 0 11 5 11 10 0 6 -2 10 -4 10 -3
0 -8 -4 -11 -10z"/>
<path d="M8580 4979 c0 -6 -7 -9 -15 -5 -21 8 -19 0 6 -25 l21 -21 -7 22 c-6
20 -4 22 14 17 18 -4 20 -3 10 9 -14 17 -29 18 -29 3z"/>
<path d="M8090 4940 c0 -11 2 -20 4 -20 2 0 6 9 9 20 3 11 1 20 -4 20 -5 0 -9
-9 -9 -20z"/>
<path d="M11111 4898 c-12 -18 -39 -60 -61 -93 -48 -73 -62 -103 -54 -117 4
-6 2 -8 -3 -5 -6 4 -23 -12 -39 -35 -19 -27 -25 -43 -17 -45 7 -2 9 -12 6 -20
-4 -11 1 -9 15 5 12 12 28 22 36 22 17 0 28 37 12 44 -7 3 -6 5 2 5 18 1 45
29 38 40 -3 5 8 33 24 62 19 35 26 57 19 65 -6 7 1 24 21 49 27 34 37 55 26
55 -2 0 -14 -15 -25 -32z m-49 -120 c-22 -49 -51 -89 -52 -71 0 14 62 124 68
119 2 -3 -5 -24 -16 -48z"/>
<path d="M8080 4885 c0 -16 6 -25 15 -25 8 0 15 5 15 11 0 5 5 7 12 3 7 -4 8
-3 4 4 -4 7 -16 17 -27 22 -16 9 -19 7 -19 -15z"/>
<path d="M8128 4853 c7 -3 16 -2 19 1 4 3 -2 6 -13 5 -11 0 -14 -3 -6 -6z"/>
<path d="M8640 4840 c0 -5 5 -10 10 -10 6 0 10 5 10 10 0 6 -4 10 -10 10 -5 0
-10 -4 -10 -10z"/>
<path d="M12547 4839 c7 -7 15 -10 18 -7 3 3 -2 9 -12 12 -14 6 -15 5 -6 -5z"/>
<path d="M9368 4818 c-44 -71 -61 -102 -47 -91 9 7 28 35 43 63 28 51 30 69 4
28z"/>
<path d="M8623 4805 c-3 -9 -3 -18 -1 -21 3 -3 8 4 11 16 6 23 -1 27 -10 5z"/>
<path d="M9281 4798 c-10 -18 -11 -20 0 -10 17 16 26 15 26 -3 0 -8 -3 -12 -7
-10 -4 2 -12 -6 -18 -19 -7 -17 -7 -23 2 -23 17 0 59 63 51 76 -11 18 -40 12
-54 -11z"/>
<path d="M11215 4799 c-4 -6 -5 -12 -2 -15 2 -3 7 2 10 11 7 17 1 20 -8 4z"/>
<path d="M12610 4806 c0 -3 9 -10 20 -16 11 -6 20 -8 20 -6 0 3 -9 10 -20 16
-11 6 -20 8 -20 6z"/>
<path d="M10866 4758 c-9 -12 -16 -27 -16 -33 0 -5 8 2 18 16 9 14 23 24 31
21 8 -3 11 0 7 7 -11 17 -23 13 -40 -11z"/>
<path d="M12660 4776 c0 -3 9 -10 20 -16 11 -6 20 -8 20 -6 0 3 -9 10 -20 16
-11 6 -20 8 -20 6z"/>
<path d="M11620 4750 c0 -5 5 -10 10 -10 6 0 10 5 10 10 0 6 -4 10 -10 10 -5
0 -10 -4 -10 -10z"/>
<path d="M11785 4750 c3 -5 8 -10 11 -10 2 0 4 5 4 10 0 6 -5 10 -11 10 -5 0
-7 -4 -4 -10z"/>
<path d="M11730 4740 c-9 -6 -10 -10 -3 -10 6 0 15 5 18 10 8 12 4 12 -15 0z"/>
<path d="M11796 4735 c-16 -12 -17 -15 -4 -15 24 0 48 11 48 21 0 13 -23 10
-44 -6z"/>
<path d="M11645 4730 c-4 -6 -10 -8 -15 -5 -5 3 -11 1 -15 -5 -10 -16 21 -12
35 5 7 8 10 15 7 15 -3 0 -9 -5 -12 -10z"/>
<path d="M9196 4714 c-10 -25 1 -29 14 -5 6 12 7 21 1 21 -5 0 -12 -7 -15 -16z"/>
<path d="M12740 4726 c0 -3 9 -10 20 -16 11 -6 20 -8 20 -6 0 3 -9 10 -20 16
-11 6 -20 8 -20 6z"/>
<path d="M8586 4711 c-4 -5 -2 -20 3 -33 9 -21 10 -21 10 10 1 32 -3 39 -13
23z"/>
<path d="M9192 4653 c-18 -31 -31 -60 -30 -65 2 -5 18 19 37 52 42 77 36 89
-7 13z"/>
<path d="M11827 4678 c-15 -26 -15 -29 -2 -18 20 16 39 50 28 50 -4 0 -16 -14
-26 -32z"/>
<path d="M9215 4634 c-21 -38 -53 -91 -70 -119 -18 -27 -43 -70 -57 -95 -14
-25 -77 -130 -140 -235 -277 -459 -519 -862 -868 -1445 -205 -344 -403 -674
-440 -735 -37 -60 -78 -129 -90 -152 -13 -24 -27 -43 -32 -43 -4 0 7 24 24 52
17 29 52 89 78 133 26 44 192 323 370 620 178 297 403 673 500 835 211 352
611 1026 631 1063 5 9 5 17 0 17 -7 0 -24 -29 -22 -37 1 -2 -6 -11 -15 -20 -8
-10 -72 -112 -141 -228 -174 -291 -194 -324 -193 -330 0 -3 -4 -11 -10 -18
-21 -24 -119 -184 -393 -642 -118 -198 -348 -582 -512 -854 -347 -579 -349
-582 -332 -593 8 -5 6 -8 -6 -8 -11 0 -16 -5 -12 -12 4 -7 0 -5 -8 5 -8 9 -19
17 -26 17 -14 0 -15 -36 -1 -45 6 -3 10 -1 10 6 0 7 3 10 6 7 5 -6 -22 -56
-36 -68 -4 -3 -21 -32 -40 -65 -19 -33 -36 -62 -39 -65 -3 -3 -12 -15 -18 -28
-31 -55 -39 -67 -55 -86 -10 -10 -26 -36 -36 -56 -10 -20 -23 -35 -29 -33 -13
5 -53 -35 -53 -51 0 -6 4 -5 9 3 14 22 33 4 21 -20 -6 -11 -15 -17 -21 -14 -5
4 -9 3 -8 -2 4 -15 -25 -66 -210 -373 -101 -168 -195 -325 -208 -349 -14 -25
-45 -79 -70 -120 -26 -42 -51 -85 -57 -96 -6 -11 -40 -67 -74 -125 -83 -139
-83 -138 -114 -188 l-27 -42 22 0 c17 0 30 12 47 43 13 23 76 130 140 237 64
107 135 227 157 265 22 39 91 156 153 260 62 105 121 205 131 223 11 18 25 43
33 55 7 12 53 89 101 170 48 81 90 146 93 143 3 -3 11 -1 19 5 17 14 17 -2 1
-21 -11 -12 -10 -12 5 -1 10 8 16 19 14 25 -2 6 2 16 9 21 9 7 11 15 4 25 -7
11 -11 9 -19 -12 -5 -14 -15 -29 -22 -34 -18 -11 -7 14 51 112 27 46 50 87 50
91 0 3 11 20 24 38 13 17 31 47 40 66 20 46 59 90 82 93 12 2 40 38 75 97 31
52 156 263 279 469 123 206 249 418 280 470 131 218 494 828 590 990 57 96
140 236 185 310 77 128 95 162 94 176 0 4 3 10 8 13 4 3 13 13 18 22 6 9 22
34 37 56 59 89 160 272 156 284 -2 7 -22 -19 -43 -57z"/>
<path d="M8150 4660 c8 -5 16 -22 16 -37 2 -52 5 -59 15 -33 7 16 7 26 0 28
-5 2 -7 10 -4 19 6 15 -12 33 -32 33 -5 0 -3 -5 5 -10z"/>
<path d="M10771 4636 c0 -11 3 -15 6 -8 2 6 8 10 12 8 4 -3 13 -1 20 3 9 6 5
10 -13 13 -22 4 -26 2 -25 -16z"/>
<path d="M9221 4573 c-6 -16 -23 -48 -37 -73 -39 -64 -22 -45 26 28 43 67 45
72 31 72 -5 0 -14 -12 -20 -27z"/>
<path d="M11638 4563 c-21 -21 -41 -49 -46 -63 -5 -14 -17 -25 -27 -25 -12 0
-31 -21 -52 -55 -18 -30 -56 -80 -84 -112 -56 -62 -83 -98 -74 -98 3 0 -1 -13
-10 -30 -9 -16 -22 -30 -31 -30 -8 0 -12 -4 -9 -10 10 -17 78 -11 125 12 36
17 41 22 25 26 -23 5 -55 31 -55 45 0 5 7 4 15 -3 18 -15 20 1 3 18 -7 7 -8
13 -2 13 5 1 16 2 24 3 8 0 14 9 14 18 -1 10 2 16 6 13 4 -3 11 2 14 11 4 10
2 13 -7 8 -6 -4 4 7 23 24 19 16 32 33 28 37 -4 4 12 26 35 48 23 23 37 38 30
34 -6 -4 -14 -3 -18 3 -3 5 -1 11 4 11 6 1 16 2 21 3 15 1 30 28 23 39 -3 5
14 29 38 53 24 24 39 44 33 44 -5 0 -26 -17 -46 -37z"/>
<path d="M10715 4567 c-8 -13 -12 -36 -10 -56 5 -41 13 -50 25 -31 5 8 13 11
17 6 4 -4 -1 -14 -11 -22 -17 -12 -17 -14 -4 -14 9 0 20 9 23 20 4 11 10 18
14 15 12 -7 60 18 66 34 4 10 -1 12 -16 8 -15 -4 -31 4 -55 28 l-34 34 -15
-22z"/>
<path d="M9137 4566 c-4 -10 -1 -13 8 -9 8 3 12 9 9 14 -7 12 -11 11 -17 -5z"/>
<path d="M8576 4544 c-8 -20 0 -32 14 -18 5 5 5 15 1 22 -6 11 -10 10 -15 -4z"/>
<path d="M9350 4500 c-6 -11 -8 -20 -6 -20 3 0 10 9 16 20 6 11 8 20 6 20 -3
0 -10 -9 -16 -20z"/>
<path d="M11105 4460 c-3 -5 -4 -14 -1 -19 3 -5 -2 -19 -12 -32 -22 -28 -34
-59 -24 -59 15 1 61 85 50 91 -6 4 -7 12 -4 18 4 6 5 11 2 11 -3 0 -8 -4 -11
-10z"/>
<path d="M9140 4430 c-6 -11 -8 -20 -6 -20 3 0 10 9 16 20 6 11 8 20 6 20 -3
0 -10 -9 -16 -20z"/>
<path d="M8986 4364 c-4 -10 -1 -14 6 -12 15 5 23 28 10 28 -5 0 -13 -7 -16
-16z"/>
<path d="M8321 4354 c0 -11 3 -14 6 -6 3 7 2 16 -1 19 -3 4 -6 -2 -5 -13z"/>
<path d="M8436 4335 c4 -8 8 -15 10 -15 2 0 4 7 4 15 0 8 -4 15 -10 15 -5 0
-7 -7 -4 -15z"/>
<path d="M9060 4311 c0 -17 18 -21 24 -6 3 9 0 15 -9 15 -8 0 -15 -4 -15 -9z"/>
<path d="M8332 4266 c5 -31 13 -40 29 -31 8 6 7 10 -5 17 -9 5 -14 13 -11 18
3 5 1 12 -5 15 -7 4 -10 -3 -8 -19z"/>
<path d="M8480 4275 c0 -11 -8 -13 -32 -8 -30 6 -32 5 -19 -10 13 -16 61 -20
61 -6 0 4 3 14 6 23 3 9 1 16 -5 16 -6 0 -11 -7 -11 -15z"/>
<path d="M8380 4235 c-19 -20 -26 -22 -44 -13 -20 10 -20 10 -3 -8 17 -18 18
-17 49 14 18 17 30 32 27 32 -3 0 -16 -11 -29 -25z"/>
<path d="M10705 4231 c5 -26 -15 -79 -32 -85 -9 -4 -8 2 3 19 9 14 12 25 8 25
-5 0 -2 5 6 11 11 8 9 9 -10 3 -56 -16 -149 -121 -150 -170 0 -28 30 -54 64
-54 29 0 56 24 135 119 29 36 31 41 14 41 -11 0 -20 7 -20 14 0 12 5 13 20 5
23 -13 60 -5 81 17 35 34 3 40 -36 6 -16 -13 -20 -13 -43 2 -14 9 -25 25 -25
36 0 10 -4 21 -9 25 -6 3 -8 -3 -6 -14z"/>
<path d="M8250 4206 c0 -9 5 -16 10 -16 6 0 10 4 10 9 0 6 -4 13 -10 16 -5 3
-10 -1 -10 -9z"/>
<path d="M11016 4195 c-3 -8 -1 -15 4 -15 6 0 10 7 10 15 0 8 -2 15 -4 15 -2
0 -6 -7 -10 -15z"/>
<path d="M8312 4170 c0 -14 2 -19 5 -12 2 6 2 18 0 25 -3 6 -5 1 -5 -13z"/>
<path d="M8970 4148 c-13 -24 -34 -63 -48 -88 -32 -58 -16 -41 30 30 47 74 60
100 50 100 -4 0 -19 -19 -32 -42z"/>
<path d="M10870 4166 c0 -3 9 -10 20 -16 11 -6 20 -8 20 -6 0 3 -9 10 -20 16
-11 6 -20 8 -20 6z"/>
<path d="M10991 4151 c-8 -14 -8 -21 -1 -21 5 0 10 6 10 13 0 8 4 7 10 -3 5
-8 10 -10 10 -5 0 6 -4 16 -9 24 -7 11 -11 9 -20 -8z"/>
<path d="M8331 4135 c0 -16 4 -39 9 -50 7 -17 9 -17 14 -4 4 8 0 31 -8 50
l-15 34 0 -30z"/>
<path d="M8310 4061 c0 -5 5 -13 10 -16 6 -3 10 -2 10 4 0 5 -4 13 -10 16 -5
3 -10 2 -10 -4z"/>
<path d="M8358 4038 c-10 -10 -17 -21 -17 -25 3 -20 -2 -26 -11 -13 -8 13 -10
13 -10 -2 0 -9 -4 -20 -10 -23 -6 -4 -7 1 -3 12 3 10 3 15 -2 11 -4 -4 -8 -20
-9 -35 -1 -22 -5 -27 -21 -25 -16 2 -17 1 -6 -7 24 -16 -1 -61 -31 -54 -37 8
-68 25 -68 39 0 7 -8 10 -20 7 -29 -8 -24 -20 13 -32 18 -6 37 -21 42 -33 7
-16 20 -24 44 -26 39 -4 52 10 44 49 -4 21 0 30 16 38 13 7 21 22 21 37 0 23
3 25 29 19 25 -5 29 -3 33 20 4 19 2 25 -7 21 -19 -7 -27 5 -13 21 17 21 5 22
-14 1z"/>
<path d="M9080 4040 c-6 -11 -8 -20 -6 -20 3 0 10 9 16 20 6 11 8 20 6 20 -3
0 -10 -9 -16 -20z"/>
<path d="M8880 3990 c-6 -11 -8 -20 -6 -20 3 0 10 9 16 20 6 11 8 20 6 20 -3
0 -10 -9 -16 -20z"/>
<path d="M9045 3980 c-9 -16 -13 -30 -11 -30 3 0 12 14 21 30 9 17 13 30 11
30 -3 0 -12 -13 -21 -30z"/>
<path d="M10875 3971 c-3 -12 -11 -21 -16 -21 -5 0 -9 -4 -9 -10 0 -5 4 -10 8
-10 10 0 35 50 28 57 -2 2 -7 -5 -11 -16z"/>
<path d="M8830 3908 c-16 -27 -29 -63 -17 -47 15 19 47 79 43 79 -4 0 -15 -15
-26 -32z"/>
<path d="M8070 3900 c0 -11 2 -20 4 -20 2 0 6 9 9 20 3 11 1 20 -4 20 -5 0 -9
-9 -9 -20z"/>
<path d="M10830 3900 c0 -5 5 -10 11 -10 5 0 7 5 4 10 -3 6 -8 10 -11 10 -2 0
-4 -4 -4 -10z"/>
<path d="M10856 3885 c-9 -26 -7 -32 5 -12 6 10 9 21 6 23 -2 3 -7 -2 -11 -11z"/>
<path d="M10906 3885 c4 -8 11 -15 16 -15 6 0 5 6 -2 15 -7 8 -14 15 -16 15
-2 0 -1 -7 2 -15z"/>
<path d="M8975 3860 c-9 -16 -13 -30 -11 -30 3 0 12 14 21 30 9 17 13 30 11
30 -3 0 -12 -13 -21 -30z"/>
<path d="M8044 3848 l-19 -23 23 19 c12 11 22 21 22 23 0 8 -8 2 -26 -19z"/>
<path d="M8071 3842 c-13 -25 -14 -42 -2 -42 8 0 23 52 16 58 -2 2 -8 -5 -14
-16z"/>
<path d="M10751 3806 c-12 -18 -21 -37 -21 -42 0 -5 10 7 21 26 12 19 27 38
33 42 8 6 8 8 -1 8 -6 0 -21 -15 -32 -34z"/>
<path d="M8189 3783 c-1 -5 -1 -11 0 -15 2 -13 -17 -9 -22 5 -3 9 -10 7 -23
-6 -15 -14 -16 -19 -5 -26 9 -6 10 -11 3 -15 -18 -11 -102 -126 -93 -126 6 0
13 5 17 11 4 7 24 9 51 6 31 -3 48 0 58 10 19 19 19 52 0 59 -24 9 -17 24 10
24 32 0 55 41 35 65 -13 16 -29 20 -31 8z"/>
<path d="M8926 3773 c-6 -14 -5 -15 5 -6 7 7 10 15 7 18 -3 3 -9 -2 -12 -12z"/>
<path d="M8740 3750 c-6 -11 -8 -20 -6 -20 3 0 10 9 16 20 6 11 8 20 6 20 -3
0 -10 -9 -16 -20z"/>
<path d="M8900 3730 c-6 -11 -8 -20 -6 -20 3 0 10 9 16 20 6 11 8 20 6 20 -3
0 -10 -9 -16 -20z"/>
<path d="M10667 3705 c-21 -25 -36 -49 -32 -54 3 -5 -6 -18 -19 -28 -15 -10
-40 -55 -61 -108 -41 -99 -43 -157 -6 -197 11 -11 18 -26 15 -32 -3 -6 1 -3 9
6 8 10 17 15 20 11 4 -3 7 -1 7 6 0 7 6 11 13 8 16 -6 69 90 55 99 -5 4 -3 13
6 22 8 10 16 38 18 65 2 26 10 53 16 59 16 16 15 33 -1 20 -14 -12 -25 -7 -47
23 -14 18 -14 19 2 7 17 -14 35 -1 23 18 -3 5 -1 18 4 27 9 16 10 15 11 -7 1
-42 13 -53 51 -45 31 7 32 8 12 16 -26 10 -43 38 -43 74 0 17 -4 24 -11 19 -8
-4 -9 0 -4 15 9 30 4 27 -38 -24z m13 -35 c0 -5 -5 -10 -11 -10 -5 0 -7 5 -4
10 3 6 8 10 11 10 2 0 4 -4 4 -10z m0 -132 c0 -5 -5 -8 -11 -8 -5 0 -7 -5 -3
-12 4 -7 3 -8 -4 -4 -6 4 -9 13 -6 20 3 8 -4 16 -15 19 -12 3 -21 10 -21 16 0
5 13 3 30 -7 16 -9 30 -20 30 -24z"/>
<path d="M7969 3688 c-12 -21 -10 -24 17 -31 11 -3 15 41 4 48 -5 3 -14 -4
-21 -17z"/>
<path d="M7860 3670 c0 -5 5 -10 11 -10 5 0 7 5 4 10 -3 6 -8 10 -11 10 -2 0
-4 -4 -4 -10z"/>
<path d="M10764 3654 c-18 -14 -18 -15 4 -4 12 6 22 13 22 15 0 8 -5 6 -26
-11z"/>
<path d="M7963 3632 c-3 -7 -3 -16 1 -19 3 -3 0 -13 -7 -22 -11 -14 -10 -14 5
-3 10 8 16 18 15 22 -1 5 6 15 16 22 17 13 17 14 -3 14 -12 0 -25 -6 -27 -14z"/>
<path d="M7998 3594 c-16 -8 -28 -21 -28 -29 0 -23 14 -18 38 15 13 17 21 30
20 30 -2 -1 -15 -8 -30 -16z"/>
<path d="M7905 3559 c-19 -12 -24 -19 -14 -19 9 0 22 6 29 14 6 8 18 12 26 9
8 -3 14 -3 14 0 0 14 -29 12 -55 -4z"/>
<path d="M7840 3528 c0 -9 5 -20 11 -24 6 -3 8 -18 5 -33 -5 -19 -4 -22 4 -11
14 21 12 42 -5 64 -13 17 -15 17 -15 4z"/>
<path d="M7895 3508 c-3 -13 -7 -44 -9 -69 -2 -25 -11 -61 -20 -80 -9 -19 -15
-53 -13 -76 2 -37 5 -43 24 -43 23 0 42 38 29 58 -3 5 7 12 23 15 18 4 32 15
36 27 10 33 -26 127 -44 116 -4 -3 -5 10 -3 29 5 38 -15 57 -23 23z"/>
<path d="M7741 3484 c0 -11 3 -14 6 -6 3 7 2 16 -1 19 -3 4 -6 -2 -5 -13z"/>
<path d="M7721 3364 c0 -11 3 -14 6 -6 3 7 2 16 -1 19 -3 4 -6 -2 -5 -13z"/>
<path d="M7755 3353 c-4 -16 -12 -41 -20 -58 l-14 -30 5 35 4 35 -15 -39 c-8
-21 -23 -52 -34 -70 -20 -34 -35 -86 -25 -86 14 0 67 66 84 105 10 22 21 61
25 88 8 50 -1 66 -10 20z"/>
<path d="M8670 3340 c-6 -11 -8 -20 -6 -20 3 0 10 9 16 20 6 11 8 20 6 20 -3
0 -10 -9 -16 -20z"/>
<path d="M10520 3310 c0 -5 5 -10 10 -10 6 0 10 5 10 10 0 6 -4 10 -10 10 -5
0 -10 -4 -10 -10z"/>
<path d="M8442 3254 c-18 -32 -31 -61 -29 -67 2 -8 77 106 77 119 0 18 -21 -5
-48 -52z"/>
<path d="M7750 3228 c-7 -18 -25 -46 -39 -61 -20 -22 -23 -30 -12 -36 7 -5 12
-11 12 -15 -5 -38 35 -48 65 -14 l19 21 -32 -17 c-31 -15 -32 -15 -39 6 -4 14
-1 25 10 33 9 7 16 17 16 24 0 6 7 23 16 36 10 15 12 25 5 25 -5 0 -8 7 -5 15
4 8 4 15 1 15 -2 0 -10 -15 -17 -32z"/>
<path d="M10430 3230 c-13 -8 -12 -10 3 -10 9 0 17 5 17 10 0 12 -1 12 -20 0z"/>
<path d="M7786 3194 c-5 -14 -4 -15 9 -4 17 14 19 20 6 20 -5 0 -12 -7 -15
-16z"/>
<path d="M8562 3158 c-49 -84 -64 -113 -45 -91 22 27 76 123 69 123 -2 0 -13
-15 -24 -32z"/>
<path d="M7807 3163 c-4 -3 -7 -13 -7 -22 1 -13 3 -13 11 2 11 19 8 33 -4 20z"/>
<path d="M7670 3120 c-15 -9 -22 -60 -9 -60 11 0 23 22 27 48 3 25 3 25 -18
12z"/>
<path d="M8315 3029 c-4 -6 -5 -12 -2 -15 2 -3 7 2 10 11 7 17 1 20 -8 4z"/>
<path d="M7635 3020 c-3 -5 -2 -10 4 -10 5 0 13 5 16 10 3 6 2 10 -4 10 -5 0
-13 -4 -16 -10z"/>
<path d="M8470 3000 c-6 -11 -8 -20 -6 -20 3 0 10 9 16 20 6 11 8 20 6 20 -3
0 -10 -9 -16 -20z"/>
<path d="M7634 2989 c-3 -6 -1 -16 5 -22 8 -8 11 -5 11 11 0 24 -5 28 -16 11z"/>
<path d="M7674 2956 c-5 -23 -9 -25 -22 -14 -13 11 -15 10 -9 -5 4 -10 7 -21
7 -23 0 -2 6 -4 13 -4 21 0 43 48 29 62 -8 8 -13 4 -18 -16z"/>
<path d="M7462 2905 c12 -14 14 -25 8 -35 -12 -19 -13 -70 -1 -70 5 0 11 -9
14 -21 8 -30 29 -19 46 25 15 39 7 61 -12 36 -11 -14 -14 -14 -28 1 -13 12
-14 20 -6 28 8 8 5 17 -13 34 -19 17 -21 18 -8 2z"/>
<path d="M8405 2890 c-9 -16 -13 -30 -11 -30 3 0 12 14 21 30 9 17 13 30 11
30 -3 0 -12 -13 -21 -30z"/>
<path d="M7512 2890 c7 -11 16 -20 20 -20 5 0 3 9 -4 20 -7 11 -16 20 -20 20
-5 0 -3 -9 4 -20z"/>
<path d="M7650 2877 c0 -8 -7 -20 -15 -27 -20 -17 -8 -32 16 -20 20 11 26 45
9 55 -5 3 -10 0 -10 -8z"/>
<path d="M7590 2840 c0 -5 5 -10 11 -10 5 0 7 5 4 10 -3 6 -8 10 -11 10 -2 0
-4 -4 -4 -10z"/>
<path d="M8374 2832 c-6 -9 -20 -34 -33 -54 -12 -21 -20 -38 -18 -38 7 0 69
101 65 106 -2 2 -8 -5 -14 -14z"/>
<path d="M7280 2830 c-13 -8 -12 -10 3 -10 9 0 17 5 17 10 0 12 -1 12 -20 0z"/>
<path d="M7430 2827 c0 -8 -9 -22 -20 -32 -12 -10 -18 -25 -15 -34 3 -8 1 -17
-5 -21 -15 -9 -29 -72 -23 -103 4 -21 9 -24 31 -18 18 5 27 14 27 27 0 10 4
22 10 26 5 4 6 11 1 15 -4 4 -16 -3 -27 -16 -11 -13 -22 -21 -26 -17 -4 3 3
13 15 22 12 8 27 24 32 35 14 26 21 129 9 129 -5 0 -9 -6 -9 -13z m-13 -52 c0
-8 -4 -12 -9 -9 -5 3 -6 10 -3 15 9 13 12 11 12 -6z"/>
<path d="M7554 2818 c-4 -7 -15 -24 -23 -38 -9 -13 -11 -21 -4 -17 8 5 11 1
10 -12 -1 -14 -5 -17 -13 -10 -8 7 -10 2 -6 -16 4 -21 7 -23 19 -14 8 7 13 24
12 38 -2 23 5 49 18 74 7 12 -5 8 -13 -5z"/>
<path d="M7344 2785 c-4 -10 -13 -13 -24 -10 -27 8 -33 -52 -8 -77 18 -18 18
-19 -4 -22 -17 -2 -19 -48 -3 -70 20 -26 34 -12 33 33 0 22 3 45 7 52 5 8 4
10 -3 5 -15 -9 -15 -3 0 29 6 14 16 25 21 25 5 0 4 -8 -4 -17 -11 -16 -11 -16
7 0 18 17 18 19 2 28 -10 5 -15 16 -12 24 4 8 3 15 0 15 -4 0 -9 -7 -12 -15z"/>
<path d="M7466 2733 c-6 -14 -5 -15 5 -6 7 7 10 15 7 18 -3 3 -9 -2 -12 -12z"/>
<path d="M8295 2700 c-9 -16 -13 -30 -11 -30 3 0 12 14 21 30 9 17 13 30 11
30 -3 0 -12 -13 -21 -30z"/>
<path d="M8086 2645 c-17 -30 -27 -57 -24 -60 5 -6 68 95 68 109 0 19 -19 -1
-44 -49z"/>
<path d="M8218 2568 c-77 -130 -113 -194 -104 -186 12 10 166 271 162 275 -2
2 -28 -38 -58 -89z"/>
<path d="M7430 2597 c0 -17 -7 -28 -20 -32 -11 -3 -20 -10 -20 -15 0 -12 48
-60 60 -60 16 0 23 50 14 88 -11 43 -34 55 -34 19z"/>
<path d="M7266 2564 c-20 -20 -20 -30 0 -38 8 -3 12 -11 8 -17 -4 -8 -9 -7
-15 2 -5 8 -9 9 -9 4 0 -17 22 -35 42 -35 10 0 21 -7 24 -15 4 -8 18 -15 33
-14 14 0 20 3 14 6 -7 2 -13 13 -13 24 0 25 -39 79 -57 79 -8 0 -11 5 -8 10 9
15 -2 12 -19 -6z m36 -66 c-8 -8 -9 -4 -5 13 4 13 8 18 11 10 2 -7 -1 -18 -6
-23z"/>
<path d="M8002 2503 c-21 -30 -52 -88 -52 -98 0 -19 20 4 49 56 35 63 37 90 3
42z"/>
<path d="M7190 2509 c0 -5 5 -7 10 -4 6 3 10 8 10 11 0 2 -4 4 -10 4 -5 0 -10
-5 -10 -11z"/>
<path d="M7207 2467 c-9 -12 -17 -25 -17 -29 0 -11 39 14 44 29 9 22 -9 22
-27 0z"/>
<path d="M7149 2443 c-13 -16 -12 -17 4 -4 16 13 21 21 13 21 -2 0 -10 -8 -17
-17z"/>
<path d="M7095 2430 c-10 -11 -15 -20 -11 -20 11 0 39 30 34 36 -3 2 -13 -5
-23 -16z"/>
<path d="M7104 2398 l-19 -23 23 19 c12 11 22 21 22 23 0 8 -8 2 -26 -19z"/>
<path d="M7071 2384 c0 -11 3 -14 6 -6 3 7 2 16 -1 19 -3 4 -6 -2 -5 -13z"/>
<path d="M7130 2380 c0 -5 5 -10 10 -10 6 0 10 5 10 10 0 6 -4 10 -10 10 -5 0
-10 -4 -10 -10z"/>
<path d="M7920 2058 c-233 -399 -220 -378 -231 -378 -4 0 -6 -7 -2 -16 4 -10
0 -20 -10 -26 -10 -5 -17 -13 -17 -19 0 -5 -12 -28 -27 -52 -61 -97 -81 -136
-68 -131 8 3 34 40 58 82 91 157 412 718 456 795 18 31 30 57 28 57 -3 0 -87
-141 -187 -312z"/>
<path d="M9806 2353 c-6 -14 -5 -15 5 -6 7 7 10 15 7 18 -3 3 -9 -2 -12 -12z"/>
<path d="M7105 2340 c-3 -5 -3 -15 1 -21 6 -11 23 6 24 24 0 10 -18 9 -25 -3z"/>
<path d="M7150 2320 c-7 -16 -9 -34 -5 -40 3 -6 -8 -24 -25 -40 -18 -17 -28
-30 -22 -30 6 0 22 14 36 31 14 17 26 27 26 22 0 -8 40 48 40 57 0 3 -9 11
-19 17 -17 10 -21 8 -31 -17z"/>
<path d="M9756 2275 c-9 -26 -7 -32 5 -12 6 10 9 21 6 23 -2 3 -7 -2 -11 -11z"/>
<path d="M7154 2238 c-3 -5 6 -8 20 -8 14 0 28 4 31 10 4 6 -5 9 -20 8 -15 -2
-29 -6 -31 -10z"/>
<path d="M9686 2158 c3 -5 10 -6 15 -3 13 9 11 12 -6 12 -8 0 -12 -4 -9 -9z"/>
<path d="M9673 2123 c-15 -5 -17 -23 -4 -23 5 0 11 7 15 15 3 8 4 15 3 14 -1
0 -8 -3 -14 -6z"/>
<path d="M9649 2064 c-5 -15 -12 -32 -15 -38 -3 -6 2 -2 10 8 9 11 16 25 16
32 0 7 6 15 13 17 9 4 9 6 -1 6 -7 1 -17 -11 -23 -25z"/>
<path d="M7645 1899 c-21 -33 -35 -62 -32 -65 5 -5 77 105 77 118 0 17 -10 5
-45 -53z"/>
<path d="M6809 1903 c-13 -16 -12 -17 4 -4 16 13 21 21 13 21 -2 0 -10 -8 -17
-17z"/>
<path d="M6865 1898 c-48 -54 -50 -58 -22 -58 29 0 50 29 45 61 -3 20 -4 20
-23 -3z"/>
<path d="M11550 1896 c0 -2 7 -7 16 -10 8 -3 12 -2 9 4 -6 10 -25 14 -25 6z"/>
<path d="M9541 1864 c0 -11 3 -14 6 -6 3 7 2 16 -1 19 -3 4 -6 -2 -5 -13z"/>
<path d="M11590 1876 c0 -3 9 -10 20 -16 11 -6 20 -8 20 -6 0 3 -9 10 -20 16
-11 6 -20 8 -20 6z"/>
<path d="M6800 1858 c0 -9 -6 -19 -12 -21 -10 -4 -10 -6 0 -6 14 -1 28 26 18
36 -3 4 -6 -1 -6 -9z"/>
<path d="M11640 1846 c0 -3 9 -10 20 -16 11 -6 20 -8 20 -6 0 3 -9 10 -20 16
-11 6 -20 8 -20 6z"/>
<path d="M11705 1805 c11 -9 29 -21 40 -26 l20 -10 -20 16 c-11 9 -29 21 -40
26 l-20 10 20 -16z"/>
<path d="M11797 1749 c7 -7 15 -10 18 -7 3 3 -2 9 -12 12 -14 6 -15 5 -6 -5z"/>
<path d="M7530 1730 c0 -5 5 -10 11 -10 5 0 7 5 4 10 -3 6 -8 10 -11 10 -2 0
-4 -4 -4 -10z"/>
<path d="M7638 1673 c7 -3 16 -2 19 1 4 3 -2 6 -13 5 -11 0 -14 -3 -6 -6z"/>
<path d="M7479 1613 c-13 -16 -12 -17 4 -4 16 13 21 21 13 21 -2 0 -10 -8 -17
-17z"/>
<path d="M7369 1538 c-5 -9 -5 -48 -1 -43 6 6 11 45 5 45 -2 0 -4 -1 -4 -2z"/>
<path d="M7340 1486 c0 -8 4 -17 9 -20 5 -4 7 3 4 14 -6 23 -13 26 -13 6z"/>
<path d="M7387 1466 c-4 -10 -1 -13 9 -9 7 3 14 9 14 14 0 14 -17 10 -23 -5z"/>
<path d="M6791 1343 c-10 -26 -10 -27 4 -9 8 11 15 23 15 28 0 15 -7 8 -19
-19z"/>
<path d="M12460 1356 c0 -2 7 -7 16 -10 8 -3 12 -2 9 4 -6 10 -25 14 -25 6z"/>
<path d="M7260 1296 c0 -2 9 -6 20 -9 11 -3 18 -1 14 4 -5 9 -34 13 -34 5z"/>
<path d="M7220 1250 c-6 -11 -15 -18 -20 -15 -14 8 -34 -35 -22 -47 7 -7 14
-2 23 13 6 13 19 34 27 47 8 12 12 22 9 22 -4 0 -11 -9 -17 -20z m-29 -47
c-12 -20 -14 -14 -5 12 4 9 9 14 11 11 3 -2 0 -13 -6 -23z"/>
<path d="M6692 1185 c-6 -14 -10 -25 -8 -25 2 0 11 11 20 25 9 14 13 25 8 25
-5 0 -14 -11 -20 -25z"/>
<path d="M7218 1173 c-18 -21 -31 -43 -25 -43 2 0 13 14 25 30 25 33 24 41 0
13z"/>
<path d="M7143 1157 c-3 -6 -1 -7 5 -3 21 13 12 -12 -11 -31 -26 -21 -61 -73
-50 -73 5 0 2 -4 -5 -9 -11 -7 -10 -9 3 -14 9 -4 13 -3 10 3 -3 6 -2 10 4 10
6 0 7 7 4 17 -4 10 -2 14 5 9 6 -3 14 -1 18 5 4 8 3 9 -4 5 -7 -4 -12 -2 -12
3 0 6 7 11 16 11 8 0 12 5 9 10 -3 6 -2 10 4 10 6 0 17 13 25 28 13 25 13 29
0 29 -8 0 -18 -5 -21 -10z"/>
<path d="M7156 1075 c-9 -14 -13 -25 -8 -25 5 0 14 11 20 25 6 14 10 25 8 25
-2 0 -11 -11 -20 -25z"/>
<path d="M7056 1005 c-3 -9 -6 -23 -6 -32 0 -18 -25 -45 -34 -36 -6 6 -10 -12
-7 -35 1 -7 -4 -11 -11 -10 -6 2 -17 -12 -23 -30 -6 -18 -14 -29 -18 -26 -4 4
-7 3 -7 -3 0 -5 -23 -47 -50 -93 -28 -46 -49 -89 -46 -97 3 -8 2 -12 -3 -8 -5
3 -29 -27 -54 -67 -33 -54 -298 -498 -334 -560 -2 -5 4 -8 14 -8 13 1 44 45
102 145 46 80 86 143 89 141 5 -6 -42 -95 -85 -159 -18 -27 -33 -53 -33 -59 0
-5 -9 -23 -21 -39 -14 -20 -16 -29 -7 -29 7 0 24 24 38 52 14 28 53 93 86 145
34 51 57 93 53 93 -5 0 -9 -6 -9 -12 0 -7 -5 -5 -11 4 -8 14 -3 29 17 65 15
27 34 56 42 65 8 9 11 23 6 30 -4 7 -4 10 1 6 10 -10 87 111 79 124 -4 6 -2 8
4 4 6 -3 14 4 18 16 4 13 10 25 14 28 3 3 20 30 35 60 16 30 35 63 43 72 8 9
11 23 6 30 -4 7 -4 10 1 6 10 -10 126 183 120 199 -2 7 -1 12 3 10 4 -1 8 2
10 8 6 17 -15 17 -22 0z"/>
<path d="M7068 928 c-36 -62 -49 -88 -45 -88 7 0 78 122 74 127 -3 2 -16 -15
-29 -39z"/>
<path d="M6986 790 c-14 -22 -26 -41 -26 -43 0 -3 -73 -125 -111 -187 -33 -52
-70 -120 -65 -120 8 0 111 162 136 215 8 17 22 41 30 55 30 46 71 120 67 120
-3 0 -16 -18 -31 -40z"/>
<path d="M6450 790 c-6 -11 -8 -20 -6 -20 3 0 10 9 16 20 6 11 8 20 6 20 -3 0
-10 -9 -16 -20z"/>
<path d="M6432 720 c0 -14 2 -19 5 -12 2 6 2 18 0 25 -3 6 -5 1 -5 -13z"/>
<path d="M6404 716 c-3 -9 -10 -14 -14 -11 -5 3 -6 -4 -3 -14 3 -11 11 -22 19
-25 11 -4 12 -1 5 13 -7 12 -6 22 1 29 7 7 9 15 5 18 -4 4 -9 -1 -13 -10z"/>
<path d="M6365 520 c3 -5 8 -10 11 -10 2 0 4 5 4 10 0 6 -5 10 -11 10 -5 0 -7
-4 -4 -10z"/>
<path d="M6440 470 c0 -5 5 -10 10 -10 6 0 10 5 10 10 0 6 -4 10 -10 10 -5 0
-10 -4 -10 -10z"/>
<path d="M6201 423 c-16 -3 -20 -7 -12 -12 9 -6 8 -14 -3 -35 -9 -17 -16 -23
-19 -14 -2 7 -7 10 -11 7 -4 -3 0 -11 8 -18 11 -10 19 -3 39 34 14 25 25 44
24 44 -1 -1 -13 -4 -26 -6z"/>
<path d="M6530 420 c0 -5 5 -10 11 -10 5 0 7 5 4 10 -3 6 -8 10 -11 10 -2 0
-4 -4 -4 -10z"/>
<path d="M6718 348 c-34 -40 -37 -61 -4 -25 13 14 26 24 29 21 2 -3 7 4 10 16
7 29 -4 25 -35 -12z"/>
<path d="M6121 264 c-12 -19 -16 -32 -11 -29 11 7 43 65 36 65 -2 0 -13 -16
-25 -36z"/>
<path d="M5965 239 c-4 -6 -5 -12 -2 -15 2 -3 7 2 10 11 7 17 1 20 -8 4z"/>
<path d="M6062 175 c-6 -14 -10 -25 -8 -25 2 0 11 11 20 25 9 14 13 25 8 25
-5 0 -14 -11 -20 -25z"/>
<path d="M6250 170 c0 -5 5 -10 11 -10 5 0 7 5 4 10 -3 6 -8 10 -11 10 -2 0
-4 -4 -4 -10z"/>
<path d="M9100 148 c0 -4 7 -8 15 -8 8 0 15 4 15 8 0 5 -7 9 -15 9 -8 0 -15
-4 -15 -9z"/>
<path d="M6029 118 c-7 -12 -19 -33 -27 -45 -8 -13 -12 -23 -9 -23 8 0 59 82
54 87 -3 2 -11 -6 -18 -19z"/>
<path d="M9155 70 c3 -5 8 -10 11 -10 2 0 4 5 4 10 0 6 -5 10 -11 10 -5 0 -7
-4 -4 -10z"/>
<path d="M5903 21 c0 -11 5 -18 9 -15 4 3 5 11 1 19 -7 21 -12 19 -10 -4z"/>
<path d="M5791 13 c6 -7 21 -12 33 -12 17 1 17 2 4 6 -10 2 -18 8 -18 12 0 4
-7 8 -15 8 -11 0 -12 -4 -4 -14z"/>
</g>
</svg>
