<?xml version="1.0" standalone="no"?>
<!DOCTYPE svg PUBLIC "-//W3C//DTD SVG 20010904//EN"
 "http://www.w3.org/TR/2001/REC-SVG-20010904/DTD/svg10.dtd">
<svg version="1.0" xmlns="http://www.w3.org/2000/svg"
 width="1280.000000pt" height="720.000000pt" viewBox="0 0 1280.000000 720.000000"
 preserveAspectRatio="xMidYMid meet">
<metadata>
Created by potrace 1.16, written by Peter Selinger 2001-2019
</metadata>
<g transform="translate(0.000000,720.000000) scale(0.100000,-0.100000)"
fill="#000000" stroke="none">
<path d="M9500 6429 l0 -392 46 7 c26 3 53 6 60 6 11 0 14 40 14 212 0 117 4
208 8 203 5 -6 37 -93 71 -195 35 -102 66 -188 69 -192 4 -4 35 -4 70 -1 l62
6 0 368 0 369 -60 0 -60 0 0 -217 c0 -127 -4 -212 -9 -203 -5 8 -38 99 -75
201 -36 103 -69 194 -72 203 -5 12 -20 16 -65 16 l-59 0 0 -391z"/>
<path d="M10020 6459 l0 -362 85 7 c47 3 123 9 170 12 l85 7 0 59 0 59 -110
-7 -110 -7 0 91 0 91 83 3 82 3 3 58 3 57 -86 0 -85 0 0 85 0 85 110 0 110 0
0 60 0 60 -170 0 -170 0 0 -361z"/>
<path d="M10440 6760 l0 -60 65 0 65 0 0 -285 0 -285 38 0 c20 0 47 3 60 6
l22 6 0 279 0 279 65 0 65 0 0 60 0 60 -190 0 -190 0 0 -60z"/>
<path d="M10900 6480 l0 -340 60 0 60 0 0 140 0 140 85 0 85 0 0 60 0 60 -85
0 -85 0 0 80 0 80 110 0 110 0 0 60 0 60 -170 0 -170 0 0 -340z"/>
<path d="M11320 6475 l0 -345 68 0 c37 0 111 -3 165 -7 l97 -6 0 61 0 62 -82
0 c-46 0 -93 3 -105 6 l-23 6 0 284 0 284 -60 0 -60 0 0 -345z"/>
<path d="M11760 6466 l0 -353 38 -7 c20 -3 47 -6 60 -6 l22 0 0 360 0 360 -60
0 -60 0 0 -354z"/>
<path d="M11990 6811 c0 -8 62 -170 120 -314 l19 -48 -24 -52 c-14 -29 -49
-108 -78 -177 l-54 -125 36 -8 c82 -18 90 -12 137 98 l43 100 14 -35 c8 -19
29 -72 47 -117 27 -71 35 -83 54 -83 13 0 44 -3 69 -6 l47 -7 -34 84 c-18 46
-54 138 -80 204 l-47 120 17 40 c9 22 25 60 36 85 12 25 40 91 64 148 l43 102
-68 0 -67 0 -39 -96 c-21 -52 -42 -97 -46 -99 -4 -3 -24 40 -45 95 l-37 100
-64 0 c-35 0 -63 -4 -63 -9z"/>
<path d="M6740 5731 c0 -6 -8 -8 -17 -4 -15 5 -14 3 2 -10 20 -16 20 -16 -2
-17 -13 0 -23 5 -23 11 0 6 -6 9 -12 6 -7 -2 -12 -9 -11 -15 1 -5 -5 -8 -15
-6 -11 2 -29 -13 -51 -44 -41 -56 -62 -120 -52 -158 7 -26 7 -26 26 16 24 53
54 73 108 73 23 0 53 7 66 16 20 13 108 27 186 31 24 1 72 -7 83 -14 11 -7 16
5 13 29 -1 6 4 3 11 -5 18 -22 64 -20 60 3 -2 12 4 17 23 17 14 0 28 0 32 1 4
0 9 -5 12 -12 2 -7 -1 -9 -8 -4 -8 5 -11 1 -9 -11 2 -14 -5 -20 -27 -24 -25
-4 -37 -20 -25 -32 1 -2 4 -12 5 -23 2 -11 8 -42 15 -70 7 -32 8 -51 1 -53 -6
-2 -4 -16 4 -36 8 -19 11 -36 8 -39 -3 -4 0 -13 7 -22 7 -8 8 -15 3 -15 -5 0
-8 -15 -7 -32 1 -18 -1 -37 -6 -43 -5 -5 -8 -21 -8 -35 0 -14 -3 -38 -7 -55
-5 -23 -4 -26 4 -15 8 11 11 11 11 2 0 -7 -6 -15 -14 -18 -8 -3 -22 -17 -31
-31 -14 -21 -15 -27 -4 -34 11 -7 10 -9 -3 -9 -11 0 -18 -8 -18 -20 0 -11 -4
-20 -9 -20 -17 0 -62 -50 -55 -62 5 -7 -1 -9 -19 -4 -22 5 -26 2 -32 -25 -4
-17 -9 -28 -13 -25 -3 3 -12 0 -20 -7 -13 -10 -15 -9 -9 6 4 11 3 16 -3 12
-12 -7 -38 6 -39 20 -3 36 -35 84 -48 72 -3 -4 -14 5 -25 18 -11 14 -24 23
-29 20 -5 -4 -9 3 -9 14 0 12 5 21 11 21 8 0 8 4 0 14 -7 8 -29 14 -50 14 -21
0 -47 6 -58 13 -28 17 -49 0 -65 -52 -6 -22 -14 -39 -18 -39 -4 0 -13 -20 -19
-44 -11 -46 2 -115 36 -179 17 -35 6 -53 -34 -55 -58 -3 -103 -24 -103 -47 0
-20 1 -20 62 16 38 23 48 26 35 11 -10 -11 -38 -30 -63 -43 -35 -19 -46 -21
-53 -11 -11 18 -94 9 -129 -14 -61 -39 -141 -109 -165 -144 -15 -22 -17 -22
-17 -5 0 17 -2 17 -10 5 -14 -21 -12 -42 3 -35 6 4 4 0 -5 -8 -10 -8 -19 -23
-19 -33 -1 -10 -4 -3 -8 16 l-6 35 -18 -37 c-17 -37 -32 -53 -21 -23 5 13 3
13 -21 1 -33 -17 -54 -45 -55 -72 0 -12 -7 -28 -17 -35 -15 -13 -15 -12 -3 11
10 21 10 23 -1 13 -24 -23 -31 -14 -11 15 14 19 17 33 11 50 -10 26 -18 29
-18 5 0 -32 -28 -117 -33 -103 -4 12 -10 9 -26 -10 -18 -22 -23 -23 -41 -13
-13 8 -22 9 -26 3 -3 -6 -11 -10 -17 -10 -6 0 -3 9 7 20 18 20 17 20 -8 20
-25 0 -26 3 -23 39 4 37 3 38 -19 27 -17 -8 -21 -14 -13 -23 10 -13 3 -33 -13
-33 -5 0 -9 6 -9 14 0 15 -43 16 -57 3 -9 -10 -35 -9 -29 1 2 4 1 14 -4 22 -8
13 -13 13 -32 1 -16 -10 -23 -11 -26 -2 -3 9 -7 9 -18 0 -12 -10 -19 -7 -38
10 l-24 22 -15 -21 -16 -22 -28 19 c-15 11 -41 25 -58 30 -25 8 -30 15 -29 39
1 16 7 41 13 57 9 24 15 27 58 27 27 0 68 -8 93 -16 53 -19 126 -22 142 -6 7
7 20 12 29 12 29 0 31 18 7 59 -21 36 -25 38 -43 25 -12 -9 -14 -14 -5 -14 7
0 10 -3 7 -6 -9 -10 -39 17 -34 30 6 15 -35 16 -46 2 -5 -7 -7 -4 -3 7 3 10 0
17 -8 17 -14 0 -70 59 -64 66 2 1 21 -1 43 -6 22 -4 62 -10 88 -13 l48 -5 -35
25 c-20 13 -36 25 -36 27 0 2 22 -1 49 -7 37 -7 61 -6 103 7 75 21 97 41 143
129 32 62 38 80 29 94 -6 10 -20 18 -31 19 -37 2 -74 14 -69 23 7 11 -63 37
-152 56 -93 19 -110 28 -120 67 -4 17 -17 36 -27 42 -50 27 -152 91 -171 108
-14 13 -25 42 -34 91 -44 248 -53 276 -83 264 -15 -6 -27 -34 -71 -179 -15
-50 -33 -88 -40 -88 -20 0 -61 50 -91 110 -33 66 -98 164 -133 203 -45 48 -62
33 -62 -58 0 -29 -7 -90 -15 -136 -8 -46 -17 -120 -20 -164 -20 -265 -22 -274
-65 -320 -28 -29 -44 -60 -59 -111 -12 -40 -28 -77 -36 -84 -13 -11 -13 -14 2
-26 17 -12 16 -13 -8 -14 -33 0 -49 -17 -49 -52 0 -18 -5 -28 -15 -28 -7 0
-18 -8 -24 -17 -8 -14 -12 -15 -25 -4 -14 11 -16 11 -16 -3 0 -9 11 -21 25
-26 14 -5 25 -12 25 -15 0 -4 -5 -3 -11 0 -6 4 -13 -2 -16 -14 -6 -25 -15 -26
-53 -6 -24 13 -30 13 -30 2 0 -19 43 -57 63 -57 20 0 22 -7 5 -23 -21 -20 -47
-19 -60 3 -7 11 -17 20 -21 20 -5 0 2 -15 15 -32 13 -18 21 -34 20 -36 -2 -2
0 -7 4 -10 4 -4 4 -1 -1 7 -5 10 -4 12 4 7 6 -4 9 -11 6 -16 -3 -5 2 -13 11
-18 11 -6 13 -11 5 -16 -6 -4 -11 -2 -11 3 0 6 -7 11 -16 11 -10 0 -14 -5 -10
-15 4 -12 1 -12 -22 2 -27 17 -27 17 -9 -3 9 -11 14 -23 11 -26 -3 -3 -8 -30
-11 -58 -4 -38 -2 -51 6 -46 6 4 11 16 11 26 0 10 5 22 11 26 7 4 9 -2 7 -17
-3 -25 16 -33 40 -16 20 16 14 -10 -13 -54 -19 -30 -31 -39 -44 -34 -27 8 -44
-20 -43 -70 2 -51 -4 -57 -18 -19 l-10 26 -35 -33 c-19 -18 -37 -45 -40 -61
-4 -15 -10 -28 -15 -28 -13 0 -20 41 -20 123 0 80 -12 96 -25 31 l-6 -36 -18
32 c-24 46 -36 38 -36 -23 0 -46 -3 -52 -22 -55 -18 -3 -22 -11 -25 -50 -4
-52 -10 -44 -29 41 -6 31 -15 57 -18 57 -3 0 -16 -12 -29 -27 -13 -16 -21 -23
-18 -17 7 15 -40 59 -49 45 -3 -6 -4 -15 0 -20 3 -5 1 -12 -4 -15 -5 -4 -13
-1 -16 5 -4 5 -13 8 -21 5 -10 -4 -14 3 -14 22 0 25 -4 27 -41 30 -23 1 -50 7
-61 13 -32 17 -31 3 1 -21 30 -21 41 -53 22 -65 -5 -3 -12 3 -15 13 -7 19 -56
71 -56 58 0 -4 9 -25 20 -46 21 -42 12 -54 -20 -25 -14 13 -16 11 -12 -20 4
-35 4 -35 -37 -35 -40 0 -46 -6 -42 -37 1 -7 -2 -13 -7 -13 -12 0 -22 24 -22
51 0 11 -21 42 -46 69 -64 68 -91 65 -63 -7 8 -22 7 -30 -5 -39 -12 -8 -14
-20 -10 -43 4 -18 2 -37 -5 -45 -9 -11 -10 -20 -1 -36 6 -11 10 -33 7 -48 l-3
-27 -17 35 c-13 29 -16 31 -17 13 0 -13 -5 -23 -11 -23 -6 0 -20 10 -30 23
l-20 22 6 -32 c7 -34 -10 -48 -21 -18 -4 8 -13 15 -21 15 -8 0 -21 16 -29 35
-8 19 -20 35 -27 35 -8 0 -9 -3 -1 -8 10 -6 27 -92 18 -92 -2 0 -12 10 -24 22
-25 27 -34 19 -20 -17 14 -38 -3 -57 -26 -29 -16 19 -16 13 2 -30 4 -10 -8
-16 -43 -22 -39 -7 -49 -13 -51 -32 -2 -12 -7 -22 -12 -22 -6 0 -5 -11 1 -26
12 -34 9 -36 -25 -18 -16 8 -31 13 -33 11 -8 -9 10 -37 25 -37 15 0 14 -2 -1
-17 -15 -15 -20 -16 -38 -4 -15 9 -24 10 -32 2 -13 -13 -47 -15 -47 -2 0 10
-30 24 -37 17 -2 -2 3 -20 11 -40 14 -33 13 -66 -1 -66 -9 0 -53 54 -53 65 0
6 -5 2 -11 -7 -6 -11 -22 -18 -40 -18 -29 0 -30 -2 -27 -37 l3 -38 -43 0 c-24
0 -42 -5 -42 -11 0 -6 -6 -17 -14 -23 -10 -9 -16 -8 -26 4 -17 21 -30 19 -30
-5 0 -11 -6 -20 -13 -20 -7 0 -23 -7 -36 -16 -16 -12 -20 -19 -12 -27 21 -21
11 -33 -24 -29 -27 3 -39 -1 -53 -17 -16 -19 -19 -20 -45 -7 -26 14 -27 14
-16 -5 14 -27 8 -32 -26 -19 -37 14 -45 4 -9 -12 l29 -12 -33 -4 c-22 -2 -41
3 -53 14 -11 10 -35 23 -54 30 l-34 11 29 -27 c17 -16 30 -35 30 -43 0 -9 3
-22 6 -31 5 -13 -1 -16 -29 -16 -19 0 -40 -7 -47 -15 -6 -8 -15 -14 -18 -13
-4 1 -24 -1 -45 -5 -37 -8 -48 -21 -25 -30 7 -2 0 -8 -15 -12 -18 -5 -37 -3
-52 5 -20 11 -28 10 -50 -4 -17 -11 -36 -15 -51 -12 -22 6 -23 4 -18 -24 6
-27 4 -30 -20 -30 -14 0 -26 -4 -26 -9 0 -5 -13 -14 -30 -19 -16 -6 -38 -23
-47 -39 -16 -25 -24 -28 -76 -30 -40 -1 -65 -7 -78 -19 -18 -17 -20 -16 -41 6
l-22 23 -9 -21 c-8 -17 -15 -20 -41 -15 -17 3 -32 10 -34 15 -5 12 -46 10 -59
-3 -8 -8 -17 -8 -31 0 -29 15 -32 14 -32 -14 0 -25 0 -25 -30 -10 -25 13 -31
13 -36 2 -3 -9 -15 -12 -36 -9 -20 3 -35 0 -42 -9 -6 -8 -26 -15 -44 -16 -42
-3 -83 -32 -76 -55 4 -14 0 -18 -18 -18 -25 0 -93 -22 -104 -33 -4 -4 -15 -7
-25 -7 -32 0 -90 -33 -87 -49 1 -9 -1 -22 -6 -30 -6 -9 -4 -18 7 -26 23 -17
21 -25 -6 -25 -12 0 -30 -9 -40 -20 -9 -11 -29 -20 -46 -20 -21 0 -28 -5 -27
-17 1 -13 -9 -19 -34 -23 -21 -3 -34 -11 -32 -18 1 -7 -6 -15 -15 -19 -10 -3
-28 -17 -40 -32 -20 -23 -29 -26 -83 -24 -33 1 -83 8 -112 16 -29 8 -72 15
-95 15 -24 -1 -50 5 -58 12 -14 11 -17 10 -22 -8 -4 -18 -13 -22 -47 -22 -22
0 -50 -7 -60 -15 -15 -11 -23 -12 -33 -3 -7 6 -16 8 -19 6 -3 -3 -35 5 -72 18
-79 28 -102 30 -102 9 0 -13 -7 -15 -34 -10 -29 6 -34 4 -39 -17 -4 -12 -7
-183 -7 -379 l0 -356 43 10 c23 5 90 23 148 38 59 16 141 34 184 39 42 5 107
18 144 29 174 50 292 55 386 15 146 -62 202 -68 272 -29 27 15 53 23 64 20 11
-4 19 -2 19 5 0 6 -5 8 -11 5 -6 -4 -5 2 3 14 7 12 28 27 46 33 17 7 32 16 32
20 0 4 7 8 15 8 15 0 19 -10 15 -45 -2 -19 -1 -19 23 3 16 15 27 20 32 13 3
-6 3 -11 -1 -11 -9 0 28 -29 37 -30 12 0 5 29 -8 34 -7 3 -13 10 -13 16 0 6 4
8 10 5 5 -3 10 1 10 9 0 8 12 28 26 43 14 15 23 22 19 16 -10 -21 13 -15 35 9
11 12 20 16 20 10 0 -17 -34 -49 -48 -44 -7 2 -12 -1 -12 -7 0 -6 -7 -11 -16
-11 -10 0 -14 -6 -10 -15 3 -8 1 -15 -5 -15 -6 0 -7 -5 -4 -10 3 -6 18 -7 32
-4 24 6 25 6 12 -17 -10 -20 -10 -22 2 -13 8 5 25 9 39 8 33 -2 214 35 218 45
1 5 13 6 26 4 13 -3 34 0 46 7 12 6 38 13 59 15 20 2 130 24 244 49 114 26
214 46 222 46 25 0 65 23 65 37 0 10 5 11 17 5 10 -5 24 -7 31 -5 6 3 12 -1
12 -8 0 -10 3 -10 11 -2 7 7 9 20 5 30 -5 13 -9 14 -15 5 -6 -10 -11 -9 -22 4
-12 14 -10 19 14 38 15 12 27 25 27 29 0 4 9 18 20 30 11 12 18 27 16 34 -3 6
0 14 7 17 8 3 6 8 -5 16 -15 9 -16 14 -5 30 16 27 32 25 69 -10 17 -16 35 -30
40 -30 5 0 7 -13 3 -28 -4 -21 -1 -33 11 -43 12 -9 15 -10 10 -1 -4 7 -1 12 9
12 9 0 13 5 9 11 -4 8 1 9 16 4 18 -6 22 -4 17 8 -3 9 1 18 9 21 8 3 14 12 14
20 0 8 4 18 10 21 6 4 8 -15 6 -51 -3 -49 0 -59 20 -77 13 -11 21 -24 18 -29
-9 -15 33 -3 50 15 23 23 47 22 39 0 -5 -14 -3 -16 7 -6 9 8 19 9 32 2 14 -7
20 -6 24 5 5 12 10 13 30 4 20 -10 27 -8 39 8 18 24 19 35 2 28 -8 -3 -19 2
-26 10 -11 13 -8 20 15 43 18 18 26 22 21 10 -11 -29 23 -34 44 -6 16 21 21
22 38 12 11 -7 27 -10 36 -7 19 8 19 0 -1 -21 -15 -14 -17 -14 -28 0 -10 15
-14 14 -31 -7 l-20 -23 23 19 c31 27 28 8 -5 -27 l-28 -29 53 32 c30 18 59 45
65 59 15 36 17 37 27 21 7 -10 10 -11 10 -2 0 6 7 12 16 12 9 0 12 5 8 13 -6
9 -5 9 7 1 8 -7 26 -11 41 -9 18 2 25 -1 22 -9 -3 -9 4 -11 26 -8 18 2 30 0
30 -7 0 -6 6 -11 14 -11 8 0 17 -11 20 -25 4 -14 14 -25 24 -26 37 -2 87 3
110 12 30 12 298 55 430 70 101 12 127 9 158 -18 11 -10 33 -25 49 -35 17 -9
39 -32 49 -52 11 -20 28 -36 40 -38 12 -2 20 -9 18 -16 -1 -8 2 -11 8 -7 12 7
90 -15 90 -27 0 -4 8 -8 18 -9 14 0 14 -1 -3 -8 -11 -5 -92 -4 -179 0 -174 10
-248 2 -324 -33 -51 -25 -91 -79 -99 -136 -7 -54 20 -140 59 -187 62 -74 61
-70 20 -69 -53 3 -143 -17 -149 -33 -3 -7 -13 -13 -22 -13 -10 0 -12 -3 -5 -8
6 -4 13 -15 17 -24 12 -34 116 -69 258 -87 37 -5 72 -12 78 -15 6 -4 17 -4 24
1 20 13 37 12 37 -2 0 -7 6 -18 14 -24 11 -9 18 -8 30 4 15 15 20 12 17 -7 -2
-16 20 -7 53 23 21 18 40 27 47 23 9 -5 10 -2 5 11 -7 18 -6 18 14 0 11 -10
20 -26 20 -37 0 -15 -5 -17 -25 -12 -19 5 -25 2 -25 -11 0 -11 5 -15 16 -11 8
3 12 2 9 -4 -3 -6 -14 -10 -23 -11 -14 0 -13 -2 3 -8 14 -6 25 -3 37 11 16 19
17 18 32 -4 9 -12 16 -17 16 -11 0 7 7 10 15 7 8 -4 12 -10 9 -15 -3 -5 1 -9
9 -9 10 0 13 7 10 19 -4 15 3 19 34 24 21 4 52 7 70 7 17 0 35 5 38 10 3 6 -1
10 -9 10 -9 0 -16 4 -16 9 0 5 9 7 20 4 11 -3 20 -11 20 -19 0 -15 34 -36 44
-27 11 11 6 23 -9 23 -8 0 -15 4 -15 10 0 5 7 7 15 4 8 -3 20 -2 27 2 7 4 31
7 55 5 36 -2 43 1 44 16 0 10 3 13 6 6 2 -7 9 -13 14 -13 6 0 7 6 3 13 -6 9
-5 9 7 0 10 -8 28 -9 60 -3 46 9 55 9 100 -4 17 -5 40 -2 64 8 20 9 41 14 45
11 5 -3 23 9 42 26 18 17 26 29 18 27 -13 -4 -40 13 -40 26 0 14 37 9 51 -8
11 -13 20 -16 30 -10 8 5 22 9 32 10 9 1 20 3 25 4 4 2 12 4 17 4 6 1 32 12
58 25 35 17 52 32 59 53 6 17 14 25 17 19 17 -27 80 -12 121 29 3 3 11 6 18 8
7 1 25 10 38 19 35 22 15 33 -64 33 -44 0 -61 3 -56 11 3 6 1 15 -6 19 -22 14
-3 42 22 35 16 -4 19 -3 9 3 -10 8 -11 11 -1 17 43 26 188 21 241 -8 29 -15
50 -19 102 -15 36 2 63 0 61 -4 -3 -4 7 -3 21 2 37 14 198 13 189 -1 -3 -6
-18 -8 -33 -5 -17 5 -21 4 -12 -2 11 -8 10 -14 -4 -36 -13 -19 -16 -37 -11
-65 6 -37 4 -40 -31 -58 -52 -27 -59 -43 -43 -92 7 -23 17 -41 22 -41 4 0 7
-3 7 -7 -8 -53 37 -91 131 -114 58 -14 71 -24 63 -45 -7 -18 35 -6 57 16 17
17 22 17 127 8 7 -1 11 -4 9 -7 -2 -3 1 -11 8 -16 13 -12 108 -16 101 -5 -5 9
17 29 48 45 11 5 23 17 25 25 5 13 3 13 -11 1 -22 -17 -21 -13 3 43 17 38 20
59 15 123 -3 43 -2 72 1 66 9 -21 23 -15 64 27 22 22 49 40 60 40 12 0 30 5
41 11 76 40 305 44 386 7 31 -15 46 -17 60 -9 14 8 15 11 3 12 -8 0 -4 4 10 8
14 4 38 2 55 -5 17 -7 41 -10 55 -7 36 7 81 -13 74 -32 -5 -11 -2 -14 12 -9
11 4 27 14 36 21 9 8 21 12 26 9 5 -3 15 1 22 9 7 8 20 15 29 15 14 0 14 -2 1
-10 -13 -8 -12 -10 3 -10 9 0 17 5 17 10 0 6 16 10 35 10 19 0 35 -4 35 -10 0
-5 5 -10 11 -10 5 0 8 4 5 9 -8 12 50 25 65 15 8 -5 9 -3 4 6 -6 9 4 11 44 9
28 -2 51 -1 51 3 0 3 24 8 53 11 28 2 90 15 137 29 47 14 110 31 140 38 30 6
89 22 130 35 41 12 94 28 116 34 67 18 68 21 61 199 -9 204 -21 319 -40 362
-21 49 -56 164 -51 169 2 2 12 -6 23 -17 18 -22 33 -29 29 -14 -1 4 5 18 14
32 8 14 22 39 30 55 9 19 20 29 31 27 10 -2 20 4 23 13 4 9 13 14 21 11 8 -3
12 -2 9 2 -2 4 -1 14 5 22 6 11 9 7 10 -15 1 -16 2 -37 1 -45 0 -11 3 -11 13
4 8 10 19 15 25 11 8 -5 6 -13 -7 -27 -11 -13 -13 -18 -4 -16 7 2 15 -2 18 -8
2 -7 -4 -11 -13 -10 -9 0 -19 -6 -22 -14 -3 -12 -2 -12 8 -3 15 14 55 -1 45
-17 -3 -5 -1 -11 5 -15 5 -3 10 3 10 14 0 24 13 27 33 7 21 -22 51 -9 66 27 8
18 14 35 15 39 3 16 16 19 29 7 16 -17 11 -40 -8 -33 -9 4 -13 -3 -11 -21 1
-24 3 -26 41 -20 79 13 112 25 134 51 16 18 18 25 8 21 -11 -4 -15 0 -14 13 1
10 4 17 8 14 4 -2 12 3 18 10 10 12 8 13 -9 9 -13 -4 -25 0 -30 8 -5 7 -12 10
-17 6 -4 -5 -1 -12 7 -17 12 -7 12 -13 1 -33 -7 -14 -11 -30 -7 -35 3 -6 -5
-9 -19 -8 -27 1 -41 21 -23 32 7 4 8 3 4 -4 -4 -7 -3 -12 3 -12 5 0 13 9 16
20 4 11 11 18 16 15 5 -3 6 1 3 9 -3 9 -9 14 -13 12 -4 -3 -7 4 -7 14 0 11 2
17 5 15 2 -3 13 3 24 12 11 10 17 12 13 6 -4 -7 -4 -18 0 -24 4 -7 20 2 43 24
44 43 109 80 127 73 8 -3 11 0 7 10 -6 17 -30 19 -36 2 -3 -10 -8 -10 -16 -2
-10 9 0 19 40 44 39 23 49 34 38 40 -7 5 -18 5 -25 0 -6 -6 -15 -6 -19 -2 -5
4 -5 -1 -2 -10 4 -12 1 -16 -14 -13 -11 2 -19 -2 -19 -9 0 -7 -18 -24 -39 -38
-23 -15 -37 -20 -34 -12 8 22 -7 16 -29 -11 -11 -14 -24 -23 -29 -20 -11 7
-12 25 -1 24 19 -3 23 2 12 16 -7 8 -17 12 -24 9 -6 -3 -3 1 7 9 14 11 15 16
5 20 -7 3 -2 6 12 6 14 1 21 5 15 9 -13 9 -16 42 -3 42 5 0 6 5 2 12 -4 6 -3
8 4 4 6 -3 13 -2 17 4 7 12 25 4 25 -11 0 -5 -9 -9 -20 -9 -11 0 -20 -4 -20
-9 0 -5 9 -7 20 -4 12 3 20 0 20 -6 0 -7 -6 -9 -12 -5 -7 4 -10 4 -6 -1 4 -4
-2 -21 -13 -37 -12 -16 -19 -32 -15 -35 3 -3 15 11 27 31 13 23 28 36 42 36
11 0 17 3 14 7 -10 9 23 43 42 43 12 0 12 3 3 12 -9 9 -19 5 -42 -17 -16 -16
-30 -24 -30 -18 0 6 16 23 35 37 20 15 33 31 30 36 -3 5 -1 11 4 14 5 4 12 2
16 -3 3 -5 15 -8 26 -6 18 4 19 2 7 -12 -11 -14 -10 -15 12 -8 14 4 22 4 17 0
-4 -5 -17 -9 -30 -10 -16 -2 -21 -8 -20 -24 2 -11 -2 -21 -9 -21 -6 0 -8 -3
-5 -7 4 -3 16 2 28 12 17 16 22 17 29 5 5 -8 6 -18 4 -22 -3 -4 0 -8 6 -8 6 0
2 -10 -10 -22 -24 -26 -27 -53 -4 -44 8 3 12 2 9 -4 -3 -6 -13 -10 -21 -10 -8
0 -13 -3 -13 -7 1 -5 0 -12 -1 -18 -1 -5 -3 -17 -4 -25 0 -8 -7 -14 -14 -12
-8 1 -11 -2 -8 -6 3 -5 16 -8 29 -7 27 3 127 63 127 76 0 5 7 9 16 9 8 0 13 4
9 9 -3 5 0 13 6 17 8 4 9 3 5 -4 -10 -17 2 -15 32 6 15 10 35 22 46 25 15 6
16 10 6 22 -10 12 -9 16 4 21 9 3 14 10 11 14 -3 5 0 12 6 16 9 5 10 -2 6 -25
l-7 -33 35 21 c19 11 35 16 35 12 0 -5 -8 -12 -17 -15 -15 -6 -15 -8 -3 -16
13 -9 13 -10 0 -11 -8 -1 -18 -1 -22 -1 -17 3 -27 -25 -15 -41 11 -15 16 -15
57 4 55 26 90 31 108 17 10 -9 12 -8 10 2 -3 15 52 33 87 28 20 -3 15 -8 -31
-35 -30 -18 -52 -28 -49 -23 3 6 -1 10 -10 10 -9 0 -13 -5 -10 -10 4 -6 1 -18
-6 -26 -6 -8 -9 -17 -6 -21 4 -3 9 1 12 8 4 10 18 13 48 11 38 -4 40 -2 24 10
-22 16 -17 22 46 57 48 27 67 27 60 1 -3 -11 -9 -17 -14 -14 -5 3 -17 0 -26
-5 -16 -9 -16 -10 5 -11 12 0 22 -4 22 -10 0 -11 91 -3 103 9 5 5 -10 5 -32 1
-26 -5 -44 -3 -48 3 -3 6 -1 7 5 3 7 -4 12 -2 12 4 0 7 16 10 42 8 32 -2 44
-8 46 -22 3 -11 0 -16 -7 -12 -7 5 -9 1 -5 -8 13 -34 74 -12 74 27 0 10 5 15
10 12 6 -3 10 -2 10 4 0 6 10 16 23 22 12 6 19 8 15 4 -4 -5 -2 -15 5 -23 10
-13 8 -14 -13 -9 -14 4 -19 4 -12 1 20 -9 14 -31 -10 -39 -22 -7 -21 -8 7 -12
17 -3 36 -10 44 -16 12 -10 14 -9 8 5 -5 13 4 21 41 34 26 10 51 21 57 26 5 4
18 8 30 8 17 0 18 2 5 11 -12 8 -11 9 5 7 11 -2 25 3 32 12 11 13 12 12 13 -6
0 -11 -6 -21 -12 -21 -7 -1 -39 -12 -72 -25 -42 -18 -53 -27 -41 -31 9 -4 13
-12 9 -18 -4 -8 -3 -9 5 -5 6 4 9 11 6 15 -2 5 6 13 18 18 28 13 87 -2 87 -22
0 -8 5 -15 11 -15 5 0 7 6 4 13 -4 6 0 3 9 -7 20 -25 11 -39 -17 -25 -19 8
-20 8 -7 -3 9 -7 15 -20 14 -28 0 -10 1 -11 3 -2 4 11 8 10 22 -2 20 -18 47
-6 38 19 -4 9 -12 13 -18 10 -6 -4 -5 2 3 14 7 12 16 21 20 21 4 0 5 7 2 15
-9 21 -22 19 -29 -6 -4 -11 -9 -18 -12 -16 -2 3 1 15 7 27 9 18 9 24 0 30 -9
5 -9 9 -1 14 6 4 11 2 11 -4 0 -16 20 -1 31 24 9 20 9 19 5 -4 -4 -23 -3 -23
7 -6 7 11 25 33 40 50 28 30 28 30 -2 -13 -31 -44 -42 -76 -19 -53 9 9 16 8
31 -6 15 -12 21 -14 24 -4 3 6 10 12 16 12 6 0 -1 -13 -16 -28 -25 -26 -26
-29 -7 -27 11 1 23 5 27 10 5 4 2 5 -6 0 -9 -5 -12 -4 -8 2 3 5 24 9 47 9 26
-1 40 3 40 11 0 7 8 13 18 12 10 0 12 -3 5 -6 -7 -2 -13 -8 -13 -13 0 -6 28
-6 67 1 22 4 24 -3 7 -23 -18 -21 -18 -21 12 1 26 19 45 23 105 23 41 0 78 3
83 6 10 6 17 7 96 18 25 3 56 16 70 28 l25 21 -19 -23 c-11 -12 -17 -24 -14
-27 3 -3 81 0 174 6 125 8 203 9 299 0 72 -6 209 -13 305 -16 96 -4 199 -8
228 -11 37 -2 58 1 68 10 11 12 11 15 -4 21 -15 6 -14 8 7 16 31 12 33 9 16
-25 -14 -27 -14 -27 13 -22 15 3 45 2 67 -3 32 -6 47 -3 75 14 19 12 52 25 73
29 30 6 37 11 32 24 -5 14 -4 14 13 -1 10 -9 22 -14 25 -10 4 3 7 1 7 -5 0 -7
-3 -12 -7 -13 -119 -11 -135 -17 -109 -39 17 -14 51 -6 41 10 -3 5 1 10 10 10
10 0 15 -6 12 -13 -5 -14 -1 -15 90 -23 47 -4 68 -2 90 11 23 14 25 14 9 1
-19 -16 -19 -16 7 -14 15 1 27 8 27 15 0 11 5 11 23 -1 25 -16 127 -28 127
-15 0 5 10 5 23 0 12 -4 31 -7 42 -5 11 2 67 4 125 5 66 1 96 5 80 9 -24 8
-24 8 5 9 22 1 26 4 16 10 -8 5 -20 7 -28 4 -7 -3 -13 0 -13 6 0 7 13 9 40 5
l40 -7 0 1051 c0 772 -3 1058 -12 1077 -13 29 -33 32 -46 8 -6 -9 -16 -14 -26
-10 -11 5 -17 -1 -22 -21 -3 -15 -10 -38 -15 -51 l-10 -23 -19 25 c-11 14 -20
30 -20 37 0 7 -14 10 -37 8 -30 -2 -38 -8 -46 -32 -7 -22 -7 -31 2 -34 19 -6
13 -42 -8 -42 -11 0 -22 -6 -25 -12 -4 -9 -10 -6 -22 10 -9 12 -20 22 -24 22
-14 0 -20 -31 -10 -51 8 -15 7 -19 -5 -19 -10 0 -15 10 -15 33 0 32 -15 57
-33 57 -5 0 -7 -15 -5 -32 3 -18 3 -38 1 -45 -6 -17 -33 -4 -43 21 -7 17 -9
18 -9 4 -1 -10 -6 -18 -12 -18 -6 0 -9 9 -6 20 7 26 -16 45 -32 26 -10 -11
-10 -20 -1 -37 9 -17 9 -27 -1 -45 -17 -33 -29 -30 -67 13 l-33 38 3 -35 c3
-37 2 -37 -52 -29 -20 3 -26 -1 -28 -18 -2 -13 -7 -23 -12 -23 -4 0 -10 -10
-13 -22 -4 -12 -9 -19 -13 -15 -3 3 -15 -4 -25 -16 l-18 -22 -1 32 c0 23 5 33
21 38 26 9 19 31 -10 28 -11 -2 -21 2 -21 7 0 6 -4 10 -10 10 -5 0 -10 -7 -10
-15 0 -17 -16 -20 -25 -5 -3 6 -15 10 -26 10 -13 0 -19 7 -19 21 0 17 -4 20
-22 15 -13 -3 -26 -6 -30 -6 -3 0 -8 -8 -11 -17 -4 -16 -5 -16 -12 1 -6 13 -4
21 3 24 17 5 15 22 -3 22 -8 0 -15 9 -15 19 0 14 -5 18 -20 14 -11 -3 -20 -9
-20 -13 0 -4 9 -15 20 -25 11 -10 20 -23 19 -29 0 -7 -2 -7 -5 1 -4 8 -12 5
-25 -8 -24 -24 -44 -16 -29 12 22 41 -10 45 -59 7 -19 -15 -27 -16 -39 -6 -13
11 -15 10 -10 -9 4 -15 2 -20 -7 -17 -7 3 -16 1 -20 -5 -10 -18 -25 -12 -25 9
0 11 5 20 10 20 6 0 10 7 10 15 0 17 -16 20 -25 4 -4 -6 -14 -8 -22 -5 -9 4
-17 -1 -20 -14 -6 -23 -16 -25 -44 -10 -11 6 -19 7 -19 1 0 -13 -56 -71 -69
-71 -6 0 -11 7 -11 15 0 9 -6 12 -16 8 -13 -5 -15 -2 -10 14 8 26 -29 39 -47
16 -47 -57 -58 -62 -62 -25 -4 29 -17 52 -26 46 -6 -3 -7 -14 -4 -25 4 -10 2
-19 -3 -19 -6 0 -12 6 -15 13 -3 9 -7 9 -20 -2 -9 -7 -15 -16 -14 -20 2 -3 -7
-17 -20 -30 -18 -19 -23 -21 -23 -8 0 10 -7 17 -15 17 -7 0 -19 8 -25 18 -8
13 -10 13 -9 2 1 -8 -1 -23 -6 -34 -5 -12 -3 -21 6 -27 8 -5 10 -9 4 -9 -19 0
-38 18 -31 29 4 6 0 14 -10 18 -13 5 -15 14 -10 49 3 24 1 46 -4 49 -6 3 -10
1 -10 -5 0 -6 -4 -8 -10 -5 -5 3 -10 -1 -10 -9 0 -9 -7 -16 -15 -16 -8 0 -15
-6 -15 -14 0 -8 -7 -16 -15 -20 -9 -3 -15 -18 -15 -36 0 -17 -4 -29 -9 -26 -4
3 -6 29 -3 57 3 37 2 50 -7 45 -6 -4 -11 -16 -11 -26 0 -10 -4 -22 -10 -25
-11 -7 -13 -45 -4 -69 3 -9 9 -14 13 -12 4 3 7 -4 7 -15 0 -34 -40 -20 -44 16
l-4 29 -17 -23 -18 -23 5 33 5 34 -22 -19 c-23 -21 -28 -8 -11 25 8 14 7 19
-3 19 -7 0 -21 -16 -31 -36 -16 -35 -18 -36 -36 -19 -11 10 -26 15 -35 12 -10
-4 -17 2 -21 20 l-7 26 -18 -21 c-22 -27 -29 -28 -22 -2 4 14 0 20 -11 20 -9
0 -16 -4 -16 -9 0 -5 -8 -12 -18 -16 -11 -3 -24 -17 -30 -30 -6 -14 -16 -25
-21 -25 -12 0 -24 39 -22 73 2 27 -13 38 -22 15 -4 -9 -8 -10 -14 -2 -16 22
-67 -20 -98 -82 -20 -39 -31 -53 -33 -41 -3 12 -7 15 -15 8 -7 -5 -24 -7 -40
-4 -23 5 -26 8 -15 21 11 13 10 15 -5 9 -10 -4 -16 -3 -13 1 2 4 -3 16 -11 27
-15 20 -15 20 -10 -2 3 -13 -1 -27 -9 -34 -9 -8 -11 -16 -5 -23 6 -6 6 -17 2
-25 -6 -9 -14 -2 -29 23 l-21 35 22 4 c21 3 21 4 3 12 -13 6 -21 5 -24 -3 -5
-15 -32 -16 -32 -2 0 22 -28 8 -35 -17 -6 -27 -21 -43 -39 -43 -5 0 -3 6 3 14
9 10 8 16 -4 26 -19 16 -48 -5 -40 -29 3 -10 -1 -26 -9 -37 -14 -18 -15 -18
-21 -1 -4 9 -5 29 -2 44 5 29 -12 53 -37 53 -9 0 -16 7 -16 15 0 23 -37 -4
-45 -32 -6 -24 -31 -31 -37 -11 -2 6 -20 11 -40 10 -27 -1 -38 3 -40 16 -3 14
-8 12 -31 -12 -22 -24 -26 -36 -21 -59 5 -22 3 -28 -7 -25 -8 3 -15 14 -17 26
-4 27 -18 28 -34 3 -9 -15 -15 -17 -26 -9 -10 9 -14 6 -19 -10 -3 -12 -9 -22
-14 -22 -5 0 -9 -7 -9 -15 0 -18 -5 -19 -30 -3 -15 10 -22 9 -38 -5 -23 -21
-33 -22 -26 -2 5 11 -1 15 -20 15 -16 0 -26 6 -26 14 0 17 -33 31 -38 17 -2
-6 -11 -11 -20 -11 -17 0 -75 -17 -109 -33 -12 -5 -24 -19 -27 -31 -4 -17 -8
-18 -18 -8 -10 10 -10 15 2 22 8 5 12 12 8 15 -3 4 -18 -1 -32 -10 -26 -17
-26 -17 -26 11 0 22 -3 25 -12 16 -16 -16 -28 -15 -28 3 0 23 -15 18 -30 -10
-7 -14 -19 -25 -27 -25 -16 0 -17 14 -2 41 9 18 8 20 -12 17 -12 -2 -26 -13
-30 -26 -6 -15 -5 -21 1 -17 6 3 10 -1 10 -9 0 -9 -4 -16 -10 -16 -5 0 -10 -9
-10 -21 0 -11 4 -18 9 -15 5 3 14 0 20 -8 16 -20 2 -78 -21 -84 -16 -4 -18
-10 -12 -36 6 -26 4 -29 -8 -18 -8 6 -18 8 -22 4 -7 -7 -4 13 16 92 5 21 7 40
5 42 -9 10 -34 -9 -51 -38 -11 -17 -28 -40 -39 -51 -16 -16 -17 -21 -6 -28 10
-6 6 -9 -14 -9 -17 0 -26 4 -22 10 4 6 0 24 -9 40 -14 29 -14 30 10 36 26 7
33 34 9 34 -10 0 -15 10 -15 28 l-1 27 -20 -24 c-11 -14 -17 -31 -14 -42 5
-14 2 -17 -9 -13 -10 4 -16 1 -16 -9 0 -9 -9 -18 -20 -22 -11 -3 -19 -12 -17
-18 1 -7 -5 -12 -13 -12 -8 0 -14 6 -12 14 5 22 -9 51 -24 51 -13 0 -18 -15
-17 -48 1 -7 -2 -11 -5 -8 -3 3 -14 -1 -24 -11 -25 -22 -33 -11 -30 47 1 28
-2 50 -8 50 -5 0 -10 -7 -10 -16 0 -23 -26 -45 -44 -38 -11 4 -16 0 -16 -14 0
-12 -5 -24 -12 -28 -8 -5 -9 2 -5 24 7 33 -8 55 -16 25 -4 -14 -5 -13 -6 4 0
12 -10 27 -20 33 -17 8 -22 6 -33 -17 -7 -16 -22 -29 -34 -31 -11 -2 -28 -15
-37 -30 l-18 -27 6 33 c6 31 6 32 -19 22 -27 -10 -30 -7 -27 22 1 9 -3 19 -9
23 -5 3 -10 1 -10 -4 0 -6 -4 -11 -10 -11 -6 0 -6 9 0 24 7 19 4 28 -12 43
-21 18 -21 18 -14 -19 4 -23 3 -38 -3 -38 -5 0 -11 10 -13 21 -5 33 -32 46
-52 26 -9 -8 -16 -20 -16 -26 0 -6 -4 -11 -10 -11 -5 0 -10 14 -10 30 0 27 -2
29 -19 18 -11 -7 -17 -16 -14 -21 3 -5 0 -7 -8 -5 -8 3 -14 17 -14 31 1 34 -5
34 -29 -1 -11 -16 -32 -37 -48 -48 -15 -10 -28 -25 -28 -31 0 -7 -4 -13 -9
-13 -11 0 -21 25 -21 55 0 13 -4 27 -10 30 -11 7 -13 -4 -10 -46 1 -30 -17
-41 -68 -43 -28 -1 -36 -7 -46 -30 l-12 -29 -13 41 c-16 47 -31 55 -31 17 0
-20 -5 -25 -24 -25 -14 0 -27 -4 -30 -8 -7 -12 38 -139 58 -161 20 -22 20 -30
0 -71 -13 -25 -14 -34 -4 -40 7 -4 10 -13 6 -19 -4 -6 -2 -20 4 -32 14 -25 3
-41 -11 -16 -14 23 -60 46 -101 49 -18 1 -41 8 -51 17 -10 8 -34 23 -55 33
-21 10 -26 15 -12 11 14 -3 54 -14 90 -24 35 -10 68 -15 72 -13 14 9 8 29 -12
42 -42 26 -12 58 38 40 16 -6 22 -4 22 8 0 46 -188 60 -231 18 l-20 -21 28 4
c16 3 44 0 63 -5 30 -8 26 -9 -30 -7 -85 3 -82 2 -71 24 13 23 61 41 109 41
27 0 33 3 28 16 -5 12 -2 15 10 10 8 -3 18 -6 20 -6 3 0 2 -4 -1 -10 -3 -5 -2
-10 4 -10 34 0 8 58 -48 109 -21 19 -22 22 -6 16 11 -4 27 -8 35 -9 8 0 19 -5
23 -11 5 -5 6 3 2 20 -11 48 -23 57 -54 41 -47 -24 -106 -48 -98 -39 5 4 31
19 60 33 28 14 53 30 54 36 2 7 -17 22 -42 34 l-45 22 -44 -26 c-49 -28 -56
-31 -56 -17 0 5 9 13 20 16 21 7 28 25 8 25 -6 0 -26 11 -44 25 -18 14 -36 25
-40 25 -6 0 6 -10 55 -47 11 -8 -14 -18 -62 -24 -29 -3 -60 -9 -70 -14 -16 -7
-17 -4 -11 20 4 17 3 26 -3 22 -5 -3 -10 0 -10 7 0 8 6 12 14 9 7 -3 13 -1 13
5 0 5 16 27 34 48 l35 39 -26 3 c-14 2 -30 -1 -36 -7 -6 -6 -18 -11 -26 -11
-14 0 -14 2 -1 11 12 8 10 10 -10 6 -14 -3 -34 -1 -45 4 -15 7 -13 8 10 3 l30
-5 -33 33 c-18 19 -29 37 -26 41 4 4 -1 7 -12 7 -16 0 -16 2 -4 10 12 8 8 16
-25 50 -21 22 -42 40 -46 40 -4 0 -12 -12 -18 -27 -10 -25 -11 -25 -5 -3 3 14
6 32 7 40 2 8 8 31 14 50 6 19 14 53 18 75 l6 40 -27 -53 c-29 -58 -63 -87
-91 -78 -16 5 -18 15 -13 88 7 100 25 133 82 150 36 11 42 10 54 -7 13 -18 14
-17 16 11 1 16 2 38 3 49 1 11 -3 26 -9 34 -8 11 -8 13 0 8 7 -4 11 5 12 23 0
18 -4 29 -11 27 -7 -1 -11 6 -11 15 1 10 -2 16 -6 13 -5 -3 -11 -1 -15 5 -3 5
-1 10 5 10 6 0 8 5 4 12 -5 7 -3 8 5 4 7 -5 16 -18 21 -30 l9 -21 0 22 c1 35
-37 124 -72 167 -17 22 -25 36 -18 32 10 -7 10 -4 0 11 -6 11 -21 26 -33 33
-27 17 -86 24 -86 10 0 -5 -9 -10 -21 -10 -15 0 -19 4 -15 16 4 11 -1 18 -14
21 -11 3 -20 10 -20 15 0 5 -5 6 -10 3 -6 -4 -17 -1 -25 5 -11 10 -15 10 -15
1 0 -7 -5 -9 -12 -5 -7 4 -58 9 -114 10 -56 1 -107 5 -113 8 -6 4 -11 3 -11
-3z m330 -45 c0 -2 -7 -9 -15 -16 -13 -11 -14 -10 -9 4 5 14 24 23 24 12z
m-417 -43 c3 -5 -1 -13 -8 -20 -10 -10 -14 -9 -18 1 -8 21 15 37 26 19z m582
-83 c10 -11 16 -20 13 -20 -3 0 -13 9 -23 20 -10 11 -16 20 -13 20 3 0 13 -9
23 -20z m16 -87 c13 -16 12 -17 -3 -4 -10 7 -18 15 -18 17 0 8 8 3 21 -13z
m-2286 -113 c-3 6 1 10 9 10 9 0 16 -4 16 -9 0 -18 -22 -71 -30 -71 -27 0 -40
15 -40 46 0 32 1 33 26 24 16 -7 23 -7 19 0z m-34 -107 c-10 -17 -10 -16 -11
3 0 23 13 41 18 25 2 -6 -1 -18 -7 -28z m7859 -161 c0 -15 -2 -15 -10 -2 -13
20 -13 33 0 25 6 -3 10 -14 10 -23z m-6050 -33 c0 -5 -4 -9 -10 -9 -5 0 -10 7
-10 16 0 8 5 12 10 9 6 -3 10 -10 10 -16z m-1875 -30 c-3 -4 -1 -10 5 -14 5
-3 10 -11 10 -17 0 -6 -9 -3 -20 7 -16 14 -17 20 -8 27 10 6 10 8 1 8 -7 0
-13 8 -13 18 1 16 2 15 15 -2 8 -10 12 -22 10 -27z m2259 25 c3 -8 2 -12 -4
-9 -6 3 -10 10 -10 16 0 14 7 11 14 -7z m5496 -24 c0 -5 -7 -10 -16 -10 -8 0
-12 5 -9 10 3 6 10 10 16 10 5 0 9 -4 9 -10z m-5437 -54 c12 3 27 10 33 15 8
7 9 -3 3 -37 -16 -84 -29 -122 -78 -226 -74 -155 -101 -219 -101 -234 0 -15
-59 -29 -95 -21 -28 5 -33 -5 -37 -82 -2 -34 -9 -47 -28 -60 -14 -9 -21 -11
-17 -4 6 9 3 11 -7 7 -9 -3 -16 -12 -16 -20 0 -8 -8 -14 -17 -14 -15 0 -16 -2
-3 -10 13 -8 13 -10 -2 -10 -20 0 -68 92 -68 132 0 23 4 28 23 28 13 0 29 -6
36 -12 11 -11 12 -9 6 10 -6 22 11 91 23 93 4 0 23 2 43 5 31 4 38 1 44 -18 7
-19 9 -16 12 20 2 23 8 42 12 42 8 0 19 29 27 69 1 7 12 19 23 27 38 27 82 77
102 115 10 22 16 39 12 39 -5 0 -1 5 8 10 10 6 14 22 13 52 -2 45 18 124 24
94 3 -12 10 -15 25 -10z m5457 4 c0 -11 -7 -20 -15 -20 -18 0 -19 12 -3 28 16
16 18 15 18 -8z m-5900 6 c0 -2 -7 -7 -16 -10 -8 -3 -12 -2 -9 4 6 10 25 14
25 6z m287 -38 c-3 -8 -6 -5 -6 6 -1 11 2 17 5 13 3 -3 4 -12 1 -19z m-1842
-25 c-5 -10 -7 -21 -7 -25 1 -5 -2 -8 -8 -8 -13 0 -13 3 2 35 6 14 13 23 16
20 2 -2 1 -12 -3 -22z m1617 18 c18 -7 28 -24 42 -70 20 -67 18 -79 -11 -62
-10 6 -14 11 -10 11 5 0 5 5 1 11 -4 7 -11 1 -18 -15 l-11 -28 -24 26 c-20 21
-21 26 -8 26 9 0 17 5 17 11 0 5 -5 7 -11 3 -6 -3 -3 5 6 20 16 23 16 26 1 26
-26 0 -30 1 -42 11 -6 5 -25 7 -43 5 -31 -3 -31 -3 -15 15 19 21 85 26 126 10z
m5608 5 c0 -3 -4 -8 -10 -11 -5 -3 -10 -1 -10 4 0 6 5 11 10 11 6 0 10 -2 10
-4z m193 -64 c-3 -23 -10 -42 -14 -42 -12 0 -11 21 2 59 15 42 19 36 12 -17z
m-438 7 c-4 -5 -13 -9 -21 -9 -12 0 -12 2 -2 14 14 15 32 11 23 -5z m65 0 c0
-6 -4 -7 -10 -4 -5 3 -10 11 -10 16 0 6 5 7 10 4 6 -3 10 -11 10 -16z m-7105
-69 c-5 -8 -11 -8 -17 -2 -6 6 -7 16 -3 22 5 8 11 8 17 2 6 -6 7 -16 3 -22z
m642 0 c-1 -11 -5 -20 -9 -20 -4 0 -5 -6 -2 -13 5 -13 -53 -40 -67 -31 -5 3
-9 0 -9 -7 0 -10 -3 -10 -12 -1 -7 7 -17 12 -22 12 -6 0 -4 -5 4 -10 13 -8 12
-10 -2 -10 -23 0 -23 19 -1 27 9 4 25 15 35 25 10 10 23 16 28 13 6 -4 10 1
10 9 0 9 9 16 21 16 13 0 18 4 13 12 -4 6 -3 8 4 4 6 -3 10 -15 9 -26z m963 4
c0 -8 -5 -12 -10 -9 -6 4 -8 11 -5 16 9 14 15 11 15 -7z m4686 -11 c-10 -10
-19 5 -10 18 6 11 8 11 12 0 2 -7 1 -15 -2 -18z m612 -28 c-3 -3 -9 2 -12 12
-6 14 -5 15 5 6 7 -7 10 -15 7 -18z m-1802 -22 c-10 -10 -19 5 -10 18 6 11 8
11 12 0 2 -7 1 -15 -2 -18z m-3620 -46 c-15 -19 -26 -39 -26 -44 0 -6 -8 -17
-17 -24 -15 -11 -16 -11 -5 1 20 23 14 35 -8 15 -11 -10 -20 -15 -20 -11 0 7
91 96 98 96 1 0 -8 -15 -22 -33z m-1221 12 c4 -6 13 -8 21 -5 8 3 19 -4 25
-15 6 -11 17 -18 24 -15 16 6 39 -19 30 -33 -3 -7 -13 -7 -23 -2 -9 5 -34 16
-55 25 -21 9 -35 21 -32 26 3 6 -1 10 -9 10 -9 0 -16 5 -16 10 0 13 27 13 35
-1z m4840 2 c3 -5 1 -12 -5 -16 -5 -3 -10 1 -10 9 0 18 6 21 15 7z m-3600 -53
c-48 -72 -106 -142 -129 -155 -26 -15 -53 -16 -62 -2 -4 6 1 10 12 8 11 -2 35
6 54 16 27 15 31 20 17 23 -10 2 -30 -4 -45 -13 l-27 -16 24 20 c13 12 29 21
37 21 8 0 14 4 14 9 0 13 -69 5 -88 -11 -15 -12 -16 -11 -3 5 8 10 27 25 42
33 31 16 52 19 29 4 -13 -9 -13 -10 0 -11 8 0 24 -2 35 -4 15 -3 30 11 63 62
24 35 46 62 49 59 3 -3 -7 -25 -22 -48z m3796 19 c-8 -8 -11 -7 -11 4 0 20 13
34 18 19 3 -7 -1 -17 -7 -23z m54 11 c-4 -13 -12 -27 -18 -33 -7 -7 -8 -4 -3
8 3 10 6 25 6 33 0 8 5 14 11 14 6 0 8 -9 4 -22z m645 -8 c0 -5 -2 -10 -4 -10
-3 0 -8 5 -11 10 -3 6 -1 10 4 10 6 0 11 -4 11 -10z m-1492 -29 c3 -8 -1 -12
-9 -9 -7 2 -15 10 -17 17 -3 8 1 12 9 9 7 -2 15 -10 17 -17z m-4263 -11 c3 -6
-1 -7 -9 -4 -18 7 -21 14 -7 14 6 0 13 -4 16 -10z m1015 6 c0 -3 -27 -26 -60
-51 -33 -26 -58 -50 -55 -55 3 -4 -11 -25 -31 -46 -20 -22 -45 -57 -55 -79
-17 -35 -19 -36 -13 -10 7 36 73 137 85 129 5 -3 6 1 3 9 -3 9 17 30 58 60 67
49 68 50 68 43z m2800 -48 c0 -4 -4 -8 -10 -8 -5 0 -10 7 -10 15 0 8 -5 15
-11 15 -5 0 -7 5 -3 12 5 7 11 5 21 -7 7 -11 13 -22 13 -27z m-2785 -21 c-8
-21 -21 -37 -28 -37 -8 0 -8 3 -1 8 5 4 16 22 23 40 8 18 15 31 17 29 3 -2 -3
-20 -11 -40z m3845 33 c0 -5 -8 -10 -17 -10 -15 0 -16 2 -3 10 19 12 20 12 20
0z m-2675 -18 c-53 -42 -60 -46 -33 -19 16 15 31 27 35 27 4 0 3 -3 -2 -8z
m1955 -15 c0 -8 -7 -28 -16 -46 -16 -31 -17 -32 -34 -14 -19 20 -16 37 5 29 8
-3 16 5 19 20 7 25 26 33 26 11z m-4005 -47 c8 0 15 -6 15 -13 0 -20 -55 -9
-77 16 -10 11 -13 18 -8 14 6 -3 17 -2 25 3 10 6 17 4 23 -5 4 -8 15 -15 22
-15z m145 10 c0 -5 -4 -10 -10 -10 -5 0 -10 5 -10 10 0 6 5 10 10 10 6 0 10
-4 10 -10z m3057 -22 c-3 -8 -6 -5 -6 6 -1 11 2 17 5 13 3 -3 4 -12 1 -19z
m213 7 c0 -31 -29 -75 -46 -68 -11 4 -13 13 -8 37 3 17 12 34 18 38 19 13 36
9 36 -7z m-398 -27 c-7 -7 -12 -8 -12 -2 0 14 12 26 19 19 2 -3 -1 -11 -7 -17z
m-2358 -20 c-25 -41 -54 -80 -54 -72 0 9 51 84 57 84 2 0 1 -6 -3 -12z m2801
-28 c-3 -5 -12 -7 -20 -3 -21 7 -19 13 6 13 11 0 18 -4 14 -10z m-1059 -45
c-4 -14 -11 -25 -16 -25 -5 0 -7 7 -5 15 3 8 7 22 10 31 9 26 18 8 11 -21z
m-1682 -10 c-4 -8 -11 -15 -16 -15 -6 0 -5 6 2 15 7 8 14 15 16 15 2 0 1 -7
-2 -15z m1866 0 c0 -8 -4 -15 -10 -15 -5 0 -10 7 -10 15 0 8 5 15 10 15 6 0
10 -7 10 -15z m-3516 -70 c3 -8 1 -15 -4 -15 -6 0 -10 7 -10 15 0 8 2 15 4 15
2 0 6 -7 10 -15z m940 -11 c3 -9 2 -23 -4 -32 -8 -15 -9 -14 -10 6 0 12 -5 22
-11 22 -5 0 -7 5 -4 10 9 15 22 12 29 -6z m2276 -5 c0 -6 -4 -7 -10 -4 -5 3
-10 11 -10 16 0 6 5 7 10 4 6 -3 10 -11 10 -16z m-2160 -32 c0 -5 -7 -4 -15 3
-8 7 -22 10 -30 6 -18 -7 -19 0 -2 18 10 12 15 12 30 -1 9 -9 17 -20 17 -26z
m1962 18 c-17 -14 -33 -25 -38 -25 -4 0 3 11 16 25 13 14 30 25 38 25 7 0 0
-11 -16 -25z m-2952 -5 c13 -8 13 -10 -2 -10 -9 0 -20 5 -23 10 -8 13 5 13 25
0z m1025 0 c3 -5 2 -10 -4 -10 -5 0 -13 5 -16 10 -3 6 -2 10 4 10 5 0 13 -4
16 -10z m65 0 c0 -5 -5 -10 -11 -10 -7 0 -9 -10 -5 -27 6 -27 6 -27 -9 -9 -10
13 -15 15 -15 6 0 -7 -2 -11 -5 -8 -10 9 17 58 32 58 7 0 13 -4 13 -10z m4561
-17 c-8 -15 -10 -15 -11 -2 0 17 10 32 18 25 2 -3 -1 -13 -7 -23z m82 12 c-3
-9 -8 -14 -10 -11 -3 3 -2 9 2 15 9 16 15 13 8 -4z m-4713 -65 c11 -22 18 -40
15 -40 -2 0 -14 18 -25 40 -11 22 -18 40 -15 40 2 0 14 -18 25 -40z m4710 1
c0 -10 -7 -24 -15 -31 -17 -14 -20 -3 -9 37 7 26 24 21 24 -6z m-4632 -26 c-3
-3 -9 2 -12 12 -6 14 -5 15 5 6 7 -7 10 -15 7 -18z m602 -15 c-17 -22 -37 -43
-43 -47 -6 -4 6 14 27 40 21 26 40 47 43 47 3 0 -10 -18 -27 -40z m1247 34
c-3 -3 -12 -4 -19 -1 -8 3 -5 6 6 6 11 1 17 -2 13 -5z m138 -34 c69 -23 91
-27 98 -18 6 10 8 9 5 -1 -3 -9 14 -27 41 -45 31 -21 47 -39 49 -56 l3 -25
-13 25 c-20 37 -84 75 -185 110 -128 44 -141 34 -48 -38 17 -13 21 -19 9 -13
-34 16 -86 70 -79 81 9 15 23 13 120 -20z m2542 -27 c-3 -3 -11 -2 -17 2 -8 5
-7 11 2 22 12 15 13 14 16 -1 2 -10 1 -20 -1 -23z m130 12 c-7 -13 -14 -20
-15 -14 -2 5 2 16 8 24 18 21 20 18 7 -10z m-27 -9 c0 -8 -11 -17 -25 -20 -16
-4 -22 -11 -19 -21 4 -8 1 -15 -5 -15 -18 0 -13 24 9 48 24 25 40 28 40 8z
m-3985 -36 c-9 -16 -18 -30 -21 -30 -2 0 2 14 11 30 9 17 18 30 21 30 2 0 -2
-13 -11 -30z m4042 8 c2 -17 0 -19 -7 -8 -5 8 -6 18 -4 22 8 12 10 10 11 -14z
m-150 -30 l2 -41 -17 24 c-24 34 -23 59 1 59 8 0 13 -16 14 -42z m-2732 12
c-3 -5 -14 -10 -23 -9 -14 0 -13 2 3 9 27 11 27 11 20 0z m2875 -30 c5 0 7 -7
4 -15 -4 -8 -10 -13 -14 -10 -5 3 -11 -1 -13 -7 -4 -9 -6 -10 -6 -1 -1 6 3 14
8 17 5 3 8 14 6 24 -1 9 0 11 2 5 3 -7 8 -13 13 -13z m-6483 -2 c-3 -8 -6 -5
-6 6 -1 11 2 17 5 13 3 -3 4 -12 1 -19z m2481 -2 c-16 -29 -69 -90 -89 -101
-8 -4 5 12 27 36 23 24 47 54 53 67 7 12 14 22 17 22 2 0 -1 -11 -8 -24z
m1453 -27 c15 -14 24 -31 20 -36 -3 -5 -24 13 -45 41 -39 50 -30 48 25 -5z
m-82 -31 c35 -59 18 -45 -24 20 -20 31 -28 48 -18 37 11 -11 30 -37 42 -57z
m2522 49 c-10 -9 -11 -8 -5 6 3 10 9 15 12 12 3 -3 0 -11 -7 -18z m2422 -17
c3 -11 2 -20 -3 -20 -4 0 -10 11 -12 25 -6 29 7 25 15 -5z m-8873 16 c0 -3 -4
-8 -10 -11 -5 -3 -10 -1 -10 4 0 6 5 11 10 11 6 0 10 -2 10 -4z m6394 -8 c-4
-7 -7 -28 -6 -48 0 -19 -1 -29 -4 -22 -3 6 -10 10 -14 7 -5 -3 -5 8 0 25 5 16
6 30 2 30 -4 0 0 5 8 10 20 13 23 12 14 -2z m1801 2 c-3 -5 -12 -10 -18 -10
-7 0 -6 4 3 10 19 12 23 12 15 0z m-8437 -22 c18 -15 15 -41 -8 -66 -29 -31
-60 -29 -60 3 0 14 5 25 11 25 7 0 10 12 7 30 -4 27 -2 30 16 24 12 -4 27 -11
34 -16z m2726 7 c-4 -8 -10 -12 -15 -9 -11 6 -2 24 11 24 5 0 7 -7 4 -15z
m1081 -5 c-3 -5 -12 -10 -18 -10 -7 0 -6 4 3 10 19 12 23 12 15 0z m-3636 -55
l0 -20 -9 20 c-5 11 -9 29 -9 40 l0 20 9 -20 c5 -11 9 -29 9 -40z m4051 11 c0
-26 -6 -18 -14 19 -5 22 -4 26 4 15 5 -8 10 -24 10 -34z m-603 18 c-3 -3 -22
-6 -42 -6 -20 0 -39 3 -42 6 -4 3 15 6 42 6 27 0 46 -3 42 -6z m4841 -19 c-3
-3 -9 2 -12 12 -6 14 -5 15 5 6 7 -7 10 -15 7 -18z m338 -1 c-4 -9 -9 -15 -11
-12 -3 3 -3 13 1 22 4 9 9 15 11 12 3 -3 3 -13 -1 -22z m334 19 c0 -3 -6 -11
-14 -19 -13 -12 -15 -12 -13 4 1 15 27 29 27 15z m-9053 -25 c-3 -8 -6 -5 -6
6 -1 11 2 17 5 13 3 -3 4 -12 1 -19z m2614 -5 c-12 -20 -14 -14 -5 12 4 9 9
14 11 11 3 -2 0 -13 -6 -23z m3731 19 c12 -5 15 -11 8 -22 -8 -12 -12 -11 -30
8 -21 22 -12 28 22 14z m793 -2 c-3 -5 -12 -10 -18 -10 -7 0 -6 4 3 10 19 12
23 12 15 0z m-2971 -47 c-4 -27 -11 -57 -16 -68 -7 -17 -8 -17 -4 5 3 14 -2
32 -12 44 -16 20 -16 20 1 7 15 -12 17 -11 17 7 0 22 10 52 17 52 2 0 1 -21
-3 -47z m2426 22 c-7 -9 -15 -13 -17 -11 -6 6 20 36 26 30 2 -2 -2 -10 -9 -19z
m-6653 -17 c-3 -8 -6 -5 -6 6 -1 11 2 17 5 13 3 -3 4 -12 1 -19z m8469 -41
c-2 -7 -5 -3 -6 8 -2 17 -3 16 -9 -5 -5 -14 -4 -33 1 -42 5 -12 5 -18 -2 -18
-5 0 -10 6 -11 13 0 6 -2 26 -4 42 -1 17 0 39 2 49 5 18 7 17 20 -8 8 -15 12
-33 9 -39z m141 11 c-2 -13 -4 -5 -4 17 -1 22 1 32 4 23 2 -10 2 -28 0 -40z
m-5954 2 c-15 -16 -29 -30 -31 -30 -8 0 21 41 36 49 26 16 26 13 -5 -19z
m3720 13 c-5 -12 -3 -14 8 -8 8 5 11 4 6 0 -4 -5 -14 -10 -22 -11 -12 -2 -12
2 -5 17 13 23 22 25 13 2z m90 -26 c-4 -6 -12 -3 -20 8 -20 28 -16 41 7 20 11
-10 17 -22 13 -28z m2431 26 c-12 -36 -28 -63 -38 -63 -6 0 -5 5 2 12 7 7 12
19 12 28 0 9 5 21 12 28 16 16 18 15 12 -5z m237 -7 c5 3 9 0 9 -6 0 -15 -23
-7 -26 8 -1 7 0 8 3 2 2 -5 9 -8 14 -4z m-2417 -40 c-9 -15 -19 -25 -21 -22
-3 2 3 16 13 30 9 15 19 25 21 22 3 -2 -3 -16 -13 -30z m-2631 -45 c27 -46 14
-38 -18 12 -16 23 -22 37 -14 30 8 -6 22 -25 32 -42z m2422 39 c3 -5 1 -10 -4
-10 -6 0 -11 5 -11 10 0 6 2 10 4 10 3 0 8 -4 11 -10z m2625 -25 c4 3 6 -5 2
-17 -5 -21 -6 -21 -13 -2 -4 10 -8 24 -8 29 1 6 3 4 6 -3 2 -6 8 -10 13 -7z
m-270 -9 c0 -8 -9 -24 -21 -37 -11 -13 -18 -19 -15 -13 3 6 10 23 15 38 11 28
21 34 21 12z m-4721 -22 c4 3 8 -4 8 -15 1 -10 -5 -19 -13 -19 -9 0 -14 10
-13 28 0 15 3 21 6 14 2 -6 8 -10 12 -8z m4471 -4 c0 -5 -5 -10 -11 -10 -5 0
-7 5 -4 10 3 6 8 10 11 10 2 0 4 -4 4 -10z m121 -9 c-6 -10 -9 -20 -7 -22 2
-2 -2 -10 -10 -17 -12 -11 -14 -9 -14 7 0 11 7 27 16 35 21 21 27 20 15 -3z
m37 -12 c-3 -8 -7 -3 -11 10 -4 17 -3 21 5 13 5 -5 8 -16 6 -23z m263 8 c-10
-9 -11 -8 -5 6 3 10 9 15 12 12 3 -3 0 -11 -7 -18z m-6080 -55 c8 -18 28 -35
51 -45 36 -16 38 -19 38 -62 0 -34 -5 -48 -20 -57 -11 -7 -20 -19 -20 -26 0
-18 -51 -104 -58 -98 -2 3 -30 -17 -61 -45 -31 -28 -70 -57 -87 -65 -24 -11
-33 -24 -37 -47 -7 -47 -27 -146 -39 -192 -10 -38 -11 -39 -19 -16 -5 13 -7
32 -4 42 3 9 1 20 -5 24 -16 10 -12 55 5 61 13 6 14 8 1 18 -11 9 -12 24 -6
77 5 36 10 71 12 78 2 8 -2 15 -8 18 -14 5 -34 -40 -34 -77 0 -24 -4 -29 -22
-28 -34 2 -49 18 -42 42 4 12 11 24 16 27 11 7 -8 59 -22 59 -9 0 -15 -29 -11
-53 1 -4 -8 -34 -19 -67 -14 -41 -20 -86 -20 -142 0 -117 -1 -128 -11 -128 -8
0 -22 58 -18 75 1 6 -3 23 -9 38 -7 16 -10 33 -7 38 3 5 8 35 11 66 3 32 15
78 26 103 12 25 22 66 23 91 1 26 6 53 10 60 6 11 5 12 -6 2 -7 -7 -17 -13
-22 -13 -17 0 5 19 56 48 28 17 93 60 142 97 50 37 99 71 110 75 11 5 34 18
50 29 39 27 41 26 56 -7z m1190 5 c-10 -9 -11 -8 -5 6 3 10 9 15 12 12 3 -3 0
-11 -7 -18z m4880 9 c5 3 9 -2 9 -10 0 -13 -3 -14 -19 -4 -11 7 -17 17 -14 22
4 6 8 5 11 -2 2 -7 8 -10 13 -6z m-286 -6 c3 -5 1 -10 -4 -10 -6 0 -11 5 -11
10 0 6 2 10 4 10 3 0 8 -4 11 -10z m-5552 -40 c10 -17 19 -49 20 -72 2 -39 0
-42 -23 -42 -24 0 -25 2 -28 72 -2 39 1 72 5 72 5 0 17 -14 26 -30z m3503 3
c-4 -4 -12 -1 -19 7 -9 10 -9 11 1 6 7 -4 12 -2 13 6 0 11 2 11 6 0 3 -7 2
-16 -1 -19z m1654 2 c13 -14 21 -25 18 -25 -2 0 -15 11 -28 25 -13 14 -21 25
-18 25 2 0 15 -11 28 -25z m260 -25 c-12 -16 -24 -30 -26 -30 -3 0 4 14 16 30
12 17 24 30 26 30 3 0 -4 -13 -16 -30z m280 11 c-5 -11 -15 -23 -21 -27 -6 -3
-3 5 6 20 20 30 30 35 15 7z m148 -6 c-3 -3 -9 2 -12 12 -6 14 -5 15 5 6 7 -7
10 -15 7 -18z m-258 11 c0 -2 -8 -10 -17 -17 -16 -13 -17 -12 -4 4 13 16 21
21 21 13z m-88 -25 c-8 -4 -13 -12 -12 -17 1 -5 -3 -10 -9 -12 -6 -2 -11 0
-11 5 0 12 22 33 35 33 5 0 4 -4 -3 -9z m-32 -50 c0 -22 -13 -39 -26 -34 -10
4 -11 10 -3 24 10 20 29 26 29 10z m-8960 -9 c0 -4 -9 -13 -20 -20 -22 -13
-27 -3 -8 16 14 14 28 16 28 4z m9272 -14 c-7 -7 -12 -8 -12 -2 0 14 12 26 19
19 2 -3 -1 -11 -7 -17z m-1462 7 c0 -2 -10 -9 -22 -15 -22 -11 -22 -10 -4 4
21 17 26 19 26 11z m1220 -12 c0 -3 -6 -3 -14 0 -8 3 -17 -1 -20 -10 -4 -9 -9
-13 -13 -10 -10 11 17 36 33 30 8 -3 14 -7 14 -10z m-6829 -10 c11 -15 11 -16
0 -6 -7 6 -20 9 -27 6 -8 -3 -14 0 -14 6 0 17 26 13 41 -6z m6636 -7 c-3 -8
-1 -16 6 -19 6 -2 2 -6 -9 -9 -14 -4 -20 0 -20 13 0 10 4 15 8 13 4 -3 8 0 8
5 0 6 3 11 6 11 3 0 4 -6 1 -14z m513 11 c0 -2 -10 -12 -22 -23 l-23 -19 19
23 c18 21 26 27 26 19z m-3126 -42 c-3 -7 -14 -11 -25 -8 -11 3 -19 0 -19 -8
0 -7 -3 -9 -7 -6 -3 4 -12 2 -20 -4 -7 -6 -13 -8 -13 -3 0 5 -5 2 -10 -6 -6
-10 -10 -11 -10 -3 0 7 16 19 35 27 19 8 35 19 35 25 0 5 9 7 19 4 11 -3 17
-11 15 -18z m2766 -9 c0 -6 -4 -5 -9 3 -7 11 -9 11 -14 0 -3 -8 -4 -4 -4 8 1
17 4 19 14 11 7 -6 13 -16 13 -22z m-4611 17 c-3 -20 2 -34 10 -28 5 3 12 1
15 -4 4 -5 -1 -8 -10 -7 -18 3 -35 26 -28 38 6 10 14 10 13 1z m4561 -3 c0 -5
-5 -10 -11 -10 -5 0 -7 5 -4 10 3 6 8 10 11 10 2 0 4 -4 4 -10z m-2619 -27
c-12 -20 -14 -14 -5 12 4 9 9 14 11 11 3 -2 0 -13 -6 -23z m959 13 c-8 -8 -26
-17 -40 -20 -19 -5 -16 -2 10 13 43 23 48 25 30 7z m-484 -41 c-4 -14 -12 -25
-18 -25 -9 0 -9 3 0 12 7 7 12 21 12 32 0 10 3 17 6 13 4 -3 4 -18 0 -32z
m-554 13 c-21 -21 -13 -32 10 -12 12 10 18 14 15 7 -4 -6 -1 -14 5 -16 9 -4 4
-14 -14 -30 -15 -14 -26 -27 -25 -29 1 -2 -4 3 -10 11 -7 8 -13 21 -13 30 0
14 28 51 39 51 3 0 0 -5 -7 -12z m450 -30 c-10 -10 -10 -8 -2 37 1 6 4 2 7 -9
3 -10 0 -23 -5 -28z m2058 32 c0 -5 -5 -10 -11 -10 -5 0 -7 5 -4 10 3 6 8 10
11 10 2 0 4 -4 4 -10z m-2113 -27 c1 -24 0 -25 -6 -8 -7 17 -6 35 2 35 2 0 3
-12 4 -27z m-2216 -15 c8 -15 8 -18 0 -14 -6 4 -16 16 -22 28 -8 15 -8 18 0
14 6 -4 16 -16 22 -28z m709 6 c0 -2 -9 0 -20 6 -11 6 -20 13 -20 16 0 2 9 0
20 -6 11 -6 20 -13 20 -16z m3470 11 c0 16 66 17 79 1 9 -11 8 -17 -4 -29 -8
-9 -15 -21 -15 -27 0 -23 -25 -3 -28 23 -2 18 -8 24 -17 20 -11 -4 -12 -10 -4
-25 14 -26 -6 -52 -21 -28 -7 10 -10 11 -10 3 0 -7 -5 -13 -11 -13 -6 0 -8 7
-5 16 3 8 2 12 -4 9 -6 -3 -10 0 -11 7 0 10 -2 10 -6 1 -3 -10 -13 -9 -41 2
-27 12 -37 13 -43 4 -12 -19 -55 -17 -56 2 -2 20 46 32 79 20 26 -10 98 7 98
23 0 6 5 4 10 -4 5 -8 10 -10 10 -5z m-2410 1 c0 -2 -9 -6 -20 -9 -11 -3 -18
-1 -14 4 5 9 34 13 34 5z m1425 -6 c-3 -5 -12 -10 -18 -10 -7 0 -6 4 3 10 19
12 23 12 15 0z m-7895 -15 c-7 -9 -15 -13 -17 -11 -7 7 7 26 19 26 6 0 6 -6
-2 -15z m7935 -5 c3 -6 -1 -7 -9 -4 -18 7 -21 14 -7 14 6 0 13 -4 16 -10z
m1315 6 c0 -2 -8 -10 -17 -17 -16 -13 -17 -12 -4 4 13 16 21 21 21 13z m-635
-16 c3 -6 -1 -7 -9 -4 -18 7 -21 14 -7 14 6 0 13 -4 16 -10z m-2235 -16 c-6
-6 -7 -14 -3 -17 3 -4 3 -7 0 -7 -3 0 -11 8 -16 18 -7 14 -6 18 9 18 13 0 16
-4 10 -12z m97 1 c0 -8 -4 -12 -9 -9 -4 3 -9 -2 -9 -10 -1 -9 -3 -20 -4 -26
-1 -5 -3 -13 -4 -16 0 -3 -6 -2 -11 1 -7 4 -7 13 0 26 8 14 7 19 -2 19 -9 1
16 21 38 30 0 0 1 -7 1 -15z m133 0 c-7 -8 -17 -15 -23 -15 -6 0 -2 7 9 15 25
19 30 19 14 0z m470 1 c-14 -14 -39 -16 -34 -2 2 6 13 12 24 12 13 0 16 -4 10
-10z m1515 5 c6 -1 -1 -11 -14 -21 -18 -15 -27 -18 -37 -9 -7 6 -17 8 -21 6
-5 -3 -9 2 -10 12 -1 17 22 20 82 12z m-6423 -23 c-7 -7 -12 -8 -12 -2 0 14
12 26 19 19 2 -3 -1 -11 -7 -17z m2586 -37 c33 -58 21 -51 -17 11 -18 28 -26
47 -19 40 8 -6 24 -29 36 -51z m2622 45 c0 -3 -4 -8 -10 -11 -5 -3 -10 -1 -10
4 0 6 5 11 10 11 6 0 10 -2 10 -4z m-5233 -38 c-3 -7 -5 -2 -5 12 0 14 2 19 5
13 2 -7 2 -19 0 -25z m6343 22 c-8 -5 -22 -9 -30 -9 -10 0 -8 3 5 9 27 12 43
12 25 0z m-2146 -22 c-5 -8 -2 -9 11 -4 15 5 16 4 5 -9 -14 -17 -35 -21 -25
-5 3 6 2 10 -3 10 -14 0 -33 -26 -25 -33 3 -4 -2 -7 -12 -7 -10 0 -28 -8 -39
-17 -20 -17 -20 -17 -6 1 14 18 88 76 97 76 2 0 1 -5 -3 -12z m53 -15 c1 -22
-1 -24 -8 -10 -6 9 -7 22 -4 27 9 14 10 13 12 -17z m443 11 c-8 -8 -23 -20
-34 -25 -13 -6 -10 0 9 15 34 29 43 33 25 10z m973 9 c-7 -2 -19 -2 -25 0 -7
3 -2 5 12 5 14 0 19 -2 13 -5z m-4728 -40 c-18 -42 -25 -52 -25 -34 0 14 28
71 35 71 3 0 -2 -17 -10 -37z m4598 30 c-7 -2 -19 -2 -25 0 -7 3 -2 5 12 5 14
0 19 -2 13 -5z m1431 -8 c3 -8 1 -15 -4 -15 -6 0 -10 7 -10 15 0 8 2 15 4 15
2 0 6 -7 10 -15z m-7279 -5 c-3 -5 -14 -10 -23 -9 -14 0 -13 2 3 9 27 11 27
11 20 0z m2510 0 c-3 -5 -12 -10 -18 -10 -7 0 -6 4 3 10 19 12 23 12 15 0z
m4551 -28 c-4 -3 -12 0 -19 8 -9 10 -9 11 1 6 7 -5 12 -1 13 11 1 17 2 17 6 0
3 -10 2 -21 -1 -25z m104 17 c0 -6 -4 -7 -10 -4 -5 3 -10 11 -10 16 0 6 5 7
10 4 6 -3 10 -11 10 -16z m-1960 -3 c0 -2 -8 -10 -17 -17 -16 -13 -17 -12 -4
4 13 16 21 21 21 13z m417 -2 c-3 -3 -12 -4 -19 -1 -8 3 -5 6 6 6 11 1 17 -2
13 -5z m-62 -14 c-3 -5 -15 -10 -26 -10 -11 0 -17 5 -14 10 3 6 15 10 26 10
11 0 17 -4 14 -10z m1975 3 c0 -1 -8 -7 -18 -12 -13 -7 -19 -6 -19 2 0 7 9 13
19 13 10 0 18 -1 18 -3z m-3504 -31 c-18 -16 -18 -16 -6 6 6 13 14 21 18 18 3
-4 -2 -14 -12 -24z m491 -20 c-14 -18 -19 -9 -11 24 6 25 8 26 14 9 4 -11 3
-26 -3 -33z m526 33 c-3 -9 -8 -14 -10 -11 -3 3 -2 9 2 15 9 16 15 13 8 -4z
m326 12 c-2 -2 -22 -15 -44 -31 l-40 -27 35 30 c19 17 39 31 44 31 5 0 7 -1 5
-3z m-5372 -13 c-3 -3 -12 -4 -19 -1 -8 3 -5 6 6 6 11 1 17 -2 13 -5z m2607
-10 c3 -8 2 -12 -4 -9 -6 3 -10 10 -10 16 0 14 7 11 14 -7z m2315 13 c-2 -1
-15 -11 -29 -22 l-25 -20 19 23 c11 12 24 22 29 22 6 0 8 -1 6 -3z m332 -29
c11 -8 10 -9 -3 -4 -10 3 -20 1 -23 -4 -3 -5 -12 -7 -20 -4 -8 4 -12 11 -9 16
4 6 10 5 15 -3 6 -10 9 -7 9 11 0 18 3 21 9 11 5 -7 15 -18 22 -23z m-5216 13
c3 -5 2 -12 -3 -15 -5 -3 -9 1 -9 9 0 17 3 19 12 6z m4540 -11 c-3 -5 -12 -10
-18 -10 -7 0 -6 4 3 10 19 12 23 12 15 0z m45 -5 c0 -8 -2 -15 -4 -15 -2 0 -6
7 -10 15 -3 8 -1 15 4 15 6 0 10 -7 10 -15z m488 -4 c-9 -15 -9 -26 -1 -44 11
-24 8 -37 -7 -37 -4 0 -7 16 -8 35 -1 20 -5 41 -8 47 -4 6 -3 8 4 4 6 -3 13
-2 17 4 3 5 8 10 11 10 2 0 -1 -9 -8 -19z m2154 -24 c1 -22 7 -37 15 -37 7 0
13 -4 13 -8 0 -5 -7 -9 -15 -9 -14 0 -19 10 -16 30 0 4 -3 7 -7 7 -5 0 -7 14
-4 30 6 39 10 34 14 -13z m-3282 29 c0 -2 -7 -9 -15 -16 -13 -11 -14 -10 -9 4
5 14 24 23 24 12z m1040 -6 c0 -5 -5 -10 -11 -10 -5 0 -7 5 -4 10 3 6 8 10 11
10 2 0 4 -4 4 -10z m-3625 -38 c-3 -9 -9 -35 -12 -59 -6 -44 -23 -50 -23 -7 0
13 -4 24 -10 24 -5 0 -10 18 -10 39 l0 40 31 -11 c21 -7 28 -15 24 -26z m2685
35 c0 -2 -10 -12 -22 -23 l-23 -19 19 23 c18 21 26 27 26 19z m-3700 -16 c0
-6 -4 -13 -10 -16 -5 -3 -10 1 -10 9 0 9 5 16 10 16 6 0 10 -4 10 -9z m2254
-7 c3 -8 2 -12 -4 -9 -6 3 -10 10 -10 16 0 14 7 11 14 -7z m2183 -9 c-32 -29
-61 -34 -31 -7 18 17 40 30 54 31 3 0 -8 -11 -23 -24z m2251 -27 c-13 -26 -15
-22 -10 20 4 29 6 33 12 17 4 -11 3 -28 -2 -37z m64 20 c-8 -8 -9 -4 -5 13 4
13 8 18 11 10 2 -7 -1 -18 -6 -23z m408 17 c-25 -14 -22 -18 15 -16 17 1 16
-1 -4 -9 -16 -7 -28 -7 -37 1 -7 6 -17 8 -22 5 -5 -3 -9 1 -9 10 0 8 7 12 16
9 9 -2 23 0 31 5 8 5 20 10 25 9 6 0 -1 -6 -15 -14z m-3027 -8 c6 3 3 -4 -5
-16 -29 -42 -98 -66 -98 -35 0 8 4 13 9 9 5 -3 12 -1 16 5 3 5 15 10 26 10 10
0 19 5 19 11 0 5 -6 7 -12 4 -7 -4 -4 1 7 10 12 9 21 11 23 5 2 -5 9 -7 15 -3z
m-583 0 c0 -7 -34 -42 -55 -57 -11 -8 -4 3 14 23 33 35 41 42 41 34z m1286
-32 c-3 -9 -10 -14 -15 -11 -5 4 -12 0 -14 -6 -3 -7 -6 -3 -6 9 -1 13 6 23 17
25 22 6 26 2 18 -17z m-676 11 c0 -2 -7 -9 -15 -16 -13 -11 -14 -10 -9 4 5 14
24 23 24 12z m1030 -6 c0 -5 -5 -10 -11 -10 -5 0 -7 5 -4 10 3 6 8 10 11 10 2
0 4 -4 4 -10z m1765 0 c-3 -5 -11 -10 -16 -10 -6 0 -7 5 -4 10 3 6 11 10 16
10 6 0 7 -4 4 -10z m-7392 -45 c5 -28 -8 -34 -16 -7 -2 9 -8 26 -13 37 -7 17
-6 18 8 7 9 -7 18 -24 21 -37z m3907 25 c-6 -11 -13 -20 -16 -20 -2 0 0 9 6
20 6 11 13 20 16 20 2 0 0 -9 -6 -20z m1810 16 c0 -2 -7 -7 -16 -10 -8 -3 -12
-2 -9 4 6 10 25 14 25 6z m1822 -16 c-12 -11 -28 -20 -37 -20 -9 0 -13 -4 -10
-10 3 -5 -1 -10 -9 -10 -30 0 -16 21 27 40 53 25 56 25 29 0z m-3482 -4 c0 -2
-8 -10 -17 -17 -16 -13 -17 -12 -4 4 13 16 21 21 21 13z m1853 -3 c-7 -2 -21
-2 -30 0 -10 3 -4 5 12 5 17 0 24 -2 18 -5z m-3174 -33 c11 -24 11 -24 -3 -6
-9 11 -16 24 -16 30 0 12 5 7 19 -24z m2640 8 c-11 -21 -11 -22 4 -9 31 25 17
-5 -15 -35 -18 -16 -25 -20 -15 -8 22 26 22 41 0 23 -11 -9 -10 -3 6 19 26 37
37 43 20 10z m-109 2 c0 -5 -5 -10 -11 -10 -5 0 -7 5 -4 10 3 6 8 10 11 10 2
0 4 -4 4 -10z m1905 -12 c-6 -18 -5 -20 5 -11 7 6 18 9 25 7 7 -3 16 -1 20 5
3 6 14 11 23 11 9 -1 0 -10 -21 -21 -21 -11 -40 -28 -43 -37 -3 -9 -8 -23 -10
-31 -3 -11 -7 -11 -19 -1 -14 11 -14 15 1 31 9 10 13 22 10 27 -3 6 -3 17 0
26 9 24 16 19 9 -6z m-2081 -3 c-4 -8 -10 -15 -15 -15 -4 0 -6 7 -3 15 4 8 10
15 15 15 4 0 6 -7 3 -15z m2232 -1 c-16 -16 -12 -39 4 -29 13 8 50 -13 49 -28
0 -9 -2 -9 -6 1 -2 6 -9 10 -14 6 -5 -3 -9 0 -9 6 0 7 -6 10 -14 7 -7 -3 -18
-1 -23 4 -5 5 -20 -2 -36 -17 -16 -14 -27 -19 -27 -12 0 9 -3 9 -10 -2 -5 -8
-10 -10 -10 -3 0 7 -9 9 -22 6 -13 -3 -20 -3 -16 1 3 4 8 7 10 5 2 -1 14 4 28
11 14 8 34 13 45 11 17 -3 18 -1 5 16 -14 16 -13 17 2 5 14 -11 18 -10 28 7 6
12 15 21 21 21 6 0 3 -7 -5 -16z m-6890 -31 c-3 -4 -6 -1 -6 6 0 7 -4 9 -10 6
-6 -4 -7 1 -3 11 6 15 7 15 15 -1 6 -9 7 -19 4 -22z m3511 15 c-3 -8 -6 -5 -6
6 -1 11 2 17 5 13 3 -3 4 -12 1 -19z m51 -3 c-8 -17 -14 -22 -19 -14 -4 7 -2
18 4 25 20 22 27 16 15 -11z m62 21 c0 -2 -8 -10 -17 -17 -16 -13 -17 -12 -4
4 13 16 21 21 21 13z m96 -11 c-3 -10 1 -15 11 -15 9 0 14 -3 10 -6 -12 -12
-37 5 -31 21 3 8 8 15 11 15 3 0 3 -7 -1 -15z m1275 -4 c-7 -5 -11 -10 -10
-12 5 -6 -30 -54 -35 -48 -6 7 45 81 52 74 4 -3 1 -10 -7 -14z m2006 5 c0 -8
-6 -12 -14 -9 -7 3 -13 9 -13 14 0 5 6 9 13 9 8 0 14 -6 14 -14z m-7397 -17
c0 -5 -4 -9 -10 -9 -5 0 -10 7 -10 16 0 8 5 12 10 9 6 -3 10 -10 10 -16z m315
11 c3 -5 1 -10 -4 -10 -6 0 -11 5 -11 10 0 6 2 10 4 10 3 0 8 -4 11 -10z
m3718 -5 c-3 -9 -8 -14 -10 -11 -3 3 -2 9 2 15 9 16 15 13 8 -4z m1531 2 c-4
-11 -64 -41 -64 -32 0 3 62 44 67 45 1 0 0 -6 -3 -13z m1540 -2 c-4 -8 -11
-15 -16 -15 -6 0 -5 6 2 15 7 8 14 15 16 15 2 0 1 -7 -2 -15z m-7131 -10 c9
-23 -11 -28 -23 -5 -8 16 -8 20 4 20 7 0 16 -7 19 -15z m4539 3 c-9 -9 -15 -9
-24 0 -9 9 -7 12 12 12 19 0 21 -3 12 -12z m468 8 c0 -2 -8 -10 -17 -17 -16
-13 -17 -12 -4 4 13 16 21 21 21 13z m760 -6 c-20 -13 -33 -13 -25 0 3 6 14
10 23 10 15 0 15 -2 2 -10z m1629 -13 c0 -9 -2 -8 -6 1 -2 6 -10 9 -15 6 -7
-4 -8 -2 -4 5 9 13 26 5 25 -12z m-2919 -3 c0 -8 -19 -13 -24 -6 -3 5 1 9 9 9
8 0 15 -2 15 -3z m-4477 -36 c17 -19 25 -24 19 -12 -12 22 0 55 13 34 4 -6 4
-14 1 -17 -3 -3 -1 -12 4 -18 8 -9 6 -14 -5 -19 -8 -3 -15 -13 -14 -23 0 -13
2 -14 6 -4 10 24 29 -51 27 -102 -2 -47 13 -117 26 -117 3 0 6 -9 7 -20 1 -11
-2 -18 -7 -15 -5 3 -3 -12 4 -33 14 -38 13 -39 -5 -35 -14 4 -18 11 -14 27 5
16 4 18 -4 6 -5 -8 -8 -37 -6 -65 l4 -50 -15 48 c-9 26 -20 45 -25 41 -6 -3
-9 0 -8 7 1 8 -1 25 -5 39 -4 14 -8 36 -10 50 -1 14 -8 36 -16 50 -7 13 -13
37 -12 52 0 15 -3 28 -8 28 -5 0 -7 7 -4 15 4 8 2 15 -4 15 -6 0 -9 8 -7 18 2
9 4 22 4 29 1 7 8 10 16 7 18 -7 20 7 3 25 -11 10 -9 11 6 5 17 -7 17 -5 2 24
-28 54 -18 57 27 10z m3918 1 c-5 -13 -10 -19 -10 -12 -1 15 10 45 15 40 3 -2
0 -15 -5 -28z m435 22 c-4 -5 -3 -11 1 -14 5 -2 3 -2 -4 -1 -6 2 -26 -1 -44
-6 -39 -12 -29 0 14 16 18 6 33 12 35 13 2 0 1 -3 -2 -8z m1129 -1 c-3 -5 -12
-10 -18 -10 -7 0 -6 4 3 10 19 12 23 12 15 0z m31 -7 c-2 -9 -9 -19 -17 -21
-11 -3 -11 -1 1 7 8 6 11 11 7 11 -5 0 -5 5 -2 10 9 15 14 12 11 -7z m424 7
c-8 -5 -19 -10 -25 -10 -5 0 -3 5 5 10 8 5 20 10 25 10 6 0 3 -5 -5 -10z
m1610 0 c8 -5 11 -10 5 -10 -5 0 -17 5 -25 10 -8 5 -10 10 -5 10 6 0 17 -5 25
-10z m-6795 -14 c105 -24 339 -88 355 -97 11 -6 11 -8 2 -9 -7 0 -11 -4 -8 -8
3 -5 -1 -9 -9 -9 -8 0 -15 4 -15 9 0 5 -5 6 -11 2 -6 -3 -15 0 -20 7 -7 11 -9
10 -9 -3 0 -10 5 -18 12 -18 6 0 8 -3 5 -6 -4 -4 -18 1 -32 10 -14 9 -29 14
-34 12 -5 -3 -14 0 -20 8 -14 16 -63 18 -73 2 -5 -8 -8 -7 -8 2 0 9 -12 13
-37 11 -38 -2 -62 4 -97 23 -12 6 -21 7 -25 0 -3 -6 -21 -9 -39 -8 -17 1 -32
-1 -32 -6 0 -4 10 -8 22 -8 12 0 18 -3 15 -7 -4 -3 -1 -13 5 -21 10 -12 9 -14
-7 -10 -11 2 -19 9 -18 15 1 5 -8 8 -22 6 -16 -4 -26 1 -34 15 -14 26 -48 35
-56 14 -3 -8 -3 -17 0 -20 3 -3 5 0 5 6 0 7 6 12 13 12 6 -1 1 -10 -12 -20
-20 -17 -21 -23 -1 -22 12 0 27 -26 21 -36 -5 -8 -16 -3 -33 13 -14 13 -29 21
-33 17 -4 -4 -5 2 -3 13 2 14 -4 21 -22 26 -76 19 -82 25 -50 54 43 39 200 55
305 31z m3495 10 c0 -2 -7 -7 -16 -10 -8 -3 -12 -2 -9 4 6 10 25 14 25 6z
m3042 -3 c-6 -2 -10 -8 -7 -13 3 -5 -4 -11 -15 -15 -11 -4 -18 -10 -16 -14 3
-4 -5 -8 -16 -8 -11 -1 -28 -9 -37 -17 -10 -9 -22 -16 -27 -16 -5 1 1 9 13 19
12 10 20 21 17 24 -3 3 0 8 7 13 8 4 10 3 5 -4 -4 -7 -4 -12 1 -12 13 1 59 29
48 30 -5 0 -3 5 5 10 8 5 20 9 25 9 6 0 4 -3 -3 -6z m-6842 -17 c0 -8 -7 -16
-15 -20 -10 -4 -15 1 -15 14 0 11 7 20 15 20 8 0 15 -6 15 -14z m6665 4 c-3
-5 -10 -10 -16 -10 -5 0 -9 5 -9 10 0 6 7 10 16 10 8 0 12 -4 9 -10z m-7740
-10 c3 -5 1 -10 -4 -10 -6 0 -11 5 -11 10 0 6 2 10 4 10 3 0 8 -4 11 -10z
m106 -26 c6 -7 15 -11 20 -8 5 3 9 -2 9 -11 0 -9 4 -14 9 -11 14 9 60 -59 60
-90 1 -16 1 -38 2 -49 1 -11 -2 -29 -6 -39 -6 -15 -5 -18 6 -14 10 4 14 -3 13
-27 -1 -17 -5 -38 -9 -45 -6 -9 -4 -11 6 -5 8 5 5 -2 -6 -15 l-20 -23 25 8
c22 7 23 6 12 -8 -10 -12 -10 -16 0 -20 10 -4 10 -8 -1 -15 -20 -14 -23 -42
-4 -42 12 0 13 -3 4 -14 -10 -11 -8 -17 6 -25 17 -10 17 -10 -1 -11 -11 0 -16
-3 -13 -7 4 -3 2 -12 -4 -20 -9 -10 -6 -13 12 -14 18 -1 15 -4 -14 -13 -39
-12 -38 -24 3 -39 8 -3 -1 -6 -20 -7 l-35 -2 30 -8 c17 -4 23 -8 15 -9 -8 -1
-26 -4 -39 -8 -18 -5 -22 -3 -16 7 4 7 3 15 -3 19 -11 7 -12 21 -13 181 -1
121 -1 120 -9 115 -12 -7 -61 47 -56 61 3 7 -2 15 -11 18 -9 4 -13 14 -10 26
3 11 2 20 -2 20 -11 0 -39 54 -34 68 3 8 -1 10 -12 6 -14 -6 -14 -3 1 37 25
64 30 69 64 57 16 -5 34 -16 41 -24z m8150 19 c13 -17 13 -17 -6 -3 -11 8 -22
16 -24 17 -2 2 0 3 6 3 6 0 17 -8 24 -17z m179 7 c-33 -11 -52 -12 -46 -2 2 4
19 8 38 9 30 1 31 1 8 -7z m-7860 -4 c0 -2 -7 -7 -16 -10 -8 -3 -12 -2 -9 4 6
10 25 14 25 6z m4323 -9 c4 3 7 1 7 -5 0 -7 -4 -12 -9 -12 -6 0 -9 -9 -8 -20
1 -20 2 -20 18 2 10 12 21 19 26 15 4 -5 0 -15 -10 -22 -14 -10 -15 -14 -5
-18 7 -3 2 -4 -12 -3 -20 3 -25 9 -25 30 1 14 -3 26 -9 26 -13 0 -35 -32 -36
-52 0 -9 -14 -21 -32 -27 l-33 -11 30 25 c17 14 24 25 17 25 -7 0 -10 5 -7 10
4 6 11 8 16 5 5 -4 9 -1 9 4 0 6 -6 11 -12 11 -7 1 1 7 17 14 17 8 35 10 41 5
6 -5 14 -6 17 -2z m57 3 c0 -5 -5 -10 -11 -10 -5 0 -7 5 -4 10 3 6 8 10 11 10
2 0 4 -4 4 -10z m1345 0 c-4 -7 3 -8 21 -4 16 4 25 3 21 -3 -3 -5 -25 -10 -49
-11 -42 -2 -42 -2 -18 12 32 18 32 18 25 6z m1419 -33 c-3 -9 -10 -17 -15 -17
-14 0 -11 18 4 23 9 3 9 8 -2 23 -14 18 -14 18 2 3 11 -9 15 -22 11 -32z m240
28 c3 -8 15 -10 32 -7 18 3 25 1 20 -6 -7 -12 -33 -12 -54 2 -8 5 -20 -1 -32
-16 -16 -19 -19 -20 -20 -5 0 9 6 17 13 18 8 0 8 2 -2 6 -9 4 -10 7 -2 13 18
10 40 8 45 -5z m406 5 c-8 -5 -19 -10 -25 -10 -5 0 -3 5 5 10 8 5 20 10 25 10
6 0 3 -5 -5 -10z m-6253 -22 c-3 -8 -6 -5 -6 6 -1 11 2 17 5 13 3 -3 4 -12 1
-19z m3207 1 c-3 -5 -10 -7 -15 -3 -5 3 -7 10 -3 15 3 5 10 7 15 3 5 -3 7 -10
3 -15z m776 11 c0 -5 -5 -10 -11 -10 -5 0 -7 5 -4 10 3 6 8 10 11 10 2 0 4 -4
4 -10z m1590 -21 c0 -4 -5 -11 -12 -15 -6 -4 -8 -3 -4 4 3 6 -2 15 -11 21 -14
7 -24 4 -43 -12 -21 -19 -23 -20 -10 -2 8 11 19 23 24 27 10 7 56 -11 56 -23z
m-2430 16 c0 -2 -14 -12 -31 -21 -17 -8 -28 -11 -24 -4 4 6 17 15 29 20 27 11
26 11 26 5z m660 -5 c0 -13 -12 -19 -26 -13 -21 8 -17 19 6 19 11 0 20 -3 20
-6z m497 4 c-3 -3 -12 -4 -19 -1 -8 3 -5 6 6 6 11 1 17 -2 13 -5z m1738 -12
c-3 -3 -11 0 -18 7 -9 10 -8 11 6 5 10 -3 15 -9 12 -12z m150 8 c3 -5 1 -10
-4 -10 -6 0 -11 5 -11 10 0 6 2 10 4 10 3 0 8 -4 11 -10z m-8615 -21 c0 -6 -4
-7 -10 -4 -5 3 -10 11 -10 16 0 6 5 7 10 4 6 -3 10 -11 10 -16z m4834 -11 c-4
-18 -6 -41 -6 -50 0 -10 -4 -21 -10 -24 -6 -4 -8 -2 -4 4 3 6 2 13 -3 17 -6 3
-15 -3 -21 -14 -7 -13 -7 -22 0 -26 15 -9 12 -25 -5 -25 -8 0 -15 -7 -15 -15
0 -8 -4 -15 -10 -15 -5 0 -7 6 -5 13 7 19 -11 41 -26 31 -8 -5 -21 -7 -31 -6
-9 2 -19 -2 -23 -9 -5 -8 -1 -9 14 -4 12 4 21 2 21 -4 0 -6 -7 -11 -15 -11
-18 0 -20 -16 -2 -23 6 -3 3 -5 -9 -4 -19 1 -20 6 -17 52 3 40 2 48 -8 38 -15
-15 -33 -17 -24 -3 3 6 2 10 -4 10 -5 0 -9 15 -8 33 2 26 6 32 25 32 23 0 31
-21 10 -28 -7 -2 -5 -3 5 -1 11 1 17 -2 14 -10 -3 -7 4 -12 17 -13 11 0 15 1
9 4 -18 7 -16 16 9 43 l22 24 13 -30 14 -29 -6 30 c-5 28 -4 29 10 11 19 -24
19 -34 1 -52 -8 -7 -13 -22 -11 -31 2 -10 4 -22 4 -28 1 -5 5 -4 10 4 5 8 8
23 6 33 -2 10 0 18 6 18 5 0 9 11 9 25 0 14 5 25 11 25 6 0 8 7 5 16 -3 8 -2
12 3 9 5 -3 12 -1 16 5 12 19 15 10 9 -22z m1551 13 c-3 -5 -1 -12 4 -15 5 -4
12 -2 16 4 3 5 11 10 16 10 6 0 -3 -11 -19 -25 -17 -14 -33 -25 -38 -25 -4 0
0 6 11 13 13 10 15 16 6 21 -10 7 -7 26 5 26 3 0 3 -4 -1 -9z m-1685 -20 c0
-6 -4 -13 -10 -16 -5 -3 -10 1 -10 9 0 9 5 16 10 16 6 0 10 -4 10 -9z m1497 3
c-3 -3 -12 -4 -19 -1 -8 3 -5 6 6 6 11 1 17 -2 13 -5z m1890 -31 c-8 -7 -35 9
-41 23 -4 11 0 11 20 -2 13 -9 23 -18 21 -21z m-8073 12 c-4 -8 -11 -12 -16
-9 -6 4 -5 10 3 15 19 12 19 11 13 -6z m5266 11 c0 -2 -7 -6 -15 -10 -8 -3
-15 -1 -15 4 0 6 7 10 15 10 8 0 15 -2 15 -4z m565 -25 c-4 -12 -12 -18 -21
-14 -13 5 -12 8 3 23 22 21 27 18 18 -9z m-4035 15 c0 -3 -4 -8 -10 -11 -5 -3
-10 -1 -10 4 0 6 5 11 10 11 6 0 10 -2 10 -4z m6464 -11 c-10 -8 -23 -15 -28
-15 -6 0 -1 7 10 15 10 8 23 15 28 15 6 0 1 -7 -10 -15z m-10214 1 c0 -3 -4
-8 -10 -11 -5 -3 -10 -1 -10 4 0 6 5 11 10 11 6 0 10 -2 10 -4z m8466 -8 c4
-7 3 -8 -4 -4 -7 4 -12 3 -12 -3 0 -6 -7 -8 -15 -5 -8 4 -12 10 -9 15 7 13 31
11 40 -3z m1449 2 c3 -6 -1 -7 -9 -4 -18 7 -21 14 -7 14 6 0 13 -4 16 -10z
m-8350 -10 c-3 -5 -10 -10 -16 -10 -5 0 -9 5 -9 10 0 6 7 10 16 10 8 0 12 -4
9 -10z m325 6 c0 -2 -8 -10 -17 -17 -16 -13 -17 -12 -4 4 13 16 21 21 21 13z
m4529 -12 c6 -13 -57 -21 -99 -13 -34 6 -34 6 -5 8 18 1 25 4 18 9 -6 4 9 7
35 6 26 -1 49 -6 51 -10z m701 1 c-7 -8 -16 -13 -20 -10 -4 3 -11 -2 -14 -11
-3 -8 -10 -13 -15 -9 -5 3 -11 -4 -13 -16 -2 -12 -14 -29 -28 -37 l-25 -16 23
23 c12 12 22 29 22 39 0 17 43 49 69 51 11 1 11 -2 1 -14z m3066 -23 c-4 -3
-11 0 -16 8 -15 24 -11 33 6 15 9 -9 13 -19 10 -23z m-3656 13 c0 -8 -2 -15
-4 -15 -2 0 -6 7 -10 15 -3 8 -1 15 4 15 6 0 10 -7 10 -15z m-3230 -25 c-9 -5
-19 -5 -27 1 -7 6 -18 7 -25 3 -9 -5 -10 -4 -3 4 14 14 48 20 60 10 6 -6 5
-12 -5 -18z m-1804 -12 c0 -10 -1 -18 -3 -18 -1 0 -7 8 -12 18 -7 13 -6 19 2
19 7 0 13 -9 13 -19z m5294 13 c0 -5 -7 -12 -16 -15 -14 -5 -15 -4 -4 9 14 17
20 19 20 6z m145 0 c3 -5 -5 -13 -17 -17 -13 -4 -31 -16 -40 -27 -13 -14 -18
-16 -18 -6 0 12 -2 12 -9 -1 -6 -8 -8 -17 -5 -21 2 -4 -4 -13 -14 -20 -15 -12
-16 -12 -5 2 7 9 10 19 6 22 -8 9 17 38 28 32 4 -3 16 6 26 19 19 26 38 33 48
17z m-6112 -8 c-7 -2 -19 -2 -25 0 -7 3 -2 5 12 5 14 0 19 -2 13 -5z m5504 1
c-3 -3 -12 -4 -19 -1 -8 3 -5 6 6 6 11 1 17 -2 13 -5z m191 -42 c2 -35 -7 -39
-12 -5 -2 12 -11 17 -25 16 -23 -3 -29 12 -8 20 31 12 44 3 45 -31z m247 -31
c-9 -16 -25 -3 -18 15 4 10 9 12 15 6 6 -6 7 -15 3 -21z m1372 13 c-3 -3 -12
-4 -19 -1 -8 3 -5 6 6 6 11 1 17 -2 13 -5z m-1657 -10 c0 -8 -19 -13 -24 -6
-3 5 1 9 9 9 8 0 15 -2 15 -3z m247 -1 c-3 -5 -12 -26 -22 -48 -14 -34 -18
-38 -28 -25 -10 13 -30 18 -39 10 -6 -4 -38 -8 -38 -4 0 3 8 16 17 30 17 26
17 26 25 4 10 -27 31 -16 23 13 -5 16 -4 18 3 8 7 -9 12 -10 16 -2 4 6 11 9
16 6 5 -3 11 -1 15 5 3 5 8 10 11 10 3 0 3 -3 1 -7z m24 -27 c18 11 8 -8 -13
-27 -20 -16 -20 -18 -4 -12 15 5 12 -3 -14 -35 -18 -23 -35 -40 -37 -39 -2 2
9 31 24 64 16 33 30 56 31 52 2 -5 8 -7 13 -3z m-214 -38 c-3 -8 -6 -5 -6 6
-1 11 2 17 5 13 3 -3 4 -12 1 -19z m-260 -20 c-3 -8 -6 -5 -6 6 -1 11 2 17 5
13 3 -3 4 -12 1 -19z m240 0 c-3 -8 -6 -5 -6 6 -1 11 2 17 5 13 3 -3 4 -12 1
-19z m103 -25 c0 -2 -6 -1 -12 3 -10 5 -10 4 -1 -6 6 -7 9 -19 6 -26 -9 -24
-23 -15 -23 14 0 15 -6 34 -12 41 -7 8 -1 6 15 -4 15 -9 27 -19 27 -22z
m-3659 -57 c18 11 29 -6 17 -26 -12 -19 -13 -19 -25 3 -7 12 -12 27 -12 32 0
6 3 4 6 -3 2 -6 9 -10 14 -6z m-2220 -69 c-10 -9 -11 -8 -5 6 3 10 9 15 12 12
3 -3 0 -11 -7 -18z m59 3 c0 -5 -4 -10 -10 -10 -5 0 -10 5 -10 10 0 6 5 10 10
10 6 0 10 -4 10 -10z m1305 0 c-3 -5 -12 -10 -18 -10 -7 0 -6 4 3 10 19 12 23
12 15 0z m-1325 -34 c0 -7 -6 -13 -14 -13 -8 0 -11 8 -8 19 5 19 22 15 22 -6z
m1330 -9 c0 -16 -9 -28 -27 -37 -44 -20 -83 -29 -99 -23 -16 6 -19 33 -3 33 5
0 8 -4 5 -8 -2 -4 4 -8 14 -8 14 0 16 3 8 13 -6 7 -9 13 -7 14 2 0 18 3 34 5
17 3 34 11 40 19 15 23 35 18 35 -8z m-1297 -22 c-7 -21 -12 -19 -10 4 0 11 5
18 9 15 4 -3 5 -11 1 -19z m-713 -20 c0 -5 -5 -3 -10 5 -5 8 -10 20 -10 25 0
6 5 3 10 -5 5 -8 10 -19 10 -25z m170 19 c0 -8 -5 -12 -10 -9 -6 4 -8 11 -5
16 9 14 15 11 15 -7z m786 1 c-3 -8 -1 -26 4 -40 7 -20 6 -25 -5 -25 -15 0
-22 60 -8 73 11 12 15 8 9 -8z m-198 -9 c-7 -8 -15 -12 -17 -11 -5 6 10 25 20
25 5 0 4 -6 -3 -14z m-123 -6 c3 -6 -1 -7 -9 -4 -18 7 -21 14 -7 14 6 0 13 -4
16 -10z m1055 1 c0 -6 -4 -13 -10 -16 -5 -3 -10 1 -10 9 0 9 5 16 10 16 6 0
10 -4 10 -9z m27 -6 c0 -8 -4 -12 -9 -9 -5 3 -6 10 -3 15 9 13 12 11 12 -6z
m63 -5 c0 -5 -2 -10 -4 -10 -3 0 -8 5 -11 10 -3 6 -1 10 4 10 6 0 11 -4 11
-10z m-1505 -70 c5 -23 4 -32 -3 -25 -5 6 -12 28 -16 50 -8 48 8 27 19 -25z
m300 39 c-4 -5 -1 -9 4 -9 6 0 11 8 12 18 0 11 2 12 6 4 3 -7 0 -19 -6 -26 -9
-10 -7 -17 6 -27 15 -12 16 -12 9 5 -7 19 -6 19 14 1 26 -24 26 -27 -10 -48
-16 -10 -30 -23 -30 -28 0 -6 7 -3 16 5 31 32 41 9 19 -46 -5 -12 2 -21 22
-32 25 -13 26 -15 6 -13 -13 1 -23 5 -23 9 0 4 -7 5 -16 1 -13 -5 -15 -2 -9
17 5 16 4 20 -4 16 -6 -4 -11 -4 -10 1 1 4 -1 16 -6 26 -6 14 -10 16 -16 6 -6
-10 -10 -8 -16 8 -8 21 -11 23 -33 23 -5 0 -10 5 -10 10 0 6 7 10 15 10 8 0
15 6 15 13 1 7 6 5 14 -6 19 -24 27 -8 22 42 -2 23 0 38 5 35 5 -3 7 -10 4
-15z m123 -19 c-1 -16 -7 -31 -14 -34 -10 -4 -11 1 -4 19 6 15 6 27 -1 30 -5
4 -7 11 -3 16 10 17 23 -1 22 -31z m779 18 c-3 -8 -6 -5 -6 6 -1 11 2 17 5 13
3 -3 4 -12 1 -19z m-714 -2 c4 -10 1 -13 -8 -9 -8 3 -12 9 -9 14 7 12 11 11
17 -5z m137 0 c0 7 5 14 10 14 33 0 -11 -49 -51 -56 -19 -4 -43 -14 -53 -23
-16 -13 -18 -13 -12 -1 4 8 -2 4 -14 -10 -12 -14 -19 -19 -15 -13 4 9 1 11 -9
7 -9 -3 -14 -10 -11 -14 3 -5 -3 -7 -12 -6 -10 2 -17 6 -16 10 6 19 21 35 48
51 17 11 38 27 48 37 16 16 21 17 52 3 31 -12 35 -12 35 1z m445 4 c3 -5 1
-10 -4 -10 -6 0 -11 5 -11 10 0 6 2 10 4 10 3 0 8 -4 11 -10z m-1110 -30 c11
-48 -16 -67 -28 -20 -3 13 -1 18 6 13 6 -4 8 2 5 15 -4 12 -2 22 2 22 5 0 11
-13 15 -30z m1059 8 c-4 -6 1 -17 11 -25 11 -7 15 -13 9 -13 -5 0 -2 -5 6 -11
11 -8 5 -9 -24 -5 -49 7 -56 14 -32 32 11 8 16 14 10 14 -5 0 -2 5 6 10 20 13
23 12 14 -2z m1082 -23 c-11 -8 -26 -15 -34 -15 -8 0 -10 -5 -6 -12 5 -8 1 -7
-10 2 -17 13 -15 15 21 26 50 16 51 16 29 -1z m-1224 -17 c-7 -7 -12 -8 -12
-2 0 14 12 26 19 19 2 -3 -1 -11 -7 -17z m-215 -3 c0 -8 -6 -14 -13 -13 -7 2
-19 -6 -27 -16 -10 -14 -20 -17 -33 -12 -18 8 -17 9 6 19 14 7 31 17 38 24 18
17 29 16 29 -2z m270 9 c-3 -3 -12 -4 -19 -1 -8 3 -5 6 6 6 11 1 17 -2 13 -5z
m1178 -24 c-3 -5 -13 -10 -21 -10 -8 0 -12 5 -9 10 3 6 13 10 21 10 8 0 12 -4
9 -10z m-1095 -36 c0 -7 -9 -18 -19 -24 -25 -13 -34 -13 -25 1 4 8 -3 9 -27 4
l-33 -7 29 24 c30 26 75 27 75 2z m-390 -4 c0 -5 -8 -10 -17 -10 -15 0 -16 2
-3 10 19 12 20 12 20 0z m104 -14 c-3 -9 -10 -16 -15 -16 -5 0 -4 9 3 20 14
22 21 20 12 -4z m3466 -8 c0 -6 -6 -5 -15 2 -8 7 -15 14 -15 16 0 2 7 1 15 -2
8 -4 15 -11 15 -16z m-4223 -10 c-3 -8 -6 -5 -6 6 -1 11 2 17 5 13 3 -3 4 -12
1 -19z m876 -5 c-7 -2 -21 -2 -30 0 -10 3 -4 5 12 5 17 0 24 -2 18 -5z m-28
-23 c-3 -5 -15 -10 -26 -10 -11 0 -17 5 -14 10 3 6 15 10 26 10 11 0 17 -4 14
-10z m1188 3 c-15 -6 -17 -30 -4 -35 5 -1 4 -11 -4 -21 -12 -17 -14 -16 -20
14 -7 31 5 50 30 48 6 0 4 -3 -2 -6z m2294 -8 c0 -8 -4 -12 -9 -9 -5 3 -6 10
-3 15 9 13 12 11 12 -6z m-3647 -4 c0 -5 -9 -11 -20 -14 -11 -3 -20 -1 -20 3
0 5 8 11 18 13 9 3 18 5 20 6 1 0 2 -3 2 -8z m1290 -11 c-10 -6 -10 -8 0 -12
9 -3 8 -8 -4 -17 -14 -12 -16 -10 -16 11 0 28 8 40 22 31 6 -3 5 -9 -2 -13z
m1910 1 c0 -5 -7 -12 -16 -15 -14 -5 -15 -4 -4 9 14 17 20 19 20 6z m-3245
-20 c3 -5 1 -12 -5 -16 -5 -3 -10 1 -10 9 0 18 6 21 15 7z m-7 -27 c30 -9 28
-24 -4 -24 -22 0 -25 -2 -14 -15 8 -9 9 -15 2 -15 -13 0 -26 19 -27 42 -2 19
7 21 43 12z m2653 -21 c13 -16 12 -17 -3 -4 -10 7 -18 15 -18 17 0 8 8 3 21
-13z m-4232 -65 c-2 -2 -17 -14 -34 -28 l-30 -25 24 28 c14 15 29 27 34 27 6
0 8 -1 6 -2z m79 -38 c-7 -10 -14 -17 -17 -15 -4 4 18 35 25 35 2 0 -1 -9 -8
-20z m3230 -23 c12 -6 22 -13 22 -17 0 -13 -93 -19 -158 -11 -72 9 -112 33
-43 26 27 -3 40 -1 35 6 -8 13 112 10 144 -4z m-3288 -6 c0 -5 -7 -12 -16 -15
-14 -5 -15 -4 -4 9 14 17 20 19 20 6z m225 -151 c-3 -5 -12 -10 -18 -10 -7 0
-6 4 3 10 19 12 23 12 15 0z m3725 -120 c0 -5 -9 -10 -20 -10 -11 0 -20 -5
-20 -12 0 -6 -3 -8 -7 -4 -5 4 1 14 11 22 23 16 36 18 36 4z m2113 -7 c-7 -2
-19 -2 -25 0 -7 3 -2 5 12 5 14 0 19 -2 13 -5z m-2506 -243 c-1 -21 -10 -18
-13 5 -1 8 2 15 6 15 5 0 8 -9 7 -20z m-547 -67 c0 -14 3 -14 20 2 24 21 27
14 4 -9 -23 -23 -39 -19 -42 10 -1 14 2 23 8 19 6 -3 10 -13 10 -22z m-33 -25
c0 -13 -1 -17 -4 -10 -3 6 -14 12 -26 13 -21 0 -21 1 -2 9 29 13 31 12 32 -12z
m1773 -50 c0 -4 -9 -8 -20 -8 -11 0 -20 4 -20 9 0 6 9 9 20 8 11 -1 20 -5 20
-9z m210 -18 c-8 -5 -19 -10 -25 -10 -5 0 -3 5 5 10 8 5 20 10 25 10 6 0 3 -5
-5 -10z"/>
<path d="M6821 4394 c0 -11 3 -14 6 -6 3 7 2 16 -1 19 -3 4 -6 -2 -5 -13z"/>
<path d="M6848 4373 c7 -3 16 -2 19 1 4 3 -2 6 -13 5 -11 0 -14 -3 -6 -6z"/>
<path d="M9560 3511 c0 -5 9 -7 20 -4 11 3 20 7 20 9 0 2 -9 4 -20 4 -11 0
-20 -4 -20 -9z"/>
<path d="M4887 3019 c4 -13 8 -18 11 -10 2 7 -1 18 -6 23 -8 8 -9 4 -5 -13z"/>
<path d="M8653 2849 c-2 -23 3 -25 10 -4 4 8 3 16 -1 19 -4 3 -9 -4 -9 -15z"/>
<path d="M6542 5423 c-5 -10 -7 -34 -4 -53 6 -34 6 -34 13 15 7 56 5 65 -9 38z"/>
<path d="M6573 5330 c-33 -13 -28 -25 10 -27 17 -1 43 -5 57 -9 23 -6 21 -8
-19 -18 -42 -11 -73 -38 -59 -52 4 -3 15 -3 25 1 10 5 26 7 36 6 9 -1 20 5 23
13 9 23 21 20 30 -6 7 -22 8 -22 20 7 15 37 5 59 -36 80 -32 17 -54 18 -87 5z"/>
<path d="M6796 5320 c-19 -19 -19 -20 9 -45 16 -16 34 -24 43 -20 8 3 19 0 23
-7 7 -10 13 -10 27 -2 12 8 24 9 36 2 29 -16 30 -1 1 18 -17 11 -46 18 -76 18
-27 0 -49 2 -49 5 0 3 22 16 48 28 l47 21 -45 1 c-31 0 -51 -6 -64 -19z"/>
<path d="M7256 5232 c-2 -4 4 -13 15 -20 21 -13 22 -12 13 12 -7 17 -20 21
-28 8z"/>
<path d="M7202 5161 c2 -7 7 -12 11 -12 12 1 9 15 -3 20 -7 2 -11 -2 -8 -8z"/>
<path d="M12438 5085 c-6 -30 -3 -43 8 -33 3 4 4 19 2 35 l-3 28 -7 -30z"/>
<path d="M6820 5083 c0 -5 10 -19 21 -33 l20 -25 -16 33 c-15 30 -25 41 -25
25z"/>
<path d="M12488 5063 c7 -3 16 -2 19 1 4 3 -2 6 -13 5 -11 0 -14 -3 -6 -6z"/>
<path d="M11886 5011 c-4 -7 -5 -15 -2 -18 9 -9 19 4 14 18 -4 11 -6 11 -12 0z"/>
<path d="M11970 4965 c0 -16 27 -32 37 -21 7 7 -16 36 -28 36 -5 0 -9 -7 -9
-15z"/>
<path d="M12150 4970 c0 -5 5 -10 11 -10 5 0 7 5 4 10 -3 6 -8 10 -11 10 -2 0
-4 -4 -4 -10z"/>
<path d="M11440 4963 c0 -24 20 -64 30 -58 14 9 12 16 -10 45 -11 14 -20 20
-20 13z"/>
<path d="M11186 4952 c-15 -25 -25 -72 -15 -72 24 0 41 30 32 57 -6 18 -12 23
-17 15z"/>
<path d="M10901 4874 c0 -11 3 -14 6 -6 3 7 2 16 -1 19 -3 4 -6 -2 -5 -13z"/>
<path d="M7610 4736 c0 -2 8 -10 18 -17 15 -13 16 -12 3 4 -13 16 -21 21 -21
13z"/>
<path d="M9075 4650 c-3 -5 -1 -10 4 -10 6 0 11 5 11 10 0 6 -2 10 -4 10 -3 0
-8 -4 -11 -10z"/>
<path d="M9014 4611 c-1 -18 3 -28 10 -25 16 6 39 45 31 52 -3 4 -10 0 -15 -8
-7 -10 -10 -11 -10 -2 0 26 -15 10 -16 -17z"/>
<path d="M7977 4613 c-12 -12 -7 -22 8 -17 8 4 15 10 15 15 0 11 -14 12 -23 2z"/>
<path d="M8460 4601 c-16 -30 -12 -36 10 -16 21 19 26 35 10 35 -5 0 -14 -9
-20 -19z"/>
<path d="M8751 4594 c0 -11 3 -14 6 -6 3 7 2 16 -1 19 -3 4 -6 -2 -5 -13z"/>
<path d="M4400 4549 c0 -5 5 -7 10 -4 6 3 10 8 10 11 0 2 -4 4 -10 4 -5 0 -10
-5 -10 -11z"/>
<path d="M4392 4510 c0 -14 2 -19 5 -12 2 6 2 18 0 25 -3 6 -5 1 -5 -13z"/>
<path d="M5802 4352 c4 -23 20 -24 46 -4 l23 18 -36 1 c-27 0 -35 -3 -33 -15z"/>
<path d="M5835 4320 c-3 -5 -2 -10 4 -10 5 0 13 5 16 10 3 6 2 10 -4 10 -5 0
-13 -4 -16 -10z"/>
<path d="M3900 4224 c0 -14 4 -23 9 -20 5 3 7 15 4 26 -7 28 -13 25 -13 -6z"/>
<path d="M3681 4200 c0 -19 4 -42 9 -50 8 -12 10 -10 9 10 -1 14 -5 36 -9 50
-7 23 -8 22 -9 -10z"/>
<path d="M4062 4190 c-12 -32 -11 -34 4 -19 9 9 14 25 12 35 -3 14 -7 10 -16
-16z"/>
<path d="M3476 4188 c9 -29 35 -70 41 -64 5 5 -35 86 -43 86 -3 0 -2 -10 2
-22z"/>
<path d="M3700 4101 c0 -6 4 -13 10 -16 6 -3 7 1 4 9 -7 18 -14 21 -14 7z"/>
<path d="M8933 3155 c0 -8 4 -15 9 -15 4 0 8 4 8 9 0 6 -4 12 -8 15 -5 3 -9
-1 -9 -9z"/>
<path d="M9375 3033 c-16 -3 -34 -9 -39 -14 -14 -13 -15 -49 -2 -43 6 3 2 -2
-8 -10 -11 -9 -17 -18 -15 -21 9 -9 87 54 92 75 3 11 4 19 4 19 -1 -1 -15 -4
-32 -6z m-5 -33 c0 -7 -13 -7 -38 -1 -2 1 -1 5 3 11 6 10 35 2 35 -10z"/>
<path d="M10130 3008 c0 -4 5 -8 11 -8 5 0 7 -4 4 -10 -4 -6 2 -7 16 -1 35 12
34 30 0 29 -17 -1 -31 -5 -31 -10z"/>
<path d="M9226 3003 c-4 -5 -20 -8 -34 -8 -15 0 -28 -4 -29 -9 -1 -10 -24 -26
-36 -26 -5 0 -5 5 -1 12 4 6 -5 3 -19 -8 -33 -24 -42 -43 -17 -37 11 3 18 10
17 17 -2 11 7 12 33 1 9 -3 25 3 35 13 11 9 29 16 40 14 11 -2 17 -1 13 3 -4
5 -3 14 3 22 12 14 8 18 -5 6z"/>
<path d="M10738 3003 c7 -3 16 -2 19 1 4 3 -2 6 -13 5 -11 0 -14 -3 -6 -6z"/>
<path d="M12000 3000 c0 -5 7 -10 16 -10 8 0 12 5 9 10 -3 6 -10 10 -16 10 -5
0 -9 -4 -9 -10z"/>
<path d="M9580 2969 c0 -5 5 -7 10 -4 6 3 10 8 10 11 0 2 -4 4 -10 4 -5 0 -10
-5 -10 -11z"/>
<path d="M9430 2960 c-12 -8 -12 -10 5 -9 11 0 29 4 40 9 18 8 18 9 -5 9 -14
0 -32 -4 -40 -9z"/>
<path d="M10436 2961 c-3 -5 16 -6 42 -4 69 7 74 11 15 12 -28 1 -54 -3 -57
-8z"/>
<path d="M9350 2947 c-8 -7 -16 -18 -18 -26 -2 -11 0 -12 11 -3 8 7 16 9 20 6
3 -3 14 -1 24 5 16 9 16 10 -5 11 -13 0 -20 4 -17 10 8 13 3 12 -15 -3z"/>
<path d="M9775 2951 c-3 -5 0 -13 6 -17 8 -5 9 -3 4 6 -6 10 -4 12 9 7 10 -4
15 -3 11 3 -8 13 -22 13 -30 1z"/>
<path d="M9948 2953 c6 -2 18 -2 25 0 6 3 1 5 -13 5 -14 0 -19 -2 -12 -5z"/>
<path d="M9275 2930 c-3 -5 -1 -10 4 -10 6 0 11 5 11 10 0 6 -2 10 -4 10 -3 0
-8 -4 -11 -10z"/>
<path d="M9425 2930 c-3 -6 1 -7 9 -4 18 7 21 14 7 14 -6 0 -13 -4 -16 -10z"/>
<path d="M9548 2933 c6 -2 18 -2 25 0 6 3 1 5 -13 5 -14 0 -19 -2 -12 -5z"/>
<path d="M9020 2905 c-11 -13 -10 -14 4 -9 9 3 16 10 16 15 0 13 -6 11 -20 -6z"/>
<path d="M9174 2904 c-18 -14 -18 -15 4 -4 12 6 22 13 22 15 0 8 -5 6 -26 -11z"/>
<path d="M9363 2907 c-47 -18 -51 -27 -5 -14 23 7 44 16 48 20 10 10 -5 8 -43
-6z"/>
<path d="M9608 2913 c6 -2 18 -2 25 0 6 3 1 5 -13 5 -14 0 -19 -2 -12 -5z"/>
<path d="M9120 2890 c0 -5 5 -10 10 -10 6 0 10 5 10 10 0 6 -4 10 -10 10 -5 0
-10 -4 -10 -10z"/>
<path d="M9418 2893 c6 -2 10 -9 7 -14 -4 -5 1 -6 9 -3 20 8 11 24 -12 23 -11
0 -12 -2 -4 -6z"/>
<path d="M8975 2880 c-3 -6 1 -7 9 -4 18 7 21 14 7 14 -6 0 -13 -4 -16 -10z"/>
<path d="M9025 2870 c-16 -7 -17 -9 -3 -9 9 -1 20 4 23 9 7 11 7 11 -20 0z"/>
<path d="M9160 2870 c0 -5 4 -10 9 -10 6 0 13 5 16 10 3 6 -1 10 -9 10 -9 0
-16 -4 -16 -10z"/>
<path d="M8955 2850 c-27 -12 -42 -15 -46 -8 -5 7 -17 3 -37 -10 -16 -12 -31
-19 -34 -17 -3 3 -5 -2 -5 -10 0 -8 4 -15 8 -15 4 0 15 -3 25 -7 12 -4 15 -3
10 6 -10 16 13 43 31 36 8 -2 23 0 34 5 12 7 19 7 19 1 0 -5 -9 -13 -21 -16
-11 -4 -18 -9 -16 -12 3 -2 14 0 25 6 15 8 21 8 24 0 2 -6 14 -2 28 10 26 21
21 28 -9 12 -13 -7 -18 -6 -18 4 0 8 4 12 8 10 4 -3 9 2 13 10 3 8 4 15 3 15
-1 -1 -20 -9 -42 -20z"/>
<path d="M9061 2839 c-39 -16 -14 -23 31 -9 24 7 48 14 53 15 6 2 -6 3 -25 4
-19 0 -46 -5 -59 -10z"/>
<path d="M8365 2806 c-16 -17 -27 -27 -22 -22 9 13 9 26 -1 26 -7 0 -35 -61
-29 -65 1 -1 19 0 40 3 44 5 67 38 51 71 -8 18 -11 17 -39 -13z"/>
<path d="M10226 2832 c-3 -5 1 -9 9 -9 8 0 15 4 15 9 0 4 -4 8 -9 8 -6 0 -12
-4 -15 -8z"/>
<path d="M9149 2819 c-6 -3 3 -6 20 -7 17 0 33 4 36 9 7 10 -40 9 -56 -2z"/>
<path d="M10106 2819 c2 -4 -2 -10 -8 -13 -7 -3 -1 -4 14 -3 15 2 31 7 35 12
4 4 2 5 -4 1 -7 -4 -13 -3 -13 2 0 5 -7 9 -15 9 -8 0 -12 -4 -9 -8z"/>
<path d="M2535 2390 c-3 -5 -1 -10 4 -10 6 0 11 5 11 10 0 6 -2 10 -4 10 -3 0
-8 -4 -11 -10z"/>
<path d="M2588 2349 c-22 -12 -23 -29 -3 -29 8 0 19 9 25 20 12 22 4 25 -22 9z"/>
<path d="M2730 2305 c0 -8 4 -15 10 -15 5 0 7 7 4 15 -4 8 -8 15 -10 15 -2 0
-4 -7 -4 -15z"/>
<path d="M2576 2287 c3 -10 9 -15 12 -12 3 3 0 11 -7 18 -10 9 -11 8 -5 -6z"/>
<path d="M2470 2230 c-8 -5 -11 -12 -7 -16 4 -4 13 -2 19 4 15 15 7 24 -12 12z"/>
<path d="M5405 1880 c-3 -5 -1 -10 4 -10 6 0 11 5 11 10 0 6 -2 10 -4 10 -3 0
-8 -4 -11 -10z"/>
<path d="M5480 1870 c34 -11 50 -12 50 -2 0 4 -17 8 -37 9 -33 1 -35 0 -13 -7z"/>
<path d="M5355 1690 c4 -6 11 -8 16 -5 14 9 11 15 -7 15 -8 0 -12 -5 -9 -10z"/>
<path d="M5277 1628 c4 -37 3 -48 -8 -48 -11 0 -11 -2 1 -10 13 -9 13 -10 0
-11 -8 -1 -21 -1 -29 0 -7 2 -10 -2 -7 -8 8 -12 86 -11 103 2 9 6 15 4 19 -7
3 -9 10 -16 14 -16 5 0 3 11 -3 25 -8 17 -20 25 -37 25 -17 0 -21 -3 -12 -9
11 -7 10 -9 -3 -14 -17 -7 -31 15 -21 31 3 5 -1 27 -8 48 l-15 39 6 -47z"/>
<path d="M6533 1663 c-29 -3 -43 -9 -43 -19 0 -19 19 -18 66 6 21 10 35 19 29
18 -5 -1 -29 -3 -52 -5z"/>
<path d="M6608 1663 c7 -3 16 -2 19 1 4 3 -2 6 -13 5 -11 0 -14 -3 -6 -6z"/>
<path d="M6648 1663 c7 -3 16 -2 19 1 4 3 -2 6 -13 5 -11 0 -14 -3 -6 -6z"/>
<path d="M5173 1646 c-5 -9 -24 -27 -43 -41 -21 -16 -28 -25 -18 -25 9 0 19 6
21 13 3 7 6 5 6 -5 1 -19 21 -26 21 -8 0 21 1 26 16 48 9 13 13 26 11 29 -3 2
-9 -2 -14 -11z"/>
<path d="M5200 1639 c0 -5 5 -7 10 -4 6 3 10 8 10 11 0 2 -4 4 -10 4 -5 0 -10
-5 -10 -11z"/>
<path d="M5408 1633 c7 -3 16 -2 19 1 4 3 -2 6 -13 5 -11 0 -14 -3 -6 -6z"/>
<path d="M5187 1609 c7 -7 15 -10 18 -7 3 3 -2 9 -12 12 -14 6 -15 5 -6 -5z"/>
<path d="M5050 1606 c0 -2 7 -9 15 -16 9 -7 15 -8 15 -2 0 5 -7 12 -15 16 -8
3 -15 4 -15 2z"/>
<path d="M6605 1590 c3 -5 -2 -10 -11 -10 -10 0 -25 -7 -35 -16 -11 -10 -19
-12 -24 -5 -3 6 0 11 7 11 8 0 6 4 -4 11 -23 13 -66 -7 -49 -24 7 -7 7 -14 -1
-24 -17 -20 -7 -23 42 -11 58 15 121 78 78 78 -5 0 -6 -4 -3 -10z m-83 -17
c-6 -2 -9 -10 -6 -15 4 -7 2 -8 -5 -4 -13 9 -5 26 12 25 9 0 8 -2 -1 -6z"/>
<path d="M5445 1579 c-4 -6 -5 -12 -2 -15 2 -3 7 2 10 11 7 17 1 20 -8 4z"/>
<path d="M4985 1570 c-3 -5 -2 -10 4 -10 5 0 13 5 16 10 3 6 2 10 -4 10 -5 0
-13 -4 -16 -10z"/>
<path d="M4227 1550 c-3 -11 0 -23 6 -27 7 -3 9 -2 4 2 -4 5 0 17 10 27 14 16
14 18 1 18 -9 0 -18 -9 -21 -20z"/>
<path d="M4734 1549 c-2 -4 -22 -5 -43 -3 -24 3 -42 0 -47 -7 -5 -9 1 -10 20
-5 21 5 27 3 23 -6 -2 -7 -10 -12 -16 -10 -7 1 -10 -2 -6 -7 6 -11 34 -3 53
16 17 16 42 6 35 -15 -3 -11 -2 -13 4 -6 4 6 15 14 23 17 12 4 11 6 -2 6 -21
1 -24 17 -5 24 6 3 2 4 -11 4 -13 -1 -25 -4 -28 -8z"/>
<path d="M4810 1556 c0 -2 8 -10 18 -17 15 -13 16 -12 3 4 -13 16 -21 21 -21
13z"/>
<path d="M4858 1553 c7 -3 16 -2 19 1 4 3 -2 6 -13 5 -11 0 -14 -3 -6 -6z"/>
<path d="M4057 1539 c7 -7 15 -10 18 -7 3 3 -2 9 -12 12 -14 6 -15 5 -6 -5z"/>
<path d="M5046 1508 c32 -42 45 -46 65 -21 13 15 12 15 -8 5 -12 -7 -23 -9
-25 -4 -2 4 -16 18 -32 32 l-29 25 29 -37z"/>
<path d="M4180 1516 c0 -2 7 -7 16 -10 8 -3 12 -2 9 4 -6 10 -25 14 -25 6z"/>
<path d="M4446 1503 c-6 -14 -5 -15 5 -6 7 7 10 15 7 18 -3 3 -9 -2 -12 -12z"/>
<path d="M4531 1515 c-1 -21 14 -32 34 -24 19 7 19 8 -2 8 -12 1 -24 7 -26 14
-3 6 -6 8 -6 2z"/>
<path d="M4972 1510 c7 -4 23 -11 35 -14 18 -6 22 -4 17 8 -3 9 -18 14 -36 14
-18 -1 -25 -4 -16 -8z"/>
<path d="M4624 1497 c-8 -21 2 -35 16 -21 5 5 6 15 0 24 -8 12 -10 12 -16 -3z"/>
<path d="M4847 1479 c4 -13 8 -18 11 -10 2 7 -1 18 -6 23 -8 8 -9 4 -5 -13z"/>
<path d="M4970 1490 c0 -6 7 -10 15 -10 8 0 15 2 15 4 0 2 -7 6 -15 10 -8 3
-15 1 -15 -4z"/>
<path d="M5160 1490 c0 -5 6 -10 14 -10 8 0 18 5 21 10 3 6 -3 10 -14 10 -12
0 -21 -4 -21 -10z"/>
<path d="M5220 1490 c-9 -6 -10 -10 -3 -10 6 0 15 5 18 10 8 12 4 12 -15 0z"/>
<path d="M4930 1480 c0 -5 7 -10 16 -10 8 0 12 5 9 10 -3 6 -10 10 -16 10 -5
0 -9 -4 -9 -10z"/>
<path d="M6200 1469 c0 -5 9 -9 20 -9 11 0 20 2 20 4 0 2 -9 6 -20 9 -11 3
-20 1 -20 -4z"/>
<path d="M6150 1450 c0 -5 5 -10 11 -10 5 0 7 5 4 10 -3 6 -8 10 -11 10 -2 0
-4 -4 -4 -10z"/>
<path d="M6493 1423 c-7 -2 -13 -9 -13 -14 0 -6 7 -6 19 0 10 6 22 7 26 3 5
-4 5 -1 1 6 -8 13 -13 14 -33 5z"/>
<path d="M6220 1370 c0 -5 5 -10 11 -10 5 0 7 5 4 10 -3 6 -8 10 -11 10 -2 0
-4 -4 -4 -10z"/>
</g>
</svg>
