<?xml version="1.0" standalone="no"?>
<!DOCTYPE svg PUBLIC "-//W3C//DTD SVG 20010904//EN"
 "http://www.w3.org/TR/2001/REC-SVG-20010904/DTD/svg10.dtd">
<svg version="1.0" xmlns="http://www.w3.org/2000/svg"
 width="1280.000000pt" height="720.000000pt" viewBox="0 0 1280.000000 720.000000"
 preserveAspectRatio="xMidYMid meet">
<metadata>
Created by potrace 1.16, written by Peter Selinger 2001-2019
</metadata>
<g transform="translate(0.000000,720.000000) scale(0.100000,-0.100000)"
fill="#000000" stroke="none">
<path d="M3878 6838 c-2 -200 -3 -388 -3 -418 0 -32 -5 -53 -10 -51 -6 2 -17
6 -25 8 -8 3 -25 9 -38 14 -21 8 -23 7 -17 -11 5 -16 2 -20 -14 -20 -11 0 -25
8 -30 18 -13 24 -145 92 -161 82 -12 -8 -139 22 -172 40 -27 15 -40 12 -63
-14 -25 -30 -65 -44 -65 -22 0 8 9 18 20 21 23 7 27 25 6 25 -8 0 -36 -11 -63
-24 -83 -41 -162 -7 -163 70 0 38 -17 47 -62 31 -45 -16 -44 -14 -22 -38 l19
-21 -40 7 c-22 4 -51 15 -65 24 -30 21 -79 37 -140 45 -40 6 -52 3 -92 -24
-35 -23 -45 -35 -41 -50 6 -24 16 -25 33 -5 15 18 97 16 105 -2 2 -7 18 -13
34 -13 34 0 38 -4 42 -45 5 -39 -20 -44 -63 -13 -26 18 -47 23 -101 24 -44 0
-71 -4 -79 -13 -6 -7 -16 -13 -23 -13 -21 0 -73 30 -79 45 -4 11 -13 14 -30 9
-17 -4 -33 0 -50 14 -33 25 -69 18 -104 -21 -61 -67 -59 -66 -96 -60 -40 6
-86 -3 -86 -17 0 -6 11 -10 25 -10 18 0 25 -5 25 -19 0 -21 -44 -41 -90 -41
-15 0 -40 -11 -56 -25 -17 -15 -41 -25 -59 -25 -36 0 -120 -53 -178 -113 -46
-46 -100 -63 -207 -67 -37 -1 -68 -9 -95 -24 -22 -13 -66 -29 -98 -36 -49 -11
-64 -21 -105 -65 -59 -65 -88 -107 -84 -122 2 -11 -34 -43 -49 -43 -3 0 -16 9
-29 20 -13 11 -29 20 -37 20 -21 0 -28 -31 -10 -45 14 -10 12 -17 -22 -61 -20
-27 -40 -57 -44 -67 -6 -15 -14 -17 -54 -12 -33 4 -65 1 -102 -12 -50 -16 -59
-25 -107 -95 -39 -57 -54 -90 -59 -125 -3 -26 -12 -68 -20 -93 -8 -25 -15 -58
-15 -73 0 -44 -39 -207 -63 -260 -12 -27 -33 -59 -48 -70 -19 -16 -28 -35 -32
-64 -5 -42 5 -58 17 -28 6 16 36 21 36 6 0 -5 -32 -42 -71 -82 l-72 -72 6 -81
c3 -45 11 -95 17 -111 7 -17 14 -41 16 -54 3 -14 14 -61 25 -105 32 -130 41
-178 36 -200 -29 -115 -96 -214 -136 -201 -11 3 -34 30 -51 59 -23 41 -29 61
-24 85 8 37 -12 43 -25 8 -37 -97 -16 -200 54 -268 37 -36 45 -50 43 -77 -3
-39 19 -63 89 -101 49 -27 67 -61 44 -84 -6 -6 -11 -24 -11 -40 0 -16 -7 -57
-16 -90 -18 -69 -12 -105 32 -187 13 -25 24 -49 24 -53 0 -5 13 -26 30 -47 16
-21 30 -43 30 -49 0 -6 -15 -17 -32 -24 -41 -17 -55 -34 -60 -72 -2 -22 -9
-31 -28 -35 -34 -8 -38 -43 -7 -72 13 -13 58 -56 100 -95 41 -40 80 -73 85
-73 15 0 61 -84 58 -106 -2 -10 3 -31 10 -46 8 -15 15 -63 15 -112 2 -84 3
-86 27 -86 18 0 23 -4 18 -16 -4 -9 13 -41 45 -82 l51 -67 -6 -73 c-4 -39 -16
-107 -27 -150 -22 -84 -19 -123 12 -184 14 -27 18 -49 13 -75 -3 -22 1 -64 9
-98 8 -33 18 -96 22 -140 18 -222 103 -543 166 -626 39 -51 79 -117 79 -130 0
-6 18 -49 40 -95 54 -111 65 -174 46 -256 -8 -35 -17 -90 -21 -123 -14 -112
-35 -142 -139 -195 -16 -8 -47 -32 -70 -52 l-41 -37 165 0 c157 0 166 1 186
22 31 33 38 72 17 104 -13 19 -14 28 -6 30 9 3 8 11 -3 29 -20 30 -31 148 -15
158 6 4 11 1 11 -8 0 -9 8 -16 18 -16 24 -1 54 -26 68 -58 7 -15 13 -21 13
-13 1 8 8 22 17 32 14 15 18 16 42 3 15 -8 35 -14 44 -14 21 0 48 -48 48 -85
0 -16 -6 -25 -16 -25 -9 0 -42 -12 -74 -27 -46 -21 -57 -31 -57 -50 0 -14 5
-23 16 -23 9 0 27 -9 41 -20 30 -24 49 -25 56 -5 4 8 15 15 25 15 10 0 19 5
19 10 0 6 11 8 25 4 15 -4 25 -2 25 5 0 6 11 11 25 11 23 0 25 -4 25 -40 l0
-40 1346 0 1347 0 -5 68 c-4 49 -12 78 -29 104 -31 47 -115 103 -179 118 -75
18 -100 69 -65 130 8 14 14 38 15 54 0 16 8 54 18 85 17 56 58 106 129 158 19
14 47 56 73 110 23 48 53 101 66 116 19 23 24 40 24 84 0 46 5 63 28 92 15 20
27 45 28 56 2 54 5 65 19 65 11 0 15 12 15 43 2 95 10 141 30 162 25 27 51
139 49 211 -1 28 2 57 6 64 7 11 12 144 15 365 0 43 35 125 53 125 7 0 19 -4
26 -9 21 -13 51 5 51 30 0 15 -11 25 -39 36 -33 13 -43 24 -60 67 -11 28 -22
65 -26 82 -9 44 20 110 72 165 37 39 51 47 90 52 30 3 52 12 62 25 9 12 28 24
43 27 37 9 54 31 83 105 22 57 52 106 88 142 31 32 47 65 47 98 0 43 -15 60
-51 60 -15 0 -37 9 -50 19 l-24 19 18 69 c9 37 17 103 17 147 0 43 8 109 17
147 15 62 15 87 4 222 -6 84 -19 181 -27 217 -8 36 -16 107 -18 158 -2 51 -9
106 -16 122 -11 26 -9 37 19 96 44 94 42 111 -24 185 -50 55 -55 66 -49 93 3
17 10 36 15 41 4 6 13 41 19 78 5 36 15 78 20 92 17 44 11 81 -21 149 -37 77
-38 78 -109 101 -75 24 -84 37 -57 83 17 29 22 55 24 120 1 59 6 87 18 98 20
20 19 41 -2 53 -13 7 -23 5 -35 -6 -16 -14 -20 -14 -44 3 -15 11 -36 26 -48
34 -73 50 -116 101 -109 129 8 30 -36 141 -56 139 -41 -3 -48 2 -47 36 l1 34
31 -19 c17 -10 39 -19 49 -19 16 0 17 2 3 18 -9 9 -19 33 -23 52 -14 66 -103
162 -167 180 -30 9 -42 19 -58 52 -11 23 -20 47 -20 52 0 6 -27 30 -60 54 -66
48 -83 78 -54 99 10 7 26 13 36 13 25 0 22 15 -7 34 -30 20 -45 20 -45 1 0 -9
-6 -12 -15 -9 -8 4 -15 12 -15 18 0 19 -57 69 -69 62 -8 -5 -11 62 -11 228 0
130 4 236 9 236 8 0 123 -322 181 -505 15 -49 35 -107 44 -129 l17 -38 87 7
c47 4 97 11 109 16 l23 9 0 510 0 510 -100 0 -100 0 0 -262 c0 -216 -2 -260
-13 -248 -7 8 -18 31 -24 50 -11 33 -144 405 -158 443 -6 15 -23 17 -141 17
l-134 0 -2 -362z m-1464 -344 c20 -8 20 -18 0 -38 -20 -21 -63 -20 -71 0 -11
29 34 52 71 38z m324 -122 c6 -20 -27 -13 -38 7 -5 11 -10 23 -10 27 0 10 43
-21 48 -34z m412 -2 c0 -5 -4 -10 -10 -10 -5 0 -10 5 -10 10 0 6 5 10 10 10 6
0 10 -4 10 -10z m1270 -531 c0 -6 -4 -7 -10 -4 -5 3 -10 11 -10 16 0 6 5 7 10
4 6 -3 10 -11 10 -16z m50 -64 c6 -8 10 -22 8 -32 -3 -15 -6 -15 -26 7 -12 13
-22 27 -22 32 0 13 27 9 40 -7z m-3272 -53 c4 -28 -14 -53 -33 -46 -32 13 -20
78 13 72 9 -2 18 -14 20 -26z m-278 -160 c0 -10 6 -24 13 -31 10 -10 8 -16 -9
-30 -12 -9 -27 -27 -33 -40 -9 -17 -16 -20 -24 -12 -7 7 -6 16 6 29 24 26 21
33 -9 22 -14 -6 -27 -10 -30 -10 -11 0 28 60 48 74 29 21 38 20 38 -2z m2615
-492 c3 -5 1 -10 -4 -10 -6 0 -11 5 -11 10 0 6 2 10 4 10 3 0 8 -4 11 -10z
m105 -26 c0 -23 3 -25 24 -20 19 5 30 -1 49 -25 19 -24 29 -30 46 -24 11 3 21
11 21 16 0 20 29 8 32 -13 2 -19 10 -24 40 -26 26 -2 41 -10 49 -23 6 -12 13
-18 16 -15 8 8 43 -13 43 -25 0 -10 31 -58 61 -94 9 -11 17 -33 17 -48 0 -15
9 -38 21 -51 23 -24 29 -68 9 -64 -8 2 -12 -6 -10 -22 1 -14 4 -33 5 -42 0
-10 5 -18 10 -18 5 0 7 -18 3 -40 -5 -31 -3 -42 8 -46 21 -8 30 -42 16 -59 -8
-9 -8 -20 -2 -32 10 -18 12 -25 12 -43 0 -5 13 -10 29 -10 41 0 49 -44 15 -81
-29 -30 -32 -69 -6 -69 10 0 23 5 30 12 9 9 12 6 12 -15 0 -18 4 -25 14 -21
22 8 27 -10 17 -61 -7 -36 -5 -56 6 -84 l16 -36 9 28 c11 32 24 35 33 8 3 -11
19 -22 35 -26 17 -4 30 -12 30 -18 -1 -17 -25 -47 -38 -47 -17 0 -25 -19 -14
-33 5 -7 13 -23 17 -37 4 -14 14 -29 21 -35 6 -5 15 -25 19 -42 6 -29 4 -33
-14 -33 -22 0 -28 -14 -11 -25 18 -11 10 -26 -10 -20 -27 9 -25 -7 5 -35 21
-19 25 -21 25 -7 0 25 15 21 35 -9 14 -22 15 -28 4 -35 -7 -4 -11 -10 -9 -11
3 -2 17 -12 32 -21 36 -22 63 -83 78 -172 5 -27 13 -66 18 -86 12 -46 4 -486
-9 -559 -6 -30 -15 -118 -20 -195 -13 -193 -18 -226 -41 -245 -18 -14 -19 -19
-7 -39 11 -18 11 -25 2 -28 -8 -3 -10 -15 -6 -34 3 -18 0 -38 -11 -54 -9 -14
-16 -45 -16 -73 0 -38 -6 -57 -30 -88 -35 -46 -37 -63 -11 -95 18 -22 18 -23
-2 -56 -15 -27 -18 -45 -14 -84 4 -28 1 -60 -5 -73 -9 -21 -14 -23 -40 -16
-25 8 -30 6 -40 -16 -6 -13 -17 -24 -25 -24 -15 0 -18 26 -3 35 6 4 8 10 5 15
-3 4 6 17 20 27 45 32 12 70 -34 41 -26 -16 -49 8 -53 58 -2 25 -8 38 -16 36
-7 -1 -15 5 -18 13 -7 18 -45 20 -62 3 -9 -9 -13 -7 -18 6 -4 11 1 24 15 37
25 24 29 54 5 45 -9 -3 -19 -6 -24 -6 -4 0 -13 -15 -21 -32 -7 -18 -25 -44
-40 -58 -31 -30 -46 -84 -29 -105 15 -18 52 -19 68 -3 24 24 43 -30 27 -79
-10 -32 -24 -28 -37 9 l-12 33 -13 -34 c-15 -35 -9 -56 8 -31 9 13 10 13 6 -1
-7 -20 11 -39 35 -39 10 0 20 -10 24 -23 4 -19 11 -23 30 -19 29 5 30 -1 3
-39 -12 -17 -18 -37 -14 -48 3 -11 0 -23 -6 -27 -8 -4 -9 -3 -5 4 5 8 -3 12
-26 12 -74 0 -109 31 -48 44 22 4 30 11 30 27 0 19 -4 21 -30 15 -24 -4 -30
-2 -30 12 -1 25 -30 -46 -30 -74 0 -12 -4 -26 -10 -29 -5 -3 -10 -19 -10 -35
0 -15 -6 -30 -12 -33 -8 -2 -9 -8 -4 -13 5 -5 11 -4 13 4 6 15 35 16 50 1 6
-6 21 -9 34 -7 19 2 24 9 22 31 -1 15 1 27 5 28 4 0 18 2 32 3 14 2 37 6 51
10 25 7 26 6 21 -20 -3 -15 -17 -33 -33 -43 -19 -10 -27 -22 -23 -32 3 -11 -6
-25 -23 -39 -28 -22 -28 -22 -31 -2 -5 33 -31 35 -45 4 -6 -15 -17 -31 -24
-35 -16 -10 -17 -49 -2 -64 8 -8 4 -15 -13 -27 -20 -15 -23 -15 -26 -1 -4 16
-42 21 -42 6 0 -12 29 -41 41 -41 23 0 6 -51 -31 -93 -22 -25 -40 -50 -40 -56
0 -5 -17 -13 -37 -17 -30 -6 -39 -3 -54 15 -9 11 -22 21 -28 21 -19 0 -12 21
14 42 14 11 25 30 25 43 0 13 6 26 13 29 9 5 9 7 -2 12 -7 4 -22 15 -32 25
-11 11 -23 19 -29 19 -16 0 -12 -18 6 -28 11 -6 14 -14 8 -23 -5 -8 -9 -18 -9
-24 0 -5 -3 -11 -7 -12 -18 -6 -28 -2 -28 12 0 8 -5 15 -11 15 -6 0 -8 9 -4
20 4 12 1 27 -5 35 -9 11 -7 17 9 27 28 17 26 28 -5 28 -24 0 -25 1 -8 17 9
10 28 16 41 15 14 -2 25 3 29 12 3 9 12 16 20 16 8 0 14 5 14 10 0 13 -6 13
-31 -2 -17 -11 -22 -10 -33 4 -7 10 -15 15 -18 12 -11 -10 -48 49 -48 77 0 15
-4 31 -10 34 -5 3 -7 0 -4 -8 9 -24 -10 -27 -36 -6 -24 18 -24 19 -4 19 16 0
23 7 26 29 4 28 2 30 -39 36 -39 6 -43 9 -43 34 0 21 -7 31 -32 42 -18 8 -32
20 -30 28 1 7 0 22 -4 33 -5 16 -8 18 -15 7 -6 -10 -10 -8 -17 11 -6 17 -6 28
2 33 8 6 7 10 -2 14 -7 3 -17 16 -22 29 -5 13 -26 32 -45 41 -20 10 -38 27
-41 39 -3 13 -14 30 -25 40 -23 20 -25 44 -4 44 8 0 15 4 15 9 0 5 -11 9 -25
8 -14 0 -34 8 -44 17 -23 21 -23 21 -55 -9 -31 -29 -32 -34 -6 -89 26 -58 37
-166 20 -207 -11 -26 -17 -30 -39 -24 -14 4 -47 9 -72 12 -42 4 -49 2 -93 -36
-26 -23 -56 -41 -67 -41 -10 0 -19 -5 -19 -11 0 -6 -8 -8 -17 -5 -10 3 -34 2
-53 -2 -37 -8 -92 6 -134 33 -28 19 -71 6 -78 -23 -4 -13 -21 -23 -54 -31 -27
-7 -63 -21 -80 -32 -39 -24 -70 -24 -83 -2 -13 24 -37 2 -45 -42 -9 -45 -22
-52 -45 -24 l-18 23 -5 -33 c-3 -17 -1 -34 4 -37 16 -10 8 -24 -24 -44 -18
-11 -27 -20 -20 -20 7 0 10 -5 7 -10 -4 -6 -14 -1 -26 12 l-19 23 -39 -43
c-36 -39 -40 -41 -46 -22 -10 31 -43 24 -82 -17 -30 -31 -38 -34 -54 -25 -25
16 -35 15 -55 -5 -10 -11 -34 -17 -65 -18 -38 -1 -52 -6 -68 -26 -28 -33 -41
-82 -41 -161 0 -37 -5 -70 -10 -73 -6 -4 -7 -12 -3 -18 4 -7 8 -35 8 -63 1
-49 0 -52 -21 -44 -12 5 -24 6 -27 3 -3 -2 -13 9 -21 25 -9 17 -25 33 -36 37
-26 8 -70 84 -70 119 0 20 -6 29 -20 33 -11 3 -23 15 -26 28 -4 15 -18 26 -47
35 -23 7 -49 21 -58 31 -9 9 -24 17 -34 16 -13 -2 -21 12 -35 60 -25 91 -51
117 -70 68 -12 -32 -28 -32 -36 0 -4 16 -13 25 -26 25 -15 0 -19 5 -15 20 3
11 -3 30 -14 44 -13 16 -19 40 -19 73 -1 52 -29 98 -66 105 -14 2 -19 13 -20
43 -1 22 -13 108 -27 190 -46 262 -64 399 -77 570 -5 66 -16 169 -24 229 -9
60 -16 150 -16 200 0 156 21 598 31 666 6 36 13 79 15 95 7 41 24 105 37 132
7 16 7 26 -2 37 -13 16 -15 53 -5 108 4 28 2 42 -10 53 -9 9 -16 23 -16 30 0
19 22 65 30 65 11 0 20 83 13 123 -5 32 -7 34 -21 21 -8 -8 -18 -12 -23 -7 -8
8 12 81 31 115 14 24 13 28 -5 22 -11 -5 -13 0 -5 25 4 16 15 43 24 58 14 26
71 148 116 248 10 22 30 53 44 69 14 16 26 36 26 45 0 9 7 27 16 40 12 17 22
21 41 16 15 -3 22 -2 19 4 -14 22 16 20 85 -5 68 -25 76 -25 127 -13 47 11 57
11 82 -4 15 -9 37 -17 48 -17 12 0 24 -4 27 -10 3 -5 15 -10 25 -10 10 0 32
-8 49 -17 23 -13 29 -23 25 -37 -5 -15 -3 -18 12 -11 11 4 39 14 64 22 25 9
54 20 65 24 11 5 78 11 148 14 91 4 135 9 150 20 28 19 101 20 117 1 16 -20
201 -19 250 1 19 7 55 16 81 18 62 7 124 36 179 85 34 31 55 41 92 46 51 7 75
30 69 66 -1 12 7 19 26 23 15 4 40 11 55 17 15 5 31 7 37 4 6 -4 19 2 31 14
20 20 36 27 26 11 -3 -5 1 -12 10 -15 21 -8 114 35 114 53 0 8 8 4 19 -10 10
-13 16 -29 14 -36 -7 -18 1 -16 56 11 27 14 59 27 72 28 13 2 34 10 47 16 19
11 23 10 28 -3 10 -24 22 -18 34 19 10 32 23 42 58 45 7 0 12 -10 12 -25z
m-830 -238 c0 -3 -4 -8 -10 -11 -5 -3 -10 -1 -10 4 0 6 5 11 10 11 6 0 10 -2
10 -4z m-1384 -50 c8 -8 14 -17 14 -20 0 -12 -38 -6 -49 8 -11 13 -7 19 17 25
2 1 10 -5 18 -13z m1182 2 c-5 -16 -48 -24 -48 -10 0 11 17 20 38 21 8 1 12
-5 10 -11z m-198 -18 c0 -5 -7 -10 -15 -10 -8 0 -15 5 -15 10 0 6 7 10 15 10
8 0 15 -4 15 -10z m-930 -20 c0 -5 -7 -7 -15 -4 -8 4 -15 8 -15 10 0 2 7 4 15
4 8 0 15 -4 15 -10z m2780 -520 c0 -5 -2 -10 -4 -10 -3 0 -8 5 -11 10 -3 6 -1
10 4 10 6 0 11 -4 11 -10z m-3610 -1016 c0 -22 -2 -25 -15 -14 -8 7 -15 19
-15 26 0 8 7 14 15 14 10 0 15 -10 15 -26z m4230 -290 c0 -17 -22 -14 -28 4
-2 7 3 12 12 12 9 0 16 -7 16 -16z m-747 -1184 c6 -14 18 -31 25 -38 15 -16
15 -41 2 -62 -9 -13 -13 -12 -30 9 -11 13 -20 35 -20 50 0 14 -7 39 -15 55
-19 36 -19 46 3 76 l17 25 3 -45 c1 -25 8 -56 15 -70z m-748 -242 c43 -73 86
-147 97 -164 22 -38 22 -44 2 -44 -9 0 -22 -6 -28 -14 -9 -11 -16 -11 -46 2
-19 8 -44 16 -55 16 -13 1 -30 19 -50 53 -17 29 -42 57 -59 65 -32 14 -36 34
-5 31 10 -2 19 1 19 5 0 13 -19 37 -30 38 -21 3 -22 4 -10 19 10 13 10 19 -4
33 -15 17 -14 20 10 43 18 16 28 20 31 12 7 -21 20 -15 27 12 4 14 10 25 15
25 4 0 43 -60 86 -132z m-515 48 c0 -3 -4 -8 -10 -11 -5 -3 -10 -1 -10 4 0 6
5 11 10 11 6 0 10 -2 10 -4z m1380 -69 c-1 -40 -6 -59 -25 -82 -13 -16 -27
-27 -30 -23 -6 5 -14 146 -9 151 1 1 16 3 33 4 31 2 31 2 31 -50z m-260 -12
c-7 -9 -15 -13 -19 -10 -3 3 1 10 9 15 21 14 24 12 10 -5z m-740 -75 c0 -5 -4
-10 -10 -10 -5 0 -10 5 -10 10 0 6 5 10 10 10 6 0 10 -4 10 -10z m-715 -50
c-4 -12 -9 -19 -12 -17 -3 3 -2 15 2 27 4 12 9 19 12 17 3 -3 2 -15 -2 -27z
m86 -137 c-8 -15 -10 -15 -11 -2 0 17 10 32 18 25 2 -3 -1 -13 -7 -23z m-31
-123 c0 -5 -5 -10 -11 -10 -5 0 -7 5 -4 10 3 6 8 10 11 10 2 0 4 -4 4 -10z
m1179 -109 c11 -7 11 -13 -3 -32 -9 -13 -16 -33 -16 -46 0 -29 -17 -38 -29
-16 -15 29 5 103 28 103 3 0 12 -4 20 -9z m-1525 -107 c9 -3 16 -13 16 -20 0
-8 7 -17 16 -21 9 -3 14 -13 11 -24 -3 -11 -1 -19 4 -19 5 0 9 15 9 34 0 29 4
34 27 39 28 5 83 -16 83 -32 0 -19 -43 -61 -61 -61 -12 0 -34 -13 -51 -30 -21
-21 -25 -30 -14 -30 23 0 20 -13 -13 -44 -34 -33 -62 -27 -31 6 26 28 25 38
-1 31 -14 -4 -27 0 -35 12 -13 17 -31 17 -81 -2 -16 -6 -16 -5 -5 10 20 24 6
57 -25 57 -22 0 -24 2 -13 15 9 11 23 14 46 9 30 -6 34 -4 40 22 12 51 35 65
78 48z m504 -71 c2 -9 -7 -13 -27 -13 -21 0 -31 5 -31 16 0 19 51 16 58 -3z
m-478 -284 c0 -19 -21 -50 -31 -44 -13 9 -11 42 4 48 20 9 27 8 27 -4z m53 4
c9 -9 -12 -33 -29 -33 -8 0 -14 9 -14 20 0 19 28 28 43 13z m67 -73 c-19 -12
-30 -12 -30 -1 0 10 31 20 40 14 2 -2 -2 -8 -10 -13z m-91 -4 c9 -11 7 -22
-12 -49 -20 -29 -26 -33 -40 -22 -24 17 -21 50 6 68 28 20 32 20 46 3z m196 0
c22 16 35 18 35 5 0 -17 -60 -70 -74 -65 -7 3 -19 -2 -26 -10 -19 -24 -29 -9
-18 27 6 17 13 38 15 46 3 11 7 11 26 -2 20 -13 26 -13 42 -1z m-1120 -46 c-3
-5 -12 -7 -20 -3 -18 6 -20 40 -2 46 13 4 30 -29 22 -43z m1001 3 c-10 -10
-19 5 -10 18 6 11 8 11 12 0 2 -7 1 -15 -2 -18z m128 -77 c7 -45 -8 -96 -28
-96 -24 0 -37 18 -34 46 2 24 -1 30 -20 32 -19 3 -21 6 -11 18 6 8 17 14 24
14 7 0 18 7 25 15 22 27 37 17 44 -29z m56 5 c0 -6 -5 -13 -10 -16 -6 -4 -8
-29 -5 -61 5 -44 3 -54 -10 -54 -11 0 -15 12 -15 48 0 61 9 92 26 92 8 0 14
-4 14 -9z m446 -39 c-9 -8 -26 10 -26 26 1 15 2 15 15 -2 8 -11 13 -21 11 -24z
m-1353 -157 c1 -5 -6 -11 -15 -13 -11 -2 -18 3 -18 13 0 17 30 18 33 0z"/>
<path d="M3271 4944 c0 -11 3 -14 6 -6 3 7 2 16 -1 19 -3 4 -6 -2 -5 -13z"/>
<path d="M1339 4682 c6 -12 16 -24 22 -28 8 -4 8 -1 0 14 -6 12 -16 24 -22 28
-8 4 -8 1 0 -14z"/>
<path d="M1646 4641 c-11 -4 -15 -10 -10 -13 5 -4 18 0 29 8 20 15 12 17 -19
5z"/>
<path d="M1420 4616 c0 -2 14 -13 32 -24 41 -26 71 -17 31 9 -25 17 -63 26
-63 15z"/>
<path d="M1542 4569 c6 -17 60 -31 72 -19 13 13 8 16 -38 24 -28 6 -37 4 -34
-5z"/>
<path d="M4173 4095 c-32 -30 -29 -38 7 -20 29 15 38 30 23 38 -5 2 -18 -6
-30 -18z"/>
<path d="M4260 3710 c0 -5 5 -10 10 -10 6 0 10 5 10 10 0 6 -4 10 -10 10 -5 0
-10 -4 -10 -10z"/>
<path d="M3935 3510 c3 -5 8 -10 11 -10 2 0 4 5 4 10 0 6 -5 10 -11 10 -5 0
-7 -4 -4 -10z"/>
<path d="M4393 3468 c3 -11 0 -29 -6 -39 -9 -15 -8 -22 5 -35 23 -24 48 -3 48
40 0 24 -6 34 -26 43 -24 11 -26 10 -21 -9z"/>
<path d="M3480 3400 c-36 -5 -85 -14 -110 -20 -25 -6 -62 -15 -82 -18 -20 -4
-50 -19 -67 -34 -17 -16 -40 -28 -51 -28 -38 0 -145 -41 -170 -66 -16 -14 -47
-28 -80 -34 -59 -11 -83 -26 -63 -38 8 -5 10 -17 5 -36 l-8 -28 -24 36 c-27
39 -44 45 -59 19 -5 -10 -20 -18 -33 -18 -13 -1 -28 -4 -34 -7 -5 -3 -21 -8
-36 -12 -23 -5 -28 -3 -28 14 0 16 -6 19 -34 18 -39 -1 -82 22 -91 51 -6 19
-52 41 -86 41 -10 0 -21 9 -24 20 -7 23 -46 36 -70 22 -11 -6 -38 -4 -78 5
-33 8 -69 12 -80 9 -10 -2 -30 0 -43 6 -18 9 -30 8 -49 -2 -21 -11 -29 -11
-50 0 -21 11 -32 11 -72 -2 -30 -10 -52 -12 -59 -7 -8 6 -36 0 -79 -16 -81
-30 -118 -32 -145 -5 -34 34 -96 23 -228 -43 -63 -30 -94 -40 -124 -38 -24 1
-50 -5 -65 -14 -14 -10 -36 -15 -50 -12 -19 3 -23 1 -18 -11 3 -8 0 -19 -6
-23 -17 -10 -7 -21 55 -64 l55 -37 29 21 c17 11 39 21 50 21 12 0 24 5 27 10
3 6 14 10 25 10 10 0 20 6 23 14 8 19 76 4 97 -22 8 -10 23 -22 34 -26 15 -5
9 -12 -35 -42 -30 -20 -65 -47 -79 -60 -14 -13 -46 -32 -72 -44 -56 -25 -65
-36 -35 -43 12 -3 41 -10 63 -16 31 -8 54 -7 94 3 54 14 88 11 105 -10 11 -14
55 -2 55 16 0 5 13 10 28 10 26 0 28 3 24 29 -3 21 2 33 19 45 35 24 43 20 58
-28 7 -24 27 -58 46 -76 27 -26 43 -33 93 -37 34 -3 82 0 109 6 44 12 49 11
62 -8 11 -18 24 -21 81 -21 72 0 96 13 87 47 -3 10 -8 28 -12 41 -5 18 -2 22
14 22 11 0 32 5 47 12 22 10 28 10 39 -5 7 -9 15 -17 19 -17 14 0 5 61 -14 95
-27 48 -25 55 10 55 22 0 30 5 30 18 0 9 5 24 10 32 8 13 12 12 25 -7 20 -28
46 -29 69 -4 21 24 33 20 106 -31 55 -37 93 -48 105 -28 9 14 61 13 84 -2 15
-9 26 -9 47 1 25 11 30 10 44 -9 15 -20 50 -20 50 0 0 10 108 45 116 37 3 -3
-9 -35 -26 -71 -29 -58 -33 -76 -34 -155 -1 -74 2 -92 16 -102 9 -7 14 -17 12
-24 -3 -6 2 -18 11 -25 9 -8 15 -29 15 -56 0 -41 11 -56 25 -34 9 14 45 12 45
-2 0 -7 5 -5 11 5 13 22 38 22 54 0 11 -15 14 -15 42 5 32 23 163 42 163 23 0
-10 94 -10 104 0 10 10 -40 58 -65 61 -13 2 -31 8 -39 13 -8 6 -24 14 -34 20
-31 16 -29 31 8 49 49 23 59 21 51 -13 -6 -26 -4 -29 15 -24 15 4 26 -1 36
-16 22 -31 34 -26 34 13 0 24 -5 36 -17 40 -10 2 -4 4 12 3 26 -2 30 -6 30
-32 0 -20 6 -31 18 -33 21 -4 33 23 18 42 -12 14 -5 26 15 26 7 0 10 -8 7 -20
-7 -28 14 -51 42 -44 16 4 24 0 29 -13 7 -16 9 -16 21 7 18 32 19 59 1 66 -24
9 -27 35 -6 63 10 16 25 49 32 75 14 52 19 55 49 25 32 -32 21 -60 -39 -98
-37 -24 -50 -37 -42 -45 7 -7 14 -6 22 2 19 19 50 15 44 -5 -9 -30 9 -48 35
-37 16 8 32 7 53 0 22 -8 30 -8 33 2 3 6 13 12 24 12 10 0 19 -6 19 -12 0 -10
3 -9 9 1 11 17 60 7 77 -17 7 -9 23 -17 36 -18 13 -1 30 -3 38 -5 9 -3 14 2
14 14 -2 18 21 24 31 7 9 -15 25 -12 25 5 0 9 6 12 15 9 19 -8 20 25 2 50 -11
16 -9 22 15 48 15 17 28 36 28 44 0 14 8 16 73 16 20 0 35 4 31 9 -3 5 0 9 5
9 6 0 11 7 11 15 0 9 12 20 28 26 25 10 26 11 8 24 -21 16 -13 35 15 35 15 0
19 7 19 33 0 39 -13 62 -30 52 -8 -5 -10 9 -7 58 l5 65 -26 -14 c-32 -16 -52
-18 -52 -4 0 6 -11 8 -27 4 l-28 -7 19 22 c24 27 10 49 -22 32 -10 -6 -21 -9
-23 -7 -2 2 -16 6 -31 10 -21 5 -28 3 -28 -9 0 -18 -2 -18 -35 -3 -14 6 -25
19 -25 29 0 20 -28 39 -47 32 -7 -3 -13 1 -13 7 0 8 -10 10 -26 7 -21 -4 -25
-1 -21 14 4 15 1 18 -17 13 -13 -3 -31 2 -47 14 -21 17 -37 19 -119 16 -78 -4
-103 -1 -140 15 -60 26 -102 31 -180 21z m680 -428 c0 -13 -13 -24 -40 -35
-38 -15 -41 -14 -50 4 -7 12 -7 19 -1 19 6 0 8 7 5 15 -5 12 3 15 40 15 38 0
46 -3 46 -18z m-766 -73 c4 -23 16 -54 26 -69 24 -34 25 -50 4 -50 -19 0 -84
49 -84 63 0 19 32 97 40 97 4 0 10 -19 14 -41z m116 27 c0 -14 -34 -28 -44
-18 -9 8 14 32 30 32 8 0 14 -6 14 -14z m-340 -146 c0 -20 -25 -38 -37 -26 -5
5 24 46 34 46 1 0 3 -9 3 -20z m51 -32 c0 -10 2 -10 6 0 13 32 83 -4 83 -44 0
-14 -66 -26 -97 -18 -18 5 -23 13 -23 40 0 24 5 34 15 34 8 0 15 -6 16 -12z"/>
<path d="M4140 3390 c0 -5 5 -10 11 -10 5 0 7 5 4 10 -3 6 -8 10 -11 10 -2 0
-4 -4 -4 -10z"/>
<path d="M4110 3329 c0 -5 5 -7 10 -4 6 3 10 8 10 11 0 2 -4 4 -10 4 -5 0 -10
-5 -10 -11z"/>
<path d="M2120 2744 c-8 -3 -26 -20 -39 -39 -13 -19 -26 -34 -30 -34 -21 3
-49 -15 -44 -28 7 -18 55 -13 133 15 59 20 60 22 42 65 -11 26 -25 31 -62 21z"/>
<path d="M4400 2690 c0 -5 5 -10 11 -10 5 0 7 5 4 10 -3 6 -8 10 -11 10 -2 0
-4 -4 -4 -10z"/>
<path d="M3594 2635 c4 -11 -3 -20 -22 -28 -27 -11 -26 -11 18 -15 26 -2 50
-10 57 -19 11 -14 14 -13 32 8 11 13 20 26 20 29 1 9 -70 40 -90 40 -15 0 -19
-5 -15 -15z"/>
<path d="M3717 2633 c-10 -9 -9 -23 1 -23 5 0 17 7 28 15 19 14 19 14 -2 15
-11 0 -24 -3 -27 -7z"/>
<path d="M4398 2527 c-2 -12 -1 -33 2 -47 5 -22 7 -23 13 -7 10 26 9 65 -2 71
-5 3 -11 -4 -13 -17z"/>
<path d="M4375 2270 c-3 -5 1 -10 9 -10 9 0 16 5 16 10 0 6 -4 10 -9 10 -6 0
-13 -4 -16 -10z"/>
<path d="M4165 2205 c-3 -8 -7 -22 -10 -30 -5 -18 6 -19 24 -2 11 10 13 9 8
-5 -5 -15 38 -76 48 -67 2 3 5 24 8 49 3 33 0 48 -12 57 -22 17 -61 16 -66 -2z"/>
<path d="M4308 2175 c-23 -31 -23 -45 2 -45 25 0 34 19 23 47 -8 21 -8 21 -25
-2z"/>
<path d="M4100 2121 c0 -10 -7 -24 -15 -31 -8 -7 -15 -18 -14 -24 0 -6 3 -5 6
2 5 14 19 -4 44 -58 6 -14 14 -32 18 -40 5 -9 0 -20 -12 -31 -24 -19 -17 -52
8 -43 9 4 21 -1 29 -11 12 -16 13 -16 19 -1 4 9 13 16 22 16 10 0 15 9 15 28
0 32 -25 72 -46 72 -16 0 -19 16 -5 25 6 3 14 -3 20 -12 12 -22 21 -14 24 23
2 28 2 29 -51 26 l-52 -2 6 40 c4 27 3 40 -5 40 -6 0 -11 -8 -11 -19z"/>
<path d="M4151 2094 c0 -11 3 -14 6 -6 3 7 2 16 -1 19 -3 4 -6 -2 -5 -13z"/>
<path d="M3906 2054 c-8 -21 -3 -26 18 -18 9 4 15 11 13 17 -6 18 -24 19 -31
1z"/>
<path d="M3929 2003 c-6 -19 -8 -37 -5 -40 3 -4 6 0 6 7 0 12 28 39 42 40 4 0
2 -13 -3 -30 -6 -16 -15 -30 -20 -30 -5 0 -2 -14 6 -31 21 -39 38 -33 47 17 3
21 9 53 12 71 6 31 6 32 -34 31 -36 0 -40 -3 -51 -35z"/>
<path d="M4240 2024 c0 -8 5 -12 10 -9 6 4 8 11 5 16 -9 14 -15 11 -15 -7z"/>
<path d="M3105 2001 c-3 -5 -1 -12 5 -16 5 -3 10 1 10 9 0 18 -6 21 -15 7z"/>
<path d="M4048 1993 c6 -2 18 -2 25 0 6 3 1 5 -13 5 -14 0 -19 -2 -12 -5z"/>
<path d="M3140 1956 c0 -24 16 -27 35 -6 18 19 17 20 -8 20 -17 0 -27 -5 -27
-14z"/>
<path d="M3888 1963 c7 -3 16 -2 19 1 4 3 -2 6 -13 5 -11 0 -14 -3 -6 -6z"/>
<path d="M2163 1885 c-16 -25 -36 -45 -45 -45 -10 0 -18 -6 -18 -13 0 -7 -15
-28 -34 -47 -18 -19 -37 -46 -41 -60 -14 -47 -64 -125 -114 -177 -33 -33 -49
-58 -45 -67 3 -9 -4 -27 -15 -42 -27 -35 -28 -64 -1 -64 17 0 19 -3 10 -19
-14 -27 -13 -41 5 -41 12 0 14 9 10 44 -5 39 -3 45 16 51 51 16 127 107 190
225 13 25 34 60 46 79 13 18 28 52 34 75 6 22 22 61 35 85 28 50 29 61 10 61
-8 0 -27 -20 -43 -45z"/>
<path d="M3830 1785 c0 -8 5 -15 10 -15 6 0 10 7 10 15 0 8 -4 15 -10 15 -5 0
-10 -7 -10 -15z"/>
<path d="M3960 1710 c0 -5 7 -10 16 -10 8 0 12 5 9 10 -3 6 -10 10 -16 10 -5
0 -9 -4 -9 -10z"/>
<path d="M2273 1638 c-36 -18 -27 -36 39 -78 59 -38 108 -52 108 -29 0 25 -61
98 -91 108 -18 6 -32 11 -33 10 -1 0 -11 -5 -23 -11z"/>
<path d="M3833 1403 c-6 -21 -10 -39 -8 -41 8 -8 45 40 45 58 0 34 -24 22 -37
-17z"/>
<path d="M3778 1249 c-27 -15 -23 -38 5 -32 29 8 48 23 41 34 -7 12 -25 11
-46 -2z"/>
<path d="M1840 1218 c0 -12 1 -19 3 -17 1 2 9 12 16 22 12 14 11 17 -3 17 -10
0 -16 -8 -16 -22z"/>
<path d="M1430 1191 c0 -5 3 -17 6 -26 5 -13 8 -14 15 -3 13 20 11 38 -6 38
-8 0 -15 -4 -15 -9z"/>
<path d="M3810 1172 c0 -5 7 -15 15 -22 9 -7 14 -19 11 -26 -3 -7 -1 -16 5
-20 7 -4 9 8 7 32 -2 27 -8 40 -20 42 -10 2 -18 -1 -18 -6z"/>
<path d="M4762 6698 l3 -503 35 1 c62 1 494 35 518 40 21 4 22 9 22 95 0 70
-3 91 -15 95 -8 3 -89 0 -180 -8 -90 -7 -169 -12 -175 -10 -6 2 -10 62 -10
158 0 181 -18 163 165 167 l120 2 0 95 0 95 -130 0 c-71 0 -136 4 -142 8 -9 6
-13 45 -13 138 l0 129 -100 0 -100 0 2 -502z"/>
<path d="M5702 6728 l3 -473 65 -1 c36 -1 80 1 98 3 l32 5 0 469 0 469 -100 0
-100 0 2 -472z"/>
<path d="M6260 6742 c0 -343 3 -461 12 -470 7 -7 44 -12 94 -12 96 0 108 8 98
69 -4 22 -3 124 1 226 l7 185 139 0 139 0 0 100 0 100 -140 0 -140 0 0 130 0
130 -105 0 -105 0 0 -458z"/>
<path d="M6980 6738 c0 -255 4 -468 8 -474 8 -12 534 -40 552 -29 13 8 13 172
0 180 -6 4 -87 12 -180 18 l-170 11 0 378 0 378 -105 0 -105 0 0 -462z"/>
<path d="M7730 6711 c0 -284 4 -492 9 -495 5 -4 50 -9 100 -13 l91 -6 0 502 0
501 -100 0 -100 0 0 -489z"/>
<path d="M8210 7190 c0 -6 7 -27 16 -48 8 -20 43 -108 76 -195 l60 -158 -77
-177 c-42 -97 -88 -204 -102 -237 -15 -33 -37 -83 -49 -112 -39 -85 -39 -85
98 -98 37 -4 70 -10 72 -14 3 -4 -25 -38 -60 -76 -36 -39 -85 -96 -109 -127
-23 -32 -64 -82 -89 -111 -47 -56 -62 -84 -26 -52 16 14 20 15 20 4 0 -8 -4
-19 -9 -24 -5 -6 -24 -37 -42 -70 -17 -33 -39 -69 -48 -80 -39 -49 -227 -425
-252 -504 -10 -36 -23 -69 -28 -75 -5 -6 -12 -22 -16 -36 -4 -14 -41 -97 -82
-184 -41 -88 -77 -169 -79 -180 -8 -41 -40 -106 -54 -111 -8 -3 -25 -34 -38
-71 -13 -36 -34 -90 -48 -121 -14 -30 -23 -57 -21 -59 5 -5 61 94 86 151 7 17
22 48 34 70 12 22 28 55 36 73 8 17 19 32 23 32 11 0 10 -17 -2 -38 -17 -30
-80 -174 -80 -183 0 -5 -28 -66 -61 -135 -34 -69 -59 -128 -56 -131 9 -8 27 7
27 21 0 8 6 19 14 25 12 10 12 5 0 -31 -8 -24 -18 -52 -23 -63 -15 -35 -30
-79 -36 -112 -4 -18 -11 -33 -16 -33 -5 0 -9 -8 -9 -17 0 -10 -10 -38 -21 -63
-12 -28 -16 -46 -10 -48 6 -2 11 -10 11 -18 0 -7 -6 -11 -14 -8 -7 3 -28 -8
-45 -24 -31 -27 -32 -34 -38 -122 -5 -69 -3 -91 5 -86 7 4 12 32 12 63 0 63
30 140 55 140 12 0 14 -8 9 -36 -4 -20 -9 -40 -13 -46 -3 -5 -5 -34 -4 -62 1
-29 -3 -55 -8 -58 -12 -8 -12 -52 1 -60 13 -8 13 -45 1 -45 -5 0 -11 -33 -14
-72 -2 -40 -9 -91 -15 -113 -48 -172 -52 -287 -18 -455 30 -149 83 -306 114
-338 19 -21 16 18 -7 71 -11 25 -24 78 -30 118 -12 79 -11 224 0 211 14 -14
49 -114 44 -123 -4 -5 1 -9 9 -9 9 0 15 -10 14 -27 0 -16 5 -41 11 -56 6 -16
11 -40 11 -54 0 -13 9 -36 20 -50 22 -28 26 -59 9 -65 -6 -2 -13 -39 -15 -83
-4 -71 -9 -85 -36 -120 -26 -33 -27 -36 -7 -20 13 11 27 25 31 30 11 14 10
-40 -1 -67 -5 -13 -17 -48 -26 -78 -9 -30 -22 -68 -30 -85 -23 -47 -65 -160
-65 -173 0 -11 -5 -14 -40 -16 -11 -1 -14 -12 -12 -44 3 -41 0 -46 -70 -119
-78 -81 -164 -143 -198 -143 -11 0 -20 -5 -20 -10 0 -29 146 24 181 66 18 22
95 74 109 74 8 0 9 -7 5 -17 -4 -10 -9 -38 -11 -62 -3 -24 -7 -49 -11 -55 -4
-6 3 -3 14 7 27 24 34 11 20 -36 -11 -35 -37 -52 -37 -24 0 8 -3 7 -10 -3 -5
-8 -7 -25 -3 -38 4 -16 -5 -41 -29 -80 -19 -31 -41 -73 -48 -92 -8 -19 -24
-51 -35 -70 -12 -19 -25 -46 -30 -60 -4 -14 -21 -52 -39 -85 -17 -33 -40 -80
-51 -105 -10 -25 -29 -70 -43 -100 -62 -140 -93 -326 -95 -563 l-2 -189 -27
-20 c-36 -25 -38 -53 -4 -44 13 3 31 9 40 12 13 5 16 -1 16 -25 l0 -31 1033 0
1033 0 23 92 c26 99 30 190 10 214 -6 8 -9 18 -5 21 4 4 11 1 16 -7 7 -11 10
-4 10 23 0 23 4 36 10 32 6 -3 10 -15 10 -26 0 -11 6 -19 13 -18 31 3 56 -18
101 -88 27 -42 79 -113 115 -159 l66 -83 173 -1 173 0 -16 30 c-9 16 -20 30
-26 30 -14 0 -137 120 -154 150 -45 81 -65 136 -60 161 4 17 -1 38 -14 60 -12
19 -23 41 -26 49 -4 8 -13 28 -21 43 -7 16 -14 42 -14 58 0 16 -3 29 -7 29
-13 0 -91 128 -134 220 -74 156 -91 196 -99 241 -5 28 -13 55 -16 61 -5 7 -44
172 -44 184 0 1 10 4 22 7 20 6 21 7 3 33 -13 20 -14 28 -5 34 21 13 4 26 -93
76 -311 159 -493 372 -572 670 -26 97 -63 297 -80 427 -9 67 -29 176 -44 242
-50 213 -56 254 -56 425 0 155 8 314 20 369 8 43 24 49 47 19 18 -26 40 -38
37 -20 -1 4 -1 16 0 27 1 19 3 18 21 -5 11 -14 23 -42 26 -62 4 -22 11 -35 17
-31 5 3 15 -1 21 -9 55 -75 81 -97 137 -118 65 -25 83 -22 49 7 -66 55 -115
115 -139 168 -44 95 -53 123 -48 137 3 9 7 7 13 -7 4 -11 20 -40 36 -64 15
-25 28 -55 28 -68 0 -26 55 -86 73 -80 6 2 16 23 22 47 10 40 15 45 49 53 32
8 40 6 58 -12 27 -30 43 -21 42 23 -1 29 2 36 17 36 11 0 19 6 19 14 0 15 64
76 79 76 5 0 17 -25 27 -55 21 -70 68 -114 122 -117 105 -5 164 18 193 73 10
21 19 50 19 64 0 31 23 33 37 3 21 -43 21 -66 2 -84 -10 -9 -19 -21 -19 -26 0
-9 35 -10 68 -2 21 6 22 8 7 24 -22 25 -4 60 30 60 16 0 25 6 25 15 0 18 12
19 28 3 9 -9 12 -7 12 10 0 25 28 62 48 62 7 0 11 4 8 9 -3 5 1 11 9 15 22 8
19 19 -20 81 -48 75 -51 84 -26 84 12 1 30 1 41 2 25 0 16 19 -10 19 -20 0
-65 55 -65 80 0 8 -6 14 -12 12 -8 -1 -13 8 -13 21 0 13 -4 27 -10 33 -13 13
-13 72 -2 174 12 101 19 134 38 178 8 18 12 37 8 43 -3 6 3 24 15 39 13 18 17
31 10 35 -7 5 -7 11 0 19 6 7 8 29 4 51 -5 33 -4 37 10 32 14 -5 17 1 19 31 1
20 2 46 2 57 1 11 7 31 15 44 7 13 25 58 40 100 16 49 31 76 39 73 7 -2 12 7
13 25 1 27 1 27 11 -7 5 -19 16 -62 25 -95 8 -33 21 -72 29 -86 7 -14 16 -46
20 -70 4 -24 10 -48 14 -54 4 -5 13 -34 20 -63 6 -28 16 -55 21 -58 5 -3 9
-13 9 -23 0 -10 6 -24 14 -30 8 -7 24 -31 36 -54 28 -53 82 -134 112 -168 35
-39 142 -124 187 -150 49 -27 57 -44 31 -66 -11 -10 -20 -25 -20 -35 0 -9 -4
-20 -10 -23 -18 -11 -10 -37 21 -66 l30 -28 -40 -44 c-36 -39 -41 -50 -41 -93
0 -34 9 -69 30 -112 16 -34 27 -69 24 -77 -4 -9 0 -15 10 -15 9 0 16 -6 16
-14 0 -21 106 -126 128 -126 15 0 19 5 15 19 -3 11 2 21 13 25 16 6 16 7 -2
20 -15 12 -16 16 -5 29 9 12 10 21 2 36 -9 16 -7 23 11 35 12 9 28 16 35 16 7
0 13 4 13 9 0 11 -30 25 -50 22 -10 -1 -11 1 -4 6 6 4 19 25 29 46 19 40 68
82 85 72 5 -3 10 -15 10 -26 0 -28 33 -90 64 -118 43 -41 198 -41 216 -1 4 8
14 30 23 48 21 41 21 49 1 69 -23 23 -4 34 38 22 38 -10 82 -54 75 -73 -3 -7
21 -12 68 -12 40 -1 82 -7 95 -14 17 -9 25 -9 34 0 8 9 4 17 -17 36 -15 13
-34 24 -41 24 -7 0 -22 11 -34 25 -12 14 -30 25 -39 25 -21 1 -53 23 -53 37 0
6 -10 13 -22 17 -17 4 -20 8 -12 16 8 8 25 4 63 -16 28 -15 51 -31 51 -35 0
-4 22 -21 48 -38 52 -33 92 -40 92 -17 0 14 -79 86 -108 98 -10 4 -12 7 -7 8
6 0 -5 7 -23 15 -18 8 -36 24 -41 37 -4 13 -10 22 -12 20 -2 -2 -16 1 -31 7
-29 11 -38 30 -15 32 59 5 85 10 103 20 16 8 27 8 42 0 42 -22 162 -4 162 25
0 6 -9 23 -20 37 -19 23 -19 27 -4 35 21 12 80 -8 98 -33 7 -10 18 -15 25 -11
8 5 16 -3 24 -23 7 -19 18 -31 30 -31 11 0 21 -9 24 -21 3 -12 11 -18 19 -15
8 3 18 -3 24 -14 13 -24 22 -190 11 -190 -31 0 -7 -130 39 -214 17 -31 37 -86
45 -123 19 -87 18 -265 0 -368 -8 -44 -17 -143 -20 -220 -14 -339 -38 -516
-86 -648 -17 -45 -39 -105 -49 -134 -60 -168 -242 -343 -541 -522 -46 -27
-109 -70 -139 -95 -30 -25 -90 -74 -132 -108 -112 -93 -268 -166 -327 -154
-26 6 -194 18 -221 17 -8 -1 -24 -1 -35 -1 -11 -1 -40 -8 -65 -18 -31 -12 -74
-17 -137 -17 -50 0 -85 -3 -78 -8 27 -15 161 -26 248 -20 83 5 90 4 114 -18
32 -30 65 -100 53 -114 -5 -6 -14 -23 -19 -38 l-11 -28 53 2 c51 3 96 -14 98
-36 0 -5 2 -51 4 -101 2 -51 8 -101 14 -112 7 -14 8 -23 1 -27 -5 -3 -10 -3
-10 2 0 4 -7 -3 -16 -16 -12 -17 -14 -25 -5 -30 9 -6 8 -11 -4 -21 -19 -16
-20 -34 -1 -27 8 3 17 3 20 0 9 -10 -25 -43 -44 -43 -18 0 -48 -46 -36 -57 4
-4 21 -1 39 6 18 8 43 13 57 13 14 0 30 4 35 8 6 5 24 14 39 20 27 10 28 9 15
-7 -8 -10 -30 -33 -49 -52 -32 -30 -33 -33 -10 -25 14 4 35 7 48 6 12 -1 25 5
28 13 4 8 13 15 21 15 8 0 11 -4 8 -10 -8 -13 8 -13 42 2 36 16 41 24 35 54
-3 15 -11 24 -23 24 -11 0 -19 4 -19 9 0 25 146 99 162 83 12 -12 48 -4 48 11
0 6 2 8 5 5 12 -12 -15 -58 -35 -58 -20 0 -43 -28 -55 -70 -7 -23 -7 -24 16
-9 34 23 99 34 99 17 -1 -17 -35 -58 -49 -58 -7 0 -14 -7 -17 -15 -4 -8 -15
-15 -25 -15 -15 0 -19 -7 -19 -37 0 -34 1 -35 18 -20 19 18 32 14 32 -9 0 -8
-11 -16 -25 -20 -21 -5 -25 -12 -25 -44 0 -22 -4 -42 -10 -45 -15 -9 -12 -41
4 -54 11 -9 29 7 92 84 44 52 106 131 139 174 70 91 125 155 129 150 2 -2 8
-26 15 -52 9 -38 9 -52 0 -63 -14 -17 -43 -66 -67 -114 -9 -19 -23 -39 -29
-43 -7 -4 -13 -12 -13 -18 0 -11 -41 -72 -52 -77 -5 -2 -8 -9 -8 -15 0 -7 -9
-18 -20 -25 -11 -7 -20 -18 -20 -26 0 -7 -7 -19 -15 -26 -8 -7 -15 -21 -15
-31 0 -11 -4 -19 -10 -19 -5 0 -10 -7 -10 -16 0 -9 -9 -27 -20 -41 -11 -14
-20 -30 -20 -34 0 -5 526 -9 1189 -9 1044 0 1190 2 1201 15 10 12 10 18 -1 32
-12 15 -12 16 3 10 16 -6 17 8 18 184 0 158 -3 191 -15 195 -8 4 -15 13 -15
21 0 22 -32 77 -75 127 -32 38 -38 72 -36 211 2 84 22 35 58 -137 3 -15 9 -25
14 -22 13 8 11 84 -2 84 -7 0 -9 10 -5 24 3 14 0 44 -8 68 -8 24 -17 63 -21
88 -7 50 -16 79 -53 160 -13 30 -26 71 -29 90 -3 19 -16 46 -28 60 -20 21 -68
109 -89 160 -4 8 -19 35 -36 60 -51 80 -77 127 -84 155 -11 45 -16 428 -6 489
5 32 16 71 25 88 17 36 20 98 4 148 -9 32 -27 131 -34 190 -2 14 -11 46 -21
72 -10 26 -15 51 -10 55 4 4 26 -13 49 -38 121 -134 156 -167 235 -222 51 -37
82 -46 82 -27 0 6 -3 10 -8 10 -4 0 -31 21 -60 46 -36 31 -52 53 -52 70 0 13
-4 24 -10 24 -5 0 -7 -7 -4 -15 4 -8 1 -15 -5 -15 -6 0 -11 3 -11 8 0 4 -16
16 -35 26 -19 10 -37 27 -40 37 -4 10 -25 42 -48 71 -24 29 -50 64 -60 78 -9
14 -30 43 -46 65 -58 77 -87 145 -62 145 23 0 211 -206 264 -287 27 -43 47
-55 47 -30 0 18 -51 85 -70 92 -8 3 -44 49 -80 102 -36 52 -82 114 -102 136
-44 48 -78 115 -78 156 0 16 -5 42 -11 58 -6 15 -15 43 -19 61 -10 41 9 39 29
-4 8 -16 19 -32 26 -36 16 -9 127 -198 153 -259 21 -48 37 -66 46 -51 3 5 -35
89 -84 188 -49 98 -90 189 -90 201 0 12 -4 25 -10 28 -5 3 -10 14 -10 23 0 9
-7 31 -16 47 -55 100 -56 103 -43 163 6 31 10 99 9 152 -3 128 -3 185 1 315 2
102 0 115 -25 175 -29 68 -105 190 -118 190 -4 0 -27 21 -52 48 -32 32 -46 56
-46 75 0 16 -5 37 -11 48 -5 11 -11 34 -13 52 -3 39 -17 90 -26 97 -3 3 -16
22 -29 43 -19 31 -20 37 -7 37 18 0 21 15 6 25 -5 3 -10 22 -10 41 0 19 -6 50
-14 69 -8 18 -12 36 -9 39 3 3 -2 21 -11 40 -9 19 -16 40 -16 47 0 10 -3 10
-12 1 -8 -8 -8 -15 1 -26 7 -9 11 -21 9 -28 -8 -23 -42 43 -42 82 -1 21 -9 46
-18 56 -21 24 -58 110 -58 136 0 10 -13 38 -29 61 -46 69 -131 223 -131 241 0
9 -4 16 -10 16 -5 0 -10 5 -10 11 0 10 -10 24 -113 163 -26 35 -52 79 -58 97
-9 32 -207 245 -329 355 -122 109 -411 290 -497 310 -15 4 -73 21 -128 40 -55
18 -121 36 -147 39 -26 3 -50 10 -53 16 -4 5 -17 9 -31 9 -13 0 -24 4 -24 9 0
16 -130 34 -205 28 -68 -6 -73 -5 -78 14 -4 16 -9 19 -24 11 -12 -7 -25 -7
-37 0 -10 6 -38 8 -62 5 -25 -2 -47 -1 -49 4 -3 4 16 20 41 35 26 16 42 30 36
32 -10 3 -94 -31 -144 -58 -11 -6 -19 -6 -23 0 -3 6 -1 10 4 10 6 0 11 5 11
10 0 23 -33 8 -43 -19 -9 -24 -16 -30 -39 -28 -15 1 -28 8 -28 15 0 16 -8 15
-27 -4 -13 -12 -13 -18 -4 -24 19 -11 -4 -23 -28 -15 -12 3 -22 19 -26 38 -7
38 -25 77 -35 77 -4 0 -5 -21 -2 -47 5 -43 3 -47 -10 -35 -20 16 -30 65 -15
74 8 5 6 8 -4 8 -9 0 -19 7 -23 15 -6 15 -36 21 -36 7 0 -4 6 -14 13 -22 6 -8
0 -4 -14 8 -20 18 -28 20 -32 10 -4 -9 -6 -7 -6 5 -1 12 -9 17 -30 17 -35 0
-51 -27 -19 -32 38 -5 33 -28 -6 -28 -24 0 -36 5 -36 14 0 17 -27 29 -35 16
-4 -6 -40 -10 -80 -9 -83 1 -149 -23 -184 -67 -10 -13 -26 -24 -34 -24 -8 0
-28 -7 -43 -15 -27 -14 -27 -15 -6 -15 36 0 26 -14 -40 -53 l-63 -37 -6 23
c-3 13 -30 82 -58 154 l-52 131 47 109 c25 59 56 128 67 153 40 89 57 132 57
141 0 5 -48 9 -108 9 l-107 0 -24 -60 c-12 -34 -28 -59 -34 -57 -7 2 -21 28
-32 58 l-21 54 -107 3 c-71 2 -107 -1 -107 -8z m827 -576 c-3 -3 -12 -4 -19
-1 -8 3 -5 6 6 6 11 1 17 -2 13 -5z m502 -40 c-10 -12 -14 -12 -20 -2 -4 7 -3
16 4 20 18 11 29 -2 16 -18z m-1040 -130 c28 -74 27 -97 -4 -114 -14 -8 -58
-52 -98 -98 -46 -54 -73 -78 -75 -68 -5 22 130 336 144 336 6 0 21 -25 33 -56z
m-503 -1241 c-8 -15 -15 -25 -16 -21 0 12 23 58 27 54 3 -2 -2 -17 -11 -33z
m-119 -250 c-3 -10 -5 -4 -5 12 0 17 2 24 5 18 2 -7 2 -21 0 -30z m767 -25
c-8 -23 -13 -69 -12 -102 1 -34 -2 -90 -6 -125 -6 -44 -5 -62 2 -57 6 4 16 -2
21 -13 14 -26 14 -31 -4 -31 -17 0 -21 -26 -4 -32 7 -2 7 -13 -1 -33 -7 -17
-12 -83 -12 -155 0 -71 -4 -127 -9 -131 -6 -3 -17 -39 -26 -80 -16 -80 -26
-94 -55 -76 -12 8 -18 24 -18 51 0 22 -4 36 -8 31 -12 -14 -33 -91 -29 -106 2
-8 2 -11 -1 -6 -2 4 -26 -12 -52 -36 -60 -54 -112 -81 -121 -64 -4 7 -1 53 7
102 8 50 19 126 24 170 12 86 36 184 55 225 15 31 34 86 44 126 5 16 15 41 24
55 8 13 18 40 20 59 3 19 15 59 27 88 11 30 26 77 32 105 6 29 17 61 25 72 13
18 14 13 10 -45 -3 -36 -8 -81 -11 -100 l-6 -35 15 30 c8 17 14 41 15 53 0 13
6 38 14 55 8 18 17 40 20 51 5 14 9 16 20 6 13 -10 13 -17 0 -52z m2303 -60
c-3 -8 -6 -5 -6 6 -1 11 2 17 5 13 3 -3 4 -12 1 -19z m-1402 -50 c9 -47 1 -48
-21 -3 -17 36 -12 86 6 55 4 -8 11 -32 15 -52z m1144 -62 c-5 -6 -9 7 -8 35
l1 44 8 -35 c5 -20 5 -39 -1 -44z m-1109 -38 c0 -4 -7 -8 -16 -8 -8 0 -13 4
-9 9 3 5 1 12 -5 16 -6 4 -7 11 -4 17 7 11 34 -16 34 -34z m1101 -21 c-8 -8
-11 -7 -11 4 0 20 13 34 18 19 3 -7 -1 -17 -7 -23z m-3121 -46 c0 -5 -7 -12
-16 -15 -24 -9 -28 -7 -14 9 14 17 30 20 30 6z m3260 -18 c0 -29 -15 -61 -24
-52 -6 6 12 79 19 79 3 0 5 -12 5 -27z m-1107 -67 c9 -13 19 -37 23 -52 4 -16
11 -34 16 -41 6 -7 8 -17 6 -23 -2 -6 -20 23 -41 65 -35 71 -37 103 -4 51z
m-2202 -53 c-12 -20 -14 -14 -5 12 4 9 9 14 11 11 3 -2 0 -13 -6 -23z m1184 7
c3 -11 4 -24 1 -29 -4 -5 -1 -32 5 -59 9 -43 8 -55 -7 -77 -13 -20 -16 -40
-11 -90 2 -36 1 -67 -3 -70 -17 -11 -30 63 -30 168 0 133 25 220 45 157z
m-1222 -106 c-11 -26 -18 -34 -20 -22 -4 16 26 73 33 65 3 -2 -3 -21 -13 -43z
m1254 14 c-3 -8 -6 -5 -6 6 -1 11 2 17 5 13 3 -3 4 -12 1 -19z m12 -100 c1
-15 -3 -30 -9 -33 -5 -3 -10 -18 -11 -33 0 -15 -3 -21 -6 -14 -3 8 -2 44 2 80
6 49 10 62 16 47 4 -11 8 -32 8 -47z m32 -75 c0 -67 -18 -116 -20 -52 0 19 -1
43 -3 54 -1 11 -1 38 1 60 3 67 22 15 22 -62z m-1292 31 c-6 -21 -24 -65 -40
-96 -16 -32 -29 -62 -29 -69 0 -18 -38 -61 -45 -50 -5 9 86 219 108 249 16 20
17 9 6 -34z m1171 -63 c0 -11 -4 -22 -9 -25 -11 -7 -23 22 -15 35 9 16 24 10
24 -10z m89 -63 c1 -16 -3 -28 -9 -28 -5 0 -10 21 -9 48 0 35 3 42 9 27 5 -11
9 -32 9 -47z m77 45 c3 -10 10 -28 16 -39 10 -21 -3 -64 -19 -64 -13 0 -32 36
-33 62 0 51 24 79 36 41z m-186 -52 c0 -6 -4 -13 -10 -16 -5 -3 -10 1 -10 9 0
9 5 16 10 16 6 0 10 -4 10 -9z m34 -7 c3 -8 2 -12 -4 -9 -6 3 -10 10 -10 16 0
14 7 11 14 -7z m2366 -19 c0 -14 -3 -25 -8 -25 -11 0 -32 37 -25 44 15 15 33
4 33 -19z m-3650 -96 c-7 -11 -14 -18 -17 -15 -8 8 5 36 17 36 7 0 7 -6 0 -21z
m2990 -57 c0 -14 -177 -64 -192 -55 -5 2 -8 11 -8 19 0 11 6 13 19 9 11 -3 22
-1 26 5 4 6 17 15 29 20 27 11 126 13 126 2z m-2719 -63 c-6 -24 -9 -28 -10
-12 -1 24 9 56 16 50 2 -3 0 -20 -6 -38z m1059 -10 c0 -17 -29 -9 -40 11 -17
32 0 47 22 21 10 -13 18 -27 18 -32z m-92 28 c22 -26 24 -64 6 -86 -10 -12
-23 -21 -29 -21 -6 0 -25 -13 -43 -30 -18 -16 -37 -30 -43 -30 -5 0 -9 -4 -9
-8 0 -5 -13 -29 -29 -53 -33 -48 -33 -56 -1 -39 29 16 37 5 15 -20 -21 -24
-41 -26 -49 -5 -3 8 -12 15 -19 15 -34 0 -97 98 -97 151 0 58 74 108 174 116
34 3 68 9 76 14 21 12 36 11 48 -4z m1730 -25 c17 -11 -111 -62 -138 -55 -13
4 -20 0 -20 -10 0 -14 -20 -27 -41 -27 -13 0 -11 12 6 34 8 11 45 30 82 42 75
25 92 28 111 16z m-225 -90 c-6 -24 -23 -30 -23 -9 0 13 21 39 26 34 2 -2 1
-13 -3 -25z m241 -7 c9 -25 -4 -45 -30 -45 -24 0 -30 14 -18 44 8 20 40 21 48
1z m-283 -38 c-10 -9 -11 -8 -5 6 3 10 9 15 12 12 3 -3 0 -11 -7 -18z m-1203
-44 c-2 -22 -9 -29 -30 -31 -22 -3 -28 1 -28 17 0 20 24 40 48 41 9 0 12 -10
10 -27z m2985 -185 c12 -17 17 -39 15 -60 l-4 -33 -22 45 c-12 25 -21 59 -21
75 0 19 3 24 7 15 4 -8 15 -27 25 -42z m188 -201 c-8 -8 -11 -5 -11 9 0 27 14
41 18 19 2 -9 -1 -22 -7 -28z m66 -329 c-3 -7 -5 -2 -5 12 0 14 2 19 5 13 2
-7 2 -19 0 -25z m2 -60 c-1 -7 -5 -24 -9 -38 -7 -22 -8 -21 -9 13 -1 20 4 37
9 37 6 0 10 -6 9 -12z m-132 -120 c-3 -8 -6 -5 -6 6 -1 11 2 17 5 13 3 -3 4
-12 1 -19z m-3979 -85 c-1 -62 -2 -64 -7 -23 -3 25 -4 55 -2 68 7 42 11 22 9
-45z m3463 -464 c-6 -16 -10 -18 -10 -7 -1 22 12 55 16 42 2 -6 -1 -22 -6 -35z
m-21 -134 l-20 -70 5 57 c5 60 26 124 31 98 2 -8 -5 -46 -16 -85z m-149 -372
c13 -15 12 -15 -8 -4 -24 12 -29 21 -14 21 5 0 15 -7 22 -17z m1102 -333 c24
-28 87 -150 87 -168 0 -5 9 -17 20 -27 11 -10 20 -24 20 -31 0 -7 11 -26 25
-42 14 -17 25 -41 25 -55 0 -13 6 -30 14 -36 27 -22 41 -103 40 -226 -1 -66
-5 -135 -9 -153 l-7 -32 -40 37 c-22 21 -53 58 -70 83 -17 25 -42 54 -54 65
-32 27 -89 139 -102 200 -13 63 -23 185 -15 185 10 0 43 -32 43 -42 0 -5 27
-50 60 -100 33 -49 60 -97 60 -105 0 -8 13 -27 29 -42 22 -21 29 -36 29 -64 0
-21 7 -48 16 -62 9 -13 16 -31 16 -40 0 -8 4 -15 9 -15 14 0 5 188 -9 205 -7
8 -16 12 -21 10 -8 -5 -27 24 -87 138 -34 62 -34 69 -2 35 15 -17 23 -19 32
-10 9 9 8 16 -5 30 -9 10 -26 48 -37 84 -11 36 -27 71 -35 78 -13 11 -75 114
-75 125 0 14 21 2 43 -25z m-163 -76 c0 -8 -4 -12 -10 -9 -5 3 -10 13 -10 21
0 8 5 12 10 9 6 -3 10 -13 10 -21z m30 -48 c0 -11 -19 -15 -25 -6 -3 5 1 10 9
10 9 0 16 -2 16 -4z m-42 -51 c-3 -3 -9 2 -12 12 -6 14 -5 15 5 6 7 -7 10 -15
7 -18z m-5057 -69 c6 -39 -14 -198 -32 -253 -6 -18 -17 -33 -24 -33 -20 0 -28
-36 -20 -96 4 -36 3 -54 -4 -54 -6 0 -11 -6 -11 -14 0 -8 -6 -16 -12 -19 -10
-3 -10 -7 0 -19 9 -11 10 -32 4 -77 -9 -60 -11 -64 -78 -125 -55 -51 -70 -60
-72 -45 -2 10 2 28 8 39 11 20 10 21 -9 15 -17 -5 -21 -2 -21 14 0 12 9 30 20
41 11 11 20 26 19 33 0 10 -2 10 -6 0 -10 -27 -20 -11 -19 31 1 26 8 52 19 63
21 24 22 33 2 33 -17 0 -14 38 8 135 6 28 10 54 9 59 -6 19 23 84 56 126 19
25 32 36 28 25 -5 -11 -10 -38 -13 -60 -4 -39 -4 -38 22 20 14 33 27 65 28 70
6 27 31 75 39 75 5 0 14 14 20 30 13 40 31 33 39 -14z m5094 35 c3 -5 1 -12
-5 -16 -5 -3 -10 1 -10 9 0 18 6 21 15 7z m-368 -113 c-3 -8 -6 -5 -6 6 -1 11
2 17 5 13 3 -3 4 -12 1 -19z m-235 -58 c5 -35 -7 -41 -16 -7 -8 32 -7 49 3 43
5 -3 11 -19 13 -36z m431 3 c4 -19 2 -33 -3 -33 -6 0 -10 17 -10 37 0 43 5 41
13 -4z m1 -99 c4 -15 4 -29 1 -33 -8 -7 -35 28 -35 46 0 24 28 13 34 -13z m91
-53 c3 -5 1 -12 -5 -16 -5 -3 -10 1 -10 9 0 18 6 21 15 7z m-85 -21 c0 -5 -5
-10 -11 -10 -5 0 -7 5 -4 10 3 6 8 10 11 10 2 0 4 -4 4 -10z m-5212 -105 c-8
-45 -19 -166 -20 -222 0 -13 -3 -23 -7 -23 -5 0 -8 -26 -8 -57 1 -74 -20 -170
-38 -177 -39 -15 -22 258 26 407 10 33 19 65 19 71 0 13 30 59 35 54 2 -2 -1
-25 -7 -53z m3916 -13 c-4 -18 -13 -32 -21 -32 -8 0 -13 3 -11 8 33 69 42 76
32 24z m1194 13 c14 -31 15 -35 3 -35 -5 0 -14 14 -20 30 -12 36 1 40 17 5z
m198 -30 c-3 -11 -6 -25 -6 -32 0 -7 -7 -10 -15 -7 -16 6 -22 74 -8 88 12 12
34 -27 29 -49z m-1870 -40 c-3 -9 -11 -13 -16 -10 -8 5 -7 11 1 21 14 18 24
11 15 -11z m1702 -16 c-3 -8 -7 -3 -11 10 -4 17 -3 21 5 13 5 -5 8 -16 6 -23z
m-1264 5 c3 -8 2 -12 -4 -9 -6 3 -10 10 -10 16 0 14 7 11 14 -7z m1096 -25 c0
-6 -4 -7 -10 -4 -5 3 -10 11 -10 16 0 6 5 7 10 4 6 -3 10 -11 10 -16z m41 -96
c18 -56 18 -76 0 -57 -14 15 -50 121 -44 128 12 11 26 -13 44 -71z m421 60
c20 -10 45 -30 57 -44 21 -27 45 -138 32 -152 -9 -9 -56 7 -66 22 -3 6 -15 11
-25 11 -27 0 -39 27 -40 91 -1 62 0 89 4 89 1 0 19 -8 38 -17z m-362 -202 c0
-14 3 -44 6 -66 4 -30 3 -36 -5 -25 -6 8 -11 29 -11 45 0 17 -7 41 -15 55 -8
14 -14 34 -14 45 0 19 1 19 19 -4 11 -13 20 -35 20 -50z m-1760 49 c0 -5 -7
-10 -16 -10 -8 0 -12 5 -9 10 3 6 10 10 16 10 5 0 9 -4 9 -10z m2306 -15 c9
-14 20 -25 25 -25 24 0 129 -143 115 -157 -9 -9 -156 71 -160 87 -3 8 -8 39
-11 68 -8 58 4 68 31 27z m-5466 -24 c0 -6 -5 -13 -11 -17 -8 -4 -8 -9 0 -17
19 -19 12 -48 -17 -75 -15 -15 -35 -38 -43 -52 -9 -14 -30 -30 -48 -37 -29
-11 -31 -10 -31 13 0 42 26 88 63 114 20 14 37 28 37 33 0 9 33 45 43 46 4 1
7 -3 7 -8z m5310 -63 c0 -4 -7 -8 -15 -8 -16 0 -38 34 -28 44 7 7 43 -23 43
-36z m-50 -34 c0 -8 -4 -12 -10 -9 -5 3 -10 10 -10 16 0 5 5 9 10 9 6 0 10 -7
10 -16z m-4807 -14 c-3 -11 -7 -20 -9 -20 -2 0 -4 9 -4 20 0 11 4 20 9 20 5 0
7 -9 4 -20z m4881 -16 c4 -9 4 -19 2 -21 -8 -8 -26 8 -26 23 0 19 16 18 24 -2z
m184 -30 c28 -14 52 -34 55 -44 3 -10 18 -21 36 -25 40 -8 61 -46 43 -75 -7
-12 -8 -21 -2 -25 16 -10 12 -45 -5 -45 -8 0 -15 5 -15 11 0 7 -9 9 -21 6 -12
-3 -22 0 -26 9 -3 8 -11 14 -19 14 -8 0 -14 10 -14 21 0 19 -4 21 -30 16 -38
-8 -38 -2 0 18 32 17 32 35 0 35 -10 0 -23 8 -29 17 -8 15 -10 14 -17 -11 -5
-20 -9 -24 -15 -14 -12 18 -11 118 0 118 5 0 32 -12 59 -26z m-5124 -63 c-9
-18 -18 -30 -21 -27 -3 2 3 18 13 35 23 39 29 34 8 -8z"/>
<path d="M8576 4305 c-3 -8 -1 -15 4 -15 6 0 10 7 10 15 0 8 -2 15 -4 15 -2 0
-6 -7 -10 -15z"/>
<path d="M12557 1114 c-4 -4 -7 -19 -6 -33 l0 -26 10 24 c10 26 8 47 -4 35z"/>
<path d="M7140 1124 c0 -8 5 -12 10 -9 6 4 8 11 5 16 -9 14 -15 11 -15 -7z"/>
<path d="M12610 165 c0 -8 7 -15 15 -15 8 0 15 7 15 15 0 8 -7 15 -15 15 -8 0
-15 -7 -15 -15z"/>
<path d="M9540 6659 c0 -5 5 -7 10 -4 6 3 10 8 10 11 0 2 -4 4 -10 4 -5 0 -10
-5 -10 -11z"/>
<path d="M3130 6495 c14 -16 40 -20 40 -6 0 9 -24 21 -42 21 -6 0 -6 -6 2 -15z"/>
<path d="M3842 6420 c0 -14 2 -19 5 -12 2 6 2 18 0 25 -3 6 -5 1 -5 -13z"/>
<path d="M7257 4114 c-4 -4 -7 -19 -6 -33 l0 -26 10 24 c10 26 8 47 -4 35z"/>
<path d="M7221 4004 c0 -11 3 -14 6 -6 3 7 2 16 -1 19 -3 4 -6 -2 -5 -13z"/>
<path d="M10640 3689 c0 -5 5 -7 10 -4 6 3 10 8 10 11 0 2 -4 4 -10 4 -5 0
-10 -5 -10 -11z"/>
<path d="M10620 3650 c0 -5 5 -10 11 -10 5 0 7 5 4 10 -3 6 -8 10 -11 10 -2 0
-4 -4 -4 -10z"/>
<path d="M10540 3619 c-30 -10 -63 -19 -72 -19 -10 0 -18 -4 -18 -9 0 -13 28
-22 35 -11 3 5 12 7 20 3 16 -5 66 11 98 33 32 21 -4 23 -63 3z"/>
<path d="M10390 3590 c0 -5 7 -10 16 -10 8 0 12 5 9 10 -3 6 -10 10 -16 10 -5
0 -9 -4 -9 -10z"/>
<path d="M7141 3482 c-14 -26 -14 -42 -1 -42 11 0 25 48 17 56 -3 3 -10 -3
-16 -14z"/>
<path d="M10130 3004 c-12 -13 -12 -27 -1 -82 27 -138 26 -155 -10 -196 -32
-37 -106 -82 -117 -72 -3 3 7 17 21 30 32 29 33 37 9 66 -40 49 -149 29 -202
-37 l-22 -28 46 -10 c25 -5 51 -16 58 -22 6 -7 22 -13 35 -13 14 0 23 -6 23
-16 0 -12 7 -15 28 -11 15 4 50 11 77 17 28 5 75 14 105 19 82 14 109 30 120
72 11 40 0 84 -40 154 -13 22 -30 53 -39 69 -9 16 -30 40 -47 53 -28 21 -32
22 -44 7z"/>
<path d="M12485 2733 c12 -36 35 -57 35 -33 0 17 -29 70 -39 70 -5 0 -3 -17 4
-37z"/>
<path d="M9362 2731 c-51 -9 -66 -22 -57 -50 8 -25 32 -27 82 -6 19 8 55 15
79 15 23 0 45 4 49 9 15 25 -81 44 -153 32z"/>
<path d="M9655 2676 c-19 -14 -19 -15 8 -27 32 -14 41 -9 32 20 -8 25 -15 26
-40 7z"/>
<path d="M9710 2614 l-35 -14 39 5 c22 2 44 9 50 15 14 14 -11 12 -54 -6z"/>
<path d="M9713 2185 c-16 -33 -19 -35 -52 -29 -20 4 -38 8 -40 10 -1 1 -14 -2
-28 -7 -14 -5 -43 -10 -65 -11 -22 -1 -42 -7 -45 -14 -9 -25 -62 -35 -100 -19
-40 17 -113 20 -113 5 0 -16 -58 -41 -117 -50 -62 -10 -111 -36 -96 -51 6 -6
20 -6 37 1 15 5 43 10 61 10 19 0 72 11 118 24 71 21 112 25 292 30 116 4 257
11 315 17 176 17 268 22 287 14 30 -13 55 -15 126 -9 67 6 68 7 65 33 -3 25
-5 26 -68 26 -36 0 -85 4 -110 9 -58 11 -167 18 -230 13 -8 0 -32 3 -52 7 -31
5 -41 3 -55 -13 -19 -22 -33 -19 -33 8 0 18 -26 31 -63 31 -10 0 -24 -14 -34
-35z"/>
<path d="M9747 1859 c-9 -6 -15 -14 -12 -20 10 -16 52 -10 76 11 l24 19 -35 0
c-19 0 -43 -4 -53 -10z"/>
<path d="M9645 1851 c-36 -7 -39 -23 -7 -28 28 -4 65 14 57 28 -4 5 -9 8 -13
8 -4 -1 -20 -4 -37 -8z"/>
<path d="M7100 1584 c0 -8 5 -12 10 -9 6 3 10 10 10 16 0 5 -4 9 -10 9 -5 0
-10 -7 -10 -16z"/>
<path d="M7072 1415 c-7 -15 -11 -30 -8 -32 7 -7 28 36 24 49 -2 6 -9 -2 -16
-17z"/>
<path d="M10260 514 c0 -31 23 -28 28 4 2 15 -2 22 -12 22 -11 0 -16 -9 -16
-26z"/>
<path d="M8911 304 c0 -11 3 -14 6 -6 3 7 2 16 -1 19 -3 4 -6 -2 -5 -13z"/>
<path d="M8884 145 c-8 -19 3 -65 15 -65 4 0 8 18 8 40 0 40 -12 53 -23 25z"/>
<path d="M440 68 c-14 -6 -36 -15 -49 -20 -19 -7 -22 -11 -11 -18 7 -4 20 -4
29 0 27 15 85 38 106 43 11 3 4 5 -15 5 -19 0 -46 -4 -60 -10z"/>
<path d="M4797 56 c-16 -12 -16 -17 -5 -35 11 -18 23 -21 85 -21 93 0 97 16
13 48 -56 22 -74 23 -93 8z"/>
<path d="M8878 64 c-11 -18 -18 -64 -11 -64 15 0 30 35 23 54 -3 11 -9 15 -12
10z"/>
<path d="M300 27 c-25 -13 -168 -15 -216 -3 -13 4 -27 0 -34 -9 -11 -13 7 -15
150 -15 148 0 161 1 158 17 -4 23 -27 27 -58 10z"/>
<path d="M6633 33 c-7 -2 -13 -9 -13 -15 0 -14 43 -6 48 10 4 12 -12 15 -35 5z"/>
<path d="M1560 10 c0 -5 16 -10 36 -10 21 0 33 4 29 10 -3 6 -19 10 -36 10
-16 0 -29 -4 -29 -10z"/>
</g>
</svg>
