<?xml version="1.0" standalone="no"?>
<!DOCTYPE svg PUBLIC "-//W3C//DTD SVG 20010904//EN"
 "http://www.w3.org/TR/2001/REC-SVG-20010904/DTD/svg10.dtd">
<svg version="1.0" xmlns="http://www.w3.org/2000/svg"
 width="1280.000000pt" height="720.000000pt" viewBox="0 0 1280.000000 720.000000"
 preserveAspectRatio="xMidYMid meet">
<metadata>
Created by potrace 1.16, written by Peter Selinger 2001-2019
</metadata>
<g transform="translate(0.000000,720.000000) scale(0.100000,-0.100000)"
fill="#000000" stroke="none">
<path d="M0 3600 l0 -3600 6400 0 6400 0 0 1045 c0 1009 -1 1045 -18 1045 -11
0 -27 9 -37 20 -9 10 -20 18 -24 18 -11 -3 -71 32 -71 42 0 6 -8 10 -18 10
-10 0 -27 7 -38 15 -10 8 -27 15 -36 15 -10 0 -23 9 -30 20 -7 11 -21 20 -30
20 -10 0 -18 5 -18 10 0 6 -8 10 -17 10 -9 0 -24 6 -32 14 -9 8 -43 29 -76 46
-33 18 -72 43 -86 56 -14 14 -28 22 -31 19 -3 -3 -22 30 -43 72 -21 43 -42 81
-47 84 -5 3 -8 37 -6 75 l3 69 28 -56 c36 -75 157 -193 293 -286 58 -40 107
-73 110 -73 4 0 86 -57 152 -107 75 -57 72 -66 72 232 l0 265 -23 -5 c-23 -6
-57 18 -44 31 3 4 0 13 -8 21 -22 21 -30 64 -15 73 7 4 9 13 6 19 -12 18 3 51
20 44 9 -3 26 0 40 7 l24 13 0 2159 0 2158 -6400 0 -6400 0 0 -3600z m9990
3426 c0 -3 -4 -8 -10 -11 -5 -3 -10 -1 -10 4 0 6 5 11 10 11 6 0 10 -2 10 -4z
m27 -30 c-6 -8 -15 -12 -19 -9 -4 2 -2 10 5 17 6 8 15 12 19 9 4 -2 2 -10 -5
-17z m-84 -25 c3 -14 1 -18 -10 -14 -13 5 -13 2 -4 -16 12 -22 6 -45 -10 -36
-7 5 -7 29 0 78 2 15 19 6 24 -12z m29 -3 c-7 -7 -12 -8 -12 -2 0 14 12 26 19
19 2 -3 -1 -11 -7 -17z m-78 -22 c-6 -15 -24 -23 -24 -11 0 8 24 34 28 30 1
-1 0 -10 -4 -19z m-24 -26 c0 -5 -7 -10 -15 -10 -8 0 -15 5 -15 10 0 6 7 10
15 10 8 0 15 -4 15 -10z m137 4 c-3 -3 -12 -4 -19 -1 -8 3 -5 6 6 6 11 1 17
-2 13 -5z m-101 -19 c17 -17 34 -20 34 -6 0 5 7 12 16 15 10 4 13 2 8 -6 -5
-7 -2 -9 7 -6 10 4 15 -1 16 -13 2 -23 -12 -25 -21 -3 -3 8 -11 12 -17 8 -9
-5 -7 -11 4 -19 9 -7 15 -14 12 -16 -2 -3 7 -5 20 -5 21 0 24 4 19 26 l-4 25
10 -24 c10 -24 7 -35 -11 -37 -23 -3 -23 -6 1 -19 l25 -14 -25 2 c-14 0 -32 8
-40 17 -8 9 -24 20 -35 24 -11 4 0 -11 25 -34 43 -38 44 -40 20 -41 -20 -1
-21 -2 -5 -6 11 -3 32 -18 46 -34 14 -15 30 -25 34 -21 4 4 6 -2 4 -12 -2 -11
-10 -21 -17 -22 -7 -1 -8 0 -3 2 10 5 -18 44 -31 44 -5 0 -8 -7 -8 -17 0 -9 3
-13 7 -10 3 4 11 -3 18 -16 6 -12 17 -21 24 -19 7 1 9 -2 5 -9 -4 -6 -8 -26
-9 -44 -2 -30 0 -32 16 -22 17 10 17 14 3 34 -16 26 -10 30 12 8 17 -16 10
-54 -9 -56 -7 0 -22 -2 -34 -3 -23 -3 -31 8 -13 19 5 3 6 13 3 22 -4 11 -3 14
5 9 7 -4 10 -2 7 6 -3 8 -14 14 -25 15 -13 1 -17 -3 -13 -14 4 -10 2 -14 -5
-9 -6 3 -14 1 -18 -5 -4 -7 -3 -9 2 -6 17 10 33 -8 27 -31 -6 -24 -31 -29 -53
-9 -8 6 -6 2 4 -10 16 -20 41 -23 65 -9 5 3 12 -1 15 -10 9 -23 7 -34 -4 -34
-5 0 -10 7 -10 15 0 16 -16 20 -24 6 -3 -5 1 -11 9 -15 9 -3 12 -12 8 -21 -4
-13 -8 -14 -14 -4 -4 7 -20 13 -36 14 -16 1 -35 5 -42 10 -11 6 -12 4 -5 -6
15 -25 15 -52 0 -46 -30 12 -9 -29 27 -54 22 -15 35 -29 30 -31 -4 -3 -2 -3 6
-1 7 2 20 -5 28 -14 9 -11 12 -12 7 -3 -5 12 -4 12 6 3 7 -6 9 -16 5 -23 -5
-8 -13 -6 -26 6 -16 14 -22 15 -32 4 -9 -10 -9 -11 1 -6 12 7 16 -3 13 -34 -1
-11 2 -10 10 3 10 18 12 18 30 1 13 -11 17 -24 13 -37 -5 -17 -4 -18 9 -6 8 8
13 17 11 20 -6 10 25 33 33 25 3 -3 1 -6 -5 -6 -18 0 -14 -25 9 -54 12 -15 19
-30 15 -33 -3 -3 0 -13 7 -22 11 -14 10 -14 -5 -2 -10 7 -16 17 -13 21 7 12
-23 33 -35 25 -6 -4 -9 -13 -6 -21 3 -7 1 -16 -4 -19 -15 -9 -12 -25 4 -19 8
3 17 0 22 -7 4 -7 3 -10 -3 -6 -13 8 -36 -41 -27 -55 5 -7 2 -8 -7 -2 -21 13
-38 14 -45 2 -4 -6 -10 -5 -16 3 -8 11 -9 10 -4 -4 9 -27 -3 -45 -26 -39 -14
3 -19 1 -15 -6 5 -6 -2 -9 -19 -7 -18 2 -24 -2 -20 -11 3 -7 0 -16 -6 -20 -7
-4 -8 -3 -4 4 8 14 4 15 -18 6 -9 -3 -13 -10 -10 -15 3 -5 0 -9 -6 -9 -6 0 -8
-5 -4 -11 4 -8 0 -8 -15 0 -17 9 -24 8 -40 -8 -14 -14 -22 -16 -31 -8 -8 9
-14 8 -24 -5 -17 -23 -67 -43 -60 -24 3 8 12 13 21 12 8 0 22 10 30 24 12 20
12 22 1 8 -8 -10 -17 -15 -20 -12 -8 7 -93 -60 -93 -73 0 -6 -3 -14 -7 -18 -4
-4 -4 -14 -1 -23 4 -14 3 -15 -5 -2 -6 8 -8 19 -5 25 3 5 -4 0 -16 -13 -12
-12 -26 -20 -31 -17 -6 3 -7 -1 -4 -9 3 -8 -3 -19 -14 -25 -18 -10 -19 -5 -26
87 -4 53 -11 98 -16 100 -6 2 -7 21 -4 43 4 23 2 44 -5 53 -9 10 -8 16 4 26
11 9 12 16 4 26 -6 7 -8 18 -5 23 4 6 1 19 -5 29 -9 14 -9 24 -1 38 6 10 12
13 12 7 0 -25 18 -12 18 13 0 17 -5 24 -14 20 -18 -7 -17 4 1 28 10 13 15 15
15 6 0 -7 3 -11 6 -8 3 4 1 15 -5 27 -8 15 -8 22 1 28 12 8 26 29 54 83 10 18
10 26 2 31 -8 5 -6 13 6 25 16 16 36 54 40 80 1 6 12 24 25 40 12 16 50 71 84
123 34 52 74 103 89 114 26 19 28 19 63 3 37 -18 53 -16 41 3 -4 6 -13 8 -21
4 -15 -5 -21 8 -8 20 9 10 13 9 29 -8z m141 -85 c-1 -11 -4 -20 -8 -20 -4 0
-9 9 -12 20 -3 13 0 20 8 20 8 0 13 -9 12 -20z m-457 -31 c0 -6 -4 -7 -10 -4
-5 3 -10 11 -10 16 0 6 5 7 10 4 6 -3 10 -11 10 -16z m450 -19 c13 -24 13 -30
0 -30 -5 0 -10 7 -10 15 0 8 -9 20 -20 27 -11 7 -20 16 -20 21 0 13 39 -12 50
-33z m-25 -1 c11 -17 -1 -21 -15 -4 -8 9 -8 15 -2 15 6 0 14 -5 17 -11z m66
-14 c5 4 9 1 9 -4 0 -6 -4 -11 -8 -11 -12 0 -32 22 -32 35 0 5 5 2 11 -8 6 -9
14 -15 20 -12z m9 -40 c-10 -12 -9 -15 5 -15 10 0 16 -3 12 -6 -3 -4 -13 -4
-21 -1 -17 7 -11 37 6 37 6 0 5 -6 -2 -15z m-536 -30 c3 -8 1 -15 -4 -15 -6 0
-10 7 -10 15 0 8 2 15 4 15 2 0 6 -7 10 -15z m529 -25 c3 -11 2 -20 -3 -20 -4
0 -10 9 -13 20 -3 11 -2 20 3 20 4 0 10 -9 13 -20z m37 -80 c0 -5 -5 -10 -11
-10 -5 0 -7 5 -4 10 3 6 8 10 11 10 2 0 4 -4 4 -10z m-65 -56 c8 -20 15 -39
15 -42 0 -12 -27 33 -34 56 -12 35 2 26 19 -14z m38 -11 c-3 -7 -10 -10 -16
-6 -8 5 -8 8 0 10 6 2 9 14 7 26 -4 21 -4 21 4 2 5 -11 7 -26 5 -32z m-123
-46 c0 18 35 4 50 -20 12 -20 12 -21 -3 -8 -15 12 -17 11 -17 -3 0 -9 -5 -16
-12 -16 -9 0 -9 -3 0 -12 10 -10 15 -10 22 2 6 9 10 10 10 3 0 -20 -17 -24
-44 -12 -29 14 -36 32 -8 22 15 -6 15 -5 3 10 -7 9 -17 15 -21 12 -5 -3 -11
-1 -15 5 -3 5 -2 10 4 10 6 0 8 8 4 18 -5 14 -3 13 10 -3 9 -11 17 -15 17 -8z
m-40 -32 c11 -13 10 -14 -4 -9 -9 3 -16 10 -16 15 0 13 6 11 20 -6z m115 -74
c0 -22 -3 -37 -7 -34 -5 2 -8 -1 -8 -7 0 -6 -5 -8 -11 -4 -7 4 -7 9 -2 13 16
10 22 39 10 45 -9 3 -8 8 3 15 8 6 15 11 15 11 0 0 0 -18 0 -39z m-624 6 c-10
-9 -11 -8 -5 6 3 10 9 15 12 12 3 -3 0 -11 -7 -18z m2837 -32 c-3 -3 -9 2 -12
12 -6 14 -5 15 5 6 7 -7 10 -15 7 -18z m-2164 -50 c3 -8 1 -15 -4 -15 -6 0
-10 7 -10 15 0 8 2 15 4 15 2 0 6 -7 10 -15z m2226 -5 c0 -5 -2 -10 -4 -10 -3
0 -8 5 -11 10 -3 6 -1 10 4 10 6 0 11 -4 11 -10z m-2245 -50 c3 -5 -1 -10 -9
-10 -9 0 -16 5 -16 10 0 6 4 10 9 10 6 0 13 -4 16 -10z m5 -30 c0 -5 -4 -10
-9 -10 -6 0 -13 5 -16 10 -3 6 1 10 9 10 9 0 16 -4 16 -10z m-660 -101 c-7
-11 -14 -19 -16 -16 -7 7 7 37 17 37 6 0 5 -9 -1 -21z m510 -73 c0 -2 -11 -6
-25 -8 -13 -3 -22 -1 -19 3 5 9 44 13 44 5z m-240 -122 c0 -3 -7 -1 -15 6 -8
7 -15 17 -15 22 0 5 7 3 15 -6 8 -8 15 -18 15 -22z m-1619 -7 c-10 -9 -11 -8
-5 6 3 10 9 15 12 12 3 -3 0 -11 -7 -18z m3832 -66 c-4 -13 -2 -13 10 2 20 24
25 21 19 -8 -5 -27 -42 -37 -42 -11 0 7 -9 25 -20 39 -28 35 -25 41 9 16 18
-13 27 -28 24 -38z m-2263 39 c-8 -5 -19 -10 -25 -10 -5 0 -3 5 5 10 8 5 20
10 25 10 6 0 3 -5 -5 -10z m-68 -22 c-7 -7 -12 -8 -12 -2 0 14 12 26 19 19 2
-3 -1 -11 -7 -17z m-42 -48 c33 21 32 8 0 -20 -19 -16 -29 -29 -22 -30 7 0 15
7 18 15 4 8 10 12 16 9 5 -3 0 -15 -11 -25 -24 -23 -25 -24 -10 -51 9 -16 8
-23 -2 -29 -23 -15 -29 -10 -19 15 7 19 5 23 -7 22 -9 0 -18 6 -20 14 -4 12
-2 12 5 2 7 -10 11 -10 21 2 14 17 -1 31 -21 20 -10 -6 -10 -4 0 7 18 20 15
34 -5 18 -13 -11 -13 -8 2 13 12 16 24 23 30 18 6 -5 17 -5 25 0z m-1430 -84
c-18 -37 -34 -65 -36 -63 -2 2 11 33 28 70 17 37 33 65 36 63 2 -2 -11 -34
-28 -70z m3885 48 c9 -15 12 -23 6 -20 -11 7 -35 46 -28 46 3 0 12 -12 22 -26z
m-46 -7 c-2 -1 -13 -9 -24 -17 -19 -14 -19 -14 -6 3 7 9 18 17 24 17 6 0 8 -1
6 -3z m-3988 -40 c-10 -9 -11 -8 -5 6 3 10 9 15 12 12 3 -3 0 -11 -7 -18z
m1614 -47 c3 -5 1 -10 -4 -10 -6 0 -11 5 -11 10 0 6 2 10 4 10 3 0 8 -4 11
-10z m-5 -83 c0 -5 -10 -7 -22 -5 -13 2 -22 12 -25 26 -3 23 -3 23 22 5 13
-10 25 -22 25 -26z m-1574 -51 c-24 -47 -41 -87 -38 -91 3 -3 -8 -18 -24 -33
-17 -15 -22 -21 -12 -13 10 8 21 11 26 7 4 -5 -3 -15 -15 -23 -13 -9 -23 -19
-23 -24 0 -18 16 -8 39 26 13 20 26 34 28 31 5 -5 -73 -134 -95 -156 -12 -13
-13 -12 -7 10 4 14 14 32 21 41 18 20 18 29 -1 29 -8 0 -15 -6 -15 -14 0 -13
-50 -108 -50 -95 0 7 24 68 46 117 9 18 17 43 18 56 1 12 6 27 10 34 4 7 4 17
0 24 -4 6 -3 8 3 5 6 -4 13 0 17 8 5 15 107 145 112 145 2 0 -16 -38 -40 -84z
m544 72 c0 -4 -4 -8 -9 -8 -6 0 -12 4 -15 8 -3 5 1 9 9 9 8 0 15 -4 15 -9z
m1991 -13 c5 4 6 -1 3 -9 -4 -10 1 -18 10 -22 15 -6 15 -8 -1 -27 -10 -11 -12
-17 -5 -13 6 4 12 3 12 -1 0 -5 -6 -15 -12 -21 -7 -7 -14 -17 -14 -22 -1 -6
-2 -11 -4 -12 -3 -5 -12 -42 -14 -64 -1 -11 -10 -31 -19 -44 -9 -13 -14 -27
-11 -32 3 -4 0 -8 -7 -8 -9 0 -9 -3 0 -14 8 -10 9 -16 2 -21 -11 -6 -10 -53 3
-73 4 -7 2 -12 -4 -12 -7 0 -8 -6 0 -19 13 -25 13 -34 0 -26 -5 3 -10 1 -10
-4 0 -6 5 -11 10 -11 6 0 10 -14 10 -31 0 -16 -4 -28 -9 -25 -5 4 -7 -3 -4
-14 3 -11 0 -20 -6 -20 -5 0 -8 -6 -5 -14 3 -7 -2 -16 -10 -19 -9 -4 -16 -13
-16 -22 0 -8 -4 -15 -9 -15 -5 0 -12 -7 -15 -16 -3 -9 -2 -12 5 -8 13 8 -17
-54 -40 -80 -10 -12 -11 -16 -2 -11 10 5 12 3 8 -11 -3 -11 -9 -39 -12 -65 -6
-41 -9 -45 -33 -45 -19 1 -27 -4 -27 -16 0 -9 -15 -32 -32 -51 -17 -19 -29
-38 -26 -41 4 -3 1 -6 -5 -6 -7 0 -12 -11 -12 -24 0 -46 104 -111 141 -88 24
16 34 15 22 0 -6 -7 -9 -20 -8 -29 2 -12 -3 -15 -21 -11 -13 2 -24 8 -24 13 0
5 -10 8 -22 8 -18 -1 -19 -2 -5 -6 16 -4 15 -7 -7 -30 -30 -30 -33 -44 -8 -37
9 2 7 -1 -5 -7 -21 -11 -27 -24 -26 -56 1 -16 -2 -16 -27 -1 -16 10 -22 10
-32 -1 -11 -12 -10 -13 4 -8 9 3 22 -1 28 -9 12 -14 3 -18 -37 -17 -7 0 -11
-4 -10 -11 1 -6 -3 -10 -9 -9 -7 1 -10 -6 -7 -17 3 -11 9 -20 14 -20 5 0 9 -4
9 -10 0 -6 -9 -5 -24 2 -22 9 -31 6 -78 -28 l-53 -39 29 37 c15 21 33 35 39
31 6 -3 7 -1 3 5 -8 14 -46 -6 -46 -24 0 -6 -11 -17 -25 -24 -27 -15 -28 -37
-1 -32 9 2 16 -2 16 -8 0 -5 -7 -10 -16 -10 -10 0 -14 -6 -10 -15 3 -8 2 -15
-2 -15 -11 0 -54 -58 -56 -76 -1 -7 -5 -17 -9 -20 -12 -12 -8 -26 6 -18 6 4 3
-2 -8 -13 -11 -11 -23 -19 -27 -16 -5 2 -8 -3 -8 -12 0 -11 5 -15 15 -11 19 7
19 3 -5 -44 -16 -32 -18 -44 -9 -67 l10 -28 -21 23 c-26 27 -34 28 -20 3 7
-13 7 -22 0 -26 -5 -3 -10 -1 -10 6 0 8 -8 5 -20 -6 -19 -17 -19 -19 -2 -31 9
-7 19 -10 22 -8 2 3 -2 9 -10 14 -8 5 -11 12 -7 16 20 20 42 -41 23 -65 -9
-12 -8 -14 4 -9 12 4 16 -1 15 -17 0 -13 -3 -27 -7 -31 -4 -4 2 -20 14 -36 19
-28 20 -31 4 -46 -10 -10 -16 -12 -15 -7 5 29 -1 36 -17 21 -20 -21 -41 -21
-23 0 10 13 10 17 -2 25 -20 13 -22 12 -41 -22 -11 -18 -22 -27 -29 -23 -8 4
-9 3 -5 -5 4 -6 12 -9 17 -6 5 4 4 -6 -3 -20 l-12 -27 -9 23 c-5 13 -14 33
-19 44 -16 29 -40 126 -39 157 0 15 -4 27 -10 25 -16 -3 -43 83 -30 96 6 6 11
17 11 25 0 12 -3 12 -15 2 -12 -10 -15 -10 -15 3 0 9 5 19 10 22 6 3 10 11 10
17 0 7 -6 6 -15 -2 -13 -11 -15 -8 -16 21 -1 19 -1 37 0 41 0 4 -6 36 -14 70
-7 35 -21 124 -30 198 -8 74 -20 153 -25 175 -6 28 -5 44 3 54 10 12 9 13 -2
6 -11 -6 -13 -3 -8 14 3 12 -1 45 -9 72 -8 27 -12 53 -9 58 3 5 1 11 -4 13 -6
1 -13 28 -16 58 -3 30 -10 76 -16 103 -6 26 -8 58 -5 72 3 13 2 26 -3 29 -11
7 -5 142 10 245 9 64 7 205 -6 339 -2 17 0 32 3 32 24 -1 52 -14 57 -28 5 -14
4 -15 -6 -4 -22 21 -32 13 -15 -13 20 -31 20 -36 -1 -29 -11 4 -14 3 -7 -3 18
-13 36 -54 30 -68 -2 -7 4 -21 15 -31 12 -11 16 -21 10 -28 -6 -7 -6 -17 1
-26 8 -12 9 -11 4 5 -5 17 -3 16 13 -4 12 -15 24 -22 35 -18 10 4 16 1 16 -8
0 -8 -8 -15 -17 -15 -9 0 -14 -2 -11 -5 3 -4 17 -3 31 0 18 5 24 12 20 23 -4
9 -2 13 4 9 6 -4 21 5 32 20 15 21 20 23 21 11 0 -17 15 -19 38 -5 7 5 12 3
12 -3 0 -6 4 -9 9 -5 5 3 12 1 16 -5 4 -7 -6 -9 -29 -6 -39 5 -39 5 -30 -18 3
-9 11 -13 17 -9 6 4 8 0 5 -9 -5 -11 4 -19 33 -28 35 -12 37 -14 21 -26 -20
-16 -36 -18 -27 -4 3 6 1 10 -4 10 -17 0 -13 -18 10 -39 13 -11 18 -24 14 -32
-5 -8 -4 -10 3 -5 7 4 12 1 12 -7 0 -8 9 -22 20 -32 18 -16 19 -20 5 -27 -8
-5 -15 -14 -15 -20 0 -7 5 -6 14 2 11 8 20 9 33 1 14 -8 15 -11 3 -12 -8 -1
-19 -2 -25 -4 -5 -1 -17 -3 -25 -4 -10 -1 -7 -6 9 -15 15 -8 20 -16 12 -20 -6
-4 -11 -2 -11 5 0 8 -4 8 -15 -1 -17 -14 -21 -35 -5 -25 6 3 10 -1 10 -9 0
-19 -26 -21 -33 -3 -3 6 -3 -8 -1 -33 3 -30 1 -40 -5 -30 -6 8 -7 18 -5 22 3
4 0 8 -6 8 -7 0 -10 -7 -6 -15 3 -9 -5 -20 -22 -29 -21 -12 -23 -15 -8 -16 12
0 16 -5 12 -16 -4 -10 -2 -13 6 -8 8 5 9 1 4 -12 -6 -16 -4 -16 14 4 11 12 23
22 25 22 8 0 -8 -35 -24 -54 -15 -18 -15 -18 9 -11 22 7 23 6 11 -8 -7 -9 -18
-14 -25 -10 -6 3 -8 3 -4 -2 4 -4 2 -15 -5 -23 -11 -13 -9 -14 13 -2 24 13 25
12 8 -7 -20 -21 -24 -38 -8 -28 6 3 7 -1 4 -9 -4 -10 -1 -16 9 -16 16 0 21
-46 6 -56 -5 -3 -9 4 -9 15 0 23 -35 47 -45 31 -3 -5 1 -10 9 -10 35 0 13 -20
-21 -21 -30 0 -34 -2 -18 -8 11 -5 30 -7 43 -5 12 3 22 -1 22 -7 0 -7 -12 -10
-31 -7 -34 5 -54 -18 -42 -48 4 -12 3 -15 -5 -10 -8 5 -12 0 -12 -14 0 -12 -4
-19 -9 -16 -5 3 -11 -1 -15 -9 -3 -8 -1 -17 3 -19 5 -3 7 -27 4 -52 -3 -44 -2
-46 14 -33 10 8 21 18 25 24 4 5 10 6 15 2 4 -5 1 -12 -7 -17 -8 -5 -11 -12
-7 -16 3 -4 14 -1 24 7 15 12 16 12 10 -3 -8 -24 2 -48 20 -48 9 0 11 5 6 13
-12 19 -13 40 -1 54 15 18 26 16 31 -4 3 -14 6 -11 11 10 5 15 14 27 22 27 7
0 17 6 21 14 4 7 19 19 32 26 22 11 23 13 7 22 -13 7 -23 5 -36 -7 -25 -22
-64 -4 -55 26 7 21 -10 27 -18 7 -2 -7 -8 -10 -12 -5 -14 13 11 28 51 32 55 4
54 4 54 15 0 6 -11 8 -25 6 -15 -3 -23 -1 -20 5 4 5 10 7 14 4 5 -2 19 7 31
20 19 20 20 25 7 25 -9 0 -19 5 -23 12 -5 7 -2 9 9 5 21 -8 33 9 48 66 6 27
18 51 25 54 22 8 16 26 -6 20 -11 -3 -18 -2 -15 3 3 4 13 10 23 12 21 6 26
-18 9 -40 -14 -18 -2 -26 14 -9 18 18 39 11 32 -11 -4 -15 -3 -15 6 -2 8 11
11 11 12 3 1 -7 2 -19 3 -25 1 -7 -2 -19 -8 -26 -7 -9 -6 -16 3 -22 9 -5 10
-10 2 -14 -6 -4 -11 -2 -11 3 0 6 -5 11 -10 11 -6 0 -8 -11 -3 -27 3 -16 6
-36 5 -45 0 -10 7 -18 16 -19 10 0 12 -3 5 -5 -7 -3 -21 -1 -31 5 -15 8 -21 7
-25 -3 -3 -7 -20 -18 -37 -24 -29 -11 -31 -10 -25 8 4 12 2 20 -4 20 -6 0 -11
-6 -11 -14 0 -8 -7 -16 -15 -20 -8 -3 -15 -11 -15 -18 0 -10 2 -10 9 0 10 16
21 17 30 3 5 -7 17 -5 36 5 39 20 63 25 70 13 4 -5 1 -9 -6 -9 -10 0 -10 -3
-1 -12 9 -9 15 -8 27 8 14 18 14 17 4 -8 -12 -28 -19 -32 -51 -29 -13 2 -16
-3 -11 -14 5 -15 3 -15 -14 -4 -18 10 -24 9 -44 -11 l-24 -24 28 18 c22 14 31
15 43 5 11 -9 17 -9 29 1 9 7 18 10 22 6 3 -3 1 -6 -6 -6 -7 0 -11 -6 -8 -14
3 -8 -3 -22 -13 -31 -18 -17 -18 -41 0 -30 11 7 7 -22 -5 -32 -4 -4 -5 -2 0 6
6 10 4 12 -4 7 -9 -6 -8 -14 4 -33 15 -22 15 -24 -1 -21 -9 2 -19 -3 -22 -11
-3 -10 0 -12 12 -8 9 4 16 1 16 -5 0 -27 15 7 16 35 0 30 24 53 24 23 0 -8 5
-18 12 -22 8 -5 9 -2 5 10 -9 24 9 93 27 99 7 3 19 1 27 -5 12 -8 11 -9 -2 -5
-8 3 -20 -3 -27 -13 -18 -30 -3 -30 31 1 17 16 28 32 24 35 -4 4 3 19 15 33
l23 26 -27 -24 c-17 -15 -24 -29 -20 -40 5 -14 4 -14 -12 -1 -17 13 -16 16 18
47 20 18 33 33 29 33 -4 0 -2 5 5 12 7 7 12 24 12 39 0 14 7 46 15 69 18 50
18 50 6 50 -15 0 -42 -31 -36 -40 3 -5 -5 -14 -17 -20 -22 -11 -22 -10 -4 4
19 15 12 22 -17 17 -5 -1 -6 3 -2 9 3 5 1 10 -6 10 -7 0 -4 7 7 15 18 13 18
14 -4 8 -21 -5 -22 -3 -19 30 3 26 1 34 -9 30 -7 -2 -15 -11 -18 -19 -3 -8
-10 -14 -16 -14 -6 0 -8 5 -5 10 3 6 1 10 -4 10 -6 0 -11 5 -11 11 0 6 7 9 15
5 13 -5 14 -2 4 17 -10 18 -13 19 -18 6 -7 -19 -34 -11 -39 10 -3 12 0 12 12
2 12 -10 17 -8 30 16 14 25 15 26 16 6 0 -12 4 -24 9 -27 5 -4 7 7 4 25 -3 19
1 37 10 47 9 10 12 25 8 36 -5 14 -10 16 -15 8 -4 -7 -5 -16 -1 -21 3 -5 2
-12 -3 -15 -5 -3 -9 3 -9 12 0 21 37 63 48 56 5 -3 9 0 9 6 0 6 4 9 9 6 5 -3
11 4 14 15 4 17 11 20 28 16 16 -4 19 -3 10 6 -14 14 -15 31 -1 22 5 -3 24 10
42 30 19 20 42 35 55 35 12 0 25 5 28 10 3 6 1 10 -5 10 -6 0 -8 5 -5 10 4 6
11 7 17 4 6 -4 8 -2 5 3 -4 6 0 16 8 23 8 7 15 18 15 24 0 7 11 27 25 46 13
18 37 65 52 104 15 39 30 76 34 81 3 6 9 29 13 52 7 48 28 101 34 84 2 -6 8
-9 13 -6z m-2017 -30 c-4 -8 -8 -15 -11 -15 -3 0 -3 7 1 15 3 9 0 15 -10 15
-9 0 -12 -5 -8 -11 3 -6 0 -15 -7 -20 -15 -9 -22 -69 -8 -69 15 0 21 22 10 33
-16 16 -14 23 8 24 11 1 22 -5 25 -13 3 -8 1 -14 -4 -14 -5 0 -7 -6 -4 -14 3
-7 -3 -21 -12 -30 -14 -14 -19 -15 -26 -4 -8 10 -9 10 -5 -2 2 -8 11 -14 19
-12 9 1 18 -7 22 -20 4 -17 8 -20 15 -10 7 11 9 10 14 -3 4 -9 3 -13 -3 -10
-6 3 -10 -1 -10 -9 0 -9 -4 -16 -9 -16 -5 0 -17 -3 -27 -7 -16 -6 -17 -5 -4 9
8 9 18 14 23 11 4 -2 7 0 7 5 0 6 -7 13 -16 16 -8 3 -12 2 -9 -4 3 -6 -4 -10
-15 -10 -14 0 -24 8 -27 20 -4 15 -9 18 -18 10 -9 -8 -12 -4 -12 15 0 13 3 22
8 19 5 -3 9 -1 9 5 0 5 -5 13 -11 16 -6 4 -8 13 -5 21 3 8 0 11 -10 7 -7 -3
-14 0 -14 6 0 6 5 11 10 11 7 0 7 6 0 19 -14 28 -12 36 5 21 12 -10 15 -10 15
4 0 9 5 16 10 16 6 0 10 -6 10 -12 0 -10 3 -9 9 1 5 7 14 10 20 7 6 -4 11 -2
11 4 0 8 6 8 20 0 11 -6 17 -16 14 -25z m3840 16 c3 -5 -1 -11 -9 -14 -9 -4
-12 -1 -8 9 6 16 10 17 17 5z m-3972 -53 c-3 -14 1 -26 13 -34 16 -12 16 -14
2 -20 -15 -5 -15 -10 3 -45 11 -21 24 -38 28 -37 4 2 21 -8 39 -21 27 -20 31
-29 27 -55 -3 -23 -2 -26 4 -11 8 18 9 18 19 1 12 -21 53 -14 53 10 0 8 5 14
10 14 11 0 13 -11 4 -34 -3 -9 -10 -13 -15 -10 -9 5 -10 4 -14 -32 -3 -31 -14
-44 -30 -38 -9 4 -13 16 -11 35 3 29 -11 35 -42 16 -13 -9 -7 -27 9 -27 6 0 7
4 4 10 -3 5 0 8 7 5 7 -3 14 -17 14 -31 2 -25 2 -25 -18 -7 -20 18 -21 17 -11
-2 6 -11 8 -26 6 -32 -7 -19 14 -16 29 5 7 9 20 17 28 17 8 0 20 14 25 31 13
40 45 87 53 79 4 -3 0 -10 -7 -14 -7 -5 -11 -15 -9 -22 3 -8 -8 -30 -23 -50
-16 -20 -29 -45 -29 -54 0 -15 -2 -16 -17 -4 -16 13 -17 12 -5 -3 8 -9 20 -14
28 -11 9 3 12 0 9 -8 -3 -8 -1 -27 4 -44 l9 -30 1 31 c1 17 4 46 8 64 4 24 3
31 -5 26 -7 -4 -10 -2 -6 7 5 15 34 19 34 5 0 -4 8 -8 18 -8 12 0 14 -2 4 -8
-9 -6 -10 -16 -4 -33 7 -17 5 -31 -6 -47 -8 -12 -12 -25 -9 -29 4 -3 2 -14 -4
-24 -6 -13 -6 -25 0 -38 13 -23 3 -35 -16 -20 -10 9 -13 8 -13 0 0 -7 -5 -9
-10 -6 -6 4 -7 11 -4 17 4 7 2 8 -4 4 -8 -5 -12 2 -12 18 0 14 -4 26 -10 26
-5 0 -10 5 -10 10 0 6 5 9 12 8 14 -3 20 40 7 48 -5 3 -9 -4 -9 -15 0 -12 -4
-21 -10 -21 -5 0 -10 -6 -10 -14 0 -9 -7 -12 -19 -9 -16 4 -19 1 -14 -16 3
-11 9 -18 14 -15 5 3 9 -4 9 -14 0 -21 -32 -40 -38 -23 -2 6 -8 11 -13 11 -5
0 -4 -9 3 -20 8 -12 19 -18 29 -15 9 3 22 -3 30 -12 13 -16 12 -17 -3 -4 -16
12 -18 11 -18 -5 1 -27 26 -57 41 -48 8 5 11 1 7 -13 -3 -12 0 -20 8 -20 8 0
14 5 14 10 0 6 2 8 5 5 11 -10 -7 -37 -21 -31 -8 3 -14 1 -14 -5 0 -18 24 -20
37 -3 11 14 13 12 12 -14 0 -16 4 -50 11 -74 8 -33 8 -50 -2 -71 -7 -16 -16
-27 -20 -24 -4 2 -4 -11 -1 -31 5 -28 2 -35 -11 -35 -10 0 -14 -5 -11 -10 4
-6 1 -18 -6 -26 -10 -12 -9 -13 4 -9 13 5 14 1 7 -28 -9 -42 -18 -58 -42 -75
-18 -13 -26 -38 -9 -27 5 3 13 0 17 -6 5 -8 3 -9 -6 -4 -9 6 -12 4 -8 -7 4 -8
2 -21 -4 -29 -8 -11 -9 -10 -4 4 3 10 2 15 -4 12 -5 -3 -7 -19 -4 -34 5 -24 3
-29 -12 -28 -11 1 -19 -6 -21 -18 -1 -11 0 -14 3 -7 12 26 22 0 18 -46 -2 -30
-1 -40 5 -27 6 15 9 11 15 -24 4 -25 2 -48 -3 -55 -6 -7 -9 -31 -8 -54 2 -40
2 -41 -18 -28 -27 18 -56 23 -72 13 -15 -10 4 -57 22 -57 7 0 18 -7 25 -15 16
-19 30 -19 30 -1 0 23 32 28 67 9 23 -12 31 -23 27 -33 -3 -8 -14 -41 -23 -73
-14 -48 -19 -55 -30 -45 -11 11 -13 11 -6 0 4 -8 0 -21 -11 -33 -10 -11 -12
-19 -5 -19 6 0 14 7 18 17 5 14 8 13 15 -6 5 -13 12 -19 19 -15 8 4 9 3 5 -4
-4 -7 -13 -12 -21 -12 -20 0 -105 -47 -133 -73 -24 -22 -24 -22 -39 -2 -10 13
-17 16 -20 8 -2 -7 -10 -10 -16 -7 -14 5 -19 -35 -11 -84 3 -21 9 -30 16 -26
7 5 9 2 6 -8 -4 -10 0 -14 15 -13 13 1 23 9 25 21 8 47 14 49 32 13 10 -19 25
-41 34 -48 8 -7 12 -20 9 -29 -3 -13 -2 -14 4 -4 8 10 12 10 22 -1 6 -8 10
-21 9 -28 -2 -7 2 -14 7 -14 23 -3 45 -18 45 -30 0 -6 9 -22 20 -35 11 -13 20
-32 21 -44 0 -20 1 -20 8 -2 7 19 8 19 13 -2 4 -16 11 -20 23 -16 11 5 18 0
22 -15 3 -11 9 -18 14 -15 14 8 11 -6 -5 -21 -11 -11 -12 -24 -5 -55 15 -66
15 -85 -1 -75 -6 4 -10 3 -9 -2 4 -22 -2 -43 -11 -38 -5 3 -10 -1 -10 -9 0
-10 -6 -13 -15 -10 -8 4 -15 2 -15 -3 0 -42 -120 70 -186 174 -19 29 -46 60
-60 69 -14 10 -23 23 -20 31 3 8 1 11 -4 8 -12 -7 -83 102 -140 215 -60 120
-188 509 -196 598 -8 89 3 121 68 184 28 27 51 61 54 77 7 32 33 49 45 30 4
-8 10 -6 19 7 9 15 10 16 6 2 -4 -12 -1 -15 11 -11 12 5 14 1 8 -17 -5 -15 -4
-20 4 -16 6 4 11 14 11 22 0 8 5 14 11 14 6 0 8 -7 5 -16 -4 -12 -2 -15 9 -10
8 3 15 1 15 -4 0 -6 -8 -10 -17 -10 -17 -1 -17 -1 0 -11 9 -6 15 -14 13 -18
-3 -5 6 -6 21 -3 26 5 48 -16 48 -47 0 -29 22 -21 23 9 1 42 11 55 26 34 12
-15 15 -14 34 13 12 17 18 33 15 37 -4 4 0 4 9 1 12 -5 19 3 27 28 7 19 11 39
9 43 -1 5 3 18 9 30 10 17 8 27 -9 55 l-20 34 27 -25 c27 -25 27 -25 21 -2 -5
13 -3 22 3 22 14 0 14 33 1 46 -6 6 -12 19 -15 30 -2 10 -7 34 -11 52 -4 22
-3 32 5 32 7 0 9 5 5 11 -4 8 -9 7 -15 -2 -6 -9 -12 -10 -16 -4 -10 13 -33 17
-33 6 0 -5 -9 -7 -20 -4 -28 8 -19 27 13 31 18 2 25 7 20 15 -13 19 -10 56 4
61 7 3 13 16 13 28 -1 22 -1 22 -15 4 -14 -18 -20 -15 -16 8 1 5 -4 4 -11 -2
-9 -7 -19 -8 -28 -2 -24 15 -33 11 -19 -7 12 -17 12 -17 -5 -2 -14 13 -26 15
-50 9 -62 -16 -137 -18 -151 -3 -8 7 -18 13 -22 12 -29 -5 -34 3 -28 45 16
137 20 154 49 219 13 28 29 68 35 87 6 19 30 53 53 75 25 24 39 33 35 21 -6
-16 -5 -17 8 -6 8 7 13 21 10 30 -7 22 29 34 57 19 10 -5 18 -6 18 -1 0 5 -9
13 -20 18 -20 9 -20 9 1 44 19 31 22 33 34 17 7 -10 10 -27 7 -39z m-482 28
c0 -2 -8 -10 -17 -17 -16 -13 -17 -12 -4 4 13 16 21 21 21 13z m4410 -37 c0
-11 -4 -18 -10 -14 -5 3 -7 12 -3 20 7 21 13 19 13 -6z m-2390 1 c0 -5 -4 -10
-10 -10 -5 0 -10 5 -10 10 0 6 5 10 10 10 6 0 10 -4 10 -10z m-48 -45 c0 -19
1 -41 2 -47 1 -7 11 -24 23 -38 12 -13 20 -26 17 -29 -3 -3 -9 1 -14 9 -8 13
-10 13 -10 1 0 -24 -48 28 -55 59 -7 30 9 80 25 80 5 0 11 -16 12 -35z m2719
-48 c-7 -18 -15 -25 -25 -21 -13 5 -12 9 4 27 11 11 21 32 21 46 l2 26 4 -26
c2 -14 -1 -37 -6 -52z m-4709 11 c-7 -7 -12 -8 -12 -2 0 14 12 26 19 19 2 -3
-1 -11 -7 -17z m648 18 c0 -11 -19 -15 -25 -6 -3 5 1 10 9 10 9 0 16 -2 16 -4z
m4165 -6 c-3 -5 -10 -10 -16 -10 -5 0 -9 5 -9 10 0 6 7 10 16 10 8 0 12 -4 9
-10z m-45 -14 c0 -3 -4 -8 -10 -11 -5 -3 -10 -1 -10 4 0 6 5 11 10 11 6 0 10
-2 10 -4z m-266 -21 c-4 -8 -8 -15 -10 -15 -2 0 -4 7 -4 15 0 8 4 15 10 15 5
0 7 -7 4 -15z m-2594 -20 c-7 -8 -16 -15 -21 -15 -5 0 -1 8 9 18 20 22 31 19
12 -3z m-1226 -20 c3 -8 3 -15 0 -15 -3 0 -12 7 -20 15 -13 13 -13 15 -1 15 8
0 17 -7 21 -15z m1296 0 c20 -24 6 -28 -15 -5 -10 11 -13 20 -8 20 6 0 16 -7
23 -15z m-1312 -18 c19 -12 14 -23 -10 -23 -22 0 -38 12 -38 28 0 9 30 6 48
-5z m3950 -22 c-3 -3 -9 2 -12 12 -6 14 -5 15 5 6 7 -7 10 -15 7 -18z m-4560
-35 c-7 -10 -14 -17 -17 -15 -4 4 18 35 25 35 2 0 -1 -9 -8 -20z m4457 -10 c8
-16 15 -32 15 -37 0 -10 -25 27 -33 50 -10 27 1 20 18 -13z m-44 -3 c-10 -9
-11 -8 -5 6 3 10 9 15 12 12 3 -3 0 -11 -7 -18z m-38 -1 c4 -10 1 -13 -8 -9
-8 3 -12 9 -9 14 7 12 11 11 17 -5z m-3663 -10 c0 -2 -8 -10 -17 -17 -16 -13
-17 -12 -4 4 13 16 21 21 21 13z m3510 -49 c0 -5 -4 -5 -10 -2 -5 3 -10 14
-10 23 0 15 2 15 10 2 5 -8 10 -19 10 -23z m-3528 8 c2 3 5 -2 5 -9 0 -11 -5
-12 -17 -6 -10 5 -20 6 -24 2 -4 -3 -4 1 0 11 4 13 10 15 19 7 6 -5 14 -8 17
-5z m3722 -10 c3 -8 1 -15 -3 -15 -5 0 -11 7 -15 15 -3 8 -1 15 3 15 5 0 11
-7 15 -15z m-4491 -27 c-22 -45 -26 -48 -17 -13 6 24 19 44 31 45 1 0 -6 -15
-14 -32z m4417 12 c0 -5 8 -7 18 -4 13 5 14 4 3 -4 -15 -11 -41 -5 -41 9 0 5
5 9 10 9 6 0 10 -4 10 -10z m-186 -19 c15 -17 15 -19 1 -25 -10 -3 -14 -2 -10
5 4 5 1 16 -5 24 -18 22 -6 18 14 -4z m46 -16 c0 -8 5 -15 10 -15 6 0 10 -7
10 -16 0 -8 4 -13 9 -10 5 3 7 16 5 29 -2 12 -1 15 2 7 4 -8 12 -19 18 -23 8
-6 8 -10 -1 -13 -15 -7 17 -64 36 -64 11 0 11 3 1 15 -7 8 -8 15 -4 15 15 0
35 -38 24 -45 -6 -3 -14 -4 -19 -1 -5 3 -12 -2 -16 -11 -3 -10 -1 -19 4 -21 6
-2 11 -8 11 -13 0 -5 -11 -3 -25 3 -24 11 -24 12 -8 30 16 18 15 20 -20 56
-21 21 -35 41 -32 44 3 3 -1 11 -10 18 -17 14 -20 30 -5 30 6 0 10 -7 10 -15z
m84 -17 c4 -18 2 -28 -4 -28 -6 0 -9 4 -6 9 4 5 1 11 -5 13 -5 2 -7 11 -3 21
8 21 9 20 18 -15z m119 -20 c3 -10 2 -18 -4 -18 -6 0 -6 -7 1 -20 6 -11 8 -20
4 -20 -3 0 2 -12 11 -27 16 -23 16 -25 1 -20 -20 8 -20 3 2 -30 9 -15 11 -24
5 -20 -8 5 -13 2 -13 -8 0 -8 7 -18 15 -21 8 -4 15 -11 15 -16 0 -6 -6 -5 -15
2 -13 11 -15 6 -16 -31 -2 -82 -8 -122 -20 -129 -7 -5 -8 -16 -4 -30 6 -17 4
-21 -6 -14 -12 6 -12 5 0 -9 10 -12 10 -17 2 -17 -8 0 -10 -8 -6 -21 6 -18 4
-20 -17 -14 -22 7 -22 7 -5 -12 9 -11 15 -22 12 -25 -3 -3 -8 -38 -11 -79 -3
-40 -10 -79 -15 -85 -6 -7 -12 -52 -14 -100 -2 -48 -8 -90 -14 -93 -6 -4 -7
-20 -2 -43 5 -20 7 -39 4 -41 -2 -3 -6 -21 -8 -41 -2 -20 -8 -43 -14 -50 -6
-7 -8 -16 -4 -20 10 -10 11 -48 2 -72 -4 -12 -4 -25 1 -30 10 -10 -3 -163 -24
-269 -10 -50 -16 -65 -21 -52 -4 10 -3 35 3 55 8 24 8 38 2 40 -6 2 -8 13 -6
25 13 64 16 108 6 102 -5 -3 -10 -15 -10 -26 0 -10 -5 -19 -11 -19 -5 0 -7 -4
-4 -10 3 -5 -2 -21 -11 -36 -13 -19 -14 -28 -5 -33 8 -5 5 -13 -10 -27 -13
-10 -19 -13 -15 -7 4 8 2 11 -6 8 -19 -7 -17 -45 2 -45 13 0 13 -2 0 -9 -8 -6
-18 -7 -22 -5 -4 3 -8 -4 -8 -14 0 -25 -31 -53 -38 -34 -2 7 -20 24 -40 38
-35 25 -26 28 23 8 19 -7 19 -7 3 13 -22 25 -24 40 -2 18 13 -12 19 -13 31 -4
11 10 11 14 1 20 -12 8 -3 13 16 10 5 -1 3 5 -4 14 -7 8 -10 19 -6 22 4 4 11
1 16 -7 7 -11 10 -12 10 -2 0 7 7 20 15 28 20 21 19 30 -5 30 -11 0 -20 -4
-20 -8 0 -4 5 -8 11 -8 5 0 7 -5 4 -10 -5 -8 -11 -7 -21 1 -11 9 -11 15 -3 25
9 11 8 18 -1 29 -7 8 -9 15 -5 15 4 0 -1 12 -11 28 -13 19 -13 24 -2 15 8 -7
17 -10 21 -7 3 3 15 1 26 -6 21 -11 31 3 11 15 -5 3 -7 12 -3 20 3 9 -2 26
-11 40 -18 27 -22 60 -6 50 6 -4 7 -12 4 -18 -4 -7 2 -4 12 6 13 12 15 20 8
25 -17 11 -24 52 -8 45 8 -3 14 -9 14 -15 0 -5 5 -6 10 -3 15 9 12 25 -5 25
-8 0 -15 6 -15 14 0 8 -3 23 -7 33 -7 17 -6 17 11 1 24 -24 27 -23 16 8 -9 23
-8 25 6 20 14 -5 15 -4 4 9 -7 8 -9 22 -6 31 3 8 3 27 0 41 -6 22 -8 23 -16 9
-5 -9 -14 -16 -20 -16 -6 0 -5 6 3 16 10 12 10 20 1 34 -6 11 -8 21 -4 24 4 2
7 17 6 33 0 15 6 33 15 40 14 11 14 12 1 13 -12 1 -12 3 3 14 15 12 15 15 2
26 -8 7 -13 24 -11 41 3 25 1 28 -12 17 -13 -12 -14 -11 -2 9 8 12 18 19 22
17 4 -3 8 0 8 5 0 6 -4 11 -8 11 -5 0 -14 12 -20 26 -7 14 -17 22 -22 19 -6
-3 -7 1 -4 9 8 20 24 21 24 1 0 -8 6 -15 13 -15 6 0 21 -7 32 -16 17 -13 18
-16 5 -24 -17 -11 0 -13 24 -4 23 9 20 19 -10 33 -17 7 -24 17 -20 26 3 8 -5
24 -17 36 l-22 20 23 19 c12 10 22 23 22 29 0 6 5 11 10 11 14 0 -7 -39 -25
-46 -9 -4 -6 -12 12 -30 14 -14 28 -22 32 -18 3 4 0 9 -6 11 -7 3 -13 11 -13
19 0 8 6 11 15 8 11 -5 13 -2 9 10 -3 9 -1 16 5 16 6 0 10 3 10 8 -4 22 3 34
15 29 10 -4 13 -1 10 8 -3 7 -12 16 -20 19 -9 3 -12 10 -9 16 3 5 1 10 -4 10
-6 0 -11 7 -11 15 0 8 5 15 10 15 6 0 10 -5 10 -10 0 -6 13 2 28 17 22 21 26
31 18 42 -8 10 -8 15 2 19 9 3 10 7 2 17 -6 7 -9 19 -8 26 2 8 -2 13 -8 12
-14 -3 -14 28 0 46 8 11 8 13 0 8 -7 -4 -17 0 -24 8 -10 11 -7 14 16 12 20 -2
28 -8 29 -24 1 -14 -3 -19 -12 -16 -10 4 -9 -3 4 -25 10 -17 21 -28 26 -25 5
3 4 10 -2 16 -14 14 -14 30 0 21 8 -5 8 -1 0 13 -6 11 -7 23 -4 27 3 3 -2 16
-12 28 -10 13 -1 6 19 -15 21 -22 35 -45 32 -52 -3 -8 -1 -17 4 -20 6 -3 9 13
8 38 -2 28 -6 43 -13 41 -14 -6 -45 59 -36 75 6 9 11 8 21 -4 15 -18 37 -21
24 -2 -11 14 -10 34 1 60 5 11 3 23 -4 30 -9 9 -11 8 -6 -5 5 -11 2 -18 -5
-18 -8 0 -10 -8 -7 -22 5 -19 2 -23 -17 -23 -17 0 -22 5 -18 18 2 9 9 17 14
17 5 0 6 5 2 12 -5 7 -3 8 6 3 8 -5 11 -3 8 6 -2 7 0 19 6 25 12 12 28 1 39
-28z m-93 16 c0 -8 -5 -12 -10 -9 -6 4 -8 11 -5 16 9 14 15 11 15 -7z m-131
-37 c-14 -31 -21 -33 -40 -11 -12 15 -11 16 9 10 22 -7 27 0 22 34 -1 11 1 12
10 4 8 -8 8 -18 -1 -37z m141 9 c0 -3 -4 -8 -10 -11 -5 -3 -10 -1 -10 4 0 6 5
11 10 11 6 0 10 -2 10 -4z m-3620 -52 c0 -25 -4 -43 -8 -40 -4 2 -7 17 -6 33
1 15 3 34 3 41 1 6 3 12 6 12 3 0 5 -21 5 -46z m3554 -11 c3 -8 1 -11 -4 -8
-10 6 -12 -1 -15 -65 -2 -37 13 -72 27 -64 4 3 8 -2 8 -10 0 -9 -4 -16 -10
-16 -5 0 -10 -4 -10 -8 0 -5 7 -9 15 -9 8 0 12 4 9 9 -3 4 -1 8 5 8 20 0 22
-22 2 -27 -11 -3 -18 -10 -15 -15 3 -5 12 -7 20 -4 10 4 14 -2 14 -19 0 -14
-5 -25 -11 -25 -6 0 -9 7 -5 15 5 14 1 16 -32 19 -7 1 -17 8 -22 16 -5 8 -10
11 -10 5 0 -5 -4 -4 -9 3 -6 10 -10 10 -20 -1 -9 -11 -8 -17 4 -27 13 -11 14
-10 9 4 -5 12 -2 15 9 10 17 -6 32 -34 18 -34 -18 0 -3 -64 19 -82 18 -14 20
-22 12 -30 -9 -9 -12 -9 -12 1 0 7 -7 20 -16 29 -15 15 -16 14 -10 -6 5 -13 3
-22 -3 -22 -6 0 -11 8 -11 18 0 12 -2 14 -8 4 -6 -9 -13 -7 -28 10 -13 16 -14
19 -2 10 11 -9 18 -10 23 -2 3 6 11 8 16 5 15 -10 10 12 -6 25 -9 7 -14 18
-12 25 3 6 -1 19 -9 29 -11 16 -11 23 1 46 11 20 11 30 2 39 -8 8 -8 11 0 11
7 0 14 -8 17 -18 4 -10 13 -19 21 -19 13 0 13 2 0 17 -18 20 -20 34 -2 24 8
-6 8 -3 -1 9 -8 9 -11 21 -7 27 4 6 1 17 -5 25 -10 12 -10 15 1 15 9 1 8 4 -4
11 -9 6 -15 15 -11 21 4 6 9 5 15 -3 5 -9 8 -3 6 18 -1 18 -5 33 -8 33 -4 0
-9 7 -13 15 -4 11 3 9 24 -6 16 -12 31 -28 34 -36z m-131 2 c-3 -9 -8 -14 -10
-11 -3 3 -2 9 2 15 9 16 15 13 8 -4z m312 5 c3 -5 1 -10 -4 -10 -6 0 -11 5
-11 10 0 6 2 10 4 10 3 0 8 -4 11 -10z m-4585 -10 c0 -5 -2 -10 -4 -10 -3 0
-8 5 -11 10 -3 6 -1 10 4 10 6 0 11 -4 11 -10z m13 -30 c-3 -12 -8 -19 -11
-16 -5 6 5 36 12 36 2 0 2 -9 -1 -20z m-18 -29 c3 -5 1 -12 -5 -16 -5 -3 -10
1 -10 9 0 18 6 21 15 7z m4334 -8 c18 -2 39 -23 24 -23 -7 0 -14 4 -18 10 -3
5 -12 7 -19 4 -7 -3 -16 2 -20 11 -4 11 -2 14 7 8 6 -4 18 -8 26 -10z m-3554
-10 c11 -26 14 -84 4 -78 -4 3 -5 13 -2 23 3 9 2 14 -2 10 -10 -10 -33 32 -27
50 6 17 19 15 27 -5z m3635 2 c0 -8 -4 -15 -10 -15 -5 0 -10 7 -10 15 0 8 5
15 10 15 6 0 10 -7 10 -15z m-4429 -56 c-9 -22 -10 -22 -10 -3 -1 11 2 24 6
27 12 12 14 0 4 -24z m2179 -6 c0 -9 -3 -13 -7 -10 -9 9 -32 -12 -29 -26 1 -7
1 -8 -2 -4 -2 4 -11 2 -20 -5 -10 -7 -3 4 13 24 33 41 45 46 45 21z m80 7 c0
-5 -5 -10 -11 -10 -5 0 -7 5 -4 10 3 6 8 10 11 10 2 0 4 -4 4 -10z m-200 -25
c-14 -16 -25 -21 -16 -6 4 5 0 12 -6 14 -7 3 -2 6 11 6 20 1 21 -1 11 -14z
m190 -3 c0 -5 -7 -9 -15 -9 -8 0 -15 4 -15 9 0 4 7 8 15 8 8 0 15 -4 15 -8z
m-1896 -18 c19 -7 21 -37 3 -52 -9 -7 -17 -8 -27 -1 -11 8 -12 12 -3 16 9 3
10 10 3 24 -11 20 -4 24 24 13z m3976 -14 c0 -5 -2 -10 -4 -10 -3 0 -8 5 -11
10 -3 6 -1 10 4 10 6 0 11 -4 11 -10z m-5716 -56 c4 -16 11 -22 19 -17 8 4 7
1 -2 -10 -16 -21 -84 -42 -105 -34 -12 5 -15 14 -10 34 4 16 11 33 17 38 7 7
8 6 3 -2 -4 -7 -1 -22 7 -33 12 -18 16 -18 33 -5 10 8 15 15 10 15 -5 0 -3 7
4 15 15 17 7 19 -21 5 -15 -9 -19 -7 -19 5 0 9 5 13 10 10 10 -6 15 9 10 30
-4 21 39 -28 44 -51z m26 13 c0 -26 -15 -12 -25 23 -7 22 -6 23 9 11 9 -7 16
-23 16 -34z m1680 33 c0 -5 -4 -10 -10 -10 -5 0 -10 5 -10 10 0 6 5 10 10 10
6 0 10 -4 10 -10z m1810 -44 c0 -2 -7 -3 -16 -2 -10 0 -18 -8 -21 -23 -4 -29
-10 -37 -20 -27 -4 3 -2 11 4 17 6 6 9 18 6 25 -3 8 0 14 7 14 7 0 9 8 5 21
l-7 21 21 -21 c12 -12 21 -23 21 -25z m33 29 c4 -8 2 -17 -3 -20 -6 -4 -10 3
-10 14 0 25 6 27 13 6z m2172 -6 c11 -16 1 -19 -13 -3 -7 8 -8 14 -3 14 5 0
13 -5 16 -11z m-3665 -15 c0 -8 -4 -12 -10 -9 -5 3 -10 10 -10 16 0 5 5 9 10
9 6 0 10 -7 10 -16z m3770 -3 c0 -6 -4 -13 -10 -16 -5 -3 -10 1 -10 9 0 9 5
16 10 16 6 0 10 -4 10 -9z m-76 -53 c-7 -11 -43 24 -37 35 3 5 13 1 24 -9 10
-9 16 -21 13 -26z m-5787 26 c-3 -3 -12 -4 -19 -1 -8 3 -5 6 6 6 11 1 17 -2
13 -5z m3563 -6 c0 14 9 15 28 4 10 -7 10 -15 1 -38 -7 -17 -13 -24 -16 -16
-4 10 -8 10 -21 0 -15 -12 -16 -11 -3 4 7 10 17 15 22 12 5 -3 9 2 9 11 0 11
-6 14 -25 9 -14 -3 -25 -2 -25 3 0 17 13 24 22 11 6 -10 8 -10 8 0z m190 -48
c-11 -15 -27 -33 -37 -41 -11 -8 -9 -4 4 12 12 13 25 36 27 49 2 14 5 27 5 30
1 3 5 -2 10 -9 7 -10 4 -23 -9 -41z m-1935 30 c-3 -5 -12 -10 -18 -10 -7 0 -6
4 3 10 19 12 23 12 15 0z m955 -30 c0 -5 -4 -10 -10 -10 -5 0 -10 5 -10 10 0
6 5 10 10 10 6 0 10 -4 10 -10z m760 -10 c0 -11 -4 -20 -9 -20 -7 0 -8 17 -2
38 4 10 11 -2 11 -18z m230 -60 c-7 -17 -15 -29 -17 -26 -3 3 1 18 8 35 17 39
26 31 9 -9z m2040 19 c0 -6 -4 -7 -10 -4 -5 3 -10 11 -10 16 0 6 5 7 10 4 6
-3 10 -11 10 -16z m-5703 5 c-3 -3 -12 -4 -19 -1 -8 3 -5 6 6 6 11 1 17 -2 13
-5z m1742 -56 c7 1 9 -2 6 -8 -4 -6 1 -20 11 -31 16 -18 16 -19 -4 -19 -11 0
-30 12 -41 26 -22 28 -27 54 -11 54 6 0 11 10 11 23 1 14 4 9 8 -13 4 -21 12
-34 20 -32z m31 47 c0 -8 -4 -15 -10 -15 -5 0 -10 7 -10 15 0 8 5 15 10 15 6
0 10 -7 10 -15z m1870 0 c-7 -9 -15 -13 -17 -11 -7 7 7 26 19 26 6 0 6 -6 -2
-15z m1985 5 c3 -5 1 -10 -4 -10 -6 0 -11 5 -11 10 0 6 2 10 4 10 3 0 8 -4 11
-10z m-1704 -58 c-5 -2 4 -17 22 -34 l32 -31 -34 25 c-21 15 -35 34 -36 49 -3
35 7 46 17 18 6 -15 5 -25 -1 -27z m-4040 26 c0 -10 2 -10 6 0 2 6 12 12 21
12 15 0 15 -2 2 -10 -16 -10 -11 -13 35 -23 12 -3 7 -5 -13 -6 -36 -1 -72 14
-72 29 0 15 20 12 21 -2z m5730 -5 c13 -16 12 -17 -3 -4 -10 7 -18 15 -18 17
0 8 8 3 21 -13z m49 9 c0 -5 -7 -9 -15 -9 -8 0 -12 4 -9 9 3 4 9 8 15 8 5 0 9
-4 9 -8z m-1980 -16 c0 -2 -8 -10 -17 -17 -16 -13 -17 -12 -4 4 13 16 21 21
21 13z m1898 -32 c-4 -3 -12 5 -18 18 -12 22 -12 22 6 6 10 -10 15 -20 12 -24z
m-5575 9 c-5 -12 -3 -14 7 -8 9 6 11 4 6 -4 -5 -7 -14 -10 -21 -7 -7 2 -16 2
-19 -2 -11 -10 -36 -11 -36 0 0 5 6 8 12 6 7 -3 21 4 32 14 24 22 27 22 19 1z
m3344 4 c0 -7 -6 -18 -14 -25 -16 -15 -17 -8 -3 19 12 22 17 24 17 6z m2348
-35 c-2 -2 -15 5 -29 16 -14 10 -22 22 -19 26 4 3 17 -4 30 -16 12 -12 21 -23
18 -26z m-2050 -1 c3 -5 2 -12 -3 -15 -5 -3 -9 1 -9 9 0 17 3 19 12 6z m-1934
-11 c5 0 9 -4 9 -10 0 -16 -26 -12 -41 7 -12 15 -12 16 4 10 10 -4 23 -7 28
-7z m1646 -18 c-10 -10 -17 -20 -17 -23 0 -8 55 -7 61 2 3 5 14 3 24 -5 18
-13 17 -13 -10 -13 -16 0 -31 -6 -33 -12 -2 -6 -8 -11 -14 -11 -6 0 -7 7 -4
16 4 12 1 14 -14 9 -25 -8 -27 16 -4 39 22 22 31 20 11 -2z m123 3 c0 -2 -10
-10 -22 -16 -21 -11 -22 -11 -9 4 13 16 31 23 31 12z m-170 -9 c0 -11 -19 -15
-25 -6 -3 5 1 10 9 10 9 0 16 -2 16 -4z m2344 -11 c3 -8 1 -15 -4 -15 -6 0
-10 7 -10 15 0 8 2 15 4 15 2 0 6 -7 10 -15z m-2023 -9 c18 11 8 -3 -18 -27
-19 -16 -23 -18 -12 -4 9 11 15 26 13 33 -1 7 0 8 3 2 2 -5 9 -8 14 -4z m-321
-16 c0 -5 -4 -10 -10 -10 -5 0 -10 5 -10 10 0 6 5 10 10 10 6 0 10 -4 10 -10z
m2320 -25 c-7 -8 -17 -12 -23 -8 -6 4 -3 9 9 14 27 11 28 11 14 -6z m-5754 -8
c4 -4 0 -7 -9 -7 -9 0 -17 -7 -17 -16 0 -9 -5 -12 -12 -8 -8 5 -9 2 -5 -10 5
-12 3 -16 -5 -14 -19 7 -21 34 -4 51 16 15 39 17 52 4z m214 -32 c0 -12 -19
-12 -23 0 -4 9 -1 12 9 8 7 -3 14 -7 14 -8z m85 -17 c4 0 11 6 16 14 7 10 12
9 26 -6 12 -13 13 -16 3 -10 -13 6 -13 5 -2 -8 14 -17 6 -102 -9 -93 -13 9
-22 -15 -24 -72 -2 -30 -6 -57 -9 -60 -3 -4 -6 -14 -6 -23 0 -10 -7 -23 -15
-30 -8 -7 -15 -19 -15 -27 0 -8 -9 -28 -21 -44 -20 -29 -19 -69 3 -69 6 0 5
-7 -3 -17 -12 -15 -12 -16 8 -11 17 5 20 2 16 -11 -3 -9 -10 -21 -15 -28 -5
-7 -5 -14 2 -18 10 -6 15 -45 5 -45 -3 0 -19 15 -36 33 -26 27 -28 28 -18 7 7
-14 12 -32 11 -40 -3 -13 -2 -13 7 0 6 8 11 11 12 5 1 -5 2 -16 3 -22 1 -15
21 -18 21 -4 0 20 16 23 34 7 18 -16 18 -19 3 -36 -8 -11 -20 -16 -26 -13 -6
3 -8 2 -3 -2 4 -5 0 -17 -10 -27 -15 -17 -15 -18 8 -19 l24 0 -22 -11 c-13 -6
-23 -17 -23 -25 0 -8 4 -12 8 -9 4 2 9 -6 10 -20 1 -17 -5 -28 -23 -36 -13 -6
-22 -16 -18 -21 4 -6 0 -8 -11 -4 -13 5 -19 1 -23 -14 -4 -13 -11 -18 -21 -14
-16 6 -32 -10 -32 -34 0 -9 8 -12 28 -8 20 4 34 -1 56 -21 16 -15 26 -21 22
-14 -14 25 6 33 25 10 18 -20 18 -23 4 -28 -14 -5 -14 -8 -1 -25 9 -11 16 -34
16 -52 0 -17 5 -35 10 -38 6 -3 10 -13 10 -21 0 -8 -4 -13 -9 -9 -5 3 -13 0
-17 -6 -4 -7 -3 -9 4 -5 6 3 13 2 17 -4 3 -5 1 -10 -4 -10 -6 0 -11 -5 -11
-11 0 -5 5 -7 10 -4 6 3 10 -3 10 -14 0 -23 -16 -28 -23 -8 -2 6 -8 8 -13 4
-5 -4 -2 -12 5 -16 21 -13 -5 -54 -29 -46 -10 3 -21 1 -25 -5 -3 -5 1 -10 9
-10 19 0 21 -11 5 -27 -14 -14 -2 -36 14 -27 7 4 9 3 4 -1 -20 -23 -44 -12
-70 31 -15 25 -25 50 -22 55 4 5 1 9 -4 9 -6 0 -11 4 -11 9 0 5 -22 56 -49
112 -50 104 -77 192 -100 324 -7 39 -26 133 -43 210 -33 155 -55 385 -44 459
7 46 8 47 22 27 8 -12 17 -30 19 -42 7 -35 48 -64 83 -60 7 1 15 -5 18 -14 3
-8 18 -15 32 -15 25 0 25 0 7 -20 -17 -18 -17 -20 -2 -14 12 4 17 1 17 -10 0
-13 4 -15 19 -6 17 9 20 7 18 -16 -1 -15 4 -29 11 -31 6 -3 12 0 12 7 0 6 -4
8 -10 5 -5 -3 -10 1 -10 9 0 22 15 20 26 -3 9 -19 10 -19 39 8 42 37 75 93 75
126 0 15 -9 39 -20 55 -11 15 -16 31 -12 36 4 4 0 3 -10 -4 -11 -9 -18 -10
-23 -2 -3 5 0 12 7 14 30 10 53 11 59 3 3 -5 10 -9 14 -9z m5480 2 c3 -5 1
-10 -4 -10 -6 0 -11 5 -11 10 0 6 2 10 4 10 3 0 8 -4 11 -10z m-25 -81 c0 8 2
12 5 9 3 -3 2 -13 -1 -22 -6 -16 -10 -14 -30 11 -13 15 -23 33 -23 38 0 6 11
-3 24 -20 14 -17 25 -24 25 -16z m-1690 -99 c0 -5 -5 -10 -11 -10 -5 0 -7 5
-4 10 3 6 8 10 11 10 2 0 4 -4 4 -10z m1685 -20 c8 -13 -6 -40 -17 -34 -6 4
-8 -2 -4 -17 6 -20 5 -21 -4 -6 -6 9 -8 22 -5 27 3 5 1 18 -4 29 -9 16 -8 18
9 14 11 -3 23 -9 25 -13z m-1928 -5 c0 -8 -4 -15 -9 -15 -10 0 -11 14 -1 23 9
10 10 9 10 -8z m-27 -15 c0 -5 -2 -10 -4 -10 -3 0 -8 5 -11 10 -3 6 -1 10 4
10 6 0 11 -4 11 -10z m2020 -4 c0 -8 -4 -17 -9 -21 -12 -7 -24 12 -16 25 9 15
25 12 25 -4z m-1983 -28 c-3 -8 -6 -5 -6 6 -1 11 2 17 5 13 3 -3 4 -12 1 -19z
m1933 -43 c0 -8 -4 -15 -10 -15 -5 0 -10 7 -10 15 0 8 5 15 10 15 6 0 10 -7
10 -15z m-2010 -1 c0 -8 -19 -13 -24 -6 -3 5 1 9 9 9 8 0 15 -2 15 -3z m130
-19 c-7 -9 -15 -13 -17 -11 -7 7 7 26 19 26 6 0 6 -6 -2 -15z m-185 -25 c-10
-11 -20 -18 -23 -15 -3 3 3 14 13 25 10 11 20 18 23 15 3 -3 -3 -14 -13 -25z
m117 -5 c3 4 9 2 12 -3 3 -5 -4 -9 -16 -8 -14 1 -22 9 -24 26 l-4 25 13 -23
c7 -12 16 -20 19 -17z m1932 -1 c3 -8 2 -12 -4 -9 -6 3 -10 10 -10 16 0 14 7
11 14 -7z m-7 -47 c9 -19 8 -23 -9 -24 -15 -2 -18 3 -13 20 4 15 4 18 -3 8 -6
-8 -12 -9 -16 -3 -5 9 6 19 25 21 3 1 10 -9 16 -22z m28 -88 c4 -5 3 -9 -2 -9
-9 0 -83 68 -83 76 0 7 78 -54 85 -67z m-53 14 c10 -9 18 -20 18 -25 0 -13
-37 9 -44 27 -7 20 3 19 26 -2z m-1705 -17 c-4 -34 -28 -61 -38 -44 -6 9 -10
8 -15 -5 -9 -24 -24 -21 -24 5 0 21 0 21 -22 2 -12 -10 -18 -13 -13 -5 5 9 4
12 -3 7 -6 -4 -9 -13 -5 -21 4 -11 -2 -15 -23 -15 -16 0 -36 4 -44 10 -9 5
-19 5 -27 -2 -10 -8 -13 -5 -13 11 0 15 7 21 23 22 12 1 35 2 50 3 15 0 32 8
37 16 8 12 10 12 10 -5 1 -18 2 -18 10 3 10 23 40 31 40 10 0 -9 3 -9 9 1 7
11 10 10 14 -5 4 -17 5 -16 6 3 1 18 9 27 29 32 1 1 1 -10 -1 -23z m47 -19
c-7 -18 -34 -24 -34 -7 0 6 5 10 10 10 6 0 10 8 10 17 0 12 3 14 10 7 6 -6 8
-18 4 -27z m1622 -5 c-6 -5 -36 23 -36 34 0 4 9 -1 20 -11 11 -10 18 -20 16
-23z m-5387 -20 c1 -7 -3 -10 -9 -7 -5 3 -10 18 -9 33 0 24 1 25 9 7 5 -11 9
-26 9 -33z m5361 18 c0 -5 -5 -10 -11 -10 -5 0 -7 5 -4 10 3 6 8 10 11 10 2 0
4 -4 4 -10z m128 -2 c-3 -7 -11 -13 -18 -13 -7 0 -15 6 -17 13 -3 7 4 12 17
12 13 0 20 -5 18 -12z m-3423 -38 c3 -5 1 -10 -4 -10 -6 0 -11 5 -11 10 0 6 2
10 4 10 3 0 8 -4 11 -10z m1445 -46 c0 -3 -4 -2 -10 1 -5 3 -10 1 -10 -4 0 -6
-7 -11 -16 -11 -8 0 -12 -4 -9 -10 3 -5 1 -10 -4 -10 -17 0 -13 18 7 29 10 6
12 11 4 11 -7 0 -10 5 -7 10 6 10 45 -4 45 -16z m1861 -21 c13 -16 12 -17 -3
-4 -10 7 -18 15 -18 17 0 8 8 3 21 -13z m-1824 -17 c0 -8 -8 -13 -17 -11 -11
2 -22 -6 -29 -21 -6 -13 -16 -24 -22 -24 -7 0 -9 3 -6 7 4 3 1 13 -6 22 -10
14 -10 14 4 4 20 -16 33 -5 16 15 -8 11 -8 13 0 9 8 -5 46 3 59 12 0 1 1 -5 1
-13z m93 -36 c0 -5 -5 -10 -11 -10 -5 0 -7 5 -4 10 3 6 8 10 11 10 2 0 4 -4 4
-10z m-2313 -32 c-3 -8 -6 -5 -6 6 -1 11 2 17 5 13 3 -3 4 -12 1 -19z m2137
-6 c2 -4 -4 -8 -14 -8 -10 0 -16 4 -14 8 3 4 9 8 14 8 5 0 11 -4 14 -8z
m-3341 -17 c-3 -9 -8 -14 -10 -11 -3 3 -2 9 2 15 9 16 15 13 8 -4z m3210 -2
c-4 -9 -2 -14 3 -10 5 3 10 -3 10 -13 0 -10 -6 -16 -13 -13 -7 3 -13 9 -13 15
0 5 -4 6 -10 3 -15 -9 -12 2 6 19 20 20 25 20 17 -1z m-1993 -85 c0 -76 -6
-72 -14 10 -5 43 -3 62 4 57 5 -3 10 -34 10 -67z m-1320 53 c0 -5 -8 -15 -17
-22 -16 -12 -17 -12 -6 2 7 9 10 19 6 22 -3 4 -1 7 5 7 7 0 12 -4 12 -9z m-50
-36 c-7 -9 -15 -13 -19 -10 -3 3 1 10 9 15 21 14 24 12 10 -5z m24 -13 c3 -5
-1 -9 -9 -9 -8 0 -12 4 -9 9 3 4 7 8 9 8 2 0 6 -4 9 -8z m1869 -7 c-3 -9 -8
-14 -10 -11 -3 3 -2 9 2 15 9 16 15 13 8 -4z m3471 -17 c-4 -6 -10 -5 -15 3
-14 22 -10 33 6 19 8 -7 12 -17 9 -22z m-2006 2 c-7 -11 -17 -20 -22 -20 -5 0
-1 9 9 20 10 11 20 20 22 20 2 0 -2 -9 -9 -20z m2101 7 c13 -17 -7 -67 -27
-67 -8 0 -16 -9 -19 -20 -3 -11 -10 -20 -15 -20 -5 0 -18 -10 -28 -22 -10 -13
-21 -20 -25 -16 -4 4 6 19 21 33 27 25 28 26 4 14 -23 -11 -24 -11 -11 4 7 10
20 17 27 17 8 0 14 9 14 21 0 11 4 18 10 14 10 -6 50 15 50 27 0 4 -7 5 -15 2
-9 -4 -15 0 -15 10 0 19 14 21 29 3z m-3527 -19 c-7 -7 -12 -8 -12 -2 0 14 12
26 19 19 2 -3 -1 -11 -7 -17z m53 3 c3 -6 -4 -9 -15 -8 -11 1 -20 5 -20 9 0
11 28 10 35 -1z m1279 -35 c-6 -16 -34 -11 -34 6 0 6 7 7 16 4 12 -5 14 -1 9
17 -5 18 -4 19 5 5 5 -9 7 -23 4 -32z m107 1 c-15 -15 -14 -30 2 -21 8 5 7 2
-2 -9 -19 -23 -24 -15 -16 22 4 17 11 28 17 25 6 -4 6 -10 -1 -17z m1997 14
c7 -1 10 -5 7 -11 -8 -14 -18 -13 -41 4 -19 15 -19 15 1 11 11 -2 26 -4 33 -4z
m-2023 -11 c-3 -5 -11 -10 -16 -10 -6 0 -7 5 -4 10 3 6 11 10 16 10 6 0 7 -4
4 -10z m562 -29 c0 -11 -5 -18 -9 -15 -4 3 -5 11 -1 19 7 21 12 19 10 -4z
m-44 -16 c-3 -10 1 -15 13 -16 17 0 16 -1 -2 -9 -12 -4 -24 -15 -27 -23 -6
-17 9 -44 20 -34 4 5 1 12 -7 17 -8 6 -10 10 -4 10 6 0 17 -6 23 -14 9 -11 8
-15 -4 -20 -9 -3 -13 -11 -9 -18 3 -7 -5 0 -20 16 -14 16 -26 26 -26 22 0 -12
22 -50 33 -57 5 -4 0 -10 -12 -14 -13 -4 -18 -11 -14 -18 4 -8 1 -8 -9 1 -13
10 -17 10 -22 -3 -3 -8 -11 -15 -17 -15 -7 0 -5 8 6 20 10 11 15 23 11 27 -4
4 -11 1 -16 -7 -6 -8 -10 -11 -10 -5 0 5 -5 4 -12 -3 -17 -17 -33 -15 -19 2
10 12 9 14 -6 11 -10 -2 -22 -4 -26 -4 -5 -1 -5 -5 -2 -11 3 -5 1 -10 -6 -10
-6 0 -9 8 -6 20 8 30 -8 33 -28 6 -22 -29 -48 -14 -35 20 5 13 4 26 -2 32 -8
8 -7 13 6 18 11 4 15 13 10 26 -4 15 -2 19 7 16 8 -3 20 2 28 9 7 8 20 12 28
9 8 -3 11 -1 8 4 -7 11 1 12 33 4 14 -4 21 -12 18 -20 -3 -7 -1 -16 3 -19 5
-3 11 2 15 10 3 8 10 15 15 15 6 0 8 -6 5 -14 -8 -22 14 -29 38 -12 25 18 17
21 -13 6 -10 -6 -19 -7 -19 -3 0 12 20 39 20 28 0 -5 5 -2 11 8 12 20 31 13
22 -8z m-488 -40 c-20 -21 -38 -35 -41 -32 -3 3 12 21 32 41 48 47 56 39 9 -9z
m1956 -22 c13 -16 12 -17 -3 -4 -10 7 -18 15 -18 17 0 8 8 3 21 -13z m-1897
-5 c-4 -6 -8 -26 -9 -44 0 -18 -5 -37 -9 -41 -4 -4 -7 -3 -6 2 7 34 -2 37 -32
9 l-32 -29 17 28 c18 28 11 36 -13 15 -8 -7 -6 -3 5 10 12 15 21 19 26 11 5
-8 8 -8 13 0 4 6 4 16 0 23 -4 6 -3 8 3 5 6 -4 16 0 23 8 15 18 24 20 14 3z
m-64 -12 c0 -2 -8 -10 -17 -17 -16 -13 -17 -12 -4 4 13 16 21 21 21 13z m1945
-6 c-3 -5 -12 -10 -18 -10 -7 0 -6 4 3 10 19 12 23 12 15 0z m-1995 -19 c0 -6
-4 -13 -10 -16 -5 -3 -10 1 -10 9 0 9 5 16 10 16 6 0 10 -4 10 -9z m131 -44
c-10 -9 -11 -8 -5 6 3 10 9 15 12 12 3 -3 0 -11 -7 -18z m-3380 -1 c-9 -11 -8
-14 6 -12 10 0 21 6 26 11 13 19 23 -13 21 -72 -2 -83 -2 -83 -21 -83 -11 0
-14 -3 -7 -8 15 -10 24 -51 13 -58 -5 -3 -10 3 -10 13 -1 17 -2 17 -6 1 -7
-29 -31 -22 -25 7 2 14 0 25 -4 25 -8 0 -13 34 -14 88 0 14 4 63 9 95 1 4 6 7
12 7 8 0 8 -4 0 -14z m3459 9 c0 -2 -10 -10 -22 -16 -21 -11 -22 -11 -9 4 13
16 31 23 31 12z m-200 -46 c0 -10 4 -19 8 -19 5 0 17 -18 28 -40 10 -22 22
-40 27 -40 4 0 7 -7 7 -15 0 -9 7 -18 15 -21 11 -5 13 -10 5 -19 -7 -9 -6 -16
5 -25 13 -11 15 -10 9 6 -5 18 -5 18 6 1 9 -14 9 -21 0 -32 -9 -11 -6 -16 11
-26 20 -10 20 -12 6 -21 -20 -11 -22 -40 -5 -67 9 -15 8 -26 -6 -55 -9 -20
-22 -36 -28 -36 -6 0 -8 -11 -6 -25 3 -14 2 -25 -2 -25 -11 0 -41 -145 -34
-163 4 -10 0 -25 -8 -35 -19 -22 -30 -49 -35 -87 -5 -32 -20 -47 -38 -38 -5 4
-7 2 -2 -2 4 -5 0 -16 -8 -25 -9 -10 -15 -21 -14 -26 5 -30 -3 -52 -22 -57
-11 -3 -23 -15 -26 -26 -3 -12 -12 -21 -19 -21 -8 0 -14 -7 -14 -15 0 -17 -14
-19 -40 -5 -11 6 -17 17 -14 25 4 8 -1 18 -10 21 -9 3 -16 12 -16 19 0 8 -6
20 -12 27 -18 19 -48 74 -48 87 0 6 10 12 23 12 16 1 18 2 5 6 -20 5 -25 25
-5 22 26 -3 36 2 31 15 -4 9 5 20 23 30 15 8 37 28 48 45 11 17 25 31 31 31
15 0 47 37 50 58 1 9 7 67 13 127 6 61 16 149 21 196 6 47 10 124 10 171 0 46
3 88 6 91 11 10 24 -3 24 -24z m150 23 c0 -5 -9 -17 -20 -27 -19 -17 -19 -17
-7 9 12 25 27 35 27 18z m-66 -17 c-4 -8 -10 -15 -16 -15 -5 0 -7 -4 -4 -9 3
-5 -1 -12 -10 -15 -13 -5 -12 -1 3 24 18 31 37 41 27 15z m2191 -87 c7 -103
-6 -316 -21 -339 -12 -20 -21 18 -23 101 -1 56 -6 78 -18 87 -15 11 -15 13 0
19 21 8 21 21 2 40 -17 17 -20 44 -6 44 11 0 34 98 26 110 -8 13 6 40 20 40 9
0 15 -29 20 -102z m-395 82 c0 -5 -2 -10 -4 -10 -3 0 -8 5 -11 10 -3 6 -1 10
4 10 6 0 11 -4 11 -10z m-5172 -91 c-19 -11 -25 -39 -8 -39 5 0 7 -7 4 -15 -4
-8 -10 -15 -15 -15 -4 0 -5 7 -2 17 4 10 2 14 -5 9 -17 -10 -24 11 -10 34 7
11 22 20 33 20 18 -1 19 -1 3 -11z m3428 -17 c-18 -16 -18 -16 -6 6 6 13 14
21 18 18 3 -4 -2 -14 -12 -24z m44 -1 c0 -5 -7 -11 -15 -15 -15 -5 -20 5 -8
17 9 10 23 9 23 -2z m141 -48 c-12 -20 -14 -14 -5 12 4 9 9 14 11 11 3 -2 0
-13 -6 -23z m-3666 -33 c-3 -5 -12 -10 -18 -10 -7 0 -6 4 3 10 19 12 23 12 15
0z m127 -42 c-9 -9 -12 -9 -12 0 0 7 -3 11 -7 11 -19 -3 -33 2 -33 12 0 5 4 8
9 4 5 -3 13 0 16 6 5 7 12 6 23 -5 13 -12 14 -18 4 -28z m3361 18 c4 -10 0
-12 -14 -9 -10 3 -16 9 -13 14 8 13 21 11 27 -5z m-3387 -56 c14 0 35 -5 46
-11 17 -9 18 -13 7 -20 -10 -6 -8 -9 9 -9 13 0 20 4 17 10 -3 6 2 10 12 11 10
0 26 2 35 4 10 2 21 -2 25 -7 4 -7 1 -8 -7 -3 -8 5 -11 3 -8 -6 3 -8 -1 -22
-10 -31 -10 -13 -11 -18 -3 -18 7 0 9 -5 5 -12 -4 -7 -4 -10 1 -6 4 4 16 3 26
-3 18 -9 24 -2 20 24 0 4 4 7 10 7 5 0 7 5 3 12 -4 7 -3 8 4 4 7 -4 12 -14 12
-23 0 -9 3 -13 6 -10 10 10 44 -12 44 -28 0 -8 4 -15 8 -15 11 0 13 -48 2 -55
-6 -3 -10 -15 -10 -26 0 -24 -44 -47 -62 -32 -18 14 -50 24 -44 14 3 -4 0 -16
-8 -26 -11 -15 -15 -15 -33 -4 -12 7 -19 19 -16 26 3 7 0 20 -7 28 -6 8 -9 19
-5 25 3 5 2 10 -4 10 -14 0 -10 61 6 86 14 22 9 34 -14 34 -8 0 -13 -8 -12
-17 4 -26 -12 -87 -25 -96 -7 -6 -5 -7 6 -4 26 9 30 -5 5 -18 -15 -8 -28 -9
-42 -2 -11 5 -17 6 -13 2 8 -9 -9 -35 -22 -35 -4 0 -11 15 -14 34 -5 24 -14
37 -29 42 -12 4 -25 12 -29 18 -4 6 -8 -2 -8 -19 -1 -23 -3 -27 -10 -14 -5 9
-8 34 -6 55 2 21 4 64 5 96 l1 56 50 -24 c27 -13 61 -24 76 -24z m159 -80 c3
-5 2 -10 -4 -10 -5 0 -13 5 -16 10 -3 6 -2 10 4 10 5 0 13 -4 16 -10z m-235
-99 c0 -10 -6 -18 -12 -18 -7 0 -13 10 -13 22 0 14 5 21 13 18 6 -3 12 -13 12
-22z m6195 -1 c3 -5 1 -10 -4 -10 -6 0 -11 5 -11 10 0 6 2 10 4 10 3 0 8 -4
11 -10z m-623 -25 c-2 -14 -8 -25 -13 -25 -10 0 -12 34 -2 43 13 14 20 6 15
-18z m-5492 -47 c0 -5 -4 -8 -10 -8 -5 0 -10 10 -10 23 0 18 2 19 10 7 5 -8
10 -18 10 -22z m6017 10 c-3 -8 -6 -5 -6 6 -1 11 2 17 5 13 3 -3 4 -12 1 -19z
m-5258 -18 c-13 -16 -25 -28 -27 -25 -5 5 37 55 45 55 2 0 -6 -13 -18 -30z
m201 -174 c-29 -49 -35 -45 -10 5 12 23 24 38 27 35 3 -2 -5 -21 -17 -40z
m-6147 -125 c79 -31 168 -114 207 -194 107 -222 22 -487 -190 -590 -61 -30
-71 -32 -180 -32 -108 0 -119 2 -180 31 -80 38 -128 78 -170 144 -110 171 -87
413 50 551 50 50 124 93 187 109 65 16 211 6 276 -19z m2673 8 c88 -27 170
-104 202 -192 34 -90 36 -87 -75 -87 l-98 1 -19 40 c-43 94 -179 115 -266 42
-58 -48 -75 -96 -75 -208 0 -84 4 -107 22 -142 48 -88 138 -130 226 -103 44
13 107 68 107 94 0 13 14 16 90 16 50 0 93 0 98 1 34 2 -26 -138 -83 -196 -58
-58 -132 -87 -234 -93 -149 -8 -265 41 -343 144 -52 70 -77 139 -85 235 -25
327 230 542 533 448z m-1706 -84 l0 -85 -195 0 -195 0 0 -80 0 -80 188 -2 187
-3 3 -82 3 -83 -191 0 -190 0 0 -155 0 -155 -100 0 -100 0 0 405 0 405 295 0
295 0 0 -85z m720 0 l0 -85 -195 0 -195 0 0 -80 0 -80 188 -2 187 -3 3 -82 3
-83 -191 0 -190 0 0 -155 0 -155 -100 0 -100 0 0 405 0 405 295 0 295 0 0 -85z
m330 -320 l0 -405 -100 0 -100 0 0 405 0 405 100 0 100 0 0 -405z m1200 0 l0
-405 -100 0 -100 0 0 405 0 405 100 0 100 0 0 -405z m741 5 c81 -217 149 -399
149 -403 0 -4 -46 -6 -101 -5 l-102 3 -27 75 -27 75 -151 3 -150 3 -27 -81
-27 -80 -99 0 -99 0 20 53 c11 28 80 211 152 405 l133 353 103 -3 104 -3 149
-395z m449 80 l0 -320 195 0 195 0 0 -85 0 -85 -295 0 -295 0 0 405 0 405 100
0 100 0 0 -320z m-4282 -842 l-3 -83 -127 -3 -128 -3 0 -319 0 -320 -95 0 -95
0 0 320 0 320 -130 0 -130 0 0 85 0 85 355 0 356 0 -3 -82z m629 53 c62 -28
125 -92 144 -147 7 -21 13 -69 13 -105 -1 -80 -38 -156 -94 -197 -19 -14 -39
-29 -43 -33 -5 -3 35 -72 87 -153 l96 -147 -112 3 -112 3 -80 127 -81 128 -62
0 -63 0 0 -130 0 -130 -100 0 -100 0 0 406 0 405 228 -3 c214 -3 230 -4 279
-27z m748 -13 c33 -82 285 -757 285 -763 0 -3 -46 -4 -101 -3 l-102 3 -26 75
-26 75 -152 3 -151 3 -27 -81 -27 -80 -99 0 -99 0 20 53 c11 28 80 211 153
404 l132 353 101 0 102 0 17 -42z m585 -363 l0 -405 -100 0 -100 0 0 405 0
405 100 0 100 0 0 -405z m350 85 l0 -320 195 0 195 0 0 -85 0 -85 -295 0 -295
0 0 405 0 405 100 0 100 0 0 -320z m1110 235 l0 -85 -205 0 -206 0 3 -72 3
-73 198 -3 197 -2 0 -80 0 -80 -197 -2 -198 -3 -3 -77 -3 -78 211 0 210 0 0
-85 0 -85 -305 0 -305 0 0 405 0 405 300 0 300 0 0 -85z m655 57 c108 -50 158
-126 159 -242 0 -65 -5 -83 -29 -129 -16 -29 -45 -65 -65 -79 -19 -14 -39 -29
-43 -33 -5 -3 34 -71 86 -150 l95 -144 -101 -3 c-55 -1 -106 -1 -112 2 -6 2
-47 61 -91 130 l-79 126 -62 0 -63 0 0 -130 0 -130 -100 0 -100 0 0 406 0 405
228 -3 c212 -3 230 -5 277 -26z"/>
<path d="M9904 6781 c20 -22 9 -29 -14 -8 -8 6 -6 2 4 -10 20 -24 9 -32 -12
-11 -6 6 -14 9 -17 7 -2 -3 10 -13 27 -23 19 -12 28 -14 23 -6 -6 10 -4 12 8
7 10 -3 17 -2 17 3 0 6 -4 10 -10 10 -5 0 -7 6 -5 13 3 6 -5 18 -17 26 -23 14
-23 14 -4 -8z"/>
<path d="M9890 6710 c0 -5 5 -10 11 -10 5 0 7 5 4 10 -3 6 -8 10 -11 10 -2 0
-4 -4 -4 -10z"/>
<path d="M9861 6674 c0 -11 3 -14 6 -6 3 7 2 16 -1 19 -3 4 -6 -2 -5 -13z"/>
<path d="M9925 6669 c-4 -6 -4 -13 -1 -16 3 -4 6 -1 6 7 0 10 4 10 18 -1 15
-13 16 -12 3 4 -16 20 -18 20 -26 6z"/>
<path d="M9970 6670 c20 -13 33 -13 25 0 -3 6 -14 10 -23 10 -15 0 -15 -2 -2
-10z"/>
<path d="M9888 6663 c7 -3 16 -2 19 1 4 3 -2 6 -13 5 -11 0 -14 -3 -6 -6z"/>
<path d="M9820 6650 c0 -5 5 -10 11 -10 5 0 7 5 4 10 -3 6 -8 10 -11 10 -2 0
-4 -4 -4 -10z"/>
<path d="M9908 6543 c6 -2 9 -10 6 -15 -4 -7 -2 -8 5 -4 13 9 5 26 -12 25 -9
0 -8 -2 1 -6z"/>
<path d="M9895 6390 c-17 -7 -17 -9 -2 -9 9 -1 17 -6 17 -12 0 -5 -4 -7 -10
-4 -6 4 -7 -1 -3 -12 6 -16 5 -17 -13 -3 -19 14 -19 14 0 -7 10 -13 22 -21 26
-18 6 4 13 76 7 74 -1 0 -11 -4 -22 -9z"/>
<path d="M9994 6162 c3 -18 18 -20 24 -4 1 5 -4 12 -12 15 -9 4 -13 0 -12 -11z"/>
<path d="M9755 6031 c3 -5 0 -11 -7 -13 -7 -3 -8 -7 -3 -10 6 -3 15 0 22 7 10
10 9 14 -3 19 -8 3 -13 2 -9 -3z"/>
<path d="M9960 6449 c0 -15 18 -19 23 -6 3 8 -1 14 -9 14 -8 0 -14 -4 -14 -8z"/>
<path d="M10120 4991 c0 -6 4 -13 10 -16 6 -3 7 1 4 9 -7 18 -14 21 -14 7z"/>
<path d="M10096 4924 c-9 -23 -7 -31 3 -15 8 12 12 12 25 2 20 -17 21 -5 2 15
-18 18 -22 18 -30 -2z"/>
<path d="M10105 4891 c-3 -5 -2 -12 3 -15 5 -3 9 1 9 9 0 17 -3 19 -12 6z"/>
<path d="M9990 4805 c-10 -12 -10 -19 -2 -27 18 -18 -6 -42 -25 -27 -11 9 -12
9 -8 -3 4 -9 -1 -18 -9 -21 -9 -4 -16 -15 -16 -26 0 -11 -5 -23 -11 -26 -6 -5
-4 -12 8 -21 24 -18 43 -17 43 2 0 13 -3 14 -14 5 -10 -8 -16 -9 -21 -1 -4 6
-3 10 2 9 20 -3 23 2 12 22 -7 13 -7 19 -1 15 6 -4 15 2 21 11 6 10 11 14 11
9 0 -13 40 31 40 44 0 6 -4 9 -9 5 -5 -3 -13 0 -17 6 -3 6 0 15 7 20 7 4 11
11 8 14 -4 3 -12 -2 -19 -10z"/>
<path d="M10140 4749 c0 -5 5 -7 10 -4 6 3 10 8 10 11 0 2 -4 4 -10 4 -5 0
-10 -5 -10 -11z"/>
<path d="M9980 4700 c-26 -21 -26 -21 5 -25 15 -1 20 4 21 21 1 13 1 24 0 24
0 0 -12 -9 -26 -20z"/>
<path d="M9686 4634 c-22 -21 -20 -27 4 -12 11 7 20 16 20 20 0 12 -7 10 -24
-8z"/>
<path d="M9847 4600 c-21 -25 -21 -29 1 -27 10 0 18 10 18 24 2 28 3 28 -19 3z"/>
<path d="M9977 4597 c-15 -23 -15 -24 14 -23 33 1 34 4 15 29 -13 16 -14 16
-29 -6z"/>
<path d="M9661 4550 c0 -8 4 -24 9 -35 l9 -20 0 20 c0 11 -4 27 -9 35 -9 13
-10 13 -9 0z"/>
<path d="M9957 4502 c-20 -22 -22 -35 -4 -29 6 2 12 8 12 13 0 5 4 15 8 22 12
18 3 15 -16 -6z"/>
<path d="M9955 4430 c-3 -5 -1 -10 4 -10 6 0 11 5 11 10 0 6 -2 10 -4 10 -3 0
-8 -4 -11 -10z"/>
<path d="M9735 4420 c3 -5 8 -10 11 -10 2 0 4 5 4 10 0 6 -5 10 -11 10 -5 0
-7 -4 -4 -10z"/>
<path d="M9677 4354 c6 -15 23 -19 23 -5 0 5 -7 11 -14 14 -10 4 -13 1 -9 -9z"/>
<path d="M9700 4325 c-7 -8 -15 -13 -19 -11 -7 5 -5 -144 3 -152 3 -3 6 2 6
11 0 25 15 21 17 -4 1 -12 10 -27 20 -35 11 -8 13 -13 6 -14 -7 0 -13 -4 -13
-10 0 -16 14 -11 28 10 10 17 9 23 -8 40 -24 24 -25 34 -6 53 8 8 11 19 6 27
-6 9 -9 7 -14 -8 -4 -11 -16 -22 -26 -25 -24 -6 -24 -7 -5 29 8 16 12 36 10
45 -3 9 1 24 10 32 8 9 15 18 15 21 0 11 -18 6 -30 -9z"/>
<path d="M10115 4290 c-3 -5 3 -10 15 -10 12 0 18 5 15 10 -3 6 -10 10 -15 10
-5 0 -12 -4 -15 -10z"/>
<path d="M9643 4235 c-3 -9 -3 -18 -1 -21 3 -3 8 4 11 16 6 23 -1 27 -10 5z"/>
<path d="M9998 4243 c-10 -2 -18 -9 -18 -14 0 -6 8 -5 20 1 11 6 20 13 20 15
0 3 -1 4 -2 4 -2 -1 -11 -3 -20 -6z"/>
<path d="M9795 4130 c-3 -6 1 -7 9 -4 18 7 21 14 7 14 -6 0 -13 -4 -16 -10z"/>
<path d="M9905 4110 c-3 -5 -1 -10 4 -10 6 0 11 5 11 10 0 6 -2 10 -4 10 -3 0
-8 -4 -11 -10z"/>
<path d="M9940 4100 c-9 -6 -10 -10 -3 -10 6 0 15 5 18 10 8 12 4 12 -15 0z"/>
<path d="M9780 4085 c-8 -9 -8 -15 -2 -15 12 0 26 19 19 26 -2 2 -10 -2 -17
-11z"/>
<path d="M9726 4053 c-6 -14 -5 -15 5 -6 7 7 10 15 7 18 -3 3 -9 -2 -12 -12z"/>
<path d="M9810 4035 c-13 -15 -6 -35 13 -35 8 0 7 4 -2 9 -12 8 -12 12 -2 25
8 9 11 16 8 16 -2 0 -10 -7 -17 -15z"/>
<path d="M9795 3973 c-20 -15 -20 -15 2 -10 14 3 24 -1 28 -11 3 -8 8 -12 11
-9 3 3 0 15 -8 25 -12 18 -15 19 -33 5z"/>
<path d="M9805 3942 c-6 -4 -10 -14 -11 -23 -1 -18 24 -21 46 -5 13 9 13 9 3
-5 -7 -9 -10 -18 -7 -21 3 -3 -6 -18 -20 -33 -16 -17 -22 -33 -18 -43 6 -15 7
-14 10 3 5 24 19 40 35 40 7 0 13 17 13 42 1 39 0 42 -18 32 -14 -7 -18 -7
-14 -1 8 13 -7 23 -19 14z"/>
<path d="M9895 3939 c-11 -16 -1 -19 13 -3 7 8 8 14 3 14 -5 0 -13 -5 -16 -11z"/>
<path d="M9830 3785 c0 -8 4 -15 10 -15 5 0 7 7 4 15 -4 8 -8 15 -10 15 -2 0
-4 -7 -4 -15z"/>
<path d="M9796 3770 c-6 -19 -3 -80 4 -80 3 0 11 13 17 30 8 22 8 33 -2 47
-12 15 -14 16 -19 3z"/>
<path d="M9862 3735 c4 -4 2 -18 -3 -32 -11 -29 -4 -44 17 -36 11 4 12 9 3 19
-9 11 -9 17 0 28 9 11 8 15 -6 20 -10 4 -14 4 -11 1z"/>
<path d="M8415 5550 c3 -5 8 -10 11 -10 2 0 4 5 4 10 0 6 -5 10 -11 10 -5 0
-7 -4 -4 -10z"/>
<path d="M8415 5510 c-3 -5 -2 -18 4 -27 7 -14 9 -12 8 10 -2 30 -3 31 -12 17z"/>
<path d="M8280 5476 c0 -2 7 -9 15 -16 13 -11 14 -10 9 4 -5 14 -24 23 -24 12z"/>
<path d="M8320 5466 c0 -2 7 -7 16 -10 8 -3 12 -2 9 4 -6 10 -25 14 -25 6z"/>
<path d="M8355 5410 c3 -5 8 -10 11 -10 2 0 4 5 4 10 0 6 -5 10 -11 10 -5 0
-7 -4 -4 -10z"/>
<path d="M8337 5384 c6 -15 23 -19 23 -5 0 5 -7 11 -14 14 -10 4 -13 1 -9 -9z"/>
<path d="M8406 5371 c-3 -5 2 -15 12 -22 15 -12 16 -12 5 2 -7 9 -10 19 -6 22
3 4 4 7 0 7 -3 0 -8 -4 -11 -9z"/>
<path d="M8390 5333 c0 -12 5 -25 10 -28 13 -8 13 15 0 35 -8 12 -10 11 -10
-7z"/>
<path d="M8426 5317 c3 -10 9 -15 12 -12 3 3 0 11 -7 18 -10 9 -11 8 -5 -6z"/>
<path d="M8517 5273 c-4 -3 -7 -15 -7 -26 0 -25 13 -14 15 13 2 22 1 23 -8 13z"/>
<path d="M8370 5210 c-6 -11 -8 -20 -6 -20 3 0 10 9 16 20 6 11 8 20 6 20 -3
0 -10 -9 -16 -20z"/>
<path d="M8417 5213 c-4 -3 -7 -13 -7 -22 1 -14 3 -13 14 2 9 12 16 14 21 8 3
-6 2 -11 -2 -11 -5 0 -14 -9 -21 -21 -8 -12 -9 -18 -3 -14 10 6 17 -25 11 -50
-13 -53 -13 -52 4 -30 12 14 15 32 11 62 -2 23 0 45 6 48 7 5 6 12 -2 21 -13
15 -22 18 -32 7z"/>
<path d="M8464 5155 c-15 -11 -16 -16 -6 -23 7 -5 15 -18 17 -28 2 -10 4 -20
4 -22 1 -2 8 3 16 12 31 30 3 87 -31 61z"/>
<path d="M8406 5127 c3 -10 9 -15 12 -12 3 3 0 11 -7 18 -10 9 -11 8 -5 -6z"/>
<path d="M8552 5049 c-8 -12 -9 -18 -4 -15 6 3 13 0 15 -6 3 -7 6 -1 6 15 1
33 0 33 -17 6z"/>
<path d="M8428 4949 c-18 -10 -23 -35 -12 -63 10 -27 21 -18 16 14 -3 25 -1
29 12 24 12 -4 16 0 16 15 0 23 -7 25 -32 10z"/>
<path d="M8326 4413 c-6 -14 -5 -15 5 -6 7 7 10 15 7 18 -3 3 -9 -2 -12 -12z"/>
<path d="M8121 4345 c0 -13 24 -45 34 -45 4 0 2 6 -4 13 -6 8 -7 18 -3 22 4 5
2 5 -5 2 -6 -4 -14 -1 -16 5 -3 7 -6 9 -6 3z"/>
<path d="M8240 4339 c0 -7 -12 -10 -30 -7 -19 3 -31 0 -35 -10 -8 -21 -6 -32
5 -32 5 0 7 8 3 18 -6 16 -5 16 14 -1 19 -16 20 -16 35 0 23 28 30 43 19 43
-6 0 -11 -5 -11 -11z"/>
<path d="M8435 4249 c-4 -6 -5 -12 -2 -15 2 -3 7 2 10 11 7 17 1 20 -8 4z"/>
<path d="M8400 4199 c0 -5 5 -7 10 -4 6 3 10 8 10 11 0 2 -4 4 -10 4 -5 0 -10
-5 -10 -11z"/>
<path d="M12286 5027 c3 -10 9 -15 12 -12 3 3 0 11 -7 18 -10 9 -11 8 -5 -6z"/>
<path d="M12145 4389 c-4 -6 -5 -12 -2 -15 2 -3 7 2 10 11 7 17 1 20 -8 4z"/>
<path d="M12107 4354 c-4 -4 -7 -12 -7 -17 0 -6 3 -7 7 -4 9 10 43 -23 43 -43
0 -9 7 -25 15 -36 14 -18 14 -17 5 10 -8 20 -7 32 1 42 10 12 8 13 -6 7 -15
-5 -17 -3 -12 11 4 11 3 15 -4 11 -6 -4 -16 0 -22 10 -7 9 -16 13 -20 9z"/>
<path d="M12101 4297 c2 -1 12 -9 22 -16 15 -12 17 -12 11 3 -3 9 -13 16 -22
16 -8 0 -13 -1 -11 -3z"/>
<path d="M12108 3965 c5 -11 7 -26 5 -32 -3 -7 0 -13 6 -13 16 0 13 23 -5 46
-15 19 -15 19 -6 -1z"/>
<path d="M12060 3883 c0 -11 26 -43 36 -43 2 0 4 8 4 17 0 9 -3 13 -7 10 -3
-4 -12 1 -19 11 -7 9 -14 12 -14 5z"/>
<path d="M12140 5070 c0 -5 5 -10 11 -10 5 0 7 5 4 10 -3 6 -8 10 -11 10 -2 0
-4 -4 -4 -10z"/>
<path d="M6458 3942 c-2 -18 -1 -35 3 -38 13 -8 18 12 10 42 l-8 29 -5 -33z"/>
<path d="M6535 3820 c-3 -5 -3 -10 2 -10 4 0 0 -5 -10 -11 -14 -8 -16 -14 -7
-24 7 -8 8 -20 4 -26 -4 -8 -3 -9 5 -5 7 4 11 15 9 24 -1 10 3 27 10 40 12 21
0 33 -13 12z"/>
<path d="M6400 3595 c0 -5 5 -17 10 -25 5 -8 10 -10 10 -5 0 6 -5 17 -10 25
-5 8 -10 11 -10 5z"/>
<path d="M6497 3234 c-3 -5 1 -15 9 -22 16 -14 18 -5 5 17 -5 7 -11 9 -14 5z"/>
<path d="M10304 3430 c0 -10 4 -16 9 -13 4 2 14 0 21 -6 10 -8 17 -7 27 5 11
13 11 15 -2 13 -7 -2 -23 2 -34 8 -18 10 -21 9 -21 -7z"/>
<path d="M10375 3410 c-3 -5 -1 -10 5 -10 6 0 8 -4 5 -10 -3 -6 1 -7 10 -4 12
5 13 9 4 20 -14 17 -16 17 -24 4z"/>
<path d="M6650 3340 c0 -5 7 -10 15 -10 8 0 15 5 15 10 0 6 -7 10 -15 10 -8 0
-15 -4 -15 -10z"/>
<path d="M12110 3190 c0 -5 5 -10 10 -10 6 0 10 5 10 10 0 6 -4 10 -10 10 -5
0 -10 -4 -10 -10z"/>
<path d="M6578 3053 c6 -2 18 -2 25 0 6 3 1 5 -13 5 -14 0 -19 -2 -12 -5z"/>
<path d="M6540 3030 c0 -5 5 -10 10 -10 6 0 10 5 10 10 0 6 -4 10 -10 10 -5 0
-10 -4 -10 -10z"/>
<path d="M6757 3034 c-8 -8 1 -24 14 -24 5 0 9 7 9 15 0 15 -12 20 -23 9z"/>
<path d="M6595 3020 c3 -5 8 -10 11 -10 2 0 4 5 4 10 0 6 -5 10 -11 10 -5 0
-7 -4 -4 -10z"/>
<path d="M6600 2980 c0 -5 5 -10 11 -10 5 0 7 5 4 10 -3 6 -8 10 -11 10 -2 0
-4 -4 -4 -10z"/>
<path d="M6596 2945 c4 -8 8 -15 10 -15 2 0 4 7 4 15 0 8 -4 15 -10 15 -5 0
-7 -7 -4 -15z"/>
<path d="M6805 2940 c3 -5 8 -10 11 -10 2 0 4 5 4 10 0 6 -5 10 -11 10 -5 0
-7 -4 -4 -10z"/>
<path d="M6847 2865 c-4 -8 -2 -17 3 -20 6 -4 10 3 10 14 0 25 -6 27 -13 6z"/>
<path d="M1235 2355 c-159 -61 -199 -315 -69 -435 94 -86 233 -74 311 28 90
118 56 323 -64 390 -54 29 -126 36 -178 17z"/>
<path d="M5128 2174 l-46 -129 85 -3 c47 -2 87 -1 89 1 2 2 -16 61 -39 132
l-43 129 -46 -130z"/>
<path d="M1920 1170 l0 -110 93 0 c104 0 149 18 168 68 13 34 5 89 -17 113
-20 22 -96 39 -179 39 l-65 0 0 -110z"/>
<path d="M2808 1094 l-46 -129 85 -3 c47 -2 87 -1 89 1 2 2 -16 61 -39 132
l-43 129 -46 -130z"/>
<path d="M5370 1170 l0 -110 93 0 c104 0 149 18 168 68 13 34 5 89 -17 113
-20 22 -96 39 -179 39 l-65 0 0 -110z"/>
</g>
</svg>
